solid OpenSCAD_Model
  facet normal -1 0 0
    outer loop
      vertex -12.5 0 0
      vertex -12.5 0 5
      vertex -12.5 3.93782 0
    endloop
  endfacet
  facet normal -1 0 0
    outer loop
      vertex -12.5 3.93782 0
      vertex -12.5 0 5
      vertex -12.5 3.93782 5
    endloop
  endfacet
  facet normal 0 -1 0
    outer loop
      vertex -12.5 0 5
      vertex -12.5 0 0
      vertex 12.5 0 0
    endloop
  endfacet
  facet normal 0 -1 0
    outer loop
      vertex 12.5 0 5
      vertex -12.5 0 5
      vertex 12.5 0 0
    endloop
  endfacet
  facet normal 0 0 -1
    outer loop
      vertex -12.5 0 0
      vertex -12.5 3.93782 0
      vertex 12.5 0 0
    endloop
  endfacet
  facet normal 0 0 -1
    outer loop
      vertex -8.15 5 0
      vertex -12.5 3.93782 0
      vertex -9 17 0
    endloop
  endfacet
  facet normal 0 0 -1
    outer loop
      vertex 7.325 6.42894 0
      vertex -9 17 0
      vertex 9 17 0
    endloop
  endfacet
  facet normal 0 0 -1
    outer loop
      vertex 12.5 0 0
      vertex 9 17 0
      vertex 12.5 3.93782 0
    endloop
  endfacet
  facet normal 0 0 -1
    outer loop
      vertex -7.325 3.57106 0
      vertex -12.5 3.93782 0
      vertex -8.15 5 0
    endloop
  endfacet
  facet normal 0 0 -1
    outer loop
      vertex -7.325 6.42894 0
      vertex -8.15 5 0
      vertex -9 17 0
    endloop
  endfacet
  facet normal 0 0 -1
    outer loop
      vertex 12.5 0 0
      vertex -12.5 3.93782 0
      vertex -7.325 3.57106 0
    endloop
  endfacet
  facet normal 0 0 -1
    outer loop
      vertex 12.5 0 0
      vertex -7.325 3.57106 0
      vertex -5.675 3.57106 0
    endloop
  endfacet
  facet normal 0 0 -1
    outer loop
      vertex 4.85 5 0
      vertex -9 17 0
      vertex 5.675 6.42894 0
    endloop
  endfacet
  facet normal 0 0 -1
    outer loop
      vertex 4.85 5 0
      vertex -4.85 5 0
      vertex -9 17 0
    endloop
  endfacet
  facet normal 0 0 -1
    outer loop
      vertex -4.85 5 0
      vertex -5.675 6.42894 0
      vertex -9 17 0
    endloop
  endfacet
  facet normal 0 0 -1
    outer loop
      vertex -5.675 6.42894 0
      vertex -7.325 6.42894 0
      vertex -9 17 0
    endloop
  endfacet
  facet normal 0 0 -1
    outer loop
      vertex 5.675 3.57106 0
      vertex -4.85 5 0
      vertex 4.85 5 0
    endloop
  endfacet
  facet normal 0 0 -1
    outer loop
      vertex 7.325 3.57106 0
      vertex 12.5 0 0
      vertex 5.675 3.57106 0
    endloop
  endfacet
  facet normal 0 0 -1
    outer loop
      vertex 12.5 0 0
      vertex -4.85 5 0
      vertex 5.675 3.57106 0
    endloop
  endfacet
  facet normal 0 0 -1
    outer loop
      vertex 8.15 5 0
      vertex 12.5 0 0
      vertex 7.325 3.57106 0
    endloop
  endfacet
  facet normal 0 0 -1
    outer loop
      vertex 12.5 0 0
      vertex 8.15 5 0
      vertex 9 17 0
    endloop
  endfacet
  facet normal 0 0 -1
    outer loop
      vertex 8.15 5 0
      vertex 7.325 6.42894 0
      vertex 9 17 0
    endloop
  endfacet
  facet normal 0 0 -1
    outer loop
      vertex 5.675 6.42894 0
      vertex -9 17 0
      vertex 7.325 6.42894 0
    endloop
  endfacet
  facet normal 0 0 -1
    outer loop
      vertex -4.85 5 0
      vertex 12.5 0 0
      vertex -5.675 3.57106 0
    endloop
  endfacet
  facet normal -0.965926 0.258819 0
    outer loop
      vertex -12.5 3.93782 0
      vertex -12.5 3.93782 5
      vertex -9 17 0
    endloop
  endfacet
  facet normal -0.965926 0.258819 0
    outer loop
      vertex -9 17 0
      vertex -12.5 3.93782 5
      vertex -10 13.2679 5
    endloop
  endfacet
  facet normal -0.965926 0.258819 0
    outer loop
      vertex -9 17 0
      vertex -10 13.2679 5
      vertex -10 13.2679 13.0127
    endloop
  endfacet
  facet normal -0.965926 0.258819 0
    outer loop
      vertex -9 17 0
      vertex -10 13.2679 13.0127
      vertex -10 13.2679 18.0462
    endloop
  endfacet
  facet normal -0.965926 0.258819 0
    outer loop
      vertex -9 17 0
      vertex -10 13.2679 18.0462
      vertex -10 13.2679 18.2056
    endloop
  endfacet
  facet normal -0.965926 0.258819 0
    outer loop
      vertex -9 17 0
      vertex -10 13.2679 18.2056
      vertex -10 13.2679 18.5041
    endloop
  endfacet
  facet normal -0.965926 0.258819 0
    outer loop
      vertex -9 17 0
      vertex -10 13.2679 18.5041
      vertex -9.69744 14.3971 17.25
    endloop
  endfacet
  facet normal -0.965926 0.258819 0
    outer loop
      vertex -9 17 0
      vertex -9.69744 14.3971 17.25
      vertex -9.5425 14.9753 15.4704
    endloop
  endfacet
  facet normal -0.965926 0.258819 0
    outer loop
      vertex -9 17 0
      vertex -9.5425 14.9753 15.4704
      vertex -9.09788 16.6347 6.88911
    endloop
  endfacet
  facet normal -0.965926 0.258819 0
    outer loop
      vertex -9 17 0
      vertex -9.09788 16.6347 6.88911
      vertex -9 17 5
    endloop
  endfacet
  facet normal 0 0 1
    outer loop
      vertex -4.8125 2.07716 5
      vertex -12.5 0 5
      vertex 12.5 0 5
    endloop
  endfacet
  facet normal 0 0 1
    outer loop
      vertex 10 13.2679 5
      vertex 10 9.71429 5
      vertex 12.5 3.93782 5
    endloop
  endfacet
  facet normal 0 0 1
    outer loop
      vertex 10 9.71429 5
      vertex 10 8.84833 5
      vertex 12.5 3.93782 5
    endloop
  endfacet
  facet normal 0 0 1
    outer loop
      vertex 5 7.92284 5
      vertex 8.1875 7.92284 5
      vertex 8.16304 7.97874 5
    endloop
  endfacet
  facet normal 0 0 1
    outer loop
      vertex 10 8.84833 5
      vertex 10 8.23089 5
      vertex 12.5 3.93782 5
    endloop
  endfacet
  facet normal 0 0 1
    outer loop
      vertex -3.6683 5.94103 5
      vertex -3.125 5 5
      vertex 3.6683 5.94103 5
    endloop
  endfacet
  facet normal 0 0 1
    outer loop
      vertex 10 8.23089 5
      vertex 10 7.97874 5
      vertex 12.5 3.93782 5
    endloop
  endfacet
  facet normal 0 0 1
    outer loop
      vertex 8.1875 7.92284 5
      vertex 9.875 5 5
      vertex 10 7.97874 5
    endloop
  endfacet
  facet normal 0 0 1
    outer loop
      vertex -5 7.92284 5
      vertex -5 14.8558 5
      vertex -5 13.9048 5
    endloop
  endfacet
  facet normal 0 0 1
    outer loop
      vertex -9.875 5 5
      vertex -8.1875 7.92284 5
      vertex -12.5 3.93782 5
    endloop
  endfacet
  facet normal 0 0 1
    outer loop
      vertex 10 7.97874 5
      vertex 9.875 5 5
      vertex 12.5 3.93782 5
    endloop
  endfacet
  facet normal 0 0 1
    outer loop
      vertex 12.5 3.93782 5
      vertex 8.1875 2.07716 5
      vertex 12.5 0 5
    endloop
  endfacet
  facet normal 0 0 1
    outer loop
      vertex 8.1875 2.07716 5
      vertex 4.8125 2.07716 5
      vertex 12.5 0 5
    endloop
  endfacet
  facet normal 0 0 1
    outer loop
      vertex 4.8125 2.07716 5
      vertex -4.8125 2.07716 5
      vertex 12.5 0 5
    endloop
  endfacet
  facet normal 0 0 1
    outer loop
      vertex -3.125 5 5
      vertex 4.8125 2.07716 5
      vertex 3.125 5 5
    endloop
  endfacet
  facet normal 0 0 1
    outer loop
      vertex 9.875 5 5
      vertex 8.1875 2.07716 5
      vertex 12.5 3.93782 5
    endloop
  endfacet
  facet normal 0 0 1
    outer loop
      vertex -5 7.92284 5
      vertex -5 13.9048 5
      vertex -5 9.71429 5
    endloop
  endfacet
  facet normal 0 0 1
    outer loop
      vertex 3.6683 5.94103 5
      vertex -3.125 5 5
      vertex 3.125 5 5
    endloop
  endfacet
  facet normal 0 0 1
    outer loop
      vertex -5 7.92284 5
      vertex -5 15.059 5
      vertex -5 14.8558 5
    endloop
  endfacet
  facet normal 0 0 1
    outer loop
      vertex -8.1875 2.07716 5
      vertex -12.5 0 5
      vertex -4.8125 2.07716 5
    endloop
  endfacet
  facet normal 0 0 1
    outer loop
      vertex -8.1875 7.92284 5
      vertex -10 7.97874 5
      vertex -12.5 3.93782 5
    endloop
  endfacet
  facet normal 0 0 1
    outer loop
      vertex -12.5 3.93782 5
      vertex -12.5 0 5
      vertex -8.1875 2.07716 5
    endloop
  endfacet
  facet normal 0 0 1
    outer loop
      vertex -5 7.92284 5
      vertex -5 9.71429 5
      vertex -5 8.84833 5
    endloop
  endfacet
  facet normal 0 0 1
    outer loop
      vertex 5 15.566 5
      vertex -5 15.059 5
      vertex 5 15.059 5
    endloop
  endfacet
  facet normal 0 0 1
    outer loop
      vertex 5 15.966 5
      vertex -5 15.059 5
      vertex 5 15.566 5
    endloop
  endfacet
  facet normal 0 0 1
    outer loop
      vertex 5 17 5
      vertex -5 15.059 5
      vertex 5 15.966 5
    endloop
  endfacet
  facet normal 0 0 1
    outer loop
      vertex -5 17 5
      vertex -5 15.059 5
      vertex 5 17 5
    endloop
  endfacet
  facet normal 0 0 1
    outer loop
      vertex -5 17 5
      vertex -5 15.6838 5
      vertex -5 15.059 5
    endloop
  endfacet
  facet normal 0 0 1
    outer loop
      vertex -10 8.03837 5
      vertex -10 8.30518 5
      vertex -12.5 3.93782 5
    endloop
  endfacet
  facet normal 0 0 1
    outer loop
      vertex -5 15.6838 5
      vertex -5 14.8558 5
      vertex -5 15.059 5
    endloop
  endfacet
  facet normal 0 0 1
    outer loop
      vertex -5 8.23089 5
      vertex -5 7.92284 5
      vertex -5 8.84833 5
    endloop
  endfacet
  facet normal 0 0 1
    outer loop
      vertex -5 7.97874 5
      vertex -5 7.92284 5
      vertex -5 8.23089 5
    endloop
  endfacet
  facet normal 0 0 1
    outer loop
      vertex -8.1875 7.92284 5
      vertex -5 7.92284 5
      vertex -5 7.97874 5
    endloop
  endfacet
  facet normal 0 0 1
    outer loop
      vertex -8.1875 7.92284 5
      vertex -5 7.97874 5
      vertex -6.83696 7.97874 5
    endloop
  endfacet
  facet normal 0 0 1
    outer loop
      vertex -10 8.03837 5
      vertex -12.5 3.93782 5
      vertex -10 7.97874 5
    endloop
  endfacet
  facet normal 0 0 1
    outer loop
      vertex -10 8.69287 5
      vertex -12.5 3.93782 5
      vertex -10 8.30518 5
    endloop
  endfacet
  facet normal 0 0 1
    outer loop
      vertex -10 9.14545 5
      vertex -12.5 3.93782 5
      vertex -10 8.69287 5
    endloop
  endfacet
  facet normal 0 0 1
    outer loop
      vertex -10 13.2679 5
      vertex -12.5 3.93782 5
      vertex -10 9.14545 5
    endloop
  endfacet
  facet normal 0 0 1
    outer loop
      vertex -3.125 5 5
      vertex -4.8125 2.07716 5
      vertex 4.8125 2.07716 5
    endloop
  endfacet
  facet normal 0 0 1
    outer loop
      vertex 10 7.97874 5
      vertex 8.16304 7.97874 5
      vertex 8.1875 7.92284 5
    endloop
  endfacet
  facet normal 0 0 1
    outer loop
      vertex 8.16304 7.97874 5
      vertex 5 7.97874 5
      vertex 5 7.92284 5
    endloop
  endfacet
  facet normal 0 0 1
    outer loop
      vertex -8.1875 2.07716 5
      vertex -9.875 5 5
      vertex -12.5 3.93782 5
    endloop
  endfacet
  facet normal 0 0 1
    outer loop
      vertex -6.83696 7.97874 5
      vertex -10 7.97874 5
      vertex -8.1875 7.92284 5
    endloop
  endfacet
  facet normal 1 0 0
    outer loop
      vertex 12.5 0 5
      vertex 12.5 0 0
      vertex 12.5 3.93782 0
    endloop
  endfacet
  facet normal 1 0 0
    outer loop
      vertex 12.5 3.93782 5
      vertex 12.5 0 5
      vertex 12.5 3.93782 0
    endloop
  endfacet
  facet normal 0.965926 0.258819 0
    outer loop
      vertex 9 17 5
      vertex 9.48682 15.1831 14.3957
      vertex 9.5425 14.9753 15.4704
    endloop
  endfacet
  facet normal 0.965926 0.258819 0
    outer loop
      vertex 10 13.2679 18.5041
      vertex 9 17 5
      vertex 9.69744 14.3971 17.25
    endloop
  endfacet
  facet normal 0.965926 0.258819 0
    outer loop
      vertex 9.69744 14.3971 17.25
      vertex 9 17 5
      vertex 9.5425 14.9753 15.4704
    endloop
  endfacet
  facet normal 0.965926 0.258819 0
    outer loop
      vertex 10 13.2679 11.5703
      vertex 9 17 5
      vertex 10 13.2679 18.5041
    endloop
  endfacet
  facet normal 0.965926 0.258819 0
    outer loop
      vertex 10 13.2679 8.70261
      vertex 9 17 5
      vertex 10 13.2679 11.5703
    endloop
  endfacet
  facet normal 0.965926 0.258819 0
    outer loop
      vertex 10 13.2679 6.0287
      vertex 9 17 5
      vertex 10 13.2679 8.70261
    endloop
  endfacet
  facet normal 0.965926 0.258819 0
    outer loop
      vertex 10 13.2679 5
      vertex 9 17 5
      vertex 10 13.2679 6.0287
    endloop
  endfacet
  facet normal 0.965926 0.258819 0
    outer loop
      vertex 12.5 3.93782 0
      vertex 9 17 5
      vertex 10 13.2679 5
    endloop
  endfacet
  facet normal 0.965926 0.258819 0
    outer loop
      vertex 12.5 3.93782 0
      vertex 10 13.2679 5
      vertex 12.5 3.93782 5
    endloop
  endfacet
  facet normal 0.965926 0.258819 0
    outer loop
      vertex 9 17 0
      vertex 9 17 5
      vertex 12.5 3.93782 0
    endloop
  endfacet
  facet normal 0 1 0
    outer loop
      vertex -9 17 0
      vertex -9 17 5
      vertex 9 17 0
    endloop
  endfacet
  facet normal 0 1 0
    outer loop
      vertex 9 17 0
      vertex -9 17 5
      vertex -5 17 5
    endloop
  endfacet
  facet normal 0 1 0
    outer loop
      vertex 9 17 0
      vertex -5 17 5
      vertex 5 17 5
    endloop
  endfacet
  facet normal 0 1 0
    outer loop
      vertex 9 17 0
      vertex 5 17 5
      vertex 9 17 5
    endloop
  endfacet
  facet normal 0.866025 -0.5 0
    outer loop
      vertex -7.325 6.42894 0
      vertex -7.325 6.42894 2.5
      vertex -8.15 5 2.5
    endloop
  endfacet
  facet normal 0.866025 -0.5 0
    outer loop
      vertex -8.15 5 0
      vertex -7.325 6.42894 0
      vertex -8.15 5 2.5
    endloop
  endfacet
  facet normal 0.866025 0.5 0
    outer loop
      vertex -8.15 5 2.5
      vertex -7.325 3.57106 2.5
      vertex -7.325 3.57106 0
    endloop
  endfacet
  facet normal 0.866025 0.5 0
    outer loop
      vertex -8.15 5 0
      vertex -8.15 5 2.5
      vertex -7.325 3.57106 0
    endloop
  endfacet
  facet normal 0 -1 0
    outer loop
      vertex -5.675 6.42894 0
      vertex -5.675 6.42894 2.5
      vertex -7.325 6.42894 2.5
    endloop
  endfacet
  facet normal 0 -1 0
    outer loop
      vertex -7.325 6.42894 0
      vertex -5.675 6.42894 0
      vertex -7.325 6.42894 2.5
    endloop
  endfacet
  facet normal -0.866025 -0.5 0
    outer loop
      vertex -4.85 5 2.5
      vertex -5.675 6.42894 2.5
      vertex -4.85 5 0
    endloop
  endfacet
  facet normal -0.866025 -0.5 0
    outer loop
      vertex -4.85 5 0
      vertex -5.675 6.42894 2.5
      vertex -5.675 6.42894 0
    endloop
  endfacet
  facet normal -0.866025 0.5 0
    outer loop
      vertex -4.85 5 2.5
      vertex -4.85 5 0
      vertex -5.675 3.57106 2.5
    endloop
  endfacet
  facet normal -0.866025 0.5 0
    outer loop
      vertex -5.675 3.57106 2.5
      vertex -4.85 5 0
      vertex -5.675 3.57106 0
    endloop
  endfacet
  facet normal 0 1 0
    outer loop
      vertex -5.675 3.57106 2.5
      vertex -5.675 3.57106 0
      vertex -7.325 3.57106 2.5
    endloop
  endfacet
  facet normal 0 1 0
    outer loop
      vertex -7.325 3.57106 2.5
      vertex -5.675 3.57106 0
      vertex -7.325 3.57106 0
    endloop
  endfacet
  facet normal 0.866025 0.5 0
    outer loop
      vertex 4.85 5 2.5
      vertex 5.675 3.57106 2.5
      vertex 5.675 3.57106 0
    endloop
  endfacet
  facet normal 0.866025 0.5 0
    outer loop
      vertex 4.85 5 0
      vertex 4.85 5 2.5
      vertex 5.675 3.57106 0
    endloop
  endfacet
  facet normal 0.866025 -0.5 0
    outer loop
      vertex 5.675 6.42894 0
      vertex 5.675 6.42894 2.5
      vertex 4.85 5 2.5
    endloop
  endfacet
  facet normal 0.866025 -0.5 0
    outer loop
      vertex 4.85 5 0
      vertex 5.675 6.42894 0
      vertex 4.85 5 2.5
    endloop
  endfacet
  facet normal 0 -1 0
    outer loop
      vertex 7.325 6.42894 0
      vertex 7.325 6.42894 2.5
      vertex 5.675 6.42894 2.5
    endloop
  endfacet
  facet normal 0 -1 0
    outer loop
      vertex 5.675 6.42894 0
      vertex 7.325 6.42894 0
      vertex 5.675 6.42894 2.5
    endloop
  endfacet
  facet normal -0.866025 -0.5 0
    outer loop
      vertex 8.15 5 2.5
      vertex 7.325 6.42894 2.5
      vertex 8.15 5 0
    endloop
  endfacet
  facet normal -0.866025 -0.5 0
    outer loop
      vertex 8.15 5 0
      vertex 7.325 6.42894 2.5
      vertex 7.325 6.42894 0
    endloop
  endfacet
  facet normal -0.866025 0.5 0
    outer loop
      vertex 8.15 5 2.5
      vertex 8.15 5 0
      vertex 7.325 3.57106 2.5
    endloop
  endfacet
  facet normal -0.866025 0.5 0
    outer loop
      vertex 7.325 3.57106 2.5
      vertex 8.15 5 0
      vertex 7.325 3.57106 0
    endloop
  endfacet
  facet normal 0 1 0
    outer loop
      vertex 7.325 3.57106 2.5
      vertex 7.325 3.57106 0
      vertex 5.675 3.57106 2.5
    endloop
  endfacet
  facet normal 0 1 0
    outer loop
      vertex 5.675 3.57106 2.5
      vertex 7.325 3.57106 0
      vertex 5.675 3.57106 0
    endloop
  endfacet
  facet normal 0 0.981813 0.189853
    outer loop
      vertex -9.09788 16.6347 6.88911
      vertex -5 14.9753 15.4704
      vertex -9 17 5
    endloop
  endfacet
  facet normal 0 0.981813 0.189853
    outer loop
      vertex -9 17 5
      vertex -5 14.9753 15.4704
      vertex -5 17 5
    endloop
  endfacet
  facet normal -3.36649e-17 0.981813 0.189853
    outer loop
      vertex -9.5425 14.9753 15.4704
      vertex -5 14.9753 15.4704
      vertex -9.09788 16.6347 6.88911
    endloop
  endfacet
  facet normal -5.47953e-17 0.951056 0.309017
    outer loop
      vertex -9.69744 14.3971 17.25
      vertex -5 14.3971 17.25
      vertex -9.5425 14.9753 15.4704
    endloop
  endfacet
  facet normal -5.47953e-17 0.951056 0.309017
    outer loop
      vertex -9.5425 14.9753 15.4704
      vertex -5 14.3971 17.25
      vertex -5 14.9753 15.4704
    endloop
  endfacet
  facet normal -1.18651e-16 0.743145 0.669131
    outer loop
      vertex -10 13.145 18.6406
      vertex -5 13.145 18.6406
      vertex -10 13.2679 18.5041
    endloop
  endfacet
  facet normal -1.18651e-16 0.743145 0.669131
    outer loop
      vertex -10 13.2679 18.5041
      vertex -5 13.145 18.6406
      vertex -5 14.3971 17.25
    endloop
  endfacet
  facet normal -1.18651e-16 0.743145 0.669131
    outer loop
      vertex -10 13.2679 18.5041
      vertex -5 14.3971 17.25
      vertex -9.69744 14.3971 17.25
    endloop
  endfacet
  facet normal -1 2.10419e-16 1.21407e-17
    outer loop
      vertex -10 13.2679 18.2056
      vertex -10 13.145 18.6406
      vertex -10 13.2679 18.5041
    endloop
  endfacet
  facet normal -1 1.6746e-16 0
    outer loop
      vertex -10 13.2679 18.0462
      vertex -10 13.145 18.6406
      vertex -10 13.2679 18.2056
    endloop
  endfacet
  facet normal -1 6.99723e-17 -2.01609e-17
    outer loop
      vertex -10 11.4356 19.4017
      vertex -10 13.145 18.6406
      vertex -10 12.5086 15.6604
    endloop
  endfacet
  facet normal -1 6.99723e-17 -2.01609e-17
    outer loop
      vertex -10 12.5086 15.6604
      vertex -10 13.145 18.6406
      vertex -10 13.2679 18.0462
    endloop
  endfacet
  facet normal -1 6.99723e-17 -2.01609e-17
    outer loop
      vertex -10 12.6062 15.3202
      vertex -10 13.2679 18.0462
      vertex -10 13.2679 13.0127
    endloop
  endfacet
  facet normal -1 6.99723e-17 -2.01609e-17
    outer loop
      vertex -10 12.6448 15.4895
      vertex -10 13.2679 18.0462
      vertex -10 12.6062 15.3202
    endloop
  endfacet
  facet normal -1 6.99723e-17 -2.01609e-17
    outer loop
      vertex -10 12.5086 15.6604
      vertex -10 13.2679 18.0462
      vertex -10 12.6448 15.4895
    endloop
  endfacet
  facet normal -1 0 -4.0229e-17
    outer loop
      vertex -10 12.6062 15.3202
      vertex -10 13.2679 13.0127
      vertex -10 12.22 13.6283
    endloop
  endfacet
  facet normal -1 0 -4.0229e-17
    outer loop
      vertex -10 12.22 13.6283
      vertex -10 13.2679 13.0127
      vertex -10 13.2679 5
    endloop
  endfacet
  facet normal -1 0 -4.0229e-17
    outer loop
      vertex -10 12.22 13.6283
      vertex -10 13.2679 5
      vertex -10 9.14545 5
    endloop
  endfacet
  facet normal -1 0 -4.0229e-17
    outer loop
      vertex -10 9.14545 5
      vertex -10 9.38793 13.3355
      vertex -10 10.5 12.8
    endloop
  endfacet
  facet normal -1 0 -4.0229e-17
    outer loop
      vertex -10 12.22 13.6283
      vertex -10 9.14545 5
      vertex -10 10.5 12.8
    endloop
  endfacet
  facet normal -1 -6.18384e-17 -3.84301e-17
    outer loop
      vertex -10 9.5644 19.4017
      vertex -10 9.49206 16.9152
      vertex -10 7.85497 18.6406
    endloop
  endfacet
  facet normal -1 -6.18384e-17 -3.84301e-17
    outer loop
      vertex -10 7.85497 18.6406
      vertex -10 9.49206 16.9152
      vertex -10 8.35516 15.4895
    endloop
  endfacet
  facet normal -1 -6.18384e-17 -3.84301e-17
    outer loop
      vertex -10 8.35516 15.4895
      vertex -10 9.14545 5
      vertex -10 7.85497 18.6406
    endloop
  endfacet
  facet normal -1 -6.18384e-17 -3.84301e-17
    outer loop
      vertex -10 8.77997 13.6283
      vertex -10 9.38793 13.3355
      vertex -10 9.14545 5
    endloop
  endfacet
  facet normal -1 -6.18384e-17 -3.84301e-17
    outer loop
      vertex -10 8.77997 13.6283
      vertex -10 9.14545 5
      vertex -10 8.35516 15.4895
    endloop
  endfacet
  facet normal -1 -6.18384e-17 -3.84301e-17
    outer loop
      vertex -10 7.85497 18.6406
      vertex -10 9.14545 5
      vertex -10 8.69287 5
    endloop
  endfacet
  facet normal -1 -1.48352e-16 -4.37444e-17
    outer loop
      vertex -10 7.85497 18.6406
      vertex -10 8.69287 5
      vertex -10 6.60289 17.25
    endloop
  endfacet
  facet normal -1 -1.48352e-16 -4.37444e-17
    outer loop
      vertex -10 6.60289 17.25
      vertex -10 8.69287 5
      vertex -10 8.30518 5
    endloop
  endfacet
  facet normal -1 -3.32395e-16 -6.93195e-17
    outer loop
      vertex -10 6.60289 17.25
      vertex -10 8.30518 5
      vertex -10 6.02465 15.4704
    endloop
  endfacet
  facet normal -1 -3.32395e-16 -6.93195e-17
    outer loop
      vertex -10 6.02465 15.4704
      vertex -10 8.30518 5
      vertex -10 8.03837 5
    endloop
  endfacet
  facet normal -1 -1.9712e-15 -3.84504e-16
    outer loop
      vertex -10 6.02465 15.4704
      vertex -10 8.03837 5
      vertex -10 6.22025 13.6094
    endloop
  endfacet
  facet normal -1 -1.9712e-15 -3.84504e-16
    outer loop
      vertex -10 6.22025 13.6094
      vertex -10 8.03837 5
      vertex -10 7.97874 5
    endloop
  endfacet
  facet normal 0 -0.979771 -0.20012
    outer loop
      vertex -6.93752 7.92284 5.2737
      vertex -10 7.97874 5
      vertex -6.83696 7.97874 5
    endloop
  endfacet
  facet normal 0 -0.979771 -0.20012
    outer loop
      vertex -8.1875 7.92284 5.2737
      vertex -10 7.97874 5
      vertex -6.93752 7.92284 5.2737
    endloop
  endfacet
  facet normal 0 -0.979771 -0.20012
    outer loop
      vertex -10 6.22025 13.6094
      vertex -10 7.97874 5
      vertex -8.1875 7.92284 5.2737
    endloop
  endfacet
  facet normal 0 -0.979771 -0.20012
    outer loop
      vertex -10 6.22025 13.6094
      vertex -8.1875 7.92284 5.2737
      vertex -8.33211 7.67236 6.5
    endloop
  endfacet
  facet normal 0 -0.979771 -0.20012
    outer loop
      vertex -10 6.22025 13.6094
      vertex -8.33211 7.67236 6.5
      vertex -7.38805 7.67236 6.5
    endloop
  endfacet
  facet normal 3.54856e-17 -0.979771 -0.20012
    outer loop
      vertex -5 7.92284 5.2737
      vertex -6.93752 7.92284 5.2737
      vertex -6.83696 7.97874 5
    endloop
  endfacet
  facet normal 3.54856e-17 -0.979771 -0.20012
    outer loop
      vertex -5 7.97874 5
      vertex -5 7.92284 5.2737
      vertex -6.83696 7.97874 5
    endloop
  endfacet
  facet normal 1 -5.2383e-16 -1.25112e-16
    outer loop
      vertex -5 7.92284 5.2737
      vertex -5 7.97874 5
      vertex -5 8.23089 5
    endloop
  endfacet
  facet normal 1 -5.2383e-16 -1.25112e-16
    outer loop
      vertex -5 7.92284 6.5
      vertex -5 7.92284 5.2737
      vertex -5 8.23089 5
    endloop
  endfacet
  facet normal 1 -5.2383e-16 -1.25112e-16
    outer loop
      vertex -5 6.22025 13.6094
      vertex -5 7.67236 6.5
      vertex -5 7.15585 11.9889
    endloop
  endfacet
  facet normal 1 -5.2383e-16 -1.25112e-16
    outer loop
      vertex -5 7.15585 11.9889
      vertex -5 7.92284 6.5
      vertex -5 8.23089 5
    endloop
  endfacet
  facet normal 1 -5.2383e-16 -1.25112e-16
    outer loop
      vertex -5 7.67236 6.5
      vertex -5 7.92284 6.5
      vertex -5 7.15585 11.9889
    endloop
  endfacet
  facet normal 1 -1.81469e-16 -7.24491e-17
    outer loop
      vertex -5 7.15585 11.9889
      vertex -5 8.23089 5
      vertex -5 8.84833 5
    endloop
  endfacet
  facet normal 1 -1.81469e-16 -7.24491e-17
    outer loop
      vertex -5 8.66968 10.889
      vertex -5 7.15585 11.9889
      vertex -5 8.84833 5
    endloop
  endfacet
  facet normal 1 -5.22571e-17 -6.85295e-17
    outer loop
      vertex -5 8.66968 10.889
      vertex -5 8.84833 5
      vertex -5 9.71429 5
    endloop
  endfacet
  facet normal 1 -5.22571e-17 -6.85295e-17
    outer loop
      vertex -5 10.5 10.5
      vertex -5 8.66968 10.889
      vertex -5 9.71429 5
    endloop
  endfacet
  facet normal 1 0 -7.59948e-17
    outer loop
      vertex -5 10.5 10.5
      vertex -5 9.71429 5
      vertex -5 13.9048 5
    endloop
  endfacet
  facet normal 1 4.75829e-17 -4.65388e-17
    outer loop
      vertex -5 13.9048 5
      vertex -5 14.8558 5
      vertex -5 12.3303 10.889
    endloop
  endfacet
  facet normal 1 4.75829e-17 -4.65388e-17
    outer loop
      vertex -5 10.5 10.5
      vertex -5 13.9048 5
      vertex -5 12.3303 10.889
    endloop
  endfacet
  facet normal 1 1.3531e-16 -8.91749e-18
    outer loop
      vertex -5 14.8558 5
      vertex -5 15.6838 5
      vertex -5 13.8442 11.9889
    endloop
  endfacet
  facet normal 1 1.3531e-16 -8.91749e-18
    outer loop
      vertex -5 12.3303 10.889
      vertex -5 14.8558 5
      vertex -5 13.8442 11.9889
    endloop
  endfacet
  facet normal 1 1.69187e-16 0
    outer loop
      vertex -5 15.6838 5
      vertex -5 17 5
      vertex -5 13.8442 11.9889
    endloop
  endfacet
  facet normal 1 2.46591e-16 3.49518e-17
    outer loop
      vertex -5 13.8442 11.9889
      vertex -5 17 5
      vertex -5 14.7798 13.6094
    endloop
  endfacet
  facet normal 1 5.67403e-16 1.17685e-16
    outer loop
      vertex -5 17 5
      vertex -5 14.9753 15.4704
      vertex -5 14.7798 13.6094
    endloop
  endfacet
  facet normal 0 0.981813 0.189853
    outer loop
      vertex 9 17 5
      vertex 5 17 5
      vertex 9.48682 15.1831 14.3957
    endloop
  endfacet
  facet normal -3.36649e-17 0.981813 0.189853
    outer loop
      vertex 5 14.9753 15.4704
      vertex 9.5425 14.9753 15.4704
      vertex 5 16.8051 6.00811
    endloop
  endfacet
  facet normal -3.36649e-17 0.981813 0.189853
    outer loop
      vertex 5 16.8051 6.00811
      vertex 9.5425 14.9753 15.4704
      vertex 9.48682 15.1831 14.3957
    endloop
  endfacet
  facet normal -3.36649e-17 0.981813 0.189853
    outer loop
      vertex 5 16.8051 6.00811
      vertex 9.48682 15.1831 14.3957
      vertex 5 17 5
    endloop
  endfacet
  facet normal -1 1.28738e-15 2.40973e-16
    outer loop
      vertex 5 17 5
      vertex 5 16.7879 5.9982
      vertex 5 16.8051 6.00811
    endloop
  endfacet
  facet normal -1 2.10419e-16 1.21407e-17
    outer loop
      vertex 5 17 5
      vertex 5 16.7277 5.96345
      vertex 5 16.7879 5.9982
    endloop
  endfacet
  facet normal -1 1.6746e-16 0
    outer loop
      vertex 5 15.8692 5.4678
      vertex 5 16.7277 5.96345
      vertex 5 15.966 5
    endloop
  endfacet
  facet normal -1 1.6746e-16 0
    outer loop
      vertex 5 15.966 5
      vertex 5 16.7277 5.96345
      vertex 5 17 5
    endloop
  endfacet
  facet normal -1 6.99723e-17 -2.01609e-17
    outer loop
      vertex 5 15.494 5.25115
      vertex 5 15.8692 5.4678
      vertex 5 15.566 5
    endloop
  endfacet
  facet normal -1 6.99723e-17 -2.01609e-17
    outer loop
      vertex 5 15.566 5
      vertex 5 15.8692 5.4678
      vertex 5 15.966 5
    endloop
  endfacet
  facet normal -1 0 -4.0229e-17
    outer loop
      vertex 5 15.059 5
      vertex 5 15.494 5.25115
      vertex 5 15.566 5
    endloop
  endfacet
  facet normal -1.53565e-16 -0.5 0.866025
    outer loop
      vertex 5 16.7879 5.9982
      vertex 5 14.9741 4.951
      vertex 5 16.8051 6.00811
    endloop
  endfacet
  facet normal -1.53565e-16 -0.5 0.866025
    outer loop
      vertex 5 16.7277 5.96345
      vertex 5 14.9741 4.951
      vertex 5 16.7879 5.9982
    endloop
  endfacet
  facet normal -1.53565e-16 -0.5 0.866025
    outer loop
      vertex 5 15.8692 5.4678
      vertex 5 14.9741 4.951
      vertex 5 16.7277 5.96345
    endloop
  endfacet
  facet normal -1.53565e-16 -0.5 0.866025
    outer loop
      vertex 5 15.494 5.25115
      vertex 5 14.9741 4.951
      vertex 5 15.8692 5.4678
    endloop
  endfacet
  facet normal -1.53565e-16 -0.5 0.866025
    outer loop
      vertex 5 15.059 5
      vertex 5 14.9741 4.951
      vertex 5 15.494 5.25115
    endloop
  endfacet
  facet normal -1.53565e-16 -0.5 0.866025
    outer loop
      vertex -5 14.9741 4.951
      vertex 5 14.9741 4.951
      vertex 5 15.059 5
    endloop
  endfacet
  facet normal -1.53565e-16 -0.5 0.866025
    outer loop
      vertex 5 15.059 5
      vertex -5 15.059 5
      vertex -5 14.9741 4.951
    endloop
  endfacet
  facet normal 1 0 1.77321e-16
    outer loop
      vertex -5 7.92284 4.33465
      vertex -5 8.21297 4.24038
      vertex -5 10.5 4
    endloop
  endfacet
  facet normal 1 0 1.77321e-16
    outer loop
      vertex -5 14.9741 4.951
      vertex -5 7.92284 4.33465
      vertex -5 12.787 4.24038
    endloop
  endfacet
  facet normal 1 0 1.77321e-16
    outer loop
      vertex -5 12.787 4.24038
      vertex -5 7.92284 4.33465
      vertex -5 10.5 4
    endloop
  endfacet
  facet normal 1 0 1.77321e-16
    outer loop
      vertex -5 15.059 5
      vertex -5 7.92284 4.33465
      vertex -5 14.9741 4.951
    endloop
  endfacet
  facet normal 1 0 1.77321e-16
    outer loop
      vertex -5 7.92284 5
      vertex -5 7.92284 4.33465
      vertex -5 15.059 5
    endloop
  endfacet
  facet normal 0 -1 0
    outer loop
      vertex -4.8125 7.92284 2.5
      vertex -4.8125 7.92284 4.33465
      vertex -5 7.92284 4.33465
    endloop
  endfacet
  facet normal 0 -1 0
    outer loop
      vertex -8.1875 7.92284 5
      vertex -4.8125 7.92284 2.5
      vertex -5 7.92284 4.33465
    endloop
  endfacet
  facet normal 0 -1 0
    outer loop
      vertex -5 7.92284 5
      vertex -8.1875 7.92284 5
      vertex -5 7.92284 4.33465
    endloop
  endfacet
  facet normal 0 -1 0
    outer loop
      vertex -8.1875 7.92284 5
      vertex -8.1875 7.92284 2.5
      vertex -4.8125 7.92284 2.5
    endloop
  endfacet
  facet normal 0.866025 -0.5 0
    outer loop
      vertex -8.1875 7.92284 2.5
      vertex -8.1875 7.92284 5
      vertex -9.875 5 5
    endloop
  endfacet
  facet normal 0.866025 -0.5 0
    outer loop
      vertex -9.875 5 2.5
      vertex -8.1875 7.92284 2.5
      vertex -9.875 5 5
    endloop
  endfacet
  facet normal 0.866025 0.5 0
    outer loop
      vertex -9.875 5 5
      vertex -8.1875 2.07716 5
      vertex -8.1875 2.07716 2.5
    endloop
  endfacet
  facet normal 0.866025 0.5 0
    outer loop
      vertex -9.875 5 2.5
      vertex -9.875 5 5
      vertex -8.1875 2.07716 2.5
    endloop
  endfacet
  facet normal 0 1 0
    outer loop
      vertex -4.8125 2.07716 5
      vertex -4.8125 2.07716 2.5
      vertex -8.1875 2.07716 5
    endloop
  endfacet
  facet normal 0 1 0
    outer loop
      vertex -8.1875 2.07716 5
      vertex -4.8125 2.07716 2.5
      vertex -8.1875 2.07716 2.5
    endloop
  endfacet
  facet normal -0.866025 0.5 0
    outer loop
      vertex -3.125 5 5
      vertex -3.125 5 2.5
      vertex -4.8125 2.07716 5
    endloop
  endfacet
  facet normal -0.866025 0.5 0
    outer loop
      vertex -4.8125 2.07716 5
      vertex -3.125 5 2.5
      vertex -4.8125 2.07716 2.5
    endloop
  endfacet
  facet normal -0.866025 -0.5 0
    outer loop
      vertex -3.125 5 5
      vertex -3.6683 5.94103 5
      vertex -3.125 5 2.5
    endloop
  endfacet
  facet normal -0.866025 -0.5 0
    outer loop
      vertex -3.125 5 2.5
      vertex -3.6683 5.94103 5
      vertex -3.7173 6.0259 4.951
    endloop
  endfacet
  facet normal -0.866025 -0.5 0
    outer loop
      vertex -3.125 5 2.5
      vertex -3.7173 6.0259 4.951
      vertex -4.8125 7.92284 4.33465
    endloop
  endfacet
  facet normal -0.866025 -0.5 0
    outer loop
      vertex -3.125 5 2.5
      vertex -4.8125 7.92284 4.33465
      vertex -4.8125 7.92284 2.5
    endloop
  endfacet
  facet normal -1.53565e-16 0.5 0.866025
    outer loop
      vertex -3.6683 5.94103 5
      vertex 3.6683 5.94103 5
      vertex 3.7173 6.0259 4.951
    endloop
  endfacet
  facet normal -1.53565e-16 0.5 0.866025
    outer loop
      vertex -3.7173 6.0259 4.951
      vertex -3.6683 5.94103 5
      vertex 3.7173 6.0259 4.951
    endloop
  endfacet
  facet normal 0.866025 -0.5 0
    outer loop
      vertex 4.8125 7.92284 2.5
      vertex 4.8125 7.92284 4.33465
      vertex 3.7173 6.0259 4.951
    endloop
  endfacet
  facet normal 0.866025 -0.5 0
    outer loop
      vertex 3.6683 5.94103 5
      vertex 4.8125 7.92284 2.5
      vertex 3.7173 6.0259 4.951
    endloop
  endfacet
  facet normal 0.866025 -0.5 0
    outer loop
      vertex 3.6683 5.94103 5
      vertex 3.125 5 5
      vertex 4.8125 7.92284 2.5
    endloop
  endfacet
  facet normal 0.866025 -0.5 0
    outer loop
      vertex 3.125 5 5
      vertex 3.125 5 2.5
      vertex 4.8125 7.92284 2.5
    endloop
  endfacet
  facet normal 0.866025 0.5 0
    outer loop
      vertex 3.125 5 5
      vertex 4.8125 2.07716 5
      vertex 4.8125 2.07716 2.5
    endloop
  endfacet
  facet normal 0.866025 0.5 0
    outer loop
      vertex 3.125 5 2.5
      vertex 3.125 5 5
      vertex 4.8125 2.07716 2.5
    endloop
  endfacet
  facet normal 0 1 0
    outer loop
      vertex 8.1875 2.07716 5
      vertex 8.1875 2.07716 2.5
      vertex 4.8125 2.07716 5
    endloop
  endfacet
  facet normal 0 1 0
    outer loop
      vertex 4.8125 2.07716 5
      vertex 8.1875 2.07716 2.5
      vertex 4.8125 2.07716 2.5
    endloop
  endfacet
  facet normal -0.866025 0.5 0
    outer loop
      vertex 9.875 5 5
      vertex 9.875 5 2.5
      vertex 8.1875 2.07716 5
    endloop
  endfacet
  facet normal -0.866025 0.5 0
    outer loop
      vertex 8.1875 2.07716 5
      vertex 9.875 5 2.5
      vertex 8.1875 2.07716 2.5
    endloop
  endfacet
  facet normal -0.866025 -0.5 0
    outer loop
      vertex 9.875 5 5
      vertex 8.1875 7.92284 5
      vertex 9.875 5 2.5
    endloop
  endfacet
  facet normal -0.866025 -0.5 0
    outer loop
      vertex 9.875 5 2.5
      vertex 8.1875 7.92284 5
      vertex 8.1875 7.92284 2.5
    endloop
  endfacet
  facet normal 0 -1 0
    outer loop
      vertex 8.1875 7.92284 2.5
      vertex 8.1875 7.92284 5
      vertex 5 7.92284 5
    endloop
  endfacet
  facet normal 0 -1 0
    outer loop
      vertex 4.8125 7.92284 4.33465
      vertex 8.1875 7.92284 2.5
      vertex 5 7.92284 4.33465
    endloop
  endfacet
  facet normal 0 -1 0
    outer loop
      vertex 5 7.92284 4.33465
      vertex 8.1875 7.92284 2.5
      vertex 5 7.92284 5
    endloop
  endfacet
  facet normal 0 -1 0
    outer loop
      vertex 4.8125 7.92284 2.5
      vertex 8.1875 7.92284 2.5
      vertex 4.8125 7.92284 4.33465
    endloop
  endfacet
  facet normal -1 0 -1.77321e-16
    outer loop
      vertex 5 13.145 18.6406
      vertex 5 14.3971 17.25
      vertex 5 11.4356 19.4017
    endloop
  endfacet
  facet normal -1 0 -1.77321e-16
    outer loop
      vertex 5 11.4356 19.4017
      vertex 5 14.3971 17.25
      vertex 5 14.9753 15.4704
    endloop
  endfacet
  facet normal -1 0 -1.77321e-16
    outer loop
      vertex 5 11.4356 19.4017
      vertex 5 14.9753 15.4704
      vertex 5 16.8051 6.00811
    endloop
  endfacet
  facet normal -1 0 -1.77321e-16
    outer loop
      vertex 5 12.6448 15.4895
      vertex 5 16.8051 6.00811
      vertex 5 14.9741 4.951
    endloop
  endfacet
  facet normal -1 0 -1.77321e-16
    outer loop
      vertex 5 12.22 13.6283
      vertex 5 14.9741 4.951
      vertex 5 12.787 4.24038
    endloop
  endfacet
  facet normal -1 0 -1.77321e-16
    outer loop
      vertex 5 10.5 12.8
      vertex 5 10.5 4
      vertex 5 8.21297 4.24038
    endloop
  endfacet
  facet normal -1 0 -1.77321e-16
    outer loop
      vertex 5 10.5 12.8
      vertex 5 7.67236 6.5
      vertex 5 8.77997 13.6283
    endloop
  endfacet
  facet normal -1 0 -1.77321e-16
    outer loop
      vertex 5 7.97874 5
      vertex 5 7.92284 4.33465
      vertex 5 7.92284 5
    endloop
  endfacet
  facet normal -1 0 -1.77321e-16
    outer loop
      vertex 5 10.5 12.8
      vertex 5 7.92284 6.5
      vertex 5 7.67236 6.5
    endloop
  endfacet
  facet normal -1 0 -1.77321e-16
    outer loop
      vertex 5 9.54546 16.9821
      vertex 5 11.4356 19.4017
      vertex 5 11.4545 16.9821
    endloop
  endfacet
  facet normal -1 0 -1.77321e-16
    outer loop
      vertex 5 10.5 12.8
      vertex 5 7.97874 5
      vertex 5 7.92284 5.2737
    endloop
  endfacet
  facet normal -1 0 -1.77321e-16
    outer loop
      vertex 5 10.5 12.8
      vertex 5 7.92284 4.33465
      vertex 5 7.97874 5
    endloop
  endfacet
  facet normal -1 0 -1.77321e-16
    outer loop
      vertex 5 9.54546 16.9821
      vertex 5 6.22025 13.6094
      vertex 5 11.4356 19.4017
    endloop
  endfacet
  facet normal -1 0 -1.77321e-16
    outer loop
      vertex 5 11.4356 19.4017
      vertex 5 6.22025 13.6094
      vertex 5 6.02465 15.4704
    endloop
  endfacet
  facet normal -1 0 -1.77321e-16
    outer loop
      vertex 5 11.4356 19.4017
      vertex 5 6.02465 15.4704
      vertex 5 6.60289 17.25
    endloop
  endfacet
  facet normal -1 0 -1.77321e-16
    outer loop
      vertex 5 11.4356 19.4017
      vertex 5 6.60289 17.25
      vertex 5 7.85497 18.6406
    endloop
  endfacet
  facet normal -1 0 -1.77321e-16
    outer loop
      vertex 5 11.4356 19.4017
      vertex 5 7.85497 18.6406
      vertex 5 9.5644 19.4017
    endloop
  endfacet
  facet normal -1 0 -1.77321e-16
    outer loop
      vertex 5 8.35516 15.4895
      vertex 5 6.22025 13.6094
      vertex 5 9.54546 16.9821
    endloop
  endfacet
  facet normal -1 0 -1.77321e-16
    outer loop
      vertex 5 10.5 12.8
      vertex 5 8.21297 4.24038
      vertex 5 7.92284 4.33465
    endloop
  endfacet
  facet normal -1 0 -1.77321e-16
    outer loop
      vertex 5 7.67236 6.5
      vertex 5 6.22025 13.6094
      vertex 5 8.35516 15.4895
    endloop
  endfacet
  facet normal -1 0 -1.77321e-16
    outer loop
      vertex 5 7.67236 6.5
      vertex 5 8.35516 15.4895
      vertex 5 8.77997 13.6283
    endloop
  endfacet
  facet normal -1 0 -1.77321e-16
    outer loop
      vertex 5 12.6448 15.4895
      vertex 5 14.9741 4.951
      vertex 5 12.22 13.6283
    endloop
  endfacet
  facet normal -1 0 -1.77321e-16
    outer loop
      vertex 5 11.4356 19.4017
      vertex 5 16.8051 6.00811
      vertex 5 12.6448 15.4895
    endloop
  endfacet
  facet normal -1 0 -1.77321e-16
    outer loop
      vertex 5 11.4545 16.9821
      vertex 5 11.4356 19.4017
      vertex 5 12.6448 15.4895
    endloop
  endfacet
  facet normal -1 0 -1.77321e-16
    outer loop
      vertex 5 10.5 12.8
      vertex 5 7.92284 5.2737
      vertex 5 7.92284 6.5
    endloop
  endfacet
  facet normal -1 0 -1.77321e-16
    outer loop
      vertex 5 12.22 13.6283
      vertex 5 12.787 4.24038
      vertex 5 10.5 4
    endloop
  endfacet
  facet normal -1 0 -1.77321e-16
    outer loop
      vertex 5 12.22 13.6283
      vertex 5 10.5 4
      vertex 5 10.5 12.8
    endloop
  endfacet
  facet normal 0 -0.979771 -0.20012
    outer loop
      vertex 8.06248 7.92284 5.2737
      vertex 5 7.92284 5.2737
      vertex 5 7.97874 5
    endloop
  endfacet
  facet normal 0 -0.979771 -0.20012
    outer loop
      vertex 8.16304 7.97874 5
      vertex 8.06248 7.92284 5.2737
      vertex 5 7.97874 5
    endloop
  endfacet
  facet normal 3.54856e-17 -0.979771 -0.20012
    outer loop
      vertex 8.33211 7.67236 6.5
      vertex 10 6.22025 13.6094
      vertex 7.61195 7.67236 6.5
    endloop
  endfacet
  facet normal 3.54856e-17 -0.979771 -0.20012
    outer loop
      vertex 7.61195 7.67236 6.5
      vertex 10 6.22025 13.6094
      vertex 5 6.22025 13.6094
    endloop
  endfacet
  facet normal 3.54856e-17 -0.979771 -0.20012
    outer loop
      vertex 8.1875 7.92284 5.2737
      vertex 10 6.22025 13.6094
      vertex 8.33211 7.67236 6.5
    endloop
  endfacet
  facet normal 3.54856e-17 -0.979771 -0.20012
    outer loop
      vertex 8.16304 7.97874 5
      vertex 10 6.22025 13.6094
      vertex 8.1875 7.92284 5.2737
    endloop
  endfacet
  facet normal 3.54856e-17 -0.979771 -0.20012
    outer loop
      vertex 8.16304 7.97874 5
      vertex 8.1875 7.92284 5.2737
      vertex 8.06248 7.92284 5.2737
    endloop
  endfacet
  facet normal 3.54856e-17 -0.979771 -0.20012
    outer loop
      vertex 10 7.97874 5
      vertex 10 6.22025 13.6094
      vertex 8.16304 7.97874 5
    endloop
  endfacet
  facet normal 1 -5.2383e-16 -1.25112e-16
    outer loop
      vertex 10 6.22025 13.6094
      vertex 10 7.97874 5
      vertex 10 8.23089 5
    endloop
  endfacet
  facet normal 1 -5.2383e-16 -1.25112e-16
    outer loop
      vertex 10 7.15585 11.9889
      vertex 10 6.22025 13.6094
      vertex 10 8.23089 5
    endloop
  endfacet
  facet normal 1 -1.81469e-16 -7.24491e-17
    outer loop
      vertex 10 7.15585 11.9889
      vertex 10 8.23089 5
      vertex 10 8.84833 5
    endloop
  endfacet
  facet normal 1 -1.81469e-16 -7.24491e-17
    outer loop
      vertex 10 8.66968 10.889
      vertex 10 7.15585 11.9889
      vertex 10 8.84833 5
    endloop
  endfacet
  facet normal 1 -5.22571e-17 -6.85295e-17
    outer loop
      vertex 10 8.66968 10.889
      vertex 10 8.84833 5
      vertex 10 9.71429 5
    endloop
  endfacet
  facet normal 1 -5.22571e-17 -6.85295e-17
    outer loop
      vertex 10 10.5 10.5
      vertex 10 8.66968 10.889
      vertex 10 9.71429 5
    endloop
  endfacet
  facet normal 1 0 -7.59948e-17
    outer loop
      vertex 10 10.5 10.5
      vertex 10 9.71429 5
      vertex 10 13.2679 5
    endloop
  endfacet
  facet normal 1 0 -7.59948e-17
    outer loop
      vertex 10 13.2679 6.0287
      vertex 10 10.5 10.5
      vertex 10 13.2679 5
    endloop
  endfacet
  facet normal 1 4.75829e-17 -4.65388e-17
    outer loop
      vertex 10 10.5 10.5
      vertex 10 13.2679 6.0287
      vertex 10 13.2679 8.70261
    endloop
  endfacet
  facet normal 1 4.75829e-17 -4.65388e-17
    outer loop
      vertex 10 12.3303 10.889
      vertex 10 10.5 10.5
      vertex 10 13.2679 8.70261
    endloop
  endfacet
  facet normal 1 1.3531e-16 -8.91749e-18
    outer loop
      vertex 10 12.3303 10.889
      vertex 10 13.2679 8.70261
      vertex 10 13.2679 11.5703
    endloop
  endfacet
  facet normal 1 0 1.77321e-16
    outer loop
      vertex 10 11.4356 19.4017
      vertex 10 9.5644 19.4017
      vertex 10 7.85497 18.6406
    endloop
  endfacet
  facet normal 1 0 1.77321e-16
    outer loop
      vertex 10 6.02465 15.4704
      vertex 10 11.4356 19.4017
      vertex 10 6.60289 17.25
    endloop
  endfacet
  facet normal 1 0 1.77321e-16
    outer loop
      vertex 10 6.60289 17.25
      vertex 10 11.4356 19.4017
      vertex 10 7.85497 18.6406
    endloop
  endfacet
  facet normal 1 0 1.77321e-16
    outer loop
      vertex 10 6.22025 13.6094
      vertex 10 11.4356 19.4017
      vertex 10 6.02465 15.4704
    endloop
  endfacet
  facet normal 1 0 1.77321e-16
    outer loop
      vertex 10 9.54546 16.9821
      vertex 10 11.4356 19.4017
      vertex 10 6.22025 13.6094
    endloop
  endfacet
  facet normal 1 0 1.77321e-16
    outer loop
      vertex 10 12.6448 15.4895
      vertex 10 12.22 13.6283
      vertex 10 13.2679 11.5703
    endloop
  endfacet
  facet normal 1 0 1.77321e-16
    outer loop
      vertex 10 12.22 13.6283
      vertex 10 10.5 12.8
      vertex 10 10.5 10.5
    endloop
  endfacet
  facet normal 1 0 1.77321e-16
    outer loop
      vertex 10 13.145 18.6406
      vertex 10 11.4356 19.4017
      vertex 10 13.2679 18.5041
    endloop
  endfacet
  facet normal 1 0 1.77321e-16
    outer loop
      vertex 10 8.35516 15.4895
      vertex 10 9.54546 16.9821
      vertex 10 6.22025 13.6094
    endloop
  endfacet
  facet normal 1 0 1.77321e-16
    outer loop
      vertex 10 10.5 12.8
      vertex 10 8.77997 13.6283
      vertex 10 8.66968 10.889
    endloop
  endfacet
  facet normal 1 0 1.77321e-16
    outer loop
      vertex 10 13.2679 18.5041
      vertex 10 12.6448 15.4895
      vertex 10 13.2679 11.5703
    endloop
  endfacet
  facet normal 1 0 1.77321e-16
    outer loop
      vertex 10 13.2679 18.5041
      vertex 10 11.4356 19.4017
      vertex 10 12.6448 15.4895
    endloop
  endfacet
  facet normal 1 0 1.77321e-16
    outer loop
      vertex 10 13.2679 11.5703
      vertex 10 12.22 13.6283
      vertex 10 12.3303 10.889
    endloop
  endfacet
  facet normal 1 0 1.77321e-16
    outer loop
      vertex 10 12.22 13.6283
      vertex 10 10.5 10.5
      vertex 10 12.3303 10.889
    endloop
  endfacet
  facet normal 1 0 1.77321e-16
    outer loop
      vertex 10 10.5 10.5
      vertex 10 10.5 12.8
      vertex 10 8.66968 10.889
    endloop
  endfacet
  facet normal 1 0 1.77321e-16
    outer loop
      vertex 10 8.77997 13.6283
      vertex 10 8.35516 15.4895
      vertex 10 7.15585 11.9889
    endloop
  endfacet
  facet normal 1 0 1.77321e-16
    outer loop
      vertex 10 8.66968 10.889
      vertex 10 8.77997 13.6283
      vertex 10 7.15585 11.9889
    endloop
  endfacet
  facet normal 1 0 1.77321e-16
    outer loop
      vertex 10 11.4545 16.9821
      vertex 10 12.6448 15.4895
      vertex 10 11.4356 19.4017
    endloop
  endfacet
  facet normal 1 0 1.77321e-16
    outer loop
      vertex 10 7.15585 11.9889
      vertex 10 8.35516 15.4895
      vertex 10 6.22025 13.6094
    endloop
  endfacet
  facet normal 1 0 1.77321e-16
    outer loop
      vertex 10 9.54546 16.9821
      vertex 10 11.4545 16.9821
      vertex 10 11.4356 19.4017
    endloop
  endfacet
  facet normal -1.18651e-16 0.743145 0.669131
    outer loop
      vertex 5 13.145 18.6406
      vertex 10 13.145 18.6406
      vertex 5 14.3971 17.25
    endloop
  endfacet
  facet normal -1.18651e-16 0.743145 0.669131
    outer loop
      vertex 5 14.3971 17.25
      vertex 10 13.145 18.6406
      vertex 10 13.2679 18.5041
    endloop
  endfacet
  facet normal -1.18651e-16 0.743145 0.669131
    outer loop
      vertex 5 14.3971 17.25
      vertex 10 13.2679 18.5041
      vertex 9.69744 14.3971 17.25
    endloop
  endfacet
  facet normal -5.47953e-17 0.951056 0.309017
    outer loop
      vertex 5 14.3971 17.25
      vertex 9.69744 14.3971 17.25
      vertex 5 14.9753 15.4704
    endloop
  endfacet
  facet normal -5.47953e-17 0.951056 0.309017
    outer loop
      vertex 5 14.9753 15.4704
      vertex 9.69744 14.3971 17.25
      vertex 9.5425 14.9753 15.4704
    endloop
  endfacet
  facet normal 0 0 1
    outer loop
      vertex -8.1875 2.07716 2.5
      vertex -4.8125 2.07716 2.5
      vertex -3.125 5 2.5
    endloop
  endfacet
  facet normal 0 0 1
    outer loop
      vertex -5.675 3.57106 2.5
      vertex -8.1875 2.07716 2.5
      vertex -3.125 5 2.5
    endloop
  endfacet
  facet normal 0 0 1
    outer loop
      vertex -9.875 5 2.5
      vertex -8.1875 2.07716 2.5
      vertex -8.1875 7.92284 2.5
    endloop
  endfacet
  facet normal 0 0 1
    outer loop
      vertex -8.1875 7.92284 2.5
      vertex -8.1875 2.07716 2.5
      vertex -8.15 5 2.5
    endloop
  endfacet
  facet normal 0 0 1
    outer loop
      vertex -8.1875 7.92284 2.5
      vertex -7.325 6.42894 2.5
      vertex -4.8125 7.92284 2.5
    endloop
  endfacet
  facet normal 0 0 1
    outer loop
      vertex -8.1875 7.92284 2.5
      vertex -8.15 5 2.5
      vertex -7.325 6.42894 2.5
    endloop
  endfacet
  facet normal 0 0 1
    outer loop
      vertex -4.8125 7.92284 2.5
      vertex -5.675 6.42894 2.5
      vertex -3.125 5 2.5
    endloop
  endfacet
  facet normal 0 0 1
    outer loop
      vertex -5.675 6.42894 2.5
      vertex -4.85 5 2.5
      vertex -3.125 5 2.5
    endloop
  endfacet
  facet normal 0 0 1
    outer loop
      vertex -4.85 5 2.5
      vertex -5.675 3.57106 2.5
      vertex -3.125 5 2.5
    endloop
  endfacet
  facet normal 0 0 1
    outer loop
      vertex -5.675 3.57106 2.5
      vertex -7.325 3.57106 2.5
      vertex -8.1875 2.07716 2.5
    endloop
  endfacet
  facet normal 0 0 1
    outer loop
      vertex -8.15 5 2.5
      vertex -8.1875 2.07716 2.5
      vertex -7.325 3.57106 2.5
    endloop
  endfacet
  facet normal 0 0 1
    outer loop
      vertex -7.325 6.42894 2.5
      vertex -5.675 6.42894 2.5
      vertex -4.8125 7.92284 2.5
    endloop
  endfacet
  facet normal 0 0 1
    outer loop
      vertex 4.8125 2.07716 2.5
      vertex 8.1875 2.07716 2.5
      vertex 9.875 5 2.5
    endloop
  endfacet
  facet normal 0 0 1
    outer loop
      vertex 7.325 3.57106 2.5
      vertex 4.8125 2.07716 2.5
      vertex 9.875 5 2.5
    endloop
  endfacet
  facet normal 0 0 1
    outer loop
      vertex 3.125 5 2.5
      vertex 4.8125 2.07716 2.5
      vertex 4.8125 7.92284 2.5
    endloop
  endfacet
  facet normal 0 0 1
    outer loop
      vertex 4.8125 7.92284 2.5
      vertex 4.8125 2.07716 2.5
      vertex 4.85 5 2.5
    endloop
  endfacet
  facet normal 0 0 1
    outer loop
      vertex 4.8125 7.92284 2.5
      vertex 5.675 6.42894 2.5
      vertex 8.1875 7.92284 2.5
    endloop
  endfacet
  facet normal 0 0 1
    outer loop
      vertex 4.8125 7.92284 2.5
      vertex 4.85 5 2.5
      vertex 5.675 6.42894 2.5
    endloop
  endfacet
  facet normal 0 0 1
    outer loop
      vertex 8.1875 7.92284 2.5
      vertex 7.325 6.42894 2.5
      vertex 9.875 5 2.5
    endloop
  endfacet
  facet normal 0 0 1
    outer loop
      vertex 7.325 6.42894 2.5
      vertex 8.15 5 2.5
      vertex 9.875 5 2.5
    endloop
  endfacet
  facet normal 0 0 1
    outer loop
      vertex 8.15 5 2.5
      vertex 7.325 3.57106 2.5
      vertex 9.875 5 2.5
    endloop
  endfacet
  facet normal 0 0 1
    outer loop
      vertex 7.325 3.57106 2.5
      vertex 5.675 3.57106 2.5
      vertex 4.8125 2.07716 2.5
    endloop
  endfacet
  facet normal 0 0 1
    outer loop
      vertex 4.85 5 2.5
      vertex 4.8125 2.07716 2.5
      vertex 5.675 3.57106 2.5
    endloop
  endfacet
  facet normal 0 0 1
    outer loop
      vertex 5.675 6.42894 2.5
      vertex 7.325 6.42894 2.5
      vertex 8.1875 7.92284 2.5
    endloop
  endfacet
  facet normal 1 0 1.77321e-16
    outer loop
      vertex -5 7.85497 18.6406
      vertex -5 6.60289 17.25
      vertex -5 6.02465 15.4704
    endloop
  endfacet
  facet normal 1 0 1.77321e-16
    outer loop
      vertex -5 6.22025 13.6094
      vertex -5 7.85497 18.6406
      vertex -5 6.02465 15.4704
    endloop
  endfacet
  facet normal 1 0 1.77321e-16
    outer loop
      vertex -5 7.15585 11.9889
      vertex -5 7.85497 18.6406
      vertex -5 6.22025 13.6094
    endloop
  endfacet
  facet normal 1 0 1.77321e-16
    outer loop
      vertex -5 8.66968 10.889
      vertex -5 7.85497 18.6406
      vertex -5 7.15585 11.9889
    endloop
  endfacet
  facet normal 1 0 1.77321e-16
    outer loop
      vertex -5 8.35516 15.4895
      vertex -5 7.85497 18.6406
      vertex -5 8.66968 10.889
    endloop
  endfacet
  facet normal 1 0 1.77321e-16
    outer loop
      vertex -5 12.22 13.6283
      vertex -5 10.5 12.8
      vertex -5 12.3303 10.889
    endloop
  endfacet
  facet normal 1 0 1.77321e-16
    outer loop
      vertex -5 10.5 12.8
      vertex -5 8.77997 13.6283
      vertex -5 10.5 10.5
    endloop
  endfacet
  facet normal 1 0 1.77321e-16
    outer loop
      vertex -5 14.3971 17.25
      vertex -5 7.85497 18.6406
      vertex -5 14.9753 15.4704
    endloop
  endfacet
  facet normal 1 0 1.77321e-16
    outer loop
      vertex -5 13.145 18.6406
      vertex -5 7.85497 18.6406
      vertex -5 14.3971 17.25
    endloop
  endfacet
  facet normal 1 0 1.77321e-16
    outer loop
      vertex -5 11.4356 19.4017
      vertex -5 7.85497 18.6406
      vertex -5 13.145 18.6406
    endloop
  endfacet
  facet normal 1 0 1.77321e-16
    outer loop
      vertex -5 9.5644 19.4017
      vertex -5 7.85497 18.6406
      vertex -5 11.4356 19.4017
    endloop
  endfacet
  facet normal 1 0 1.77321e-16
    outer loop
      vertex -5 14.9753 15.4704
      vertex -5 11.4545 16.9821
      vertex -5 14.7798 13.6094
    endloop
  endfacet
  facet normal 1 0 1.77321e-16
    outer loop
      vertex -5 14.9753 15.4704
      vertex -5 7.85497 18.6406
      vertex -5 11.4545 16.9821
    endloop
  endfacet
  facet normal 1 0 1.77321e-16
    outer loop
      vertex -5 11.4545 16.9821
      vertex -5 12.6448 15.4895
      vertex -5 14.7798 13.6094
    endloop
  endfacet
  facet normal 1 0 1.77321e-16
    outer loop
      vertex -5 13.8442 11.9889
      vertex -5 12.22 13.6283
      vertex -5 12.3303 10.889
    endloop
  endfacet
  facet normal 1 0 1.77321e-16
    outer loop
      vertex -5 12.3303 10.889
      vertex -5 10.5 12.8
      vertex -5 10.5 10.5
    endloop
  endfacet
  facet normal 1 0 1.77321e-16
    outer loop
      vertex -5 10.5 10.5
      vertex -5 8.77997 13.6283
      vertex -5 8.66968 10.889
    endloop
  endfacet
  facet normal 1 0 1.77321e-16
    outer loop
      vertex -5 8.77997 13.6283
      vertex -5 8.35516 15.4895
      vertex -5 8.66968 10.889
    endloop
  endfacet
  facet normal 1 0 1.77321e-16
    outer loop
      vertex -5 8.35516 15.4895
      vertex -5 9.54546 16.9821
      vertex -5 7.85497 18.6406
    endloop
  endfacet
  facet normal 1 0 1.77321e-16
    outer loop
      vertex -5 12.6448 15.4895
      vertex -5 13.8442 11.9889
      vertex -5 14.7798 13.6094
    endloop
  endfacet
  facet normal 1 0 1.77321e-16
    outer loop
      vertex -5 9.54546 16.9821
      vertex -5 11.4545 16.9821
      vertex -5 7.85497 18.6406
    endloop
  endfacet
  facet normal 1 0 1.77321e-16
    outer loop
      vertex -5 12.6448 15.4895
      vertex -5 12.22 13.6283
      vertex -5 13.8442 11.9889
    endloop
  endfacet
  facet normal -1.61991e-16 0.406737 0.913545
    outer loop
      vertex -10 13.145 18.6406
      vertex -10 11.4356 19.4017
      vertex -5 11.4356 19.4017
    endloop
  endfacet
  facet normal -1.61991e-16 0.406737 0.913545
    outer loop
      vertex -5 13.145 18.6406
      vertex -10 13.145 18.6406
      vertex -5 11.4356 19.4017
    endloop
  endfacet
  facet normal -1 0 -4.0229e-17
    outer loop
      vertex -10 9.5644 19.4017
      vertex -10 11.4356 19.4017
      vertex -10 9.49206 16.9152
    endloop
  endfacet
  facet normal -1 0 -4.0229e-17
    outer loop
      vertex -10 11.4545 16.9821
      vertex -10 11.4356 19.4017
      vertex -10 12.5086 15.6604
    endloop
  endfacet
  facet normal -1 0 -4.0229e-17
    outer loop
      vertex -10 9.54546 16.9821
      vertex -10 11.4356 19.4017
      vertex -10 11.4545 16.9821
    endloop
  endfacet
  facet normal -1 0 -4.0229e-17
    outer loop
      vertex -10 9.49206 16.9152
      vertex -10 11.4356 19.4017
      vertex -10 9.54546 16.9821
    endloop
  endfacet
  facet normal 1.10558e-16 -0.781832 -0.62349
    outer loop
      vertex -10 12.5086 15.6604
      vertex -10 12.6448 15.4895
      vertex -5 12.6448 15.4895
    endloop
  endfacet
  facet normal 1.10558e-16 -0.781832 -0.62349
    outer loop
      vertex -10 11.4545 16.9821
      vertex -10 12.5086 15.6604
      vertex -5 11.4545 16.9821
    endloop
  endfacet
  facet normal 1.10558e-16 -0.781832 -0.62349
    outer loop
      vertex -5 11.4545 16.9821
      vertex -10 12.5086 15.6604
      vertex -5 12.6448 15.4895
    endloop
  endfacet
  facet normal -3.94577e-17 -0.974928 0.222521
    outer loop
      vertex -10 12.6062 15.3202
      vertex -10 12.22 13.6283
      vertex -5 12.22 13.6283
    endloop
  endfacet
  facet normal -3.94577e-17 -0.974928 0.222521
    outer loop
      vertex -10 12.6448 15.4895
      vertex -10 12.6062 15.3202
      vertex -5 12.6448 15.4895
    endloop
  endfacet
  facet normal -3.94577e-17 -0.974928 0.222521
    outer loop
      vertex -5 12.6448 15.4895
      vertex -10 12.6062 15.3202
      vertex -5 12.22 13.6283
    endloop
  endfacet
  facet normal -1.77321e-16 0 1
    outer loop
      vertex -10 11.4356 19.4017
      vertex -10 9.5644 19.4017
      vertex -5 9.5644 19.4017
    endloop
  endfacet
  facet normal -1.77321e-16 0 1
    outer loop
      vertex -5 11.4356 19.4017
      vertex -10 11.4356 19.4017
      vertex -5 9.5644 19.4017
    endloop
  endfacet
  facet normal -1.59761e-16 -0.433884 0.900969
    outer loop
      vertex -10 10.5 12.8
      vertex -5 10.5 12.8
      vertex -5 12.22 13.6283
    endloop
  endfacet
  facet normal -1.59761e-16 -0.433884 0.900969
    outer loop
      vertex -10 12.22 13.6283
      vertex -10 10.5 12.8
      vertex -5 12.22 13.6283
    endloop
  endfacet
  facet normal -1.59761e-16 0.433884 0.900969
    outer loop
      vertex -10 8.77997 13.6283
      vertex -5 8.77997 13.6283
      vertex -5 10.5 12.8
    endloop
  endfacet
  facet normal -1.59761e-16 0.433884 0.900969
    outer loop
      vertex -10 9.38793 13.3355
      vertex -10 8.77997 13.6283
      vertex -10 10.5 12.8
    endloop
  endfacet
  facet normal -1.59761e-16 0.433884 0.900969
    outer loop
      vertex -10 10.5 12.8
      vertex -10 8.77997 13.6283
      vertex -5 10.5 12.8
    endloop
  endfacet
  facet normal -1.61991e-16 -0.406737 0.913545
    outer loop
      vertex -5 9.5644 19.4017
      vertex -10 9.5644 19.4017
      vertex -10 7.85497 18.6406
    endloop
  endfacet
  facet normal -1.61991e-16 -0.406737 0.913545
    outer loop
      vertex -5 7.85497 18.6406
      vertex -5 9.5644 19.4017
      vertex -10 7.85497 18.6406
    endloop
  endfacet
  facet normal -1.18651e-16 -0.743145 0.669131
    outer loop
      vertex -5 7.85497 18.6406
      vertex -10 7.85497 18.6406
      vertex -10 6.60289 17.25
    endloop
  endfacet
  facet normal -1.18651e-16 -0.743145 0.669131
    outer loop
      vertex -5 6.60289 17.25
      vertex -5 7.85497 18.6406
      vertex -10 6.60289 17.25
    endloop
  endfacet
  facet normal -3.94577e-17 0.974928 0.222521
    outer loop
      vertex -5 8.77997 13.6283
      vertex -10 8.77997 13.6283
      vertex -5 8.35516 15.4895
    endloop
  endfacet
  facet normal -3.94577e-17 0.974928 0.222521
    outer loop
      vertex -5 8.35516 15.4895
      vertex -10 8.77997 13.6283
      vertex -10 8.35516 15.4895
    endloop
  endfacet
  facet normal 1.10558e-16 0.781832 -0.62349
    outer loop
      vertex -5 8.35516 15.4895
      vertex -10 8.35516 15.4895
      vertex -5 9.54546 16.9821
    endloop
  endfacet
  facet normal 1.10558e-16 0.781832 -0.62349
    outer loop
      vertex -5 9.54546 16.9821
      vertex -10 8.35516 15.4895
      vertex -10 9.49206 16.9152
    endloop
  endfacet
  facet normal 1.10558e-16 0.781832 -0.62349
    outer loop
      vertex -5 9.54546 16.9821
      vertex -10 9.49206 16.9152
      vertex -10 9.54546 16.9821
    endloop
  endfacet
  facet normal -5.47953e-17 -0.951056 0.309017
    outer loop
      vertex -5 6.60289 17.25
      vertex -10 6.60289 17.25
      vertex -10 6.02465 15.4704
    endloop
  endfacet
  facet normal -5.47953e-17 -0.951056 0.309017
    outer loop
      vertex -5 6.02465 15.4704
      vertex -5 6.60289 17.25
      vertex -10 6.02465 15.4704
    endloop
  endfacet
  facet normal 1.85352e-17 -0.994522 -0.104529
    outer loop
      vertex -5 6.02465 15.4704
      vertex -10 6.02465 15.4704
      vertex -10 6.22025 13.6094
    endloop
  endfacet
  facet normal 1.85352e-17 -0.994522 -0.104529
    outer loop
      vertex -5 6.22025 13.6094
      vertex -5 6.02465 15.4704
      vertex -10 6.22025 13.6094
    endloop
  endfacet
  facet normal 3.54856e-17 -0.979771 -0.20012
    outer loop
      vertex -5 6.22025 13.6094
      vertex -10 6.22025 13.6094
      vertex -7.38805 7.67236 6.5
    endloop
  endfacet
  facet normal 3.54856e-17 -0.979771 -0.20012
    outer loop
      vertex -5 7.67236 6.5
      vertex -5 6.22025 13.6094
      vertex -7.38805 7.67236 6.5
    endloop
  endfacet
  facet normal 0 0 -1
    outer loop
      vertex -5 7.92284 6.5
      vertex -5 7.67236 6.5
      vertex -8.1875 7.92284 6.5
    endloop
  endfacet
  facet normal 0 0 -1
    outer loop
      vertex -8.1875 7.92284 6.5
      vertex -5 7.67236 6.5
      vertex -7.38805 7.67236 6.5
    endloop
  endfacet
  facet normal 0 0 -1
    outer loop
      vertex -8.1875 7.92284 6.5
      vertex -7.38805 7.67236 6.5
      vertex -8.33211 7.67236 6.5
    endloop
  endfacet
  facet normal 0.866025 -0.5 0
    outer loop
      vertex -8.1875 7.92284 5.2737
      vertex -8.1875 7.92284 6.5
      vertex -8.33211 7.67236 6.5
    endloop
  endfacet
  facet normal 0 -1 0
    outer loop
      vertex -6.93752 7.92284 5.2737
      vertex -5 7.92284 5.2737
      vertex -5 7.92284 6.5
    endloop
  endfacet
  facet normal 0 -1 0
    outer loop
      vertex -8.1875 7.92284 5.2737
      vertex -6.93752 7.92284 5.2737
      vertex -8.1875 7.92284 6.5
    endloop
  endfacet
  facet normal 0 -1 0
    outer loop
      vertex -8.1875 7.92284 6.5
      vertex -6.93752 7.92284 5.2737
      vertex -5 7.92284 6.5
    endloop
  endfacet
  facet normal -1.68643e-16 -0.309017 0.951056
    outer loop
      vertex -5 12.787 4.24038
      vertex 5 12.787 4.24038
      vertex 5 14.9741 4.951
    endloop
  endfacet
  facet normal -1.68643e-16 -0.309017 0.951056
    outer loop
      vertex -5 14.9741 4.951
      vertex -5 12.787 4.24038
      vertex 5 14.9741 4.951
    endloop
  endfacet
  facet normal -1.68643e-16 0.309017 0.951056
    outer loop
      vertex -4.8125 7.92284 4.33465
      vertex -3.7173 6.0259 4.951
      vertex 3.7173 6.0259 4.951
    endloop
  endfacet
  facet normal -1.68643e-16 0.309017 0.951056
    outer loop
      vertex 5 8.21297 4.24038
      vertex -4.8125 7.92284 4.33465
      vertex 4.8125 7.92284 4.33465
    endloop
  endfacet
  facet normal -1.68643e-16 0.309017 0.951056
    outer loop
      vertex 4.8125 7.92284 4.33465
      vertex -4.8125 7.92284 4.33465
      vertex 3.7173 6.0259 4.951
    endloop
  endfacet
  facet normal -1.68643e-16 0.309017 0.951056
    outer loop
      vertex 5 8.21297 4.24038
      vertex 4.8125 7.92284 4.33465
      vertex 5 7.92284 4.33465
    endloop
  endfacet
  facet normal -1.68643e-16 0.309017 0.951056
    outer loop
      vertex -5 8.21297 4.24038
      vertex -4.8125 7.92284 4.33465
      vertex 5 8.21297 4.24038
    endloop
  endfacet
  facet normal -1.68643e-16 0.309017 0.951056
    outer loop
      vertex -5 7.92284 4.33465
      vertex -4.8125 7.92284 4.33465
      vertex -5 8.21297 4.24038
    endloop
  endfacet
  facet normal -1.7635e-16 -0.104528 0.994522
    outer loop
      vertex -5 10.5 4
      vertex 5 10.5 4
      vertex 5 12.787 4.24038
    endloop
  endfacet
  facet normal -1.7635e-16 -0.104528 0.994522
    outer loop
      vertex -5 12.787 4.24038
      vertex -5 10.5 4
      vertex 5 12.787 4.24038
    endloop
  endfacet
  facet normal -1.7635e-16 0.104528 0.994522
    outer loop
      vertex 5 8.21297 4.24038
      vertex 5 10.5 4
      vertex -5 10.5 4
    endloop
  endfacet
  facet normal -1.7635e-16 0.104528 0.994522
    outer loop
      vertex -5 8.21297 4.24038
      vertex 5 8.21297 4.24038
      vertex -5 10.5 4
    endloop
  endfacet
  facet normal -1.77321e-16 0 1
    outer loop
      vertex 5 11.4356 19.4017
      vertex 5 9.5644 19.4017
      vertex 10 9.5644 19.4017
    endloop
  endfacet
  facet normal -1.77321e-16 0 1
    outer loop
      vertex 10 11.4356 19.4017
      vertex 5 11.4356 19.4017
      vertex 10 9.5644 19.4017
    endloop
  endfacet
  facet normal -1.61991e-16 0.406737 0.913545
    outer loop
      vertex 5 13.145 18.6406
      vertex 5 11.4356 19.4017
      vertex 10 11.4356 19.4017
    endloop
  endfacet
  facet normal -1.61991e-16 0.406737 0.913545
    outer loop
      vertex 10 13.145 18.6406
      vertex 5 13.145 18.6406
      vertex 10 11.4356 19.4017
    endloop
  endfacet
  facet normal -1.61991e-16 -0.406737 0.913545
    outer loop
      vertex 10 9.5644 19.4017
      vertex 5 9.5644 19.4017
      vertex 5 7.85497 18.6406
    endloop
  endfacet
  facet normal -1.61991e-16 -0.406737 0.913545
    outer loop
      vertex 10 7.85497 18.6406
      vertex 10 9.5644 19.4017
      vertex 5 7.85497 18.6406
    endloop
  endfacet
  facet normal -1.18651e-16 -0.743145 0.669131
    outer loop
      vertex 10 7.85497 18.6406
      vertex 5 7.85497 18.6406
      vertex 5 6.60289 17.25
    endloop
  endfacet
  facet normal -1.18651e-16 -0.743145 0.669131
    outer loop
      vertex 10 6.60289 17.25
      vertex 10 7.85497 18.6406
      vertex 5 6.60289 17.25
    endloop
  endfacet
  facet normal -5.47953e-17 -0.951056 0.309017
    outer loop
      vertex 10 6.60289 17.25
      vertex 5 6.60289 17.25
      vertex 5 6.02465 15.4704
    endloop
  endfacet
  facet normal -5.47953e-17 -0.951056 0.309017
    outer loop
      vertex 10 6.02465 15.4704
      vertex 10 6.60289 17.25
      vertex 5 6.02465 15.4704
    endloop
  endfacet
  facet normal 1.85352e-17 -0.994522 -0.104529
    outer loop
      vertex 10 6.02465 15.4704
      vertex 5 6.02465 15.4704
      vertex 5 6.22025 13.6094
    endloop
  endfacet
  facet normal 1.85352e-17 -0.994522 -0.104529
    outer loop
      vertex 10 6.22025 13.6094
      vertex 10 6.02465 15.4704
      vertex 5 6.22025 13.6094
    endloop
  endfacet
  facet normal 0 -0.979771 -0.20012
    outer loop
      vertex 7.61195 7.67236 6.5
      vertex 5 6.22025 13.6094
      vertex 5 7.67236 6.5
    endloop
  endfacet
  facet normal 0 0 -1
    outer loop
      vertex 8.1875 7.92284 6.5
      vertex 8.33211 7.67236 6.5
      vertex 5 7.92284 6.5
    endloop
  endfacet
  facet normal 0 0 -1
    outer loop
      vertex 5 7.92284 6.5
      vertex 8.33211 7.67236 6.5
      vertex 7.61195 7.67236 6.5
    endloop
  endfacet
  facet normal 0 0 -1
    outer loop
      vertex 5 7.92284 6.5
      vertex 7.61195 7.67236 6.5
      vertex 5 7.67236 6.5
    endloop
  endfacet
  facet normal 0 -1 0
    outer loop
      vertex 5 7.92284 5.2737
      vertex 8.06248 7.92284 5.2737
      vertex 8.1875 7.92284 5.2737
    endloop
  endfacet
  facet normal 0 -1 0
    outer loop
      vertex 5 7.92284 6.5
      vertex 5 7.92284 5.2737
      vertex 8.1875 7.92284 6.5
    endloop
  endfacet
  facet normal 0 -1 0
    outer loop
      vertex 8.1875 7.92284 6.5
      vertex 5 7.92284 5.2737
      vertex 8.1875 7.92284 5.2737
    endloop
  endfacet
  facet normal 1.10558e-16 0.781832 -0.62349
    outer loop
      vertex 10 8.35516 15.4895
      vertex 5 8.35516 15.4895
      vertex 10 9.54546 16.9821
    endloop
  endfacet
  facet normal 1.10558e-16 0.781832 -0.62349
    outer loop
      vertex 10 9.54546 16.9821
      vertex 5 8.35516 15.4895
      vertex 5 9.54546 16.9821
    endloop
  endfacet
  facet normal 1.77321e-16 0 -1
    outer loop
      vertex 10 11.4545 16.9821
      vertex 10 9.54546 16.9821
      vertex 5 11.4545 16.9821
    endloop
  endfacet
  facet normal 1.77321e-16 0 -1
    outer loop
      vertex 5 11.4545 16.9821
      vertex 10 9.54546 16.9821
      vertex 5 9.54546 16.9821
    endloop
  endfacet
  facet normal 1.10558e-16 -0.781832 -0.62349
    outer loop
      vertex 5 12.6448 15.4895
      vertex 10 12.6448 15.4895
      vertex 10 11.4545 16.9821
    endloop
  endfacet
  facet normal 1.10558e-16 -0.781832 -0.62349
    outer loop
      vertex 5 11.4545 16.9821
      vertex 5 12.6448 15.4895
      vertex 10 11.4545 16.9821
    endloop
  endfacet
  facet normal -3.94577e-17 -0.974928 0.222521
    outer loop
      vertex 5 12.22 13.6283
      vertex 10 12.22 13.6283
      vertex 10 12.6448 15.4895
    endloop
  endfacet
  facet normal -3.94577e-17 -0.974928 0.222521
    outer loop
      vertex 5 12.6448 15.4895
      vertex 5 12.22 13.6283
      vertex 10 12.6448 15.4895
    endloop
  endfacet
  facet normal -1.59761e-16 -0.433884 0.900969
    outer loop
      vertex 5 10.5 12.8
      vertex 10 10.5 12.8
      vertex 10 12.22 13.6283
    endloop
  endfacet
  facet normal -1.59761e-16 -0.433884 0.900969
    outer loop
      vertex 5 12.22 13.6283
      vertex 5 10.5 12.8
      vertex 10 12.22 13.6283
    endloop
  endfacet
  facet normal -1.59761e-16 0.433884 0.900969
    outer loop
      vertex 10 8.77997 13.6283
      vertex 10 10.5 12.8
      vertex 5 10.5 12.8
    endloop
  endfacet
  facet normal -1.59761e-16 0.433884 0.900969
    outer loop
      vertex 5 8.77997 13.6283
      vertex 10 8.77997 13.6283
      vertex 5 10.5 12.8
    endloop
  endfacet
  facet normal -3.94577e-17 0.974928 0.222521
    outer loop
      vertex 10 8.77997 13.6283
      vertex 5 8.77997 13.6283
      vertex 10 8.35516 15.4895
    endloop
  endfacet
  facet normal -3.94577e-17 0.974928 0.222521
    outer loop
      vertex 10 8.35516 15.4895
      vertex 5 8.77997 13.6283
      vertex 5 8.35516 15.4895
    endloop
  endfacet
  facet normal -0.866025 -0.5 0
    outer loop
      vertex 8.33211 7.67236 6.5
      vertex 8.1875 7.92284 6.5
      vertex 8.1875 7.92284 5.2737
    endloop
  endfacet
  facet normal 1.77321e-16 0 -1
    outer loop
      vertex -5 11.4545 16.9821
      vertex -5 9.54546 16.9821
      vertex -10 11.4545 16.9821
    endloop
  endfacet
  facet normal 1.77321e-16 0 -1
    outer loop
      vertex -10 11.4545 16.9821
      vertex -5 9.54546 16.9821
      vertex -10 9.54546 16.9821
    endloop
  endfacet
endsolid OpenSCAD_Model
