solid OpenSCAD_Model
  facet normal -1 0 0
    outer loop
      vertex -11.5 0 0
      vertex -11.5 0 5
      vertex -11.5 3.93782 0
    endloop
  endfacet
  facet normal -1 0 0
    outer loop
      vertex -11.5 3.93782 0
      vertex -11.5 0 5
      vertex -11.5 3.93782 5
    endloop
  endfacet
  facet normal 0 -1 0
    outer loop
      vertex -11.5 0 5
      vertex -11.5 0 0
      vertex 11.5 0 0
    endloop
  endfacet
  facet normal 0 -1 0
    outer loop
      vertex 11.5 0 5
      vertex -11.5 0 5
      vertex 11.5 0 0
    endloop
  endfacet
  facet normal 0 0 -1
    outer loop
      vertex -11.5 0 0
      vertex -11.5 3.93782 0
      vertex 11.5 0 0
    endloop
  endfacet
  facet normal 0 0 -1
    outer loop
      vertex -8.15 5 0
      vertex -11.5 3.93782 0
      vertex -8 17 0
    endloop
  endfacet
  facet normal 0 0 -1
    outer loop
      vertex 7.325 6.42894 0
      vertex -8 17 0
      vertex 8 17 0
    endloop
  endfacet
  facet normal 0 0 -1
    outer loop
      vertex 11.5 0 0
      vertex 8 17 0
      vertex 11.5 3.93782 0
    endloop
  endfacet
  facet normal 0 0 -1
    outer loop
      vertex -7.325 3.57106 0
      vertex -11.5 3.93782 0
      vertex -8.15 5 0
    endloop
  endfacet
  facet normal 0 0 -1
    outer loop
      vertex -7.325 6.42894 0
      vertex -8.15 5 0
      vertex -8 17 0
    endloop
  endfacet
  facet normal 0 0 -1
    outer loop
      vertex 11.5 0 0
      vertex -11.5 3.93782 0
      vertex -7.325 3.57106 0
    endloop
  endfacet
  facet normal 0 0 -1
    outer loop
      vertex 11.5 0 0
      vertex -7.325 3.57106 0
      vertex -5.675 3.57106 0
    endloop
  endfacet
  facet normal 0 0 -1
    outer loop
      vertex 4.85 5 0
      vertex -8 17 0
      vertex 5.675 6.42894 0
    endloop
  endfacet
  facet normal 0 0 -1
    outer loop
      vertex 4.85 5 0
      vertex -4.85 5 0
      vertex -8 17 0
    endloop
  endfacet
  facet normal 0 0 -1
    outer loop
      vertex -4.85 5 0
      vertex -5.675 6.42894 0
      vertex -8 17 0
    endloop
  endfacet
  facet normal 0 0 -1
    outer loop
      vertex -5.675 6.42894 0
      vertex -7.325 6.42894 0
      vertex -8 17 0
    endloop
  endfacet
  facet normal 0 0 -1
    outer loop
      vertex 5.675 3.57106 0
      vertex -4.85 5 0
      vertex 4.85 5 0
    endloop
  endfacet
  facet normal 0 0 -1
    outer loop
      vertex 7.325 3.57106 0
      vertex 11.5 0 0
      vertex 5.675 3.57106 0
    endloop
  endfacet
  facet normal 0 0 -1
    outer loop
      vertex 11.5 0 0
      vertex -4.85 5 0
      vertex 5.675 3.57106 0
    endloop
  endfacet
  facet normal 0 0 -1
    outer loop
      vertex 8.15 5 0
      vertex 11.5 0 0
      vertex 7.325 3.57106 0
    endloop
  endfacet
  facet normal 0 0 -1
    outer loop
      vertex 11.5 0 0
      vertex 8.15 5 0
      vertex 8 17 0
    endloop
  endfacet
  facet normal 0 0 -1
    outer loop
      vertex 8.15 5 0
      vertex 7.325 6.42894 0
      vertex 8 17 0
    endloop
  endfacet
  facet normal 0 0 -1
    outer loop
      vertex 5.675 6.42894 0
      vertex -8 17 0
      vertex 7.325 6.42894 0
    endloop
  endfacet
  facet normal 0 0 -1
    outer loop
      vertex -4.85 5 0
      vertex 11.5 0 0
      vertex -5.675 3.57106 0
    endloop
  endfacet
  facet normal -0.965926 0.258819 0
    outer loop
      vertex -11.5 3.93782 0
      vertex -11.5 3.93782 5
      vertex -8 17 0
    endloop
  endfacet
  facet normal -0.965926 0.258819 0
    outer loop
      vertex -8 17 0
      vertex -11.5 3.93782 5
      vertex -9 13.2679 5
    endloop
  endfacet
  facet normal -0.965926 0.258819 0
    outer loop
      vertex -8 17 0
      vertex -9 13.2679 5
      vertex -9 13.2679 12.7149
    endloop
  endfacet
  facet normal -0.965926 0.258819 0
    outer loop
      vertex -8 17 0
      vertex -9 13.2679 12.7149
      vertex -9 13.2679 17.4541
    endloop
  endfacet
  facet normal -0.965926 0.258819 0
    outer loop
      vertex -8 17 0
      vertex -9 13.2679 17.4541
      vertex -9 13.2679 17.6041
    endloop
  endfacet
  facet normal -0.965926 0.258819 0
    outer loop
      vertex -8 17 0
      vertex -9 13.2679 17.6041
      vertex -9 13.2679 17.8268
    endloop
  endfacet
  facet normal -0.965926 0.258819 0
    outer loop
      vertex -8 17 0
      vertex -9 13.2679 17.8268
      vertex -8.73952 14.2401 16.4184
    endloop
  endfacet
  facet normal -0.965926 0.258819 0
    outer loop
      vertex -8 17 0
      vertex -8.73952 14.2401 16.4184
      vertex -8.15603 16.4177 7.40919
    endloop
  endfacet
  facet normal -0.965926 0.258819 0
    outer loop
      vertex -8 17 0
      vertex -8.15603 16.4177 7.40919
      vertex -8 17 5
    endloop
  endfacet
  facet normal 0 0 1
    outer loop
      vertex -4.8125 2.07716 5
      vertex -11.5 0 5
      vertex 11.5 0 5
    endloop
  endfacet
  facet normal 0 0 1
    outer loop
      vertex 9 13.2679 5
      vertex 9 9.68182 5
      vertex 11.5 3.93782 5
    endloop
  endfacet
  facet normal 0 0 1
    outer loop
      vertex 9 9.68182 5
      vertex 9 8.84339 5
      vertex 11.5 3.93782 5
    endloop
  endfacet
  facet normal 0 0 1
    outer loop
      vertex 5 7.92284 5
      vertex 9 8.14904 5
      vertex 7.62239 8.14904 5
    endloop
  endfacet
  facet normal 0 0 1
    outer loop
      vertex 9 8.84339 5
      vertex 9 8.29605 5
      vertex 11.5 3.93782 5
    endloop
  endfacet
  facet normal 0 0 1
    outer loop
      vertex 9 8.29605 5
      vertex 9 8.14904 5
      vertex 11.5 3.93782 5
    endloop
  endfacet
  facet normal 0 0 1
    outer loop
      vertex 5 7.92284 5
      vertex 8.1875 7.92284 5
      vertex 9 8.14904 5
    endloop
  endfacet
  facet normal 0 0 1
    outer loop
      vertex -5 7.92284 5
      vertex -5 14.0455 5
      vertex -5 9.68182 5
    endloop
  endfacet
  facet normal 0 0 1
    outer loop
      vertex 4.8125 2.07716 5
      vertex -4.8125 2.07716 5
      vertex 11.5 0 5
    endloop
  endfacet
  facet normal 0 0 1
    outer loop
      vertex -3.6683 5.94103 5
      vertex -3.125 5 5
      vertex 3.6683 5.94103 5
    endloop
  endfacet
  facet normal 0 0 1
    outer loop
      vertex 9 8.14904 5
      vertex 8.1875 7.92284 5
      vertex 11.5 3.93782 5
    endloop
  endfacet
  facet normal 0 0 1
    outer loop
      vertex 8.1875 7.92284 5
      vertex 9.875 5 5
      vertex 11.5 3.93782 5
    endloop
  endfacet
  facet normal 0 0 1
    outer loop
      vertex 11.5 3.93782 5
      vertex 8.1875 2.07716 5
      vertex 11.5 0 5
    endloop
  endfacet
  facet normal 0 0 1
    outer loop
      vertex 8.1875 2.07716 5
      vertex 4.8125 2.07716 5
      vertex 11.5 0 5
    endloop
  endfacet
  facet normal 0 0 1
    outer loop
      vertex -3.125 5 5
      vertex -4.8125 2.07716 5
      vertex 4.8125 2.07716 5
    endloop
  endfacet
  facet normal 0 0 1
    outer loop
      vertex -5 7.92284 5
      vertex -5 9.68182 5
      vertex -5 8.84339 5
    endloop
  endfacet
  facet normal 0 0 1
    outer loop
      vertex 3.6683 5.94103 5
      vertex -3.125 5 5
      vertex 3.125 5 5
    endloop
  endfacet
  facet normal 0 0 1
    outer loop
      vertex -5 7.92284 5
      vertex -5 14.9748 5
      vertex -5 14.0455 5
    endloop
  endfacet
  facet normal 0 0 1
    outer loop
      vertex -8.1875 2.07716 5
      vertex -11.5 0 5
      vertex -4.8125 2.07716 5
    endloop
  endfacet
  facet normal 0 0 1
    outer loop
      vertex -5 7.92284 5
      vertex -5 15.059 5
      vertex -5 14.9748 5
    endloop
  endfacet
  facet normal 0 0 1
    outer loop
      vertex -11.5 3.93782 5
      vertex -11.5 0 5
      vertex -8.1875 2.07716 5
    endloop
  endfacet
  facet normal 0 0 1
    outer loop
      vertex -8.1875 7.92284 5
      vertex -11.5 3.93782 5
      vertex -9.875 5 5
    endloop
  endfacet
  facet normal 0 0 1
    outer loop
      vertex -9 8.14904 5
      vertex -11.5 3.93782 5
      vertex -8.1875 7.92284 5
    endloop
  endfacet
  facet normal 0 0 1
    outer loop
      vertex -5 8.14904 5
      vertex -8.1875 7.92284 5
      vertex -5 7.92284 5
    endloop
  endfacet
  facet normal 0 0 1
    outer loop
      vertex 5 15.5324 5
      vertex -5 15.059 5
      vertex 5 15.059 5
    endloop
  endfacet
  facet normal 0 0 1
    outer loop
      vertex 5 15.9309 5
      vertex -5 15.059 5
      vertex 5 15.5324 5
    endloop
  endfacet
  facet normal 0 0 1
    outer loop
      vertex 5 17 5
      vertex -5 15.059 5
      vertex 5 15.9309 5
    endloop
  endfacet
  facet normal 0 0 1
    outer loop
      vertex -5 17 5
      vertex -5 15.059 5
      vertex 5 17 5
    endloop
  endfacet
  facet normal 0 0 1
    outer loop
      vertex -9 8.67976 5
      vertex -9 9.1437 5
      vertex -11.5 3.93782 5
    endloop
  endfacet
  facet normal 0 0 1
    outer loop
      vertex -9 8.14904 5
      vertex -9 8.31782 5
      vertex -11.5 3.93782 5
    endloop
  endfacet
  facet normal 0 0 1
    outer loop
      vertex -5 17 5
      vertex -5 14.9748 5
      vertex -5 15.059 5
    endloop
  endfacet
  facet normal 0 0 1
    outer loop
      vertex -5 8.84339 5
      vertex -5 8.29605 5
      vertex -5 7.92284 5
    endloop
  endfacet
  facet normal 0 0 1
    outer loop
      vertex -5 8.29605 5
      vertex -5 8.14904 5
      vertex -5 7.92284 5
    endloop
  endfacet
  facet normal 0 0 1
    outer loop
      vertex -5 8.14904 5
      vertex -6.37761 8.14904 5
      vertex -8.1875 7.92284 5
    endloop
  endfacet
  facet normal 0 0 1
    outer loop
      vertex -6.37761 8.14904 5
      vertex -9 8.14904 5
      vertex -8.1875 7.92284 5
    endloop
  endfacet
  facet normal 0 0 1
    outer loop
      vertex -9 8.67976 5
      vertex -11.5 3.93782 5
      vertex -9 8.31782 5
    endloop
  endfacet
  facet normal 0 0 1
    outer loop
      vertex -9 13.2679 5
      vertex -11.5 3.93782 5
      vertex -9 9.1437 5
    endloop
  endfacet
  facet normal 0 0 1
    outer loop
      vertex 9.875 5 5
      vertex 8.1875 2.07716 5
      vertex 11.5 3.93782 5
    endloop
  endfacet
  facet normal 0 0 1
    outer loop
      vertex 7.62239 8.14904 5
      vertex 5 8.14904 5
      vertex 5 7.92284 5
    endloop
  endfacet
  facet normal 0 0 1
    outer loop
      vertex -3.125 5 5
      vertex 4.8125 2.07716 5
      vertex 3.125 5 5
    endloop
  endfacet
  facet normal 0 0 1
    outer loop
      vertex -8.1875 2.07716 5
      vertex -9.875 5 5
      vertex -11.5 3.93782 5
    endloop
  endfacet
  facet normal 1 0 0
    outer loop
      vertex 11.5 0 5
      vertex 11.5 0 0
      vertex 11.5 3.93782 0
    endloop
  endfacet
  facet normal 1 0 0
    outer loop
      vertex 11.5 3.93782 5
      vertex 11.5 0 5
      vertex 11.5 3.93782 0
    endloop
  endfacet
  facet normal 0.965926 0.258819 0
    outer loop
      vertex 8 17 5
      vertex 8.68044 14.4606 15.5062
      vertex 8.73952 14.2401 16.4184
    endloop
  endfacet
  facet normal 0.965926 0.258819 0
    outer loop
      vertex 9 13.2679 12.2635
      vertex 8 17 5
      vertex 9 13.2679 17.8268
    endloop
  endfacet
  facet normal 0.965926 0.258819 0
    outer loop
      vertex 9 13.2679 17.8268
      vertex 8 17 5
      vertex 8.73952 14.2401 16.4184
    endloop
  endfacet
  facet normal 0.965926 0.258819 0
    outer loop
      vertex 9 13.2679 10.1932
      vertex 8 17 5
      vertex 9 13.2679 12.2635
    endloop
  endfacet
  facet normal 0.965926 0.258819 0
    outer loop
      vertex 9 13.2679 9.21386
      vertex 8 17 5
      vertex 9 13.2679 10.1932
    endloop
  endfacet
  facet normal 0.965926 0.258819 0
    outer loop
      vertex 9 13.2679 6.31578
      vertex 8 17 5
      vertex 9 13.2679 9.21386
    endloop
  endfacet
  facet normal 0.965926 0.258819 0
    outer loop
      vertex 9 13.2679 5
      vertex 8 17 5
      vertex 9 13.2679 6.31578
    endloop
  endfacet
  facet normal 0.965926 0.258819 0
    outer loop
      vertex 11.5 3.93782 0
      vertex 8 17 5
      vertex 9 13.2679 5
    endloop
  endfacet
  facet normal 0.965926 0.258819 0
    outer loop
      vertex 11.5 3.93782 0
      vertex 9 13.2679 5
      vertex 11.5 3.93782 5
    endloop
  endfacet
  facet normal 0.965926 0.258819 0
    outer loop
      vertex 8 17 0
      vertex 8 17 5
      vertex 11.5 3.93782 0
    endloop
  endfacet
  facet normal 0 1 0
    outer loop
      vertex -8 17 0
      vertex -8 17 5
      vertex 8 17 0
    endloop
  endfacet
  facet normal 0 1 0
    outer loop
      vertex 8 17 0
      vertex -8 17 5
      vertex -5 17 5
    endloop
  endfacet
  facet normal 0 1 0
    outer loop
      vertex 8 17 0
      vertex -5 17 5
      vertex 5 17 5
    endloop
  endfacet
  facet normal 0 1 0
    outer loop
      vertex 8 17 0
      vertex 5 17 5
      vertex 8 17 5
    endloop
  endfacet
  facet normal 0.866025 0.5 0
    outer loop
      vertex -8.15 5 2.5
      vertex -7.325 3.57106 2.5
      vertex -7.325 3.57106 0
    endloop
  endfacet
  facet normal 0.866025 0.5 0
    outer loop
      vertex -8.15 5 0
      vertex -8.15 5 2.5
      vertex -7.325 3.57106 0
    endloop
  endfacet
  facet normal 0.866025 -0.5 0
    outer loop
      vertex -7.325 6.42894 0
      vertex -7.325 6.42894 2.5
      vertex -8.15 5 2.5
    endloop
  endfacet
  facet normal 0.866025 -0.5 0
    outer loop
      vertex -8.15 5 0
      vertex -7.325 6.42894 0
      vertex -8.15 5 2.5
    endloop
  endfacet
  facet normal 0 -1 0
    outer loop
      vertex -5.675 6.42894 0
      vertex -5.675 6.42894 2.5
      vertex -7.325 6.42894 2.5
    endloop
  endfacet
  facet normal 0 -1 0
    outer loop
      vertex -7.325 6.42894 0
      vertex -5.675 6.42894 0
      vertex -7.325 6.42894 2.5
    endloop
  endfacet
  facet normal -0.866025 -0.5 0
    outer loop
      vertex -4.85 5 2.5
      vertex -5.675 6.42894 2.5
      vertex -4.85 5 0
    endloop
  endfacet
  facet normal -0.866025 -0.5 0
    outer loop
      vertex -4.85 5 0
      vertex -5.675 6.42894 2.5
      vertex -5.675 6.42894 0
    endloop
  endfacet
  facet normal -0.866025 0.5 0
    outer loop
      vertex -4.85 5 2.5
      vertex -4.85 5 0
      vertex -5.675 3.57106 2.5
    endloop
  endfacet
  facet normal -0.866025 0.5 0
    outer loop
      vertex -5.675 3.57106 2.5
      vertex -4.85 5 0
      vertex -5.675 3.57106 0
    endloop
  endfacet
  facet normal 0 1 0
    outer loop
      vertex -5.675 3.57106 2.5
      vertex -5.675 3.57106 0
      vertex -7.325 3.57106 2.5
    endloop
  endfacet
  facet normal 0 1 0
    outer loop
      vertex -7.325 3.57106 2.5
      vertex -5.675 3.57106 0
      vertex -7.325 3.57106 0
    endloop
  endfacet
  facet normal 0.866025 0.5 0
    outer loop
      vertex 4.85 5 2.5
      vertex 5.675 3.57106 2.5
      vertex 5.675 3.57106 0
    endloop
  endfacet
  facet normal 0.866025 0.5 0
    outer loop
      vertex 4.85 5 0
      vertex 4.85 5 2.5
      vertex 5.675 3.57106 0
    endloop
  endfacet
  facet normal 0.866025 -0.5 0
    outer loop
      vertex 5.675 6.42894 0
      vertex 5.675 6.42894 2.5
      vertex 4.85 5 2.5
    endloop
  endfacet
  facet normal 0.866025 -0.5 0
    outer loop
      vertex 4.85 5 0
      vertex 5.675 6.42894 0
      vertex 4.85 5 2.5
    endloop
  endfacet
  facet normal 0 -1 0
    outer loop
      vertex 7.325 6.42894 0
      vertex 7.325 6.42894 2.5
      vertex 5.675 6.42894 2.5
    endloop
  endfacet
  facet normal 0 -1 0
    outer loop
      vertex 5.675 6.42894 0
      vertex 7.325 6.42894 0
      vertex 5.675 6.42894 2.5
    endloop
  endfacet
  facet normal -0.866025 -0.5 0
    outer loop
      vertex 8.15 5 2.5
      vertex 7.325 6.42894 2.5
      vertex 8.15 5 0
    endloop
  endfacet
  facet normal -0.866025 -0.5 0
    outer loop
      vertex 8.15 5 0
      vertex 7.325 6.42894 2.5
      vertex 7.325 6.42894 0
    endloop
  endfacet
  facet normal -0.866025 0.5 0
    outer loop
      vertex 8.15 5 2.5
      vertex 8.15 5 0
      vertex 7.325 3.57106 2.5
    endloop
  endfacet
  facet normal -0.866025 0.5 0
    outer loop
      vertex 7.325 3.57106 2.5
      vertex 8.15 5 0
      vertex 7.325 3.57106 0
    endloop
  endfacet
  facet normal 0 1 0
    outer loop
      vertex 7.325 3.57106 2.5
      vertex 7.325 3.57106 0
      vertex 5.675 3.57106 2.5
    endloop
  endfacet
  facet normal 0 1 0
    outer loop
      vertex 5.675 3.57106 2.5
      vertex 7.325 3.57106 0
      vertex 5.675 3.57106 0
    endloop
  endfacet
  facet normal 0 0.972009 0.234943
    outer loop
      vertex -8.15603 16.4177 7.40919
      vertex -5 14.2401 16.4184
      vertex -8 17 5
    endloop
  endfacet
  facet normal 0 0.972009 0.234943
    outer loop
      vertex -8 17 5
      vertex -5 14.2401 16.4184
      vertex -5 17 5
    endloop
  endfacet
  facet normal -4.16605e-17 0.972009 0.234943
    outer loop
      vertex -8.73952 14.2401 16.4184
      vertex -5 14.2401 16.4184
      vertex -8.15603 16.4177 7.40919
    endloop
  endfacet
  facet normal -1.0073e-16 0.822984 0.568065
    outer loop
      vertex -9 13.1525 17.994
      vertex -5 13.1525 17.994
      vertex -9 13.2679 17.8268
    endloop
  endfacet
  facet normal -1.0073e-16 0.822984 0.568065
    outer loop
      vertex -9 13.2679 17.8268
      vertex -5 13.1525 17.994
      vertex -5 14.2401 16.4184
    endloop
  endfacet
  facet normal -1.0073e-16 0.822984 0.568065
    outer loop
      vertex -9 13.2679 17.8268
      vertex -5 14.2401 16.4184
      vertex -8.73952 14.2401 16.4184
    endloop
  endfacet
  facet normal -1 3.4622e-16 6.16573e-17
    outer loop
      vertex -9 13.2679 17.6041
      vertex -9 13.1525 17.994
      vertex -9 13.2679 17.8268
    endloop
  endfacet
  facet normal -1 1.37987e-16 0
    outer loop
      vertex -9 13.2679 17.4541
      vertex -9 13.1525 17.994
      vertex -9 13.2679 17.6041
    endloop
  endfacet
  facet normal -1 8.73869e-17 -1.08195e-17
    outer loop
      vertex -9 11.4573 18.8838
      vertex -9 13.1525 17.994
      vertex -9 13.2679 12.7149
    endloop
  endfacet
  facet normal -1 8.73869e-17 -1.08195e-17
    outer loop
      vertex -9 13.2679 12.7149
      vertex -9 13.1525 17.994
      vertex -9 13.2679 17.4541
    endloop
  endfacet
  facet normal -1 0 -3.64691e-17
    outer loop
      vertex -9 9.54274 18.8838
      vertex -9 11.4573 18.8838
      vertex -9 9.4613 16.0503
    endloop
  endfacet
  facet normal -1 0 -3.64691e-17
    outer loop
      vertex -9 11.9289 15.825
      vertex -9 11.4573 18.8838
      vertex -9 13.2679 12.7149
    endloop
  endfacet
  facet normal -1 0 -3.64691e-17
    outer loop
      vertex -9 10.5 13.35
      vertex -9 13.2679 12.7149
      vertex -9 13.2679 5
    endloop
  endfacet
  facet normal -1 0 -3.64691e-17
    outer loop
      vertex -9 9.40191 13.984
      vertex -9 13.2679 5
      vertex -9 9.1437 5
    endloop
  endfacet
  facet normal -1 0 -3.64691e-17
    outer loop
      vertex -9 11.9289 14.175
      vertex -9 13.2679 12.7149
      vertex -9 10.5 13.35
    endloop
  endfacet
  facet normal -1 0 -3.64691e-17
    outer loop
      vertex -9 10.5 16.65
      vertex -9 11.4573 18.8838
      vertex -9 11.9289 15.825
    endloop
  endfacet
  facet normal -1 0 -3.64691e-17
    outer loop
      vertex -9 11.9289 14.175
      vertex -9 11.9289 15.825
      vertex -9 13.2679 12.7149
    endloop
  endfacet
  facet normal -1 0 -3.64691e-17
    outer loop
      vertex -9 9.4613 16.0503
      vertex -9 11.4573 18.8838
      vertex -9 10.5 16.65
    endloop
  endfacet
  facet normal -1 0 -3.64691e-17
    outer loop
      vertex -9 10.5 13.35
      vertex -9 13.2679 5
      vertex -9 9.40191 13.984
    endloop
  endfacet
  facet normal -1 -7.50571e-17 -3.43119e-17
    outer loop
      vertex -9 9.54274 18.8838
      vertex -9 9.4613 16.0503
      vertex -9 7.84751 17.994
    endloop
  endfacet
  facet normal -1 -7.50571e-17 -3.43119e-17
    outer loop
      vertex -9 7.84751 17.994
      vertex -9 9.4613 16.0503
      vertex -9 9.07106 15.825
    endloop
  endfacet
  facet normal -1 -7.50571e-17 -3.43119e-17
    outer loop
      vertex -9 7.84751 17.994
      vertex -9 9.07106 15.825
      vertex -9 9.07106 14.175
    endloop
  endfacet
  facet normal -1 -7.50571e-17 -3.43119e-17
    outer loop
      vertex -9 9.07106 14.175
      vertex -9 9.40191 13.984
      vertex -9 9.1437 5
    endloop
  endfacet
  facet normal -1 -7.50571e-17 -3.43119e-17
    outer loop
      vertex -9 9.07106 14.175
      vertex -9 9.1437 5
      vertex -9 7.84751 17.994
    endloop
  endfacet
  facet normal -1 -7.50571e-17 -3.43119e-17
    outer loop
      vertex -9 7.84751 17.994
      vertex -9 9.1437 5
      vertex -9 8.67976 5
    endloop
  endfacet
  facet normal -1 -1.95966e-16 -4.20559e-17
    outer loop
      vertex -9 7.84751 17.994
      vertex -9 8.67976 5
      vertex -9 6.75993 16.4184
    endloop
  endfacet
  facet normal -1 -1.95966e-16 -4.20559e-17
    outer loop
      vertex -9 6.75993 16.4184
      vertex -9 8.67976 5
      vertex -9 8.31782 5
    endloop
  endfacet
  facet normal -1 -6.28262e-16 -1.01037e-16
    outer loop
      vertex -9 6.75993 16.4184
      vertex -9 8.31782 5
      vertex -9 6.52916 14.5179
    endloop
  endfacet
  facet normal -1 -6.28262e-16 -1.01037e-16
    outer loop
      vertex -9 6.52916 14.5179
      vertex -9 8.31782 5
      vertex -9 8.14904 5
    endloop
  endfacet
  facet normal 0 -0.985824 -0.16778
    outer loop
      vertex -6.74381 7.92284 6.32908
      vertex -9 8.14904 5
      vertex -6.37761 8.14904 5
    endloop
  endfacet
  facet normal 0 -0.985824 -0.16778
    outer loop
      vertex -8.1875 7.92284 6.32908
      vertex -9 8.14904 5
      vertex -6.74381 7.92284 6.32908
    endloop
  endfacet
  facet normal 0 -0.985824 -0.16778
    outer loop
      vertex -9 6.52916 14.5179
      vertex -9 8.14904 5
      vertex -8.1875 7.92284 6.32908
    endloop
  endfacet
  facet normal 0 -0.985824 -0.16778
    outer loop
      vertex -9 6.52916 14.5179
      vertex -8.1875 7.92284 6.32908
      vertex -8.20429 7.89375 6.5
    endloop
  endfacet
  facet normal 0 -0.985824 -0.16778
    outer loop
      vertex -9 6.52916 14.5179
      vertex -8.20429 7.89375 6.5
      vertex -6.7909 7.89375 6.5
    endloop
  endfacet
  facet normal 2.9751e-17 -0.985824 -0.16778
    outer loop
      vertex -5 7.92284 6.32908
      vertex -6.74381 7.92284 6.32908
      vertex -6.37761 8.14904 5
    endloop
  endfacet
  facet normal 2.9751e-17 -0.985824 -0.16778
    outer loop
      vertex -5 8.14904 5
      vertex -5 7.92284 6.32908
      vertex -6.37761 8.14904 5
    endloop
  endfacet
  facet normal 1 -8.76364e-16 -1.5504e-16
    outer loop
      vertex -5 7.92284 6.32908
      vertex -5 8.14904 5
      vertex -5 8.29605 5
    endloop
  endfacet
  facet normal 1 -8.76364e-16 -1.5504e-16
    outer loop
      vertex -5 7.92284 6.5
      vertex -5 7.92284 6.32908
      vertex -5 8.29605 5
    endloop
  endfacet
  facet normal 1 -8.76364e-16 -1.5504e-16
    outer loop
      vertex -5 6.52916 14.5179
      vertex -5 7.89375 6.5
      vertex -5 7.20806 12.7277
    endloop
  endfacet
  facet normal 1 -8.76364e-16 -1.5504e-16
    outer loop
      vertex -5 7.20806 12.7277
      vertex -5 7.92284 6.5
      vertex -5 8.29605 5
    endloop
  endfacet
  facet normal 1 -8.76364e-16 -1.5504e-16
    outer loop
      vertex -5 7.89375 6.5
      vertex -5 7.92284 6.5
      vertex -5 7.20806 12.7277
    endloop
  endfacet
  facet normal 1 -2.11521e-16 -6.14368e-17
    outer loop
      vertex -5 7.20806 12.7277
      vertex -5 8.29605 5
      vertex -5 8.84339 5
    endloop
  endfacet
  facet normal 1 -2.11521e-16 -6.14368e-17
    outer loop
      vertex -5 8.64111 11.4582
      vertex -5 7.20806 12.7277
      vertex -5 8.84339 5
    endloop
  endfacet
  facet normal 1 -5.76608e-17 -5.66176e-17
    outer loop
      vertex -5 8.64111 11.4582
      vertex -5 8.84339 5
      vertex -5 9.68182 5
    endloop
  endfacet
  facet normal 1 -5.76608e-17 -5.66176e-17
    outer loop
      vertex -5 10.5 11
      vertex -5 8.64111 11.4582
      vertex -5 9.68182 5
    endloop
  endfacet
  facet normal 1 0 -6.44805e-17
    outer loop
      vertex -5 10.5 11
      vertex -5 9.68182 5
      vertex -5 14.0455 5
    endloop
  endfacet
  facet normal 1 5.2022e-17 -3.37402e-17
    outer loop
      vertex -5 14.0455 5
      vertex -5 14.9748 5
      vertex -5 12.3589 11.4582
    endloop
  endfacet
  facet normal 1 5.2022e-17 -3.37402e-17
    outer loop
      vertex -5 10.5 11
      vertex -5 14.0455 5
      vertex -5 12.3589 11.4582
    endloop
  endfacet
  facet normal 1 1.35321e-16 0
    outer loop
      vertex -5 14.9748 5
      vertex -5 17 5
      vertex -5 12.3589 11.4582
    endloop
  endfacet
  facet normal 1 1.48624e-16 9.55972e-18
    outer loop
      vertex -5 12.3589 11.4582
      vertex -5 17 5
      vertex -5 13.7919 12.7277
    endloop
  endfacet
  facet normal 1 2.88853e-16 6.77738e-17
    outer loop
      vertex -5 13.7919 12.7277
      vertex -5 17 5
      vertex -5 14.4708 14.5179
    endloop
  endfacet
  facet normal 1 1.29103e-15 3.3408e-16
    outer loop
      vertex -5 17 5
      vertex -5 14.2401 16.4184
      vertex -5 14.4708 14.5179
    endloop
  endfacet
  facet normal 0 0.972009 0.234943
    outer loop
      vertex 8 17 5
      vertex 5 17 5
      vertex 8.68044 14.4606 15.5062
    endloop
  endfacet
  facet normal -4.16605e-17 0.972009 0.234943
    outer loop
      vertex 5 14.2401 16.4184
      vertex 8.73952 14.2401 16.4184
      vertex 5 16.7623 5.98342
    endloop
  endfacet
  facet normal -4.16605e-17 0.972009 0.234943
    outer loop
      vertex 5 16.7623 5.98342
      vertex 8.73952 14.2401 16.4184
      vertex 8.68044 14.4606 15.5062
    endloop
  endfacet
  facet normal -4.16605e-17 0.972009 0.234943
    outer loop
      vertex 5 16.7623 5.98342
      vertex 8.68044 14.4606 15.5062
      vertex 5 17 5
    endloop
  endfacet
  facet normal -1 3.4622e-16 6.16573e-17
    outer loop
      vertex 5 17 5
      vertex 5 16.7166 5.95704
      vertex 5 16.7623 5.98342
    endloop
  endfacet
  facet normal -1 1.37987e-16 0
    outer loop
      vertex 5 15.8351 5.44809
      vertex 5 16.7166 5.95704
      vertex 5 15.9309 5
    endloop
  endfacet
  facet normal -1 1.37987e-16 0
    outer loop
      vertex 5 15.9309 5
      vertex 5 16.7166 5.95704
      vertex 5 17 5
    endloop
  endfacet
  facet normal -1 8.73869e-17 -1.08195e-17
    outer loop
      vertex 5 15.4638 5.23373
      vertex 5 15.8351 5.44809
      vertex 5 15.5324 5
    endloop
  endfacet
  facet normal -1 8.73869e-17 -1.08195e-17
    outer loop
      vertex 5 15.5324 5
      vertex 5 15.8351 5.44809
      vertex 5 15.9309 5
    endloop
  endfacet
  facet normal -1 0 -3.64691e-17
    outer loop
      vertex 5 15.059 5
      vertex 5 15.4638 5.23373
      vertex 5 15.5324 5
    endloop
  endfacet
  facet normal -1.53565e-16 -0.5 0.866025
    outer loop
      vertex 5 16.7166 5.95704
      vertex 5 14.9741 4.951
      vertex 5 16.7623 5.98342
    endloop
  endfacet
  facet normal -1.53565e-16 -0.5 0.866025
    outer loop
      vertex 5 15.8351 5.44809
      vertex 5 14.9741 4.951
      vertex 5 16.7166 5.95704
    endloop
  endfacet
  facet normal -1.53565e-16 -0.5 0.866025
    outer loop
      vertex 5 15.4638 5.23373
      vertex 5 14.9741 4.951
      vertex 5 15.8351 5.44809
    endloop
  endfacet
  facet normal -1.53565e-16 -0.5 0.866025
    outer loop
      vertex 5 15.059 5
      vertex 5 14.9741 4.951
      vertex 5 15.4638 5.23373
    endloop
  endfacet
  facet normal -1.53565e-16 -0.5 0.866025
    outer loop
      vertex -5 14.9741 4.951
      vertex 5 14.9741 4.951
      vertex 5 15.059 5
    endloop
  endfacet
  facet normal -1.53565e-16 -0.5 0.866025
    outer loop
      vertex 5 15.059 5
      vertex -5 15.059 5
      vertex -5 14.9741 4.951
    endloop
  endfacet
  facet normal 1 0 1.77321e-16
    outer loop
      vertex -5 7.92284 4.33465
      vertex -5 8.21297 4.24038
      vertex -5 10.5 4
    endloop
  endfacet
  facet normal 1 0 1.77321e-16
    outer loop
      vertex -5 14.9741 4.951
      vertex -5 7.92284 4.33465
      vertex -5 12.787 4.24038
    endloop
  endfacet
  facet normal 1 0 1.77321e-16
    outer loop
      vertex -5 12.787 4.24038
      vertex -5 7.92284 4.33465
      vertex -5 10.5 4
    endloop
  endfacet
  facet normal 1 0 1.77321e-16
    outer loop
      vertex -5 15.059 5
      vertex -5 7.92284 4.33465
      vertex -5 14.9741 4.951
    endloop
  endfacet
  facet normal 1 0 1.77321e-16
    outer loop
      vertex -5 7.92284 5
      vertex -5 7.92284 4.33465
      vertex -5 15.059 5
    endloop
  endfacet
  facet normal 0 -1 0
    outer loop
      vertex -4.8125 7.92284 2.5
      vertex -4.8125 7.92284 4.33465
      vertex -5 7.92284 4.33465
    endloop
  endfacet
  facet normal 0 -1 0
    outer loop
      vertex -8.1875 7.92284 5
      vertex -4.8125 7.92284 2.5
      vertex -5 7.92284 4.33465
    endloop
  endfacet
  facet normal 0 -1 0
    outer loop
      vertex -5 7.92284 5
      vertex -8.1875 7.92284 5
      vertex -5 7.92284 4.33465
    endloop
  endfacet
  facet normal 0 -1 0
    outer loop
      vertex -8.1875 7.92284 5
      vertex -8.1875 7.92284 2.5
      vertex -4.8125 7.92284 2.5
    endloop
  endfacet
  facet normal 0.866025 -0.5 0
    outer loop
      vertex -8.1875 7.92284 2.5
      vertex -8.1875 7.92284 5
      vertex -9.875 5 5
    endloop
  endfacet
  facet normal 0.866025 -0.5 0
    outer loop
      vertex -9.875 5 2.5
      vertex -8.1875 7.92284 2.5
      vertex -9.875 5 5
    endloop
  endfacet
  facet normal 0.866025 0.5 0
    outer loop
      vertex -9.875 5 5
      vertex -8.1875 2.07716 5
      vertex -8.1875 2.07716 2.5
    endloop
  endfacet
  facet normal 0.866025 0.5 0
    outer loop
      vertex -9.875 5 2.5
      vertex -9.875 5 5
      vertex -8.1875 2.07716 2.5
    endloop
  endfacet
  facet normal 0 1 0
    outer loop
      vertex -4.8125 2.07716 5
      vertex -4.8125 2.07716 2.5
      vertex -8.1875 2.07716 5
    endloop
  endfacet
  facet normal 0 1 0
    outer loop
      vertex -8.1875 2.07716 5
      vertex -4.8125 2.07716 2.5
      vertex -8.1875 2.07716 2.5
    endloop
  endfacet
  facet normal -0.866025 0.5 0
    outer loop
      vertex -3.125 5 5
      vertex -3.125 5 2.5
      vertex -4.8125 2.07716 5
    endloop
  endfacet
  facet normal -0.866025 0.5 0
    outer loop
      vertex -4.8125 2.07716 5
      vertex -3.125 5 2.5
      vertex -4.8125 2.07716 2.5
    endloop
  endfacet
  facet normal -0.866025 -0.5 0
    outer loop
      vertex -3.125 5 5
      vertex -3.6683 5.94103 5
      vertex -3.125 5 2.5
    endloop
  endfacet
  facet normal -0.866025 -0.5 0
    outer loop
      vertex -3.125 5 2.5
      vertex -3.6683 5.94103 5
      vertex -3.7173 6.0259 4.951
    endloop
  endfacet
  facet normal -0.866025 -0.5 0
    outer loop
      vertex -3.125 5 2.5
      vertex -3.7173 6.0259 4.951
      vertex -4.8125 7.92284 4.33465
    endloop
  endfacet
  facet normal -0.866025 -0.5 0
    outer loop
      vertex -3.125 5 2.5
      vertex -4.8125 7.92284 4.33465
      vertex -4.8125 7.92284 2.5
    endloop
  endfacet
  facet normal -1.53565e-16 0.5 0.866025
    outer loop
      vertex -3.6683 5.94103 5
      vertex 3.6683 5.94103 5
      vertex 3.7173 6.0259 4.951
    endloop
  endfacet
  facet normal -1.53565e-16 0.5 0.866025
    outer loop
      vertex -3.7173 6.0259 4.951
      vertex -3.6683 5.94103 5
      vertex 3.7173 6.0259 4.951
    endloop
  endfacet
  facet normal 0.866025 -0.5 0
    outer loop
      vertex 4.8125 7.92284 2.5
      vertex 4.8125 7.92284 4.33465
      vertex 3.7173 6.0259 4.951
    endloop
  endfacet
  facet normal 0.866025 -0.5 0
    outer loop
      vertex 3.6683 5.94103 5
      vertex 4.8125 7.92284 2.5
      vertex 3.7173 6.0259 4.951
    endloop
  endfacet
  facet normal 0.866025 -0.5 0
    outer loop
      vertex 3.6683 5.94103 5
      vertex 3.125 5 5
      vertex 4.8125 7.92284 2.5
    endloop
  endfacet
  facet normal 0.866025 -0.5 0
    outer loop
      vertex 3.125 5 5
      vertex 3.125 5 2.5
      vertex 4.8125 7.92284 2.5
    endloop
  endfacet
  facet normal 0.866025 0.5 0
    outer loop
      vertex 3.125 5 5
      vertex 4.8125 2.07716 5
      vertex 4.8125 2.07716 2.5
    endloop
  endfacet
  facet normal 0.866025 0.5 0
    outer loop
      vertex 3.125 5 2.5
      vertex 3.125 5 5
      vertex 4.8125 2.07716 2.5
    endloop
  endfacet
  facet normal 0 1 0
    outer loop
      vertex 8.1875 2.07716 5
      vertex 8.1875 2.07716 2.5
      vertex 4.8125 2.07716 5
    endloop
  endfacet
  facet normal 0 1 0
    outer loop
      vertex 4.8125 2.07716 5
      vertex 8.1875 2.07716 2.5
      vertex 4.8125 2.07716 2.5
    endloop
  endfacet
  facet normal -0.866025 0.5 0
    outer loop
      vertex 9.875 5 5
      vertex 9.875 5 2.5
      vertex 8.1875 2.07716 5
    endloop
  endfacet
  facet normal -0.866025 0.5 0
    outer loop
      vertex 8.1875 2.07716 5
      vertex 9.875 5 2.5
      vertex 8.1875 2.07716 2.5
    endloop
  endfacet
  facet normal -0.866025 -0.5 0
    outer loop
      vertex 9.875 5 5
      vertex 8.1875 7.92284 5
      vertex 9.875 5 2.5
    endloop
  endfacet
  facet normal -0.866025 -0.5 0
    outer loop
      vertex 9.875 5 2.5
      vertex 8.1875 7.92284 5
      vertex 8.1875 7.92284 2.5
    endloop
  endfacet
  facet normal 0 -1 0
    outer loop
      vertex 8.1875 7.92284 2.5
      vertex 8.1875 7.92284 5
      vertex 5 7.92284 5
    endloop
  endfacet
  facet normal 0 -1 0
    outer loop
      vertex 4.8125 7.92284 4.33465
      vertex 8.1875 7.92284 2.5
      vertex 5 7.92284 4.33465
    endloop
  endfacet
  facet normal 0 -1 0
    outer loop
      vertex 5 7.92284 4.33465
      vertex 8.1875 7.92284 2.5
      vertex 5 7.92284 5
    endloop
  endfacet
  facet normal 0 -1 0
    outer loop
      vertex 4.8125 7.92284 2.5
      vertex 8.1875 7.92284 2.5
      vertex 4.8125 7.92284 4.33465
    endloop
  endfacet
  facet normal -1 0 -1.77321e-16
    outer loop
      vertex 5 13.1525 17.994
      vertex 5 14.2401 16.4184
      vertex 5 11.4573 18.8838
    endloop
  endfacet
  facet normal -1 0 -1.77321e-16
    outer loop
      vertex 5 11.4573 18.8838
      vertex 5 14.2401 16.4184
      vertex 5 16.7623 5.98342
    endloop
  endfacet
  facet normal -1 0 -1.77321e-16
    outer loop
      vertex 5 11.4573 18.8838
      vertex 5 16.7623 5.98342
      vertex 5 14.9741 4.951
    endloop
  endfacet
  facet normal -1 0 -1.77321e-16
    outer loop
      vertex 5 11.9289 14.175
      vertex 5 14.9741 4.951
      vertex 5 12.787 4.24038
    endloop
  endfacet
  facet normal -1 0 -1.77321e-16
    outer loop
      vertex 5 10.5 13.35
      vertex 5 10.5 4
      vertex 5 8.21297 4.24038
    endloop
  endfacet
  facet normal -1 0 -1.77321e-16
    outer loop
      vertex 5 8.14904 5
      vertex 5 8.21297 4.24038
      vertex 5 7.92284 4.33465
    endloop
  endfacet
  facet normal -1 0 -1.77321e-16
    outer loop
      vertex 5 11.9289 14.175
      vertex 5 10.5 4
      vertex 5 10.5 13.35
    endloop
  endfacet
  facet normal -1 0 -1.77321e-16
    outer loop
      vertex 5 9.07106 15.825
      vertex 5 11.4573 18.8838
      vertex 5 10.5 16.65
    endloop
  endfacet
  facet normal -1 0 -1.77321e-16
    outer loop
      vertex 5 9.07106 15.825
      vertex 5 6.52916 14.5179
      vertex 5 11.4573 18.8838
    endloop
  endfacet
  facet normal -1 0 -1.77321e-16
    outer loop
      vertex 5 11.4573 18.8838
      vertex 5 6.52916 14.5179
      vertex 5 6.75993 16.4184
    endloop
  endfacet
  facet normal -1 0 -1.77321e-16
    outer loop
      vertex 5 11.4573 18.8838
      vertex 5 6.75993 16.4184
      vertex 5 7.84751 17.994
    endloop
  endfacet
  facet normal -1 0 -1.77321e-16
    outer loop
      vertex 5 11.4573 18.8838
      vertex 5 7.84751 17.994
      vertex 5 9.54274 18.8838
    endloop
  endfacet
  facet normal -1 0 -1.77321e-16
    outer loop
      vertex 5 7.89375 6.5
      vertex 5 6.52916 14.5179
      vertex 5 9.07106 15.825
    endloop
  endfacet
  facet normal -1 0 -1.77321e-16
    outer loop
      vertex 5 10.5 13.35
      vertex 5 8.21297 4.24038
      vertex 5 8.14904 5
    endloop
  endfacet
  facet normal -1 0 -1.77321e-16
    outer loop
      vertex 5 7.89375 6.5
      vertex 5 9.07106 15.825
      vertex 5 9.07106 14.175
    endloop
  endfacet
  facet normal -1 0 -1.77321e-16
    outer loop
      vertex 5 10.5 13.35
      vertex 5 8.14904 5
      vertex 5 7.92284 6.32908
    endloop
  endfacet
  facet normal -1 0 -1.77321e-16
    outer loop
      vertex 5 11.9289 14.175
      vertex 5 12.787 4.24038
      vertex 5 10.5 4
    endloop
  endfacet
  facet normal -1 0 -1.77321e-16
    outer loop
      vertex 5 11.9289 15.825
      vertex 5 14.9741 4.951
      vertex 5 11.9289 14.175
    endloop
  endfacet
  facet normal -1 0 -1.77321e-16
    outer loop
      vertex 5 10.5 16.65
      vertex 5 11.4573 18.8838
      vertex 5 11.9289 15.825
    endloop
  endfacet
  facet normal -1 0 -1.77321e-16
    outer loop
      vertex 5 11.4573 18.8838
      vertex 5 14.9741 4.951
      vertex 5 11.9289 15.825
    endloop
  endfacet
  facet normal -1 0 -1.77321e-16
    outer loop
      vertex 5 8.14904 5
      vertex 5 7.92284 4.33465
      vertex 5 7.92284 5
    endloop
  endfacet
  facet normal -1 0 -1.77321e-16
    outer loop
      vertex 5 10.5 13.35
      vertex 5 7.92284 6.32908
      vertex 5 7.92284 6.5
    endloop
  endfacet
  facet normal -1 0 -1.77321e-16
    outer loop
      vertex 5 10.5 13.35
      vertex 5 7.92284 6.5
      vertex 5 7.89375 6.5
    endloop
  endfacet
  facet normal -1 0 -1.77321e-16
    outer loop
      vertex 5 10.5 13.35
      vertex 5 7.89375 6.5
      vertex 5 9.07106 14.175
    endloop
  endfacet
  facet normal 0 -0.985824 -0.16778
    outer loop
      vertex 7.25619 7.92284 6.32908
      vertex 5 7.92284 6.32908
      vertex 5 8.14904 5
    endloop
  endfacet
  facet normal 0 -0.985824 -0.16778
    outer loop
      vertex 7.62239 8.14904 5
      vertex 7.25619 7.92284 6.32908
      vertex 5 8.14904 5
    endloop
  endfacet
  facet normal 2.9751e-17 -0.985824 -0.16778
    outer loop
      vertex 8.20429 7.89375 6.5
      vertex 9 6.52916 14.5179
      vertex 7.2091 7.89375 6.5
    endloop
  endfacet
  facet normal 2.9751e-17 -0.985824 -0.16778
    outer loop
      vertex 7.2091 7.89375 6.5
      vertex 9 6.52916 14.5179
      vertex 5 6.52916 14.5179
    endloop
  endfacet
  facet normal 2.9751e-17 -0.985824 -0.16778
    outer loop
      vertex 8.1875 7.92284 6.32908
      vertex 9 6.52916 14.5179
      vertex 8.20429 7.89375 6.5
    endloop
  endfacet
  facet normal 2.9751e-17 -0.985824 -0.16778
    outer loop
      vertex 9 8.14904 5
      vertex 9 6.52916 14.5179
      vertex 8.1875 7.92284 6.32908
    endloop
  endfacet
  facet normal 2.9751e-17 -0.985824 -0.16778
    outer loop
      vertex 7.62239 8.14904 5
      vertex 8.1875 7.92284 6.32908
      vertex 7.25619 7.92284 6.32908
    endloop
  endfacet
  facet normal 2.9751e-17 -0.985824 -0.16778
    outer loop
      vertex 9 8.14904 5
      vertex 8.1875 7.92284 6.32908
      vertex 7.62239 8.14904 5
    endloop
  endfacet
  facet normal 1 -8.76364e-16 -1.5504e-16
    outer loop
      vertex 9 6.52916 14.5179
      vertex 9 8.14904 5
      vertex 9 8.29605 5
    endloop
  endfacet
  facet normal 1 -8.76364e-16 -1.5504e-16
    outer loop
      vertex 9 7.20806 12.7277
      vertex 9 6.52916 14.5179
      vertex 9 8.29605 5
    endloop
  endfacet
  facet normal 1 -2.11521e-16 -6.14368e-17
    outer loop
      vertex 9 7.20806 12.7277
      vertex 9 8.29605 5
      vertex 9 8.84339 5
    endloop
  endfacet
  facet normal 1 -2.11521e-16 -6.14368e-17
    outer loop
      vertex 9 8.64111 11.4582
      vertex 9 7.20806 12.7277
      vertex 9 8.84339 5
    endloop
  endfacet
  facet normal 1 -5.76608e-17 -5.66176e-17
    outer loop
      vertex 9 8.64111 11.4582
      vertex 9 8.84339 5
      vertex 9 9.68182 5
    endloop
  endfacet
  facet normal 1 -5.76608e-17 -5.66176e-17
    outer loop
      vertex 9 10.5 11
      vertex 9 8.64111 11.4582
      vertex 9 9.68182 5
    endloop
  endfacet
  facet normal 1 0 -6.44805e-17
    outer loop
      vertex 9 10.5 11
      vertex 9 9.68182 5
      vertex 9 13.2679 5
    endloop
  endfacet
  facet normal 1 0 -6.44805e-17
    outer loop
      vertex 9 13.2679 6.31578
      vertex 9 10.5 11
      vertex 9 13.2679 5
    endloop
  endfacet
  facet normal 1 5.2022e-17 -3.37402e-17
    outer loop
      vertex 9 10.5 11
      vertex 9 13.2679 6.31578
      vertex 9 13.2679 9.21386
    endloop
  endfacet
  facet normal 1 5.2022e-17 -3.37402e-17
    outer loop
      vertex 9 12.3589 11.4582
      vertex 9 10.5 11
      vertex 9 13.2679 9.21386
    endloop
  endfacet
  facet normal 1 1.35321e-16 0
    outer loop
      vertex 9 12.3589 11.4582
      vertex 9 13.2679 9.21386
      vertex 9 13.2679 10.1932
    endloop
  endfacet
  facet normal 1 1.48624e-16 9.55972e-18
    outer loop
      vertex 9 13.2679 10.1932
      vertex 9 13.2679 12.2635
      vertex 9 12.3589 11.4582
    endloop
  endfacet
  facet normal 1 0 1.77321e-16
    outer loop
      vertex 9 11.4573 18.8838
      vertex 9 9.54274 18.8838
      vertex 9 7.84751 17.994
    endloop
  endfacet
  facet normal 1 0 1.77321e-16
    outer loop
      vertex 9 6.52916 14.5179
      vertex 9 11.4573 18.8838
      vertex 9 6.75993 16.4184
    endloop
  endfacet
  facet normal 1 0 1.77321e-16
    outer loop
      vertex 9 6.75993 16.4184
      vertex 9 11.4573 18.8838
      vertex 9 7.84751 17.994
    endloop
  endfacet
  facet normal 1 0 1.77321e-16
    outer loop
      vertex 9 9.07106 15.825
      vertex 9 11.4573 18.8838
      vertex 9 6.52916 14.5179
    endloop
  endfacet
  facet normal 1 0 1.77321e-16
    outer loop
      vertex 9 10.5 13.35
      vertex 9 9.07106 14.175
      vertex 9 8.64111 11.4582
    endloop
  endfacet
  facet normal 1 0 1.77321e-16
    outer loop
      vertex 9 13.2679 17.8268
      vertex 9 11.4573 18.8838
      vertex 9 13.2679 12.2635
    endloop
  endfacet
  facet normal 1 0 1.77321e-16
    outer loop
      vertex 9 13.1525 17.994
      vertex 9 11.4573 18.8838
      vertex 9 13.2679 17.8268
    endloop
  endfacet
  facet normal 1 0 1.77321e-16
    outer loop
      vertex 9 7.20806 12.7277
      vertex 9 9.07106 15.825
      vertex 9 6.52916 14.5179
    endloop
  endfacet
  facet normal 1 0 1.77321e-16
    outer loop
      vertex 9 11.9289 15.825
      vertex 9 11.9289 14.175
      vertex 9 12.3589 11.4582
    endloop
  endfacet
  facet normal 1 0 1.77321e-16
    outer loop
      vertex 9 13.2679 12.2635
      vertex 9 11.9289 15.825
      vertex 9 12.3589 11.4582
    endloop
  endfacet
  facet normal 1 0 1.77321e-16
    outer loop
      vertex 9 13.2679 12.2635
      vertex 9 11.4573 18.8838
      vertex 9 11.9289 15.825
    endloop
  endfacet
  facet normal 1 0 1.77321e-16
    outer loop
      vertex 9 12.3589 11.4582
      vertex 9 11.9289 14.175
      vertex 9 10.5 11
    endloop
  endfacet
  facet normal 1 0 1.77321e-16
    outer loop
      vertex 9 11.9289 14.175
      vertex 9 10.5 13.35
      vertex 9 10.5 11
    endloop
  endfacet
  facet normal 1 0 1.77321e-16
    outer loop
      vertex 9 10.5 11
      vertex 9 10.5 13.35
      vertex 9 8.64111 11.4582
    endloop
  endfacet
  facet normal 1 0 1.77321e-16
    outer loop
      vertex 9 8.64111 11.4582
      vertex 9 9.07106 14.175
      vertex 9 7.20806 12.7277
    endloop
  endfacet
  facet normal 1 0 1.77321e-16
    outer loop
      vertex 9 9.07106 15.825
      vertex 9 10.5 16.65
      vertex 9 11.4573 18.8838
    endloop
  endfacet
  facet normal 1 0 1.77321e-16
    outer loop
      vertex 9 9.07106 14.175
      vertex 9 9.07106 15.825
      vertex 9 7.20806 12.7277
    endloop
  endfacet
  facet normal 1 0 1.77321e-16
    outer loop
      vertex 9 10.5 16.65
      vertex 9 11.9289 15.825
      vertex 9 11.4573 18.8838
    endloop
  endfacet
  facet normal -1.0073e-16 0.822984 0.568065
    outer loop
      vertex 5 13.1525 17.994
      vertex 9 13.1525 17.994
      vertex 5 14.2401 16.4184
    endloop
  endfacet
  facet normal -1.0073e-16 0.822984 0.568065
    outer loop
      vertex 5 14.2401 16.4184
      vertex 9 13.1525 17.994
      vertex 9 13.2679 17.8268
    endloop
  endfacet
  facet normal -1.0073e-16 0.822984 0.568065
    outer loop
      vertex 5 14.2401 16.4184
      vertex 9 13.2679 17.8268
      vertex 8.73952 14.2401 16.4184
    endloop
  endfacet
  facet normal 0 0 1
    outer loop
      vertex -8.1875 2.07716 2.5
      vertex -4.8125 2.07716 2.5
      vertex -3.125 5 2.5
    endloop
  endfacet
  facet normal 0 0 1
    outer loop
      vertex -5.675 3.57106 2.5
      vertex -8.1875 2.07716 2.5
      vertex -3.125 5 2.5
    endloop
  endfacet
  facet normal 0 0 1
    outer loop
      vertex -9.875 5 2.5
      vertex -8.1875 2.07716 2.5
      vertex -8.1875 7.92284 2.5
    endloop
  endfacet
  facet normal 0 0 1
    outer loop
      vertex -8.1875 7.92284 2.5
      vertex -8.1875 2.07716 2.5
      vertex -8.15 5 2.5
    endloop
  endfacet
  facet normal 0 0 1
    outer loop
      vertex -8.1875 7.92284 2.5
      vertex -7.325 6.42894 2.5
      vertex -4.8125 7.92284 2.5
    endloop
  endfacet
  facet normal 0 0 1
    outer loop
      vertex -8.1875 7.92284 2.5
      vertex -8.15 5 2.5
      vertex -7.325 6.42894 2.5
    endloop
  endfacet
  facet normal 0 0 1
    outer loop
      vertex -4.8125 7.92284 2.5
      vertex -5.675 6.42894 2.5
      vertex -3.125 5 2.5
    endloop
  endfacet
  facet normal 0 0 1
    outer loop
      vertex -5.675 6.42894 2.5
      vertex -4.85 5 2.5
      vertex -3.125 5 2.5
    endloop
  endfacet
  facet normal 0 0 1
    outer loop
      vertex -4.85 5 2.5
      vertex -5.675 3.57106 2.5
      vertex -3.125 5 2.5
    endloop
  endfacet
  facet normal 0 0 1
    outer loop
      vertex -5.675 3.57106 2.5
      vertex -7.325 3.57106 2.5
      vertex -8.1875 2.07716 2.5
    endloop
  endfacet
  facet normal 0 0 1
    outer loop
      vertex -8.15 5 2.5
      vertex -8.1875 2.07716 2.5
      vertex -7.325 3.57106 2.5
    endloop
  endfacet
  facet normal 0 0 1
    outer loop
      vertex -7.325 6.42894 2.5
      vertex -5.675 6.42894 2.5
      vertex -4.8125 7.92284 2.5
    endloop
  endfacet
  facet normal 0 0 1
    outer loop
      vertex 4.8125 2.07716 2.5
      vertex 8.1875 2.07716 2.5
      vertex 9.875 5 2.5
    endloop
  endfacet
  facet normal 0 0 1
    outer loop
      vertex 7.325 3.57106 2.5
      vertex 4.8125 2.07716 2.5
      vertex 9.875 5 2.5
    endloop
  endfacet
  facet normal 0 0 1
    outer loop
      vertex 3.125 5 2.5
      vertex 4.8125 2.07716 2.5
      vertex 4.8125 7.92284 2.5
    endloop
  endfacet
  facet normal 0 0 1
    outer loop
      vertex 4.8125 7.92284 2.5
      vertex 4.8125 2.07716 2.5
      vertex 4.85 5 2.5
    endloop
  endfacet
  facet normal 0 0 1
    outer loop
      vertex 4.8125 7.92284 2.5
      vertex 5.675 6.42894 2.5
      vertex 8.1875 7.92284 2.5
    endloop
  endfacet
  facet normal 0 0 1
    outer loop
      vertex 4.8125 7.92284 2.5
      vertex 4.85 5 2.5
      vertex 5.675 6.42894 2.5
    endloop
  endfacet
  facet normal 0 0 1
    outer loop
      vertex 8.1875 7.92284 2.5
      vertex 7.325 6.42894 2.5
      vertex 9.875 5 2.5
    endloop
  endfacet
  facet normal 0 0 1
    outer loop
      vertex 7.325 6.42894 2.5
      vertex 8.15 5 2.5
      vertex 9.875 5 2.5
    endloop
  endfacet
  facet normal 0 0 1
    outer loop
      vertex 8.15 5 2.5
      vertex 7.325 3.57106 2.5
      vertex 9.875 5 2.5
    endloop
  endfacet
  facet normal 0 0 1
    outer loop
      vertex 7.325 3.57106 2.5
      vertex 5.675 3.57106 2.5
      vertex 4.8125 2.07716 2.5
    endloop
  endfacet
  facet normal 0 0 1
    outer loop
      vertex 4.85 5 2.5
      vertex 4.8125 2.07716 2.5
      vertex 5.675 3.57106 2.5
    endloop
  endfacet
  facet normal 0 0 1
    outer loop
      vertex 5.675 6.42894 2.5
      vertex 7.325 6.42894 2.5
      vertex 8.1875 7.92284 2.5
    endloop
  endfacet
  facet normal 1 0 1.77321e-16
    outer loop
      vertex -5 7.84751 17.994
      vertex -5 6.75993 16.4184
      vertex -5 6.52916 14.5179
    endloop
  endfacet
  facet normal 1 0 1.77321e-16
    outer loop
      vertex -5 7.20806 12.7277
      vertex -5 7.84751 17.994
      vertex -5 6.52916 14.5179
    endloop
  endfacet
  facet normal 1 0 1.77321e-16
    outer loop
      vertex -5 8.64111 11.4582
      vertex -5 7.84751 17.994
      vertex -5 7.20806 12.7277
    endloop
  endfacet
  facet normal 1 0 1.77321e-16
    outer loop
      vertex -5 9.07106 14.175
      vertex -5 7.84751 17.994
      vertex -5 8.64111 11.4582
    endloop
  endfacet
  facet normal 1 0 1.77321e-16
    outer loop
      vertex -5 11.9289 14.175
      vertex -5 10.5 13.35
      vertex -5 12.3589 11.4582
    endloop
  endfacet
  facet normal 1 0 1.77321e-16
    outer loop
      vertex -5 13.1525 17.994
      vertex -5 7.84751 17.994
      vertex -5 14.2401 16.4184
    endloop
  endfacet
  facet normal 1 0 1.77321e-16
    outer loop
      vertex -5 11.4573 18.8838
      vertex -5 7.84751 17.994
      vertex -5 13.1525 17.994
    endloop
  endfacet
  facet normal 1 0 1.77321e-16
    outer loop
      vertex -5 9.54274 18.8838
      vertex -5 7.84751 17.994
      vertex -5 11.4573 18.8838
    endloop
  endfacet
  facet normal 1 0 1.77321e-16
    outer loop
      vertex -5 14.2401 16.4184
      vertex -5 10.5 16.65
      vertex -5 14.4708 14.5179
    endloop
  endfacet
  facet normal 1 0 1.77321e-16
    outer loop
      vertex -5 14.2401 16.4184
      vertex -5 7.84751 17.994
      vertex -5 10.5 16.65
    endloop
  endfacet
  facet normal 1 0 1.77321e-16
    outer loop
      vertex -5 14.4708 14.5179
      vertex -5 11.9289 15.825
      vertex -5 13.7919 12.7277
    endloop
  endfacet
  facet normal 1 0 1.77321e-16
    outer loop
      vertex -5 11.9289 15.825
      vertex -5 11.9289 14.175
      vertex -5 13.7919 12.7277
    endloop
  endfacet
  facet normal 1 0 1.77321e-16
    outer loop
      vertex -5 13.7919 12.7277
      vertex -5 11.9289 14.175
      vertex -5 12.3589 11.4582
    endloop
  endfacet
  facet normal 1 0 1.77321e-16
    outer loop
      vertex -5 10.5 13.35
      vertex -5 9.07106 14.175
      vertex -5 10.5 11
    endloop
  endfacet
  facet normal 1 0 1.77321e-16
    outer loop
      vertex -5 12.3589 11.4582
      vertex -5 10.5 13.35
      vertex -5 10.5 11
    endloop
  endfacet
  facet normal 1 0 1.77321e-16
    outer loop
      vertex -5 10.5 11
      vertex -5 9.07106 14.175
      vertex -5 8.64111 11.4582
    endloop
  endfacet
  facet normal 1 0 1.77321e-16
    outer loop
      vertex -5 10.5 16.65
      vertex -5 11.9289 15.825
      vertex -5 14.4708 14.5179
    endloop
  endfacet
  facet normal 1 0 1.77321e-16
    outer loop
      vertex -5 9.07106 14.175
      vertex -5 9.07106 15.825
      vertex -5 7.84751 17.994
    endloop
  endfacet
  facet normal 1 0 1.77321e-16
    outer loop
      vertex -5 9.07106 15.825
      vertex -5 10.5 16.65
      vertex -5 7.84751 17.994
    endloop
  endfacet
  facet normal -1.5701e-16 0.464723 0.885456
    outer loop
      vertex -9 13.1525 17.994
      vertex -9 11.4573 18.8838
      vertex -5 11.4573 18.8838
    endloop
  endfacet
  facet normal -1.5701e-16 0.464723 0.885456
    outer loop
      vertex -5 13.1525 17.994
      vertex -9 13.1525 17.994
      vertex -5 11.4573 18.8838
    endloop
  endfacet
  facet normal -1.77321e-16 0 1
    outer loop
      vertex -9 11.4573 18.8838
      vertex -9 9.54274 18.8838
      vertex -5 9.54274 18.8838
    endloop
  endfacet
  facet normal -1.77321e-16 0 1
    outer loop
      vertex -5 11.4573 18.8838
      vertex -9 11.4573 18.8838
      vertex -5 9.54274 18.8838
    endloop
  endfacet
  facet normal 1.53565e-16 0.5 -0.866025
    outer loop
      vertex -5 9.07106 15.825
      vertex -9 9.07106 15.825
      vertex -5 10.5 16.65
    endloop
  endfacet
  facet normal 1.53565e-16 0.5 -0.866025
    outer loop
      vertex -5 10.5 16.65
      vertex -9 9.07106 15.825
      vertex -9 9.4613 16.0503
    endloop
  endfacet
  facet normal 1.53565e-16 0.5 -0.866025
    outer loop
      vertex -5 10.5 16.65
      vertex -9 9.4613 16.0503
      vertex -9 10.5 16.65
    endloop
  endfacet
  facet normal 1.53565e-16 -0.5 -0.866025
    outer loop
      vertex -5 11.9289 15.825
      vertex -5 10.5 16.65
      vertex -9 11.9289 15.825
    endloop
  endfacet
  facet normal 1.53565e-16 -0.5 -0.866025
    outer loop
      vertex -9 11.9289 15.825
      vertex -5 10.5 16.65
      vertex -9 10.5 16.65
    endloop
  endfacet
  facet normal 0 -1 0
    outer loop
      vertex -9 11.9289 14.175
      vertex -5 11.9289 14.175
      vertex -5 11.9289 15.825
    endloop
  endfacet
  facet normal 0 -1 0
    outer loop
      vertex -9 11.9289 15.825
      vertex -9 11.9289 14.175
      vertex -5 11.9289 15.825
    endloop
  endfacet
  facet normal -1.53565e-16 -0.5 0.866025
    outer loop
      vertex -9 10.5 13.35
      vertex -5 10.5 13.35
      vertex -5 11.9289 14.175
    endloop
  endfacet
  facet normal -1.53565e-16 -0.5 0.866025
    outer loop
      vertex -9 11.9289 14.175
      vertex -9 10.5 13.35
      vertex -5 11.9289 14.175
    endloop
  endfacet
  facet normal -1.53565e-16 0.5 0.866025
    outer loop
      vertex -9 9.07106 14.175
      vertex -5 9.07106 14.175
      vertex -5 10.5 13.35
    endloop
  endfacet
  facet normal -1.53565e-16 0.5 0.866025
    outer loop
      vertex -9 9.40191 13.984
      vertex -9 9.07106 14.175
      vertex -9 10.5 13.35
    endloop
  endfacet
  facet normal -1.53565e-16 0.5 0.866025
    outer loop
      vertex -9 10.5 13.35
      vertex -9 9.07106 14.175
      vertex -5 10.5 13.35
    endloop
  endfacet
  facet normal -1.5701e-16 -0.464723 0.885456
    outer loop
      vertex -5 9.54274 18.8838
      vertex -9 9.54274 18.8838
      vertex -9 7.84751 17.994
    endloop
  endfacet
  facet normal -1.5701e-16 -0.464723 0.885456
    outer loop
      vertex -5 7.84751 17.994
      vertex -5 9.54274 18.8838
      vertex -9 7.84751 17.994
    endloop
  endfacet
  facet normal -1.0073e-16 -0.822984 0.568065
    outer loop
      vertex -5 7.84751 17.994
      vertex -9 7.84751 17.994
      vertex -9 6.75993 16.4184
    endloop
  endfacet
  facet normal -1.0073e-16 -0.822984 0.568065
    outer loop
      vertex -5 6.75993 16.4184
      vertex -5 7.84751 17.994
      vertex -9 6.75993 16.4184
    endloop
  endfacet
  facet normal 0 1 0
    outer loop
      vertex -5 9.07106 14.175
      vertex -9 9.07106 14.175
      vertex -5 9.07106 15.825
    endloop
  endfacet
  facet normal 0 1 0
    outer loop
      vertex -5 9.07106 15.825
      vertex -9 9.07106 14.175
      vertex -9 9.07106 15.825
    endloop
  endfacet
  facet normal -2.13737e-17 -0.992709 0.120536
    outer loop
      vertex -5 6.75993 16.4184
      vertex -9 6.75993 16.4184
      vertex -9 6.52916 14.5179
    endloop
  endfacet
  facet normal -2.13737e-17 -0.992709 0.120536
    outer loop
      vertex -5 6.52916 14.5179
      vertex -5 6.75993 16.4184
      vertex -9 6.52916 14.5179
    endloop
  endfacet
  facet normal 2.9751e-17 -0.985824 -0.16778
    outer loop
      vertex -5 6.52916 14.5179
      vertex -9 6.52916 14.5179
      vertex -6.7909 7.89375 6.5
    endloop
  endfacet
  facet normal 2.9751e-17 -0.985824 -0.16778
    outer loop
      vertex -5 7.89375 6.5
      vertex -5 6.52916 14.5179
      vertex -6.7909 7.89375 6.5
    endloop
  endfacet
  facet normal 0 0 -1
    outer loop
      vertex -5 7.92284 6.5
      vertex -5 7.89375 6.5
      vertex -8.1875 7.92284 6.5
    endloop
  endfacet
  facet normal 0 0 -1
    outer loop
      vertex -8.1875 7.92284 6.5
      vertex -5 7.89375 6.5
      vertex -6.7909 7.89375 6.5
    endloop
  endfacet
  facet normal 0 0 -1
    outer loop
      vertex -8.1875 7.92284 6.5
      vertex -6.7909 7.89375 6.5
      vertex -8.20429 7.89375 6.5
    endloop
  endfacet
  facet normal 0.866025 -0.5 0
    outer loop
      vertex -8.1875 7.92284 6.32908
      vertex -8.1875 7.92284 6.5
      vertex -8.20429 7.89375 6.5
    endloop
  endfacet
  facet normal 0 -1 0
    outer loop
      vertex -6.74381 7.92284 6.32908
      vertex -5 7.92284 6.32908
      vertex -5 7.92284 6.5
    endloop
  endfacet
  facet normal 0 -1 0
    outer loop
      vertex -8.1875 7.92284 6.32908
      vertex -6.74381 7.92284 6.32908
      vertex -8.1875 7.92284 6.5
    endloop
  endfacet
  facet normal 0 -1 0
    outer loop
      vertex -8.1875 7.92284 6.5
      vertex -6.74381 7.92284 6.32908
      vertex -5 7.92284 6.5
    endloop
  endfacet
  facet normal -1.68643e-16 -0.309017 0.951056
    outer loop
      vertex -5 12.787 4.24038
      vertex 5 12.787 4.24038
      vertex 5 14.9741 4.951
    endloop
  endfacet
  facet normal -1.68643e-16 -0.309017 0.951056
    outer loop
      vertex -5 14.9741 4.951
      vertex -5 12.787 4.24038
      vertex 5 14.9741 4.951
    endloop
  endfacet
  facet normal -1.68643e-16 0.309017 0.951056
    outer loop
      vertex -4.8125 7.92284 4.33465
      vertex -3.7173 6.0259 4.951
      vertex 3.7173 6.0259 4.951
    endloop
  endfacet
  facet normal -1.68643e-16 0.309017 0.951056
    outer loop
      vertex 5 8.21297 4.24038
      vertex -4.8125 7.92284 4.33465
      vertex 4.8125 7.92284 4.33465
    endloop
  endfacet
  facet normal -1.68643e-16 0.309017 0.951056
    outer loop
      vertex 4.8125 7.92284 4.33465
      vertex -4.8125 7.92284 4.33465
      vertex 3.7173 6.0259 4.951
    endloop
  endfacet
  facet normal -1.68643e-16 0.309017 0.951056
    outer loop
      vertex 5 8.21297 4.24038
      vertex 4.8125 7.92284 4.33465
      vertex 5 7.92284 4.33465
    endloop
  endfacet
  facet normal -1.68643e-16 0.309017 0.951056
    outer loop
      vertex -5 8.21297 4.24038
      vertex -4.8125 7.92284 4.33465
      vertex 5 8.21297 4.24038
    endloop
  endfacet
  facet normal -1.68643e-16 0.309017 0.951056
    outer loop
      vertex -5 7.92284 4.33465
      vertex -4.8125 7.92284 4.33465
      vertex -5 8.21297 4.24038
    endloop
  endfacet
  facet normal -1.7635e-16 -0.104528 0.994522
    outer loop
      vertex -5 10.5 4
      vertex 5 10.5 4
      vertex 5 12.787 4.24038
    endloop
  endfacet
  facet normal -1.7635e-16 -0.104528 0.994522
    outer loop
      vertex -5 12.787 4.24038
      vertex -5 10.5 4
      vertex 5 12.787 4.24038
    endloop
  endfacet
  facet normal -1.7635e-16 0.104528 0.994522
    outer loop
      vertex 5 8.21297 4.24038
      vertex 5 10.5 4
      vertex -5 10.5 4
    endloop
  endfacet
  facet normal -1.7635e-16 0.104528 0.994522
    outer loop
      vertex -5 8.21297 4.24038
      vertex 5 8.21297 4.24038
      vertex -5 10.5 4
    endloop
  endfacet
  facet normal -1.77321e-16 0 1
    outer loop
      vertex 5 11.4573 18.8838
      vertex 5 9.54274 18.8838
      vertex 9 9.54274 18.8838
    endloop
  endfacet
  facet normal -1.77321e-16 0 1
    outer loop
      vertex 9 11.4573 18.8838
      vertex 5 11.4573 18.8838
      vertex 9 9.54274 18.8838
    endloop
  endfacet
  facet normal -1.5701e-16 0.464723 0.885456
    outer loop
      vertex 5 13.1525 17.994
      vertex 5 11.4573 18.8838
      vertex 9 11.4573 18.8838
    endloop
  endfacet
  facet normal -1.5701e-16 0.464723 0.885456
    outer loop
      vertex 9 13.1525 17.994
      vertex 5 13.1525 17.994
      vertex 9 11.4573 18.8838
    endloop
  endfacet
  facet normal -1.5701e-16 -0.464723 0.885456
    outer loop
      vertex 9 9.54274 18.8838
      vertex 5 9.54274 18.8838
      vertex 5 7.84751 17.994
    endloop
  endfacet
  facet normal -1.5701e-16 -0.464723 0.885456
    outer loop
      vertex 9 7.84751 17.994
      vertex 9 9.54274 18.8838
      vertex 5 7.84751 17.994
    endloop
  endfacet
  facet normal -1.0073e-16 -0.822984 0.568065
    outer loop
      vertex 9 7.84751 17.994
      vertex 5 7.84751 17.994
      vertex 5 6.75993 16.4184
    endloop
  endfacet
  facet normal -1.0073e-16 -0.822984 0.568065
    outer loop
      vertex 9 6.75993 16.4184
      vertex 9 7.84751 17.994
      vertex 5 6.75993 16.4184
    endloop
  endfacet
  facet normal -2.13737e-17 -0.992709 0.120536
    outer loop
      vertex 9 6.75993 16.4184
      vertex 5 6.75993 16.4184
      vertex 5 6.52916 14.5179
    endloop
  endfacet
  facet normal -2.13737e-17 -0.992709 0.120536
    outer loop
      vertex 9 6.52916 14.5179
      vertex 9 6.75993 16.4184
      vertex 5 6.52916 14.5179
    endloop
  endfacet
  facet normal 0 -0.985824 -0.16778
    outer loop
      vertex 7.2091 7.89375 6.5
      vertex 5 6.52916 14.5179
      vertex 5 7.89375 6.5
    endloop
  endfacet
  facet normal 0 0 -1
    outer loop
      vertex 8.1875 7.92284 6.5
      vertex 8.20429 7.89375 6.5
      vertex 5 7.92284 6.5
    endloop
  endfacet
  facet normal 0 0 -1
    outer loop
      vertex 5 7.92284 6.5
      vertex 8.20429 7.89375 6.5
      vertex 7.2091 7.89375 6.5
    endloop
  endfacet
  facet normal 0 0 -1
    outer loop
      vertex 5 7.92284 6.5
      vertex 7.2091 7.89375 6.5
      vertex 5 7.89375 6.5
    endloop
  endfacet
  facet normal 0 -1 0
    outer loop
      vertex 5 7.92284 6.32908
      vertex 7.25619 7.92284 6.32908
      vertex 8.1875 7.92284 6.32908
    endloop
  endfacet
  facet normal 0 -1 0
    outer loop
      vertex 5 7.92284 6.5
      vertex 5 7.92284 6.32908
      vertex 8.1875 7.92284 6.5
    endloop
  endfacet
  facet normal 0 -1 0
    outer loop
      vertex 8.1875 7.92284 6.5
      vertex 5 7.92284 6.32908
      vertex 8.1875 7.92284 6.32908
    endloop
  endfacet
  facet normal 1.53565e-16 0.5 -0.866025
    outer loop
      vertex 9 9.07106 15.825
      vertex 5 9.07106 15.825
      vertex 9 10.5 16.65
    endloop
  endfacet
  facet normal 1.53565e-16 0.5 -0.866025
    outer loop
      vertex 9 10.5 16.65
      vertex 5 9.07106 15.825
      vertex 5 10.5 16.65
    endloop
  endfacet
  facet normal 0 1 0
    outer loop
      vertex 9 9.07106 14.175
      vertex 5 9.07106 14.175
      vertex 9 9.07106 15.825
    endloop
  endfacet
  facet normal 0 1 0
    outer loop
      vertex 9 9.07106 15.825
      vertex 5 9.07106 14.175
      vertex 5 9.07106 15.825
    endloop
  endfacet
  facet normal 1.53565e-16 -0.5 -0.866025
    outer loop
      vertex 9 11.9289 15.825
      vertex 9 10.5 16.65
      vertex 5 11.9289 15.825
    endloop
  endfacet
  facet normal 1.53565e-16 -0.5 -0.866025
    outer loop
      vertex 5 11.9289 15.825
      vertex 9 10.5 16.65
      vertex 5 10.5 16.65
    endloop
  endfacet
  facet normal 0 -1 0
    outer loop
      vertex 5 11.9289 14.175
      vertex 9 11.9289 14.175
      vertex 9 11.9289 15.825
    endloop
  endfacet
  facet normal 0 -1 0
    outer loop
      vertex 5 11.9289 15.825
      vertex 5 11.9289 14.175
      vertex 9 11.9289 15.825
    endloop
  endfacet
  facet normal -1.53565e-16 -0.5 0.866025
    outer loop
      vertex 5 10.5 13.35
      vertex 9 10.5 13.35
      vertex 9 11.9289 14.175
    endloop
  endfacet
  facet normal -1.53565e-16 -0.5 0.866025
    outer loop
      vertex 5 11.9289 14.175
      vertex 5 10.5 13.35
      vertex 9 11.9289 14.175
    endloop
  endfacet
  facet normal -1.53565e-16 0.5 0.866025
    outer loop
      vertex 9 9.07106 14.175
      vertex 9 10.5 13.35
      vertex 5 10.5 13.35
    endloop
  endfacet
  facet normal -1.53565e-16 0.5 0.866025
    outer loop
      vertex 5 9.07106 14.175
      vertex 9 9.07106 14.175
      vertex 5 10.5 13.35
    endloop
  endfacet
  facet normal -0.866025 -0.5 0
    outer loop
      vertex 8.20429 7.89375 6.5
      vertex 8.1875 7.92284 6.5
      vertex 8.1875 7.92284 6.32908
    endloop
  endfacet
endsolid OpenSCAD_Model
