solid OpenSCAD_Model
  facet normal 0 -1 0
    outer loop
      vertex 25.675 0 1.57106
      vertex 0 0 0
      vertex 35 0 0
    endloop
  endfacet
  facet normal 0 -1 0
    outer loop
      vertex 25.675 0 1.57106
      vertex 24.85 0 3
      vertex 0 0 6
    endloop
  endfacet
  facet normal 0 -1 0
    outer loop
      vertex 0 0 6
      vertex 0 0 0
      vertex 25.675 0 1.57106
    endloop
  endfacet
  facet normal 0 -1 0
    outer loop
      vertex 25.675 0 4.42894
      vertex 0 0 6
      vertex 24.85 0 3
    endloop
  endfacet
  facet normal 0 -1 0
    outer loop
      vertex 35 0 6
      vertex 0 0 6
      vertex 25.675 0 4.42894
    endloop
  endfacet
  facet normal 0 -1 0
    outer loop
      vertex 28.15 0 3
      vertex 27.325 0 1.57106
      vertex 35 0 0
    endloop
  endfacet
  facet normal 0 -1 0
    outer loop
      vertex 35 0 6
      vertex 25.675 0 4.42894
      vertex 27.325 0 4.42894
    endloop
  endfacet
  facet normal 0 -1 0
    outer loop
      vertex 35 0 6
      vertex 28.15 0 3
      vertex 35 0 0
    endloop
  endfacet
  facet normal 0 -1 0
    outer loop
      vertex 27.325 0 4.42894
      vertex 28.15 0 3
      vertex 35 0 6
    endloop
  endfacet
  facet normal 0 -1 0
    outer loop
      vertex 27.325 0 1.57106
      vertex 25.675 0 1.57106
      vertex 35 0 0
    endloop
  endfacet
  facet normal 0 0 -1
    outer loop
      vertex 0 0 0
      vertex 0 10 0
      vertex 35 0 0
    endloop
  endfacet
  facet normal 0 0 -1
    outer loop
      vertex 35 0 0
      vertex 0 10 0
      vertex 0.286475 14.3817 0
    endloop
  endfacet
  facet normal 0 0 -1
    outer loop
      vertex 35 0 0
      vertex 0.286475 14.3817 0
      vertex 1.96352 14.9266 0
    endloop
  endfacet
  facet normal 0 0 -1
    outer loop
      vertex 28.0179 15.9545 0
      vertex 1.96352 14.9266 0
      vertex 30 20 0
    endloop
  endfacet
  facet normal 0 0 -1
    outer loop
      vertex 32.2 15 0
      vertex 30 20 0
      vertex 31.9134 19.6194 0
    endloop
  endfacet
  facet normal 0 0 -1
    outer loop
      vertex 35 0 0
      vertex 31.9134 19.6194 0
      vertex 33.5355 18.5355 0
    endloop
  endfacet
  facet normal 0 0 -1
    outer loop
      vertex 35 0 0
      vertex 33.5355 18.5355 0
      vertex 34.6194 16.9134 0
    endloop
  endfacet
  facet normal 0 0 -1
    outer loop
      vertex 35 0 0
      vertex 34.6194 16.9134 0
      vertex 35 15 0
    endloop
  endfacet
  facet normal 0 0 -1
    outer loop
      vertex 28.0179 14.0455 0
      vertex 1.96352 14.9266 0
      vertex 28.0179 15.9545 0
    endloop
  endfacet
  facet normal 0 0 -1
    outer loop
      vertex 29.5105 17.1448 0
      vertex 28.0179 15.9545 0
      vertex 30 20 0
    endloop
  endfacet
  facet normal 0 0 -1
    outer loop
      vertex 35 0 0
      vertex 1.96352 14.9266 0
      vertex 28.0179 14.0455 0
    endloop
  endfacet
  facet normal 0 0 -1
    outer loop
      vertex 32.2 15 0
      vertex 35 0 0
      vertex 31.3717 13.28 0
    endloop
  endfacet
  facet normal 0 0 -1
    outer loop
      vertex 35 0 0
      vertex 29.5105 12.8552 0
      vertex 31.3717 13.28 0
    endloop
  endfacet
  facet normal 0 0 -1
    outer loop
      vertex 31.3717 16.72 0
      vertex 30 20 0
      vertex 32.2 15 0
    endloop
  endfacet
  facet normal 0 0 -1
    outer loop
      vertex 35 0 0
      vertex 32.2 15 0
      vertex 31.9134 19.6194 0
    endloop
  endfacet
  facet normal 0 0 -1
    outer loop
      vertex 29.5105 17.1448 0
      vertex 30 20 0
      vertex 31.3717 16.72 0
    endloop
  endfacet
  facet normal 0 0 -1
    outer loop
      vertex 29.5105 12.8552 0
      vertex 35 0 0
      vertex 28.0179 14.0455 0
    endloop
  endfacet
  facet normal -1 0 0
    outer loop
      vertex 0 0 0
      vertex 0 0 6
      vertex 0 10 0
    endloop
  endfacet
  facet normal -1 0 0
    outer loop
      vertex 0 10 0
      vertex 0 0 6
      vertex 0 10 6
    endloop
  endfacet
  facet normal 0 0 1
    outer loop
      vertex 0 10 6
      vertex 0 0 6
      vertex 35 0 6
    endloop
  endfacet
  facet normal 0 0 1
    outer loop
      vertex 23.125 6 6
      vertex 0 10 6
      vertex 35 0 6
    endloop
  endfacet
  facet normal 0 0 1
    outer loop
      vertex 31.9134 19.6194 6
      vertex 0 10 6
      vertex 33.5355 18.5355 6
    endloop
  endfacet
  facet normal 0 0 1
    outer loop
      vertex 30 20 6
      vertex 0 10 6
      vertex 31.9134 19.6194 6
    endloop
  endfacet
  facet normal 0 0 1
    outer loop
      vertex 1.96352 14.9266 6
      vertex 0 10 6
      vertex 30 20 6
    endloop
  endfacet
  facet normal 0 0 1
    outer loop
      vertex 0.286475 14.3817 6
      vertex 0 10 6
      vertex 1.96352 14.9266 6
    endloop
  endfacet
  facet normal 0 0 1
    outer loop
      vertex 29.875 6 6
      vertex 23.125 6 6
      vertex 35 0 6
    endloop
  endfacet
  facet normal 0 0 1
    outer loop
      vertex 23.125 10 6
      vertex 0 10 6
      vertex 23.125 6 6
    endloop
  endfacet
  facet normal 0 0 1
    outer loop
      vertex 31.3717 16.72 6
      vertex 32.2 15 6
      vertex 34.6194 16.9134 6
    endloop
  endfacet
  facet normal 0 0 1
    outer loop
      vertex 29.5105 12.8552 6
      vertex 0 10 6
      vertex 23.125 10 6
    endloop
  endfacet
  facet normal 0 0 1
    outer loop
      vertex 35 15 6
      vertex 29.875 10 6
      vertex 35 0 6
    endloop
  endfacet
  facet normal 0 0 1
    outer loop
      vertex 29.875 10 6
      vertex 29.875 6 6
      vertex 35 0 6
    endloop
  endfacet
  facet normal 0 0 1
    outer loop
      vertex 29.5105 17.1448 6
      vertex 31.3717 16.72 6
      vertex 33.5355 18.5355 6
    endloop
  endfacet
  facet normal 0 0 1
    outer loop
      vertex 29.5105 17.1448 6
      vertex 0 10 6
      vertex 28.0179 15.9545 6
    endloop
  endfacet
  facet normal 0 0 1
    outer loop
      vertex 33.5355 18.5355 6
      vertex 0 10 6
      vertex 29.5105 17.1448 6
    endloop
  endfacet
  facet normal 0 0 1
    outer loop
      vertex 33.5355 18.5355 6
      vertex 31.3717 16.72 6
      vertex 34.6194 16.9134 6
    endloop
  endfacet
  facet normal 0 0 1
    outer loop
      vertex 34.6194 16.9134 6
      vertex 32.2 15 6
      vertex 35 15 6
    endloop
  endfacet
  facet normal 0 0 1
    outer loop
      vertex 31.3717 13.28 6
      vertex 29.5105 12.8552 6
      vertex 23.125 10 6
    endloop
  endfacet
  facet normal 0 0 1
    outer loop
      vertex 29.5105 12.8552 6
      vertex 28.0179 14.0455 6
      vertex 0 10 6
    endloop
  endfacet
  facet normal 0 0 1
    outer loop
      vertex 28.0179 14.0455 6
      vertex 28.0179 15.9545 6
      vertex 0 10 6
    endloop
  endfacet
  facet normal 0 0 1
    outer loop
      vertex 31.3717 13.28 6
      vertex 29.875 10 6
      vertex 35 15 6
    endloop
  endfacet
  facet normal 0 0 1
    outer loop
      vertex 23.125 10 6
      vertex 29.875 10 6
      vertex 31.3717 13.28 6
    endloop
  endfacet
  facet normal 0 0 1
    outer loop
      vertex 32.2 15 6
      vertex 31.3717 13.28 6
      vertex 35 15 6
    endloop
  endfacet
  facet normal 1 0 0
    outer loop
      vertex 35 0 6
      vertex 35 0 0
      vertex 35 15 0
    endloop
  endfacet
  facet normal 1 0 0
    outer loop
      vertex 35 15 6
      vertex 35 0 6
      vertex 35 15 0
    endloop
  endfacet
  facet normal 0 -2.22045e-16 1
    outer loop
      vertex 27.325 0 1.57106
      vertex 27.325 6 1.57106
      vertex 25.675 6 1.57106
    endloop
  endfacet
  facet normal 0 -2.22045e-16 1
    outer loop
      vertex 25.675 0 1.57106
      vertex 27.325 0 1.57106
      vertex 25.675 6 1.57106
    endloop
  endfacet
  facet normal 0.866025 -1.11022e-16 0.5
    outer loop
      vertex 25.675 0 1.57106
      vertex 25.675 6 1.57106
      vertex 24.85 6 3
    endloop
  endfacet
  facet normal 0.866025 -1.11022e-16 0.5
    outer loop
      vertex 24.85 0 3
      vertex 25.675 0 1.57106
      vertex 24.85 6 3
    endloop
  endfacet
  facet normal -0.866025 -1.11022e-16 0.5
    outer loop
      vertex 28.15 6 3
      vertex 27.325 6 1.57106
      vertex 28.15 0 3
    endloop
  endfacet
  facet normal -0.866025 -1.11022e-16 0.5
    outer loop
      vertex 28.15 0 3
      vertex 27.325 6 1.57106
      vertex 27.325 0 1.57106
    endloop
  endfacet
  facet normal -0.866025 1.11022e-16 -0.5
    outer loop
      vertex 28.15 6 3
      vertex 28.15 0 3
      vertex 27.325 6 4.42894
    endloop
  endfacet
  facet normal -0.866025 1.11022e-16 -0.5
    outer loop
      vertex 27.325 6 4.42894
      vertex 28.15 0 3
      vertex 27.325 0 4.42894
    endloop
  endfacet
  facet normal 0 2.22045e-16 -1
    outer loop
      vertex 27.325 6 4.42894
      vertex 27.325 0 4.42894
      vertex 25.675 6 4.42894
    endloop
  endfacet
  facet normal 0 2.22045e-16 -1
    outer loop
      vertex 25.675 6 4.42894
      vertex 27.325 0 4.42894
      vertex 25.675 0 4.42894
    endloop
  endfacet
  facet normal 0.866025 1.11022e-16 -0.5
    outer loop
      vertex 24.85 6 3
      vertex 25.675 6 4.42894
      vertex 25.675 0 4.42894
    endloop
  endfacet
  facet normal 0.866025 1.11022e-16 -0.5
    outer loop
      vertex 24.85 0 3
      vertex 24.85 6 3
      vertex 25.675 0 4.42894
    endloop
  endfacet
  facet normal 0.980785 0.19509 0
    outer loop
      vertex 35 15 0
      vertex 34.6194 16.9134 0
      vertex 34.6194 16.9134 6
    endloop
  endfacet
  facet normal 0.980785 0.19509 0
    outer loop
      vertex 35 15 6
      vertex 35 15 0
      vertex 34.6194 16.9134 6
    endloop
  endfacet
  facet normal 0.83147 0.55557 0
    outer loop
      vertex 34.6194 16.9134 0
      vertex 33.5355 18.5355 0
      vertex 33.5355 18.5355 6
    endloop
  endfacet
  facet normal 0.83147 0.55557 0
    outer loop
      vertex 34.6194 16.9134 6
      vertex 34.6194 16.9134 0
      vertex 33.5355 18.5355 6
    endloop
  endfacet
  facet normal 0.55557 0.83147 0
    outer loop
      vertex 31.9134 19.6194 0
      vertex 31.9134 19.6194 6
      vertex 33.5355 18.5355 0
    endloop
  endfacet
  facet normal 0.55557 0.83147 0
    outer loop
      vertex 33.5355 18.5355 0
      vertex 31.9134 19.6194 6
      vertex 33.5355 18.5355 6
    endloop
  endfacet
  facet normal 0.19509 0.980785 0
    outer loop
      vertex 30 20 0
      vertex 30 20 6
      vertex 31.9134 19.6194 0
    endloop
  endfacet
  facet normal 0.19509 0.980785 0
    outer loop
      vertex 31.9134 19.6194 0
      vertex 30 20 6
      vertex 31.9134 19.6194 6
    endloop
  endfacet
  facet normal -0.178066 0.984019 0
    outer loop
      vertex 1.96352 14.9266 0
      vertex 1.96352 14.9266 6
      vertex 30 20 0
    endloop
  endfacet
  facet normal -0.178066 0.984019 0
    outer loop
      vertex 30 20 0
      vertex 1.96352 14.9266 6
      vertex 30 20 6
    endloop
  endfacet
  facet normal -0.309017 0.951056 0
    outer loop
      vertex 0.286475 14.3817 0
      vertex 0.286475 14.3817 6
      vertex 1.96352 14.9266 0
    endloop
  endfacet
  facet normal -0.309017 0.951056 0
    outer loop
      vertex 1.96352 14.9266 0
      vertex 0.286475 14.3817 6
      vertex 1.96352 14.9266 6
    endloop
  endfacet
  facet normal -0.99787 0.0652409 0
    outer loop
      vertex 0 10 0
      vertex 0 10 6
      vertex 0.286475 14.3817 0
    endloop
  endfacet
  facet normal -0.99787 0.0652409 0
    outer loop
      vertex 0.286475 14.3817 0
      vertex 0 10 6
      vertex 0.286475 14.3817 6
    endloop
  endfacet
  facet normal 0.62349 -0.781832 0
    outer loop
      vertex 29.5105 17.1448 0
      vertex 29.5105 17.1448 6
      vertex 28.0179 15.9545 6
    endloop
  endfacet
  facet normal 0.62349 -0.781832 0
    outer loop
      vertex 28.0179 15.9545 0
      vertex 29.5105 17.1448 0
      vertex 28.0179 15.9545 6
    endloop
  endfacet
  facet normal 1 0 0
    outer loop
      vertex 28.0179 15.9545 0
      vertex 28.0179 15.9545 6
      vertex 28.0179 14.0455 6
    endloop
  endfacet
  facet normal 1 0 0
    outer loop
      vertex 28.0179 14.0455 0
      vertex 28.0179 15.9545 0
      vertex 28.0179 14.0455 6
    endloop
  endfacet
  facet normal -0.222521 -0.974928 0
    outer loop
      vertex 31.3717 16.72 0
      vertex 31.3717 16.72 6
      vertex 29.5105 17.1448 6
    endloop
  endfacet
  facet normal -0.222521 -0.974928 0
    outer loop
      vertex 29.5105 17.1448 0
      vertex 31.3717 16.72 0
      vertex 29.5105 17.1448 6
    endloop
  endfacet
  facet normal -0.900969 -0.433884 0
    outer loop
      vertex 32.2 15 6
      vertex 31.3717 16.72 6
      vertex 32.2 15 0
    endloop
  endfacet
  facet normal -0.900969 -0.433884 0
    outer loop
      vertex 32.2 15 0
      vertex 31.3717 16.72 6
      vertex 31.3717 16.72 0
    endloop
  endfacet
  facet normal -0.900969 0.433884 0
    outer loop
      vertex 32.2 15 6
      vertex 32.2 15 0
      vertex 31.3717 13.28 6
    endloop
  endfacet
  facet normal -0.900969 0.433884 0
    outer loop
      vertex 31.3717 13.28 6
      vertex 32.2 15 0
      vertex 31.3717 13.28 0
    endloop
  endfacet
  facet normal -0.222521 0.974928 0
    outer loop
      vertex 31.3717 13.28 6
      vertex 31.3717 13.28 0
      vertex 29.5105 12.8552 6
    endloop
  endfacet
  facet normal -0.222521 0.974928 0
    outer loop
      vertex 29.5105 12.8552 6
      vertex 31.3717 13.28 0
      vertex 29.5105 12.8552 0
    endloop
  endfacet
  facet normal 0.62349 0.781832 0
    outer loop
      vertex 29.5105 12.8552 6
      vertex 29.5105 12.8552 0
      vertex 28.0179 14.0455 6
    endloop
  endfacet
  facet normal 0.62349 0.781832 0
    outer loop
      vertex 28.0749 14 2.86987
      vertex 29.5105 12.8552 0
      vertex 28.0179 14.0455 0
    endloop
  endfacet
  facet normal 0.62349 0.781832 0
    outer loop
      vertex 28.15 13.9401 3
      vertex 29.5105 12.8552 0
      vertex 28.0749 14 2.86987
    endloop
  endfacet
  facet normal 0.62349 0.781832 0
    outer loop
      vertex 28.0179 14.0455 6
      vertex 28.0749 14 2.86987
      vertex 28.0179 14.0455 0
    endloop
  endfacet
  facet normal 0.62349 0.781832 0
    outer loop
      vertex 28.0179 14.0455 6
      vertex 29.5105 12.8552 0
      vertex 28.15 13.9401 3
    endloop
  endfacet
  facet normal 0.62349 0.781832 0
    outer loop
      vertex 28.0179 14.0455 6
      vertex 28.15 13.9401 3
      vertex 28.0749 14 3.13013
    endloop
  endfacet
  facet normal 0.62349 0.781832 0
    outer loop
      vertex 28.0179 14.0455 6
      vertex 28.0749 14 3.13013
      vertex 28.0749 14 2.86987
    endloop
  endfacet
  facet normal 1 0 0
    outer loop
      vertex 23.125 10 3
      vertex 23.125 10 6
      vertex 23.125 6 6
    endloop
  endfacet
  facet normal 1 0 0
    outer loop
      vertex 23.125 6 3
      vertex 23.125 10 3
      vertex 23.125 6 6
    endloop
  endfacet
  facet normal 0 1 0
    outer loop
      vertex 25.675 6 4.42894
      vertex 23.125 6 6
      vertex 27.325 6 4.42894
    endloop
  endfacet
  facet normal 0 1 0
    outer loop
      vertex 27.325 6 1.57106
      vertex 29.875 6 3
      vertex 28.1875 6 0.077164
    endloop
  endfacet
  facet normal 0 1 0
    outer loop
      vertex 25.675 6 1.57106
      vertex 28.1875 6 0.077164
      vertex 24.8125 6 0.077164
    endloop
  endfacet
  facet normal 0 1 0
    outer loop
      vertex 23.125 6 6
      vertex 24.8125 6 0.077164
      vertex 23.125 6 3
    endloop
  endfacet
  facet normal 0 1 0
    outer loop
      vertex 24.85 6 3
      vertex 25.675 6 1.57106
      vertex 24.8125 6 0.077164
    endloop
  endfacet
  facet normal 0 1 0
    outer loop
      vertex 28.15 6 3
      vertex 29.875 6 3
      vertex 27.325 6 1.57106
    endloop
  endfacet
  facet normal 0 1 0
    outer loop
      vertex 27.325 6 4.42894
      vertex 29.875 6 3
      vertex 28.15 6 3
    endloop
  endfacet
  facet normal 0 1 0
    outer loop
      vertex 29.875 6 6
      vertex 29.875 6 3
      vertex 27.325 6 4.42894
    endloop
  endfacet
  facet normal 0 1 0
    outer loop
      vertex 29.875 6 6
      vertex 27.325 6 4.42894
      vertex 23.125 6 6
    endloop
  endfacet
  facet normal 0 1 0
    outer loop
      vertex 24.85 6 3
      vertex 23.125 6 6
      vertex 25.675 6 4.42894
    endloop
  endfacet
  facet normal 0 1 0
    outer loop
      vertex 23.125 6 6
      vertex 24.85 6 3
      vertex 24.8125 6 0.077164
    endloop
  endfacet
  facet normal 0 1 0
    outer loop
      vertex 27.325 6 1.57106
      vertex 28.1875 6 0.077164
      vertex 25.675 6 1.57106
    endloop
  endfacet
  facet normal -1 0 0
    outer loop
      vertex 29.875 10 6
      vertex 29.875 10 3
      vertex 29.875 6 6
    endloop
  endfacet
  facet normal -1 0 0
    outer loop
      vertex 29.875 6 6
      vertex 29.875 10 3
      vertex 29.875 6 3
    endloop
  endfacet
  facet normal 0 -1 0
    outer loop
      vertex 24.8125 10 0.077164
      vertex 28.1875 10 0.077164
      vertex 29.875 10 3
    endloop
  endfacet
  facet normal 0 -1 0
    outer loop
      vertex 27.325 10 1.57106
      vertex 24.8125 10 0.077164
      vertex 29.875 10 3
    endloop
  endfacet
  facet normal 0 -1 0
    outer loop
      vertex 23.125 10 3
      vertex 24.8125 10 0.077164
      vertex 23.125 10 6
    endloop
  endfacet
  facet normal 0 -1 0
    outer loop
      vertex 27.325 10 4.42894
      vertex 28.15 10 3
      vertex 29.875 10 6
    endloop
  endfacet
  facet normal 0 -1 0
    outer loop
      vertex 23.125 10 6
      vertex 24.8125 10 0.077164
      vertex 24.85 10 3
    endloop
  endfacet
  facet normal 0 -1 0
    outer loop
      vertex 23.125 10 6
      vertex 25.675 10 4.42894
      vertex 29.875 10 6
    endloop
  endfacet
  facet normal 0 -1 0
    outer loop
      vertex 23.125 10 6
      vertex 24.85 10 3
      vertex 25.675 10 4.42894
    endloop
  endfacet
  facet normal 0 -1 0
    outer loop
      vertex 29.875 10 6
      vertex 28.15 10 3
      vertex 29.875 10 3
    endloop
  endfacet
  facet normal 0 -1 0
    outer loop
      vertex 28.15 10 3
      vertex 27.325 10 1.57106
      vertex 29.875 10 3
    endloop
  endfacet
  facet normal 0 -1 0
    outer loop
      vertex 24.85 10 3
      vertex 24.8125 10 0.077164
      vertex 25.675 10 1.57106
    endloop
  endfacet
  facet normal 0 -1 0
    outer loop
      vertex 25.675 10 4.42894
      vertex 27.325 10 4.42894
      vertex 29.875 10 6
    endloop
  endfacet
  facet normal 0 -1 0
    outer loop
      vertex 27.325 10 1.57106
      vertex 25.675 10 1.57106
      vertex 24.8125 10 0.077164
    endloop
  endfacet
  facet normal 0 -1 -2.22045e-16
    outer loop
      vertex 25.675 14 1.57106
      vertex 27.325 14 1.57106
      vertex 28.0749 14 2.86987
    endloop
  endfacet
  facet normal 0 -1 -2.22045e-16
    outer loop
      vertex 27.325 14 4.42894
      vertex 25.675 14 1.57106
      vertex 28.0749 14 3.13013
    endloop
  endfacet
  facet normal 0 -1 -2.22045e-16
    outer loop
      vertex 28.0749 14 3.13013
      vertex 25.675 14 1.57106
      vertex 28.0749 14 2.86987
    endloop
  endfacet
  facet normal 0 -1 -2.22045e-16
    outer loop
      vertex 25.675 14 4.42894
      vertex 25.675 14 1.57106
      vertex 27.325 14 4.42894
    endloop
  endfacet
  facet normal 0 -1 -2.22045e-16
    outer loop
      vertex 24.85 14 3
      vertex 25.675 14 1.57106
      vertex 25.675 14 4.42894
    endloop
  endfacet
  facet normal -0.866025 -1.11022e-16 0.5
    outer loop
      vertex 28.15 13.9401 3
      vertex 28.0749 14 2.86987
      vertex 28.15 10 3
    endloop
  endfacet
  facet normal -0.866025 -1.11022e-16 0.5
    outer loop
      vertex 28.15 10 3
      vertex 28.0749 14 2.86987
      vertex 27.325 14 1.57106
    endloop
  endfacet
  facet normal -0.866025 -1.11022e-16 0.5
    outer loop
      vertex 28.15 10 3
      vertex 27.325 14 1.57106
      vertex 27.325 10 1.57106
    endloop
  endfacet
  facet normal -0.866025 1.11022e-16 -0.5
    outer loop
      vertex 28.0749 14 3.13013
      vertex 28.15 13.9401 3
      vertex 27.325 14 4.42894
    endloop
  endfacet
  facet normal -0.866025 1.11022e-16 -0.5
    outer loop
      vertex 27.325 14 4.42894
      vertex 28.15 13.9401 3
      vertex 28.15 10 3
    endloop
  endfacet
  facet normal -0.866025 1.11022e-16 -0.5
    outer loop
      vertex 27.325 14 4.42894
      vertex 28.15 10 3
      vertex 27.325 10 4.42894
    endloop
  endfacet
  facet normal 0.866025 0 0.5
    outer loop
      vertex 24.8125 6 0.077164
      vertex 24.8125 10 0.077164
      vertex 23.125 10 3
    endloop
  endfacet
  facet normal 0.866025 0 0.5
    outer loop
      vertex 23.125 6 3
      vertex 24.8125 6 0.077164
      vertex 23.125 10 3
    endloop
  endfacet
  facet normal 0 0 1
    outer loop
      vertex 28.1875 6 0.077164
      vertex 28.1875 10 0.077164
      vertex 24.8125 10 0.077164
    endloop
  endfacet
  facet normal 0 0 1
    outer loop
      vertex 24.8125 6 0.077164
      vertex 28.1875 6 0.077164
      vertex 24.8125 10 0.077164
    endloop
  endfacet
  facet normal -0.866025 0 0.5
    outer loop
      vertex 29.875 10 3
      vertex 28.1875 10 0.077164
      vertex 29.875 6 3
    endloop
  endfacet
  facet normal -0.866025 0 0.5
    outer loop
      vertex 29.875 6 3
      vertex 28.1875 10 0.077164
      vertex 28.1875 6 0.077164
    endloop
  endfacet
  facet normal 0.866025 -1.11022e-16 0.5
    outer loop
      vertex 25.675 10 1.57106
      vertex 25.675 14 1.57106
      vertex 24.85 14 3
    endloop
  endfacet
  facet normal 0.866025 -1.11022e-16 0.5
    outer loop
      vertex 24.85 10 3
      vertex 25.675 10 1.57106
      vertex 24.85 14 3
    endloop
  endfacet
  facet normal 0.866025 1.11022e-16 -0.5
    outer loop
      vertex 24.85 14 3
      vertex 25.675 14 4.42894
      vertex 25.675 10 4.42894
    endloop
  endfacet
  facet normal 0.866025 1.11022e-16 -0.5
    outer loop
      vertex 24.85 10 3
      vertex 24.85 14 3
      vertex 25.675 10 4.42894
    endloop
  endfacet
  facet normal 0 -2.22045e-16 1
    outer loop
      vertex 27.325 10 1.57106
      vertex 27.325 14 1.57106
      vertex 25.675 14 1.57106
    endloop
  endfacet
  facet normal 0 -2.22045e-16 1
    outer loop
      vertex 25.675 10 1.57106
      vertex 27.325 10 1.57106
      vertex 25.675 14 1.57106
    endloop
  endfacet
  facet normal 0 2.22045e-16 -1
    outer loop
      vertex 27.325 14 4.42894
      vertex 27.325 10 4.42894
      vertex 25.675 14 4.42894
    endloop
  endfacet
  facet normal 0 2.22045e-16 -1
    outer loop
      vertex 25.675 14 4.42894
      vertex 27.325 10 4.42894
      vertex 25.675 10 4.42894
    endloop
  endfacet
  facet normal -0.99787 -0.0652409 0
    outer loop
      vertex 0.286475 -16.3817 6
      vertex 0 -12 6
      vertex 0.286475 -16.3817 0
    endloop
  endfacet
  facet normal -0.99787 -0.0652409 0
    outer loop
      vertex 0.286475 -16.3817 0
      vertex 0 -12 6
      vertex 0 -12 0
    endloop
  endfacet
  facet normal 0 0 -1
    outer loop
      vertex 28.0179 -16.0455 0
      vertex 0 -2 0
      vertex 29.5105 -14.8552 0
    endloop
  endfacet
  facet normal 0 0 -1
    outer loop
      vertex 32.2 -17 0
      vertex 35 -17 0
      vertex 34.6194 -18.9134 0
    endloop
  endfacet
  facet normal 0 0 -1
    outer loop
      vertex 31.3717 -18.72 0
      vertex 34.6194 -18.9134 0
      vertex 33.5355 -20.5355 0
    endloop
  endfacet
  facet normal 0 0 -1
    outer loop
      vertex 29.5105 -19.1448 0
      vertex 33.5355 -20.5355 0
      vertex 31.9134 -21.6194 0
    endloop
  endfacet
  facet normal 0 0 -1
    outer loop
      vertex 0 -2 0
      vertex 31.9134 -21.6194 0
      vertex 30 -22 0
    endloop
  endfacet
  facet normal 0 0 -1
    outer loop
      vertex 0 -2 0
      vertex 30 -22 0
      vertex 1.96352 -16.9266 0
    endloop
  endfacet
  facet normal 0 0 -1
    outer loop
      vertex 0 -2 0
      vertex 1.96352 -16.9266 0
      vertex 0.286475 -16.3817 0
    endloop
  endfacet
  facet normal 0 0 -1
    outer loop
      vertex 0 -2 0
      vertex 0.286475 -16.3817 0
      vertex 0 -12 0
    endloop
  endfacet
  facet normal 0 0 -1
    outer loop
      vertex 31.3717 -18.72 0
      vertex 33.5355 -20.5355 0
      vertex 29.5105 -19.1448 0
    endloop
  endfacet
  facet normal 0 0 -1
    outer loop
      vertex 0 -2 0
      vertex 28.0179 -17.9545 0
      vertex 31.9134 -21.6194 0
    endloop
  endfacet
  facet normal 0 0 -1
    outer loop
      vertex 28.0179 -17.9545 0
      vertex 29.5105 -19.1448 0
      vertex 31.9134 -21.6194 0
    endloop
  endfacet
  facet normal 0 0 -1
    outer loop
      vertex 31.3717 -15.28 0
      vertex 35 -17 0
      vertex 32.2 -17 0
    endloop
  endfacet
  facet normal 0 0 -1
    outer loop
      vertex 35 -2 0
      vertex 35 -17 0
      vertex 31.3717 -15.28 0
    endloop
  endfacet
  facet normal 0 0 -1
    outer loop
      vertex 35 -2 0
      vertex 31.3717 -15.28 0
      vertex 0 -2 0
    endloop
  endfacet
  facet normal 0 0 -1
    outer loop
      vertex 29.5105 -14.8552 0
      vertex 0 -2 0
      vertex 31.3717 -15.28 0
    endloop
  endfacet
  facet normal 0 0 -1
    outer loop
      vertex 28.0179 -17.9545 0
      vertex 0 -2 0
      vertex 28.0179 -16.0455 0
    endloop
  endfacet
  facet normal 0 0 -1
    outer loop
      vertex 32.2 -17 0
      vertex 34.6194 -18.9134 0
      vertex 31.3717 -18.72 0
    endloop
  endfacet
  facet normal -1 0 0
    outer loop
      vertex 0 -2 6
      vertex 0 -2 0
      vertex 0 -12 6
    endloop
  endfacet
  facet normal -1 0 0
    outer loop
      vertex 0 -12 6
      vertex 0 -2 0
      vertex 0 -12 0
    endloop
  endfacet
  facet normal -0.309017 -0.951056 0
    outer loop
      vertex 1.96352 -16.9266 0
      vertex 1.96352 -16.9266 6
      vertex 0.286475 -16.3817 6
    endloop
  endfacet
  facet normal -0.309017 -0.951056 0
    outer loop
      vertex 0.286475 -16.3817 0
      vertex 1.96352 -16.9266 0
      vertex 0.286475 -16.3817 6
    endloop
  endfacet
  facet normal 0 0 1
    outer loop
      vertex 0.286475 -16.3817 6
      vertex 1.96352 -16.9266 6
      vertex 30 -22 6
    endloop
  endfacet
  facet normal 0 0 1
    outer loop
      vertex 33.5355 -20.5355 6
      vertex 0.286475 -16.3817 6
      vertex 31.9134 -21.6194 6
    endloop
  endfacet
  facet normal 0 0 1
    outer loop
      vertex 31.9134 -21.6194 6
      vertex 0.286475 -16.3817 6
      vertex 30 -22 6
    endloop
  endfacet
  facet normal 0 0 1
    outer loop
      vertex 29.5105 -19.1448 6
      vertex 0.286475 -16.3817 6
      vertex 33.5355 -20.5355 6
    endloop
  endfacet
  facet normal 0 0 1
    outer loop
      vertex 29.5105 -19.1448 6
      vertex 28.0179 -17.9545 6
      vertex 0.286475 -16.3817 6
    endloop
  endfacet
  facet normal 0 0 1
    outer loop
      vertex 32.2 -17 6
      vertex 31.3717 -18.72 6
      vertex 34.6194 -18.9134 6
    endloop
  endfacet
  facet normal 0 0 1
    outer loop
      vertex 0 -2 6
      vertex 0.286475 -16.3817 6
      vertex 35 -2 6
    endloop
  endfacet
  facet normal 0 0 1
    outer loop
      vertex 0 -12 6
      vertex 0.286475 -16.3817 6
      vertex 0 -2 6
    endloop
  endfacet
  facet normal 0 0 1
    outer loop
      vertex 28.0179 -17.9545 6
      vertex 28.0179 -16.0455 6
      vertex 0.286475 -16.3817 6
    endloop
  endfacet
  facet normal 0 0 1
    outer loop
      vertex 35 -2 6
      vertex 0.286475 -16.3817 6
      vertex 23.125 -8 6
    endloop
  endfacet
  facet normal 0 0 1
    outer loop
      vertex 35 -2 6
      vertex 29.875 -8 6
      vertex 35 -17 6
    endloop
  endfacet
  facet normal 0 0 1
    outer loop
      vertex 35 -2 6
      vertex 23.125 -8 6
      vertex 29.875 -8 6
    endloop
  endfacet
  facet normal 0 0 1
    outer loop
      vertex 29.875 -8 6
      vertex 29.875 -12 6
      vertex 35 -17 6
    endloop
  endfacet
  facet normal 0 0 1
    outer loop
      vertex 23.125 -8 6
      vertex 0.286475 -16.3817 6
      vertex 23.125 -12 6
    endloop
  endfacet
  facet normal 0 0 1
    outer loop
      vertex 23.125 -12 6
      vertex 0.286475 -16.3817 6
      vertex 28.0179 -16.0455 6
    endloop
  endfacet
  facet normal 0 0 1
    outer loop
      vertex 23.125 -12 6
      vertex 28.0179 -16.0455 6
      vertex 29.5105 -14.8552 6
    endloop
  endfacet
  facet normal 0 0 1
    outer loop
      vertex 35 -17 6
      vertex 32.2 -17 6
      vertex 34.6194 -18.9134 6
    endloop
  endfacet
  facet normal 0 0 1
    outer loop
      vertex 29.5105 -14.8552 6
      vertex 31.3717 -15.28 6
      vertex 23.125 -12 6
    endloop
  endfacet
  facet normal 0 0 1
    outer loop
      vertex 34.6194 -18.9134 6
      vertex 31.3717 -18.72 6
      vertex 33.5355 -20.5355 6
    endloop
  endfacet
  facet normal 0 0 1
    outer loop
      vertex 31.3717 -18.72 6
      vertex 29.5105 -19.1448 6
      vertex 33.5355 -20.5355 6
    endloop
  endfacet
  facet normal 0 0 1
    outer loop
      vertex 31.3717 -15.28 6
      vertex 32.2 -17 6
      vertex 35 -17 6
    endloop
  endfacet
  facet normal 0 0 1
    outer loop
      vertex 29.875 -12 6
      vertex 31.3717 -15.28 6
      vertex 35 -17 6
    endloop
  endfacet
  facet normal 0 0 1
    outer loop
      vertex 29.875 -12 6
      vertex 23.125 -12 6
      vertex 31.3717 -15.28 6
    endloop
  endfacet
  facet normal 0 1 0
    outer loop
      vertex 25.675 -2 1.57106
      vertex 35 -2 0
      vertex 0 -2 0
    endloop
  endfacet
  facet normal 0 1 0
    outer loop
      vertex 24.85 -2 3
      vertex 0 -2 6
      vertex 25.675 -2 4.42894
    endloop
  endfacet
  facet normal 0 1 0
    outer loop
      vertex 0 -2 6
      vertex 25.675 -2 1.57106
      vertex 0 -2 0
    endloop
  endfacet
  facet normal 0 1 0
    outer loop
      vertex 35 -2 6
      vertex 35 -2 0
      vertex 27.325 -2 1.57106
    endloop
  endfacet
  facet normal 0 1 0
    outer loop
      vertex 35 -2 6
      vertex 27.325 -2 1.57106
      vertex 28.15 -2 3
    endloop
  endfacet
  facet normal 0 1 0
    outer loop
      vertex 35 -2 6
      vertex 28.15 -2 3
      vertex 27.325 -2 4.42894
    endloop
  endfacet
  facet normal 0 1 0
    outer loop
      vertex 35 -2 6
      vertex 27.325 -2 4.42894
      vertex 0 -2 6
    endloop
  endfacet
  facet normal 0 1 0
    outer loop
      vertex 27.325 -2 4.42894
      vertex 25.675 -2 4.42894
      vertex 0 -2 6
    endloop
  endfacet
  facet normal 0 1 0
    outer loop
      vertex 25.675 -2 1.57106
      vertex 0 -2 6
      vertex 24.85 -2 3
    endloop
  endfacet
  facet normal 0 1 0
    outer loop
      vertex 27.325 -2 1.57106
      vertex 35 -2 0
      vertex 25.675 -2 1.57106
    endloop
  endfacet
  facet normal -0.178066 -0.984019 0
    outer loop
      vertex 30 -22 0
      vertex 30 -22 6
      vertex 1.96352 -16.9266 6
    endloop
  endfacet
  facet normal -0.178066 -0.984019 0
    outer loop
      vertex 1.96352 -16.9266 0
      vertex 30 -22 0
      vertex 1.96352 -16.9266 6
    endloop
  endfacet
  facet normal 0.19509 -0.980785 0
    outer loop
      vertex 31.9134 -21.6194 0
      vertex 31.9134 -21.6194 6
      vertex 30 -22 6
    endloop
  endfacet
  facet normal 0.19509 -0.980785 0
    outer loop
      vertex 30 -22 0
      vertex 31.9134 -21.6194 0
      vertex 30 -22 6
    endloop
  endfacet
  facet normal 0.55557 -0.83147 0
    outer loop
      vertex 33.5355 -20.5355 0
      vertex 33.5355 -20.5355 6
      vertex 31.9134 -21.6194 6
    endloop
  endfacet
  facet normal 0.55557 -0.83147 0
    outer loop
      vertex 31.9134 -21.6194 0
      vertex 33.5355 -20.5355 0
      vertex 31.9134 -21.6194 6
    endloop
  endfacet
  facet normal 0.83147 -0.55557 0
    outer loop
      vertex 34.6194 -18.9134 0
      vertex 34.6194 -18.9134 6
      vertex 33.5355 -20.5355 6
    endloop
  endfacet
  facet normal 0.83147 -0.55557 0
    outer loop
      vertex 33.5355 -20.5355 0
      vertex 34.6194 -18.9134 0
      vertex 33.5355 -20.5355 6
    endloop
  endfacet
  facet normal 0.980785 -0.19509 0
    outer loop
      vertex 35 -17 0
      vertex 35 -17 6
      vertex 34.6194 -18.9134 6
    endloop
  endfacet
  facet normal 0.980785 -0.19509 0
    outer loop
      vertex 34.6194 -18.9134 0
      vertex 35 -17 0
      vertex 34.6194 -18.9134 6
    endloop
  endfacet
  facet normal 1 0 0
    outer loop
      vertex 35 -2 0
      vertex 35 -2 6
      vertex 35 -17 6
    endloop
  endfacet
  facet normal 1 0 0
    outer loop
      vertex 35 -17 0
      vertex 35 -2 0
      vertex 35 -17 6
    endloop
  endfacet
  facet normal 0.62349 0.781832 0
    outer loop
      vertex 28.0179 -17.9545 0
      vertex 28.0179 -17.9545 6
      vertex 29.5105 -19.1448 0
    endloop
  endfacet
  facet normal 0.62349 0.781832 0
    outer loop
      vertex 29.5105 -19.1448 0
      vertex 28.0179 -17.9545 6
      vertex 29.5105 -19.1448 6
    endloop
  endfacet
  facet normal 1 0 0
    outer loop
      vertex 28.0179 -17.9545 6
      vertex 28.0179 -17.9545 0
      vertex 28.0179 -16.0455 0
    endloop
  endfacet
  facet normal 1 0 0
    outer loop
      vertex 28.0179 -16.0455 6
      vertex 28.0179 -17.9545 6
      vertex 28.0179 -16.0455 0
    endloop
  endfacet
  facet normal 0.62349 -0.781832 0
    outer loop
      vertex 28.0749 -16 2.86987
      vertex 28.0179 -16.0455 0
      vertex 29.5105 -14.8552 0
    endloop
  endfacet
  facet normal 0.62349 -0.781832 0
    outer loop
      vertex 29.5105 -14.8552 6
      vertex 28.0179 -16.0455 6
      vertex 29.5105 -14.8552 0
    endloop
  endfacet
  facet normal 0.62349 -0.781832 0
    outer loop
      vertex 28.0179 -16.0455 6
      vertex 28.0179 -16.0455 0
      vertex 28.0749 -16 2.86987
    endloop
  endfacet
  facet normal 0.62349 -0.781832 0
    outer loop
      vertex 28.0179 -16.0455 6
      vertex 28.0749 -16 2.86987
      vertex 28.0749 -16 3.13013
    endloop
  endfacet
  facet normal 0.62349 -0.781832 0
    outer loop
      vertex 28.0179 -16.0455 6
      vertex 28.15 -15.9401 3
      vertex 29.5105 -14.8552 0
    endloop
  endfacet
  facet normal 0.62349 -0.781832 0
    outer loop
      vertex 28.0179 -16.0455 6
      vertex 28.0749 -16 3.13013
      vertex 28.15 -15.9401 3
    endloop
  endfacet
  facet normal 0.62349 -0.781832 0
    outer loop
      vertex 28.15 -15.9401 3
      vertex 28.0749 -16 2.86987
      vertex 29.5105 -14.8552 0
    endloop
  endfacet
  facet normal -0.222521 -0.974928 0
    outer loop
      vertex 29.5105 -14.8552 6
      vertex 29.5105 -14.8552 0
      vertex 31.3717 -15.28 0
    endloop
  endfacet
  facet normal -0.222521 -0.974928 0
    outer loop
      vertex 31.3717 -15.28 6
      vertex 29.5105 -14.8552 6
      vertex 31.3717 -15.28 0
    endloop
  endfacet
  facet normal -0.900969 -0.433884 0
    outer loop
      vertex 31.3717 -15.28 0
      vertex 32.2 -17 0
      vertex 31.3717 -15.28 6
    endloop
  endfacet
  facet normal -0.900969 -0.433884 0
    outer loop
      vertex 31.3717 -15.28 6
      vertex 32.2 -17 0
      vertex 32.2 -17 6
    endloop
  endfacet
  facet normal -0.900969 0.433884 0
    outer loop
      vertex 31.3717 -18.72 0
      vertex 31.3717 -18.72 6
      vertex 32.2 -17 0
    endloop
  endfacet
  facet normal -0.900969 0.433884 0
    outer loop
      vertex 32.2 -17 0
      vertex 31.3717 -18.72 6
      vertex 32.2 -17 6
    endloop
  endfacet
  facet normal -0.222521 0.974928 0
    outer loop
      vertex 29.5105 -19.1448 0
      vertex 29.5105 -19.1448 6
      vertex 31.3717 -18.72 0
    endloop
  endfacet
  facet normal -0.222521 0.974928 0
    outer loop
      vertex 31.3717 -18.72 0
      vertex 29.5105 -19.1448 6
      vertex 31.3717 -18.72 6
    endloop
  endfacet
  facet normal 0 -1 0
    outer loop
      vertex 23.125 -8 6
      vertex 23.125 -8 3
      vertex 24.8125 -8 0.077164
    endloop
  endfacet
  facet normal 0 -1 0
    outer loop
      vertex 24.85 -8 3
      vertex 25.675 -8 4.42894
      vertex 23.125 -8 6
    endloop
  endfacet
  facet normal 0 -1 0
    outer loop
      vertex 24.85 -8 3
      vertex 23.125 -8 6
      vertex 24.8125 -8 0.077164
    endloop
  endfacet
  facet normal 0 -1 0
    outer loop
      vertex 28.1875 -8 0.077164
      vertex 25.675 -8 1.57106
      vertex 24.8125 -8 0.077164
    endloop
  endfacet
  facet normal 0 -1 0
    outer loop
      vertex 25.675 -8 1.57106
      vertex 24.85 -8 3
      vertex 24.8125 -8 0.077164
    endloop
  endfacet
  facet normal 0 -1 0
    outer loop
      vertex 25.675 -8 4.42894
      vertex 27.325 -8 4.42894
      vertex 23.125 -8 6
    endloop
  endfacet
  facet normal 0 -1 0
    outer loop
      vertex 27.325 -8 4.42894
      vertex 28.15 -8 3
      vertex 29.875 -8 3
    endloop
  endfacet
  facet normal 0 -1 0
    outer loop
      vertex 29.875 -8 6
      vertex 27.325 -8 4.42894
      vertex 29.875 -8 3
    endloop
  endfacet
  facet normal 0 -1 0
    outer loop
      vertex 29.875 -8 6
      vertex 23.125 -8 6
      vertex 27.325 -8 4.42894
    endloop
  endfacet
  facet normal 0 -1 0
    outer loop
      vertex 29.875 -8 3
      vertex 28.15 -8 3
      vertex 28.1875 -8 0.077164
    endloop
  endfacet
  facet normal 0 -1 0
    outer loop
      vertex 28.15 -8 3
      vertex 27.325 -8 1.57106
      vertex 28.1875 -8 0.077164
    endloop
  endfacet
  facet normal 0 -1 0
    outer loop
      vertex 27.325 -8 1.57106
      vertex 25.675 -8 1.57106
      vertex 28.1875 -8 0.077164
    endloop
  endfacet
  facet normal 1 0 0
    outer loop
      vertex 23.125 -12 6
      vertex 23.125 -12 3
      vertex 23.125 -8 3
    endloop
  endfacet
  facet normal 1 0 0
    outer loop
      vertex 23.125 -8 6
      vertex 23.125 -12 6
      vertex 23.125 -8 3
    endloop
  endfacet
  facet normal 0 1 0
    outer loop
      vertex 23.125 -12 3
      vertex 23.125 -12 6
      vertex 24.8125 -12 0.077164
    endloop
  endfacet
  facet normal 0 1 0
    outer loop
      vertex 25.675 -12 4.42894
      vertex 23.125 -12 6
      vertex 29.875 -12 6
    endloop
  endfacet
  facet normal 0 1 0
    outer loop
      vertex 28.15 -12 3
      vertex 29.875 -12 6
      vertex 29.875 -12 3
    endloop
  endfacet
  facet normal 0 1 0
    outer loop
      vertex 24.8125 -12 0.077164
      vertex 29.875 -12 3
      vertex 28.1875 -12 0.077164
    endloop
  endfacet
  facet normal 0 1 0
    outer loop
      vertex 24.8125 -12 0.077164
      vertex 23.125 -12 6
      vertex 24.85 -12 3
    endloop
  endfacet
  facet normal 0 1 0
    outer loop
      vertex 24.8125 -12 0.077164
      vertex 24.85 -12 3
      vertex 25.675 -12 1.57106
    endloop
  endfacet
  facet normal 0 1 0
    outer loop
      vertex 27.325 -12 4.42894
      vertex 29.875 -12 6
      vertex 28.15 -12 3
    endloop
  endfacet
  facet normal 0 1 0
    outer loop
      vertex 24.8125 -12 0.077164
      vertex 27.325 -12 1.57106
      vertex 29.875 -12 3
    endloop
  endfacet
  facet normal 0 1 0
    outer loop
      vertex 27.325 -12 1.57106
      vertex 28.15 -12 3
      vertex 29.875 -12 3
    endloop
  endfacet
  facet normal 0 1 0
    outer loop
      vertex 25.675 -12 4.42894
      vertex 29.875 -12 6
      vertex 27.325 -12 4.42894
    endloop
  endfacet
  facet normal 0 1 0
    outer loop
      vertex 24.85 -12 3
      vertex 23.125 -12 6
      vertex 25.675 -12 4.42894
    endloop
  endfacet
  facet normal 0 1 0
    outer loop
      vertex 27.325 -12 1.57106
      vertex 24.8125 -12 0.077164
      vertex 25.675 -12 1.57106
    endloop
  endfacet
  facet normal -1 0 0
    outer loop
      vertex 29.875 -12 3
      vertex 29.875 -12 6
      vertex 29.875 -8 3
    endloop
  endfacet
  facet normal -1 0 0
    outer loop
      vertex 29.875 -8 3
      vertex 29.875 -12 6
      vertex 29.875 -8 6
    endloop
  endfacet
  facet normal 0 2.22045e-16 1
    outer loop
      vertex 25.675 -2 1.57106
      vertex 25.675 -8 1.57106
      vertex 27.325 -8 1.57106
    endloop
  endfacet
  facet normal 0 2.22045e-16 1
    outer loop
      vertex 27.325 -2 1.57106
      vertex 25.675 -2 1.57106
      vertex 27.325 -8 1.57106
    endloop
  endfacet
  facet normal 0.866025 1.11022e-16 0.5
    outer loop
      vertex 24.85 -2 3
      vertex 24.85 -8 3
      vertex 25.675 -8 1.57106
    endloop
  endfacet
  facet normal 0.866025 1.11022e-16 0.5
    outer loop
      vertex 25.675 -2 1.57106
      vertex 24.85 -2 3
      vertex 25.675 -8 1.57106
    endloop
  endfacet
  facet normal 0.866025 -1.11022e-16 -0.5
    outer loop
      vertex 25.675 -8 4.42894
      vertex 24.85 -8 3
      vertex 24.85 -2 3
    endloop
  endfacet
  facet normal 0.866025 -1.11022e-16 -0.5
    outer loop
      vertex 25.675 -2 4.42894
      vertex 25.675 -8 4.42894
      vertex 24.85 -2 3
    endloop
  endfacet
  facet normal 0 -2.22045e-16 -1
    outer loop
      vertex 25.675 -8 4.42894
      vertex 25.675 -2 4.42894
      vertex 27.325 -8 4.42894
    endloop
  endfacet
  facet normal 0 -2.22045e-16 -1
    outer loop
      vertex 27.325 -8 4.42894
      vertex 25.675 -2 4.42894
      vertex 27.325 -2 4.42894
    endloop
  endfacet
  facet normal -0.866025 -1.11022e-16 -0.5
    outer loop
      vertex 27.325 -8 4.42894
      vertex 27.325 -2 4.42894
      vertex 28.15 -8 3
    endloop
  endfacet
  facet normal -0.866025 -1.11022e-16 -0.5
    outer loop
      vertex 28.15 -8 3
      vertex 27.325 -2 4.42894
      vertex 28.15 -2 3
    endloop
  endfacet
  facet normal -0.866025 1.11022e-16 0.5
    outer loop
      vertex 27.325 -8 1.57106
      vertex 28.15 -8 3
      vertex 27.325 -2 1.57106
    endloop
  endfacet
  facet normal -0.866025 1.11022e-16 0.5
    outer loop
      vertex 27.325 -2 1.57106
      vertex 28.15 -8 3
      vertex 28.15 -2 3
    endloop
  endfacet
  facet normal 0 1 -2.22045e-16
    outer loop
      vertex 24.85 -16 3
      vertex 25.675 -16 4.42894
      vertex 25.675 -16 1.57106
    endloop
  endfacet
  facet normal 0 1 -2.22045e-16
    outer loop
      vertex 25.675 -16 1.57106
      vertex 25.675 -16 4.42894
      vertex 27.325 -16 4.42894
    endloop
  endfacet
  facet normal 0 1 -2.22045e-16
    outer loop
      vertex 25.675 -16 1.57106
      vertex 27.325 -16 4.42894
      vertex 28.0749 -16 3.13013
    endloop
  endfacet
  facet normal 0 1 -2.22045e-16
    outer loop
      vertex 25.675 -16 1.57106
      vertex 28.0749 -16 3.13013
      vertex 28.0749 -16 2.86987
    endloop
  endfacet
  facet normal 0 1 -2.22045e-16
    outer loop
      vertex 25.675 -16 1.57106
      vertex 28.0749 -16 2.86987
      vertex 27.325 -16 1.57106
    endloop
  endfacet
  facet normal -0.866025 1.11022e-16 0.5
    outer loop
      vertex 27.325 -16 1.57106
      vertex 28.0749 -16 2.86987
      vertex 27.325 -12 1.57106
    endloop
  endfacet
  facet normal -0.866025 1.11022e-16 0.5
    outer loop
      vertex 27.325 -12 1.57106
      vertex 28.0749 -16 2.86987
      vertex 28.15 -15.9401 3
    endloop
  endfacet
  facet normal -0.866025 1.11022e-16 0.5
    outer loop
      vertex 27.325 -12 1.57106
      vertex 28.15 -15.9401 3
      vertex 28.15 -12 3
    endloop
  endfacet
  facet normal -0.866025 -1.11022e-16 -0.5
    outer loop
      vertex 27.325 -16 4.42894
      vertex 27.325 -12 4.42894
      vertex 28.0749 -16 3.13013
    endloop
  endfacet
  facet normal -0.866025 -1.11022e-16 -0.5
    outer loop
      vertex 28.0749 -16 3.13013
      vertex 27.325 -12 4.42894
      vertex 28.15 -12 3
    endloop
  endfacet
  facet normal -0.866025 -1.11022e-16 -0.5
    outer loop
      vertex 28.0749 -16 3.13013
      vertex 28.15 -12 3
      vertex 28.15 -15.9401 3
    endloop
  endfacet
  facet normal -0.866025 0 0.5
    outer loop
      vertex 28.1875 -12 0.077164
      vertex 29.875 -12 3
      vertex 28.1875 -8 0.077164
    endloop
  endfacet
  facet normal -0.866025 0 0.5
    outer loop
      vertex 28.1875 -8 0.077164
      vertex 29.875 -12 3
      vertex 29.875 -8 3
    endloop
  endfacet
  facet normal 0 0 1
    outer loop
      vertex 24.8125 -8 0.077164
      vertex 24.8125 -12 0.077164
      vertex 28.1875 -12 0.077164
    endloop
  endfacet
  facet normal 0 0 1
    outer loop
      vertex 28.1875 -8 0.077164
      vertex 24.8125 -8 0.077164
      vertex 28.1875 -12 0.077164
    endloop
  endfacet
  facet normal 0.866025 0 0.5
    outer loop
      vertex 23.125 -8 3
      vertex 23.125 -12 3
      vertex 24.8125 -12 0.077164
    endloop
  endfacet
  facet normal 0.866025 0 0.5
    outer loop
      vertex 24.8125 -8 0.077164
      vertex 23.125 -8 3
      vertex 24.8125 -12 0.077164
    endloop
  endfacet
  facet normal 0.866025 1.11022e-16 0.5
    outer loop
      vertex 24.85 -12 3
      vertex 24.85 -16 3
      vertex 25.675 -16 1.57106
    endloop
  endfacet
  facet normal 0.866025 1.11022e-16 0.5
    outer loop
      vertex 25.675 -12 1.57106
      vertex 24.85 -12 3
      vertex 25.675 -16 1.57106
    endloop
  endfacet
  facet normal 0.866025 -1.11022e-16 -0.5
    outer loop
      vertex 25.675 -16 4.42894
      vertex 24.85 -16 3
      vertex 24.85 -12 3
    endloop
  endfacet
  facet normal 0.866025 -1.11022e-16 -0.5
    outer loop
      vertex 25.675 -12 4.42894
      vertex 25.675 -16 4.42894
      vertex 24.85 -12 3
    endloop
  endfacet
  facet normal 0 -2.22045e-16 -1
    outer loop
      vertex 25.675 -16 4.42894
      vertex 25.675 -12 4.42894
      vertex 27.325 -16 4.42894
    endloop
  endfacet
  facet normal 0 -2.22045e-16 -1
    outer loop
      vertex 27.325 -16 4.42894
      vertex 25.675 -12 4.42894
      vertex 27.325 -12 4.42894
    endloop
  endfacet
  facet normal 0 2.22045e-16 1
    outer loop
      vertex 25.675 -12 1.57106
      vertex 25.675 -16 1.57106
      vertex 27.325 -16 1.57106
    endloop
  endfacet
  facet normal 0 2.22045e-16 1
    outer loop
      vertex 27.325 -12 1.57106
      vertex 25.675 -12 1.57106
      vertex 27.325 -16 1.57106
    endloop
  endfacet
endsolid OpenSCAD_Model
