solid OpenSCAD_Model
  facet normal -1 0 0
    outer loop
      vertex -11.5 0 0
      vertex -11.5 0 5
      vertex -11.5 17 0
    endloop
  endfacet
  facet normal -1 0 0
    outer loop
      vertex -11.5 17 0
      vertex -11.5 0 5
      vertex -11.5 17 5
    endloop
  endfacet
  facet normal 0 -1 0
    outer loop
      vertex -11.5 0 5
      vertex -11.5 0 0
      vertex 11.5 0 0
    endloop
  endfacet
  facet normal 0 -1 0
    outer loop
      vertex 11.5 0 5
      vertex -11.5 0 5
      vertex 11.5 0 0
    endloop
  endfacet
  facet normal 0 0 -1
    outer loop
      vertex 7.325 3.57106 0
      vertex 11.5 0 0
      vertex 5.675 3.57106 0
    endloop
  endfacet
  facet normal 0 0 -1
    outer loop
      vertex 4.85 5 0
      vertex -11.5 17 0
      vertex 11.5 17 0
    endloop
  endfacet
  facet normal 0 0 -1
    outer loop
      vertex -11.5 0 0
      vertex -11.5 17 0
      vertex -8.15 5 0
    endloop
  endfacet
  facet normal 0 0 -1
    outer loop
      vertex -11.5 0 0
      vertex -8.15 5 0
      vertex -7.325 3.57106 0
    endloop
  endfacet
  facet normal 0 0 -1
    outer loop
      vertex -11.5 0 0
      vertex -7.325 3.57106 0
      vertex 11.5 0 0
    endloop
  endfacet
  facet normal 0 0 -1
    outer loop
      vertex -7.325 3.57106 0
      vertex -5.675 3.57106 0
      vertex 11.5 0 0
    endloop
  endfacet
  facet normal 0 0 -1
    outer loop
      vertex -5.675 6.42894 0
      vertex -11.5 17 0
      vertex -4.85 5 0
    endloop
  endfacet
  facet normal 0 0 -1
    outer loop
      vertex 5.675 3.57106 0
      vertex -11.5 17 0
      vertex 4.85 5 0
    endloop
  endfacet
  facet normal 0 0 -1
    outer loop
      vertex -7.325 6.42894 0
      vertex -11.5 17 0
      vertex -5.675 6.42894 0
    endloop
  endfacet
  facet normal 0 0 -1
    outer loop
      vertex -8.15 5 0
      vertex -11.5 17 0
      vertex -7.325 6.42894 0
    endloop
  endfacet
  facet normal 0 0 -1
    outer loop
      vertex 5.675 6.42894 0
      vertex 4.85 5 0
      vertex 11.5 17 0
    endloop
  endfacet
  facet normal 0 0 -1
    outer loop
      vertex -4.85 5 0
      vertex -11.5 17 0
      vertex 5.675 3.57106 0
    endloop
  endfacet
  facet normal 0 0 -1
    outer loop
      vertex -4.85 5 0
      vertex 5.675 3.57106 0
      vertex 11.5 0 0
    endloop
  endfacet
  facet normal 0 0 -1
    outer loop
      vertex 7.325 6.42894 0
      vertex 11.5 17 0
      vertex 8.15 5 0
    endloop
  endfacet
  facet normal 0 0 -1
    outer loop
      vertex 11.5 0 0
      vertex 7.325 3.57106 0
      vertex 8.15 5 0
    endloop
  endfacet
  facet normal 0 0 -1
    outer loop
      vertex 11.5 0 0
      vertex 8.15 5 0
      vertex 11.5 17 0
    endloop
  endfacet
  facet normal 0 0 -1
    outer loop
      vertex 7.325 6.42894 0
      vertex 5.675 6.42894 0
      vertex 11.5 17 0
    endloop
  endfacet
  facet normal 0 0 -1
    outer loop
      vertex -4.85 5 0
      vertex 11.5 0 0
      vertex -5.675 3.57106 0
    endloop
  endfacet
  facet normal 0 1 0
    outer loop
      vertex -11.5 17 0
      vertex -11.5 17 5
      vertex 11.5 17 0
    endloop
  endfacet
  facet normal 0 1 0
    outer loop
      vertex 11.5 17 0
      vertex -11.5 17 5
      vertex -8 17 5
    endloop
  endfacet
  facet normal 0 1 0
    outer loop
      vertex 11.5 17 0
      vertex -8 17 5
      vertex -5 17 5
    endloop
  endfacet
  facet normal 0 1 0
    outer loop
      vertex 11.5 17 0
      vertex -5 17 5
      vertex 5 17 5
    endloop
  endfacet
  facet normal 0 1 0
    outer loop
      vertex 11.5 17 0
      vertex 5 17 5
      vertex 8 17 5
    endloop
  endfacet
  facet normal 0 1 0
    outer loop
      vertex 11.5 17 0
      vertex 8 17 5
      vertex 11.5 17 5
    endloop
  endfacet
  facet normal 0 0 1
    outer loop
      vertex -8.1875 2.07716 5
      vertex -11.5 0 5
      vertex 11.5 0 5
    endloop
  endfacet
  facet normal 0 0 1
    outer loop
      vertex -8.1875 7.92284 5
      vertex -6.03321 8.14904 5
      vertex -8 8.14904 5
    endloop
  endfacet
  facet normal 0 0 1
    outer loop
      vertex 11.5 17 5
      vertex 8 17 5
      vertex 11.5 0 5
    endloop
  endfacet
  facet normal 0 0 1
    outer loop
      vertex 8 17 5
      vertex 8 14.9748 5
      vertex 11.5 0 5
    endloop
  endfacet
  facet normal 0 0 1
    outer loop
      vertex -8 15.9309 5
      vertex -8 17 5
      vertex -11.5 17 5
    endloop
  endfacet
  facet normal 0 0 1
    outer loop
      vertex 8 14.9748 5
      vertex 8 14.0455 5
      vertex 11.5 0 5
    endloop
  endfacet
  facet normal 0 0 1
    outer loop
      vertex 4.8125 7.92284 5
      vertex 6.96679 8.14904 5
      vertex 5 8.14904 5
    endloop
  endfacet
  facet normal 0 0 1
    outer loop
      vertex 8.1875 7.92284 5
      vertex 8 9.68182 5
      vertex 8 8.84339 5
    endloop
  endfacet
  facet normal 0 0 1
    outer loop
      vertex 8.1875 7.92284 5
      vertex 9.875 5 5
      vertex 8 9.68182 5
    endloop
  endfacet
  facet normal 0 0 1
    outer loop
      vertex 4.8125 2.07716 5
      vertex 3.125 5 5
      vertex -5 9.68182 5
    endloop
  endfacet
  facet normal 0 0 1
    outer loop
      vertex -5 14.0455 5
      vertex 5 8.31782 5
      vertex 5 8.67976 5
    endloop
  endfacet
  facet normal 0 0 1
    outer loop
      vertex -5 14.0455 5
      vertex 5 8.14904 5
      vertex 5 8.31782 5
    endloop
  endfacet
  facet normal 0 0 1
    outer loop
      vertex 5 17 5
      vertex -5 17 5
      vertex 5 15.9309 5
    endloop
  endfacet
  facet normal 0 0 1
    outer loop
      vertex -5 17 5
      vertex -5 14.9748 5
      vertex 5 15.5324 5
    endloop
  endfacet
  facet normal 0 0 1
    outer loop
      vertex 4.8125 2.07716 5
      vertex -5 8.84339 5
      vertex -5 8.29605 5
    endloop
  endfacet
  facet normal 0 0 1
    outer loop
      vertex 4.8125 7.92284 5
      vertex 8.1875 7.92284 5
      vertex 8 8.14904 5
    endloop
  endfacet
  facet normal 0 0 1
    outer loop
      vertex 8 8.14904 5
      vertex 8.1875 7.92284 5
      vertex 8 8.29605 5
    endloop
  endfacet
  facet normal 0 0 1
    outer loop
      vertex -8 9.1437 5
      vertex -8 15.5324 5
      vertex -11.5 17 5
    endloop
  endfacet
  facet normal 0 0 1
    outer loop
      vertex 4.8125 2.07716 5
      vertex -5 8.14904 5
      vertex -4.8125 7.92284 5
    endloop
  endfacet
  facet normal 0 0 1
    outer loop
      vertex -11.5 17 5
      vertex -8 8.14904 5
      vertex -8 8.31782 5
    endloop
  endfacet
  facet normal 0 0 1
    outer loop
      vertex -11.5 17 5
      vertex -8 8.31782 5
      vertex -8 8.67976 5
    endloop
  endfacet
  facet normal 0 0 1
    outer loop
      vertex -8.1875 2.07716 5
      vertex -9.875 5 5
      vertex -11.5 0 5
    endloop
  endfacet
  facet normal 0 0 1
    outer loop
      vertex -11.5 17 5
      vertex -8 8.67976 5
      vertex -8 9.1437 5
    endloop
  endfacet
  facet normal 0 0 1
    outer loop
      vertex -5 14.0455 5
      vertex -5 9.68182 5
      vertex 3.125 5 5
    endloop
  endfacet
  facet normal 0 0 1
    outer loop
      vertex 4.8125 7.92284 5
      vertex 8 8.14904 5
      vertex 6.96679 8.14904 5
    endloop
  endfacet
  facet normal 0 0 1
    outer loop
      vertex -5 17 5
      vertex 5 15.5324 5
      vertex 5 15.9309 5
    endloop
  endfacet
  facet normal 0 0 1
    outer loop
      vertex -5 14.0455 5
      vertex 4.8125 7.92284 5
      vertex 5 8.14904 5
    endloop
  endfacet
  facet normal 0 0 1
    outer loop
      vertex -4.8125 2.07716 5
      vertex -8.1875 2.07716 5
      vertex 11.5 0 5
    endloop
  endfacet
  facet normal 0 0 1
    outer loop
      vertex -8.1875 7.92284 5
      vertex -5 8.14904 5
      vertex -6.03321 8.14904 5
    endloop
  endfacet
  facet normal 0 0 1
    outer loop
      vertex 4.8125 2.07716 5
      vertex -5 9.68182 5
      vertex -5 8.84339 5
    endloop
  endfacet
  facet normal 0 0 1
    outer loop
      vertex -11.5 17 5
      vertex -11.5 0 5
      vertex -9.875 5 5
    endloop
  endfacet
  facet normal 0 0 1
    outer loop
      vertex -11.5 17 5
      vertex -8.1875 7.92284 5
      vertex -8 8.14904 5
    endloop
  endfacet
  facet normal 0 0 1
    outer loop
      vertex -11.5 17 5
      vertex -9.875 5 5
      vertex -8.1875 7.92284 5
    endloop
  endfacet
  facet normal 0 0 1
    outer loop
      vertex 3.125 5 5
      vertex 4.8125 7.92284 5
      vertex -5 14.0455 5
    endloop
  endfacet
  facet normal 0 0 1
    outer loop
      vertex 4.8125 2.07716 5
      vertex -4.8125 7.92284 5
      vertex -3.125 5 5
    endloop
  endfacet
  facet normal 0 0 1
    outer loop
      vertex 4.8125 2.07716 5
      vertex -4.8125 2.07716 5
      vertex 11.5 0 5
    endloop
  endfacet
  facet normal 0 0 1
    outer loop
      vertex -3.125 5 5
      vertex -4.8125 2.07716 5
      vertex 4.8125 2.07716 5
    endloop
  endfacet
  facet normal 0 0 1
    outer loop
      vertex -8.1875 7.92284 5
      vertex -4.8125 7.92284 5
      vertex -5 8.14904 5
    endloop
  endfacet
  facet normal 0 0 1
    outer loop
      vertex 9.875 5 5
      vertex 8.1875 2.07716 5
      vertex 11.5 0 5
    endloop
  endfacet
  facet normal 0 0 1
    outer loop
      vertex 8 8.84339 5
      vertex 8 8.29605 5
      vertex 8.1875 7.92284 5
    endloop
  endfacet
  facet normal 0 0 1
    outer loop
      vertex 8 14.0455 5
      vertex 9.875 5 5
      vertex 11.5 0 5
    endloop
  endfacet
  facet normal 0 0 1
    outer loop
      vertex 8 14.0455 5
      vertex 8 9.68182 5
      vertex 9.875 5 5
    endloop
  endfacet
  facet normal 0 0 1
    outer loop
      vertex 8.1875 2.07716 5
      vertex 4.8125 2.07716 5
      vertex 11.5 0 5
    endloop
  endfacet
  facet normal 0 0 1
    outer loop
      vertex -8 15.5324 5
      vertex -8 15.9309 5
      vertex -11.5 17 5
    endloop
  endfacet
  facet normal 0 0 1
    outer loop
      vertex 4.8125 2.07716 5
      vertex -5 8.29605 5
      vertex -5 8.14904 5
    endloop
  endfacet
  facet normal 0 0 1
    outer loop
      vertex -5 14.0455 5
      vertex 5 8.67976 5
      vertex 5 9.1437 5
    endloop
  endfacet
  facet normal 0 0 1
    outer loop
      vertex -5 14.9748 5
      vertex -5 14.0455 5
      vertex 5 9.1437 5
    endloop
  endfacet
  facet normal 0 0 1
    outer loop
      vertex 5 9.1437 5
      vertex 5 15.5324 5
      vertex -5 14.9748 5
    endloop
  endfacet
  facet normal 1 0 0
    outer loop
      vertex 11.5 0 5
      vertex 11.5 0 0
      vertex 11.5 17 0
    endloop
  endfacet
  facet normal 1 0 0
    outer loop
      vertex 11.5 17 5
      vertex 11.5 0 5
      vertex 11.5 17 0
    endloop
  endfacet
  facet normal 0.866025 0.5 0
    outer loop
      vertex -8.15 5 3
      vertex -7.325 3.57106 3
      vertex -7.325 3.57106 0
    endloop
  endfacet
  facet normal 0.866025 0.5 0
    outer loop
      vertex -8.15 5 0
      vertex -8.15 5 3
      vertex -7.325 3.57106 0
    endloop
  endfacet
  facet normal 0.866025 -0.5 0
    outer loop
      vertex -7.325 6.42894 0
      vertex -7.325 6.42894 3
      vertex -8.15 5 3
    endloop
  endfacet
  facet normal 0.866025 -0.5 0
    outer loop
      vertex -8.15 5 0
      vertex -7.325 6.42894 0
      vertex -8.15 5 3
    endloop
  endfacet
  facet normal 0 -1 0
    outer loop
      vertex -5.675 6.42894 0
      vertex -5.675 6.42894 3
      vertex -7.325 6.42894 3
    endloop
  endfacet
  facet normal 0 -1 0
    outer loop
      vertex -7.325 6.42894 0
      vertex -5.675 6.42894 0
      vertex -7.325 6.42894 3
    endloop
  endfacet
  facet normal -0.866025 -0.5 0
    outer loop
      vertex -4.85 5 3
      vertex -5.675 6.42894 3
      vertex -4.85 5 0
    endloop
  endfacet
  facet normal -0.866025 -0.5 0
    outer loop
      vertex -4.85 5 0
      vertex -5.675 6.42894 3
      vertex -5.675 6.42894 0
    endloop
  endfacet
  facet normal -0.866025 0.5 0
    outer loop
      vertex -4.85 5 3
      vertex -4.85 5 0
      vertex -5.675 3.57106 3
    endloop
  endfacet
  facet normal -0.866025 0.5 0
    outer loop
      vertex -5.675 3.57106 3
      vertex -4.85 5 0
      vertex -5.675 3.57106 0
    endloop
  endfacet
  facet normal 0 1 0
    outer loop
      vertex -5.675 3.57106 3
      vertex -5.675 3.57106 0
      vertex -7.325 3.57106 3
    endloop
  endfacet
  facet normal 0 1 0
    outer loop
      vertex -7.325 3.57106 3
      vertex -5.675 3.57106 0
      vertex -7.325 3.57106 0
    endloop
  endfacet
  facet normal 0.866025 -0.5 0
    outer loop
      vertex 5.675 6.42894 0
      vertex 5.675 6.42894 3
      vertex 4.85 5 3
    endloop
  endfacet
  facet normal 0.866025 -0.5 0
    outer loop
      vertex 4.85 5 0
      vertex 5.675 6.42894 0
      vertex 4.85 5 3
    endloop
  endfacet
  facet normal 0.866025 0.5 0
    outer loop
      vertex 4.85 5 3
      vertex 5.675 3.57106 3
      vertex 5.675 3.57106 0
    endloop
  endfacet
  facet normal 0.866025 0.5 0
    outer loop
      vertex 4.85 5 0
      vertex 4.85 5 3
      vertex 5.675 3.57106 0
    endloop
  endfacet
  facet normal 0 -1 0
    outer loop
      vertex 7.325 6.42894 0
      vertex 7.325 6.42894 3
      vertex 5.675 6.42894 3
    endloop
  endfacet
  facet normal 0 -1 0
    outer loop
      vertex 5.675 6.42894 0
      vertex 7.325 6.42894 0
      vertex 5.675 6.42894 3
    endloop
  endfacet
  facet normal -0.866025 -0.5 0
    outer loop
      vertex 8.15 5 3
      vertex 7.325 6.42894 3
      vertex 8.15 5 0
    endloop
  endfacet
  facet normal -0.866025 -0.5 0
    outer loop
      vertex 8.15 5 0
      vertex 7.325 6.42894 3
      vertex 7.325 6.42894 0
    endloop
  endfacet
  facet normal -0.866025 0.5 0
    outer loop
      vertex 8.15 5 3
      vertex 8.15 5 0
      vertex 7.325 3.57106 3
    endloop
  endfacet
  facet normal -0.866025 0.5 0
    outer loop
      vertex 7.325 3.57106 3
      vertex 8.15 5 0
      vertex 7.325 3.57106 0
    endloop
  endfacet
  facet normal 0 1 0
    outer loop
      vertex 7.325 3.57106 3
      vertex 7.325 3.57106 0
      vertex 5.675 3.57106 3
    endloop
  endfacet
  facet normal 0 1 0
    outer loop
      vertex 5.675 3.57106 3
      vertex 7.325 3.57106 0
      vertex 5.675 3.57106 0
    endloop
  endfacet
  facet normal 0 0.972009 0.234943
    outer loop
      vertex 8 17 5
      vertex 5 17 5
      vertex 8 14.2401 16.4184
    endloop
  endfacet
  facet normal 1 1.35321e-16 0
    outer loop
      vertex 8 14.9748 5
      vertex 8 17 5
      vertex 8 12.3589 11.4582
    endloop
  endfacet
  facet normal 1 1.48624e-16 9.55972e-18
    outer loop
      vertex 8 12.3589 11.4582
      vertex 8 17 5
      vertex 8 13.7919 12.7277
    endloop
  endfacet
  facet normal 1 2.88853e-16 6.77738e-17
    outer loop
      vertex 8 13.7919 12.7277
      vertex 8 17 5
      vertex 8 14.4708 14.5179
    endloop
  endfacet
  facet normal 1 1.29103e-15 3.3408e-16
    outer loop
      vertex 8 17 5
      vertex 8 14.2401 16.4184
      vertex 8 14.4708 14.5179
    endloop
  endfacet
  facet normal -4.16605e-17 0.972009 0.234943
    outer loop
      vertex 5 17 5
      vertex 5 14.2401 16.4184
      vertex 8 14.2401 16.4184
    endloop
  endfacet
  facet normal -1 3.4622e-16 6.16573e-17
    outer loop
      vertex 5 17 5
      vertex 5 13.1525 17.994
      vertex 5 14.2401 16.4184
    endloop
  endfacet
  facet normal -1 1.37987e-16 0
    outer loop
      vertex 5 15.9309 5
      vertex 5 13.1525 17.994
      vertex 5 17 5
    endloop
  endfacet
  facet normal 0 0.972009 0.234943
    outer loop
      vertex -5 17 5
      vertex -8 17 5
      vertex -5 14.2401 16.4184
    endloop
  endfacet
  facet normal 1 1.35321e-16 0
    outer loop
      vertex -5 14.9748 5
      vertex -5 17 5
      vertex -5 12.3589 11.4582
    endloop
  endfacet
  facet normal 1 1.48624e-16 9.55972e-18
    outer loop
      vertex -5 12.3589 11.4582
      vertex -5 17 5
      vertex -5 13.7919 12.7277
    endloop
  endfacet
  facet normal 1 2.88853e-16 6.77738e-17
    outer loop
      vertex -5 13.7919 12.7277
      vertex -5 17 5
      vertex -5 14.4708 14.5179
    endloop
  endfacet
  facet normal 1 1.29103e-15 3.3408e-16
    outer loop
      vertex -5 17 5
      vertex -5 14.2401 16.4184
      vertex -5 14.4708 14.5179
    endloop
  endfacet
  facet normal -4.16605e-17 0.972009 0.234943
    outer loop
      vertex -8 17 5
      vertex -8 14.2401 16.4184
      vertex -5 14.2401 16.4184
    endloop
  endfacet
  facet normal -1 3.4622e-16 6.16573e-17
    outer loop
      vertex -8 17 5
      vertex -8 13.1525 17.994
      vertex -8 14.2401 16.4184
    endloop
  endfacet
  facet normal -1 1.37987e-16 0
    outer loop
      vertex -8 15.9309 5
      vertex -8 13.1525 17.994
      vertex -8 17 5
    endloop
  endfacet
  facet normal -1 8.73869e-17 -1.08195e-17
    outer loop
      vertex -8 11.4573 18.8838
      vertex -8 13.1525 17.994
      vertex -8 15.5324 5
    endloop
  endfacet
  facet normal -1 8.73869e-17 -1.08195e-17
    outer loop
      vertex -8 15.5324 5
      vertex -8 13.1525 17.994
      vertex -8 15.9309 5
    endloop
  endfacet
  facet normal -1 0 -3.64691e-17
    outer loop
      vertex -8 9.54274 18.8838
      vertex -8 11.4573 18.8838
      vertex -8 9.4613 16.0503
    endloop
  endfacet
  facet normal -1 0 -3.64691e-17
    outer loop
      vertex -8 11.9289 15.825
      vertex -8 11.4573 18.8838
      vertex -8 15.5324 5
    endloop
  endfacet
  facet normal -1 0 -3.64691e-17
    outer loop
      vertex -8 9.40191 13.984
      vertex -8 15.5324 5
      vertex -8 9.1437 5
    endloop
  endfacet
  facet normal -1 0 -3.64691e-17
    outer loop
      vertex -8 10.5 13.35
      vertex -8 15.5324 5
      vertex -8 9.40191 13.984
    endloop
  endfacet
  facet normal -1 0 -3.64691e-17
    outer loop
      vertex -8 10.5 16.65
      vertex -8 11.4573 18.8838
      vertex -8 11.9289 15.825
    endloop
  endfacet
  facet normal -1 0 -3.64691e-17
    outer loop
      vertex -8 11.9289 14.175
      vertex -8 11.9289 15.825
      vertex -8 15.5324 5
    endloop
  endfacet
  facet normal -1 0 -3.64691e-17
    outer loop
      vertex -8 9.4613 16.0503
      vertex -8 11.4573 18.8838
      vertex -8 10.5 16.65
    endloop
  endfacet
  facet normal -1 0 -3.64691e-17
    outer loop
      vertex -8 11.9289 14.175
      vertex -8 15.5324 5
      vertex -8 10.5 13.35
    endloop
  endfacet
  facet normal -1 -7.50571e-17 -3.43119e-17
    outer loop
      vertex -8 9.54274 18.8838
      vertex -8 9.4613 16.0503
      vertex -8 7.84751 17.994
    endloop
  endfacet
  facet normal -1 -7.50571e-17 -3.43119e-17
    outer loop
      vertex -8 7.84751 17.994
      vertex -8 9.4613 16.0503
      vertex -8 9.07106 15.825
    endloop
  endfacet
  facet normal -1 -7.50571e-17 -3.43119e-17
    outer loop
      vertex -8 7.84751 17.994
      vertex -8 9.07106 15.825
      vertex -8 9.07106 14.175
    endloop
  endfacet
  facet normal -1 -7.50571e-17 -3.43119e-17
    outer loop
      vertex -8 9.07106 14.175
      vertex -8 9.40191 13.984
      vertex -8 9.1437 5
    endloop
  endfacet
  facet normal -1 -7.50571e-17 -3.43119e-17
    outer loop
      vertex -8 9.07106 14.175
      vertex -8 9.1437 5
      vertex -8 7.84751 17.994
    endloop
  endfacet
  facet normal -1 -7.50571e-17 -3.43119e-17
    outer loop
      vertex -8 7.84751 17.994
      vertex -8 9.1437 5
      vertex -8 8.67976 5
    endloop
  endfacet
  facet normal -1 -1.95966e-16 -4.20559e-17
    outer loop
      vertex -8 7.84751 17.994
      vertex -8 8.67976 5
      vertex -8 6.75993 16.4184
    endloop
  endfacet
  facet normal -1 -1.95966e-16 -4.20559e-17
    outer loop
      vertex -8 6.75993 16.4184
      vertex -8 8.67976 5
      vertex -8 8.31782 5
    endloop
  endfacet
  facet normal -1 -6.28262e-16 -1.01037e-16
    outer loop
      vertex -8 6.75993 16.4184
      vertex -8 8.31782 5
      vertex -8 6.52916 14.5179
    endloop
  endfacet
  facet normal -1 -6.28262e-16 -1.01037e-16
    outer loop
      vertex -8 7.92284 6.32908
      vertex -8 8.31782 5
      vertex -8 8.14904 5
    endloop
  endfacet
  facet normal -1 -6.28262e-16 -1.01037e-16
    outer loop
      vertex -8 7.92284 7
      vertex -8 8.31782 5
      vertex -8 7.92284 6.32908
    endloop
  endfacet
  facet normal -1 -6.28262e-16 -1.01037e-16
    outer loop
      vertex -8 6.52916 14.5179
      vertex -8 8.31782 5
      vertex -8 7.92284 7
    endloop
  endfacet
  facet normal -1 -6.28262e-16 -1.01037e-16
    outer loop
      vertex -8 6.52916 14.5179
      vertex -8 7.92284 7
      vertex -8 7.80865 7
    endloop
  endfacet
  facet normal 0 -0.985824 -0.16778
    outer loop
      vertex -8 7.92284 6.32908
      vertex -8 8.14904 5
      vertex -6.03321 8.14904 5
    endloop
  endfacet
  facet normal 0 -0.985824 -0.16778
    outer loop
      vertex -6.30785 7.92284 6.32908
      vertex -8 7.92284 6.32908
      vertex -6.03321 8.14904 5
    endloop
  endfacet
  facet normal 2.9751e-17 -0.985824 -0.16778
    outer loop
      vertex -5 7.92284 6.32908
      vertex -6.30785 7.92284 6.32908
      vertex -6.03321 8.14904 5
    endloop
  endfacet
  facet normal 2.9751e-17 -0.985824 -0.16778
    outer loop
      vertex -5 8.14904 5
      vertex -5 7.92284 6.32908
      vertex -6.03321 8.14904 5
    endloop
  endfacet
  facet normal 1 -8.76364e-16 -1.5504e-16
    outer loop
      vertex -5 7.92284 6.32908
      vertex -5 8.14904 5
      vertex -5 8.29605 5
    endloop
  endfacet
  facet normal 1 -8.76364e-16 -1.5504e-16
    outer loop
      vertex -5 7.92284 7
      vertex -5 7.92284 6.32908
      vertex -5 8.29605 5
    endloop
  endfacet
  facet normal 1 -8.76364e-16 -1.5504e-16
    outer loop
      vertex -5 6.52916 14.5179
      vertex -5 7.80865 7
      vertex -5 7.20806 12.7277
    endloop
  endfacet
  facet normal 1 -8.76364e-16 -1.5504e-16
    outer loop
      vertex -5 7.20806 12.7277
      vertex -5 7.92284 7
      vertex -5 8.29605 5
    endloop
  endfacet
  facet normal 1 -8.76364e-16 -1.5504e-16
    outer loop
      vertex -5 7.80865 7
      vertex -5 7.92284 7
      vertex -5 7.20806 12.7277
    endloop
  endfacet
  facet normal 1 -2.11521e-16 -6.14368e-17
    outer loop
      vertex -5 7.20806 12.7277
      vertex -5 8.29605 5
      vertex -5 8.84339 5
    endloop
  endfacet
  facet normal 1 -2.11521e-16 -6.14368e-17
    outer loop
      vertex -5 8.64111 11.4582
      vertex -5 7.20806 12.7277
      vertex -5 8.84339 5
    endloop
  endfacet
  facet normal 1 -5.76608e-17 -5.66176e-17
    outer loop
      vertex -5 8.64111 11.4582
      vertex -5 8.84339 5
      vertex -5 9.68182 5
    endloop
  endfacet
  facet normal 1 -5.76608e-17 -5.66176e-17
    outer loop
      vertex -5 10.5 11
      vertex -5 8.64111 11.4582
      vertex -5 9.68182 5
    endloop
  endfacet
  facet normal 1 0 -6.44805e-17
    outer loop
      vertex -5 10.5 11
      vertex -5 9.68182 5
      vertex -5 14.0455 5
    endloop
  endfacet
  facet normal 1 5.2022e-17 -3.37402e-17
    outer loop
      vertex -5 14.0455 5
      vertex -5 14.9748 5
      vertex -5 12.3589 11.4582
    endloop
  endfacet
  facet normal 1 5.2022e-17 -3.37402e-17
    outer loop
      vertex -5 10.5 11
      vertex -5 14.0455 5
      vertex -5 12.3589 11.4582
    endloop
  endfacet
  facet normal -1 8.73869e-17 -1.08195e-17
    outer loop
      vertex 5 11.4573 18.8838
      vertex 5 13.1525 17.994
      vertex 5 15.5324 5
    endloop
  endfacet
  facet normal -1 8.73869e-17 -1.08195e-17
    outer loop
      vertex 5 15.5324 5
      vertex 5 13.1525 17.994
      vertex 5 15.9309 5
    endloop
  endfacet
  facet normal -1 0 -3.64691e-17
    outer loop
      vertex 5 9.54274 18.8838
      vertex 5 11.4573 18.8838
      vertex 5 9.4613 16.0503
    endloop
  endfacet
  facet normal -1 0 -3.64691e-17
    outer loop
      vertex 5 11.9289 15.825
      vertex 5 11.4573 18.8838
      vertex 5 15.5324 5
    endloop
  endfacet
  facet normal -1 0 -3.64691e-17
    outer loop
      vertex 5 9.40191 13.984
      vertex 5 15.5324 5
      vertex 5 9.1437 5
    endloop
  endfacet
  facet normal -1 0 -3.64691e-17
    outer loop
      vertex 5 10.5 13.35
      vertex 5 15.5324 5
      vertex 5 9.40191 13.984
    endloop
  endfacet
  facet normal -1 0 -3.64691e-17
    outer loop
      vertex 5 10.5 16.65
      vertex 5 11.4573 18.8838
      vertex 5 11.9289 15.825
    endloop
  endfacet
  facet normal -1 0 -3.64691e-17
    outer loop
      vertex 5 11.9289 14.175
      vertex 5 11.9289 15.825
      vertex 5 15.5324 5
    endloop
  endfacet
  facet normal -1 0 -3.64691e-17
    outer loop
      vertex 5 9.4613 16.0503
      vertex 5 11.4573 18.8838
      vertex 5 10.5 16.65
    endloop
  endfacet
  facet normal -1 0 -3.64691e-17
    outer loop
      vertex 5 11.9289 14.175
      vertex 5 15.5324 5
      vertex 5 10.5 13.35
    endloop
  endfacet
  facet normal -1 -7.50571e-17 -3.43119e-17
    outer loop
      vertex 5 9.54274 18.8838
      vertex 5 9.4613 16.0503
      vertex 5 7.84751 17.994
    endloop
  endfacet
  facet normal -1 -7.50571e-17 -3.43119e-17
    outer loop
      vertex 5 7.84751 17.994
      vertex 5 9.4613 16.0503
      vertex 5 9.07106 15.825
    endloop
  endfacet
  facet normal -1 -7.50571e-17 -3.43119e-17
    outer loop
      vertex 5 7.84751 17.994
      vertex 5 9.07106 15.825
      vertex 5 9.07106 14.175
    endloop
  endfacet
  facet normal -1 -7.50571e-17 -3.43119e-17
    outer loop
      vertex 5 9.07106 14.175
      vertex 5 9.40191 13.984
      vertex 5 9.1437 5
    endloop
  endfacet
  facet normal -1 -7.50571e-17 -3.43119e-17
    outer loop
      vertex 5 9.07106 14.175
      vertex 5 9.1437 5
      vertex 5 7.84751 17.994
    endloop
  endfacet
  facet normal -1 -7.50571e-17 -3.43119e-17
    outer loop
      vertex 5 7.84751 17.994
      vertex 5 9.1437 5
      vertex 5 8.67976 5
    endloop
  endfacet
  facet normal -1 -1.95966e-16 -4.20559e-17
    outer loop
      vertex 5 7.84751 17.994
      vertex 5 8.67976 5
      vertex 5 6.75993 16.4184
    endloop
  endfacet
  facet normal -1 -1.95966e-16 -4.20559e-17
    outer loop
      vertex 5 6.75993 16.4184
      vertex 5 8.67976 5
      vertex 5 8.31782 5
    endloop
  endfacet
  facet normal -1 -6.28262e-16 -1.01037e-16
    outer loop
      vertex 5 6.75993 16.4184
      vertex 5 8.31782 5
      vertex 5 6.52916 14.5179
    endloop
  endfacet
  facet normal -1 -6.28262e-16 -1.01037e-16
    outer loop
      vertex 5 7.92284 6.32908
      vertex 5 8.31782 5
      vertex 5 8.14904 5
    endloop
  endfacet
  facet normal -1 -6.28262e-16 -1.01037e-16
    outer loop
      vertex 5 7.92284 7
      vertex 5 8.31782 5
      vertex 5 7.92284 6.32908
    endloop
  endfacet
  facet normal -1 -6.28262e-16 -1.01037e-16
    outer loop
      vertex 5 6.52916 14.5179
      vertex 5 8.31782 5
      vertex 5 7.92284 7
    endloop
  endfacet
  facet normal -1 -6.28262e-16 -1.01037e-16
    outer loop
      vertex 5 6.52916 14.5179
      vertex 5 7.92284 7
      vertex 5 7.80865 7
    endloop
  endfacet
  facet normal 0 -0.985824 -0.16778
    outer loop
      vertex 5 7.92284 6.32908
      vertex 5 8.14904 5
      vertex 6.96679 8.14904 5
    endloop
  endfacet
  facet normal 0 -0.985824 -0.16778
    outer loop
      vertex 6.69215 7.92284 6.32908
      vertex 5 7.92284 6.32908
      vertex 6.96679 8.14904 5
    endloop
  endfacet
  facet normal 2.9751e-17 -0.985824 -0.16778
    outer loop
      vertex 8 7.92284 6.32908
      vertex 6.69215 7.92284 6.32908
      vertex 6.96679 8.14904 5
    endloop
  endfacet
  facet normal 2.9751e-17 -0.985824 -0.16778
    outer loop
      vertex 8 8.14904 5
      vertex 8 7.92284 6.32908
      vertex 6.96679 8.14904 5
    endloop
  endfacet
  facet normal 1 -8.76364e-16 -1.5504e-16
    outer loop
      vertex 8 7.92284 6.32908
      vertex 8 8.14904 5
      vertex 8 8.29605 5
    endloop
  endfacet
  facet normal 1 -8.76364e-16 -1.5504e-16
    outer loop
      vertex 8 7.92284 7
      vertex 8 7.92284 6.32908
      vertex 8 8.29605 5
    endloop
  endfacet
  facet normal 1 -8.76364e-16 -1.5504e-16
    outer loop
      vertex 8 6.52916 14.5179
      vertex 8 7.80865 7
      vertex 8 7.20806 12.7277
    endloop
  endfacet
  facet normal 1 -8.76364e-16 -1.5504e-16
    outer loop
      vertex 8 7.20806 12.7277
      vertex 8 7.92284 7
      vertex 8 8.29605 5
    endloop
  endfacet
  facet normal 1 -8.76364e-16 -1.5504e-16
    outer loop
      vertex 8 7.80865 7
      vertex 8 7.92284 7
      vertex 8 7.20806 12.7277
    endloop
  endfacet
  facet normal 1 -2.11521e-16 -6.14368e-17
    outer loop
      vertex 8 7.20806 12.7277
      vertex 8 8.29605 5
      vertex 8 8.84339 5
    endloop
  endfacet
  facet normal 1 -2.11521e-16 -6.14368e-17
    outer loop
      vertex 8 8.64111 11.4582
      vertex 8 7.20806 12.7277
      vertex 8 8.84339 5
    endloop
  endfacet
  facet normal 1 -5.76608e-17 -5.66176e-17
    outer loop
      vertex 8 8.64111 11.4582
      vertex 8 8.84339 5
      vertex 8 9.68182 5
    endloop
  endfacet
  facet normal 1 -5.76608e-17 -5.66176e-17
    outer loop
      vertex 8 10.5 11
      vertex 8 8.64111 11.4582
      vertex 8 9.68182 5
    endloop
  endfacet
  facet normal 1 0 -6.44805e-17
    outer loop
      vertex 8 10.5 11
      vertex 8 9.68182 5
      vertex 8 14.0455 5
    endloop
  endfacet
  facet normal 1 5.2022e-17 -3.37402e-17
    outer loop
      vertex 8 14.0455 5
      vertex 8 14.9748 5
      vertex 8 12.3589 11.4582
    endloop
  endfacet
  facet normal 1 5.2022e-17 -3.37402e-17
    outer loop
      vertex 8 10.5 11
      vertex 8 14.0455 5
      vertex 8 12.3589 11.4582
    endloop
  endfacet
  facet normal 0.866025 0.5 0
    outer loop
      vertex -9.875 5 5
      vertex -8.1875 2.07716 5
      vertex -8.1875 2.07716 3
    endloop
  endfacet
  facet normal 0.866025 0.5 0
    outer loop
      vertex -9.875 5 3
      vertex -9.875 5 5
      vertex -8.1875 2.07716 3
    endloop
  endfacet
  facet normal 0 1 0
    outer loop
      vertex -4.8125 2.07716 5
      vertex -4.8125 2.07716 3
      vertex -8.1875 2.07716 5
    endloop
  endfacet
  facet normal 0 1 0
    outer loop
      vertex -8.1875 2.07716 5
      vertex -4.8125 2.07716 3
      vertex -8.1875 2.07716 3
    endloop
  endfacet
  facet normal -0.866025 0.5 0
    outer loop
      vertex -3.125 5 5
      vertex -3.125 5 3
      vertex -4.8125 2.07716 5
    endloop
  endfacet
  facet normal -0.866025 0.5 0
    outer loop
      vertex -4.8125 2.07716 5
      vertex -3.125 5 3
      vertex -4.8125 2.07716 3
    endloop
  endfacet
  facet normal -0.866025 -0.5 0
    outer loop
      vertex -3.125 5 5
      vertex -4.8125 7.92284 5
      vertex -3.125 5 3
    endloop
  endfacet
  facet normal -0.866025 -0.5 0
    outer loop
      vertex -3.125 5 3
      vertex -4.8125 7.92284 5
      vertex -4.8125 7.92284 3
    endloop
  endfacet
  facet normal 0 -1 0
    outer loop
      vertex -4.8125 7.92284 3
      vertex -4.8125 7.92284 5
      vertex -8.1875 7.92284 5
    endloop
  endfacet
  facet normal 0 -1 0
    outer loop
      vertex -8.1875 7.92284 3
      vertex -4.8125 7.92284 3
      vertex -8.1875 7.92284 5
    endloop
  endfacet
  facet normal 0.866025 -0.5 0
    outer loop
      vertex -8.1875 7.92284 3
      vertex -8.1875 7.92284 5
      vertex -9.875 5 5
    endloop
  endfacet
  facet normal 0.866025 -0.5 0
    outer loop
      vertex -9.875 5 3
      vertex -8.1875 7.92284 3
      vertex -9.875 5 5
    endloop
  endfacet
  facet normal 0.866025 0.5 0
    outer loop
      vertex 3.125 5 5
      vertex 4.8125 2.07716 5
      vertex 4.8125 2.07716 3
    endloop
  endfacet
  facet normal 0.866025 0.5 0
    outer loop
      vertex 3.125 5 3
      vertex 3.125 5 5
      vertex 4.8125 2.07716 3
    endloop
  endfacet
  facet normal 0 1 0
    outer loop
      vertex 8.1875 2.07716 5
      vertex 8.1875 2.07716 3
      vertex 4.8125 2.07716 5
    endloop
  endfacet
  facet normal 0 1 0
    outer loop
      vertex 4.8125 2.07716 5
      vertex 8.1875 2.07716 3
      vertex 4.8125 2.07716 3
    endloop
  endfacet
  facet normal -0.866025 0.5 0
    outer loop
      vertex 9.875 5 5
      vertex 9.875 5 3
      vertex 8.1875 2.07716 5
    endloop
  endfacet
  facet normal -0.866025 0.5 0
    outer loop
      vertex 8.1875 2.07716 5
      vertex 9.875 5 3
      vertex 8.1875 2.07716 3
    endloop
  endfacet
  facet normal -0.866025 -0.5 0
    outer loop
      vertex 9.875 5 5
      vertex 8.1875 7.92284 5
      vertex 9.875 5 3
    endloop
  endfacet
  facet normal -0.866025 -0.5 0
    outer loop
      vertex 9.875 5 3
      vertex 8.1875 7.92284 5
      vertex 8.1875 7.92284 3
    endloop
  endfacet
  facet normal 0 -1 0
    outer loop
      vertex 8.1875 7.92284 3
      vertex 8.1875 7.92284 5
      vertex 4.8125 7.92284 5
    endloop
  endfacet
  facet normal 0 -1 0
    outer loop
      vertex 4.8125 7.92284 3
      vertex 8.1875 7.92284 3
      vertex 4.8125 7.92284 5
    endloop
  endfacet
  facet normal 0.866025 -0.5 0
    outer loop
      vertex 4.8125 7.92284 3
      vertex 4.8125 7.92284 5
      vertex 3.125 5 5
    endloop
  endfacet
  facet normal 0.866025 -0.5 0
    outer loop
      vertex 3.125 5 3
      vertex 4.8125 7.92284 3
      vertex 3.125 5 5
    endloop
  endfacet
  facet normal 0 0 1
    outer loop
      vertex -8.1875 2.07716 3
      vertex -4.8125 2.07716 3
      vertex -3.125 5 3
    endloop
  endfacet
  facet normal 0 0 1
    outer loop
      vertex -5.675 3.57106 3
      vertex -8.1875 2.07716 3
      vertex -3.125 5 3
    endloop
  endfacet
  facet normal 0 0 1
    outer loop
      vertex -9.875 5 3
      vertex -8.1875 2.07716 3
      vertex -8.1875 7.92284 3
    endloop
  endfacet
  facet normal 0 0 1
    outer loop
      vertex -8.1875 7.92284 3
      vertex -8.1875 2.07716 3
      vertex -8.15 5 3
    endloop
  endfacet
  facet normal 0 0 1
    outer loop
      vertex -8.1875 7.92284 3
      vertex -7.325 6.42894 3
      vertex -4.8125 7.92284 3
    endloop
  endfacet
  facet normal 0 0 1
    outer loop
      vertex -8.1875 7.92284 3
      vertex -8.15 5 3
      vertex -7.325 6.42894 3
    endloop
  endfacet
  facet normal 0 0 1
    outer loop
      vertex -4.8125 7.92284 3
      vertex -5.675 6.42894 3
      vertex -3.125 5 3
    endloop
  endfacet
  facet normal 0 0 1
    outer loop
      vertex -5.675 6.42894 3
      vertex -4.85 5 3
      vertex -3.125 5 3
    endloop
  endfacet
  facet normal 0 0 1
    outer loop
      vertex -4.85 5 3
      vertex -5.675 3.57106 3
      vertex -3.125 5 3
    endloop
  endfacet
  facet normal 0 0 1
    outer loop
      vertex -5.675 3.57106 3
      vertex -7.325 3.57106 3
      vertex -8.1875 2.07716 3
    endloop
  endfacet
  facet normal 0 0 1
    outer loop
      vertex -8.15 5 3
      vertex -8.1875 2.07716 3
      vertex -7.325 3.57106 3
    endloop
  endfacet
  facet normal 0 0 1
    outer loop
      vertex -7.325 6.42894 3
      vertex -5.675 6.42894 3
      vertex -4.8125 7.92284 3
    endloop
  endfacet
  facet normal 0 0 1
    outer loop
      vertex 4.8125 2.07716 3
      vertex 8.1875 2.07716 3
      vertex 9.875 5 3
    endloop
  endfacet
  facet normal 0 0 1
    outer loop
      vertex 7.325 3.57106 3
      vertex 4.8125 2.07716 3
      vertex 9.875 5 3
    endloop
  endfacet
  facet normal 0 0 1
    outer loop
      vertex 3.125 5 3
      vertex 4.8125 2.07716 3
      vertex 4.8125 7.92284 3
    endloop
  endfacet
  facet normal 0 0 1
    outer loop
      vertex 4.8125 7.92284 3
      vertex 4.8125 2.07716 3
      vertex 4.85 5 3
    endloop
  endfacet
  facet normal 0 0 1
    outer loop
      vertex 4.8125 7.92284 3
      vertex 5.675 6.42894 3
      vertex 8.1875 7.92284 3
    endloop
  endfacet
  facet normal 0 0 1
    outer loop
      vertex 4.8125 7.92284 3
      vertex 4.85 5 3
      vertex 5.675 6.42894 3
    endloop
  endfacet
  facet normal 0 0 1
    outer loop
      vertex 8.1875 7.92284 3
      vertex 7.325 6.42894 3
      vertex 9.875 5 3
    endloop
  endfacet
  facet normal 0 0 1
    outer loop
      vertex 7.325 6.42894 3
      vertex 8.15 5 3
      vertex 9.875 5 3
    endloop
  endfacet
  facet normal 0 0 1
    outer loop
      vertex 8.15 5 3
      vertex 7.325 3.57106 3
      vertex 9.875 5 3
    endloop
  endfacet
  facet normal 0 0 1
    outer loop
      vertex 7.325 3.57106 3
      vertex 5.675 3.57106 3
      vertex 4.8125 2.07716 3
    endloop
  endfacet
  facet normal 0 0 1
    outer loop
      vertex 4.85 5 3
      vertex 4.8125 2.07716 3
      vertex 5.675 3.57106 3
    endloop
  endfacet
  facet normal 0 0 1
    outer loop
      vertex 5.675 6.42894 3
      vertex 7.325 6.42894 3
      vertex 8.1875 7.92284 3
    endloop
  endfacet
  facet normal -1.0073e-16 0.822984 0.568065
    outer loop
      vertex 5 13.1525 17.994
      vertex 8 13.1525 17.994
      vertex 5 14.2401 16.4184
    endloop
  endfacet
  facet normal -1.0073e-16 0.822984 0.568065
    outer loop
      vertex 5 14.2401 16.4184
      vertex 8 13.1525 17.994
      vertex 8 14.2401 16.4184
    endloop
  endfacet
  facet normal 1 0 1.77321e-16
    outer loop
      vertex 8 11.4573 18.8838
      vertex 8 9.54274 18.8838
      vertex 8 7.84751 17.994
    endloop
  endfacet
  facet normal 1 0 1.77321e-16
    outer loop
      vertex 8 6.52916 14.5179
      vertex 8 11.4573 18.8838
      vertex 8 6.75993 16.4184
    endloop
  endfacet
  facet normal 1 0 1.77321e-16
    outer loop
      vertex 8 6.75993 16.4184
      vertex 8 11.4573 18.8838
      vertex 8 7.84751 17.994
    endloop
  endfacet
  facet normal 1 0 1.77321e-16
    outer loop
      vertex 8 9.07106 15.825
      vertex 8 11.4573 18.8838
      vertex 8 6.52916 14.5179
    endloop
  endfacet
  facet normal 1 0 1.77321e-16
    outer loop
      vertex 8 10.5 13.35
      vertex 8 9.07106 14.175
      vertex 8 8.64111 11.4582
    endloop
  endfacet
  facet normal 1 0 1.77321e-16
    outer loop
      vertex 8 14.4708 14.5179
      vertex 8 11.4573 18.8838
      vertex 8 13.7919 12.7277
    endloop
  endfacet
  facet normal 1 0 1.77321e-16
    outer loop
      vertex 8 14.2401 16.4184
      vertex 8 11.4573 18.8838
      vertex 8 14.4708 14.5179
    endloop
  endfacet
  facet normal 1 0 1.77321e-16
    outer loop
      vertex 8 13.1525 17.994
      vertex 8 11.4573 18.8838
      vertex 8 14.2401 16.4184
    endloop
  endfacet
  facet normal 1 0 1.77321e-16
    outer loop
      vertex 8 7.20806 12.7277
      vertex 8 9.07106 15.825
      vertex 8 6.52916 14.5179
    endloop
  endfacet
  facet normal 1 0 1.77321e-16
    outer loop
      vertex 8 11.9289 15.825
      vertex 8 11.9289 14.175
      vertex 8 12.3589 11.4582
    endloop
  endfacet
  facet normal 1 0 1.77321e-16
    outer loop
      vertex 8 13.7919 12.7277
      vertex 8 11.9289 15.825
      vertex 8 12.3589 11.4582
    endloop
  endfacet
  facet normal 1 0 1.77321e-16
    outer loop
      vertex 8 13.7919 12.7277
      vertex 8 11.4573 18.8838
      vertex 8 11.9289 15.825
    endloop
  endfacet
  facet normal 1 0 1.77321e-16
    outer loop
      vertex 8 12.3589 11.4582
      vertex 8 11.9289 14.175
      vertex 8 10.5 11
    endloop
  endfacet
  facet normal 1 0 1.77321e-16
    outer loop
      vertex 8 11.9289 14.175
      vertex 8 10.5 13.35
      vertex 8 10.5 11
    endloop
  endfacet
  facet normal 1 0 1.77321e-16
    outer loop
      vertex 8 10.5 11
      vertex 8 10.5 13.35
      vertex 8 8.64111 11.4582
    endloop
  endfacet
  facet normal 1 0 1.77321e-16
    outer loop
      vertex 8 8.64111 11.4582
      vertex 8 9.07106 14.175
      vertex 8 7.20806 12.7277
    endloop
  endfacet
  facet normal 1 0 1.77321e-16
    outer loop
      vertex 8 9.07106 15.825
      vertex 8 10.5 16.65
      vertex 8 11.4573 18.8838
    endloop
  endfacet
  facet normal 1 0 1.77321e-16
    outer loop
      vertex 8 9.07106 14.175
      vertex 8 9.07106 15.825
      vertex 8 7.20806 12.7277
    endloop
  endfacet
  facet normal 1 0 1.77321e-16
    outer loop
      vertex 8 10.5 16.65
      vertex 8 11.9289 15.825
      vertex 8 11.4573 18.8838
    endloop
  endfacet
  facet normal -1.5701e-16 0.464723 0.885456
    outer loop
      vertex 5 13.1525 17.994
      vertex 5 11.4573 18.8838
      vertex 8 11.4573 18.8838
    endloop
  endfacet
  facet normal -1.5701e-16 0.464723 0.885456
    outer loop
      vertex 8 13.1525 17.994
      vertex 5 13.1525 17.994
      vertex 8 11.4573 18.8838
    endloop
  endfacet
  facet normal -1.0073e-16 0.822984 0.568065
    outer loop
      vertex -8 13.1525 17.994
      vertex -5 13.1525 17.994
      vertex -8 14.2401 16.4184
    endloop
  endfacet
  facet normal -1.0073e-16 0.822984 0.568065
    outer loop
      vertex -8 14.2401 16.4184
      vertex -5 13.1525 17.994
      vertex -5 14.2401 16.4184
    endloop
  endfacet
  facet normal 1 0 1.77321e-16
    outer loop
      vertex -5 11.4573 18.8838
      vertex -5 9.54274 18.8838
      vertex -5 7.84751 17.994
    endloop
  endfacet
  facet normal 1 0 1.77321e-16
    outer loop
      vertex -5 6.52916 14.5179
      vertex -5 11.4573 18.8838
      vertex -5 6.75993 16.4184
    endloop
  endfacet
  facet normal 1 0 1.77321e-16
    outer loop
      vertex -5 6.75993 16.4184
      vertex -5 11.4573 18.8838
      vertex -5 7.84751 17.994
    endloop
  endfacet
  facet normal 1 0 1.77321e-16
    outer loop
      vertex -5 9.07106 15.825
      vertex -5 11.4573 18.8838
      vertex -5 6.52916 14.5179
    endloop
  endfacet
  facet normal 1 0 1.77321e-16
    outer loop
      vertex -5 10.5 13.35
      vertex -5 9.07106 14.175
      vertex -5 8.64111 11.4582
    endloop
  endfacet
  facet normal 1 0 1.77321e-16
    outer loop
      vertex -5 14.4708 14.5179
      vertex -5 11.4573 18.8838
      vertex -5 13.7919 12.7277
    endloop
  endfacet
  facet normal 1 0 1.77321e-16
    outer loop
      vertex -5 14.2401 16.4184
      vertex -5 11.4573 18.8838
      vertex -5 14.4708 14.5179
    endloop
  endfacet
  facet normal 1 0 1.77321e-16
    outer loop
      vertex -5 13.1525 17.994
      vertex -5 11.4573 18.8838
      vertex -5 14.2401 16.4184
    endloop
  endfacet
  facet normal 1 0 1.77321e-16
    outer loop
      vertex -5 7.20806 12.7277
      vertex -5 9.07106 15.825
      vertex -5 6.52916 14.5179
    endloop
  endfacet
  facet normal 1 0 1.77321e-16
    outer loop
      vertex -5 11.9289 15.825
      vertex -5 11.9289 14.175
      vertex -5 12.3589 11.4582
    endloop
  endfacet
  facet normal 1 0 1.77321e-16
    outer loop
      vertex -5 13.7919 12.7277
      vertex -5 11.9289 15.825
      vertex -5 12.3589 11.4582
    endloop
  endfacet
  facet normal 1 0 1.77321e-16
    outer loop
      vertex -5 13.7919 12.7277
      vertex -5 11.4573 18.8838
      vertex -5 11.9289 15.825
    endloop
  endfacet
  facet normal 1 0 1.77321e-16
    outer loop
      vertex -5 12.3589 11.4582
      vertex -5 11.9289 14.175
      vertex -5 10.5 11
    endloop
  endfacet
  facet normal 1 0 1.77321e-16
    outer loop
      vertex -5 11.9289 14.175
      vertex -5 10.5 13.35
      vertex -5 10.5 11
    endloop
  endfacet
  facet normal 1 0 1.77321e-16
    outer loop
      vertex -5 10.5 11
      vertex -5 10.5 13.35
      vertex -5 8.64111 11.4582
    endloop
  endfacet
  facet normal 1 0 1.77321e-16
    outer loop
      vertex -5 8.64111 11.4582
      vertex -5 9.07106 14.175
      vertex -5 7.20806 12.7277
    endloop
  endfacet
  facet normal 1 0 1.77321e-16
    outer loop
      vertex -5 9.07106 15.825
      vertex -5 10.5 16.65
      vertex -5 11.4573 18.8838
    endloop
  endfacet
  facet normal 1 0 1.77321e-16
    outer loop
      vertex -5 9.07106 14.175
      vertex -5 9.07106 15.825
      vertex -5 7.20806 12.7277
    endloop
  endfacet
  facet normal 1 0 1.77321e-16
    outer loop
      vertex -5 10.5 16.65
      vertex -5 11.9289 15.825
      vertex -5 11.4573 18.8838
    endloop
  endfacet
  facet normal -1.5701e-16 0.464723 0.885456
    outer loop
      vertex -8 13.1525 17.994
      vertex -8 11.4573 18.8838
      vertex -5 11.4573 18.8838
    endloop
  endfacet
  facet normal -1.5701e-16 0.464723 0.885456
    outer loop
      vertex -5 13.1525 17.994
      vertex -8 13.1525 17.994
      vertex -5 11.4573 18.8838
    endloop
  endfacet
  facet normal -1.77321e-16 0 1
    outer loop
      vertex -8 11.4573 18.8838
      vertex -8 9.54274 18.8838
      vertex -5 9.54274 18.8838
    endloop
  endfacet
  facet normal -1.77321e-16 0 1
    outer loop
      vertex -5 11.4573 18.8838
      vertex -8 11.4573 18.8838
      vertex -5 9.54274 18.8838
    endloop
  endfacet
  facet normal 1.53565e-16 0.5 -0.866025
    outer loop
      vertex -5 9.07106 15.825
      vertex -8 9.07106 15.825
      vertex -5 10.5 16.65
    endloop
  endfacet
  facet normal 1.53565e-16 0.5 -0.866025
    outer loop
      vertex -5 10.5 16.65
      vertex -8 9.07106 15.825
      vertex -8 9.4613 16.0503
    endloop
  endfacet
  facet normal 1.53565e-16 0.5 -0.866025
    outer loop
      vertex -5 10.5 16.65
      vertex -8 9.4613 16.0503
      vertex -8 10.5 16.65
    endloop
  endfacet
  facet normal 1.53565e-16 -0.5 -0.866025
    outer loop
      vertex -5 11.9289 15.825
      vertex -5 10.5 16.65
      vertex -8 11.9289 15.825
    endloop
  endfacet
  facet normal 1.53565e-16 -0.5 -0.866025
    outer loop
      vertex -8 11.9289 15.825
      vertex -5 10.5 16.65
      vertex -8 10.5 16.65
    endloop
  endfacet
  facet normal 0 -1 0
    outer loop
      vertex -8 11.9289 14.175
      vertex -5 11.9289 14.175
      vertex -5 11.9289 15.825
    endloop
  endfacet
  facet normal 0 -1 0
    outer loop
      vertex -8 11.9289 15.825
      vertex -8 11.9289 14.175
      vertex -5 11.9289 15.825
    endloop
  endfacet
  facet normal -1.53565e-16 -0.5 0.866025
    outer loop
      vertex -8 10.5 13.35
      vertex -5 10.5 13.35
      vertex -5 11.9289 14.175
    endloop
  endfacet
  facet normal -1.53565e-16 -0.5 0.866025
    outer loop
      vertex -8 11.9289 14.175
      vertex -8 10.5 13.35
      vertex -5 11.9289 14.175
    endloop
  endfacet
  facet normal -1.53565e-16 0.5 0.866025
    outer loop
      vertex -8 9.07106 14.175
      vertex -5 9.07106 14.175
      vertex -5 10.5 13.35
    endloop
  endfacet
  facet normal -1.53565e-16 0.5 0.866025
    outer loop
      vertex -8 9.40191 13.984
      vertex -8 9.07106 14.175
      vertex -8 10.5 13.35
    endloop
  endfacet
  facet normal -1.53565e-16 0.5 0.866025
    outer loop
      vertex -8 10.5 13.35
      vertex -8 9.07106 14.175
      vertex -5 10.5 13.35
    endloop
  endfacet
  facet normal -1.5701e-16 -0.464723 0.885456
    outer loop
      vertex -5 9.54274 18.8838
      vertex -8 9.54274 18.8838
      vertex -8 7.84751 17.994
    endloop
  endfacet
  facet normal -1.5701e-16 -0.464723 0.885456
    outer loop
      vertex -5 7.84751 17.994
      vertex -5 9.54274 18.8838
      vertex -8 7.84751 17.994
    endloop
  endfacet
  facet normal -1.0073e-16 -0.822984 0.568065
    outer loop
      vertex -5 7.84751 17.994
      vertex -8 7.84751 17.994
      vertex -8 6.75993 16.4184
    endloop
  endfacet
  facet normal -1.0073e-16 -0.822984 0.568065
    outer loop
      vertex -5 6.75993 16.4184
      vertex -5 7.84751 17.994
      vertex -8 6.75993 16.4184
    endloop
  endfacet
  facet normal 0 1 0
    outer loop
      vertex -5 9.07106 14.175
      vertex -8 9.07106 14.175
      vertex -5 9.07106 15.825
    endloop
  endfacet
  facet normal 0 1 0
    outer loop
      vertex -5 9.07106 15.825
      vertex -8 9.07106 14.175
      vertex -8 9.07106 15.825
    endloop
  endfacet
  facet normal -2.13737e-17 -0.992709 0.120536
    outer loop
      vertex -5 6.75993 16.4184
      vertex -8 6.75993 16.4184
      vertex -8 6.52916 14.5179
    endloop
  endfacet
  facet normal -2.13737e-17 -0.992709 0.120536
    outer loop
      vertex -5 6.52916 14.5179
      vertex -5 6.75993 16.4184
      vertex -8 6.52916 14.5179
    endloop
  endfacet
  facet normal 2.9751e-17 -0.985824 -0.16778
    outer loop
      vertex -5 6.52916 14.5179
      vertex -8 6.52916 14.5179
      vertex -6.44649 7.80865 7
    endloop
  endfacet
  facet normal 2.9751e-17 -0.985824 -0.16778
    outer loop
      vertex -5 7.80865 7
      vertex -5 6.52916 14.5179
      vertex -6.44649 7.80865 7
    endloop
  endfacet
  facet normal 0 -0.985824 -0.16778
    outer loop
      vertex -8 6.52916 14.5179
      vertex -8 7.80865 7
      vertex -6.44649 7.80865 7
    endloop
  endfacet
  facet normal 0 0 -1
    outer loop
      vertex -5 7.80865 7
      vertex -6.44649 7.80865 7
      vertex -5 7.92284 7
    endloop
  endfacet
  facet normal 0 0 -1
    outer loop
      vertex -5 7.92284 7
      vertex -6.44649 7.80865 7
      vertex -8 7.80865 7
    endloop
  endfacet
  facet normal 0 0 -1
    outer loop
      vertex -5 7.92284 7
      vertex -8 7.80865 7
      vertex -8 7.92284 7
    endloop
  endfacet
  facet normal 0 -1 0
    outer loop
      vertex -8 7.92284 6.32908
      vertex -6.30785 7.92284 6.32908
      vertex -5 7.92284 6.32908
    endloop
  endfacet
  facet normal 0 -1 0
    outer loop
      vertex -8 7.92284 7
      vertex -8 7.92284 6.32908
      vertex -5 7.92284 7
    endloop
  endfacet
  facet normal 0 -1 0
    outer loop
      vertex -5 7.92284 7
      vertex -8 7.92284 6.32908
      vertex -5 7.92284 6.32908
    endloop
  endfacet
  facet normal -1.77321e-16 0 1
    outer loop
      vertex 5 11.4573 18.8838
      vertex 5 9.54274 18.8838
      vertex 8 9.54274 18.8838
    endloop
  endfacet
  facet normal -1.77321e-16 0 1
    outer loop
      vertex 8 11.4573 18.8838
      vertex 5 11.4573 18.8838
      vertex 8 9.54274 18.8838
    endloop
  endfacet
  facet normal 1.53565e-16 0.5 -0.866025
    outer loop
      vertex 8 9.07106 15.825
      vertex 5 9.07106 15.825
      vertex 8 10.5 16.65
    endloop
  endfacet
  facet normal 1.53565e-16 0.5 -0.866025
    outer loop
      vertex 8 10.5 16.65
      vertex 5 9.07106 15.825
      vertex 5 9.4613 16.0503
    endloop
  endfacet
  facet normal 1.53565e-16 0.5 -0.866025
    outer loop
      vertex 8 10.5 16.65
      vertex 5 9.4613 16.0503
      vertex 5 10.5 16.65
    endloop
  endfacet
  facet normal 1.53565e-16 -0.5 -0.866025
    outer loop
      vertex 8 11.9289 15.825
      vertex 8 10.5 16.65
      vertex 5 11.9289 15.825
    endloop
  endfacet
  facet normal 1.53565e-16 -0.5 -0.866025
    outer loop
      vertex 5 11.9289 15.825
      vertex 8 10.5 16.65
      vertex 5 10.5 16.65
    endloop
  endfacet
  facet normal 0 -1 0
    outer loop
      vertex 5 11.9289 14.175
      vertex 8 11.9289 14.175
      vertex 8 11.9289 15.825
    endloop
  endfacet
  facet normal 0 -1 0
    outer loop
      vertex 5 11.9289 15.825
      vertex 5 11.9289 14.175
      vertex 8 11.9289 15.825
    endloop
  endfacet
  facet normal -1.53565e-16 -0.5 0.866025
    outer loop
      vertex 5 10.5 13.35
      vertex 8 10.5 13.35
      vertex 8 11.9289 14.175
    endloop
  endfacet
  facet normal -1.53565e-16 -0.5 0.866025
    outer loop
      vertex 5 11.9289 14.175
      vertex 5 10.5 13.35
      vertex 8 11.9289 14.175
    endloop
  endfacet
  facet normal -1.53565e-16 0.5 0.866025
    outer loop
      vertex 5 9.07106 14.175
      vertex 8 9.07106 14.175
      vertex 8 10.5 13.35
    endloop
  endfacet
  facet normal -1.53565e-16 0.5 0.866025
    outer loop
      vertex 5 9.40191 13.984
      vertex 5 9.07106 14.175
      vertex 5 10.5 13.35
    endloop
  endfacet
  facet normal -1.53565e-16 0.5 0.866025
    outer loop
      vertex 5 10.5 13.35
      vertex 5 9.07106 14.175
      vertex 8 10.5 13.35
    endloop
  endfacet
  facet normal -1.5701e-16 -0.464723 0.885456
    outer loop
      vertex 8 9.54274 18.8838
      vertex 5 9.54274 18.8838
      vertex 5 7.84751 17.994
    endloop
  endfacet
  facet normal -1.5701e-16 -0.464723 0.885456
    outer loop
      vertex 8 7.84751 17.994
      vertex 8 9.54274 18.8838
      vertex 5 7.84751 17.994
    endloop
  endfacet
  facet normal -1.0073e-16 -0.822984 0.568065
    outer loop
      vertex 8 7.84751 17.994
      vertex 5 7.84751 17.994
      vertex 5 6.75993 16.4184
    endloop
  endfacet
  facet normal -1.0073e-16 -0.822984 0.568065
    outer loop
      vertex 8 6.75993 16.4184
      vertex 8 7.84751 17.994
      vertex 5 6.75993 16.4184
    endloop
  endfacet
  facet normal 0 1 0
    outer loop
      vertex 8 9.07106 14.175
      vertex 5 9.07106 14.175
      vertex 8 9.07106 15.825
    endloop
  endfacet
  facet normal 0 1 0
    outer loop
      vertex 8 9.07106 15.825
      vertex 5 9.07106 14.175
      vertex 5 9.07106 15.825
    endloop
  endfacet
  facet normal -2.13737e-17 -0.992709 0.120536
    outer loop
      vertex 8 6.75993 16.4184
      vertex 5 6.75993 16.4184
      vertex 5 6.52916 14.5179
    endloop
  endfacet
  facet normal -2.13737e-17 -0.992709 0.120536
    outer loop
      vertex 8 6.52916 14.5179
      vertex 8 6.75993 16.4184
      vertex 5 6.52916 14.5179
    endloop
  endfacet
  facet normal 2.9751e-17 -0.985824 -0.16778
    outer loop
      vertex 8 6.52916 14.5179
      vertex 5 6.52916 14.5179
      vertex 6.55351 7.80865 7
    endloop
  endfacet
  facet normal 2.9751e-17 -0.985824 -0.16778
    outer loop
      vertex 8 7.80865 7
      vertex 8 6.52916 14.5179
      vertex 6.55351 7.80865 7
    endloop
  endfacet
  facet normal 0 -0.985824 -0.16778
    outer loop
      vertex 5 6.52916 14.5179
      vertex 5 7.80865 7
      vertex 6.55351 7.80865 7
    endloop
  endfacet
  facet normal 0 0 -1
    outer loop
      vertex 8 7.80865 7
      vertex 6.55351 7.80865 7
      vertex 8 7.92284 7
    endloop
  endfacet
  facet normal 0 0 -1
    outer loop
      vertex 8 7.92284 7
      vertex 6.55351 7.80865 7
      vertex 5 7.80865 7
    endloop
  endfacet
  facet normal 0 0 -1
    outer loop
      vertex 8 7.92284 7
      vertex 5 7.80865 7
      vertex 5 7.92284 7
    endloop
  endfacet
  facet normal 0 -1 0
    outer loop
      vertex 5 7.92284 6.32908
      vertex 6.69215 7.92284 6.32908
      vertex 8 7.92284 6.32908
    endloop
  endfacet
  facet normal 0 -1 0
    outer loop
      vertex 5 7.92284 7
      vertex 5 7.92284 6.32908
      vertex 8 7.92284 7
    endloop
  endfacet
  facet normal 0 -1 0
    outer loop
      vertex 8 7.92284 7
      vertex 5 7.92284 6.32908
      vertex 8 7.92284 6.32908
    endloop
  endfacet
endsolid OpenSCAD_Model
