solid OpenSCAD_Model
  facet normal -0.819152 0.573577 0
    outer loop
      vertex 6.73565 -3.76563 0
      vertex 52.6791 61.8484 4
      vertex 52.6791 61.8484 0
    endloop
  endfacet
  facet normal -0.819152 0.573577 0
    outer loop
      vertex 52.6791 61.8484 4
      vertex 6.73565 -3.76563 0
      vertex 6.73565 -3.76563 4
    endloop
  endfacet
  facet normal 0.819152 -0.573577 0
    outer loop
      vertex 27.4181 32.6586 4
      vertex 49.4435 64.1141 0
      vertex 49.4435 64.1141 4
    endloop
  endfacet
  facet normal 0.819152 -0.573577 0
    outer loop
      vertex 49.4435 64.1141 0
      vertex 27.4181 32.6586 4
      vertex 27.4181 32.6586 0
    endloop
  endfacet
  facet normal -0.573595 -0.819139 0
    outer loop
      vertex 49.4435 64.1141 0
      vertex 52.6791 61.8484 4
      vertex 49.4435 64.1141 4
    endloop
  endfacet
  facet normal -0.573595 -0.819139 -0
    outer loop
      vertex 52.6791 61.8484 4
      vertex 49.4435 64.1141 0
      vertex 52.6791 61.8484 0
    endloop
  endfacet
  facet normal 0.573577 0.819152 -0
    outer loop
      vertex 6.73565 -3.76563 0
      vertex -1.82449 2.22825 4
      vertex 6.73565 -3.76563 4
    endloop
  endfacet
  facet normal 0.573577 0.819152 0
    outer loop
      vertex -1.82449 2.22825 4
      vertex 6.73565 -3.76563 0
      vertex -1.82449 2.22825 0
    endloop
  endfacet
  facet normal 0.819152 -0.573576 0
    outer loop
      vertex 3.53357 4.21414 4
      vertex 24.7559 34.5228 0
      vertex 24.7559 34.5228 4
    endloop
  endfacet
  facet normal 0.819152 -0.573576 0
    outer loop
      vertex 24.7559 34.5228 0
      vertex 3.53357 4.21414 4
      vertex 3.53357 4.21414 0
    endloop
  endfacet
  facet normal -0.573599 -0.819137 0
    outer loop
      vertex 24.7559 34.5228 0
      vertex 27.4181 32.6586 4
      vertex 24.7559 34.5228 4
    endloop
  endfacet
  facet normal -0.573599 -0.819137 -0
    outer loop
      vertex 27.4181 32.6586 4
      vertex 24.7559 34.5228 0
      vertex 27.4181 32.6586 0
    endloop
  endfacet
  facet normal 0.819152 -0.573577 0
    outer loop
      vertex -1.82449 2.22825 4
      vertex 0.871321 6.07826 0
      vertex 0.871321 6.07826 4
    endloop
  endfacet
  facet normal 0.819152 -0.573577 0
    outer loop
      vertex 0.871321 6.07826 0
      vertex -1.82449 2.22825 4
      vertex -1.82449 2.22825 0
    endloop
  endfacet
  facet normal -0.573575 -0.819153 0
    outer loop
      vertex 0.871321 6.07826 0
      vertex 3.53357 4.21414 4
      vertex 0.871321 6.07826 4
    endloop
  endfacet
  facet normal -0.573575 -0.819153 -0
    outer loop
      vertex 3.53357 4.21414 4
      vertex 0.871321 6.07826 0
      vertex 3.53357 4.21414 0
    endloop
  endfacet
  facet normal -0.188354 0.982101 0
    outer loop
      vertex 49.5661 67.4892 0
      vertex 48.4216 67.2697 4
      vertex 49.5661 67.4892 4
    endloop
  endfacet
  facet normal -0.188354 0.982101 0
    outer loop
      vertex 48.4216 67.2697 4
      vertex 49.5661 67.4892 0
      vertex 48.4216 67.2697 0
    endloop
  endfacet
  facet normal 0.222515 -0.974929 0
    outer loop
      vertex 41.3725 -6.44117 0
      vertex 42.5086 -6.18187 4
      vertex 41.3725 -6.44117 4
    endloop
  endfacet
  facet normal 0.222515 -0.974929 0
    outer loop
      vertex 42.5086 -6.18187 4
      vertex 41.3725 -6.44117 0
      vertex 42.5086 -6.18187 0
    endloop
  endfacet
  facet normal 0.393039 -0.919522 0
    outer loop
      vertex 42.5086 -6.18187 0
      vertex 43.5801 -5.72387 4
      vertex 42.5086 -6.18187 4
    endloop
  endfacet
  facet normal 0.393039 -0.919522 0
    outer loop
      vertex 43.5801 -5.72387 4
      vertex 42.5086 -6.18187 0
      vertex 43.5801 -5.72387 0
    endloop
  endfacet
  facet normal -0.772164 0.635423 0
    outer loop
      vertex -5.25861 3.8206 0
      vertex 45.4705 65.4664 4
      vertex 45.4705 65.4664 0
    endloop
  endfacet
  facet normal -0.772164 0.635423 0
    outer loop
      vertex 45.4705 65.4664 4
      vertex -5.25861 3.8206 0
      vertex -5.25861 3.8206 4
    endloop
  endfacet
  facet normal 0.99939 -0.0349263 0
    outer loop
      vertex 56.6628 60.2133 4
      vertex 56.7035 61.3779 0
      vertex 56.7035 61.3779 4
    endloop
  endfacet
  facet normal 0.99939 -0.0349263 0
    outer loop
      vertex 56.7035 61.3779 0
      vertex 56.6628 60.2133 4
      vertex 56.6628 60.2133 0
    endloop
  endfacet
  facet normal -0.936235 -0.351375 0
    outer loop
      vertex -5.8563 -2.82024 0
      vertex -6.26576 -1.72924 4
      vertex -6.26576 -1.72924 0
    endloop
  endfacet
  facet normal -0.936235 -0.351375 0
    outer loop
      vertex -6.26576 -1.72924 4
      vertex -5.8563 -2.82024 0
      vertex -5.8563 -2.82024 4
    endloop
  endfacet
  facet normal -0.473865 -0.880598 0
    outer loop
      vertex -3.58083 -5.42473 0
      vertex -2.55466 -5.97693 4
      vertex -3.58083 -5.42473 4
    endloop
  endfacet
  facet normal -0.473865 -0.880598 -0
    outer loop
      vertex -2.55466 -5.97693 4
      vertex -3.58083 -5.42473 0
      vertex -2.55466 -5.97693 0
    endloop
  endfacet
  facet normal 0.987572 -0.157166 0
    outer loop
      vertex 46.8955 -1.16062 4
      vertex 56.6628 60.2133 0
      vertex 56.6628 60.2133 4
    endloop
  endfacet
  facet normal 0.987572 -0.157166 0
    outer loop
      vertex 56.6628 60.2133 0
      vertex 46.8955 -1.16062 4
      vertex 46.8955 -1.16062 0
    endloop
  endfacet
  facet normal -0.13423 -0.99095 0
    outer loop
      vertex -1.44639 -6.33703 0
      vertex -0.291621 -6.49345 4
      vertex -1.44639 -6.33703 4
    endloop
  endfacet
  facet normal -0.13423 -0.99095 -0
    outer loop
      vertex -0.291621 -6.49345 4
      vertex -1.44639 -6.33703 0
      vertex -0.291621 -6.49345 0
    endloop
  endfacet
  facet normal -0.936235 0.351375 0
    outer loop
      vertex -6.26576 1.72924 0
      vertex -5.8563 2.82024 4
      vertex -5.8563 2.82024 0
    endloop
  endfacet
  facet normal -0.936235 0.351375 0
    outer loop
      vertex -5.8563 2.82024 4
      vertex -6.26576 1.72924 0
      vertex -6.26576 1.72924 4
    endloop
  endfacet
  facet normal -0.665397 0.74649 0
    outer loop
      vertex 46.3404 66.2418 0
      vertex 45.4705 65.4664 4
      vertex 46.3404 66.2418 4
    endloop
  endfacet
  facet normal -0.665397 0.74649 0
    outer loop
      vertex 45.4705 65.4664 4
      vertex 46.3404 66.2418 0
      vertex 45.4705 65.4664 0
    endloop
  endfacet
  facet normal 0 -1 0
    outer loop
      vertex -0.291621 -6.49345 0
      vertex 40.2084 -6.49345 4
      vertex -0.291621 -6.49345 4
    endloop
  endfacet
  facet normal 0 -1 -0
    outer loop
      vertex 40.2084 -6.49345 4
      vertex -0.291621 -6.49345 0
      vertex 40.2084 -6.49345 0
    endloop
  endfacet
  facet normal -0.858448 -0.512901 0
    outer loop
      vertex -5.25861 -3.8206 0
      vertex -5.8563 -2.82024 4
      vertex -5.8563 -2.82024 0
    endloop
  endfacet
  facet normal -0.858448 -0.512901 0
    outer loop
      vertex -5.8563 -2.82024 4
      vertex -5.25861 -3.8206 0
      vertex -5.25861 -3.8206 4
    endloop
  endfacet
  facet normal 0.989565 0.144088 0
    outer loop
      vertex 56.7035 61.3779 4
      vertex 56.5356 62.531 0
      vertex 56.5356 62.531 4
    endloop
  endfacet
  facet normal 0.989565 0.144088 0
    outer loop
      vertex 56.5356 62.531 0
      vertex 56.7035 61.3779 4
      vertex 56.7035 61.3779 0
    endloop
  endfacet
  facet normal 0.809037 -0.587758 0
    outer loop
      vertex 45.395 -4.2766 4
      vertex 46.0799 -3.33385 0
      vertex 46.0799 -3.33385 4
    endloop
  endfacet
  facet normal 0.809037 -0.587758 0
    outer loop
      vertex 46.0799 -3.33385 0
      vertex 45.395 -4.2766 4
      vertex 45.395 -4.2766 0
    endloop
  endfacet
  facet normal -0.309018 -0.951056 0
    outer loop
      vertex -2.55466 -5.97693 0
      vertex -1.44639 -6.33703 4
      vertex -2.55466 -5.97693 4
    endloop
  endfacet
  facet normal -0.309018 -0.951056 -0
    outer loop
      vertex -1.44639 -6.33703 4
      vertex -2.55466 -5.97693 0
      vertex -1.44639 -6.33703 0
    endloop
  endfacet
  facet normal 0.691053 -0.722804 0
    outer loop
      vertex 44.5527 -5.0819 0
      vertex 45.395 -4.2766 4
      vertex 44.5527 -5.0819 4
    endloop
  endfacet
  facet normal 0.691053 -0.722804 0
    outer loop
      vertex 45.395 -4.2766 4
      vertex 44.5527 -5.0819 0
      vertex 45.395 -4.2766 0
    endloop
  endfacet
  facet normal 0.044865 -0.998993 0
    outer loop
      vertex 40.2084 -6.49345 0
      vertex 41.3725 -6.44117 4
      vertex 40.2084 -6.49345 4
    endloop
  endfacet
  facet normal 0.044865 -0.998993 0
    outer loop
      vertex 41.3725 -6.44117 4
      vertex 40.2084 -6.49345 0
      vertex 41.3725 -6.44117 0
    endloop
  endfacet
  facet normal -0.623489 -0.781832 0
    outer loop
      vertex -4.49191 -4.69817 0
      vertex -3.58083 -5.42473 4
      vertex -4.49191 -4.69817 4
    endloop
  endfacet
  facet normal -0.623489 -0.781832 -0
    outer loop
      vertex -3.58083 -5.42473 4
      vertex -4.49191 -4.69817 0
      vertex -3.58083 -5.42473 0
    endloop
  endfacet
  facet normal 0.550874 -0.834588 0
    outer loop
      vertex 43.5801 -5.72387 0
      vertex 44.5527 -5.0819 4
      vertex 43.5801 -5.72387 4
    endloop
  endfacet
  facet normal 0.550874 -0.834588 0
    outer loop
      vertex 44.5527 -5.0819 4
      vertex 43.5801 -5.72387 0
      vertex 44.5527 -5.0819 0
    endloop
  endfacet
  facet normal -0.858448 0.512901 0
    outer loop
      vertex -5.8563 2.82024 0
      vertex -5.25861 3.8206 4
      vertex -5.25861 3.8206 0
    endloop
  endfacet
  facet normal -0.858448 0.512901 0
    outer loop
      vertex -5.25861 3.8206 4
      vertex -5.8563 2.82024 0
      vertex -5.8563 2.82024 4
    endloop
  endfacet
  facet normal 0.650374 0.759614 -0
    outer loop
      vertex 54.8664 65.5601 0
      vertex 53.9812 66.318 4
      vertex 54.8664 65.5601 4
    endloop
  endfacet
  facet normal 0.650374 0.759614 0
    outer loop
      vertex 53.9812 66.318 4
      vertex 54.8664 65.5601 0
      vertex 53.9812 66.318 0
    endloop
  endfacet
  facet normal -0.360698 0.932683 0
    outer loop
      vertex 48.4216 67.2697 0
      vertex 47.3348 66.8494 4
      vertex 48.4216 67.2697 4
    endloop
  endfacet
  facet normal -0.360698 0.932683 0
    outer loop
      vertex 47.3348 66.8494 4
      vertex 48.4216 67.2697 0
      vertex 47.3348 66.8494 0
    endloop
  endfacet
  facet normal 0.775583 0.631245 0
    outer loop
      vertex 55.602 64.6563 4
      vertex 54.8664 65.5601 0
      vertex 54.8664 65.5601 4
    endloop
  endfacet
  facet normal 0.775583 0.631245 0
    outer loop
      vertex 54.8664 65.5601 0
      vertex 55.602 64.6563 4
      vertex 55.602 64.6563 0
    endloop
  endfacet
  facet normal -0.521394 0.853316 0
    outer loop
      vertex 47.3348 66.8494 0
      vertex 46.3404 66.2418 4
      vertex 47.3348 66.8494 4
    endloop
  endfacet
  facet normal -0.521394 0.853316 0
    outer loop
      vertex 46.3404 66.2418 4
      vertex 47.3348 66.8494 0
      vertex 46.3404 66.2418 0
    endloop
  endfacet
  facet normal 0.875828 0.482624 0
    outer loop
      vertex 56.1644 63.6357 4
      vertex 55.602 64.6563 0
      vertex 55.602 64.6563 4
    endloop
  endfacet
  facet normal 0.875828 0.482624 0
    outer loop
      vertex 55.602 64.6563 0
      vertex 56.1644 63.6357 4
      vertex 56.1644 63.6357 0
    endloop
  endfacet
  facet normal -0.753076 -0.657934 0
    outer loop
      vertex -4.49191 -4.69817 0
      vertex -5.25861 -3.8206 4
      vertex -5.25861 -3.8206 0
    endloop
  endfacet
  facet normal -0.753076 -0.657934 0
    outer loop
      vertex -5.25861 -3.8206 4
      vertex -4.49191 -4.69817 0
      vertex -4.49191 -4.69817 4
    endloop
  endfacet
  facet normal -0.00995488 0.99995 0
    outer loop
      vertex 50.7313 67.5008 0
      vertex 49.5661 67.4892 4
      vertex 50.7313 67.5008 4
    endloop
  endfacet
  facet normal -0.00995488 0.99995 0
    outer loop
      vertex 49.5661 67.4892 4
      vertex 50.7313 67.5008 0
      vertex 49.5661 67.4892 0
    endloop
  endfacet
  facet normal -0.98393 0.178553 0
    outer loop
      vertex -6.47383 0.582655 0
      vertex -6.26576 1.72924 4
      vertex -6.26576 1.72924 0
    endloop
  endfacet
  facet normal -0.98393 0.178553 0
    outer loop
      vertex -6.26576 1.72924 4
      vertex -6.47383 0.582655 0
      vertex -6.47383 0.582655 4
    endloop
  endfacet
  facet normal 0.963967 -0.266024 0
    outer loop
      vertex 46.5855 -2.28394 4
      vertex 46.8955 -1.16062 0
      vertex 46.8955 -1.16062 4
    endloop
  endfacet
  facet normal 0.963967 -0.266024 0
    outer loop
      vertex 46.8955 -1.16062 0
      vertex 46.5855 -2.28394 4
      vertex 46.5855 -2.28394 0
    endloop
  endfacet
  facet normal 0.168711 0.985666 -0
    outer loop
      vertex 51.8799 67.3042 0
      vertex 50.7313 67.5008 4
      vertex 51.8799 67.3042 4
    endloop
  endfacet
  facet normal 0.168711 0.985666 0
    outer loop
      vertex 50.7313 67.5008 4
      vertex 51.8799 67.3042 0
      vertex 50.7313 67.5008 0
    endloop
  endfacet
  facet normal -1 0 0
    outer loop
      vertex -6.47383 -0.582655 0
      vertex -6.47383 0.582655 4
      vertex -6.47383 0.582655 0
    endloop
  endfacet
  facet normal -1 -0 0
    outer loop
      vertex -6.47383 0.582655 4
      vertex -6.47383 -0.582655 0
      vertex -6.47383 -0.582655 4
    endloop
  endfacet
  facet normal 0.900972 -0.433877 0
    outer loop
      vertex 46.0799 -3.33385 4
      vertex 46.5855 -2.28394 0
      vertex 46.5855 -2.28394 4
    endloop
  endfacet
  facet normal 0.900972 -0.433877 0
    outer loop
      vertex 46.5855 -2.28394 0
      vertex 46.0799 -3.33385 4
      vertex 46.0799 -3.33385 0
    endloop
  endfacet
  facet normal 0.947917 0.318518 0
    outer loop
      vertex 56.5356 62.531 4
      vertex 56.1644 63.6357 0
      vertex 56.1644 63.6357 4
    endloop
  endfacet
  facet normal 0.947917 0.318518 0
    outer loop
      vertex 56.1644 63.6357 0
      vertex 56.5356 62.531 4
      vertex 56.5356 62.531 0
    endloop
  endfacet
  facet normal 0.341957 0.939716 -0
    outer loop
      vertex 52.975 66.9057 0
      vertex 51.8799 67.3042 4
      vertex 52.975 66.9057 4
    endloop
  endfacet
  facet normal 0.341957 0.939716 0
    outer loop
      vertex 51.8799 67.3042 4
      vertex 52.975 66.9057 0
      vertex 51.8799 67.3042 0
    endloop
  endfacet
  facet normal -0.98393 -0.178553 0
    outer loop
      vertex -6.26576 -1.72924 0
      vertex -6.47383 -0.582655 4
      vertex -6.47383 -0.582655 0
    endloop
  endfacet
  facet normal -0.98393 -0.178553 0
    outer loop
      vertex -6.47383 -0.582655 4
      vertex -6.26576 -1.72924 0
      vertex -6.26576 -1.72924 4
    endloop
  endfacet
  facet normal 0 0 -1
    outer loop
      vertex 56.6628 60.2133 0
      vertex 46.6389 32.7723 0
      vertex 46.6577 33.3098 0
    endloop
  endfacet
  facet normal 0 0 -1
    outer loop
      vertex 39.0753 1.4613 0
      vertex 46.8955 -1.16062 0
      vertex 46.5855 -2.28394 0
    endloop
  endfacet
  facet normal 0 0 -1
    outer loop
      vertex 46.8955 -1.16062 0
      vertex 46.5245 32.2468 0
      vertex 46.6389 32.7723 0
    endloop
  endfacet
  facet normal 0 0 -1
    outer loop
      vertex 39.0753 1.4613 0
      vertex 46.5855 -2.28394 0
      vertex 46.0799 -3.33385 0
    endloop
  endfacet
  facet normal 0 0 -1
    outer loop
      vertex 38.7592 1.02618 0
      vertex 46.0799 -3.33385 0
      vertex 45.395 -4.2766 0
    endloop
  endfacet
  facet normal 0 0 -1
    outer loop
      vertex 38.7592 1.02618 0
      vertex 45.395 -4.2766 0
      vertex 44.5527 -5.0819 0
    endloop
  endfacet
  facet normal 0 0 -1
    outer loop
      vertex 38.7592 1.02618 0
      vertex 44.5527 -5.0819 0
      vertex 43.5801 -5.72387 0
    endloop
  endfacet
  facet normal 0 0 -1
    outer loop
      vertex 38.7592 1.02618 0
      vertex 43.5801 -5.72387 0
      vertex 42.5086 -6.18187 0
    endloop
  endfacet
  facet normal 0 0 -1
    outer loop
      vertex 38.3705 0.654505 0
      vertex 42.5086 -6.18187 0
      vertex 41.3725 -6.44117 0
    endloop
  endfacet
  facet normal 0 0 -1
    outer loop
      vertex 38.3705 0.654505 0
      vertex 41.3725 -6.44117 0
      vertex 40.2084 -6.49345 0
    endloop
  endfacet
  facet normal 0 0 -1
    outer loop
      vertex 46.8955 -1.16062 0
      vertex 39.4518 2.46433 0
      vertex 46.5245 32.2468 0
    endloop
  endfacet
  facet normal 0 0 -1
    outer loop
      vertex 46.8955 -1.16062 0
      vertex 39.3087 1.94588 0
      vertex 39.4518 2.46433 0
    endloop
  endfacet
  facet normal 0 0 -1
    outer loop
      vertex 46.8955 -1.16062 0
      vertex 39.0753 1.4613 0
      vertex 39.3087 1.94588 0
    endloop
  endfacet
  facet normal 0 0 -1
    outer loop
      vertex 46.0799 -3.33385 0
      vertex 38.7592 1.02618 0
      vertex 39.0753 1.4613 0
    endloop
  endfacet
  facet normal 0 0 -1
    outer loop
      vertex 42.5086 -6.18187 0
      vertex 38.3705 0.654505 0
      vertex 38.7592 1.02618 0
    endloop
  endfacet
  facet normal 0 0 -1
    outer loop
      vertex 40.2084 -6.49345 0
      vertex 37.9216 0.358212 0
      vertex 38.3705 0.654505 0
    endloop
  endfacet
  facet normal 0 0 -1
    outer loop
      vertex 40.2084 -6.49345 0
      vertex 37.4271 0.14683 0
      vertex 37.9216 0.358212 0
    endloop
  endfacet
  facet normal 0 0 -1
    outer loop
      vertex 40.2084 -6.49345 0
      vertex 36.9027 0.0271502 0
      vertex 37.4271 0.14683 0
    endloop
  endfacet
  facet normal 0 0 -1
    outer loop
      vertex 40.2084 -6.49345 0
      vertex 36.3654 0.00302029 0
      vertex 36.9027 0.0271502 0
    endloop
  endfacet
  facet normal 0 0 -1
    outer loop
      vertex 40.2084 -6.49345 0
      vertex 22.3654 0.00302029 0
      vertex 36.3654 0.00302029 0
    endloop
  endfacet
  facet normal 0 0 -1
    outer loop
      vertex 6.73565 -3.76563 0
      vertex 22.3654 0.00302029 0
      vertex 40.2084 -6.49345 0
    endloop
  endfacet
  facet normal -0 0 -1
    outer loop
      vertex 22.3654 0.00302029 0
      vertex 6.73565 -3.76563 0
      vertex 21.8324 0.0752153 0
    endloop
  endfacet
  facet normal -0 0 -1
    outer loop
      vertex 19.5121 2.73108 0
      vertex 6.73565 -3.76563 0
      vertex 19.5121 3.26892 0
    endloop
  endfacet
  facet normal -0 0 -1
    outer loop
      vertex 19.6081 2.20189 0
      vertex 6.73565 -3.76563 0
      vertex 19.5121 2.73108 0
    endloop
  endfacet
  facet normal -0 0 -1
    outer loop
      vertex 19.7971 1.69835 0
      vertex 6.73565 -3.76563 0
      vertex 19.6081 2.20189 0
    endloop
  endfacet
  facet normal -0 0 -1
    outer loop
      vertex 20.0729 1.23664 0
      vertex 6.73565 -3.76563 0
      vertex 19.7971 1.69835 0
    endloop
  endfacet
  facet normal -0 0 -1
    outer loop
      vertex 20.4268 0.831614 0
      vertex 6.73565 -3.76563 0
      vertex 20.0729 1.23664 0
    endloop
  endfacet
  facet normal -0 0 -1
    outer loop
      vertex 20.8473 0.49628 0
      vertex 6.73565 -3.76563 0
      vertex 20.4268 0.831614 0
    endloop
  endfacet
  facet normal -0 0 -1
    outer loop
      vertex 21.3209 0.241416 0
      vertex 6.73565 -3.76563 0
      vertex 20.8473 0.49628 0
    endloop
  endfacet
  facet normal -0 0 -1
    outer loop
      vertex 21.8324 0.0752153 0
      vertex 6.73565 -3.76563 0
      vertex 21.3209 0.241416 0
    endloop
  endfacet
  facet normal 0 0 -1
    outer loop
      vertex -0.291621 -6.49345 0
      vertex 6.73565 -3.76563 0
      vertex 40.2084 -6.49345 0
    endloop
  endfacet
  facet normal 0 0 -1
    outer loop
      vertex -1.82449 2.22825 0
      vertex -0.291621 -6.49345 0
      vertex -1.44639 -6.33703 0
    endloop
  endfacet
  facet normal 0 0 -1
    outer loop
      vertex -0.291621 -6.49345 0
      vertex -1.82449 2.22825 0
      vertex 6.73565 -3.76563 0
    endloop
  endfacet
  facet normal 0 -0 -1
    outer loop
      vertex -1.82449 2.22825 0
      vertex -1.44639 -6.33703 0
      vertex -2.55466 -5.97693 0
    endloop
  endfacet
  facet normal 0 0 -1
    outer loop
      vertex 52.6791 61.8484 0
      vertex 56.7035 61.3779 0
      vertex 56.6628 60.2133 0
    endloop
  endfacet
  facet normal 0 0 -1
    outer loop
      vertex 56.7035 61.3779 0
      vertex 52.6791 61.8484 0
      vertex 56.5356 62.531 0
    endloop
  endfacet
  facet normal -0 0 -1
    outer loop
      vertex 56.5356 62.531 0
      vertex 52.6791 61.8484 0
      vertex 56.1644 63.6357 0
    endloop
  endfacet
  facet normal -0 0 -1
    outer loop
      vertex 56.1644 63.6357 0
      vertex 52.6791 61.8484 0
      vertex 55.602 64.6563 0
    endloop
  endfacet
  facet normal -0 0 -1
    outer loop
      vertex 55.602 64.6563 0
      vertex 52.6791 61.8484 0
      vertex 54.8664 65.5601 0
    endloop
  endfacet
  facet normal -0 0 -1
    outer loop
      vertex 54.8664 65.5601 0
      vertex 52.6791 61.8484 0
      vertex 53.9812 66.318 0
    endloop
  endfacet
  facet normal -0 0 -1
    outer loop
      vertex 53.9812 66.318 0
      vertex 52.6791 61.8484 0
      vertex 52.975 66.9057 0
    endloop
  endfacet
  facet normal 0 0 -1
    outer loop
      vertex 46.6389 32.7723 0
      vertex 56.6628 60.2133 0
      vertex 46.8955 -1.16062 0
    endloop
  endfacet
  facet normal 0 0 -1
    outer loop
      vertex 46.5802 33.842 0
      vertex 56.6628 60.2133 0
      vertex 46.6577 33.3098 0
    endloop
  endfacet
  facet normal 0 0 -1
    outer loop
      vertex 46.4089 34.3518 0
      vertex 56.6628 60.2133 0
      vertex 46.5802 33.842 0
    endloop
  endfacet
  facet normal 0 0 -1
    outer loop
      vertex 46.1493 34.8229 0
      vertex 56.6628 60.2133 0
      vertex 46.4089 34.3518 0
    endloop
  endfacet
  facet normal 0 0 -1
    outer loop
      vertex 45.8098 35.24 0
      vertex 56.6628 60.2133 0
      vertex 46.1493 34.8229 0
    endloop
  endfacet
  facet normal 0 0 -1
    outer loop
      vertex 45.4013 35.5898 0
      vertex 56.6628 60.2133 0
      vertex 45.8098 35.24 0
    endloop
  endfacet
  facet normal 0 0 -1
    outer loop
      vertex 44.9368 35.8611 0
      vertex 56.6628 60.2133 0
      vertex 45.4013 35.5898 0
    endloop
  endfacet
  facet normal -0 0 -1
    outer loop
      vertex 56.6628 60.2133 0
      vertex 44.9368 35.8611 0
      vertex 52.6791 61.8484 0
    endloop
  endfacet
  facet normal 0 0 -1
    outer loop
      vertex 44.4314 36.045 0
      vertex 52.6791 61.8484 0
      vertex 44.9368 35.8611 0
    endloop
  endfacet
  facet normal 0 0 -1
    outer loop
      vertex 43.9013 36.1358 0
      vertex 52.6791 61.8484 0
      vertex 44.4314 36.045 0
    endloop
  endfacet
  facet normal 0 0 -1
    outer loop
      vertex 43.3635 36.1304 0
      vertex 52.6791 61.8484 0
      vertex 43.9013 36.1358 0
    endloop
  endfacet
  facet normal 0 0 -1
    outer loop
      vertex 42.8353 36.0291 0
      vertex 52.6791 61.8484 0
      vertex 43.3635 36.1304 0
    endloop
  endfacet
  facet normal 0 0 -1
    outer loop
      vertex 42.3337 35.8351 0
      vertex 52.6791 61.8484 0
      vertex 42.8353 36.0291 0
    endloop
  endfacet
  facet normal 0 0 -1
    outer loop
      vertex 41.8747 35.5547 0
      vertex 52.6791 61.8484 0
      vertex 42.3337 35.8351 0
    endloop
  endfacet
  facet normal 0 0 -1
    outer loop
      vertex 41.4733 35.1968 0
      vertex 52.6791 61.8484 0
      vertex 41.8747 35.5547 0
    endloop
  endfacet
  facet normal 0 0 -1
    outer loop
      vertex 41.1421 34.7729 0
      vertex 52.6791 61.8484 0
      vertex 41.4733 35.1968 0
    endloop
  endfacet
  facet normal 0 0 -1
    outer loop
      vertex 6.73565 -3.76563 0
      vertex 41.1421 34.7729 0
      vertex 20.0729 4.76336 0
    endloop
  endfacet
  facet normal 0 0 -1
    outer loop
      vertex 6.73565 -3.76563 0
      vertex 20.0729 4.76336 0
      vertex 19.7971 4.30165 0
    endloop
  endfacet
  facet normal -0 0 -1
    outer loop
      vertex 41.1421 34.7729 0
      vertex 6.73565 -3.76563 0
      vertex 52.6791 61.8484 0
    endloop
  endfacet
  facet normal -0 0 -1
    outer loop
      vertex 19.6081 3.79811 0
      vertex 6.73565 -3.76563 0
      vertex 19.7971 4.30165 0
    endloop
  endfacet
  facet normal 0 0 -1
    outer loop
      vertex 6.73565 -3.76563 0
      vertex 19.6081 3.79811 0
      vertex 19.5121 3.26892 0
    endloop
  endfacet
  facet normal 0 0 -1
    outer loop
      vertex 49.4435 64.1141 0
      vertex 52.975 66.9057 0
      vertex 52.6791 61.8484 0
    endloop
  endfacet
  facet normal -0 0 -1
    outer loop
      vertex 52.975 66.9057 0
      vertex 49.4435 64.1141 0
      vertex 51.8799 67.3042 0
    endloop
  endfacet
  facet normal -0 0 -1
    outer loop
      vertex 51.8799 67.3042 0
      vertex 49.4435 64.1141 0
      vertex 50.7313 67.5008 0
    endloop
  endfacet
  facet normal 0 0 -1
    outer loop
      vertex 50.7313 67.5008 0
      vertex 49.4435 64.1141 0
      vertex 49.5661 67.4892 0
    endloop
  endfacet
  facet normal 0 0 -1
    outer loop
      vertex 49.4435 64.1141 0
      vertex 48.4216 67.2697 0
      vertex 49.5661 67.4892 0
    endloop
  endfacet
  facet normal 0 0 -1
    outer loop
      vertex 49.4435 64.1141 0
      vertex 47.3348 66.8494 0
      vertex 48.4216 67.2697 0
    endloop
  endfacet
  facet normal 0 0 -1
    outer loop
      vertex 49.4435 64.1141 0
      vertex 46.3404 66.2418 0
      vertex 47.3348 66.8494 0
    endloop
  endfacet
  facet normal 0 0 -1
    outer loop
      vertex 49.4435 64.1141 0
      vertex 45.4705 65.4664 0
      vertex 46.3404 66.2418 0
    endloop
  endfacet
  facet normal 0 0 -1
    outer loop
      vertex 27.4181 32.6586 0
      vertex 45.4705 65.4664 0
      vertex 49.4435 64.1141 0
    endloop
  endfacet
  facet normal 0 0 -1
    outer loop
      vertex 24.7559 34.5228 0
      vertex 45.4705 65.4664 0
      vertex 27.4181 32.6586 0
    endloop
  endfacet
  facet normal 0 0 -1
    outer loop
      vertex 0.871321 6.07826 0
      vertex 24.7559 34.5228 0
      vertex 3.53357 4.21414 0
    endloop
  endfacet
  facet normal 0 0 -1
    outer loop
      vertex -5.25861 3.8206 0
      vertex 24.7559 34.5228 0
      vertex 0.871321 6.07826 0
    endloop
  endfacet
  facet normal 0 0 -1
    outer loop
      vertex -3.58083 -5.42473 0
      vertex -1.82449 2.22825 0
      vertex -2.55466 -5.97693 0
    endloop
  endfacet
  facet normal 0 0 -1
    outer loop
      vertex -4.49191 -4.69817 0
      vertex -1.82449 2.22825 0
      vertex -3.58083 -5.42473 0
    endloop
  endfacet
  facet normal 0 0 -1
    outer loop
      vertex -5.25861 -3.8206 0
      vertex -1.82449 2.22825 0
      vertex -4.49191 -4.69817 0
    endloop
  endfacet
  facet normal -0 0 -1
    outer loop
      vertex 24.7559 34.5228 0
      vertex -5.25861 3.8206 0
      vertex 45.4705 65.4664 0
    endloop
  endfacet
  facet normal 0 0 -1
    outer loop
      vertex -1.82449 2.22825 0
      vertex -5.25861 3.8206 0
      vertex 0.871321 6.07826 0
    endloop
  endfacet
  facet normal 0 0 -1
    outer loop
      vertex -5.8563 -2.82024 0
      vertex -1.82449 2.22825 0
      vertex -5.25861 -3.8206 0
    endloop
  endfacet
  facet normal 0 0 -1
    outer loop
      vertex -6.26576 -1.72924 0
      vertex -1.82449 2.22825 0
      vertex -5.8563 -2.82024 0
    endloop
  endfacet
  facet normal 0 0 -1
    outer loop
      vertex -1.82449 2.22825 0
      vertex -5.8563 2.82024 0
      vertex -5.25861 3.8206 0
    endloop
  endfacet
  facet normal 0 0 -1
    outer loop
      vertex -6.47383 -0.582655 0
      vertex -1.82449 2.22825 0
      vertex -6.26576 -1.72924 0
    endloop
  endfacet
  facet normal -0 0 -1
    outer loop
      vertex -1.82449 2.22825 0
      vertex -6.26576 1.72924 0
      vertex -5.8563 2.82024 0
    endloop
  endfacet
  facet normal 0 0 -1
    outer loop
      vertex -6.47383 0.582655 0
      vertex -1.82449 2.22825 0
      vertex -6.47383 -0.582655 0
    endloop
  endfacet
  facet normal 0 0 -1
    outer loop
      vertex -1.82449 2.22825 0
      vertex -6.47383 0.582655 0
      vertex -6.26576 1.72924 0
    endloop
  endfacet
  facet normal 0 0 1
    outer loop
      vertex 49.4435 64.1141 4
      vertex 52.975 66.9057 4
      vertex 51.8799 67.3042 4
    endloop
  endfacet
  facet normal 0 0 1
    outer loop
      vertex 49.4435 64.1141 4
      vertex 51.8799 67.3042 4
      vertex 50.7313 67.5008 4
    endloop
  endfacet
  facet normal 0 0 1
    outer loop
      vertex 49.4435 64.1141 4
      vertex 50.7313 67.5008 4
      vertex 49.5661 67.4892 4
    endloop
  endfacet
  facet normal 0 0 1
    outer loop
      vertex 52.975 66.9057 4
      vertex 49.4435 64.1141 4
      vertex 52.6791 61.8484 4
    endloop
  endfacet
  facet normal -0 0 1
    outer loop
      vertex 48.4216 67.2697 4
      vertex 49.4435 64.1141 4
      vertex 49.5661 67.4892 4
    endloop
  endfacet
  facet normal -0 0 1
    outer loop
      vertex 47.3348 66.8494 4
      vertex 49.4435 64.1141 4
      vertex 48.4216 67.2697 4
    endloop
  endfacet
  facet normal -0 0 1
    outer loop
      vertex 46.3404 66.2418 4
      vertex 49.4435 64.1141 4
      vertex 47.3348 66.8494 4
    endloop
  endfacet
  facet normal -0 0 1
    outer loop
      vertex 45.4705 65.4664 4
      vertex 49.4435 64.1141 4
      vertex 46.3404 66.2418 4
    endloop
  endfacet
  facet normal 0 0 1
    outer loop
      vertex 45.4705 65.4664 4
      vertex 27.4181 32.6586 4
      vertex 49.4435 64.1141 4
    endloop
  endfacet
  facet normal 0 0 1
    outer loop
      vertex 45.4705 65.4664 4
      vertex 24.7559 34.5228 4
      vertex 27.4181 32.6586 4
    endloop
  endfacet
  facet normal 0 0 1
    outer loop
      vertex -5.25861 3.8206 4
      vertex 24.7559 34.5228 4
      vertex 45.4705 65.4664 4
    endloop
  endfacet
  facet normal 0 0 1
    outer loop
      vertex 24.7559 34.5228 4
      vertex 0.871321 6.07826 4
      vertex 3.53357 4.21414 4
    endloop
  endfacet
  facet normal 0 0 1
    outer loop
      vertex -1.82449 2.22825 4
      vertex -3.58083 -5.42473 4
      vertex -2.55466 -5.97693 4
    endloop
  endfacet
  facet normal 0 0 1
    outer loop
      vertex -1.82449 2.22825 4
      vertex -4.49191 -4.69817 4
      vertex -3.58083 -5.42473 4
    endloop
  endfacet
  facet normal 0 0 1
    outer loop
      vertex 24.7559 34.5228 4
      vertex -5.25861 3.8206 4
      vertex 0.871321 6.07826 4
    endloop
  endfacet
  facet normal -0 0 1
    outer loop
      vertex -5.25861 3.8206 4
      vertex -1.82449 2.22825 4
      vertex 0.871321 6.07826 4
    endloop
  endfacet
  facet normal -0 0 1
    outer loop
      vertex -5.8563 2.82024 4
      vertex -1.82449 2.22825 4
      vertex -5.25861 3.8206 4
    endloop
  endfacet
  facet normal 0 0 1
    outer loop
      vertex -1.82449 2.22825 4
      vertex -5.25861 -3.8206 4
      vertex -4.49191 -4.69817 4
    endloop
  endfacet
  facet normal 0 0 1
    outer loop
      vertex -6.26576 1.72924 4
      vertex -1.82449 2.22825 4
      vertex -5.8563 2.82024 4
    endloop
  endfacet
  facet normal 0 0 1
    outer loop
      vertex -1.82449 2.22825 4
      vertex -5.8563 -2.82024 4
      vertex -5.25861 -3.8206 4
    endloop
  endfacet
  facet normal 0 0 1
    outer loop
      vertex -6.47383 0.582655 4
      vertex -1.82449 2.22825 4
      vertex -6.26576 1.72924 4
    endloop
  endfacet
  facet normal 0 0 1
    outer loop
      vertex -1.82449 2.22825 4
      vertex -6.26576 -1.72924 4
      vertex -5.8563 -2.82024 4
    endloop
  endfacet
  facet normal 0 0 1
    outer loop
      vertex -6.47383 -0.582655 4
      vertex -1.82449 2.22825 4
      vertex -6.47383 0.582655 4
    endloop
  endfacet
  facet normal 0 0 1
    outer loop
      vertex -1.82449 2.22825 4
      vertex -6.47383 -0.582655 4
      vertex -6.26576 -1.72924 4
    endloop
  endfacet
  facet normal -0 0 1
    outer loop
      vertex 52.6791 61.8484 4
      vertex 56.7035 61.3779 4
      vertex 56.5356 62.531 4
    endloop
  endfacet
  facet normal 0 0 1
    outer loop
      vertex 52.6791 61.8484 4
      vertex 56.5356 62.531 4
      vertex 56.1644 63.6357 4
    endloop
  endfacet
  facet normal 0 0 1
    outer loop
      vertex 52.6791 61.8484 4
      vertex 56.1644 63.6357 4
      vertex 55.602 64.6563 4
    endloop
  endfacet
  facet normal 0 0 1
    outer loop
      vertex 52.6791 61.8484 4
      vertex 55.602 64.6563 4
      vertex 54.8664 65.5601 4
    endloop
  endfacet
  facet normal 0 0 1
    outer loop
      vertex 52.6791 61.8484 4
      vertex 54.8664 65.5601 4
      vertex 53.9812 66.318 4
    endloop
  endfacet
  facet normal 0 0 1
    outer loop
      vertex 52.6791 61.8484 4
      vertex 53.9812 66.318 4
      vertex 52.975 66.9057 4
    endloop
  endfacet
  facet normal 0 0 1
    outer loop
      vertex 56.7035 61.3779 4
      vertex 52.6791 61.8484 4
      vertex 56.6628 60.2133 4
    endloop
  endfacet
  facet normal 0 0 1
    outer loop
      vertex 44.9368 35.8611 4
      vertex 56.6628 60.2133 4
      vertex 52.6791 61.8484 4
    endloop
  endfacet
  facet normal 0 0 1
    outer loop
      vertex 56.6628 60.2133 4
      vertex 46.6577 33.3098 4
      vertex 46.6389 32.7723 4
    endloop
  endfacet
  facet normal 0 0 1
    outer loop
      vertex 56.6628 60.2133 4
      vertex 46.5802 33.842 4
      vertex 46.6577 33.3098 4
    endloop
  endfacet
  facet normal 0 0 1
    outer loop
      vertex 56.6628 60.2133 4
      vertex 46.4089 34.3518 4
      vertex 46.5802 33.842 4
    endloop
  endfacet
  facet normal 0 0 1
    outer loop
      vertex 56.6628 60.2133 4
      vertex 46.1493 34.8229 4
      vertex 46.4089 34.3518 4
    endloop
  endfacet
  facet normal 0 0 1
    outer loop
      vertex 56.6628 60.2133 4
      vertex 45.8098 35.24 4
      vertex 46.1493 34.8229 4
    endloop
  endfacet
  facet normal 0 0 1
    outer loop
      vertex 56.6628 60.2133 4
      vertex 45.4013 35.5898 4
      vertex 45.8098 35.24 4
    endloop
  endfacet
  facet normal 0 0 1
    outer loop
      vertex 56.6628 60.2133 4
      vertex 44.9368 35.8611 4
      vertex 45.4013 35.5898 4
    endloop
  endfacet
  facet normal 0 0 1
    outer loop
      vertex 52.6791 61.8484 4
      vertex 44.4314 36.045 4
      vertex 44.9368 35.8611 4
    endloop
  endfacet
  facet normal 0 0 1
    outer loop
      vertex 52.6791 61.8484 4
      vertex 43.9013 36.1358 4
      vertex 44.4314 36.045 4
    endloop
  endfacet
  facet normal 0 0 1
    outer loop
      vertex 52.6791 61.8484 4
      vertex 43.3635 36.1304 4
      vertex 43.9013 36.1358 4
    endloop
  endfacet
  facet normal 0 0 1
    outer loop
      vertex 52.6791 61.8484 4
      vertex 42.8353 36.0291 4
      vertex 43.3635 36.1304 4
    endloop
  endfacet
  facet normal 0 0 1
    outer loop
      vertex 52.6791 61.8484 4
      vertex 42.3337 35.8351 4
      vertex 42.8353 36.0291 4
    endloop
  endfacet
  facet normal 0 0 1
    outer loop
      vertex 52.6791 61.8484 4
      vertex 41.8747 35.5547 4
      vertex 42.3337 35.8351 4
    endloop
  endfacet
  facet normal 0 0 1
    outer loop
      vertex 52.6791 61.8484 4
      vertex 41.4733 35.1968 4
      vertex 41.8747 35.5547 4
    endloop
  endfacet
  facet normal 0 0 1
    outer loop
      vertex 52.6791 61.8484 4
      vertex 41.1421 34.7729 4
      vertex 41.4733 35.1968 4
    endloop
  endfacet
  facet normal 0 0 1
    outer loop
      vertex 6.73565 -3.76563 4
      vertex 41.1421 34.7729 4
      vertex 52.6791 61.8484 4
    endloop
  endfacet
  facet normal 0 0 1
    outer loop
      vertex 41.1421 34.7729 4
      vertex 6.73565 -3.76563 4
      vertex 20.0729 4.76336 4
    endloop
  endfacet
  facet normal 0 0 1
    outer loop
      vertex 19.5121 3.26892 4
      vertex 6.73565 -3.76563 4
      vertex 19.5121 2.73108 4
    endloop
  endfacet
  facet normal 0 0 1
    outer loop
      vertex 19.6081 3.79811 4
      vertex 6.73565 -3.76563 4
      vertex 19.5121 3.26892 4
    endloop
  endfacet
  facet normal 0 0 1
    outer loop
      vertex 19.7971 4.30165 4
      vertex 6.73565 -3.76563 4
      vertex 19.6081 3.79811 4
    endloop
  endfacet
  facet normal 0 0 1
    outer loop
      vertex 20.0729 4.76336 4
      vertex 6.73565 -3.76563 4
      vertex 19.7971 4.30165 4
    endloop
  endfacet
  facet normal 0 0 1
    outer loop
      vertex 56.6628 60.2133 4
      vertex 46.6389 32.7723 4
      vertex 46.8955 -1.16062 4
    endloop
  endfacet
  facet normal -0 0 1
    outer loop
      vertex 46.5245 32.2468 4
      vertex 46.8955 -1.16062 4
      vertex 46.6389 32.7723 4
    endloop
  endfacet
  facet normal -0 0 1
    outer loop
      vertex 39.4518 2.46433 4
      vertex 46.8955 -1.16062 4
      vertex 46.5245 32.2468 4
    endloop
  endfacet
  facet normal -0 0 1
    outer loop
      vertex 39.3087 1.94588 4
      vertex 46.8955 -1.16062 4
      vertex 39.4518 2.46433 4
    endloop
  endfacet
  facet normal -0 0 1
    outer loop
      vertex 39.0753 1.4613 4
      vertex 46.8955 -1.16062 4
      vertex 39.3087 1.94588 4
    endloop
  endfacet
  facet normal 0 0 1
    outer loop
      vertex 46.8955 -1.16062 4
      vertex 39.0753 1.4613 4
      vertex 46.5855 -2.28394 4
    endloop
  endfacet
  facet normal 0 0 1
    outer loop
      vertex 46.5855 -2.28394 4
      vertex 39.0753 1.4613 4
      vertex 46.0799 -3.33385 4
    endloop
  endfacet
  facet normal -0 0 1
    outer loop
      vertex 38.7592 1.02618 4
      vertex 46.0799 -3.33385 4
      vertex 39.0753 1.4613 4
    endloop
  endfacet
  facet normal 0 0 1
    outer loop
      vertex 46.0799 -3.33385 4
      vertex 38.7592 1.02618 4
      vertex 45.395 -4.2766 4
    endloop
  endfacet
  facet normal 0 0 1
    outer loop
      vertex 45.395 -4.2766 4
      vertex 38.7592 1.02618 4
      vertex 44.5527 -5.0819 4
    endloop
  endfacet
  facet normal 0 0 1
    outer loop
      vertex 44.5527 -5.0819 4
      vertex 38.7592 1.02618 4
      vertex 43.5801 -5.72387 4
    endloop
  endfacet
  facet normal 0 0 1
    outer loop
      vertex 43.5801 -5.72387 4
      vertex 38.7592 1.02618 4
      vertex 42.5086 -6.18187 4
    endloop
  endfacet
  facet normal -0 0 1
    outer loop
      vertex 38.3705 0.654505 4
      vertex 42.5086 -6.18187 4
      vertex 38.7592 1.02618 4
    endloop
  endfacet
  facet normal 0 0 1
    outer loop
      vertex 42.5086 -6.18187 4
      vertex 38.3705 0.654505 4
      vertex 41.3725 -6.44117 4
    endloop
  endfacet
  facet normal 0 0 1
    outer loop
      vertex 41.3725 -6.44117 4
      vertex 38.3705 0.654505 4
      vertex 40.2084 -6.49345 4
    endloop
  endfacet
  facet normal -0 0 1
    outer loop
      vertex 37.9216 0.358212 4
      vertex 40.2084 -6.49345 4
      vertex 38.3705 0.654505 4
    endloop
  endfacet
  facet normal -0 0 1
    outer loop
      vertex 37.4271 0.14683 4
      vertex 40.2084 -6.49345 4
      vertex 37.9216 0.358212 4
    endloop
  endfacet
  facet normal -0 0 1
    outer loop
      vertex 36.9027 0.0271502 4
      vertex 40.2084 -6.49345 4
      vertex 37.4271 0.14683 4
    endloop
  endfacet
  facet normal -0 0 1
    outer loop
      vertex 36.3654 0.00302029 4
      vertex 40.2084 -6.49345 4
      vertex 36.9027 0.0271502 4
    endloop
  endfacet
  facet normal -0 0 1
    outer loop
      vertex 22.3654 0.00302029 4
      vertex 40.2084 -6.49345 4
      vertex 36.3654 0.00302029 4
    endloop
  endfacet
  facet normal 0 0 1
    outer loop
      vertex 6.73565 -3.76563 4
      vertex 22.3654 0.00302029 4
      vertex 21.8324 0.0752153 4
    endloop
  endfacet
  facet normal 0 0 1
    outer loop
      vertex 6.73565 -3.76563 4
      vertex 21.8324 0.0752153 4
      vertex 21.3209 0.241416 4
    endloop
  endfacet
  facet normal 0 0 1
    outer loop
      vertex 6.73565 -3.76563 4
      vertex 19.6081 2.20189 4
      vertex 19.5121 2.73108 4
    endloop
  endfacet
  facet normal 0 0 1
    outer loop
      vertex 6.73565 -3.76563 4
      vertex 19.7971 1.69835 4
      vertex 19.6081 2.20189 4
    endloop
  endfacet
  facet normal 0 0 1
    outer loop
      vertex 6.73565 -3.76563 4
      vertex 20.0729 1.23664 4
      vertex 19.7971 1.69835 4
    endloop
  endfacet
  facet normal 0 0 1
    outer loop
      vertex 6.73565 -3.76563 4
      vertex 20.4268 0.831614 4
      vertex 20.0729 1.23664 4
    endloop
  endfacet
  facet normal 0 0 1
    outer loop
      vertex 6.73565 -3.76563 4
      vertex 20.8473 0.49628 4
      vertex 20.4268 0.831614 4
    endloop
  endfacet
  facet normal 0 0 1
    outer loop
      vertex 6.73565 -3.76563 4
      vertex 21.3209 0.241416 4
      vertex 20.8473 0.49628 4
    endloop
  endfacet
  facet normal 0 0 1
    outer loop
      vertex 22.3654 0.00302029 4
      vertex 6.73565 -3.76563 4
      vertex 40.2084 -6.49345 4
    endloop
  endfacet
  facet normal 0 0 1
    outer loop
      vertex 6.73565 -3.76563 4
      vertex -0.291621 -6.49345 4
      vertex 40.2084 -6.49345 4
    endloop
  endfacet
  facet normal 0 0 1
    outer loop
      vertex -1.82449 2.22825 4
      vertex -0.291621 -6.49345 4
      vertex 6.73565 -3.76563 4
    endloop
  endfacet
  facet normal 0 0 1
    outer loop
      vertex -0.291621 -6.49345 4
      vertex -1.82449 2.22825 4
      vertex -1.44639 -6.33703 4
    endloop
  endfacet
  facet normal 0 0 1
    outer loop
      vertex -1.44639 -6.33703 4
      vertex -1.82449 2.22825 4
      vertex -2.55466 -5.97693 4
    endloop
  endfacet
  facet normal 0.504351 0.863499 -0
    outer loop
      vertex 53.9812 66.318 0
      vertex 52.975 66.9057 4
      vertex 53.9812 66.318 4
    endloop
  endfacet
  facet normal 0.504351 0.863499 0
    outer loop
      vertex 52.975 66.9057 4
      vertex 53.9812 66.318 0
      vertex 52.975 66.9057 0
    endloop
  endfacet
  facet normal -0.977114 0.212715 0
    outer loop
      vertex 46.5245 32.2468 0
      vertex 46.6389 32.7723 4
      vertex 46.6389 32.7723 0
    endloop
  endfacet
  facet normal -0.977114 0.212715 0
    outer loop
      vertex 46.6389 32.7723 4
      vertex 46.5245 32.2468 0
      vertex 46.5245 32.2468 4
    endloop
  endfacet
  facet normal -0.999389 0.0349554 0
    outer loop
      vertex 46.6389 32.7723 0
      vertex 46.6577 33.3098 4
      vertex 46.6577 33.3098 0
    endloop
  endfacet
  facet normal -0.999389 0.0349554 0
    outer loop
      vertex 46.6577 33.3098 4
      vertex 46.6389 32.7723 0
      vertex 46.6389 32.7723 4
    endloop
  endfacet
  facet normal 0.134225 0.990951 -0
    outer loop
      vertex 22.3654 0.00302029 0
      vertex 21.8324 0.0752153 4
      vertex 22.3654 0.00302029 4
    endloop
  endfacet
  facet normal 0.134225 0.990951 0
    outer loop
      vertex 21.8324 0.0752153 4
      vertex 22.3654 0.00302029 0
      vertex 21.8324 0.0752153 0
    endloop
  endfacet
  facet normal 0.81843 -0.574606 0
    outer loop
      vertex 20.0729 4.76336 4
      vertex 41.1421 34.7729 0
      vertex 41.1421 34.7729 4
    endloop
  endfacet
  facet normal 0.81843 -0.574606 0
    outer loop
      vertex 41.1421 34.7729 0
      vertex 20.0729 4.76336 4
      vertex 20.0729 4.76336 0
    endloop
  endfacet
  facet normal 0.188351 -0.982102 0
    outer loop
      vertex 42.8353 36.0291 0
      vertex 43.3635 36.1304 4
      vertex 42.8353 36.0291 4
    endloop
  endfacet
  facet normal 0.188351 -0.982102 0
    outer loop
      vertex 43.3635 36.1304 4
      vertex 42.8353 36.0291 0
      vertex 43.3635 36.1304 0
    endloop
  endfacet
  facet normal -0.650424 -0.759572 0
    outer loop
      vertex 45.4013 35.5898 0
      vertex 45.8098 35.24 4
      vertex 45.4013 35.5898 4
    endloop
  endfacet
  facet normal -0.650424 -0.759572 -0
    outer loop
      vertex 45.8098 35.24 4
      vertex 45.4013 35.5898 0
      vertex 45.8098 35.24 0
    endloop
  endfacet
  facet normal -0.550867 0.834593 0
    outer loop
      vertex 38.3705 0.654505 0
      vertex 37.9216 0.358212 4
      vertex 38.3705 0.654505 4
    endloop
  endfacet
  facet normal -0.550867 0.834593 0
    outer loop
      vertex 37.9216 0.358212 4
      vertex 38.3705 0.654505 0
      vertex 37.9216 0.358212 0
    endloop
  endfacet
  facet normal -0.341937 -0.939723 0
    outer loop
      vertex 44.4314 36.045 0
      vertex 44.9368 35.8611 4
      vertex 44.4314 36.045 4
    endloop
  endfacet
  facet normal -0.341937 -0.939723 -0
    outer loop
      vertex 44.9368 35.8611 4
      vertex 44.4314 36.045 0
      vertex 44.9368 35.8611 0
    endloop
  endfacet
  facet normal 0.787999 -0.615677 0
    outer loop
      vertex 41.1421 34.7729 4
      vertex 41.4733 35.1968 0
      vertex 41.4733 35.1968 4
    endloop
  endfacet
  facet normal 0.787999 -0.615677 0
    outer loop
      vertex 41.4733 35.1968 0
      vertex 41.1421 34.7729 4
      vertex 41.1421 34.7729 0
    endloop
  endfacet
  facet normal 0 1 -0
    outer loop
      vertex 36.3654 0.00302029 0
      vertex 22.3654 0.00302029 4
      vertex 36.3654 0.00302029 4
    endloop
  endfacet
  facet normal 0 1 0
    outer loop
      vertex 22.3654 0.00302029 4
      vertex 36.3654 0.00302029 0
      vertex 22.3654 0.00302029 0
    endloop
  endfacet
  facet normal -0.691101 0.722758 0
    outer loop
      vertex 38.7592 1.02618 0
      vertex 38.3705 0.654505 4
      vertex 38.7592 1.02618 4
    endloop
  endfacet
  facet normal -0.691101 0.722758 0
    outer loop
      vertex 38.3705 0.654505 4
      vertex 38.7592 1.02618 0
      vertex 38.3705 0.654505 0
    endloop
  endfacet
  facet normal 0.521315 -0.853365 0
    outer loop
      vertex 41.8747 35.5547 0
      vertex 42.3337 35.8351 4
      vertex 41.8747 35.5547 4
    endloop
  endfacet
  facet normal 0.521315 -0.853365 0
    outer loop
      vertex 42.3337 35.8351 4
      vertex 41.8747 35.5547 0
      vertex 42.3337 35.8351 0
    endloop
  endfacet
  facet normal 0.753035 0.65798 0
    outer loop
      vertex 20.4268 0.831614 4
      vertex 20.0729 1.23664 0
      vertex 20.0729 1.23664 4
    endloop
  endfacet
  facet normal 0.753035 0.65798 0
    outer loop
      vertex 20.0729 1.23664 0
      vertex 20.4268 0.831614 4
      vertex 20.4268 0.831614 0
    endloop
  endfacet
  facet normal 0.360723 -0.932673 0
    outer loop
      vertex 42.3337 35.8351 0
      vertex 42.8353 36.0291 4
      vertex 42.3337 35.8351 4
    endloop
  endfacet
  facet normal 0.360723 -0.932673 0
    outer loop
      vertex 42.8353 36.0291 4
      vertex 42.3337 35.8351 0
      vertex 42.8353 36.0291 0
    endloop
  endfacet
  facet normal -0.963955 0.266066 0
    outer loop
      vertex 39.3087 1.94588 0
      vertex 39.4518 2.46433 4
      vertex 39.4518 2.46433 0
    endloop
  endfacet
  facet normal -0.963955 0.266066 0
    outer loop
      vertex 39.4518 2.46433 4
      vertex 39.3087 1.94588 0
      vertex 39.3087 1.94588 4
    endloop
  endfacet
  facet normal -0.16883 -0.985645 0
    outer loop
      vertex 43.9013 36.1358 0
      vertex 44.4314 36.045 4
      vertex 43.9013 36.1358 4
    endloop
  endfacet
  facet normal -0.16883 -0.985645 -0
    outer loop
      vertex 44.4314 36.045 4
      vertex 43.9013 36.1358 0
      vertex 44.4314 36.045 0
    endloop
  endfacet
  facet normal -0.972941 0.231053 0
    outer loop
      vertex 39.4518 2.46433 0
      vertex 46.5245 32.2468 4
      vertex 46.5245 32.2468 0
    endloop
  endfacet
  facet normal -0.972941 0.231053 0
    outer loop
      vertex 46.5245 32.2468 4
      vertex 39.4518 2.46433 0
      vertex 39.4518 2.46433 4
    endloop
  endfacet
  facet normal -0.775562 -0.631271 0
    outer loop
      vertex 46.1493 34.8229 0
      vertex 45.8098 35.24 4
      vertex 45.8098 35.24 0
    endloop
  endfacet
  facet normal -0.775562 -0.631271 0
    outer loop
      vertex 45.8098 35.24 4
      vertex 46.1493 34.8229 0
      vertex 46.1493 34.8229 4
    endloop
  endfacet
  facet normal -0.222501 0.974932 0
    outer loop
      vertex 37.4271 0.14683 0
      vertex 36.9027 0.0271502 4
      vertex 37.4271 0.14683 4
    endloop
  endfacet
  facet normal -0.222501 0.974932 0
    outer loop
      vertex 36.9027 0.0271502 4
      vertex 37.4271 0.14683 0
      vertex 36.9027 0.0271502 0
    endloop
  endfacet
  facet normal 0.0100404 -0.99995 0
    outer loop
      vertex 43.3635 36.1304 0
      vertex 43.9013 36.1358 4
      vertex 43.3635 36.1304 4
    endloop
  endfacet
  facet normal 0.0100404 -0.99995 0
    outer loop
      vertex 43.9013 36.1358 4
      vertex 43.3635 36.1304 0
      vertex 43.9013 36.1358 0
    endloop
  endfacet
  facet normal 0.473882 0.880589 -0
    outer loop
      vertex 21.3209 0.241416 0
      vertex 20.8473 0.49628 4
      vertex 21.3209 0.241416 4
    endloop
  endfacet
  facet normal 0.473882 0.880589 0
    outer loop
      vertex 20.8473 0.49628 4
      vertex 21.3209 0.241416 0
      vertex 20.8473 0.49628 0
    endloop
  endfacet
  facet normal 0.665506 -0.746393 0
    outer loop
      vertex 41.4733 35.1968 0
      vertex 41.8747 35.5547 4
      vertex 41.4733 35.1968 4
    endloop
  endfacet
  facet normal 0.665506 -0.746393 0
    outer loop
      vertex 41.8747 35.5547 4
      vertex 41.4733 35.1968 0
      vertex 41.8747 35.5547 0
    endloop
  endfacet
  facet normal 0.309024 0.951054 -0
    outer loop
      vertex 21.8324 0.0752153 0
      vertex 21.3209 0.241416 4
      vertex 21.8324 0.0752153 4
    endloop
  endfacet
  facet normal 0.309024 0.951054 0
    outer loop
      vertex 21.3209 0.241416 4
      vertex 21.8324 0.0752153 0
      vertex 21.3209 0.241416 0
    endloop
  endfacet
  facet normal 0.936224 -0.351405 0
    outer loop
      vertex 19.6081 3.79811 4
      vertex 19.7971 4.30165 0
      vertex 19.7971 4.30165 4
    endloop
  endfacet
  facet normal 0.936224 -0.351405 0
    outer loop
      vertex 19.7971 4.30165 0
      vertex 19.6081 3.79811 4
      vertex 19.6081 3.79811 0
    endloop
  endfacet
  facet normal 0.623486 0.781835 -0
    outer loop
      vertex 20.8473 0.49628 0
      vertex 20.4268 0.831614 4
      vertex 20.8473 0.49628 4
    endloop
  endfacet
  facet normal 0.623486 0.781835 0
    outer loop
      vertex 20.4268 0.831614 4
      vertex 20.8473 0.49628 0
      vertex 20.4268 0.831614 0
    endloop
  endfacet
  facet normal -0.900941 0.433942 0
    outer loop
      vertex 39.0753 1.4613 0
      vertex 39.3087 1.94588 4
      vertex 39.3087 1.94588 0
    endloop
  endfacet
  facet normal -0.900941 0.433942 0
    outer loop
      vertex 39.3087 1.94588 4
      vertex 39.0753 1.4613 0
      vertex 39.0753 1.4613 4
    endloop
  endfacet
  facet normal -0.989563 -0.144102 0
    outer loop
      vertex 46.6577 33.3098 0
      vertex 46.5802 33.842 4
      vertex 46.5802 33.842 0
    endloop
  endfacet
  facet normal -0.989563 -0.144102 0
    outer loop
      vertex 46.5802 33.842 4
      vertex 46.6577 33.3098 0
      vertex 46.6577 33.3098 4
    endloop
  endfacet
  facet normal 0.936224 0.351405 0
    outer loop
      vertex 19.7971 1.69835 4
      vertex 19.6081 2.20189 0
      vertex 19.6081 2.20189 4
    endloop
  endfacet
  facet normal 0.936224 0.351405 0
    outer loop
      vertex 19.6081 2.20189 0
      vertex 19.7971 1.69835 4
      vertex 19.7971 1.69835 0
    endloop
  endfacet
  facet normal -0.39306 0.919513 0
    outer loop
      vertex 37.9216 0.358212 0
      vertex 37.4271 0.14683 4
      vertex 37.9216 0.358212 4
    endloop
  endfacet
  facet normal -0.39306 0.919513 0
    outer loop
      vertex 37.4271 0.14683 4
      vertex 37.9216 0.358212 0
      vertex 37.4271 0.14683 0
    endloop
  endfacet
  facet normal 0.983941 0.178496 0
    outer loop
      vertex 19.6081 2.20189 4
      vertex 19.5121 2.73108 0
      vertex 19.5121 2.73108 4
    endloop
  endfacet
  facet normal 0.983941 0.178496 0
    outer loop
      vertex 19.5121 2.73108 0
      vertex 19.6081 2.20189 4
      vertex 19.6081 2.20189 0
    endloop
  endfacet
  facet normal -0.809046 0.587745 0
    outer loop
      vertex 38.7592 1.02618 0
      vertex 39.0753 1.4613 4
      vertex 39.0753 1.4613 0
    endloop
  endfacet
  facet normal -0.809046 0.587745 0
    outer loop
      vertex 39.0753 1.4613 4
      vertex 38.7592 1.02618 0
      vertex 38.7592 1.02618 4
    endloop
  endfacet
  facet normal 0.858497 -0.512819 0
    outer loop
      vertex 19.7971 4.30165 4
      vertex 20.0729 4.76336 0
      vertex 20.0729 4.76336 4
    endloop
  endfacet
  facet normal 0.858497 -0.512819 0
    outer loop
      vertex 20.0729 4.76336 0
      vertex 19.7971 4.30165 4
      vertex 19.7971 4.30165 0
    endloop
  endfacet
  facet normal -0.875827 -0.482625 0
    outer loop
      vertex 46.4089 34.3518 0
      vertex 46.1493 34.8229 4
      vertex 46.1493 34.8229 0
    endloop
  endfacet
  facet normal -0.875827 -0.482625 0
    outer loop
      vertex 46.1493 34.8229 4
      vertex 46.4089 34.3518 0
      vertex 46.4089 34.3518 4
    endloop
  endfacet
  facet normal 1 -0 0
    outer loop
      vertex 19.5121 2.73108 4
      vertex 19.5121 3.26892 0
      vertex 19.5121 3.26892 4
    endloop
  endfacet
  facet normal 1 0 0
    outer loop
      vertex 19.5121 3.26892 0
      vertex 19.5121 2.73108 4
      vertex 19.5121 2.73108 0
    endloop
  endfacet
  facet normal -0.504345 -0.863502 0
    outer loop
      vertex 44.9368 35.8611 0
      vertex 45.4013 35.5898 4
      vertex 44.9368 35.8611 4
    endloop
  endfacet
  facet normal -0.504345 -0.863502 -0
    outer loop
      vertex 45.4013 35.5898 4
      vertex 44.9368 35.8611 0
      vertex 45.4013 35.5898 0
    endloop
  endfacet
  facet normal -0.947918 -0.318514 0
    outer loop
      vertex 46.5802 33.842 0
      vertex 46.4089 34.3518 4
      vertex 46.4089 34.3518 0
    endloop
  endfacet
  facet normal -0.947918 -0.318514 0
    outer loop
      vertex 46.4089 34.3518 4
      vertex 46.5802 33.842 0
      vertex 46.5802 33.842 4
    endloop
  endfacet
  facet normal 0.983941 -0.178496 0
    outer loop
      vertex 19.5121 3.26892 4
      vertex 19.6081 3.79811 0
      vertex 19.6081 3.79811 4
    endloop
  endfacet
  facet normal 0.983941 -0.178496 0
    outer loop
      vertex 19.6081 3.79811 0
      vertex 19.5121 3.26892 4
      vertex 19.5121 3.26892 0
    endloop
  endfacet
  facet normal -0.0448643 0.998993 0
    outer loop
      vertex 36.9027 0.0271502 0
      vertex 36.3654 0.00302029 4
      vertex 36.9027 0.0271502 4
    endloop
  endfacet
  facet normal -0.0448643 0.998993 0
    outer loop
      vertex 36.3654 0.00302029 4
      vertex 36.9027 0.0271502 0
      vertex 36.3654 0.00302029 0
    endloop
  endfacet
  facet normal 0.858497 0.512819 0
    outer loop
      vertex 20.0729 1.23664 4
      vertex 19.7971 1.69835 0
      vertex 19.7971 1.69835 4
    endloop
  endfacet
  facet normal 0.858497 0.512819 0
    outer loop
      vertex 19.7971 1.69835 0
      vertex 20.0729 1.23664 4
      vertex 20.0729 1.23664 0
    endloop
  endfacet
endsolid OpenSCAD_Model
