solid OpenSCAD_Model
  facet normal 0 0 1
    outer loop
      vertex 40 38 2.5
      vertex 35.5 36 2.5
      vertex 40 0 2.5
    endloop
  endfacet
  facet normal 0 0 1
    outer loop
      vertex 40 38 2.5
      vertex 34 36 2.5
      vertex 35.5 36 2.5
    endloop
  endfacet
  facet normal 0 0 1
    outer loop
      vertex 34 36 2.5
      vertex 6 36 2.5
      vertex 34 0 2.5
    endloop
  endfacet
  facet normal 0 0 1
    outer loop
      vertex 40 38 2.5
      vertex 6 36 2.5
      vertex 34 36 2.5
    endloop
  endfacet
  facet normal -0 0 1
    outer loop
      vertex 0 38 2.5
      vertex 6 36 2.5
      vertex 40 38 2.5
    endloop
  endfacet
  facet normal 0 0 1
    outer loop
      vertex 6 36 2.5
      vertex 0 38 2.5
      vertex 4.5 36 2.5
    endloop
  endfacet
  facet normal 0 0 1
    outer loop
      vertex 0 0 2.5
      vertex 4.5 36 2.5
      vertex 0 38 2.5
    endloop
  endfacet
  facet normal 0 0 1
    outer loop
      vertex 4.5 36 2.5
      vertex 0 0 2.5
      vertex 4.5 0 2.5
    endloop
  endfacet
  facet normal 0 0 1
    outer loop
      vertex 40 0 2.5
      vertex 35.5 36 2.5
      vertex 35.5 0 2.5
    endloop
  endfacet
  facet normal 0 0 1
    outer loop
      vertex 34 0 2.5
      vertex 6 36 2.5
      vertex 6 0 2.5
    endloop
  endfacet
  facet normal 0 -1 0
    outer loop
      vertex 0 38 2.5
      vertex 40 38 5
      vertex 0 38 5
    endloop
  endfacet
  facet normal 0 -1 -0
    outer loop
      vertex 40 38 5
      vertex 0 38 2.5
      vertex 40 38 2.5
    endloop
  endfacet
  facet normal 1 -0 0
    outer loop
      vertex 6 0 5
      vertex 6 36 2.5
      vertex 6 36 5
    endloop
  endfacet
  facet normal 1 0 0
    outer loop
      vertex 6 36 2.5
      vertex 6 0 5
      vertex 6 0 2.5
    endloop
  endfacet
  facet normal -1 0 0
    outer loop
      vertex 4.5 0 2.5
      vertex 4.5 36 5
      vertex 4.5 36 2.5
    endloop
  endfacet
  facet normal -1 -0 0
    outer loop
      vertex 4.5 36 5
      vertex 4.5 0 2.5
      vertex 4.5 0 5
    endloop
  endfacet
  facet normal 0 1 -0
    outer loop
      vertex 6 36 2.5
      vertex 4.5 36 5
      vertex 6 36 5
    endloop
  endfacet
  facet normal 0 1 0
    outer loop
      vertex 4.5 36 5
      vertex 6 36 2.5
      vertex 4.5 36 2.5
    endloop
  endfacet
  facet normal 1 -0 0
    outer loop
      vertex 35.5 0 5
      vertex 35.5 36 2.5
      vertex 35.5 36 5
    endloop
  endfacet
  facet normal 1 0 0
    outer loop
      vertex 35.5 36 2.5
      vertex 35.5 0 5
      vertex 35.5 0 2.5
    endloop
  endfacet
  facet normal -1 0 0
    outer loop
      vertex 34 0 2.5
      vertex 34 36 5
      vertex 34 36 2.5
    endloop
  endfacet
  facet normal -1 -0 0
    outer loop
      vertex 34 36 5
      vertex 34 0 2.5
      vertex 34 0 5
    endloop
  endfacet
  facet normal 0 1 -0
    outer loop
      vertex 35.5 36 2.5
      vertex 34 36 5
      vertex 35.5 36 5
    endloop
  endfacet
  facet normal 0 1 0
    outer loop
      vertex 34 36 5
      vertex 35.5 36 2.5
      vertex 34 36 2.5
    endloop
  endfacet
  facet normal 1 0 0
    outer loop
      vertex 40 76 5
      vertex 40 79 7.5
      vertex 40 76 7.5
    endloop
  endfacet
  facet normal 1 0 0
    outer loop
      vertex 40 79 7.5
      vertex 40 76 5
      vertex 40 79 0
    endloop
  endfacet
  facet normal 1 0 0
    outer loop
      vertex 40 38 2.5
      vertex 40 76 5
      vertex 40 38 5
    endloop
  endfacet
  facet normal 1 0 0
    outer loop
      vertex 40 76 5
      vertex 40 38 2.5
      vertex 40 79 0
    endloop
  endfacet
  facet normal 1 0 0
    outer loop
      vertex 40 0 0
      vertex 40 38 2.5
      vertex 40 0 2.5
    endloop
  endfacet
  facet normal 1 0 0
    outer loop
      vertex 40 38 2.5
      vertex 40 0 0
      vertex 40 79 0
    endloop
  endfacet
  facet normal -0 0 1
    outer loop
      vertex 0 79 7.5
      vertex 40 76 7.5
      vertex 40 79 7.5
    endloop
  endfacet
  facet normal 0 0 1
    outer loop
      vertex 40 76 7.5
      vertex 0 79 7.5
      vertex 0 76 7.5
    endloop
  endfacet
  facet normal 0 0 -1
    outer loop
      vertex 0 0 0
      vertex 40 79 0
      vertex 40 0 0
    endloop
  endfacet
  facet normal -0 0 -1
    outer loop
      vertex 40 79 0
      vertex 0 0 0
      vertex 0 79 0
    endloop
  endfacet
  facet normal -1 0 0
    outer loop
      vertex 0 79 0
      vertex 0 76 5
      vertex 0 79 7.5
    endloop
  endfacet
  facet normal -1 0 0
    outer loop
      vertex 0 79 0
      vertex 0 38 2.5
      vertex 0 76 5
    endloop
  endfacet
  facet normal -1 0 0
    outer loop
      vertex 0 0 0
      vertex 0 38 2.5
      vertex 0 79 0
    endloop
  endfacet
  facet normal -1 -0 0
    outer loop
      vertex 0 38 2.5
      vertex 0 0 0
      vertex 0 0 2.5
    endloop
  endfacet
  facet normal -1 -0 0
    outer loop
      vertex 0 79 7.5
      vertex 0 76 5
      vertex 0 76 7.5
    endloop
  endfacet
  facet normal -1 -0 0
    outer loop
      vertex 0 76 5
      vertex 0 38 2.5
      vertex 0 38 5
    endloop
  endfacet
  facet normal 0 1 -0
    outer loop
      vertex 40 79 0
      vertex 0 79 7.5
      vertex 40 79 7.5
    endloop
  endfacet
  facet normal 0 1 0
    outer loop
      vertex 0 79 7.5
      vertex 40 79 0
      vertex 0 79 0
    endloop
  endfacet
  facet normal 0 -1 0
    outer loop
      vertex 0 0 0
      vertex 4.5 0 2.5
      vertex 0 0 2.5
    endloop
  endfacet
  facet normal 0 -1 -0
    outer loop
      vertex 4.5 0 2.5
      vertex 0 0 0
      vertex 6 0 2.5
    endloop
  endfacet
  facet normal 0 -1 -0
    outer loop
      vertex 6 0 2.5
      vertex 0 0 0
      vertex 34 0 2.5
    endloop
  endfacet
  facet normal 0 -1 0
    outer loop
      vertex 40 0 0
      vertex 34 0 2.5
      vertex 0 0 0
    endloop
  endfacet
  facet normal 0 -1 0
    outer loop
      vertex 34 0 2.5
      vertex 40 0 0
      vertex 35.5 0 2.5
    endloop
  endfacet
  facet normal 0 -1 0
    outer loop
      vertex 35.5 0 2.5
      vertex 40 0 0
      vertex 40 0 2.5
    endloop
  endfacet
  facet normal 0 -1 0
    outer loop
      vertex 4.5 0 2.5
      vertex 6 0 5
      vertex 4.5 0 5
    endloop
  endfacet
  facet normal 0 -1 -0
    outer loop
      vertex 6 0 5
      vertex 4.5 0 2.5
      vertex 6 0 2.5
    endloop
  endfacet
  facet normal 0 -1 0
    outer loop
      vertex 34 0 2.5
      vertex 35.5 0 5
      vertex 34 0 5
    endloop
  endfacet
  facet normal 0 -1 -0
    outer loop
      vertex 35.5 0 5
      vertex 34 0 2.5
      vertex 35.5 0 2.5
    endloop
  endfacet
  facet normal -0 0 1
    outer loop
      vertex 0 76 5
      vertex 40 38 5
      vertex 40 76 5
    endloop
  endfacet
  facet normal 0 0 1
    outer loop
      vertex 40 38 5
      vertex 0 76 5
      vertex 0 38 5
    endloop
  endfacet
  facet normal -0 0 1
    outer loop
      vertex 4.5 36 5
      vertex 6 0 5
      vertex 6 36 5
    endloop
  endfacet
  facet normal 0 0 1
    outer loop
      vertex 6 0 5
      vertex 4.5 36 5
      vertex 4.5 0 5
    endloop
  endfacet
  facet normal -0 0 1
    outer loop
      vertex 34 36 5
      vertex 35.5 0 5
      vertex 35.5 36 5
    endloop
  endfacet
  facet normal 0 0 1
    outer loop
      vertex 35.5 0 5
      vertex 34 36 5
      vertex 34 0 5
    endloop
  endfacet
  facet normal 0 -1 0
    outer loop
      vertex 0 76 5
      vertex 40 76 7.5
      vertex 0 76 7.5
    endloop
  endfacet
  facet normal 0 -1 -0
    outer loop
      vertex 40 76 7.5
      vertex 0 76 5
      vertex 40 76 5
    endloop
  endfacet
endsolid OpenSCAD_Model
