solid OpenSCAD_Model
  facet normal -0 0 1
    outer loop
      vertex 0 26 2.5
      vertex 4.5 0 2.5
      vertex 4.5 26 2.5
    endloop
  endfacet
  facet normal 0 0 1
    outer loop
      vertex 4.5 0 2.5
      vertex 0 26 2.5
      vertex 0 0 2.5
    endloop
  endfacet
  facet normal -0 0 1
    outer loop
      vertex 6 26 2.5
      vertex 34 0 2.5
      vertex 34 26 2.5
    endloop
  endfacet
  facet normal 0 0 1
    outer loop
      vertex 34 0 2.5
      vertex 6 26 2.5
      vertex 6 0 2.5
    endloop
  endfacet
  facet normal -0 0 1
    outer loop
      vertex 35.5 26 2.5
      vertex 40 0 2.5
      vertex 40 26 2.5
    endloop
  endfacet
  facet normal 0 0 1
    outer loop
      vertex 40 0 2.5
      vertex 35.5 26 2.5
      vertex 35.5 0 2.5
    endloop
  endfacet
  facet normal 0 -1 0
    outer loop
      vertex 0 26 2.5
      vertex 4.5 26 5
      vertex 0 26 5
    endloop
  endfacet
  facet normal 0 -1 -0
    outer loop
      vertex 4.5 26 5
      vertex 0 26 2.5
      vertex 4.5 26 2.5
    endloop
  endfacet
  facet normal 0 -1 0
    outer loop
      vertex 6 26 2.5
      vertex 34 26 5
      vertex 6 26 5
    endloop
  endfacet
  facet normal 0 -1 -0
    outer loop
      vertex 34 26 5
      vertex 6 26 2.5
      vertex 34 26 2.5
    endloop
  endfacet
  facet normal 0 -1 0
    outer loop
      vertex 35.5 26 2.5
      vertex 40 26 5
      vertex 35.5 26 5
    endloop
  endfacet
  facet normal 0 -1 -0
    outer loop
      vertex 40 26 5
      vertex 35.5 26 2.5
      vertex 40 26 2.5
    endloop
  endfacet
  facet normal 1 -0 0
    outer loop
      vertex 6 0 5
      vertex 6 26 2.5
      vertex 6 26 5
    endloop
  endfacet
  facet normal 1 0 0
    outer loop
      vertex 6 26 2.5
      vertex 6 0 5
      vertex 6 0 2.5
    endloop
  endfacet
  facet normal -1 0 0
    outer loop
      vertex 4.5 0 2.5
      vertex 4.5 26 5
      vertex 4.5 26 2.5
    endloop
  endfacet
  facet normal -1 -0 0
    outer loop
      vertex 4.5 26 5
      vertex 4.5 0 2.5
      vertex 4.5 0 5
    endloop
  endfacet
  facet normal 1 -0 0
    outer loop
      vertex 35.5 0 5
      vertex 35.5 26 2.5
      vertex 35.5 26 5
    endloop
  endfacet
  facet normal 1 0 0
    outer loop
      vertex 35.5 26 2.5
      vertex 35.5 0 5
      vertex 35.5 0 2.5
    endloop
  endfacet
  facet normal -1 0 0
    outer loop
      vertex 34 0 2.5
      vertex 34 26 5
      vertex 34 26 2.5
    endloop
  endfacet
  facet normal -1 -0 0
    outer loop
      vertex 34 26 5
      vertex 34 0 2.5
      vertex 34 0 5
    endloop
  endfacet
  facet normal 1 0 0
    outer loop
      vertex 40 56 5
      vertex 40 60 7.5
      vertex 40 56 7.5
    endloop
  endfacet
  facet normal 1 0 0
    outer loop
      vertex 40 60 7.5
      vertex 40 56 5
      vertex 40 60 0
    endloop
  endfacet
  facet normal 1 0 0
    outer loop
      vertex 40 26 2.5
      vertex 40 56 5
      vertex 40 26 5
    endloop
  endfacet
  facet normal 1 0 0
    outer loop
      vertex 40 56 5
      vertex 40 26 2.5
      vertex 40 60 0
    endloop
  endfacet
  facet normal 1 0 0
    outer loop
      vertex 40 0 0
      vertex 40 26 2.5
      vertex 40 0 2.5
    endloop
  endfacet
  facet normal 1 0 0
    outer loop
      vertex 40 26 2.5
      vertex 40 0 0
      vertex 40 60 0
    endloop
  endfacet
  facet normal -0 0 1
    outer loop
      vertex 0 60 7.5
      vertex 40 56 7.5
      vertex 40 60 7.5
    endloop
  endfacet
  facet normal 0 0 1
    outer loop
      vertex 40 56 7.5
      vertex 0 60 7.5
      vertex 0 56 7.5
    endloop
  endfacet
  facet normal 0 0 -1
    outer loop
      vertex 0 0 0
      vertex 40 60 0
      vertex 40 0 0
    endloop
  endfacet
  facet normal -0 0 -1
    outer loop
      vertex 40 60 0
      vertex 0 0 0
      vertex 0 60 0
    endloop
  endfacet
  facet normal -1 0 0
    outer loop
      vertex 0 60 0
      vertex 0 56 5
      vertex 0 60 7.5
    endloop
  endfacet
  facet normal -1 0 0
    outer loop
      vertex 0 60 0
      vertex 0 26 2.5
      vertex 0 56 5
    endloop
  endfacet
  facet normal -1 0 0
    outer loop
      vertex 0 0 0
      vertex 0 26 2.5
      vertex 0 60 0
    endloop
  endfacet
  facet normal -1 -0 0
    outer loop
      vertex 0 26 2.5
      vertex 0 0 0
      vertex 0 0 2.5
    endloop
  endfacet
  facet normal -1 -0 0
    outer loop
      vertex 0 60 7.5
      vertex 0 56 5
      vertex 0 56 7.5
    endloop
  endfacet
  facet normal -1 -0 0
    outer loop
      vertex 0 56 5
      vertex 0 26 2.5
      vertex 0 26 5
    endloop
  endfacet
  facet normal 0 1 -0
    outer loop
      vertex 40 60 0
      vertex 0 60 7.5
      vertex 40 60 7.5
    endloop
  endfacet
  facet normal 0 1 0
    outer loop
      vertex 0 60 7.5
      vertex 40 60 0
      vertex 0 60 0
    endloop
  endfacet
  facet normal 0 -1 0
    outer loop
      vertex 0 0 0
      vertex 4.5 0 2.5
      vertex 0 0 2.5
    endloop
  endfacet
  facet normal 0 -1 -0
    outer loop
      vertex 4.5 0 2.5
      vertex 0 0 0
      vertex 6 0 2.5
    endloop
  endfacet
  facet normal 0 -1 -0
    outer loop
      vertex 6 0 2.5
      vertex 0 0 0
      vertex 34 0 2.5
    endloop
  endfacet
  facet normal 0 -1 0
    outer loop
      vertex 40 0 0
      vertex 34 0 2.5
      vertex 0 0 0
    endloop
  endfacet
  facet normal 0 -1 0
    outer loop
      vertex 34 0 2.5
      vertex 40 0 0
      vertex 35.5 0 2.5
    endloop
  endfacet
  facet normal 0 -1 0
    outer loop
      vertex 35.5 0 2.5
      vertex 40 0 0
      vertex 40 0 2.5
    endloop
  endfacet
  facet normal 0 -1 0
    outer loop
      vertex 4.5 0 2.5
      vertex 6 0 5
      vertex 4.5 0 5
    endloop
  endfacet
  facet normal 0 -1 -0
    outer loop
      vertex 6 0 5
      vertex 4.5 0 2.5
      vertex 6 0 2.5
    endloop
  endfacet
  facet normal 0 -1 0
    outer loop
      vertex 34 0 2.5
      vertex 35.5 0 5
      vertex 34 0 5
    endloop
  endfacet
  facet normal 0 -1 -0
    outer loop
      vertex 35.5 0 5
      vertex 34 0 2.5
      vertex 35.5 0 2.5
    endloop
  endfacet
  facet normal 0 0 1
    outer loop
      vertex 40 56 5
      vertex 35.5 26 5
      vertex 40 26 5
    endloop
  endfacet
  facet normal 0 0 1
    outer loop
      vertex 35.5 26 5
      vertex 34 26 5
      vertex 35.5 0 5
    endloop
  endfacet
  facet normal 0 0 1
    outer loop
      vertex 40 56 5
      vertex 34 26 5
      vertex 35.5 26 5
    endloop
  endfacet
  facet normal 0 0 1
    outer loop
      vertex 40 56 5
      vertex 6 26 5
      vertex 34 26 5
    endloop
  endfacet
  facet normal 0 0 1
    outer loop
      vertex 6 26 5
      vertex 4.5 26 5
      vertex 6 0 5
    endloop
  endfacet
  facet normal -0 0 1
    outer loop
      vertex 0 56 5
      vertex 6 26 5
      vertex 40 56 5
    endloop
  endfacet
  facet normal 0 0 1
    outer loop
      vertex 6 26 5
      vertex 0 56 5
      vertex 4.5 26 5
    endloop
  endfacet
  facet normal 0 0 1
    outer loop
      vertex 4.5 26 5
      vertex 0 56 5
      vertex 0 26 5
    endloop
  endfacet
  facet normal 0 0 1
    outer loop
      vertex 35.5 0 5
      vertex 34 26 5
      vertex 34 0 5
    endloop
  endfacet
  facet normal 0 0 1
    outer loop
      vertex 6 0 5
      vertex 4.5 26 5
      vertex 4.5 0 5
    endloop
  endfacet
  facet normal 0 -1 0
    outer loop
      vertex 0 56 5
      vertex 40 56 7.5
      vertex 0 56 7.5
    endloop
  endfacet
  facet normal 0 -1 -0
    outer loop
      vertex 40 56 7.5
      vertex 0 56 5
      vertex 40 56 5
    endloop
  endfacet
endsolid OpenSCAD_Model
