solid OpenSCAD_Model
  facet normal 1 -0 0
    outer loop
      vertex 7 7 8
      vertex 7 38.5 4
      vertex 7 38.5 8
    endloop
  endfacet
  facet normal 1 0 0
    outer loop
      vertex 7 38.5 4
      vertex 7 7 8
      vertex 7 7 4
    endloop
  endfacet
  facet normal -1 0 0
    outer loop
      vertex 38.5 7 4
      vertex 38.5 38.5 8
      vertex 38.5 38.5 4
    endloop
  endfacet
  facet normal -1 -0 0
    outer loop
      vertex 38.5 38.5 8
      vertex 38.5 7 4
      vertex 38.5 7 8
    endloop
  endfacet
  facet normal 0 -1 0
    outer loop
      vertex 7 38.5 4
      vertex 38.5 38.5 8
      vertex 7 38.5 8
    endloop
  endfacet
  facet normal 0 -1 -0
    outer loop
      vertex 38.5 38.5 8
      vertex 7 38.5 4
      vertex 38.5 38.5 4
    endloop
  endfacet
  facet normal -0 0 1
    outer loop
      vertex 7 38.5 4
      vertex 38.5 7 4
      vertex 38.5 38.5 4
    endloop
  endfacet
  facet normal 0 0 1
    outer loop
      vertex 38.5 7 4
      vertex 7 38.5 4
      vertex 7 7 4
    endloop
  endfacet
  facet normal 0 1 -0
    outer loop
      vertex 38.5 7 4
      vertex 7 7 8
      vertex 38.5 7 8
    endloop
  endfacet
  facet normal 0 1 0
    outer loop
      vertex 7 7 8
      vertex 38.5 7 4
      vertex 7 7 4
    endloop
  endfacet
  facet normal -0.994522 -0.104528 0
    outer loop
      vertex 42 66.5 4
      vertex 41.6176 70.1385 8
      vertex 41.6176 70.1385 4
    endloop
  endfacet
  facet normal -0.994522 -0.104528 0
    outer loop
      vertex 41.6176 70.1385 8
      vertex 42 66.5 4
      vertex 42 66.5 8
    endloop
  endfacet
  facet normal 0.207911 -0.978148 0
    outer loop
      vertex 19.0922 83.1435 4
      vertex 22.6708 83.9041 8
      vertex 19.0922 83.1435 8
    endloop
  endfacet
  facet normal 0.207911 -0.978148 0
    outer loop
      vertex 22.6708 83.9041 8
      vertex 19.0922 83.1435 4
      vertex 22.6708 83.9041 4
    endloop
  endfacet
  facet normal -0.207911 0.978148 0
    outer loop
      vertex 29.9078 49.8565 4
      vertex 26.3292 49.0959 8
      vertex 29.9078 49.8565 8
    endloop
  endfacet
  facet normal -0.207911 0.978148 0
    outer loop
      vertex 26.3292 49.0959 8
      vertex 29.9078 49.8565 4
      vertex 26.3292 49.0959 4
    endloop
  endfacet
  facet normal -0.587785 -0.809018 0
    outer loop
      vertex 33.25 81.6554 4
      vertex 36.2098 79.505 8
      vertex 33.25 81.6554 8
    endloop
  endfacet
  facet normal -0.587785 -0.809018 -0
    outer loop
      vertex 36.2098 79.505 8
      vertex 33.25 81.6554 4
      vertex 36.2098 79.505 4
    endloop
  endfacet
  facet normal 0.866025 -0.5 0
    outer loop
      vertex 8.51295 73.6179 8
      vertex 10.3422 76.7862 4
      vertex 10.3422 76.7862 8
    endloop
  endfacet
  facet normal 0.866025 -0.5 0
    outer loop
      vertex 10.3422 76.7862 4
      vertex 8.51295 73.6179 8
      vertex 8.51295 73.6179 4
    endloop
  endfacet
  facet normal 0.951056 -0.309017 0
    outer loop
      vertex 7.38242 70.1385 8
      vertex 8.51295 73.6179 4
      vertex 8.51295 73.6179 8
    endloop
  endfacet
  facet normal 0.951056 -0.309017 0
    outer loop
      vertex 8.51295 73.6179 4
      vertex 7.38242 70.1385 8
      vertex 7.38242 70.1385 4
    endloop
  endfacet
  facet normal 0.587784 -0.809018 0
    outer loop
      vertex 12.7902 79.505 4
      vertex 15.75 81.6554 8
      vertex 12.7902 79.505 8
    endloop
  endfacet
  facet normal 0.587784 -0.809018 0
    outer loop
      vertex 15.75 81.6554 8
      vertex 12.7902 79.505 4
      vertex 15.75 81.6554 4
    endloop
  endfacet
  facet normal -0.866026 -0.5 0
    outer loop
      vertex 40.487 73.6179 4
      vertex 38.6578 76.7862 8
      vertex 38.6578 76.7862 4
    endloop
  endfacet
  facet normal -0.866026 -0.5 0
    outer loop
      vertex 38.6578 76.7862 8
      vertex 40.487 73.6179 4
      vertex 40.487 73.6179 8
    endloop
  endfacet
  facet normal -0.951056 -0.309018 0
    outer loop
      vertex 41.6176 70.1385 4
      vertex 40.487 73.6179 8
      vertex 40.487 73.6179 4
    endloop
  endfacet
  facet normal -0.951056 -0.309018 0
    outer loop
      vertex 40.487 73.6179 8
      vertex 41.6176 70.1385 4
      vertex 41.6176 70.1385 8
    endloop
  endfacet
  facet normal -0.743145 -0.66913 0
    outer loop
      vertex 38.6578 76.7862 4
      vertex 36.2098 79.505 8
      vertex 36.2098 79.505 4
    endloop
  endfacet
  facet normal -0.743145 -0.66913 0
    outer loop
      vertex 36.2098 79.505 8
      vertex 38.6578 76.7862 4
      vertex 38.6578 76.7862 8
    endloop
  endfacet
  facet normal -0.207911 -0.978148 0
    outer loop
      vertex 26.3292 83.9041 4
      vertex 29.9078 83.1435 8
      vertex 26.3292 83.9041 8
    endloop
  endfacet
  facet normal -0.207911 -0.978148 -0
    outer loop
      vertex 29.9078 83.1435 8
      vertex 26.3292 83.9041 4
      vertex 29.9078 83.1435 4
    endloop
  endfacet
  facet normal 0 -1 0
    outer loop
      vertex 22.6708 83.9041 4
      vertex 26.3292 83.9041 8
      vertex 22.6708 83.9041 8
    endloop
  endfacet
  facet normal 0 -1 -0
    outer loop
      vertex 26.3292 83.9041 8
      vertex 22.6708 83.9041 4
      vertex 26.3292 83.9041 4
    endloop
  endfacet
  facet normal -0.406737 -0.913545 0
    outer loop
      vertex 29.9078 83.1435 4
      vertex 33.25 81.6554 8
      vertex 29.9078 83.1435 8
    endloop
  endfacet
  facet normal -0.406737 -0.913545 -0
    outer loop
      vertex 33.25 81.6554 8
      vertex 29.9078 83.1435 4
      vertex 33.25 81.6554 4
    endloop
  endfacet
  facet normal 0 0 1
    outer loop
      vertex 41.6176 70.1385 4
      vertex 41.6176 62.8615 4
      vertex 42 66.5 4
    endloop
  endfacet
  facet normal 0 0 1
    outer loop
      vertex 40.487 73.6179 4
      vertex 41.6176 62.8615 4
      vertex 41.6176 70.1385 4
    endloop
  endfacet
  facet normal 0 0 1
    outer loop
      vertex 40.487 73.6179 4
      vertex 40.487 59.3821 4
      vertex 41.6176 62.8615 4
    endloop
  endfacet
  facet normal 0 0 1
    outer loop
      vertex 38.6578 76.7862 4
      vertex 40.487 59.3821 4
      vertex 40.487 73.6179 4
    endloop
  endfacet
  facet normal 0 0 1
    outer loop
      vertex 38.6578 76.7862 4
      vertex 38.6578 56.2138 4
      vertex 40.487 59.3821 4
    endloop
  endfacet
  facet normal 0 0 1
    outer loop
      vertex 36.2098 79.505 4
      vertex 38.6578 56.2138 4
      vertex 38.6578 76.7862 4
    endloop
  endfacet
  facet normal 0 0 1
    outer loop
      vertex 36.2098 79.505 4
      vertex 36.2098 53.495 4
      vertex 38.6578 56.2138 4
    endloop
  endfacet
  facet normal 0 0 1
    outer loop
      vertex 33.25 81.6554 4
      vertex 36.2098 53.495 4
      vertex 36.2098 79.505 4
    endloop
  endfacet
  facet normal 0 0 1
    outer loop
      vertex 33.25 81.6554 4
      vertex 33.25 51.3446 4
      vertex 36.2098 53.495 4
    endloop
  endfacet
  facet normal 0 0 1
    outer loop
      vertex 29.9078 83.1435 4
      vertex 33.25 51.3446 4
      vertex 33.25 81.6554 4
    endloop
  endfacet
  facet normal 0 0 1
    outer loop
      vertex 29.9078 83.1435 4
      vertex 29.9078 49.8565 4
      vertex 33.25 51.3446 4
    endloop
  endfacet
  facet normal 0 0 1
    outer loop
      vertex 26.3292 83.9041 4
      vertex 29.9078 49.8565 4
      vertex 29.9078 83.1435 4
    endloop
  endfacet
  facet normal 0 0 1
    outer loop
      vertex 26.3292 83.9041 4
      vertex 26.3292 49.0959 4
      vertex 29.9078 49.8565 4
    endloop
  endfacet
  facet normal -0 0 1
    outer loop
      vertex 22.6708 83.9041 4
      vertex 26.3292 49.0959 4
      vertex 26.3292 83.9041 4
    endloop
  endfacet
  facet normal 0 0 1
    outer loop
      vertex 22.6708 83.9041 4
      vertex 22.6708 49.0959 4
      vertex 26.3292 49.0959 4
    endloop
  endfacet
  facet normal -0 0 1
    outer loop
      vertex 19.0922 83.1435 4
      vertex 22.6708 49.0959 4
      vertex 22.6708 83.9041 4
    endloop
  endfacet
  facet normal 0 0 1
    outer loop
      vertex 19.0922 83.1435 4
      vertex 19.0922 49.8565 4
      vertex 22.6708 49.0959 4
    endloop
  endfacet
  facet normal -0 0 1
    outer loop
      vertex 15.75 81.6554 4
      vertex 19.0922 49.8565 4
      vertex 19.0922 83.1435 4
    endloop
  endfacet
  facet normal 0 0 1
    outer loop
      vertex 15.75 81.6554 4
      vertex 15.75 51.3446 4
      vertex 19.0922 49.8565 4
    endloop
  endfacet
  facet normal -0 0 1
    outer loop
      vertex 12.7902 79.505 4
      vertex 15.75 51.3446 4
      vertex 15.75 81.6554 4
    endloop
  endfacet
  facet normal 0 0 1
    outer loop
      vertex 12.7902 79.505 4
      vertex 12.7902 53.495 4
      vertex 15.75 51.3446 4
    endloop
  endfacet
  facet normal -0 0 1
    outer loop
      vertex 10.3422 76.7862 4
      vertex 12.7902 53.495 4
      vertex 12.7902 79.505 4
    endloop
  endfacet
  facet normal 0 0 1
    outer loop
      vertex 10.3422 76.7862 4
      vertex 10.3422 56.2138 4
      vertex 12.7902 53.495 4
    endloop
  endfacet
  facet normal -0 0 1
    outer loop
      vertex 8.51295 73.6179 4
      vertex 10.3422 56.2138 4
      vertex 10.3422 76.7862 4
    endloop
  endfacet
  facet normal 0 0 1
    outer loop
      vertex 8.51295 73.6179 4
      vertex 8.51295 59.3821 4
      vertex 10.3422 56.2138 4
    endloop
  endfacet
  facet normal -0 0 1
    outer loop
      vertex 7.38242 70.1385 4
      vertex 8.51295 59.3821 4
      vertex 8.51295 73.6179 4
    endloop
  endfacet
  facet normal 0 0 1
    outer loop
      vertex 7.38242 70.1385 4
      vertex 7.38242 62.8615 4
      vertex 8.51295 59.3821 4
    endloop
  endfacet
  facet normal 0 -0 1
    outer loop
      vertex 7.38242 62.8615 4
      vertex 7.38242 70.1385 4
      vertex 7 66.5 4
    endloop
  endfacet
  facet normal 0.994522 -0.104528 0
    outer loop
      vertex 7 66.5 8
      vertex 7.38242 70.1385 4
      vertex 7.38242 70.1385 8
    endloop
  endfacet
  facet normal 0.994522 -0.104528 0
    outer loop
      vertex 7.38242 70.1385 4
      vertex 7 66.5 8
      vertex 7 66.5 4
    endloop
  endfacet
  facet normal 0.743145 -0.66913 0
    outer loop
      vertex 10.3422 76.7862 8
      vertex 12.7902 79.505 4
      vertex 12.7902 79.505 8
    endloop
  endfacet
  facet normal 0.743145 -0.66913 0
    outer loop
      vertex 12.7902 79.505 4
      vertex 10.3422 76.7862 8
      vertex 10.3422 76.7862 4
    endloop
  endfacet
  facet normal 0.406737 -0.913545 0
    outer loop
      vertex 15.75 81.6554 4
      vertex 19.0922 83.1435 8
      vertex 15.75 81.6554 8
    endloop
  endfacet
  facet normal 0.406737 -0.913545 0
    outer loop
      vertex 19.0922 83.1435 8
      vertex 15.75 81.6554 4
      vertex 19.0922 83.1435 4
    endloop
  endfacet
  facet normal -0.994522 0.104528 0
    outer loop
      vertex 41.6176 62.8615 4
      vertex 42 66.5 8
      vertex 42 66.5 4
    endloop
  endfacet
  facet normal -0.994522 0.104528 0
    outer loop
      vertex 42 66.5 8
      vertex 41.6176 62.8615 4
      vertex 41.6176 62.8615 8
    endloop
  endfacet
  facet normal -0.406737 0.913545 0
    outer loop
      vertex 33.25 51.3446 4
      vertex 29.9078 49.8565 8
      vertex 33.25 51.3446 8
    endloop
  endfacet
  facet normal -0.406737 0.913545 0
    outer loop
      vertex 29.9078 49.8565 8
      vertex 33.25 51.3446 4
      vertex 29.9078 49.8565 4
    endloop
  endfacet
  facet normal -0.951056 0.309017 0
    outer loop
      vertex 40.487 59.3821 4
      vertex 41.6176 62.8615 8
      vertex 41.6176 62.8615 4
    endloop
  endfacet
  facet normal -0.951056 0.309017 0
    outer loop
      vertex 41.6176 62.8615 8
      vertex 40.487 59.3821 4
      vertex 40.487 59.3821 8
    endloop
  endfacet
  facet normal 0.994522 0.104528 0
    outer loop
      vertex 7.38242 62.8615 8
      vertex 7 66.5 4
      vertex 7 66.5 8
    endloop
  endfacet
  facet normal 0.994522 0.104528 0
    outer loop
      vertex 7 66.5 4
      vertex 7.38242 62.8615 8
      vertex 7.38242 62.8615 4
    endloop
  endfacet
  facet normal 0.743145 0.669131 0
    outer loop
      vertex 12.7902 53.495 8
      vertex 10.3422 56.2138 4
      vertex 10.3422 56.2138 8
    endloop
  endfacet
  facet normal 0.743145 0.669131 0
    outer loop
      vertex 10.3422 56.2138 4
      vertex 12.7902 53.495 8
      vertex 12.7902 53.495 4
    endloop
  endfacet
  facet normal 0.587785 0.809017 -0
    outer loop
      vertex 15.75 51.3446 4
      vertex 12.7902 53.495 8
      vertex 15.75 51.3446 8
    endloop
  endfacet
  facet normal 0.587785 0.809017 0
    outer loop
      vertex 12.7902 53.495 8
      vertex 15.75 51.3446 4
      vertex 12.7902 53.495 4
    endloop
  endfacet
  facet normal -0.743145 0.669131 0
    outer loop
      vertex 36.2098 53.495 4
      vertex 38.6578 56.2138 8
      vertex 38.6578 56.2138 4
    endloop
  endfacet
  facet normal -0.743145 0.669131 0
    outer loop
      vertex 38.6578 56.2138 8
      vertex 36.2098 53.495 4
      vertex 36.2098 53.495 8
    endloop
  endfacet
  facet normal -0.587785 0.809017 0
    outer loop
      vertex 36.2098 53.495 4
      vertex 33.25 51.3446 8
      vertex 36.2098 53.495 8
    endloop
  endfacet
  facet normal -0.587785 0.809017 0
    outer loop
      vertex 33.25 51.3446 8
      vertex 36.2098 53.495 4
      vertex 33.25 51.3446 4
    endloop
  endfacet
  facet normal 0 1 -0
    outer loop
      vertex 26.3292 49.0959 4
      vertex 22.6708 49.0959 8
      vertex 26.3292 49.0959 8
    endloop
  endfacet
  facet normal 0 1 0
    outer loop
      vertex 22.6708 49.0959 8
      vertex 26.3292 49.0959 4
      vertex 22.6708 49.0959 4
    endloop
  endfacet
  facet normal 0.866026 0.5 0
    outer loop
      vertex 10.3422 56.2138 8
      vertex 8.51295 59.3821 4
      vertex 8.51295 59.3821 8
    endloop
  endfacet
  facet normal 0.866026 0.5 0
    outer loop
      vertex 8.51295 59.3821 4
      vertex 10.3422 56.2138 8
      vertex 10.3422 56.2138 4
    endloop
  endfacet
  facet normal 0.951057 0.309017 0
    outer loop
      vertex 8.51295 59.3821 8
      vertex 7.38242 62.8615 4
      vertex 7.38242 62.8615 8
    endloop
  endfacet
  facet normal 0.951057 0.309017 0
    outer loop
      vertex 7.38242 62.8615 4
      vertex 8.51295 59.3821 8
      vertex 8.51295 59.3821 4
    endloop
  endfacet
  facet normal -0.866026 0.499999 0
    outer loop
      vertex 38.6578 56.2138 4
      vertex 40.487 59.3821 8
      vertex 40.487 59.3821 4
    endloop
  endfacet
  facet normal -0.866026 0.499999 0
    outer loop
      vertex 40.487 59.3821 8
      vertex 38.6578 56.2138 4
      vertex 38.6578 56.2138 8
    endloop
  endfacet
  facet normal 0.207911 0.978148 -0
    outer loop
      vertex 22.6708 49.0959 4
      vertex 19.0922 49.8565 8
      vertex 22.6708 49.0959 8
    endloop
  endfacet
  facet normal 0.207911 0.978148 0
    outer loop
      vertex 19.0922 49.8565 8
      vertex 22.6708 49.0959 4
      vertex 19.0922 49.8565 4
    endloop
  endfacet
  facet normal 0.406737 0.913545 -0
    outer loop
      vertex 19.0922 49.8565 4
      vertex 15.75 51.3446 8
      vertex 19.0922 49.8565 8
    endloop
  endfacet
  facet normal 0.406737 0.913545 0
    outer loop
      vertex 15.75 51.3446 8
      vertex 19.0922 49.8565 4
      vertex 15.75 51.3446 4
    endloop
  endfacet
  facet normal 1 -0 0
    outer loop
      vertex 7 91 8
      vertex 7 122.5 4
      vertex 7 122.5 8
    endloop
  endfacet
  facet normal 1 0 0
    outer loop
      vertex 7 122.5 4
      vertex 7 91 8
      vertex 7 91 4
    endloop
  endfacet
  facet normal -1 0 0
    outer loop
      vertex 38.5 91 4
      vertex 38.5 122.5 8
      vertex 38.5 122.5 4
    endloop
  endfacet
  facet normal -1 -0 0
    outer loop
      vertex 38.5 122.5 8
      vertex 38.5 91 4
      vertex 38.5 91 8
    endloop
  endfacet
  facet normal 0 -1 0
    outer loop
      vertex 7 122.5 4
      vertex 38.5 122.5 8
      vertex 7 122.5 8
    endloop
  endfacet
  facet normal 0 -1 -0
    outer loop
      vertex 38.5 122.5 8
      vertex 7 122.5 4
      vertex 38.5 122.5 4
    endloop
  endfacet
  facet normal -0 0 1
    outer loop
      vertex 7 122.5 4
      vertex 38.5 91 4
      vertex 38.5 122.5 4
    endloop
  endfacet
  facet normal 0 0 1
    outer loop
      vertex 38.5 91 4
      vertex 7 122.5 4
      vertex 7 91 4
    endloop
  endfacet
  facet normal 0 1 -0
    outer loop
      vertex 38.5 91 4
      vertex 7 91 8
      vertex 38.5 91 8
    endloop
  endfacet
  facet normal 0 1 0
    outer loop
      vertex 7 91 8
      vertex 38.5 91 4
      vertex 7 91 4
    endloop
  endfacet
  facet normal -0.994522 -0.104528 0
    outer loop
      vertex 84 24.5 4
      vertex 83.6176 28.1385 8
      vertex 83.6176 28.1385 4
    endloop
  endfacet
  facet normal -0.994522 -0.104528 0
    outer loop
      vertex 83.6176 28.1385 8
      vertex 84 24.5 4
      vertex 84 24.5 8
    endloop
  endfacet
  facet normal 0.207911 -0.978148 0
    outer loop
      vertex 61.0922 41.1435 4
      vertex 64.6708 41.9041 8
      vertex 61.0922 41.1435 8
    endloop
  endfacet
  facet normal 0.207911 -0.978148 0
    outer loop
      vertex 64.6708 41.9041 8
      vertex 61.0922 41.1435 4
      vertex 64.6708 41.9041 4
    endloop
  endfacet
  facet normal -0.207911 0.978148 0
    outer loop
      vertex 71.9078 7.85651 4
      vertex 68.3292 7.09587 8
      vertex 71.9078 7.85651 8
    endloop
  endfacet
  facet normal -0.207911 0.978148 0
    outer loop
      vertex 68.3292 7.09587 8
      vertex 71.9078 7.85651 4
      vertex 68.3292 7.09587 4
    endloop
  endfacet
  facet normal -0.587785 -0.809017 0
    outer loop
      vertex 75.25 39.6554 4
      vertex 78.2098 37.505 8
      vertex 75.25 39.6554 8
    endloop
  endfacet
  facet normal -0.587785 -0.809017 -0
    outer loop
      vertex 78.2098 37.505 8
      vertex 75.25 39.6554 4
      vertex 78.2098 37.505 4
    endloop
  endfacet
  facet normal 0.866026 -0.5 0
    outer loop
      vertex 50.513 31.6179 8
      vertex 52.3422 34.7862 4
      vertex 52.3422 34.7862 8
    endloop
  endfacet
  facet normal 0.866026 -0.5 0
    outer loop
      vertex 52.3422 34.7862 4
      vertex 50.513 31.6179 8
      vertex 50.513 31.6179 4
    endloop
  endfacet
  facet normal 0.951056 -0.309017 0
    outer loop
      vertex 49.3824 28.1385 8
      vertex 50.513 31.6179 4
      vertex 50.513 31.6179 8
    endloop
  endfacet
  facet normal 0.951056 -0.309017 0
    outer loop
      vertex 50.513 31.6179 4
      vertex 49.3824 28.1385 8
      vertex 49.3824 28.1385 4
    endloop
  endfacet
  facet normal 0.587785 -0.809017 0
    outer loop
      vertex 54.7902 37.505 4
      vertex 57.75 39.6554 8
      vertex 54.7902 37.505 8
    endloop
  endfacet
  facet normal 0.587785 -0.809017 0
    outer loop
      vertex 57.75 39.6554 8
      vertex 54.7902 37.505 4
      vertex 57.75 39.6554 4
    endloop
  endfacet
  facet normal -0.866026 0.5 0
    outer loop
      vertex 80.6578 14.2138 4
      vertex 82.487 17.3821 8
      vertex 82.487 17.3821 4
    endloop
  endfacet
  facet normal -0.866026 0.5 0
    outer loop
      vertex 82.487 17.3821 8
      vertex 80.6578 14.2138 4
      vertex 80.6578 14.2138 8
    endloop
  endfacet
  facet normal -0.866026 -0.5 0
    outer loop
      vertex 82.487 31.6179 4
      vertex 80.6578 34.7862 8
      vertex 80.6578 34.7862 4
    endloop
  endfacet
  facet normal -0.866026 -0.5 0
    outer loop
      vertex 80.6578 34.7862 8
      vertex 82.487 31.6179 4
      vertex 82.487 31.6179 8
    endloop
  endfacet
  facet normal -0.951056 -0.309017 0
    outer loop
      vertex 83.6176 28.1385 4
      vertex 82.487 31.6179 8
      vertex 82.487 31.6179 4
    endloop
  endfacet
  facet normal -0.951056 -0.309017 0
    outer loop
      vertex 82.487 31.6179 8
      vertex 83.6176 28.1385 4
      vertex 83.6176 28.1385 8
    endloop
  endfacet
  facet normal -0.743145 -0.66913 0
    outer loop
      vertex 80.6578 34.7862 4
      vertex 78.2098 37.505 8
      vertex 78.2098 37.505 4
    endloop
  endfacet
  facet normal -0.743145 -0.66913 0
    outer loop
      vertex 78.2098 37.505 8
      vertex 80.6578 34.7862 4
      vertex 80.6578 34.7862 8
    endloop
  endfacet
  facet normal -0.207911 -0.978148 0
    outer loop
      vertex 68.3292 41.9041 4
      vertex 71.9078 41.1435 8
      vertex 68.3292 41.9041 8
    endloop
  endfacet
  facet normal -0.207911 -0.978148 -0
    outer loop
      vertex 71.9078 41.1435 8
      vertex 68.3292 41.9041 4
      vertex 71.9078 41.1435 4
    endloop
  endfacet
  facet normal 0 -1 0
    outer loop
      vertex 64.6708 41.9041 4
      vertex 68.3292 41.9041 8
      vertex 64.6708 41.9041 8
    endloop
  endfacet
  facet normal 0 -1 -0
    outer loop
      vertex 68.3292 41.9041 8
      vertex 64.6708 41.9041 4
      vertex 68.3292 41.9041 4
    endloop
  endfacet
  facet normal -0.406737 -0.913545 0
    outer loop
      vertex 71.9078 41.1435 4
      vertex 75.25 39.6554 8
      vertex 71.9078 41.1435 8
    endloop
  endfacet
  facet normal -0.406737 -0.913545 -0
    outer loop
      vertex 75.25 39.6554 8
      vertex 71.9078 41.1435 4
      vertex 75.25 39.6554 4
    endloop
  endfacet
  facet normal 0 0 1
    outer loop
      vertex 83.6176 28.1385 4
      vertex 83.6176 20.8615 4
      vertex 84 24.5 4
    endloop
  endfacet
  facet normal 0 0 1
    outer loop
      vertex 82.487 31.6179 4
      vertex 83.6176 20.8615 4
      vertex 83.6176 28.1385 4
    endloop
  endfacet
  facet normal 0 0 1
    outer loop
      vertex 82.487 31.6179 4
      vertex 82.487 17.3821 4
      vertex 83.6176 20.8615 4
    endloop
  endfacet
  facet normal 0 0 1
    outer loop
      vertex 80.6578 34.7862 4
      vertex 82.487 17.3821 4
      vertex 82.487 31.6179 4
    endloop
  endfacet
  facet normal 0 0 1
    outer loop
      vertex 80.6578 34.7862 4
      vertex 80.6578 14.2138 4
      vertex 82.487 17.3821 4
    endloop
  endfacet
  facet normal 0 0 1
    outer loop
      vertex 78.2098 37.505 4
      vertex 80.6578 14.2138 4
      vertex 80.6578 34.7862 4
    endloop
  endfacet
  facet normal 0 0 1
    outer loop
      vertex 78.2098 37.505 4
      vertex 78.2098 11.495 4
      vertex 80.6578 14.2138 4
    endloop
  endfacet
  facet normal 0 0 1
    outer loop
      vertex 75.25 39.6554 4
      vertex 78.2098 11.495 4
      vertex 78.2098 37.505 4
    endloop
  endfacet
  facet normal 0 0 1
    outer loop
      vertex 75.25 39.6554 4
      vertex 75.25 9.34455 4
      vertex 78.2098 11.495 4
    endloop
  endfacet
  facet normal 0 0 1
    outer loop
      vertex 71.9078 41.1435 4
      vertex 75.25 9.34455 4
      vertex 75.25 39.6554 4
    endloop
  endfacet
  facet normal 0 0 1
    outer loop
      vertex 71.9078 41.1435 4
      vertex 71.9078 7.85651 4
      vertex 75.25 9.34455 4
    endloop
  endfacet
  facet normal 0 0 1
    outer loop
      vertex 68.3292 41.9041 4
      vertex 71.9078 7.85651 4
      vertex 71.9078 41.1435 4
    endloop
  endfacet
  facet normal 0 0 1
    outer loop
      vertex 68.3292 41.9041 4
      vertex 68.3292 7.09587 4
      vertex 71.9078 7.85651 4
    endloop
  endfacet
  facet normal -0 0 1
    outer loop
      vertex 64.6708 41.9041 4
      vertex 68.3292 7.09587 4
      vertex 68.3292 41.9041 4
    endloop
  endfacet
  facet normal 0 0 1
    outer loop
      vertex 64.6708 41.9041 4
      vertex 64.6708 7.09587 4
      vertex 68.3292 7.09587 4
    endloop
  endfacet
  facet normal -0 0 1
    outer loop
      vertex 61.0922 41.1435 4
      vertex 64.6708 7.09587 4
      vertex 64.6708 41.9041 4
    endloop
  endfacet
  facet normal 0 0 1
    outer loop
      vertex 61.0922 41.1435 4
      vertex 61.0922 7.85651 4
      vertex 64.6708 7.09587 4
    endloop
  endfacet
  facet normal -0 0 1
    outer loop
      vertex 57.75 39.6554 4
      vertex 61.0922 7.85651 4
      vertex 61.0922 41.1435 4
    endloop
  endfacet
  facet normal 0 0 1
    outer loop
      vertex 57.75 39.6554 4
      vertex 57.75 9.34455 4
      vertex 61.0922 7.85651 4
    endloop
  endfacet
  facet normal -0 0 1
    outer loop
      vertex 54.7902 37.505 4
      vertex 57.75 9.34455 4
      vertex 57.75 39.6554 4
    endloop
  endfacet
  facet normal 0 0 1
    outer loop
      vertex 54.7902 37.505 4
      vertex 54.7902 11.495 4
      vertex 57.75 9.34455 4
    endloop
  endfacet
  facet normal -0 0 1
    outer loop
      vertex 52.3422 34.7862 4
      vertex 54.7902 11.495 4
      vertex 54.7902 37.505 4
    endloop
  endfacet
  facet normal 0 0 1
    outer loop
      vertex 52.3422 34.7862 4
      vertex 52.3422 14.2138 4
      vertex 54.7902 11.495 4
    endloop
  endfacet
  facet normal -0 0 1
    outer loop
      vertex 50.513 31.6179 4
      vertex 52.3422 14.2138 4
      vertex 52.3422 34.7862 4
    endloop
  endfacet
  facet normal 0 0 1
    outer loop
      vertex 50.513 31.6179 4
      vertex 50.513 17.3821 4
      vertex 52.3422 14.2138 4
    endloop
  endfacet
  facet normal -0 0 1
    outer loop
      vertex 49.3824 28.1385 4
      vertex 50.513 17.3821 4
      vertex 50.513 31.6179 4
    endloop
  endfacet
  facet normal 0 0 1
    outer loop
      vertex 49.3824 28.1385 4
      vertex 49.3824 20.8615 4
      vertex 50.513 17.3821 4
    endloop
  endfacet
  facet normal 0 -0 1
    outer loop
      vertex 49.3824 20.8615 4
      vertex 49.3824 28.1385 4
      vertex 49 24.5 4
    endloop
  endfacet
  facet normal 0.994522 -0.104528 0
    outer loop
      vertex 49 24.5 8
      vertex 49.3824 28.1385 4
      vertex 49.3824 28.1385 8
    endloop
  endfacet
  facet normal 0.994522 -0.104528 0
    outer loop
      vertex 49.3824 28.1385 4
      vertex 49 24.5 8
      vertex 49 24.5 4
    endloop
  endfacet
  facet normal 0.743145 -0.66913 0
    outer loop
      vertex 52.3422 34.7862 8
      vertex 54.7902 37.505 4
      vertex 54.7902 37.505 8
    endloop
  endfacet
  facet normal 0.743145 -0.66913 0
    outer loop
      vertex 54.7902 37.505 4
      vertex 52.3422 34.7862 8
      vertex 52.3422 34.7862 4
    endloop
  endfacet
  facet normal 0.406737 -0.913545 0
    outer loop
      vertex 57.75 39.6554 4
      vertex 61.0922 41.1435 8
      vertex 57.75 39.6554 8
    endloop
  endfacet
  facet normal 0.406737 -0.913545 0
    outer loop
      vertex 61.0922 41.1435 8
      vertex 57.75 39.6554 4
      vertex 61.0922 41.1435 4
    endloop
  endfacet
  facet normal -0.994522 0.104528 0
    outer loop
      vertex 83.6176 20.8615 4
      vertex 84 24.5 8
      vertex 84 24.5 4
    endloop
  endfacet
  facet normal -0.994522 0.104528 0
    outer loop
      vertex 84 24.5 8
      vertex 83.6176 20.8615 4
      vertex 83.6176 20.8615 8
    endloop
  endfacet
  facet normal -0.406737 0.913545 0
    outer loop
      vertex 75.25 9.34455 4
      vertex 71.9078 7.85651 8
      vertex 75.25 9.34455 8
    endloop
  endfacet
  facet normal -0.406737 0.913545 0
    outer loop
      vertex 71.9078 7.85651 8
      vertex 75.25 9.34455 4
      vertex 71.9078 7.85651 4
    endloop
  endfacet
  facet normal -0.951056 0.309017 0
    outer loop
      vertex 82.487 17.3821 4
      vertex 83.6176 20.8615 8
      vertex 83.6176 20.8615 4
    endloop
  endfacet
  facet normal -0.951056 0.309017 0
    outer loop
      vertex 83.6176 20.8615 8
      vertex 82.487 17.3821 4
      vertex 82.487 17.3821 8
    endloop
  endfacet
  facet normal 0.994522 0.104528 0
    outer loop
      vertex 49.3824 20.8615 8
      vertex 49 24.5 4
      vertex 49 24.5 8
    endloop
  endfacet
  facet normal 0.994522 0.104528 0
    outer loop
      vertex 49 24.5 4
      vertex 49.3824 20.8615 8
      vertex 49.3824 20.8615 4
    endloop
  endfacet
  facet normal 0.406737 0.913545 -0
    outer loop
      vertex 61.0922 7.85651 4
      vertex 57.75 9.34455 8
      vertex 61.0922 7.85651 8
    endloop
  endfacet
  facet normal 0.406737 0.913545 0
    outer loop
      vertex 57.75 9.34455 8
      vertex 61.0922 7.85651 4
      vertex 57.75 9.34455 4
    endloop
  endfacet
  facet normal 0.743145 0.669131 0
    outer loop
      vertex 54.7902 11.495 8
      vertex 52.3422 14.2138 4
      vertex 52.3422 14.2138 8
    endloop
  endfacet
  facet normal 0.743145 0.669131 0
    outer loop
      vertex 52.3422 14.2138 4
      vertex 54.7902 11.495 8
      vertex 54.7902 11.495 4
    endloop
  endfacet
  facet normal -0.743145 0.669131 0
    outer loop
      vertex 78.2098 11.495 4
      vertex 80.6578 14.2138 8
      vertex 80.6578 14.2138 4
    endloop
  endfacet
  facet normal -0.743145 0.669131 0
    outer loop
      vertex 80.6578 14.2138 8
      vertex 78.2098 11.495 4
      vertex 78.2098 11.495 8
    endloop
  endfacet
  facet normal -0.587785 0.809017 0
    outer loop
      vertex 78.2098 11.495 4
      vertex 75.25 9.34455 8
      vertex 78.2098 11.495 8
    endloop
  endfacet
  facet normal -0.587785 0.809017 0
    outer loop
      vertex 75.25 9.34455 8
      vertex 78.2098 11.495 4
      vertex 75.25 9.34455 4
    endloop
  endfacet
  facet normal 0 1 -0
    outer loop
      vertex 68.3292 7.09587 4
      vertex 64.6708 7.09587 8
      vertex 68.3292 7.09587 8
    endloop
  endfacet
  facet normal 0 1 0
    outer loop
      vertex 64.6708 7.09587 8
      vertex 68.3292 7.09587 4
      vertex 64.6708 7.09587 4
    endloop
  endfacet
  facet normal 0.207911 0.978148 -0
    outer loop
      vertex 64.6708 7.09587 4
      vertex 61.0922 7.85651 8
      vertex 64.6708 7.09587 8
    endloop
  endfacet
  facet normal 0.207911 0.978148 0
    outer loop
      vertex 61.0922 7.85651 8
      vertex 64.6708 7.09587 4
      vertex 61.0922 7.85651 4
    endloop
  endfacet
  facet normal 0.587785 0.809017 -0
    outer loop
      vertex 57.75 9.34455 4
      vertex 54.7902 11.495 8
      vertex 57.75 9.34455 8
    endloop
  endfacet
  facet normal 0.587785 0.809017 0
    outer loop
      vertex 54.7902 11.495 8
      vertex 57.75 9.34455 4
      vertex 54.7902 11.495 4
    endloop
  endfacet
  facet normal 0.866026 0.5 0
    outer loop
      vertex 52.3422 14.2138 8
      vertex 50.513 17.3821 4
      vertex 50.513 17.3821 8
    endloop
  endfacet
  facet normal 0.866026 0.5 0
    outer loop
      vertex 50.513 17.3821 4
      vertex 52.3422 14.2138 8
      vertex 52.3422 14.2138 4
    endloop
  endfacet
  facet normal 0.951056 0.309017 0
    outer loop
      vertex 50.513 17.3821 8
      vertex 49.3824 20.8615 4
      vertex 49.3824 20.8615 8
    endloop
  endfacet
  facet normal 0.951056 0.309017 0
    outer loop
      vertex 49.3824 20.8615 4
      vertex 50.513 17.3821 8
      vertex 50.513 17.3821 4
    endloop
  endfacet
  facet normal 1 -0 0
    outer loop
      vertex 49 49 8
      vertex 49 80.5 4
      vertex 49 80.5 8
    endloop
  endfacet
  facet normal 1 0 0
    outer loop
      vertex 49 80.5 4
      vertex 49 49 8
      vertex 49 49 4
    endloop
  endfacet
  facet normal -1 0 0
    outer loop
      vertex 80.5 49 4
      vertex 80.5 80.5 8
      vertex 80.5 80.5 4
    endloop
  endfacet
  facet normal -1 -0 0
    outer loop
      vertex 80.5 80.5 8
      vertex 80.5 49 4
      vertex 80.5 49 8
    endloop
  endfacet
  facet normal 0 -1 0
    outer loop
      vertex 49 80.5 4
      vertex 80.5 80.5 8
      vertex 49 80.5 8
    endloop
  endfacet
  facet normal 0 -1 -0
    outer loop
      vertex 80.5 80.5 8
      vertex 49 80.5 4
      vertex 80.5 80.5 4
    endloop
  endfacet
  facet normal -0 0 1
    outer loop
      vertex 49 80.5 4
      vertex 80.5 49 4
      vertex 80.5 80.5 4
    endloop
  endfacet
  facet normal 0 0 1
    outer loop
      vertex 80.5 49 4
      vertex 49 80.5 4
      vertex 49 49 4
    endloop
  endfacet
  facet normal 0 1 -0
    outer loop
      vertex 80.5 49 4
      vertex 49 49 8
      vertex 80.5 49 8
    endloop
  endfacet
  facet normal 0 1 0
    outer loop
      vertex 49 49 8
      vertex 80.5 49 4
      vertex 49 49 4
    endloop
  endfacet
  facet normal -0.866026 -0.5 0
    outer loop
      vertex 82.487 115.618 4
      vertex 80.6578 118.786 8
      vertex 80.6578 118.786 4
    endloop
  endfacet
  facet normal -0.866026 -0.5 0
    outer loop
      vertex 80.6578 118.786 8
      vertex 82.487 115.618 4
      vertex 82.487 115.618 8
    endloop
  endfacet
  facet normal -0.994522 -0.104528 0
    outer loop
      vertex 84 108.5 4
      vertex 83.6176 112.138 8
      vertex 83.6176 112.138 4
    endloop
  endfacet
  facet normal -0.994522 -0.104528 0
    outer loop
      vertex 83.6176 112.138 8
      vertex 84 108.5 4
      vertex 84 108.5 8
    endloop
  endfacet
  facet normal 0 0 1
    outer loop
      vertex 83.6176 112.138 4
      vertex 83.6176 104.862 4
      vertex 84 108.5 4
    endloop
  endfacet
  facet normal 0 0 1
    outer loop
      vertex 82.487 115.618 4
      vertex 83.6176 104.862 4
      vertex 83.6176 112.138 4
    endloop
  endfacet
  facet normal 0 0 1
    outer loop
      vertex 82.487 115.618 4
      vertex 82.487 101.382 4
      vertex 83.6176 104.862 4
    endloop
  endfacet
  facet normal 0 0 1
    outer loop
      vertex 80.6578 118.786 4
      vertex 82.487 101.382 4
      vertex 82.487 115.618 4
    endloop
  endfacet
  facet normal 0 0 1
    outer loop
      vertex 80.6578 118.786 4
      vertex 80.6578 98.2138 4
      vertex 82.487 101.382 4
    endloop
  endfacet
  facet normal 0 0 1
    outer loop
      vertex 78.2098 121.505 4
      vertex 80.6578 98.2138 4
      vertex 80.6578 118.786 4
    endloop
  endfacet
  facet normal 0 0 1
    outer loop
      vertex 78.2098 121.505 4
      vertex 78.2098 95.495 4
      vertex 80.6578 98.2138 4
    endloop
  endfacet
  facet normal 0 0 1
    outer loop
      vertex 75.25 123.655 4
      vertex 78.2098 95.495 4
      vertex 78.2098 121.505 4
    endloop
  endfacet
  facet normal 0 0 1
    outer loop
      vertex 75.25 123.655 4
      vertex 75.25 93.3446 4
      vertex 78.2098 95.495 4
    endloop
  endfacet
  facet normal 0 0 1
    outer loop
      vertex 71.9078 125.143 4
      vertex 75.25 93.3446 4
      vertex 75.25 123.655 4
    endloop
  endfacet
  facet normal 0 0 1
    outer loop
      vertex 71.9078 125.143 4
      vertex 71.9078 91.8565 4
      vertex 75.25 93.3446 4
    endloop
  endfacet
  facet normal 0 0 1
    outer loop
      vertex 68.3292 125.904 4
      vertex 71.9078 91.8565 4
      vertex 71.9078 125.143 4
    endloop
  endfacet
  facet normal 0 0 1
    outer loop
      vertex 68.3292 125.904 4
      vertex 68.3292 91.0959 4
      vertex 71.9078 91.8565 4
    endloop
  endfacet
  facet normal -0 0 1
    outer loop
      vertex 64.6708 125.904 4
      vertex 68.3292 91.0959 4
      vertex 68.3292 125.904 4
    endloop
  endfacet
  facet normal 0 0 1
    outer loop
      vertex 64.6708 125.904 4
      vertex 64.6708 91.0959 4
      vertex 68.3292 91.0959 4
    endloop
  endfacet
  facet normal -0 0 1
    outer loop
      vertex 61.0922 125.143 4
      vertex 64.6708 91.0959 4
      vertex 64.6708 125.904 4
    endloop
  endfacet
  facet normal 0 0 1
    outer loop
      vertex 61.0922 125.143 4
      vertex 61.0922 91.8565 4
      vertex 64.6708 91.0959 4
    endloop
  endfacet
  facet normal -0 0 1
    outer loop
      vertex 57.75 123.655 4
      vertex 61.0922 91.8565 4
      vertex 61.0922 125.143 4
    endloop
  endfacet
  facet normal 0 0 1
    outer loop
      vertex 57.75 123.655 4
      vertex 57.75 93.3446 4
      vertex 61.0922 91.8565 4
    endloop
  endfacet
  facet normal -0 0 1
    outer loop
      vertex 54.7902 121.505 4
      vertex 57.75 93.3446 4
      vertex 57.75 123.655 4
    endloop
  endfacet
  facet normal 0 0 1
    outer loop
      vertex 54.7902 121.505 4
      vertex 54.7902 95.495 4
      vertex 57.75 93.3446 4
    endloop
  endfacet
  facet normal -0 0 1
    outer loop
      vertex 52.3422 118.786 4
      vertex 54.7902 95.495 4
      vertex 54.7902 121.505 4
    endloop
  endfacet
  facet normal 0 0 1
    outer loop
      vertex 52.3422 118.786 4
      vertex 52.3422 98.2138 4
      vertex 54.7902 95.495 4
    endloop
  endfacet
  facet normal -0 0 1
    outer loop
      vertex 50.513 115.618 4
      vertex 52.3422 98.2138 4
      vertex 52.3422 118.786 4
    endloop
  endfacet
  facet normal 0 0 1
    outer loop
      vertex 50.513 115.618 4
      vertex 50.513 101.382 4
      vertex 52.3422 98.2138 4
    endloop
  endfacet
  facet normal -0 0 1
    outer loop
      vertex 49.3824 112.138 4
      vertex 50.513 101.382 4
      vertex 50.513 115.618 4
    endloop
  endfacet
  facet normal 0 0 1
    outer loop
      vertex 49.3824 112.138 4
      vertex 49.3824 104.862 4
      vertex 50.513 101.382 4
    endloop
  endfacet
  facet normal 0 -0 1
    outer loop
      vertex 49.3824 104.862 4
      vertex 49.3824 112.138 4
      vertex 49 108.5 4
    endloop
  endfacet
  facet normal -0.743145 -0.66913 0
    outer loop
      vertex 80.6578 118.786 4
      vertex 78.2098 121.505 8
      vertex 78.2098 121.505 4
    endloop
  endfacet
  facet normal -0.743145 -0.66913 0
    outer loop
      vertex 78.2098 121.505 8
      vertex 80.6578 118.786 4
      vertex 80.6578 118.786 8
    endloop
  endfacet
  facet normal -0.207911 -0.978148 0
    outer loop
      vertex 68.3292 125.904 4
      vertex 71.9078 125.143 8
      vertex 68.3292 125.904 8
    endloop
  endfacet
  facet normal -0.207911 -0.978148 -0
    outer loop
      vertex 71.9078 125.143 8
      vertex 68.3292 125.904 4
      vertex 71.9078 125.143 4
    endloop
  endfacet
  facet normal 0.587785 -0.809018 0
    outer loop
      vertex 54.7902 121.505 4
      vertex 57.75 123.655 8
      vertex 54.7902 121.505 8
    endloop
  endfacet
  facet normal 0.587785 -0.809018 0
    outer loop
      vertex 57.75 123.655 8
      vertex 54.7902 121.505 4
      vertex 57.75 123.655 4
    endloop
  endfacet
  facet normal 0.951056 -0.309018 0
    outer loop
      vertex 49.3824 112.138 8
      vertex 50.513 115.618 4
      vertex 50.513 115.618 8
    endloop
  endfacet
  facet normal 0.951056 -0.309018 0
    outer loop
      vertex 50.513 115.618 4
      vertex 49.3824 112.138 8
      vertex 49.3824 112.138 4
    endloop
  endfacet
  facet normal -0.587785 -0.809018 0
    outer loop
      vertex 75.25 123.655 4
      vertex 78.2098 121.505 8
      vertex 75.25 123.655 8
    endloop
  endfacet
  facet normal -0.587785 -0.809018 -0
    outer loop
      vertex 78.2098 121.505 8
      vertex 75.25 123.655 4
      vertex 78.2098 121.505 4
    endloop
  endfacet
  facet normal 0.207911 -0.978148 0
    outer loop
      vertex 61.0922 125.143 4
      vertex 64.6708 125.904 8
      vertex 61.0922 125.143 8
    endloop
  endfacet
  facet normal 0.207911 -0.978148 0
    outer loop
      vertex 64.6708 125.904 8
      vertex 61.0922 125.143 4
      vertex 64.6708 125.904 4
    endloop
  endfacet
  facet normal -0.406737 -0.913545 0
    outer loop
      vertex 71.9078 125.143 4
      vertex 75.25 123.655 8
      vertex 71.9078 125.143 8
    endloop
  endfacet
  facet normal -0.406737 -0.913545 -0
    outer loop
      vertex 75.25 123.655 8
      vertex 71.9078 125.143 4
      vertex 75.25 123.655 4
    endloop
  endfacet
  facet normal 0.994522 0.104528 0
    outer loop
      vertex 49.3824 104.862 8
      vertex 49 108.5 4
      vertex 49 108.5 8
    endloop
  endfacet
  facet normal 0.994522 0.104528 0
    outer loop
      vertex 49 108.5 4
      vertex 49.3824 104.862 8
      vertex 49.3824 104.862 4
    endloop
  endfacet
  facet normal 0.743145 -0.66913 0
    outer loop
      vertex 52.3422 118.786 8
      vertex 54.7902 121.505 4
      vertex 54.7902 121.505 8
    endloop
  endfacet
  facet normal 0.743145 -0.66913 0
    outer loop
      vertex 54.7902 121.505 4
      vertex 52.3422 118.786 8
      vertex 52.3422 118.786 4
    endloop
  endfacet
  facet normal 0.406737 -0.913545 0
    outer loop
      vertex 57.75 123.655 4
      vertex 61.0922 125.143 8
      vertex 57.75 123.655 8
    endloop
  endfacet
  facet normal 0.406737 -0.913545 0
    outer loop
      vertex 61.0922 125.143 8
      vertex 57.75 123.655 4
      vertex 61.0922 125.143 4
    endloop
  endfacet
  facet normal 0.866026 -0.5 0
    outer loop
      vertex 50.513 115.618 8
      vertex 52.3422 118.786 4
      vertex 52.3422 118.786 8
    endloop
  endfacet
  facet normal 0.866026 -0.5 0
    outer loop
      vertex 52.3422 118.786 4
      vertex 50.513 115.618 8
      vertex 50.513 115.618 4
    endloop
  endfacet
  facet normal -0.951056 0.309018 0
    outer loop
      vertex 82.487 101.382 4
      vertex 83.6176 104.862 8
      vertex 83.6176 104.862 4
    endloop
  endfacet
  facet normal -0.951056 0.309018 0
    outer loop
      vertex 83.6176 104.862 8
      vertex 82.487 101.382 4
      vertex 82.487 101.382 8
    endloop
  endfacet
  facet normal 0 1 -0
    outer loop
      vertex 68.3292 91.0959 4
      vertex 64.6708 91.0959 8
      vertex 68.3292 91.0959 8
    endloop
  endfacet
  facet normal 0 1 0
    outer loop
      vertex 64.6708 91.0959 8
      vertex 68.3292 91.0959 4
      vertex 64.6708 91.0959 4
    endloop
  endfacet
  facet normal -0.743145 0.66913 0
    outer loop
      vertex 78.2098 95.495 4
      vertex 80.6578 98.2138 8
      vertex 80.6578 98.2138 4
    endloop
  endfacet
  facet normal -0.743145 0.66913 0
    outer loop
      vertex 80.6578 98.2138 8
      vertex 78.2098 95.495 4
      vertex 78.2098 95.495 8
    endloop
  endfacet
  facet normal -0.994522 0.104528 0
    outer loop
      vertex 83.6176 104.862 4
      vertex 84 108.5 8
      vertex 84 108.5 4
    endloop
  endfacet
  facet normal -0.994522 0.104528 0
    outer loop
      vertex 84 108.5 8
      vertex 83.6176 104.862 4
      vertex 83.6176 104.862 8
    endloop
  endfacet
  facet normal -0.951056 -0.309018 0
    outer loop
      vertex 83.6176 112.138 4
      vertex 82.487 115.618 8
      vertex 82.487 115.618 4
    endloop
  endfacet
  facet normal -0.951056 -0.309018 0
    outer loop
      vertex 82.487 115.618 8
      vertex 83.6176 112.138 4
      vertex 83.6176 112.138 8
    endloop
  endfacet
  facet normal 0 -1 0
    outer loop
      vertex 64.6708 125.904 4
      vertex 68.3292 125.904 8
      vertex 64.6708 125.904 8
    endloop
  endfacet
  facet normal 0 -1 -0
    outer loop
      vertex 68.3292 125.904 8
      vertex 64.6708 125.904 4
      vertex 68.3292 125.904 4
    endloop
  endfacet
  facet normal 0.994522 -0.104528 0
    outer loop
      vertex 49 108.5 8
      vertex 49.3824 112.138 4
      vertex 49.3824 112.138 8
    endloop
  endfacet
  facet normal 0.994522 -0.104528 0
    outer loop
      vertex 49.3824 112.138 4
      vertex 49 108.5 8
      vertex 49 108.5 4
    endloop
  endfacet
  facet normal 0.951056 0.309018 0
    outer loop
      vertex 50.513 101.382 8
      vertex 49.3824 104.862 4
      vertex 49.3824 104.862 8
    endloop
  endfacet
  facet normal 0.951056 0.309018 0
    outer loop
      vertex 49.3824 104.862 4
      vertex 50.513 101.382 8
      vertex 50.513 101.382 4
    endloop
  endfacet
  facet normal -0.406739 0.913545 0
    outer loop
      vertex 75.25 93.3446 4
      vertex 71.9078 91.8565 8
      vertex 75.25 93.3446 8
    endloop
  endfacet
  facet normal -0.406739 0.913545 0
    outer loop
      vertex 71.9078 91.8565 8
      vertex 75.25 93.3446 4
      vertex 71.9078 91.8565 4
    endloop
  endfacet
  facet normal -0.587785 0.809018 0
    outer loop
      vertex 78.2098 95.495 4
      vertex 75.25 93.3446 8
      vertex 78.2098 95.495 8
    endloop
  endfacet
  facet normal -0.587785 0.809018 0
    outer loop
      vertex 75.25 93.3446 8
      vertex 78.2098 95.495 4
      vertex 75.25 93.3446 4
    endloop
  endfacet
  facet normal -0.866026 0.5 0
    outer loop
      vertex 80.6578 98.2138 4
      vertex 82.487 101.382 8
      vertex 82.487 101.382 4
    endloop
  endfacet
  facet normal -0.866026 0.5 0
    outer loop
      vertex 82.487 101.382 8
      vertex 80.6578 98.2138 4
      vertex 80.6578 98.2138 8
    endloop
  endfacet
  facet normal 0.406739 0.913545 -0
    outer loop
      vertex 61.0922 91.8565 4
      vertex 57.75 93.3446 8
      vertex 61.0922 91.8565 8
    endloop
  endfacet
  facet normal 0.406739 0.913545 0
    outer loop
      vertex 57.75 93.3446 8
      vertex 61.0922 91.8565 4
      vertex 57.75 93.3446 4
    endloop
  endfacet
  facet normal -0.207911 0.978148 0
    outer loop
      vertex 71.9078 91.8565 4
      vertex 68.3292 91.0959 8
      vertex 71.9078 91.8565 8
    endloop
  endfacet
  facet normal -0.207911 0.978148 0
    outer loop
      vertex 68.3292 91.0959 8
      vertex 71.9078 91.8565 4
      vertex 68.3292 91.0959 4
    endloop
  endfacet
  facet normal 0.866026 0.5 0
    outer loop
      vertex 52.3422 98.2138 8
      vertex 50.513 101.382 4
      vertex 50.513 101.382 8
    endloop
  endfacet
  facet normal 0.866026 0.5 0
    outer loop
      vertex 50.513 101.382 4
      vertex 52.3422 98.2138 8
      vertex 52.3422 98.2138 4
    endloop
  endfacet
  facet normal 0.587785 0.809018 -0
    outer loop
      vertex 57.75 93.3446 4
      vertex 54.7902 95.495 8
      vertex 57.75 93.3446 8
    endloop
  endfacet
  facet normal 0.587785 0.809018 0
    outer loop
      vertex 54.7902 95.495 8
      vertex 57.75 93.3446 4
      vertex 54.7902 95.495 4
    endloop
  endfacet
  facet normal 0.743145 0.66913 0
    outer loop
      vertex 54.7902 95.495 8
      vertex 52.3422 98.2138 4
      vertex 52.3422 98.2138 8
    endloop
  endfacet
  facet normal 0.743145 0.66913 0
    outer loop
      vertex 52.3422 98.2138 4
      vertex 54.7902 95.495 8
      vertex 54.7902 95.495 4
    endloop
  endfacet
  facet normal 0.207911 0.978148 -0
    outer loop
      vertex 64.6708 91.0959 4
      vertex 61.0922 91.8565 8
      vertex 64.6708 91.0959 8
    endloop
  endfacet
  facet normal 0.207911 0.978148 0
    outer loop
      vertex 61.0922 91.8565 8
      vertex 64.6708 91.0959 4
      vertex 61.0922 91.8565 4
    endloop
  endfacet
  facet normal 1 -0 0
    outer loop
      vertex 91 7 8
      vertex 91 38.5 4
      vertex 91 38.5 8
    endloop
  endfacet
  facet normal 1 0 0
    outer loop
      vertex 91 38.5 4
      vertex 91 7 8
      vertex 91 7 4
    endloop
  endfacet
  facet normal -1 0 0
    outer loop
      vertex 122.5 7 4
      vertex 122.5 38.5 8
      vertex 122.5 38.5 4
    endloop
  endfacet
  facet normal -1 -0 0
    outer loop
      vertex 122.5 38.5 8
      vertex 122.5 7 4
      vertex 122.5 7 8
    endloop
  endfacet
  facet normal -0 0 1
    outer loop
      vertex 91 38.5 4
      vertex 122.5 7 4
      vertex 122.5 38.5 4
    endloop
  endfacet
  facet normal 0 0 1
    outer loop
      vertex 122.5 7 4
      vertex 91 38.5 4
      vertex 91 7 4
    endloop
  endfacet
  facet normal 0 1 -0
    outer loop
      vertex 122.5 7 4
      vertex 91 7 8
      vertex 122.5 7 8
    endloop
  endfacet
  facet normal 0 1 0
    outer loop
      vertex 91 7 8
      vertex 122.5 7 4
      vertex 91 7 4
    endloop
  endfacet
  facet normal 0 -1 0
    outer loop
      vertex 91 38.5 4
      vertex 122.5 38.5 8
      vertex 91 38.5 8
    endloop
  endfacet
  facet normal 0 -1 -0
    outer loop
      vertex 122.5 38.5 8
      vertex 91 38.5 4
      vertex 122.5 38.5 4
    endloop
  endfacet
  facet normal -0.866026 -0.5 0
    outer loop
      vertex 124.487 73.6179 4
      vertex 122.658 76.7862 8
      vertex 122.658 76.7862 4
    endloop
  endfacet
  facet normal -0.866026 -0.5 0
    outer loop
      vertex 122.658 76.7862 8
      vertex 124.487 73.6179 4
      vertex 124.487 73.6179 8
    endloop
  endfacet
  facet normal -0.994522 -0.104528 0
    outer loop
      vertex 126 66.5 4
      vertex 125.618 70.1385 8
      vertex 125.618 70.1385 4
    endloop
  endfacet
  facet normal -0.994522 -0.104528 0
    outer loop
      vertex 125.618 70.1385 8
      vertex 126 66.5 4
      vertex 126 66.5 8
    endloop
  endfacet
  facet normal 0 0 1
    outer loop
      vertex 125.618 70.1385 4
      vertex 125.618 62.8615 4
      vertex 126 66.5 4
    endloop
  endfacet
  facet normal 0 0 1
    outer loop
      vertex 124.487 73.6179 4
      vertex 125.618 62.8615 4
      vertex 125.618 70.1385 4
    endloop
  endfacet
  facet normal 0 0 1
    outer loop
      vertex 124.487 73.6179 4
      vertex 124.487 59.3821 4
      vertex 125.618 62.8615 4
    endloop
  endfacet
  facet normal 0 0 1
    outer loop
      vertex 122.658 76.7862 4
      vertex 124.487 59.3821 4
      vertex 124.487 73.6179 4
    endloop
  endfacet
  facet normal 0 0 1
    outer loop
      vertex 122.658 76.7862 4
      vertex 122.658 56.2138 4
      vertex 124.487 59.3821 4
    endloop
  endfacet
  facet normal 0 0 1
    outer loop
      vertex 120.21 79.505 4
      vertex 122.658 56.2138 4
      vertex 122.658 76.7862 4
    endloop
  endfacet
  facet normal 0 0 1
    outer loop
      vertex 120.21 79.505 4
      vertex 120.21 53.495 4
      vertex 122.658 56.2138 4
    endloop
  endfacet
  facet normal 0 0 1
    outer loop
      vertex 117.25 81.6554 4
      vertex 120.21 53.495 4
      vertex 120.21 79.505 4
    endloop
  endfacet
  facet normal 0 0 1
    outer loop
      vertex 117.25 81.6554 4
      vertex 117.25 51.3446 4
      vertex 120.21 53.495 4
    endloop
  endfacet
  facet normal 0 0 1
    outer loop
      vertex 113.908 83.1435 4
      vertex 117.25 51.3446 4
      vertex 117.25 81.6554 4
    endloop
  endfacet
  facet normal 0 0 1
    outer loop
      vertex 113.908 83.1435 4
      vertex 113.908 49.8565 4
      vertex 117.25 51.3446 4
    endloop
  endfacet
  facet normal 0 0 1
    outer loop
      vertex 110.329 83.9041 4
      vertex 113.908 49.8565 4
      vertex 113.908 83.1435 4
    endloop
  endfacet
  facet normal 0 0 1
    outer loop
      vertex 110.329 83.9041 4
      vertex 110.329 49.0959 4
      vertex 113.908 49.8565 4
    endloop
  endfacet
  facet normal -0 0 1
    outer loop
      vertex 106.671 83.9041 4
      vertex 110.329 49.0959 4
      vertex 110.329 83.9041 4
    endloop
  endfacet
  facet normal 0 0 1
    outer loop
      vertex 106.671 83.9041 4
      vertex 106.671 49.0959 4
      vertex 110.329 49.0959 4
    endloop
  endfacet
  facet normal -0 0 1
    outer loop
      vertex 103.092 83.1435 4
      vertex 106.671 49.0959 4
      vertex 106.671 83.9041 4
    endloop
  endfacet
  facet normal 0 0 1
    outer loop
      vertex 103.092 83.1435 4
      vertex 103.092 49.8565 4
      vertex 106.671 49.0959 4
    endloop
  endfacet
  facet normal -0 0 1
    outer loop
      vertex 99.75 81.6554 4
      vertex 103.092 49.8565 4
      vertex 103.092 83.1435 4
    endloop
  endfacet
  facet normal 0 0 1
    outer loop
      vertex 99.75 81.6554 4
      vertex 99.75 51.3446 4
      vertex 103.092 49.8565 4
    endloop
  endfacet
  facet normal -0 0 1
    outer loop
      vertex 96.7902 79.505 4
      vertex 99.75 51.3446 4
      vertex 99.75 81.6554 4
    endloop
  endfacet
  facet normal 0 0 1
    outer loop
      vertex 96.7902 79.505 4
      vertex 96.7902 53.495 4
      vertex 99.75 51.3446 4
    endloop
  endfacet
  facet normal -0 0 1
    outer loop
      vertex 94.3422 76.7862 4
      vertex 96.7902 53.495 4
      vertex 96.7902 79.505 4
    endloop
  endfacet
  facet normal 0 0 1
    outer loop
      vertex 94.3422 76.7862 4
      vertex 94.3422 56.2138 4
      vertex 96.7902 53.495 4
    endloop
  endfacet
  facet normal -0 0 1
    outer loop
      vertex 92.513 73.6179 4
      vertex 94.3422 56.2138 4
      vertex 94.3422 76.7862 4
    endloop
  endfacet
  facet normal 0 0 1
    outer loop
      vertex 92.513 73.6179 4
      vertex 92.513 59.3821 4
      vertex 94.3422 56.2138 4
    endloop
  endfacet
  facet normal -0 0 1
    outer loop
      vertex 91.3824 70.1385 4
      vertex 92.513 59.3821 4
      vertex 92.513 73.6179 4
    endloop
  endfacet
  facet normal 0 0 1
    outer loop
      vertex 91.3824 70.1385 4
      vertex 91.3824 62.8615 4
      vertex 92.513 59.3821 4
    endloop
  endfacet
  facet normal 0 -0 1
    outer loop
      vertex 91.3824 62.8615 4
      vertex 91.3824 70.1385 4
      vertex 91 66.5 4
    endloop
  endfacet
  facet normal -0.743145 -0.66913 0
    outer loop
      vertex 122.658 76.7862 4
      vertex 120.21 79.505 8
      vertex 120.21 79.505 4
    endloop
  endfacet
  facet normal -0.743145 -0.66913 0
    outer loop
      vertex 120.21 79.505 8
      vertex 122.658 76.7862 4
      vertex 122.658 76.7862 8
    endloop
  endfacet
  facet normal -0.207911 -0.978148 0
    outer loop
      vertex 110.329 83.9041 4
      vertex 113.908 83.1435 8
      vertex 110.329 83.9041 8
    endloop
  endfacet
  facet normal -0.207911 -0.978148 -0
    outer loop
      vertex 113.908 83.1435 8
      vertex 110.329 83.9041 4
      vertex 113.908 83.1435 4
    endloop
  endfacet
  facet normal 0.587785 -0.809018 0
    outer loop
      vertex 96.7902 79.505 4
      vertex 99.75 81.6554 8
      vertex 96.7902 79.505 8
    endloop
  endfacet
  facet normal 0.587785 -0.809018 0
    outer loop
      vertex 99.75 81.6554 8
      vertex 96.7902 79.505 4
      vertex 99.75 81.6554 4
    endloop
  endfacet
  facet normal -0.587785 -0.809018 0
    outer loop
      vertex 117.25 81.6554 4
      vertex 120.21 79.505 8
      vertex 117.25 81.6554 8
    endloop
  endfacet
  facet normal -0.587785 -0.809018 -0
    outer loop
      vertex 120.21 79.505 8
      vertex 117.25 81.6554 4
      vertex 120.21 79.505 4
    endloop
  endfacet
  facet normal 0.207911 -0.978148 0
    outer loop
      vertex 103.092 83.1435 4
      vertex 106.671 83.9041 8
      vertex 103.092 83.1435 8
    endloop
  endfacet
  facet normal 0.207911 -0.978148 0
    outer loop
      vertex 106.671 83.9041 8
      vertex 103.092 83.1435 4
      vertex 106.671 83.9041 4
    endloop
  endfacet
  facet normal -0.406737 -0.913545 0
    outer loop
      vertex 113.908 83.1435 4
      vertex 117.25 81.6554 8
      vertex 113.908 83.1435 8
    endloop
  endfacet
  facet normal -0.406737 -0.913545 -0
    outer loop
      vertex 117.25 81.6554 8
      vertex 113.908 83.1435 4
      vertex 117.25 81.6554 4
    endloop
  endfacet
  facet normal 0.994522 0.104528 0
    outer loop
      vertex 91.3824 62.8615 8
      vertex 91 66.5 4
      vertex 91 66.5 8
    endloop
  endfacet
  facet normal 0.994522 0.104528 0
    outer loop
      vertex 91 66.5 4
      vertex 91.3824 62.8615 8
      vertex 91.3824 62.8615 4
    endloop
  endfacet
  facet normal 0.951056 -0.309018 0
    outer loop
      vertex 91.3824 70.1385 8
      vertex 92.513 73.6179 4
      vertex 92.513 73.6179 8
    endloop
  endfacet
  facet normal 0.951056 -0.309018 0
    outer loop
      vertex 92.513 73.6179 4
      vertex 91.3824 70.1385 8
      vertex 91.3824 70.1385 4
    endloop
  endfacet
  facet normal 0.743145 -0.66913 0
    outer loop
      vertex 94.3422 76.7862 8
      vertex 96.7902 79.505 4
      vertex 96.7902 79.505 8
    endloop
  endfacet
  facet normal 0.743145 -0.66913 0
    outer loop
      vertex 96.7902 79.505 4
      vertex 94.3422 76.7862 8
      vertex 94.3422 76.7862 4
    endloop
  endfacet
  facet normal 0.406737 -0.913545 0
    outer loop
      vertex 99.75 81.6554 4
      vertex 103.092 83.1435 8
      vertex 99.75 81.6554 8
    endloop
  endfacet
  facet normal 0.406737 -0.913545 0
    outer loop
      vertex 103.092 83.1435 8
      vertex 99.75 81.6554 4
      vertex 103.092 83.1435 4
    endloop
  endfacet
  facet normal 0.866026 -0.5 0
    outer loop
      vertex 92.513 73.6179 8
      vertex 94.3422 76.7862 4
      vertex 94.3422 76.7862 8
    endloop
  endfacet
  facet normal 0.866026 -0.5 0
    outer loop
      vertex 94.3422 76.7862 4
      vertex 92.513 73.6179 8
      vertex 92.513 73.6179 4
    endloop
  endfacet
  facet normal -0.951056 0.309017 0
    outer loop
      vertex 124.487 59.3821 4
      vertex 125.618 62.8615 8
      vertex 125.618 62.8615 4
    endloop
  endfacet
  facet normal -0.951056 0.309017 0
    outer loop
      vertex 125.618 62.8615 8
      vertex 124.487 59.3821 4
      vertex 124.487 59.3821 8
    endloop
  endfacet
  facet normal 0.951056 0.309017 0
    outer loop
      vertex 92.513 59.3821 8
      vertex 91.3824 62.8615 4
      vertex 91.3824 62.8615 8
    endloop
  endfacet
  facet normal 0.951056 0.309017 0
    outer loop
      vertex 91.3824 62.8615 4
      vertex 92.513 59.3821 8
      vertex 92.513 59.3821 4
    endloop
  endfacet
  facet normal -0.743145 0.669131 0
    outer loop
      vertex 120.21 53.495 4
      vertex 122.658 56.2138 8
      vertex 122.658 56.2138 4
    endloop
  endfacet
  facet normal -0.743145 0.669131 0
    outer loop
      vertex 122.658 56.2138 8
      vertex 120.21 53.495 4
      vertex 120.21 53.495 8
    endloop
  endfacet
  facet normal -0.994522 0.104528 0
    outer loop
      vertex 125.618 62.8615 4
      vertex 126 66.5 8
      vertex 126 66.5 4
    endloop
  endfacet
  facet normal -0.994522 0.104528 0
    outer loop
      vertex 126 66.5 8
      vertex 125.618 62.8615 4
      vertex 125.618 62.8615 8
    endloop
  endfacet
  facet normal -0.951056 -0.309018 0
    outer loop
      vertex 125.618 70.1385 4
      vertex 124.487 73.6179 8
      vertex 124.487 73.6179 4
    endloop
  endfacet
  facet normal -0.951056 -0.309018 0
    outer loop
      vertex 124.487 73.6179 8
      vertex 125.618 70.1385 4
      vertex 125.618 70.1385 8
    endloop
  endfacet
  facet normal 0 -1 0
    outer loop
      vertex 106.671 83.9041 4
      vertex 110.329 83.9041 8
      vertex 106.671 83.9041 8
    endloop
  endfacet
  facet normal 0 -1 -0
    outer loop
      vertex 110.329 83.9041 8
      vertex 106.671 83.9041 4
      vertex 110.329 83.9041 4
    endloop
  endfacet
  facet normal 0.994522 -0.104528 0
    outer loop
      vertex 91 66.5 8
      vertex 91.3824 70.1385 4
      vertex 91.3824 70.1385 8
    endloop
  endfacet
  facet normal 0.994522 -0.104528 0
    outer loop
      vertex 91.3824 70.1385 4
      vertex 91 66.5 8
      vertex 91 66.5 4
    endloop
  endfacet
  facet normal -0.207911 0.978148 0
    outer loop
      vertex 113.908 49.8565 4
      vertex 110.329 49.0959 8
      vertex 113.908 49.8565 8
    endloop
  endfacet
  facet normal -0.207911 0.978148 0
    outer loop
      vertex 110.329 49.0959 8
      vertex 113.908 49.8565 4
      vertex 110.329 49.0959 4
    endloop
  endfacet
  facet normal -0.406737 0.913545 0
    outer loop
      vertex 117.25 51.3446 4
      vertex 113.908 49.8565 8
      vertex 117.25 51.3446 8
    endloop
  endfacet
  facet normal -0.406737 0.913545 0
    outer loop
      vertex 113.908 49.8565 8
      vertex 117.25 51.3446 4
      vertex 113.908 49.8565 4
    endloop
  endfacet
  facet normal -0.587785 0.809017 0
    outer loop
      vertex 120.21 53.495 4
      vertex 117.25 51.3446 8
      vertex 120.21 53.495 8
    endloop
  endfacet
  facet normal -0.587785 0.809017 0
    outer loop
      vertex 117.25 51.3446 8
      vertex 120.21 53.495 4
      vertex 117.25 51.3446 4
    endloop
  endfacet
  facet normal 0.743145 0.669131 0
    outer loop
      vertex 96.7902 53.495 8
      vertex 94.3422 56.2138 4
      vertex 94.3422 56.2138 8
    endloop
  endfacet
  facet normal 0.743145 0.669131 0
    outer loop
      vertex 94.3422 56.2138 4
      vertex 96.7902 53.495 8
      vertex 96.7902 53.495 4
    endloop
  endfacet
  facet normal 0.866026 0.499999 0
    outer loop
      vertex 94.3422 56.2138 8
      vertex 92.513 59.3821 4
      vertex 92.513 59.3821 8
    endloop
  endfacet
  facet normal 0.866026 0.499999 0
    outer loop
      vertex 92.513 59.3821 4
      vertex 94.3422 56.2138 8
      vertex 94.3422 56.2138 4
    endloop
  endfacet
  facet normal 0.587785 0.809017 -0
    outer loop
      vertex 99.75 51.3446 4
      vertex 96.7902 53.495 8
      vertex 99.75 51.3446 8
    endloop
  endfacet
  facet normal 0.587785 0.809017 0
    outer loop
      vertex 96.7902 53.495 8
      vertex 99.75 51.3446 4
      vertex 96.7902 53.495 4
    endloop
  endfacet
  facet normal 0 1 -0
    outer loop
      vertex 110.329 49.0959 4
      vertex 106.671 49.0959 8
      vertex 110.329 49.0959 8
    endloop
  endfacet
  facet normal 0 1 0
    outer loop
      vertex 106.671 49.0959 8
      vertex 110.329 49.0959 4
      vertex 106.671 49.0959 4
    endloop
  endfacet
  facet normal 0.406737 0.913545 -0
    outer loop
      vertex 103.092 49.8565 4
      vertex 99.75 51.3446 8
      vertex 103.092 49.8565 8
    endloop
  endfacet
  facet normal 0.406737 0.913545 0
    outer loop
      vertex 99.75 51.3446 8
      vertex 103.092 49.8565 4
      vertex 99.75 51.3446 4
    endloop
  endfacet
  facet normal -0.866026 0.499999 0
    outer loop
      vertex 122.658 56.2138 4
      vertex 124.487 59.3821 8
      vertex 124.487 59.3821 4
    endloop
  endfacet
  facet normal -0.866026 0.499999 0
    outer loop
      vertex 124.487 59.3821 8
      vertex 122.658 56.2138 4
      vertex 122.658 56.2138 8
    endloop
  endfacet
  facet normal 0.207911 0.978148 -0
    outer loop
      vertex 106.671 49.0959 4
      vertex 103.092 49.8565 8
      vertex 106.671 49.0959 8
    endloop
  endfacet
  facet normal 0.207911 0.978148 0
    outer loop
      vertex 103.092 49.8565 8
      vertex 106.671 49.0959 4
      vertex 103.092 49.8565 4
    endloop
  endfacet
  facet normal 1 -0 0
    outer loop
      vertex 91 91 8
      vertex 91 122.5 4
      vertex 91 122.5 8
    endloop
  endfacet
  facet normal 1 0 0
    outer loop
      vertex 91 122.5 4
      vertex 91 91 8
      vertex 91 91 4
    endloop
  endfacet
  facet normal -1 0 0
    outer loop
      vertex 122.5 91 4
      vertex 122.5 122.5 8
      vertex 122.5 122.5 4
    endloop
  endfacet
  facet normal -1 -0 0
    outer loop
      vertex 122.5 122.5 8
      vertex 122.5 91 4
      vertex 122.5 91 8
    endloop
  endfacet
  facet normal -0 0 1
    outer loop
      vertex 91 122.5 4
      vertex 122.5 91 4
      vertex 122.5 122.5 4
    endloop
  endfacet
  facet normal 0 0 1
    outer loop
      vertex 122.5 91 4
      vertex 91 122.5 4
      vertex 91 91 4
    endloop
  endfacet
  facet normal 0 1 -0
    outer loop
      vertex 122.5 91 4
      vertex 91 91 8
      vertex 122.5 91 8
    endloop
  endfacet
  facet normal 0 1 0
    outer loop
      vertex 91 91 8
      vertex 122.5 91 4
      vertex 91 91 4
    endloop
  endfacet
  facet normal 0 -1 0
    outer loop
      vertex 91 122.5 4
      vertex 122.5 122.5 8
      vertex 91 122.5 8
    endloop
  endfacet
  facet normal 0 -1 -0
    outer loop
      vertex 122.5 122.5 8
      vertex 91 122.5 4
      vertex 122.5 122.5 4
    endloop
  endfacet
  facet normal -1 0 0
    outer loop
      vertex 0 0 0
      vertex 0 133 8
      vertex 0 133 0
    endloop
  endfacet
  facet normal -1 -0 0
    outer loop
      vertex 0 133 8
      vertex 0 0 0
      vertex 0 0 8
    endloop
  endfacet
  facet normal 0 0 1
    outer loop
      vertex 49 49 8
      vertex 36.2098 53.495 8
      vertex 38.5 38.5 8
    endloop
  endfacet
  facet normal -0 0 1
    outer loop
      vertex 33.25 51.3446 8
      vertex 38.5 38.5 8
      vertex 36.2098 53.495 8
    endloop
  endfacet
  facet normal -0 0 1
    outer loop
      vertex 29.9078 49.8565 8
      vertex 38.5 38.5 8
      vertex 33.25 51.3446 8
    endloop
  endfacet
  facet normal -0 0 1
    outer loop
      vertex 26.3292 49.0959 8
      vertex 38.5 38.5 8
      vertex 29.9078 49.8565 8
    endloop
  endfacet
  facet normal -0 0 1
    outer loop
      vertex 22.6708 49.0959 8
      vertex 38.5 38.5 8
      vertex 26.3292 49.0959 8
    endloop
  endfacet
  facet normal 0 0 1
    outer loop
      vertex 7 38.5 8
      vertex 22.6708 49.0959 8
      vertex 19.0922 49.8565 8
    endloop
  endfacet
  facet normal 0 0 1
    outer loop
      vertex 7 38.5 8
      vertex 19.0922 49.8565 8
      vertex 15.75 51.3446 8
    endloop
  endfacet
  facet normal 0 0 1
    outer loop
      vertex 22.6708 49.0959 8
      vertex 7 38.5 8
      vertex 38.5 38.5 8
    endloop
  endfacet
  facet normal 0 0 1
    outer loop
      vertex 12.7902 53.495 8
      vertex 7 38.5 8
      vertex 15.75 51.3446 8
    endloop
  endfacet
  facet normal 0 0 1
    outer loop
      vertex 10.3422 56.2138 8
      vertex 7 38.5 8
      vertex 12.7902 53.495 8
    endloop
  endfacet
  facet normal 0 0 1
    outer loop
      vertex 8.51295 59.3821 8
      vertex 7 38.5 8
      vertex 10.3422 56.2138 8
    endloop
  endfacet
  facet normal 0 0 1
    outer loop
      vertex 7.38242 62.8615 8
      vertex 7 38.5 8
      vertex 8.51295 59.3821 8
    endloop
  endfacet
  facet normal 0 0 1
    outer loop
      vertex 7 38.5 8
      vertex 7.38242 62.8615 8
      vertex 7 66.5 8
    endloop
  endfacet
  facet normal 0 0 1
    outer loop
      vertex 94.3422 76.7862 8
      vertex 80.5 80.5 8
      vertex 92.513 73.6179 8
    endloop
  endfacet
  facet normal 0 0 1
    outer loop
      vertex 91 66.5 8
      vertex 83.6176 28.1385 8
      vertex 84 24.5 8
    endloop
  endfacet
  facet normal 0 0 1
    outer loop
      vertex 91.3824 70.1385 8
      vertex 80.5 80.5 8
      vertex 91 66.5 8
    endloop
  endfacet
  facet normal 0 0 1
    outer loop
      vertex 80.5 49 8
      vertex 91 66.5 8
      vertex 80.5 80.5 8
    endloop
  endfacet
  facet normal 0 0 1
    outer loop
      vertex 92.513 73.6179 8
      vertex 80.5 80.5 8
      vertex 91.3824 70.1385 8
    endloop
  endfacet
  facet normal 0 -0 1
    outer loop
      vertex 82.487 31.6179 8
      vertex 91 66.5 8
      vertex 80.5 49 8
    endloop
  endfacet
  facet normal 0 0 1
    outer loop
      vertex 91 66.5 8
      vertex 82.487 31.6179 8
      vertex 83.6176 28.1385 8
    endloop
  endfacet
  facet normal -0 0 1
    outer loop
      vertex 78.2098 95.495 8
      vertex 80.5 80.5 8
      vertex 80.6578 98.2138 8
    endloop
  endfacet
  facet normal -0 0 1
    outer loop
      vertex 75.25 93.3446 8
      vertex 80.5 80.5 8
      vertex 78.2098 95.495 8
    endloop
  endfacet
  facet normal -0 0 1
    outer loop
      vertex 71.9078 91.8565 8
      vertex 80.5 80.5 8
      vertex 75.25 93.3446 8
    endloop
  endfacet
  facet normal -0 0 1
    outer loop
      vertex 68.3292 91.0959 8
      vertex 80.5 80.5 8
      vertex 71.9078 91.8565 8
    endloop
  endfacet
  facet normal -0 0 1
    outer loop
      vertex 64.6708 91.0959 8
      vertex 80.5 80.5 8
      vertex 68.3292 91.0959 8
    endloop
  endfacet
  facet normal 0 0 1
    outer loop
      vertex 49 80.5 8
      vertex 64.6708 91.0959 8
      vertex 61.0922 91.8565 8
    endloop
  endfacet
  facet normal 0 0 1
    outer loop
      vertex 49 80.5 8
      vertex 61.0922 91.8565 8
      vertex 57.75 93.3446 8
    endloop
  endfacet
  facet normal 0 0 1
    outer loop
      vertex 64.6708 91.0959 8
      vertex 49 80.5 8
      vertex 80.5 80.5 8
    endloop
  endfacet
  facet normal 0 0 1
    outer loop
      vertex 54.7902 95.495 8
      vertex 49 80.5 8
      vertex 57.75 93.3446 8
    endloop
  endfacet
  facet normal 0 0 1
    outer loop
      vertex 38.5 91 8
      vertex 54.7902 95.495 8
      vertex 52.3422 98.2138 8
    endloop
  endfacet
  facet normal 0 0 1
    outer loop
      vertex 38.5 91 8
      vertex 52.3422 98.2138 8
      vertex 50.513 101.382 8
    endloop
  endfacet
  facet normal 0 0 1
    outer loop
      vertex 38.5 91 8
      vertex 50.513 101.382 8
      vertex 49.3824 104.862 8
    endloop
  endfacet
  facet normal 0 0 1
    outer loop
      vertex 38.5 91 8
      vertex 49.3824 104.862 8
      vertex 49 108.5 8
    endloop
  endfacet
  facet normal -0 0 1
    outer loop
      vertex 120.21 53.495 8
      vertex 122.5 38.5 8
      vertex 122.658 56.2138 8
    endloop
  endfacet
  facet normal -0 0 1
    outer loop
      vertex 117.25 51.3446 8
      vertex 122.5 38.5 8
      vertex 120.21 53.495 8
    endloop
  endfacet
  facet normal -0 0 1
    outer loop
      vertex 113.908 49.8565 8
      vertex 122.5 38.5 8
      vertex 117.25 51.3446 8
    endloop
  endfacet
  facet normal -0 0 1
    outer loop
      vertex 110.329 49.0959 8
      vertex 122.5 38.5 8
      vertex 113.908 49.8565 8
    endloop
  endfacet
  facet normal -0 0 1
    outer loop
      vertex 106.671 49.0959 8
      vertex 122.5 38.5 8
      vertex 110.329 49.0959 8
    endloop
  endfacet
  facet normal 0 0 1
    outer loop
      vertex 91 38.5 8
      vertex 106.671 49.0959 8
      vertex 103.092 49.8565 8
    endloop
  endfacet
  facet normal 0 0 1
    outer loop
      vertex 91 38.5 8
      vertex 103.092 49.8565 8
      vertex 99.75 51.3446 8
    endloop
  endfacet
  facet normal 0 0 1
    outer loop
      vertex 106.671 49.0959 8
      vertex 91 38.5 8
      vertex 122.5 38.5 8
    endloop
  endfacet
  facet normal 0 0 1
    outer loop
      vertex 96.7902 53.495 8
      vertex 91 38.5 8
      vertex 99.75 51.3446 8
    endloop
  endfacet
  facet normal 0 0 1
    outer loop
      vertex 94.3422 56.2138 8
      vertex 91 38.5 8
      vertex 96.7902 53.495 8
    endloop
  endfacet
  facet normal 0 0 1
    outer loop
      vertex 92.513 59.3821 8
      vertex 91 38.5 8
      vertex 94.3422 56.2138 8
    endloop
  endfacet
  facet normal 0 0 1
    outer loop
      vertex 91.3824 62.8615 8
      vertex 91 38.5 8
      vertex 92.513 59.3821 8
    endloop
  endfacet
  facet normal 0 0 1
    outer loop
      vertex 84 24.5 8
      vertex 91.3824 62.8615 8
      vertex 91 66.5 8
    endloop
  endfacet
  facet normal 0 0 1
    outer loop
      vertex 133 133 8
      vertex 126 66.5 8
      vertex 133 0 8
    endloop
  endfacet
  facet normal 0 0 1
    outer loop
      vertex 133 133 8
      vertex 125.618 70.1385 8
      vertex 126 66.5 8
    endloop
  endfacet
  facet normal -0 0 1
    outer loop
      vertex 122.5 91 8
      vertex 125.618 70.1385 8
      vertex 133 133 8
    endloop
  endfacet
  facet normal 0 0 1
    outer loop
      vertex 125.618 70.1385 8
      vertex 122.5 91 8
      vertex 124.487 73.6179 8
    endloop
  endfacet
  facet normal 0 0 1
    outer loop
      vertex 122.5 91 8
      vertex 133 133 8
      vertex 122.5 122.5 8
    endloop
  endfacet
  facet normal 0 0 1
    outer loop
      vertex 133 133 8
      vertex 91 122.5 8
      vertex 122.5 122.5 8
    endloop
  endfacet
  facet normal -0 0 1
    outer loop
      vertex 84 108.5 8
      vertex 91 91 8
      vertex 91 122.5 8
    endloop
  endfacet
  facet normal -0 0 1
    outer loop
      vertex 83.6176 104.862 8
      vertex 91 91 8
      vertex 84 108.5 8
    endloop
  endfacet
  facet normal -0 0 1
    outer loop
      vertex 80.6578 98.2138 8
      vertex 91 91 8
      vertex 82.487 101.382 8
    endloop
  endfacet
  facet normal 0 0 1
    outer loop
      vertex 91.3824 62.8615 8
      vertex 84 24.5 8
      vertex 91 38.5 8
    endloop
  endfacet
  facet normal 0 0 1
    outer loop
      vertex 91 122.5 8
      vertex 83.6176 112.138 8
      vertex 84 108.5 8
    endloop
  endfacet
  facet normal 0 0 1
    outer loop
      vertex 91 122.5 8
      vertex 82.487 115.618 8
      vertex 83.6176 112.138 8
    endloop
  endfacet
  facet normal 0 0 1
    outer loop
      vertex 91 122.5 8
      vertex 80.6578 118.786 8
      vertex 82.487 115.618 8
    endloop
  endfacet
  facet normal 0 0 1
    outer loop
      vertex 91 122.5 8
      vertex 78.2098 121.505 8
      vertex 80.6578 118.786 8
    endloop
  endfacet
  facet normal -0 0 1
    outer loop
      vertex 71.9078 125.143 8
      vertex 91 122.5 8
      vertex 133 133 8
    endloop
  endfacet
  facet normal 0 0 1
    outer loop
      vertex 91 122.5 8
      vertex 75.25 123.655 8
      vertex 78.2098 121.505 8
    endloop
  endfacet
  facet normal 0 0 1
    outer loop
      vertex 91 122.5 8
      vertex 71.9078 125.143 8
      vertex 75.25 123.655 8
    endloop
  endfacet
  facet normal 0 0 1
    outer loop
      vertex 133 133 8
      vertex 68.3292 125.904 8
      vertex 71.9078 125.143 8
    endloop
  endfacet
  facet normal 0 0 1
    outer loop
      vertex 133 133 8
      vertex 64.6708 125.904 8
      vertex 68.3292 125.904 8
    endloop
  endfacet
  facet normal 0 0 1
    outer loop
      vertex 54.7902 95.495 8
      vertex 38.5 91 8
      vertex 49 80.5 8
    endloop
  endfacet
  facet normal 0 -0 1
    outer loop
      vertex 42 66.5 8
      vertex 49 80.5 8
      vertex 41.6176 70.1385 8
    endloop
  endfacet
  facet normal -0 0 1
    outer loop
      vertex 41.6176 62.8615 8
      vertex 49 49 8
      vertex 42 66.5 8
    endloop
  endfacet
  facet normal 0 0 1
    outer loop
      vertex 38.5 122.5 8
      vertex 49 108.5 8
      vertex 49.3824 112.138 8
    endloop
  endfacet
  facet normal 0 0 1
    outer loop
      vertex 49 80.5 8
      vertex 42 66.5 8
      vertex 49 49 8
    endloop
  endfacet
  facet normal 0 0 1
    outer loop
      vertex 49 80.5 8
      vertex 40.487 73.6179 8
      vertex 41.6176 70.1385 8
    endloop
  endfacet
  facet normal 0 0 1
    outer loop
      vertex 36.2098 79.505 8
      vertex 49 80.5 8
      vertex 38.5 91 8
    endloop
  endfacet
  facet normal 0 0 1
    outer loop
      vertex 49 108.5 8
      vertex 38.5 122.5 8
      vertex 38.5 91 8
    endloop
  endfacet
  facet normal 0 0 1
    outer loop
      vertex 50.513 115.618 8
      vertex 38.5 122.5 8
      vertex 49.3824 112.138 8
    endloop
  endfacet
  facet normal 0 0 1
    outer loop
      vertex 52.3422 118.786 8
      vertex 38.5 122.5 8
      vertex 50.513 115.618 8
    endloop
  endfacet
  facet normal 0 0 1
    outer loop
      vertex 54.7902 121.505 8
      vertex 38.5 122.5 8
      vertex 52.3422 118.786 8
    endloop
  endfacet
  facet normal 0 0 1
    outer loop
      vertex 57.75 123.655 8
      vertex 38.5 122.5 8
      vertex 54.7902 121.505 8
    endloop
  endfacet
  facet normal 0 0 1
    outer loop
      vertex 61.0922 125.143 8
      vertex 38.5 122.5 8
      vertex 57.75 123.655 8
    endloop
  endfacet
  facet normal 0 0 1
    outer loop
      vertex 0 133 8
      vertex 61.0922 125.143 8
      vertex 64.6708 125.904 8
    endloop
  endfacet
  facet normal 0 0 1
    outer loop
      vertex 61.0922 125.143 8
      vertex 0 133 8
      vertex 38.5 122.5 8
    endloop
  endfacet
  facet normal -0 0 1
    outer loop
      vertex 0 133 8
      vertex 64.6708 125.904 8
      vertex 133 133 8
    endloop
  endfacet
  facet normal 0 0 1
    outer loop
      vertex 0 133 8
      vertex 7 91 8
      vertex 7 122.5 8
    endloop
  endfacet
  facet normal 0 0 1
    outer loop
      vertex 7 91 8
      vertex 0 133 8
      vertex 7 66.5 8
    endloop
  endfacet
  facet normal 0 0 1
    outer loop
      vertex 0 0 8
      vertex 7 66.5 8
      vertex 0 133 8
    endloop
  endfacet
  facet normal 0 0 1
    outer loop
      vertex 7 66.5 8
      vertex 0 0 8
      vertex 7 38.5 8
    endloop
  endfacet
  facet normal 0 0 1
    outer loop
      vertex 38.5 122.5 8
      vertex 0 133 8
      vertex 7 122.5 8
    endloop
  endfacet
  facet normal -0 0 1
    outer loop
      vertex 125.618 62.8615 8
      vertex 133 0 8
      vertex 126 66.5 8
    endloop
  endfacet
  facet normal 0 0 1
    outer loop
      vertex 122.5 38.5 8
      vertex 125.618 62.8615 8
      vertex 124.487 59.3821 8
    endloop
  endfacet
  facet normal 0 0 1
    outer loop
      vertex 122.5 38.5 8
      vertex 124.487 59.3821 8
      vertex 122.658 56.2138 8
    endloop
  endfacet
  facet normal 0 0 1
    outer loop
      vertex 125.618 62.8615 8
      vertex 122.5 38.5 8
      vertex 133 0 8
    endloop
  endfacet
  facet normal -0 0 1
    outer loop
      vertex 122.5 7 8
      vertex 133 0 8
      vertex 122.5 38.5 8
    endloop
  endfacet
  facet normal -0 0 1
    outer loop
      vertex 91 7 8
      vertex 133 0 8
      vertex 122.5 7 8
    endloop
  endfacet
  facet normal 0 0 1
    outer loop
      vertex 91 38.5 8
      vertex 84 24.5 8
      vertex 91 7 8
    endloop
  endfacet
  facet normal -0 0 1
    outer loop
      vertex 83.6176 20.8615 8
      vertex 91 7 8
      vertex 84 24.5 8
    endloop
  endfacet
  facet normal -0 0 1
    outer loop
      vertex 82.487 17.3821 8
      vertex 91 7 8
      vertex 83.6176 20.8615 8
    endloop
  endfacet
  facet normal -0 0 1
    outer loop
      vertex 80.6578 14.2138 8
      vertex 91 7 8
      vertex 82.487 17.3821 8
    endloop
  endfacet
  facet normal -0 0 1
    outer loop
      vertex 78.2098 11.495 8
      vertex 91 7 8
      vertex 80.6578 14.2138 8
    endloop
  endfacet
  facet normal -0 0 1
    outer loop
      vertex 75.25 9.34455 8
      vertex 91 7 8
      vertex 78.2098 11.495 8
    endloop
  endfacet
  facet normal -0 0 1
    outer loop
      vertex 71.9078 7.85651 8
      vertex 91 7 8
      vertex 75.25 9.34455 8
    endloop
  endfacet
  facet normal -0 0 1
    outer loop
      vertex 68.3292 7.09587 8
      vertex 91 7 8
      vertex 71.9078 7.85651 8
    endloop
  endfacet
  facet normal 0 0 1
    outer loop
      vertex 91 7 8
      vertex 68.3292 7.09587 8
      vertex 133 0 8
    endloop
  endfacet
  facet normal -0 0 1
    outer loop
      vertex 64.6708 7.09587 8
      vertex 133 0 8
      vertex 68.3292 7.09587 8
    endloop
  endfacet
  facet normal -0 0 1
    outer loop
      vertex 40.487 59.3821 8
      vertex 49 49 8
      vertex 41.6176 62.8615 8
    endloop
  endfacet
  facet normal -0 0 1
    outer loop
      vertex 38.6578 56.2138 8
      vertex 49 49 8
      vertex 40.487 59.3821 8
    endloop
  endfacet
  facet normal 0 0 1
    outer loop
      vertex 49 49 8
      vertex 38.5 38.5 8
      vertex 49 24.5 8
    endloop
  endfacet
  facet normal -0 0 1
    outer loop
      vertex 36.2098 53.495 8
      vertex 49 49 8
      vertex 38.6578 56.2138 8
    endloop
  endfacet
  facet normal 0 0 1
    outer loop
      vertex 38.5 7 8
      vertex 49 24.5 8
      vertex 38.5 38.5 8
    endloop
  endfacet
  facet normal 0 0 1
    outer loop
      vertex 49 24.5 8
      vertex 38.5 7 8
      vertex 49.3824 20.8615 8
    endloop
  endfacet
  facet normal 0 0 1
    outer loop
      vertex 49.3824 20.8615 8
      vertex 38.5 7 8
      vertex 50.513 17.3821 8
    endloop
  endfacet
  facet normal 0 0 1
    outer loop
      vertex 38.5 7 8
      vertex 52.3422 14.2138 8
      vertex 50.513 17.3821 8
    endloop
  endfacet
  facet normal 0 0 1
    outer loop
      vertex 38.5 7 8
      vertex 54.7902 11.495 8
      vertex 52.3422 14.2138 8
    endloop
  endfacet
  facet normal 0 0 1
    outer loop
      vertex 38.5 7 8
      vertex 57.75 9.34455 8
      vertex 54.7902 11.495 8
    endloop
  endfacet
  facet normal 0 0 1
    outer loop
      vertex 38.5 7 8
      vertex 61.0922 7.85651 8
      vertex 57.75 9.34455 8
    endloop
  endfacet
  facet normal 0 0 1
    outer loop
      vertex 38.5 7 8
      vertex 64.6708 7.09587 8
      vertex 61.0922 7.85651 8
    endloop
  endfacet
  facet normal 0 0 1
    outer loop
      vertex 0 0 8
      vertex 64.6708 7.09587 8
      vertex 38.5 7 8
    endloop
  endfacet
  facet normal 0 0 1
    outer loop
      vertex 0 0 8
      vertex 38.5 7 8
      vertex 7 7 8
    endloop
  endfacet
  facet normal 0 0 1
    outer loop
      vertex 64.6708 7.09587 8
      vertex 0 0 8
      vertex 133 0 8
    endloop
  endfacet
  facet normal 0 0 1
    outer loop
      vertex 7 38.5 8
      vertex 0 0 8
      vertex 7 7 8
    endloop
  endfacet
  facet normal 0 0 1
    outer loop
      vertex 124.487 73.6179 8
      vertex 122.5 91 8
      vertex 122.658 76.7862 8
    endloop
  endfacet
  facet normal 0 0 1
    outer loop
      vertex 122.5 91 8
      vertex 120.21 79.505 8
      vertex 122.658 76.7862 8
    endloop
  endfacet
  facet normal 0 0 1
    outer loop
      vertex 122.5 91 8
      vertex 117.25 81.6554 8
      vertex 120.21 79.505 8
    endloop
  endfacet
  facet normal 0 0 1
    outer loop
      vertex 122.5 91 8
      vertex 113.908 83.1435 8
      vertex 117.25 81.6554 8
    endloop
  endfacet
  facet normal 0 0 1
    outer loop
      vertex 122.5 91 8
      vertex 110.329 83.9041 8
      vertex 113.908 83.1435 8
    endloop
  endfacet
  facet normal 0 0 1
    outer loop
      vertex 122.5 91 8
      vertex 106.671 83.9041 8
      vertex 110.329 83.9041 8
    endloop
  endfacet
  facet normal -0 0 1
    outer loop
      vertex 91 91 8
      vertex 106.671 83.9041 8
      vertex 122.5 91 8
    endloop
  endfacet
  facet normal 0 0 1
    outer loop
      vertex 106.671 83.9041 8
      vertex 91 91 8
      vertex 103.092 83.1435 8
    endloop
  endfacet
  facet normal 0 0 1
    outer loop
      vertex 91 91 8
      vertex 99.75 81.6554 8
      vertex 103.092 83.1435 8
    endloop
  endfacet
  facet normal 0 0 1
    outer loop
      vertex 91 91 8
      vertex 96.7902 79.505 8
      vertex 99.75 81.6554 8
    endloop
  endfacet
  facet normal 0 0 1
    outer loop
      vertex 91 91 8
      vertex 94.3422 76.7862 8
      vertex 96.7902 79.505 8
    endloop
  endfacet
  facet normal -0 0 1
    outer loop
      vertex 80.5 80.5 8
      vertex 94.3422 76.7862 8
      vertex 91 91 8
    endloop
  endfacet
  facet normal 0 0 1
    outer loop
      vertex 80.5 80.5 8
      vertex 91 91 8
      vertex 80.6578 98.2138 8
    endloop
  endfacet
  facet normal -0 0 1
    outer loop
      vertex 82.487 101.382 8
      vertex 91 91 8
      vertex 83.6176 104.862 8
    endloop
  endfacet
  facet normal 0 0 1
    outer loop
      vertex 82.487 31.6179 8
      vertex 80.5 49 8
      vertex 80.6578 34.7862 8
    endloop
  endfacet
  facet normal 0 0 1
    outer loop
      vertex 80.5 49 8
      vertex 78.2098 37.505 8
      vertex 80.6578 34.7862 8
    endloop
  endfacet
  facet normal 0 0 1
    outer loop
      vertex 80.5 49 8
      vertex 75.25 39.6554 8
      vertex 78.2098 37.505 8
    endloop
  endfacet
  facet normal 0 0 1
    outer loop
      vertex 80.5 49 8
      vertex 71.9078 41.1435 8
      vertex 75.25 39.6554 8
    endloop
  endfacet
  facet normal 0 0 1
    outer loop
      vertex 80.5 49 8
      vertex 68.3292 41.9041 8
      vertex 71.9078 41.1435 8
    endloop
  endfacet
  facet normal 0 0 1
    outer loop
      vertex 80.5 49 8
      vertex 64.6708 41.9041 8
      vertex 68.3292 41.9041 8
    endloop
  endfacet
  facet normal -0 0 1
    outer loop
      vertex 49 49 8
      vertex 64.6708 41.9041 8
      vertex 80.5 49 8
    endloop
  endfacet
  facet normal 0 0 1
    outer loop
      vertex 64.6708 41.9041 8
      vertex 49 49 8
      vertex 61.0922 41.1435 8
    endloop
  endfacet
  facet normal 0 0 1
    outer loop
      vertex 49 49 8
      vertex 57.75 39.6554 8
      vertex 61.0922 41.1435 8
    endloop
  endfacet
  facet normal 0 0 1
    outer loop
      vertex 49 49 8
      vertex 54.7902 37.505 8
      vertex 57.75 39.6554 8
    endloop
  endfacet
  facet normal 0 0 1
    outer loop
      vertex 49 49 8
      vertex 52.3422 34.7862 8
      vertex 54.7902 37.505 8
    endloop
  endfacet
  facet normal 0 0 1
    outer loop
      vertex 49 49 8
      vertex 50.513 31.6179 8
      vertex 52.3422 34.7862 8
    endloop
  endfacet
  facet normal 0 0 1
    outer loop
      vertex 49 49 8
      vertex 49.3824 28.1385 8
      vertex 50.513 31.6179 8
    endloop
  endfacet
  facet normal 0 0 1
    outer loop
      vertex 49.3824 28.1385 8
      vertex 49 49 8
      vertex 49 24.5 8
    endloop
  endfacet
  facet normal 0 0 1
    outer loop
      vertex 49 80.5 8
      vertex 38.6578 76.7862 8
      vertex 40.487 73.6179 8
    endloop
  endfacet
  facet normal 0 0 1
    outer loop
      vertex 49 80.5 8
      vertex 36.2098 79.505 8
      vertex 38.6578 76.7862 8
    endloop
  endfacet
  facet normal 0 0 1
    outer loop
      vertex 38.5 91 8
      vertex 33.25 81.6554 8
      vertex 36.2098 79.505 8
    endloop
  endfacet
  facet normal 0 0 1
    outer loop
      vertex 38.5 91 8
      vertex 29.9078 83.1435 8
      vertex 33.25 81.6554 8
    endloop
  endfacet
  facet normal 0 0 1
    outer loop
      vertex 38.5 91 8
      vertex 26.3292 83.9041 8
      vertex 29.9078 83.1435 8
    endloop
  endfacet
  facet normal 0 0 1
    outer loop
      vertex 38.5 91 8
      vertex 22.6708 83.9041 8
      vertex 26.3292 83.9041 8
    endloop
  endfacet
  facet normal -0 0 1
    outer loop
      vertex 7 91 8
      vertex 22.6708 83.9041 8
      vertex 38.5 91 8
    endloop
  endfacet
  facet normal 0 0 1
    outer loop
      vertex 22.6708 83.9041 8
      vertex 7 91 8
      vertex 19.0922 83.1435 8
    endloop
  endfacet
  facet normal 0 0 1
    outer loop
      vertex 7 91 8
      vertex 15.75 81.6554 8
      vertex 19.0922 83.1435 8
    endloop
  endfacet
  facet normal 0 0 1
    outer loop
      vertex 7 91 8
      vertex 12.7902 79.505 8
      vertex 15.75 81.6554 8
    endloop
  endfacet
  facet normal 0 0 1
    outer loop
      vertex 7 91 8
      vertex 10.3422 76.7862 8
      vertex 12.7902 79.505 8
    endloop
  endfacet
  facet normal 0 0 1
    outer loop
      vertex 7 91 8
      vertex 8.51295 73.6179 8
      vertex 10.3422 76.7862 8
    endloop
  endfacet
  facet normal 0 0 1
    outer loop
      vertex 7 91 8
      vertex 7.38242 70.1385 8
      vertex 8.51295 73.6179 8
    endloop
  endfacet
  facet normal 0 0 1
    outer loop
      vertex 7.38242 70.1385 8
      vertex 7 91 8
      vertex 7 66.5 8
    endloop
  endfacet
  facet normal 1 -0 0
    outer loop
      vertex 133 0 8
      vertex 133 133 0
      vertex 133 133 8
    endloop
  endfacet
  facet normal 1 0 0
    outer loop
      vertex 133 133 0
      vertex 133 0 8
      vertex 133 0 0
    endloop
  endfacet
  facet normal 0 0 -1
    outer loop
      vertex 0 0 0
      vertex 133 133 0
      vertex 133 0 0
    endloop
  endfacet
  facet normal -0 0 -1
    outer loop
      vertex 133 133 0
      vertex 0 0 0
      vertex 0 133 0
    endloop
  endfacet
  facet normal 0 -1 0
    outer loop
      vertex 0 0 0
      vertex 133 0 8
      vertex 0 0 8
    endloop
  endfacet
  facet normal 0 -1 -0
    outer loop
      vertex 133 0 8
      vertex 0 0 0
      vertex 133 0 0
    endloop
  endfacet
  facet normal 0 1 -0
    outer loop
      vertex 133 133 0
      vertex 0 133 8
      vertex 133 133 8
    endloop
  endfacet
  facet normal 0 1 0
    outer loop
      vertex 0 133 8
      vertex 133 133 0
      vertex 0 133 0
    endloop
  endfacet
endsolid OpenSCAD_Model
