solid OpenSCAD_Model
  facet normal -1 0 0
    outer loop
      vertex 0 0 0
      vertex 0 0 25
      vertex 0 25 0
    endloop
  endfacet
  facet normal -1 0 0
    outer loop
      vertex 0 25 0
      vertex 0 0 25
      vertex 0 25 25
    endloop
  endfacet
  facet normal 0 -1 0
    outer loop
      vertex 0 0 25
      vertex 0 0 0
      vertex 25 0 0
    endloop
  endfacet
  facet normal 0 -1 0
    outer loop
      vertex 25 0 25
      vertex 0 0 25
      vertex 25 0 0
    endloop
  endfacet
  facet normal 0 0 -1
    outer loop
      vertex 0 0 0
      vertex 0 25 0
      vertex 25 0 0
    endloop
  endfacet
  facet normal 0 0 -1
    outer loop
      vertex 25 0 0
      vertex 0 25 0
      vertex 25 25 0
    endloop
  endfacet
  facet normal 0 1 0
    outer loop
      vertex 0 25 0
      vertex 0 25 25
      vertex 25 25 0
    endloop
  endfacet
  facet normal 0 1 0
    outer loop
      vertex 25 25 0
      vertex 0 25 25
      vertex 25 25 25
    endloop
  endfacet
  facet normal 0 0 1
    outer loop
      vertex 0 25 25
      vertex 0 0 25
      vertex 25 0 25
    endloop
  endfacet
  facet normal 0 0 1
    outer loop
      vertex 25 25 25
      vertex 0 25 25
      vertex 25 0 25
    endloop
  endfacet
  facet normal 1 0 0
    outer loop
      vertex 25 0 25
      vertex 25 0 0
      vertex 25 25 0
    endloop
  endfacet
  facet normal 1 0 0
    outer loop
      vertex 25 25 25
      vertex 25 0 25
      vertex 25 25 0
    endloop
  endfacet
  facet normal 0 0 -1
    outer loop
      vertex 37.5 12.5 0
      vertex 37.5503 13.6205 0
      vertex 37.5503 11.3795 0
    endloop
  endfacet
  facet normal 0 0 -1
    outer loop
      vertex 37.5503 11.3795 0
      vertex 37.5503 13.6205 0
      vertex 37.7009 14.732 0
    endloop
  endfacet
  facet normal 0 0 -1
    outer loop
      vertex 37.5503 11.3795 0
      vertex 37.7009 14.732 0
      vertex 37.9505 15.8255 0
    endloop
  endfacet
  facet normal 0 0 -1
    outer loop
      vertex 37.5503 11.3795 0
      vertex 37.9505 15.8255 0
      vertex 38.2971 16.8922 0
    endloop
  endfacet
  facet normal 0 0 -1
    outer loop
      vertex 37.5503 11.3795 0
      vertex 38.2971 16.8922 0
      vertex 38.7379 17.9235 0
    endloop
  endfacet
  facet normal 0 0 -1
    outer loop
      vertex 37.5503 11.3795 0
      vertex 38.7379 17.9235 0
      vertex 39.2694 18.9112 0
    endloop
  endfacet
  facet normal 0 0 -1
    outer loop
      vertex 37.5503 11.3795 0
      vertex 39.2694 18.9112 0
      vertex 39.8873 19.8473 0
    endloop
  endfacet
  facet normal 0 0 -1
    outer loop
      vertex 37.5503 11.3795 0
      vertex 39.8873 19.8473 0
      vertex 40.5866 20.7242 0
    endloop
  endfacet
  facet normal 0 0 -1
    outer loop
      vertex 37.5503 11.3795 0
      vertex 40.5866 20.7242 0
      vertex 41.3617 21.5349 0
    endloop
  endfacet
  facet normal 0 0 -1
    outer loop
      vertex 37.5503 11.3795 0
      vertex 41.3617 21.5349 0
      vertex 42.2064 22.2729 0
    endloop
  endfacet
  facet normal 0 0 -1
    outer loop
      vertex 37.5503 11.3795 0
      vertex 42.2064 22.2729 0
      vertex 43.1138 22.9322 0
    endloop
  endfacet
  facet normal 0 0 -1
    outer loop
      vertex 37.5503 11.3795 0
      vertex 43.1138 22.9322 0
      vertex 44.0766 23.5074 0
    endloop
  endfacet
  facet normal 0 0 -1
    outer loop
      vertex 37.5503 11.3795 0
      vertex 44.0766 23.5074 0
      vertex 45.0872 23.9941 0
    endloop
  endfacet
  facet normal 0 0 -1
    outer loop
      vertex 37.5503 11.3795 0
      vertex 45.0872 23.9941 0
      vertex 46.1373 24.3882 0
    endloop
  endfacet
  facet normal 0 0 -1
    outer loop
      vertex 37.5503 11.3795 0
      vertex 46.1373 24.3882 0
      vertex 47.2185 24.6866 0
    endloop
  endfacet
  facet normal 0 0 -1
    outer loop
      vertex 37.5503 11.3795 0
      vertex 47.2185 24.6866 0
      vertex 48.3221 24.8869 0
    endloop
  endfacet
  facet normal 0 0 -1
    outer loop
      vertex 37.5503 11.3795 0
      vertex 48.3221 24.8869 0
      vertex 49.4392 24.9874 0
    endloop
  endfacet
  facet normal 0 0 -1
    outer loop
      vertex 37.5503 11.3795 0
      vertex 49.4392 24.9874 0
      vertex 50.5608 24.9874 0
    endloop
  endfacet
  facet normal 0 0 -1
    outer loop
      vertex 37.5503 11.3795 0
      vertex 50.5608 24.9874 0
      vertex 51.6779 24.8869 0
    endloop
  endfacet
  facet normal 0 0 -1
    outer loop
      vertex 37.5503 11.3795 0
      vertex 51.6779 24.8869 0
      vertex 52.7815 24.6866 0
    endloop
  endfacet
  facet normal 0 0 -1
    outer loop
      vertex 37.5503 11.3795 0
      vertex 52.7815 24.6866 0
      vertex 53.8627 24.3882 0
    endloop
  endfacet
  facet normal 0 0 -1
    outer loop
      vertex 37.5503 11.3795 0
      vertex 53.8627 24.3882 0
      vertex 54.9128 23.9941 0
    endloop
  endfacet
  facet normal 0 0 -1
    outer loop
      vertex 37.5503 11.3795 0
      vertex 54.9128 23.9941 0
      vertex 55.9234 23.5074 0
    endloop
  endfacet
  facet normal 0 0 -1
    outer loop
      vertex 37.5503 11.3795 0
      vertex 55.9234 23.5074 0
      vertex 56.8862 22.9322 0
    endloop
  endfacet
  facet normal 0 0 -1
    outer loop
      vertex 37.5503 11.3795 0
      vertex 56.8862 22.9322 0
      vertex 57.7936 22.2729 0
    endloop
  endfacet
  facet normal 0 0 -1
    outer loop
      vertex 37.5503 11.3795 0
      vertex 57.7936 22.2729 0
      vertex 58.6383 21.5349 0
    endloop
  endfacet
  facet normal 0 0 -1
    outer loop
      vertex 37.5503 11.3795 0
      vertex 58.6383 21.5349 0
      vertex 59.4134 20.7242 0
    endloop
  endfacet
  facet normal 0 0 -1
    outer loop
      vertex 37.5503 11.3795 0
      vertex 59.4134 20.7242 0
      vertex 60.1127 19.8473 0
    endloop
  endfacet
  facet normal 0 0 -1
    outer loop
      vertex 37.5503 11.3795 0
      vertex 60.1127 19.8473 0
      vertex 60.7306 18.9112 0
    endloop
  endfacet
  facet normal 0 0 -1
    outer loop
      vertex 37.5503 11.3795 0
      vertex 60.7306 18.9112 0
      vertex 61.2621 17.9235 0
    endloop
  endfacet
  facet normal 0 0 -1
    outer loop
      vertex 37.5503 11.3795 0
      vertex 61.2621 17.9235 0
      vertex 61.7029 16.8922 0
    endloop
  endfacet
  facet normal 0 0 -1
    outer loop
      vertex 37.5503 11.3795 0
      vertex 61.7029 16.8922 0
      vertex 62.0495 15.8255 0
    endloop
  endfacet
  facet normal 0 0 -1
    outer loop
      vertex 37.5503 11.3795 0
      vertex 62.0495 15.8255 0
      vertex 62.2991 14.732 0
    endloop
  endfacet
  facet normal 0 0 -1
    outer loop
      vertex 37.5503 11.3795 0
      vertex 62.2991 14.732 0
      vertex 62.4497 13.6205 0
    endloop
  endfacet
  facet normal 0 0 -1
    outer loop
      vertex 37.5503 11.3795 0
      vertex 62.4497 13.6205 0
      vertex 62.5 12.5 0
    endloop
  endfacet
  facet normal 0 0 -1
    outer loop
      vertex 37.5503 11.3795 0
      vertex 62.5 12.5 0
      vertex 62.4497 11.3795 0
    endloop
  endfacet
  facet normal 0 0 -1
    outer loop
      vertex 37.5503 11.3795 0
      vertex 62.4497 11.3795 0
      vertex 62.2991 10.268 0
    endloop
  endfacet
  facet normal 0 0 -1
    outer loop
      vertex 37.5503 11.3795 0
      vertex 62.2991 10.268 0
      vertex 62.0495 9.17454 0
    endloop
  endfacet
  facet normal 0 0 -1
    outer loop
      vertex 37.5503 11.3795 0
      vertex 62.0495 9.17454 0
      vertex 61.7029 8.10782 0
    endloop
  endfacet
  facet normal 0 0 -1
    outer loop
      vertex 37.5503 11.3795 0
      vertex 61.7029 8.10782 0
      vertex 61.2621 7.07645 0
    endloop
  endfacet
  facet normal 0 0 -1
    outer loop
      vertex 37.5503 11.3795 0
      vertex 61.2621 7.07645 0
      vertex 60.7306 6.08876 0
    endloop
  endfacet
  facet normal 0 0 -1
    outer loop
      vertex 37.5503 11.3795 0
      vertex 60.7306 6.08876 0
      vertex 60.1127 5.15268 0
    endloop
  endfacet
  facet normal 0 0 -1
    outer loop
      vertex 37.5503 11.3795 0
      vertex 60.1127 5.15268 0
      vertex 59.4134 4.27577 0
    endloop
  endfacet
  facet normal 0 0 -1
    outer loop
      vertex 37.5503 11.3795 0
      vertex 59.4134 4.27577 0
      vertex 58.6383 3.46506 0
    endloop
  endfacet
  facet normal 0 0 -1
    outer loop
      vertex 37.5503 11.3795 0
      vertex 58.6383 3.46506 0
      vertex 57.7936 2.72711 0
    endloop
  endfacet
  facet normal 0 0 -1
    outer loop
      vertex 37.5503 11.3795 0
      vertex 57.7936 2.72711 0
      vertex 56.8862 2.06783 0
    endloop
  endfacet
  facet normal 0 0 -1
    outer loop
      vertex 37.5503 11.3795 0
      vertex 56.8862 2.06783 0
      vertex 55.9234 1.49256 0
    endloop
  endfacet
  facet normal 0 0 -1
    outer loop
      vertex 37.5503 11.3795 0
      vertex 55.9234 1.49256 0
      vertex 54.9128 1.0059 0
    endloop
  endfacet
  facet normal 0 0 -1
    outer loop
      vertex 37.5503 11.3795 0
      vertex 54.9128 1.0059 0
      vertex 53.8627 0.611794 0
    endloop
  endfacet
  facet normal 0 0 -1
    outer loop
      vertex 37.5503 11.3795 0
      vertex 53.8627 0.611794 0
      vertex 52.7815 0.313401 0
    endloop
  endfacet
  facet normal 0 0 -1
    outer loop
      vertex 37.5503 11.3795 0
      vertex 52.7815 0.313401 0
      vertex 51.6779 0.113128 0
    endloop
  endfacet
  facet normal 0 0 -1
    outer loop
      vertex 37.5503 11.3795 0
      vertex 51.6779 0.113128 0
      vertex 50.5608 0.012587 0
    endloop
  endfacet
  facet normal 0 0 -1
    outer loop
      vertex 37.5503 11.3795 0
      vertex 50.5608 0.012587 0
      vertex 49.4392 0.012587 0
    endloop
  endfacet
  facet normal 0 0 -1
    outer loop
      vertex 37.5503 11.3795 0
      vertex 49.4392 0.012587 0
      vertex 48.3221 0.113128 0
    endloop
  endfacet
  facet normal 0 0 -1
    outer loop
      vertex 37.5503 11.3795 0
      vertex 48.3221 0.113128 0
      vertex 47.2185 0.313401 0
    endloop
  endfacet
  facet normal 0 0 -1
    outer loop
      vertex 37.5503 11.3795 0
      vertex 47.2185 0.313401 0
      vertex 46.1373 0.611794 0
    endloop
  endfacet
  facet normal 0 0 -1
    outer loop
      vertex 37.5503 11.3795 0
      vertex 46.1373 0.611794 0
      vertex 45.0872 1.0059 0
    endloop
  endfacet
  facet normal 0 0 -1
    outer loop
      vertex 37.5503 11.3795 0
      vertex 45.0872 1.0059 0
      vertex 44.0766 1.49256 0
    endloop
  endfacet
  facet normal 0 0 -1
    outer loop
      vertex 37.5503 11.3795 0
      vertex 44.0766 1.49256 0
      vertex 43.1138 2.06783 0
    endloop
  endfacet
  facet normal 0 0 -1
    outer loop
      vertex 37.5503 11.3795 0
      vertex 43.1138 2.06783 0
      vertex 42.2064 2.72711 0
    endloop
  endfacet
  facet normal 0 0 -1
    outer loop
      vertex 37.5503 11.3795 0
      vertex 42.2064 2.72711 0
      vertex 41.3617 3.46506 0
    endloop
  endfacet
  facet normal 0 0 -1
    outer loop
      vertex 37.5503 11.3795 0
      vertex 41.3617 3.46506 0
      vertex 40.5866 4.27577 0
    endloop
  endfacet
  facet normal 0 0 -1
    outer loop
      vertex 37.5503 11.3795 0
      vertex 40.5866 4.27577 0
      vertex 39.8873 5.15268 0
    endloop
  endfacet
  facet normal 0 0 -1
    outer loop
      vertex 37.5503 11.3795 0
      vertex 39.8873 5.15268 0
      vertex 39.2694 6.08876 0
    endloop
  endfacet
  facet normal 0 0 -1
    outer loop
      vertex 37.5503 11.3795 0
      vertex 39.2694 6.08876 0
      vertex 38.7379 7.07645 0
    endloop
  endfacet
  facet normal 0 0 -1
    outer loop
      vertex 37.5503 11.3795 0
      vertex 38.7379 7.07645 0
      vertex 38.2971 8.10782 0
    endloop
  endfacet
  facet normal 0 0 -1
    outer loop
      vertex 37.5503 11.3795 0
      vertex 38.2971 8.10782 0
      vertex 37.9505 9.17454 0
    endloop
  endfacet
  facet normal 0 0 -1
    outer loop
      vertex 37.5503 11.3795 0
      vertex 37.9505 9.17454 0
      vertex 37.7009 10.268 0
    endloop
  endfacet
  facet normal -0.998993 0.0448646 0
    outer loop
      vertex 37.5 12.5 0
      vertex 37.5 12.5 25
      vertex 37.5503 13.6205 0
    endloop
  endfacet
  facet normal -0.998993 0.0448646 0
    outer loop
      vertex 37.5503 13.6205 0
      vertex 37.5 12.5 25
      vertex 37.5503 13.6205 25
    endloop
  endfacet
  facet normal -0.998993 -0.0448646 0
    outer loop
      vertex 37.5 12.5 0
      vertex 37.5503 11.3795 0
      vertex 37.5 12.5 25
    endloop
  endfacet
  facet normal -0.998993 -0.0448646 0
    outer loop
      vertex 37.5 12.5 25
      vertex 37.5503 11.3795 0
      vertex 37.5503 11.3795 25
    endloop
  endfacet
  facet normal -0.99095 -0.134233 0
    outer loop
      vertex 37.5503 11.3795 0
      vertex 37.7009 10.268 0
      vertex 37.5503 11.3795 25
    endloop
  endfacet
  facet normal -0.99095 -0.134233 0
    outer loop
      vertex 37.5503 11.3795 25
      vertex 37.7009 10.268 0
      vertex 37.7009 10.268 25
    endloop
  endfacet
  facet normal -0.974928 -0.222521 0
    outer loop
      vertex 37.7009 10.268 0
      vertex 37.9505 9.17454 0
      vertex 37.7009 10.268 25
    endloop
  endfacet
  facet normal -0.974928 -0.222521 0
    outer loop
      vertex 37.7009 10.268 25
      vertex 37.9505 9.17454 0
      vertex 37.9505 9.17454 25
    endloop
  endfacet
  facet normal -0.951056 -0.309017 0
    outer loop
      vertex 37.9505 9.17454 0
      vertex 38.2971 8.10782 0
      vertex 37.9505 9.17454 25
    endloop
  endfacet
  facet normal -0.951056 -0.309017 0
    outer loop
      vertex 37.9505 9.17454 25
      vertex 38.2971 8.10782 0
      vertex 38.2971 8.10782 25
    endloop
  endfacet
  facet normal -0.919528 -0.393025 0
    outer loop
      vertex 38.2971 8.10782 0
      vertex 38.7379 7.07645 0
      vertex 38.2971 8.10782 25
    endloop
  endfacet
  facet normal -0.919528 -0.393025 0
    outer loop
      vertex 38.2971 8.10782 25
      vertex 38.7379 7.07645 0
      vertex 38.7379 7.07645 25
    endloop
  endfacet
  facet normal -0.880595 -0.473869 0
    outer loop
      vertex 38.7379 7.07645 0
      vertex 39.2694 6.08876 0
      vertex 38.7379 7.07645 25
    endloop
  endfacet
  facet normal -0.880595 -0.473869 0
    outer loop
      vertex 38.7379 7.07645 25
      vertex 39.2694 6.08876 0
      vertex 39.2694 6.08876 25
    endloop
  endfacet
  facet normal -0.834573 -0.550897 0
    outer loop
      vertex 39.2694 6.08876 0
      vertex 39.8873 5.15268 0
      vertex 39.2694 6.08876 25
    endloop
  endfacet
  facet normal -0.834573 -0.550897 0
    outer loop
      vertex 39.2694 6.08876 25
      vertex 39.8873 5.15268 0
      vertex 39.8873 5.15268 25
    endloop
  endfacet
  facet normal -0.781831 -0.62349 0
    outer loop
      vertex 39.8873 5.15268 0
      vertex 40.5866 4.27577 0
      vertex 39.8873 5.15268 25
    endloop
  endfacet
  facet normal -0.781831 -0.62349 0
    outer loop
      vertex 39.8873 5.15268 25
      vertex 40.5866 4.27577 0
      vertex 40.5866 4.27577 25
    endloop
  endfacet
  facet normal -0.722795 -0.691062 0
    outer loop
      vertex 40.5866 4.27577 0
      vertex 41.3617 3.46506 0
      vertex 40.5866 4.27577 25
    endloop
  endfacet
  facet normal -0.722795 -0.691062 0
    outer loop
      vertex 40.5866 4.27577 25
      vertex 41.3617 3.46506 0
      vertex 41.3617 3.46506 25
    endloop
  endfacet
  facet normal -0.657939 -0.753071 0
    outer loop
      vertex 41.3617 3.46506 25
      vertex 41.3617 3.46506 0
      vertex 42.2064 2.72711 0
    endloop
  endfacet
  facet normal -0.657939 -0.753071 0
    outer loop
      vertex 42.2064 2.72711 25
      vertex 41.3617 3.46506 25
      vertex 42.2064 2.72711 0
    endloop
  endfacet
  facet normal -0.587785 -0.809017 0
    outer loop
      vertex 42.2064 2.72711 25
      vertex 42.2064 2.72711 0
      vertex 43.1138 2.06783 0
    endloop
  endfacet
  facet normal -0.587785 -0.809017 0
    outer loop
      vertex 43.1138 2.06783 25
      vertex 42.2064 2.72711 25
      vertex 43.1138 2.06783 0
    endloop
  endfacet
  facet normal -0.512899 -0.858449 0
    outer loop
      vertex 43.1138 2.06783 25
      vertex 43.1138 2.06783 0
      vertex 44.0766 1.49256 0
    endloop
  endfacet
  facet normal -0.512899 -0.858449 0
    outer loop
      vertex 44.0766 1.49256 25
      vertex 43.1138 2.06783 25
      vertex 44.0766 1.49256 0
    endloop
  endfacet
  facet normal -0.433884 -0.900969 0
    outer loop
      vertex 44.0766 1.49256 25
      vertex 44.0766 1.49256 0
      vertex 45.0872 1.0059 0
    endloop
  endfacet
  facet normal -0.433884 -0.900969 0
    outer loop
      vertex 45.0872 1.0059 25
      vertex 44.0766 1.49256 25
      vertex 45.0872 1.0059 0
    endloop
  endfacet
  facet normal -0.351374 -0.936235 0
    outer loop
      vertex 45.0872 1.0059 25
      vertex 45.0872 1.0059 0
      vertex 46.1373 0.611794 0
    endloop
  endfacet
  facet normal -0.351374 -0.936235 0
    outer loop
      vertex 46.1373 0.611794 25
      vertex 45.0872 1.0059 25
      vertex 46.1373 0.611794 0
    endloop
  endfacet
  facet normal -0.266037 -0.963963 0
    outer loop
      vertex 46.1373 0.611794 25
      vertex 46.1373 0.611794 0
      vertex 47.2185 0.313401 0
    endloop
  endfacet
  facet normal -0.266037 -0.963963 0
    outer loop
      vertex 47.2185 0.313401 25
      vertex 46.1373 0.611794 25
      vertex 47.2185 0.313401 0
    endloop
  endfacet
  facet normal -0.178557 -0.98393 0
    outer loop
      vertex 47.2185 0.313401 25
      vertex 47.2185 0.313401 0
      vertex 48.3221 0.113128 0
    endloop
  endfacet
  facet normal -0.178557 -0.98393 0
    outer loop
      vertex 48.3221 0.113128 25
      vertex 47.2185 0.313401 25
      vertex 48.3221 0.113128 0
    endloop
  endfacet
  facet normal -0.089639 -0.995974 0
    outer loop
      vertex 48.3221 0.113128 25
      vertex 48.3221 0.113128 0
      vertex 49.4392 0.012587 0
    endloop
  endfacet
  facet normal -0.089639 -0.995974 0
    outer loop
      vertex 49.4392 0.012587 25
      vertex 48.3221 0.113128 25
      vertex 49.4392 0.012587 0
    endloop
  endfacet
  facet normal 0 -1 0
    outer loop
      vertex 49.4392 0.012587 25
      vertex 49.4392 0.012587 0
      vertex 50.5608 0.012587 0
    endloop
  endfacet
  facet normal 0 -1 0
    outer loop
      vertex 50.5608 0.012587 25
      vertex 49.4392 0.012587 25
      vertex 50.5608 0.012587 0
    endloop
  endfacet
  facet normal 0.089639 -0.995974 0
    outer loop
      vertex 50.5608 0.012587 25
      vertex 50.5608 0.012587 0
      vertex 51.6779 0.113128 0
    endloop
  endfacet
  facet normal 0.089639 -0.995974 0
    outer loop
      vertex 51.6779 0.113128 25
      vertex 50.5608 0.012587 25
      vertex 51.6779 0.113128 0
    endloop
  endfacet
  facet normal 0.178557 -0.98393 0
    outer loop
      vertex 51.6779 0.113128 25
      vertex 51.6779 0.113128 0
      vertex 52.7815 0.313401 0
    endloop
  endfacet
  facet normal 0.178557 -0.98393 0
    outer loop
      vertex 52.7815 0.313401 25
      vertex 51.6779 0.113128 25
      vertex 52.7815 0.313401 0
    endloop
  endfacet
  facet normal 0.266037 -0.963963 0
    outer loop
      vertex 52.7815 0.313401 25
      vertex 52.7815 0.313401 0
      vertex 53.8627 0.611794 0
    endloop
  endfacet
  facet normal 0.266037 -0.963963 0
    outer loop
      vertex 53.8627 0.611794 25
      vertex 52.7815 0.313401 25
      vertex 53.8627 0.611794 0
    endloop
  endfacet
  facet normal 0.351374 -0.936235 0
    outer loop
      vertex 53.8627 0.611794 25
      vertex 53.8627 0.611794 0
      vertex 54.9128 1.0059 0
    endloop
  endfacet
  facet normal 0.351374 -0.936235 0
    outer loop
      vertex 54.9128 1.0059 25
      vertex 53.8627 0.611794 25
      vertex 54.9128 1.0059 0
    endloop
  endfacet
  facet normal 0.433884 -0.900969 0
    outer loop
      vertex 54.9128 1.0059 25
      vertex 54.9128 1.0059 0
      vertex 55.9234 1.49256 0
    endloop
  endfacet
  facet normal 0.433884 -0.900969 0
    outer loop
      vertex 55.9234 1.49256 25
      vertex 54.9128 1.0059 25
      vertex 55.9234 1.49256 0
    endloop
  endfacet
  facet normal 0.512899 -0.858449 0
    outer loop
      vertex 55.9234 1.49256 25
      vertex 55.9234 1.49256 0
      vertex 56.8862 2.06783 0
    endloop
  endfacet
  facet normal 0.512899 -0.858449 0
    outer loop
      vertex 56.8862 2.06783 25
      vertex 55.9234 1.49256 25
      vertex 56.8862 2.06783 0
    endloop
  endfacet
  facet normal 0.587785 -0.809017 0
    outer loop
      vertex 56.8862 2.06783 25
      vertex 56.8862 2.06783 0
      vertex 57.7936 2.72711 0
    endloop
  endfacet
  facet normal 0.587785 -0.809017 0
    outer loop
      vertex 57.7936 2.72711 25
      vertex 56.8862 2.06783 25
      vertex 57.7936 2.72711 0
    endloop
  endfacet
  facet normal 0.657939 -0.753071 0
    outer loop
      vertex 57.7936 2.72711 25
      vertex 57.7936 2.72711 0
      vertex 58.6383 3.46506 0
    endloop
  endfacet
  facet normal 0.657939 -0.753071 0
    outer loop
      vertex 58.6383 3.46506 25
      vertex 57.7936 2.72711 25
      vertex 58.6383 3.46506 0
    endloop
  endfacet
  facet normal 0.722795 -0.691062 0
    outer loop
      vertex 58.6383 3.46506 25
      vertex 58.6383 3.46506 0
      vertex 59.4134 4.27577 0
    endloop
  endfacet
  facet normal 0.722795 -0.691062 0
    outer loop
      vertex 59.4134 4.27577 25
      vertex 58.6383 3.46506 25
      vertex 59.4134 4.27577 0
    endloop
  endfacet
  facet normal 0.781831 -0.62349 0
    outer loop
      vertex 59.4134 4.27577 25
      vertex 59.4134 4.27577 0
      vertex 60.1127 5.15268 0
    endloop
  endfacet
  facet normal 0.781831 -0.62349 0
    outer loop
      vertex 60.1127 5.15268 25
      vertex 59.4134 4.27577 25
      vertex 60.1127 5.15268 0
    endloop
  endfacet
  facet normal 0.834573 -0.550897 0
    outer loop
      vertex 60.1127 5.15268 25
      vertex 60.1127 5.15268 0
      vertex 60.7306 6.08876 0
    endloop
  endfacet
  facet normal 0.834573 -0.550897 0
    outer loop
      vertex 60.7306 6.08876 25
      vertex 60.1127 5.15268 25
      vertex 60.7306 6.08876 0
    endloop
  endfacet
  facet normal 0.880595 -0.473869 0
    outer loop
      vertex 60.7306 6.08876 25
      vertex 60.7306 6.08876 0
      vertex 61.2621 7.07645 0
    endloop
  endfacet
  facet normal 0.880595 -0.473869 0
    outer loop
      vertex 61.2621 7.07645 25
      vertex 60.7306 6.08876 25
      vertex 61.2621 7.07645 0
    endloop
  endfacet
  facet normal 0.919528 -0.393025 0
    outer loop
      vertex 61.2621 7.07645 25
      vertex 61.2621 7.07645 0
      vertex 61.7029 8.10782 0
    endloop
  endfacet
  facet normal 0.919528 -0.393025 0
    outer loop
      vertex 61.7029 8.10782 25
      vertex 61.2621 7.07645 25
      vertex 61.7029 8.10782 0
    endloop
  endfacet
  facet normal 0.951056 -0.309017 0
    outer loop
      vertex 61.7029 8.10782 25
      vertex 61.7029 8.10782 0
      vertex 62.0495 9.17454 0
    endloop
  endfacet
  facet normal 0.951056 -0.309017 0
    outer loop
      vertex 62.0495 9.17454 25
      vertex 61.7029 8.10782 25
      vertex 62.0495 9.17454 0
    endloop
  endfacet
  facet normal 0.974928 -0.222521 0
    outer loop
      vertex 62.0495 9.17454 25
      vertex 62.0495 9.17454 0
      vertex 62.2991 10.268 0
    endloop
  endfacet
  facet normal 0.974928 -0.222521 0
    outer loop
      vertex 62.2991 10.268 25
      vertex 62.0495 9.17454 25
      vertex 62.2991 10.268 0
    endloop
  endfacet
  facet normal 0.99095 -0.134233 0
    outer loop
      vertex 62.2991 10.268 25
      vertex 62.2991 10.268 0
      vertex 62.4497 11.3795 0
    endloop
  endfacet
  facet normal 0.99095 -0.134233 0
    outer loop
      vertex 62.4497 11.3795 25
      vertex 62.2991 10.268 25
      vertex 62.4497 11.3795 0
    endloop
  endfacet
  facet normal 0.998993 -0.0448646 0
    outer loop
      vertex 62.4497 11.3795 25
      vertex 62.4497 11.3795 0
      vertex 62.5 12.5 0
    endloop
  endfacet
  facet normal 0.998993 -0.0448646 0
    outer loop
      vertex 62.5 12.5 25
      vertex 62.4497 11.3795 25
      vertex 62.5 12.5 0
    endloop
  endfacet
  facet normal 0.998993 0.0448646 0
    outer loop
      vertex 62.5 12.5 0
      vertex 62.4497 13.6205 0
      vertex 62.4497 13.6205 25
    endloop
  endfacet
  facet normal 0.998993 0.0448646 0
    outer loop
      vertex 62.5 12.5 25
      vertex 62.5 12.5 0
      vertex 62.4497 13.6205 25
    endloop
  endfacet
  facet normal 0.99095 0.134233 0
    outer loop
      vertex 62.4497 13.6205 0
      vertex 62.2991 14.732 0
      vertex 62.2991 14.732 25
    endloop
  endfacet
  facet normal 0.99095 0.134233 0
    outer loop
      vertex 62.4497 13.6205 25
      vertex 62.4497 13.6205 0
      vertex 62.2991 14.732 25
    endloop
  endfacet
  facet normal 0.974928 0.222521 0
    outer loop
      vertex 62.2991 14.732 0
      vertex 62.0495 15.8255 0
      vertex 62.0495 15.8255 25
    endloop
  endfacet
  facet normal 0.974928 0.222521 0
    outer loop
      vertex 62.2991 14.732 25
      vertex 62.2991 14.732 0
      vertex 62.0495 15.8255 25
    endloop
  endfacet
  facet normal 0.951056 0.309017 0
    outer loop
      vertex 62.0495 15.8255 0
      vertex 61.7029 16.8922 0
      vertex 61.7029 16.8922 25
    endloop
  endfacet
  facet normal 0.951056 0.309017 0
    outer loop
      vertex 62.0495 15.8255 25
      vertex 62.0495 15.8255 0
      vertex 61.7029 16.8922 25
    endloop
  endfacet
  facet normal 0.919528 0.393025 0
    outer loop
      vertex 61.7029 16.8922 0
      vertex 61.2621 17.9235 0
      vertex 61.2621 17.9235 25
    endloop
  endfacet
  facet normal 0.919528 0.393025 0
    outer loop
      vertex 61.7029 16.8922 25
      vertex 61.7029 16.8922 0
      vertex 61.2621 17.9235 25
    endloop
  endfacet
  facet normal 0.880595 0.473869 0
    outer loop
      vertex 61.2621 17.9235 0
      vertex 60.7306 18.9112 0
      vertex 60.7306 18.9112 25
    endloop
  endfacet
  facet normal 0.880595 0.473869 0
    outer loop
      vertex 61.2621 17.9235 25
      vertex 61.2621 17.9235 0
      vertex 60.7306 18.9112 25
    endloop
  endfacet
  facet normal 0.834573 0.550897 0
    outer loop
      vertex 60.7306 18.9112 0
      vertex 60.1127 19.8473 0
      vertex 60.1127 19.8473 25
    endloop
  endfacet
  facet normal 0.834573 0.550897 0
    outer loop
      vertex 60.7306 18.9112 25
      vertex 60.7306 18.9112 0
      vertex 60.1127 19.8473 25
    endloop
  endfacet
  facet normal 0.781831 0.62349 0
    outer loop
      vertex 60.1127 19.8473 0
      vertex 59.4134 20.7242 0
      vertex 59.4134 20.7242 25
    endloop
  endfacet
  facet normal 0.781831 0.62349 0
    outer loop
      vertex 60.1127 19.8473 25
      vertex 60.1127 19.8473 0
      vertex 59.4134 20.7242 25
    endloop
  endfacet
  facet normal 0.722795 0.691062 0
    outer loop
      vertex 59.4134 20.7242 0
      vertex 58.6383 21.5349 0
      vertex 58.6383 21.5349 25
    endloop
  endfacet
  facet normal 0.722795 0.691062 0
    outer loop
      vertex 59.4134 20.7242 25
      vertex 59.4134 20.7242 0
      vertex 58.6383 21.5349 25
    endloop
  endfacet
  facet normal 0.657939 0.753071 0
    outer loop
      vertex 57.7936 22.2729 0
      vertex 57.7936 22.2729 25
      vertex 58.6383 21.5349 0
    endloop
  endfacet
  facet normal 0.657939 0.753071 0
    outer loop
      vertex 58.6383 21.5349 0
      vertex 57.7936 22.2729 25
      vertex 58.6383 21.5349 25
    endloop
  endfacet
  facet normal 0.587785 0.809017 0
    outer loop
      vertex 56.8862 22.9322 0
      vertex 56.8862 22.9322 25
      vertex 57.7936 22.2729 0
    endloop
  endfacet
  facet normal 0.587785 0.809017 0
    outer loop
      vertex 57.7936 22.2729 0
      vertex 56.8862 22.9322 25
      vertex 57.7936 22.2729 25
    endloop
  endfacet
  facet normal 0.512899 0.858449 0
    outer loop
      vertex 55.9234 23.5074 0
      vertex 55.9234 23.5074 25
      vertex 56.8862 22.9322 0
    endloop
  endfacet
  facet normal 0.512899 0.858449 0
    outer loop
      vertex 56.8862 22.9322 0
      vertex 55.9234 23.5074 25
      vertex 56.8862 22.9322 25
    endloop
  endfacet
  facet normal 0.433884 0.900969 0
    outer loop
      vertex 54.9128 23.9941 0
      vertex 54.9128 23.9941 25
      vertex 55.9234 23.5074 0
    endloop
  endfacet
  facet normal 0.433884 0.900969 0
    outer loop
      vertex 55.9234 23.5074 0
      vertex 54.9128 23.9941 25
      vertex 55.9234 23.5074 25
    endloop
  endfacet
  facet normal 0.351374 0.936235 0
    outer loop
      vertex 53.8627 24.3882 0
      vertex 53.8627 24.3882 25
      vertex 54.9128 23.9941 0
    endloop
  endfacet
  facet normal 0.351374 0.936235 0
    outer loop
      vertex 54.9128 23.9941 0
      vertex 53.8627 24.3882 25
      vertex 54.9128 23.9941 25
    endloop
  endfacet
  facet normal 0.266037 0.963963 0
    outer loop
      vertex 52.7815 24.6866 0
      vertex 52.7815 24.6866 25
      vertex 53.8627 24.3882 0
    endloop
  endfacet
  facet normal 0.266037 0.963963 0
    outer loop
      vertex 53.8627 24.3882 0
      vertex 52.7815 24.6866 25
      vertex 53.8627 24.3882 25
    endloop
  endfacet
  facet normal 0.178557 0.98393 0
    outer loop
      vertex 51.6779 24.8869 0
      vertex 51.6779 24.8869 25
      vertex 52.7815 24.6866 0
    endloop
  endfacet
  facet normal 0.178557 0.98393 0
    outer loop
      vertex 52.7815 24.6866 0
      vertex 51.6779 24.8869 25
      vertex 52.7815 24.6866 25
    endloop
  endfacet
  facet normal 0.089639 0.995974 0
    outer loop
      vertex 50.5608 24.9874 0
      vertex 50.5608 24.9874 25
      vertex 51.6779 24.8869 0
    endloop
  endfacet
  facet normal 0.089639 0.995974 0
    outer loop
      vertex 51.6779 24.8869 0
      vertex 50.5608 24.9874 25
      vertex 51.6779 24.8869 25
    endloop
  endfacet
  facet normal 0 1 0
    outer loop
      vertex 49.4392 24.9874 0
      vertex 49.4392 24.9874 25
      vertex 50.5608 24.9874 0
    endloop
  endfacet
  facet normal 0 1 0
    outer loop
      vertex 50.5608 24.9874 0
      vertex 49.4392 24.9874 25
      vertex 50.5608 24.9874 25
    endloop
  endfacet
  facet normal -0.089639 0.995974 0
    outer loop
      vertex 48.3221 24.8869 0
      vertex 48.3221 24.8869 25
      vertex 49.4392 24.9874 0
    endloop
  endfacet
  facet normal -0.089639 0.995974 0
    outer loop
      vertex 49.4392 24.9874 0
      vertex 48.3221 24.8869 25
      vertex 49.4392 24.9874 25
    endloop
  endfacet
  facet normal -0.178557 0.98393 0
    outer loop
      vertex 47.2185 24.6866 0
      vertex 47.2185 24.6866 25
      vertex 48.3221 24.8869 0
    endloop
  endfacet
  facet normal -0.178557 0.98393 0
    outer loop
      vertex 48.3221 24.8869 0
      vertex 47.2185 24.6866 25
      vertex 48.3221 24.8869 25
    endloop
  endfacet
  facet normal -0.266037 0.963963 0
    outer loop
      vertex 46.1373 24.3882 0
      vertex 46.1373 24.3882 25
      vertex 47.2185 24.6866 0
    endloop
  endfacet
  facet normal -0.266037 0.963963 0
    outer loop
      vertex 47.2185 24.6866 0
      vertex 46.1373 24.3882 25
      vertex 47.2185 24.6866 25
    endloop
  endfacet
  facet normal -0.351374 0.936235 0
    outer loop
      vertex 45.0872 23.9941 0
      vertex 45.0872 23.9941 25
      vertex 46.1373 24.3882 0
    endloop
  endfacet
  facet normal -0.351374 0.936235 0
    outer loop
      vertex 46.1373 24.3882 0
      vertex 45.0872 23.9941 25
      vertex 46.1373 24.3882 25
    endloop
  endfacet
  facet normal -0.433884 0.900969 0
    outer loop
      vertex 44.0766 23.5074 0
      vertex 44.0766 23.5074 25
      vertex 45.0872 23.9941 0
    endloop
  endfacet
  facet normal -0.433884 0.900969 0
    outer loop
      vertex 45.0872 23.9941 0
      vertex 44.0766 23.5074 25
      vertex 45.0872 23.9941 25
    endloop
  endfacet
  facet normal -0.512899 0.858449 0
    outer loop
      vertex 43.1138 22.9322 0
      vertex 43.1138 22.9322 25
      vertex 44.0766 23.5074 0
    endloop
  endfacet
  facet normal -0.512899 0.858449 0
    outer loop
      vertex 44.0766 23.5074 0
      vertex 43.1138 22.9322 25
      vertex 44.0766 23.5074 25
    endloop
  endfacet
  facet normal -0.587785 0.809017 0
    outer loop
      vertex 42.2064 22.2729 0
      vertex 42.2064 22.2729 25
      vertex 43.1138 22.9322 0
    endloop
  endfacet
  facet normal -0.587785 0.809017 0
    outer loop
      vertex 43.1138 22.9322 0
      vertex 42.2064 22.2729 25
      vertex 43.1138 22.9322 25
    endloop
  endfacet
  facet normal -0.657939 0.753071 0
    outer loop
      vertex 41.3617 21.5349 0
      vertex 41.3617 21.5349 25
      vertex 42.2064 22.2729 0
    endloop
  endfacet
  facet normal -0.657939 0.753071 0
    outer loop
      vertex 42.2064 22.2729 0
      vertex 41.3617 21.5349 25
      vertex 42.2064 22.2729 25
    endloop
  endfacet
  facet normal -0.722795 0.691062 0
    outer loop
      vertex 40.5866 20.7242 0
      vertex 40.5866 20.7242 25
      vertex 41.3617 21.5349 0
    endloop
  endfacet
  facet normal -0.722795 0.691062 0
    outer loop
      vertex 41.3617 21.5349 0
      vertex 40.5866 20.7242 25
      vertex 41.3617 21.5349 25
    endloop
  endfacet
  facet normal -0.781831 0.62349 0
    outer loop
      vertex 39.8873 19.8473 0
      vertex 39.8873 19.8473 25
      vertex 40.5866 20.7242 0
    endloop
  endfacet
  facet normal -0.781831 0.62349 0
    outer loop
      vertex 40.5866 20.7242 0
      vertex 39.8873 19.8473 25
      vertex 40.5866 20.7242 25
    endloop
  endfacet
  facet normal -0.834573 0.550897 0
    outer loop
      vertex 39.2694 18.9112 0
      vertex 39.2694 18.9112 25
      vertex 39.8873 19.8473 0
    endloop
  endfacet
  facet normal -0.834573 0.550897 0
    outer loop
      vertex 39.8873 19.8473 0
      vertex 39.2694 18.9112 25
      vertex 39.8873 19.8473 25
    endloop
  endfacet
  facet normal -0.880595 0.473869 0
    outer loop
      vertex 38.7379 17.9235 0
      vertex 38.7379 17.9235 25
      vertex 39.2694 18.9112 0
    endloop
  endfacet
  facet normal -0.880595 0.473869 0
    outer loop
      vertex 39.2694 18.9112 0
      vertex 38.7379 17.9235 25
      vertex 39.2694 18.9112 25
    endloop
  endfacet
  facet normal -0.919528 0.393025 0
    outer loop
      vertex 38.2971 16.8922 0
      vertex 38.2971 16.8922 25
      vertex 38.7379 17.9235 0
    endloop
  endfacet
  facet normal -0.919528 0.393025 0
    outer loop
      vertex 38.7379 17.9235 0
      vertex 38.2971 16.8922 25
      vertex 38.7379 17.9235 25
    endloop
  endfacet
  facet normal -0.951056 0.309017 0
    outer loop
      vertex 37.9505 15.8255 0
      vertex 37.9505 15.8255 25
      vertex 38.2971 16.8922 0
    endloop
  endfacet
  facet normal -0.951056 0.309017 0
    outer loop
      vertex 38.2971 16.8922 0
      vertex 37.9505 15.8255 25
      vertex 38.2971 16.8922 25
    endloop
  endfacet
  facet normal -0.974928 0.222521 0
    outer loop
      vertex 37.7009 14.732 0
      vertex 37.7009 14.732 25
      vertex 37.9505 15.8255 0
    endloop
  endfacet
  facet normal -0.974928 0.222521 0
    outer loop
      vertex 37.9505 15.8255 0
      vertex 37.7009 14.732 25
      vertex 37.9505 15.8255 25
    endloop
  endfacet
  facet normal -0.99095 0.134233 0
    outer loop
      vertex 37.5503 13.6205 0
      vertex 37.5503 13.6205 25
      vertex 37.7009 14.732 0
    endloop
  endfacet
  facet normal -0.99095 0.134233 0
    outer loop
      vertex 37.7009 14.732 0
      vertex 37.5503 13.6205 25
      vertex 37.7009 14.732 25
    endloop
  endfacet
  facet normal 0 0 1
    outer loop
      vertex 37.5503 13.6205 25
      vertex 37.5 12.5 25
      vertex 37.5503 11.3795 25
    endloop
  endfacet
  facet normal 0 0 1
    outer loop
      vertex 37.9505 9.17454 25
      vertex 37.5503 13.6205 25
      vertex 37.7009 10.268 25
    endloop
  endfacet
  facet normal 0 0 1
    outer loop
      vertex 37.7009 10.268 25
      vertex 37.5503 13.6205 25
      vertex 37.5503 11.3795 25
    endloop
  endfacet
  facet normal 0 0 1
    outer loop
      vertex 38.2971 8.10782 25
      vertex 37.5503 13.6205 25
      vertex 37.9505 9.17454 25
    endloop
  endfacet
  facet normal 0 0 1
    outer loop
      vertex 38.7379 7.07645 25
      vertex 37.5503 13.6205 25
      vertex 38.2971 8.10782 25
    endloop
  endfacet
  facet normal 0 0 1
    outer loop
      vertex 39.2694 6.08876 25
      vertex 37.5503 13.6205 25
      vertex 38.7379 7.07645 25
    endloop
  endfacet
  facet normal 0 0 1
    outer loop
      vertex 39.8873 5.15268 25
      vertex 37.5503 13.6205 25
      vertex 39.2694 6.08876 25
    endloop
  endfacet
  facet normal 0 0 1
    outer loop
      vertex 40.5866 4.27577 25
      vertex 37.5503 13.6205 25
      vertex 39.8873 5.15268 25
    endloop
  endfacet
  facet normal 0 0 1
    outer loop
      vertex 41.3617 3.46506 25
      vertex 37.5503 13.6205 25
      vertex 40.5866 4.27577 25
    endloop
  endfacet
  facet normal 0 0 1
    outer loop
      vertex 42.2064 2.72711 25
      vertex 37.5503 13.6205 25
      vertex 41.3617 3.46506 25
    endloop
  endfacet
  facet normal 0 0 1
    outer loop
      vertex 43.1138 2.06783 25
      vertex 37.5503 13.6205 25
      vertex 42.2064 2.72711 25
    endloop
  endfacet
  facet normal 0 0 1
    outer loop
      vertex 44.0766 1.49256 25
      vertex 37.5503 13.6205 25
      vertex 43.1138 2.06783 25
    endloop
  endfacet
  facet normal 0 0 1
    outer loop
      vertex 45.0872 1.0059 25
      vertex 37.5503 13.6205 25
      vertex 44.0766 1.49256 25
    endloop
  endfacet
  facet normal 0 0 1
    outer loop
      vertex 46.1373 0.611794 25
      vertex 37.5503 13.6205 25
      vertex 45.0872 1.0059 25
    endloop
  endfacet
  facet normal 0 0 1
    outer loop
      vertex 47.2185 0.313401 25
      vertex 37.5503 13.6205 25
      vertex 46.1373 0.611794 25
    endloop
  endfacet
  facet normal 0 0 1
    outer loop
      vertex 48.3221 0.113128 25
      vertex 37.5503 13.6205 25
      vertex 47.2185 0.313401 25
    endloop
  endfacet
  facet normal 0 0 1
    outer loop
      vertex 49.4392 0.012587 25
      vertex 37.5503 13.6205 25
      vertex 48.3221 0.113128 25
    endloop
  endfacet
  facet normal 0 0 1
    outer loop
      vertex 50.5608 0.012587 25
      vertex 37.5503 13.6205 25
      vertex 49.4392 0.012587 25
    endloop
  endfacet
  facet normal 0 0 1
    outer loop
      vertex 51.6779 0.113128 25
      vertex 37.5503 13.6205 25
      vertex 50.5608 0.012587 25
    endloop
  endfacet
  facet normal 0 0 1
    outer loop
      vertex 52.7815 0.313401 25
      vertex 37.5503 13.6205 25
      vertex 51.6779 0.113128 25
    endloop
  endfacet
  facet normal 0 0 1
    outer loop
      vertex 53.8627 0.611794 25
      vertex 37.5503 13.6205 25
      vertex 52.7815 0.313401 25
    endloop
  endfacet
  facet normal 0 0 1
    outer loop
      vertex 54.9128 1.0059 25
      vertex 37.5503 13.6205 25
      vertex 53.8627 0.611794 25
    endloop
  endfacet
  facet normal 0 0 1
    outer loop
      vertex 55.9234 1.49256 25
      vertex 37.5503 13.6205 25
      vertex 54.9128 1.0059 25
    endloop
  endfacet
  facet normal 0 0 1
    outer loop
      vertex 56.8862 2.06783 25
      vertex 37.5503 13.6205 25
      vertex 55.9234 1.49256 25
    endloop
  endfacet
  facet normal 0 0 1
    outer loop
      vertex 57.7936 2.72711 25
      vertex 37.5503 13.6205 25
      vertex 56.8862 2.06783 25
    endloop
  endfacet
  facet normal 0 0 1
    outer loop
      vertex 58.6383 3.46506 25
      vertex 37.5503 13.6205 25
      vertex 57.7936 2.72711 25
    endloop
  endfacet
  facet normal 0 0 1
    outer loop
      vertex 59.4134 4.27577 25
      vertex 37.5503 13.6205 25
      vertex 58.6383 3.46506 25
    endloop
  endfacet
  facet normal 0 0 1
    outer loop
      vertex 60.1127 5.15268 25
      vertex 37.5503 13.6205 25
      vertex 59.4134 4.27577 25
    endloop
  endfacet
  facet normal 0 0 1
    outer loop
      vertex 60.7306 6.08876 25
      vertex 37.5503 13.6205 25
      vertex 60.1127 5.15268 25
    endloop
  endfacet
  facet normal 0 0 1
    outer loop
      vertex 61.2621 7.07645 25
      vertex 37.5503 13.6205 25
      vertex 60.7306 6.08876 25
    endloop
  endfacet
  facet normal 0 0 1
    outer loop
      vertex 61.7029 8.10782 25
      vertex 37.5503 13.6205 25
      vertex 61.2621 7.07645 25
    endloop
  endfacet
  facet normal 0 0 1
    outer loop
      vertex 62.0495 9.17454 25
      vertex 37.5503 13.6205 25
      vertex 61.7029 8.10782 25
    endloop
  endfacet
  facet normal 0 0 1
    outer loop
      vertex 62.2991 10.268 25
      vertex 37.5503 13.6205 25
      vertex 62.0495 9.17454 25
    endloop
  endfacet
  facet normal 0 0 1
    outer loop
      vertex 62.4497 11.3795 25
      vertex 37.5503 13.6205 25
      vertex 62.2991 10.268 25
    endloop
  endfacet
  facet normal 0 0 1
    outer loop
      vertex 62.5 12.5 25
      vertex 37.5503 13.6205 25
      vertex 62.4497 11.3795 25
    endloop
  endfacet
  facet normal 0 0 1
    outer loop
      vertex 62.4497 13.6205 25
      vertex 37.5503 13.6205 25
      vertex 62.5 12.5 25
    endloop
  endfacet
  facet normal 0 0 1
    outer loop
      vertex 62.2991 14.732 25
      vertex 37.5503 13.6205 25
      vertex 62.4497 13.6205 25
    endloop
  endfacet
  facet normal 0 0 1
    outer loop
      vertex 62.0495 15.8255 25
      vertex 37.5503 13.6205 25
      vertex 62.2991 14.732 25
    endloop
  endfacet
  facet normal 0 0 1
    outer loop
      vertex 61.7029 16.8922 25
      vertex 37.5503 13.6205 25
      vertex 62.0495 15.8255 25
    endloop
  endfacet
  facet normal 0 0 1
    outer loop
      vertex 61.2621 17.9235 25
      vertex 37.5503 13.6205 25
      vertex 61.7029 16.8922 25
    endloop
  endfacet
  facet normal 0 0 1
    outer loop
      vertex 60.7306 18.9112 25
      vertex 37.5503 13.6205 25
      vertex 61.2621 17.9235 25
    endloop
  endfacet
  facet normal 0 0 1
    outer loop
      vertex 60.1127 19.8473 25
      vertex 37.5503 13.6205 25
      vertex 60.7306 18.9112 25
    endloop
  endfacet
  facet normal 0 0 1
    outer loop
      vertex 59.4134 20.7242 25
      vertex 37.5503 13.6205 25
      vertex 60.1127 19.8473 25
    endloop
  endfacet
  facet normal 0 0 1
    outer loop
      vertex 58.6383 21.5349 25
      vertex 37.5503 13.6205 25
      vertex 59.4134 20.7242 25
    endloop
  endfacet
  facet normal 0 0 1
    outer loop
      vertex 57.7936 22.2729 25
      vertex 37.5503 13.6205 25
      vertex 58.6383 21.5349 25
    endloop
  endfacet
  facet normal 0 0 1
    outer loop
      vertex 56.8862 22.9322 25
      vertex 37.5503 13.6205 25
      vertex 57.7936 22.2729 25
    endloop
  endfacet
  facet normal 0 0 1
    outer loop
      vertex 55.9234 23.5074 25
      vertex 37.5503 13.6205 25
      vertex 56.8862 22.9322 25
    endloop
  endfacet
  facet normal 0 0 1
    outer loop
      vertex 54.9128 23.9941 25
      vertex 37.5503 13.6205 25
      vertex 55.9234 23.5074 25
    endloop
  endfacet
  facet normal 0 0 1
    outer loop
      vertex 53.8627 24.3882 25
      vertex 37.5503 13.6205 25
      vertex 54.9128 23.9941 25
    endloop
  endfacet
  facet normal 0 0 1
    outer loop
      vertex 52.7815 24.6866 25
      vertex 37.5503 13.6205 25
      vertex 53.8627 24.3882 25
    endloop
  endfacet
  facet normal 0 0 1
    outer loop
      vertex 51.6779 24.8869 25
      vertex 37.5503 13.6205 25
      vertex 52.7815 24.6866 25
    endloop
  endfacet
  facet normal 0 0 1
    outer loop
      vertex 50.5608 24.9874 25
      vertex 37.5503 13.6205 25
      vertex 51.6779 24.8869 25
    endloop
  endfacet
  facet normal 0 0 1
    outer loop
      vertex 49.4392 24.9874 25
      vertex 37.5503 13.6205 25
      vertex 50.5608 24.9874 25
    endloop
  endfacet
  facet normal 0 0 1
    outer loop
      vertex 48.3221 24.8869 25
      vertex 37.5503 13.6205 25
      vertex 49.4392 24.9874 25
    endloop
  endfacet
  facet normal 0 0 1
    outer loop
      vertex 47.2185 24.6866 25
      vertex 37.5503 13.6205 25
      vertex 48.3221 24.8869 25
    endloop
  endfacet
  facet normal 0 0 1
    outer loop
      vertex 46.1373 24.3882 25
      vertex 37.5503 13.6205 25
      vertex 47.2185 24.6866 25
    endloop
  endfacet
  facet normal 0 0 1
    outer loop
      vertex 45.0872 23.9941 25
      vertex 37.5503 13.6205 25
      vertex 46.1373 24.3882 25
    endloop
  endfacet
  facet normal 0 0 1
    outer loop
      vertex 44.0766 23.5074 25
      vertex 37.5503 13.6205 25
      vertex 45.0872 23.9941 25
    endloop
  endfacet
  facet normal 0 0 1
    outer loop
      vertex 43.1138 22.9322 25
      vertex 37.5503 13.6205 25
      vertex 44.0766 23.5074 25
    endloop
  endfacet
  facet normal 0 0 1
    outer loop
      vertex 42.2064 22.2729 25
      vertex 37.5503 13.6205 25
      vertex 43.1138 22.9322 25
    endloop
  endfacet
  facet normal 0 0 1
    outer loop
      vertex 41.3617 21.5349 25
      vertex 37.5503 13.6205 25
      vertex 42.2064 22.2729 25
    endloop
  endfacet
  facet normal 0 0 1
    outer loop
      vertex 40.5866 20.7242 25
      vertex 37.5503 13.6205 25
      vertex 41.3617 21.5349 25
    endloop
  endfacet
  facet normal 0 0 1
    outer loop
      vertex 39.8873 19.8473 25
      vertex 37.5503 13.6205 25
      vertex 40.5866 20.7242 25
    endloop
  endfacet
  facet normal 0 0 1
    outer loop
      vertex 39.2694 18.9112 25
      vertex 37.5503 13.6205 25
      vertex 39.8873 19.8473 25
    endloop
  endfacet
  facet normal 0 0 1
    outer loop
      vertex 38.7379 17.9235 25
      vertex 37.5503 13.6205 25
      vertex 39.2694 18.9112 25
    endloop
  endfacet
  facet normal 0 0 1
    outer loop
      vertex 38.2971 16.8922 25
      vertex 37.5503 13.6205 25
      vertex 38.7379 17.9235 25
    endloop
  endfacet
  facet normal 0 0 1
    outer loop
      vertex 37.9505 15.8255 25
      vertex 37.5503 13.6205 25
      vertex 38.2971 16.8922 25
    endloop
  endfacet
  facet normal 0 0 1
    outer loop
      vertex 37.7009 14.732 25
      vertex 37.5503 13.6205 25
      vertex 37.9505 15.8255 25
    endloop
  endfacet
endsolid OpenSCAD_Model
