solid OpenSCAD_Model
  facet normal 0.156434 0.987688 -0
    outer loop
      vertex 9.46226 1.03921 1.11022e-15
      vertex 7.5 1.35 5
      vertex 9.46226 1.03921 5
    endloop
  endfacet
  facet normal 0.156434 0.987688 0
    outer loop
      vertex 7.5 1.35 5
      vertex 9.46226 1.03921 1.11022e-15
      vertex 7.5 1.35 1.11022e-15
    endloop
  endfacet
  facet normal -0.156434 -0.987688 0
    outer loop
      vertex 5.53774 -11.0392 1.11022e-15
      vertex 7.5 -11.35 5
      vertex 5.53774 -11.0392 5
    endloop
  endfacet
  facet normal -0.156434 -0.987688 -0
    outer loop
      vertex 7.5 -11.35 5
      vertex 5.53774 -11.0392 1.11022e-15
      vertex 7.5 -11.35 1.11022e-15
    endloop
  endfacet
  facet normal 0 0 -1
    outer loop
      vertex 10.125 2.46519e-31 1.11022e-15
      vertex 9.46226 1.03921 1.11022e-15
      vertex 10.125 0.701524 1.11022e-15
    endloop
  endfacet
  facet normal 0 0 -1
    outer loop
      vertex 10.125 2.46519e-31 1.11022e-15
      vertex 7.5 1.35 1.11022e-15
      vertex 9.46226 1.03921 1.11022e-15
    endloop
  endfacet
  facet normal 0 0 -1
    outer loop
      vertex 4.875 2.46519e-31 1.11022e-15
      vertex 7.5 1.35 1.11022e-15
      vertex 10.125 2.46519e-31 1.11022e-15
    endloop
  endfacet
  facet normal 0 0 -1
    outer loop
      vertex 7.5 1.35 1.11022e-15
      vertex 4.875 2.46519e-31 1.11022e-15
      vertex 5.53774 1.03921 1.11022e-15
    endloop
  endfacet
  facet normal 0 0 -1
    outer loop
      vertex 5.53774 1.03921 1.11022e-15
      vertex 4.875 2.46519e-31 1.11022e-15
      vertex 4.875 0.701524 1.11022e-15
    endloop
  endfacet
  facet normal 0 0 -1
    outer loop
      vertex 1.775 -7.40673 1.11022e-15
      vertex 4.875 -7.2 1.11022e-15
      vertex 5.27216 -10.9039 1.11022e-15
    endloop
  endfacet
  facet normal -0 0 -1
    outer loop
      vertex 4.875 -7.2 1.11022e-15
      vertex 1.775 -7.40673 1.11022e-15
      vertex 1.775 -7.2 1.11022e-15
    endloop
  endfacet
  facet normal 0 0 -1
    outer loop
      vertex 13.225 -7.40673 1.11022e-15
      vertex 10.125 -7.2 1.11022e-15
      vertex 13.225 -7.2 1.11022e-15
    endloop
  endfacet
  facet normal 0 0 -1
    outer loop
      vertex 9.72784 -10.9039 1.11022e-15
      vertex 10.125 -7.2 1.11022e-15
      vertex 13.225 -7.40673 1.11022e-15
    endloop
  endfacet
  facet normal 0 0 -1
    outer loop
      vertex 9.46226 -11.0392 1.11022e-15
      vertex 10.125 -7.2 1.11022e-15
      vertex 9.72784 -10.9039 1.11022e-15
    endloop
  endfacet
  facet normal 0 0 -1
    outer loop
      vertex 7.5 -11.35 1.11022e-15
      vertex 10.125 -7.2 1.11022e-15
      vertex 9.46226 -11.0392 1.11022e-15
    endloop
  endfacet
  facet normal -0 0 -1
    outer loop
      vertex 10.125 -7.2 1.11022e-15
      vertex 7.5 -11.35 1.11022e-15
      vertex 4.875 -7.2 1.11022e-15
    endloop
  endfacet
  facet normal 0 0 -1
    outer loop
      vertex 4.875 -7.2 1.11022e-15
      vertex 7.5 -11.35 1.11022e-15
      vertex 5.53774 -11.0392 1.11022e-15
    endloop
  endfacet
  facet normal 0 0 -1
    outer loop
      vertex 4.875 -7.2 1.11022e-15
      vertex 5.53774 -11.0392 1.11022e-15
      vertex 5.27216 -10.9039 1.11022e-15
    endloop
  endfacet
  facet normal 0 0 -1
    outer loop
      vertex 10.125 -7.2 1.11022e-15
      vertex 4.875 -7.2 1.11022e-15
      vertex 10.125 -5 1.11022e-15
    endloop
  endfacet
  facet normal -0 0 -1
    outer loop
      vertex 10.125 -5 1.11022e-15
      vertex 4.875 -7.2 1.11022e-15
      vertex 4.875 -5 1.11022e-15
    endloop
  endfacet
  facet normal 0.45399 0.891007 -0
    outer loop
      vertex 10.125 0.701524 1.11022e-15
      vertex 9.46226 1.03921 5
      vertex 10.125 0.701524 5
    endloop
  endfacet
  facet normal 0.45399 0.891007 0
    outer loop
      vertex 9.46226 1.03921 5
      vertex 10.125 0.701524 1.11022e-15
      vertex 9.46226 1.03921 1.11022e-15
    endloop
  endfacet
  facet normal -0.45399 0.891007 0
    outer loop
      vertex 5.53774 1.03921 1.11022e-15
      vertex 4.875 0.701524 5
      vertex 5.53774 1.03921 5
    endloop
  endfacet
  facet normal -0.45399 0.891007 0
    outer loop
      vertex 4.875 0.701524 5
      vertex 5.53774 1.03921 1.11022e-15
      vertex 4.875 0.701524 1.11022e-15
    endloop
  endfacet
  facet normal -0.156434 0.987688 0
    outer loop
      vertex 7.5 1.35 1.11022e-15
      vertex 5.53774 1.03921 5
      vertex 7.5 1.35 5
    endloop
  endfacet
  facet normal -0.156434 0.987688 0
    outer loop
      vertex 5.53774 1.03921 5
      vertex 7.5 1.35 1.11022e-15
      vertex 5.53774 1.03921 1.11022e-15
    endloop
  endfacet
  facet normal 0 0 1
    outer loop
      vertex 7.5 1.35 5
      vertex 10.125 -7.2 5
      vertex 10.125 0.701524 5
    endloop
  endfacet
  facet normal 0 0 1
    outer loop
      vertex 7.5 1.35 5
      vertex 10.125 0.701524 5
      vertex 9.46226 1.03921 5
    endloop
  endfacet
  facet normal 0 -0 1
    outer loop
      vertex 7.5 -11.35 5
      vertex 10.125 -7.2 5
      vertex 4.875 -7.2 5
    endloop
  endfacet
  facet normal 0 0 1
    outer loop
      vertex 10.125 -7.2 5
      vertex 7.5 1.35 5
      vertex 4.875 -7.2 5
    endloop
  endfacet
  facet normal 0 0 1
    outer loop
      vertex 10.125 -7.2 5
      vertex 9.46226 -11.0392 5
      vertex 9.72784 -10.9039 5
    endloop
  endfacet
  facet normal 0 0 1
    outer loop
      vertex 4.875 0.701524 5
      vertex 7.5 1.35 5
      vertex 5.53774 1.03921 5
    endloop
  endfacet
  facet normal 0 0 1
    outer loop
      vertex 10.125 -7.2 5
      vertex 7.5 -11.35 5
      vertex 9.46226 -11.0392 5
    endloop
  endfacet
  facet normal 0 0 1
    outer loop
      vertex 7.5 -11.35 5
      vertex 4.875 -7.2 5
      vertex 5.53774 -11.0392 5
    endloop
  endfacet
  facet normal 0 0 1
    outer loop
      vertex 7.5 1.35 5
      vertex 4.875 0.701524 5
      vertex 4.875 -7.2 5
    endloop
  endfacet
  facet normal 0 0 1
    outer loop
      vertex 5.53774 -11.0392 5
      vertex 4.875 -7.2 5
      vertex 5.27216 -10.9039 5
    endloop
  endfacet
  facet normal 0 0 1
    outer loop
      vertex 1.775 -7.40673 5
      vertex 4.875 -7.2 5
      vertex 1.775 -7.2 5
    endloop
  endfacet
  facet normal 0 0 1
    outer loop
      vertex 4.875 -7.2 5
      vertex 1.775 -7.40673 5
      vertex 5.27216 -10.9039 5
    endloop
  endfacet
  facet normal -0 0 1
    outer loop
      vertex 10.125 -7.2 5
      vertex 13.225 -7.40673 5
      vertex 13.225 -7.2 5
    endloop
  endfacet
  facet normal 0 0 1
    outer loop
      vertex 13.225 -7.40673 5
      vertex 10.125 -7.2 5
      vertex 9.72784 -10.9039 5
    endloop
  endfacet
  facet normal 0.156434 -0.987688 0
    outer loop
      vertex 7.5 -11.35 1.11022e-15
      vertex 9.46226 -11.0392 5
      vertex 7.5 -11.35 5
    endloop
  endfacet
  facet normal 0.156434 -0.987688 0
    outer loop
      vertex 9.46226 -11.0392 5
      vertex 7.5 -11.35 1.11022e-15
      vertex 9.46226 -11.0392 1.11022e-15
    endloop
  endfacet
  facet normal -0.453989 -0.891007 0
    outer loop
      vertex 5.27216 -10.9039 1.11022e-15
      vertex 5.53774 -11.0392 5
      vertex 5.27216 -10.9039 5
    endloop
  endfacet
  facet normal -0.453989 -0.891007 -0
    outer loop
      vertex 5.53774 -11.0392 5
      vertex 5.27216 -10.9039 1.11022e-15
      vertex 5.53774 -11.0392 1.11022e-15
    endloop
  endfacet
  facet normal 0.45399 -0.891007 0
    outer loop
      vertex 9.46226 -11.0392 1.11022e-15
      vertex 9.72784 -10.9039 5
      vertex 9.46226 -11.0392 5
    endloop
  endfacet
  facet normal 0.45399 -0.891007 0
    outer loop
      vertex 9.72784 -10.9039 5
      vertex 9.46226 -11.0392 1.11022e-15
      vertex 9.72784 -10.9039 1.11022e-15
    endloop
  endfacet
  facet normal 1 -0 0
    outer loop
      vertex 13.225 -7.40673 5
      vertex 13.225 -7.2 1.11022e-15
      vertex 13.225 -7.2 5
    endloop
  endfacet
  facet normal 1 0 0
    outer loop
      vertex 13.225 -7.2 1.11022e-15
      vertex 13.225 -7.40673 5
      vertex 13.225 -7.40673 1.11022e-15
    endloop
  endfacet
  facet normal -1 0 0
    outer loop
      vertex 1.775 -7.40673 1.11022e-15
      vertex 1.775 -7.2 5
      vertex 1.775 -7.2 1.11022e-15
    endloop
  endfacet
  facet normal -1 -0 0
    outer loop
      vertex 1.775 -7.2 5
      vertex 1.775 -7.40673 1.11022e-15
      vertex 1.775 -7.40673 5
    endloop
  endfacet
  facet normal 1 -0 0
    outer loop
      vertex 10.125 -7.2 5
      vertex 10.125 -5 1.11022e-15
      vertex 10.125 -5 5
    endloop
  endfacet
  facet normal 1 0 0
    outer loop
      vertex 10.125 -5 1.11022e-15
      vertex 10.125 -7.2 5
      vertex 10.125 -7.2 1.11022e-15
    endloop
  endfacet
  facet normal 1 -0 0
    outer loop
      vertex 10.125 1.11022e-15 5
      vertex 10.125 0.701524 1.11022e-15
      vertex 10.125 0.701524 5
    endloop
  endfacet
  facet normal 1 0 0
    outer loop
      vertex 10.125 0.701524 1.11022e-15
      vertex 10.125 1.11022e-15 5
      vertex 10.125 2.46519e-31 1.11022e-15
    endloop
  endfacet
  facet normal 0 0 0
    outer loop
      vertex 10.125 -7.2 5
      vertex 10.125 -5 5
      vertex 10.125 1.11022e-15 5
    endloop
  endfacet
  facet normal 0 0 0
    outer loop
      vertex 10.125 1.11022e-15 5
      vertex 10.125 0.701524 5
      vertex 10.125 -7.2 5
    endloop
  endfacet
  facet normal 0 1 -0
    outer loop
      vertex 13.225 -7.2 1.11022e-15
      vertex 10.125 -7.2 5
      vertex 13.225 -7.2 5
    endloop
  endfacet
  facet normal 0 1 0
    outer loop
      vertex 10.125 -7.2 5
      vertex 13.225 -7.2 1.11022e-15
      vertex 10.125 -7.2 1.11022e-15
    endloop
  endfacet
  facet normal -1 0 0
    outer loop
      vertex 4.875 -7.2 1.11022e-15
      vertex 4.875 -5 5
      vertex 4.875 -5 1.11022e-15
    endloop
  endfacet
  facet normal -1 -0 0
    outer loop
      vertex 4.875 -5 5
      vertex 4.875 -7.2 1.11022e-15
      vertex 4.875 -7.2 5
    endloop
  endfacet
  facet normal -1 0 0
    outer loop
      vertex 4.875 0.701524 1.11022e-15
      vertex 4.875 1.11022e-15 5
      vertex 4.875 0.701524 5
    endloop
  endfacet
  facet normal -1 0 -0
    outer loop
      vertex 4.875 1.11022e-15 5
      vertex 4.875 0.701524 1.11022e-15
      vertex 4.875 2.46519e-31 1.11022e-15
    endloop
  endfacet
  facet normal 0 0 0
    outer loop
      vertex 4.875 -5 5
      vertex 4.875 -7.2 5
      vertex 4.875 0.701524 5
    endloop
  endfacet
  facet normal 0 0 0
    outer loop
      vertex 4.875 0.701524 5
      vertex 4.875 1.11022e-15 5
      vertex 4.875 -5 5
    endloop
  endfacet
  facet normal 0 1 -0
    outer loop
      vertex 4.875 -7.2 1.11022e-15
      vertex 1.775 -7.2 5
      vertex 4.875 -7.2 5
    endloop
  endfacet
  facet normal 0 1 0
    outer loop
      vertex 1.775 -7.2 5
      vertex 4.875 -7.2 1.11022e-15
      vertex 1.775 -7.2 1.11022e-15
    endloop
  endfacet
  facet normal 0.707107 -0.707107 0
    outer loop
      vertex 9.72784 -10.9039 5
      vertex 13.225 -7.40673 1.11022e-15
      vertex 13.225 -7.40673 5
    endloop
  endfacet
  facet normal 0.707107 -0.707107 0
    outer loop
      vertex 13.225 -7.40673 1.11022e-15
      vertex 9.72784 -10.9039 5
      vertex 9.72784 -10.9039 1.11022e-15
    endloop
  endfacet
  facet normal -0.707107 -0.707107 0
    outer loop
      vertex 5.27216 -10.9039 1.11022e-15
      vertex 1.775 -7.40673 5
      vertex 1.775 -7.40673 1.11022e-15
    endloop
  endfacet
  facet normal -0.707107 -0.707107 0
    outer loop
      vertex 1.775 -7.40673 5
      vertex 5.27216 -10.9039 1.11022e-15
      vertex 5.27216 -10.9039 5
    endloop
  endfacet
  facet normal -1 0 0
    outer loop
      vertex 0 -5 1.11022e-15
      vertex 0 1.11022e-15 5
      vertex 0 0 0
    endloop
  endfacet
  facet normal -1 -0 0
    outer loop
      vertex 0 1.11022e-15 5
      vertex 0 -5 1.11022e-15
      vertex 0 -5 5
    endloop
  endfacet
  facet normal 0 -1 0
    outer loop
      vertex 0 -5 1.11022e-15
      vertex 4.875 -5 5
      vertex 0 -5 5
    endloop
  endfacet
  facet normal 0 -1 -0
    outer loop
      vertex 4.875 -5 5
      vertex 0 -5 1.11022e-15
      vertex 4.875 -5 1.11022e-15
    endloop
  endfacet
  facet normal 0 -1 0
    outer loop
      vertex 10.125 -5 1.11022e-15
      vertex 15 -5 5
      vertex 10.125 -5 5
    endloop
  endfacet
  facet normal 0 -1 -0
    outer loop
      vertex 15 -5 5
      vertex 10.125 -5 1.11022e-15
      vertex 15 -5 1.11022e-15
    endloop
  endfacet
  facet normal 1 -0 0
    outer loop
      vertex 15 -5 5
      vertex 15 0 0
      vertex 15 1.11022e-15 5
    endloop
  endfacet
  facet normal 1 0 0
    outer loop
      vertex 15 0 0
      vertex 15 -5 5
      vertex 15 -5 1.11022e-15
    endloop
  endfacet
  facet normal -0 0 1
    outer loop
      vertex 10.125 1.11022e-15 5
      vertex 15 -5 5
      vertex 15 1.11022e-15 5
    endloop
  endfacet
  facet normal 0 0 1
    outer loop
      vertex 15 -5 5
      vertex 10.125 1.11022e-15 5
      vertex 10.125 -5 5
    endloop
  endfacet
  facet normal -0 0 1
    outer loop
      vertex 0 1.11022e-15 5
      vertex 4.875 -5 5
      vertex 4.875 1.11022e-15 5
    endloop
  endfacet
  facet normal 0 0 1
    outer loop
      vertex 4.875 -5 5
      vertex 0 1.11022e-15 5
      vertex 0 -5 5
    endloop
  endfacet
  facet normal 0 1 -2.22045e-16
    outer loop
      vertex 15 1.11022e-15 5
      vertex 10.125 2.46519e-31 1.11022e-15
      vertex 10.125 1.11022e-15 5
    endloop
  endfacet
  facet normal 0 1 -2.22045e-16
    outer loop
      vertex 10.125 2.46519e-31 1.11022e-15
      vertex 15 0 0
      vertex 4.875 2.46519e-31 1.11022e-15
    endloop
  endfacet
  facet normal 0 1 -2.22045e-16
    outer loop
      vertex 15 0 0
      vertex 10.125 2.46519e-31 1.11022e-15
      vertex 15 1.11022e-15 5
    endloop
  endfacet
  facet normal 0 1 -2.22045e-16
    outer loop
      vertex 4.875 2.46519e-31 1.11022e-15
      vertex 0 1.11022e-15 5
      vertex 4.875 1.11022e-15 5
    endloop
  endfacet
  facet normal 0 1 -2.22045e-16
    outer loop
      vertex 4.875 2.46519e-31 1.11022e-15
      vertex 0 0 0
      vertex 0 1.11022e-15 5
    endloop
  endfacet
  facet normal 0 1 -2.22045e-16
    outer loop
      vertex 0 0 0
      vertex 4.875 2.46519e-31 1.11022e-15
      vertex 15 0 0
    endloop
  endfacet
  facet normal 0 -2.22045e-16 -1
    outer loop
      vertex 10.125 -5 1.11022e-15
      vertex 15 0 0
      vertex 15 -5 1.11022e-15
    endloop
  endfacet
  facet normal 0 -2.22045e-16 -1
    outer loop
      vertex 4.875 -5 1.11022e-15
      vertex 15 0 0
      vertex 10.125 -5 1.11022e-15
    endloop
  endfacet
  facet normal 0 -2.22045e-16 -1
    outer loop
      vertex 0 0 0
      vertex 4.875 -5 1.11022e-15
      vertex 0 -5 1.11022e-15
    endloop
  endfacet
  facet normal 0 -2.22045e-16 -1
    outer loop
      vertex 4.875 -5 1.11022e-15
      vertex 0 0 0
      vertex 15 0 0
    endloop
  endfacet
endsolid OpenSCAD_Model
