solid OpenSCAD_Model
  facet normal -0.45399 -0.891007 0
    outer loop
      vertex 6.26756 -15.1373 2.22045e-15
      vertex 8.03774 -16.0392 30
      vertex 6.26756 -15.1373 30
    endloop
  endfacet
  facet normal -0.45399 -0.891007 -0
    outer loop
      vertex 8.03774 -16.0392 30
      vertex 6.26756 -15.1373 2.22045e-15
      vertex 8.03774 -16.0392 2.22045e-15
    endloop
  endfacet
  facet normal 0.707107 -0.707107 0
    outer loop
      vertex 13.7324 -15.1373 30
      vertex 15.1373 -13.7324 2.22045e-15
      vertex 15.1373 -13.7324 30
    endloop
  endfacet
  facet normal 0.707107 -0.707107 0
    outer loop
      vertex 15.1373 -13.7324 2.22045e-15
      vertex 13.7324 -15.1373 30
      vertex 13.7324 -15.1373 2.22045e-15
    endloop
  endfacet
  facet normal 0.891007 -0.45399 0
    outer loop
      vertex 15.1373 -13.7324 30
      vertex 15.75 -12.5299 2.22045e-15
      vertex 15.75 -12.5299 30
    endloop
  endfacet
  facet normal 0.891007 -0.45399 0
    outer loop
      vertex 15.75 -12.5299 2.22045e-15
      vertex 15.1373 -13.7324 30
      vertex 15.1373 -13.7324 2.22045e-15
    endloop
  endfacet
  facet normal -0.707107 -0.707107 0
    outer loop
      vertex 6.26756 -15.1373 2.22045e-15
      vertex 4.86274 -13.7324 30
      vertex 4.86274 -13.7324 2.22045e-15
    endloop
  endfacet
  facet normal -0.707107 -0.707107 0
    outer loop
      vertex 4.86274 -13.7324 30
      vertex 6.26756 -15.1373 2.22045e-15
      vertex 6.26756 -15.1373 30
    endloop
  endfacet
  facet normal 0 0 -1
    outer loop
      vertex 6.26756 -15.1373 2.22045e-15
      vertex 7.375 -11.85 2.22045e-15
      vertex 8.03774 -16.0392 2.22045e-15
    endloop
  endfacet
  facet normal 0 0 -1
    outer loop
      vertex 4.86274 -13.7324 2.22045e-15
      vertex 7.375 -11.85 2.22045e-15
      vertex 6.26756 -15.1373 2.22045e-15
    endloop
  endfacet
  facet normal 0 0 -1
    outer loop
      vertex 4.25 -12.5299 2.22045e-15
      vertex 7.375 -11.85 2.22045e-15
      vertex 4.86274 -13.7324 2.22045e-15
    endloop
  endfacet
  facet normal -0 0 -1
    outer loop
      vertex 7.375 -11.85 2.22045e-15
      vertex 4.25 -12.5299 2.22045e-15
      vertex 4.25 -11.85 2.22045e-15
    endloop
  endfacet
  facet normal 0 0 -1
    outer loop
      vertex 12.625 -11.85 2.22045e-15
      vertex 15.75 -12.5299 2.22045e-15
      vertex 15.1373 -13.7324 2.22045e-15
    endloop
  endfacet
  facet normal 0 0 -1
    outer loop
      vertex 12.625 -11.85 2.22045e-15
      vertex 15.1373 -13.7324 2.22045e-15
      vertex 13.7324 -15.1373 2.22045e-15
    endloop
  endfacet
  facet normal 0 0 -1
    outer loop
      vertex 15.75 -12.5299 2.22045e-15
      vertex 12.625 -11.85 2.22045e-15
      vertex 15.75 -11.85 2.22045e-15
    endloop
  endfacet
  facet normal 0 0 -1
    outer loop
      vertex 11.9623 -16.0392 2.22045e-15
      vertex 12.625 -11.85 2.22045e-15
      vertex 13.7324 -15.1373 2.22045e-15
    endloop
  endfacet
  facet normal 0 0 -1
    outer loop
      vertex 10 -16.35 2.22045e-15
      vertex 12.625 -11.85 2.22045e-15
      vertex 11.9623 -16.0392 2.22045e-15
    endloop
  endfacet
  facet normal -0 0 -1
    outer loop
      vertex 12.625 -11.85 2.22045e-15
      vertex 10 -16.35 2.22045e-15
      vertex 7.375 -11.85 2.22045e-15
    endloop
  endfacet
  facet normal 0 0 -1
    outer loop
      vertex 7.375 -11.85 2.22045e-15
      vertex 10 -16.35 2.22045e-15
      vertex 8.03774 -16.0392 2.22045e-15
    endloop
  endfacet
  facet normal 0 0 -1
    outer loop
      vertex 12.625 -11.85 2.22045e-15
      vertex 7.375 -11.85 2.22045e-15
      vertex 12.625 -10 2.22045e-15
    endloop
  endfacet
  facet normal -0 0 -1
    outer loop
      vertex 12.625 -10 2.22045e-15
      vertex 7.375 -11.85 2.22045e-15
      vertex 7.375 -10 2.22045e-15
    endloop
  endfacet
  facet normal -0.891007 -0.45399 0
    outer loop
      vertex 4.86274 -13.7324 2.22045e-15
      vertex 4.25 -12.5299 30
      vertex 4.25 -12.5299 2.22045e-15
    endloop
  endfacet
  facet normal -0.891007 -0.45399 0
    outer loop
      vertex 4.25 -12.5299 30
      vertex 4.86274 -13.7324 2.22045e-15
      vertex 4.86274 -13.7324 30
    endloop
  endfacet
  facet normal 0.156434 -0.987688 0
    outer loop
      vertex 10 -16.35 6.37289
      vertex 10 -16.35 2.22045e-15
      vertex 10.4094 -16.2851 6.23985
    endloop
  endfacet
  facet normal 0.156434 -0.987688 0
    outer loop
      vertex 10 -16.35 21.3729
      vertex 10.4094 -16.2851 8.76015
      vertex 10.4094 -16.2851 21.2399
    endloop
  endfacet
  facet normal 0.156434 -0.987688 0
    outer loop
      vertex 10.4094 -16.2851 8.76015
      vertex 10 -16.35 21.3729
      vertex 10 -16.35 8.62711
    endloop
  endfacet
  facet normal 0.156434 -0.987688 2.0716e-08
    outer loop
      vertex 10 -16.35 30
      vertex 10.4094 -16.2851 23.7601
      vertex 11.9623 -16.0392 30
    endloop
  endfacet
  facet normal 0.156434 -0.987688 0
    outer loop
      vertex 10.4094 -16.2851 23.7601
      vertex 10 -16.35 30
      vertex 10 -16.35 23.6271
    endloop
  endfacet
  facet normal 0.156433 -0.987688 2.68738e-07
    outer loop
      vertex 11.325 -16.1401 22.5
      vertex 11.9623 -16.0392 30
      vertex 10.4094 -16.2851 23.7601
    endloop
  endfacet
  facet normal 0.156433 -0.987689 0
    outer loop
      vertex 10.4094 -16.2851 8.76015
      vertex 11.325 -16.1401 22.5
      vertex 10.4094 -16.2851 21.2399
    endloop
  endfacet
  facet normal 0.156433 -0.987689 0
    outer loop
      vertex 11.325 -16.1401 7.5
      vertex 11.325 -16.1401 22.5
      vertex 10.4094 -16.2851 8.76015
    endloop
  endfacet
  facet normal 0.156437 -0.987688 0
    outer loop
      vertex 11.325 -16.1401 22.5
      vertex 11.325 -16.1401 7.5
      vertex 11.9623 -16.0392 30
    endloop
  endfacet
  facet normal 0.156434 -0.987688 -2.0716e-08
    outer loop
      vertex 11.9623 -16.0392 2.22045e-15
      vertex 10.4094 -16.2851 6.23985
      vertex 10 -16.35 2.22045e-15
    endloop
  endfacet
  facet normal 0.156437 -0.987688 0
    outer loop
      vertex 11.325 -16.1401 7.5
      vertex 11.9623 -16.0392 2.22045e-15
      vertex 11.9623 -16.0392 30
    endloop
  endfacet
  facet normal 0.156433 -0.987688 -2.68738e-07
    outer loop
      vertex 10.4094 -16.2851 6.23985
      vertex 11.9623 -16.0392 2.22045e-15
      vertex 11.325 -16.1401 7.5
    endloop
  endfacet
  facet normal 0.45399 -0.891007 0
    outer loop
      vertex 11.9623 -16.0392 2.22045e-15
      vertex 13.7324 -15.1373 30
      vertex 11.9623 -16.0392 30
    endloop
  endfacet
  facet normal 0.45399 -0.891007 0
    outer loop
      vertex 13.7324 -15.1373 30
      vertex 11.9623 -16.0392 2.22045e-15
      vertex 13.7324 -15.1373 2.22045e-15
    endloop
  endfacet
  facet normal -0.156434 -0.987688 0
    outer loop
      vertex 8.03774 -16.0392 30
      vertex 10 -16.35 23.6271
      vertex 10 -16.35 30
    endloop
  endfacet
  facet normal -0.156434 -0.987688 2.72411e-07
    outer loop
      vertex 8.03774 -16.0392 30
      vertex 8.92805 -16.1802 23.2788
      vertex 10 -16.35 23.6271
    endloop
  endfacet
  facet normal -0.156436 -0.987688 0
    outer loop
      vertex 8.03774 -16.0392 30
      vertex 8.92805 -16.1802 21.7212
      vertex 8.92805 -16.1802 23.2788
    endloop
  endfacet
  facet normal -0.156434 -0.987688 0
    outer loop
      vertex 8.92805 -16.1802 21.7212
      vertex 10 -16.35 8.62711
      vertex 10 -16.35 21.3729
    endloop
  endfacet
  facet normal -0.156436 -0.987688 0
    outer loop
      vertex 8.92805 -16.1802 8.27882
      vertex 8.92805 -16.1802 21.7212
      vertex 8.03774 -16.0392 30
    endloop
  endfacet
  facet normal -0.156434 -0.987688 -0
    outer loop
      vertex 8.92805 -16.1802 21.7212
      vertex 8.92805 -16.1802 8.27882
      vertex 10 -16.35 8.62711
    endloop
  endfacet
  facet normal -0.156436 -0.987688 0
    outer loop
      vertex 8.03774 -16.0392 2.22045e-15
      vertex 8.92805 -16.1802 8.27882
      vertex 8.03774 -16.0392 30
    endloop
  endfacet
  facet normal -0.156436 -0.987688 -0
    outer loop
      vertex 8.92805 -16.1802 8.27882
      vertex 8.03774 -16.0392 2.22045e-15
      vertex 8.92805 -16.1802 6.72118
    endloop
  endfacet
  facet normal -0.156434 -0.987688 -2.72411e-07
    outer loop
      vertex 8.03774 -16.0392 2.22045e-15
      vertex 10 -16.35 6.37289
      vertex 8.92805 -16.1802 6.72118
    endloop
  endfacet
  facet normal -0.156434 -0.987688 -0
    outer loop
      vertex 10 -16.35 6.37289
      vertex 8.03774 -16.0392 2.22045e-15
      vertex 10 -16.35 2.22045e-15
    endloop
  endfacet
  facet normal 0 0 1
    outer loop
      vertex 12.625 -4.29848 30
      vertex 11.9623 -3.96079 30
      vertex 12.625 -11.85 30
    endloop
  endfacet
  facet normal -0 0 1
    outer loop
      vertex 12.625 -11.85 30
      vertex 15.75 -12.5299 30
      vertex 15.75 -11.85 30
    endloop
  endfacet
  facet normal 0 0 1
    outer loop
      vertex 15.75 -12.5299 30
      vertex 12.625 -11.85 30
      vertex 15.1373 -13.7324 30
    endloop
  endfacet
  facet normal 0 0 1
    outer loop
      vertex 15.1373 -13.7324 30
      vertex 12.625 -11.85 30
      vertex 13.7324 -15.1373 30
    endloop
  endfacet
  facet normal 0 0 1
    outer loop
      vertex 12.625 -11.85 30
      vertex 11.9623 -16.0392 30
      vertex 13.7324 -15.1373 30
    endloop
  endfacet
  facet normal 0 0 1
    outer loop
      vertex 10 -3.65 30
      vertex 12.625 -11.85 30
      vertex 11.9623 -3.96079 30
    endloop
  endfacet
  facet normal 0 0 1
    outer loop
      vertex 12.625 -11.85 30
      vertex 10 -3.65 30
      vertex 7.375 -11.85 30
    endloop
  endfacet
  facet normal 0 -0 1
    outer loop
      vertex 10 -16.35 30
      vertex 12.625 -11.85 30
      vertex 7.375 -11.85 30
    endloop
  endfacet
  facet normal 0 0 1
    outer loop
      vertex 7.375 -11.85 30
      vertex 10 -3.65 30
      vertex 8.03774 -3.96079 30
    endloop
  endfacet
  facet normal 0 0 1
    outer loop
      vertex 12.625 -11.85 30
      vertex 10 -16.35 30
      vertex 11.9623 -16.0392 30
    endloop
  endfacet
  facet normal 0 0 1
    outer loop
      vertex 7.375 -11.85 30
      vertex 8.03774 -3.96079 30
      vertex 7.375 -4.29848 30
    endloop
  endfacet
  facet normal 0 0 1
    outer loop
      vertex 10 -16.35 30
      vertex 7.375 -11.85 30
      vertex 8.03774 -16.0392 30
    endloop
  endfacet
  facet normal 0 0 1
    outer loop
      vertex 7.375 -11.85 30
      vertex 6.26756 -15.1373 30
      vertex 8.03774 -16.0392 30
    endloop
  endfacet
  facet normal 0 0 1
    outer loop
      vertex 7.375 -11.85 30
      vertex 4.86274 -13.7324 30
      vertex 6.26756 -15.1373 30
    endloop
  endfacet
  facet normal 0 0 1
    outer loop
      vertex 4.25 -12.5299 30
      vertex 7.375 -11.85 30
      vertex 4.25 -11.85 30
    endloop
  endfacet
  facet normal 0 0 1
    outer loop
      vertex 7.375 -11.85 30
      vertex 4.25 -12.5299 30
      vertex 4.86274 -13.7324 30
    endloop
  endfacet
  facet normal 1 -0 0
    outer loop
      vertex 15.75 -12.5299 30
      vertex 15.75 -11.85 2.22045e-15
      vertex 15.75 -11.85 30
    endloop
  endfacet
  facet normal 1 0 0
    outer loop
      vertex 15.75 -11.85 2.22045e-15
      vertex 15.75 -12.5299 30
      vertex 15.75 -12.5299 2.22045e-15
    endloop
  endfacet
  facet normal -1 0 0
    outer loop
      vertex 4.25 -12.5299 2.22045e-15
      vertex 4.25 -11.85 30
      vertex 4.25 -11.85 2.22045e-15
    endloop
  endfacet
  facet normal -1 -0 0
    outer loop
      vertex 4.25 -11.85 30
      vertex 4.25 -12.5299 2.22045e-15
      vertex 4.25 -12.5299 30
    endloop
  endfacet
  facet normal 1 -0 0
    outer loop
      vertex 12.625 -11.85 30
      vertex 12.625 -10 2.22045e-15
      vertex 12.625 -10 30
    endloop
  endfacet
  facet normal 1 0 0
    outer loop
      vertex 12.625 -10 2.22045e-15
      vertex 12.625 -11.85 30
      vertex 12.625 -11.85 2.22045e-15
    endloop
  endfacet
  facet normal 0 0 0
    outer loop
      vertex 12.625 -11.85 30
      vertex 12.625 -10 30
      vertex 12.625 -4.29848 30
    endloop
  endfacet
  facet normal 0 1 -0
    outer loop
      vertex 15.75 -11.85 2.22045e-15
      vertex 12.625 -11.85 30
      vertex 15.75 -11.85 30
    endloop
  endfacet
  facet normal 0 1 0
    outer loop
      vertex 12.625 -11.85 30
      vertex 15.75 -11.85 2.22045e-15
      vertex 12.625 -11.85 2.22045e-15
    endloop
  endfacet
  facet normal -1 0 0
    outer loop
      vertex 7.375 -11.85 2.22045e-15
      vertex 7.375 -10 30
      vertex 7.375 -10 2.22045e-15
    endloop
  endfacet
  facet normal -1 -0 0
    outer loop
      vertex 7.375 -10 30
      vertex 7.375 -11.85 2.22045e-15
      vertex 7.375 -11.85 30
    endloop
  endfacet
  facet normal 0 0 0
    outer loop
      vertex 7.375 -10 30
      vertex 7.375 -11.85 30
      vertex 7.375 -4.29848 30
    endloop
  endfacet
  facet normal 0 1 -0
    outer loop
      vertex 7.375 -11.85 2.22045e-15
      vertex 4.25 -11.85 30
      vertex 7.375 -11.85 30
    endloop
  endfacet
  facet normal 0 1 0
    outer loop
      vertex 4.25 -11.85 30
      vertex 7.375 -11.85 2.22045e-15
      vertex 4.25 -11.85 2.22045e-15
    endloop
  endfacet
  facet normal -1 0 0
    outer loop
      vertex 0 -10 2.22045e-15
      vertex 0 6.66134e-15 30
      vertex 0 0 0
    endloop
  endfacet
  facet normal -1 -0 0
    outer loop
      vertex 0 6.66134e-15 30
      vertex 0 -10 2.22045e-15
      vertex 0 -10 30
    endloop
  endfacet
  facet normal 0 -1 0
    outer loop
      vertex 0 -10 2.22045e-15
      vertex 7.375 -10 30
      vertex 0 -10 30
    endloop
  endfacet
  facet normal 0 -1 -0
    outer loop
      vertex 7.375 -10 30
      vertex 0 -10 2.22045e-15
      vertex 7.375 -10 2.22045e-15
    endloop
  endfacet
  facet normal 0 -1 0
    outer loop
      vertex 12.625 -10 2.22045e-15
      vertex 20 -10 30
      vertex 12.625 -10 30
    endloop
  endfacet
  facet normal 0 -1 -0
    outer loop
      vertex 20 -10 30
      vertex 12.625 -10 2.22045e-15
      vertex 20 -10 2.22045e-15
    endloop
  endfacet
  facet normal 1 -0 0
    outer loop
      vertex 20 -10 30
      vertex 20 0 0
      vertex 20 6.66134e-15 30
    endloop
  endfacet
  facet normal 1 0 0
    outer loop
      vertex 20 0 0
      vertex 20 -10 30
      vertex 20 -10 2.22045e-15
    endloop
  endfacet
  facet normal 0 0 1
    outer loop
      vertex 20 6.66134e-15 30
      vertex 12.625 -4.29848 30
      vertex 20 -10 30
    endloop
  endfacet
  facet normal 0 0 1
    outer loop
      vertex 20 6.66134e-15 30
      vertex 11.9623 -3.96079 30
      vertex 12.625 -4.29848 30
    endloop
  endfacet
  facet normal 0 0 1
    outer loop
      vertex 20 6.66134e-15 30
      vertex 10 -3.65 30
      vertex 11.9623 -3.96079 30
    endloop
  endfacet
  facet normal -0 0 1
    outer loop
      vertex 0 6.66134e-15 30
      vertex 10 -3.65 30
      vertex 20 6.66134e-15 30
    endloop
  endfacet
  facet normal 0 0 1
    outer loop
      vertex 10 -3.65 30
      vertex 0 6.66134e-15 30
      vertex 8.03774 -3.96079 30
    endloop
  endfacet
  facet normal 0 0 1
    outer loop
      vertex 0 6.66134e-15 30
      vertex 7.375 -4.29848 30
      vertex 8.03774 -3.96079 30
    endloop
  endfacet
  facet normal 0 0 1
    outer loop
      vertex 0 -10 30
      vertex 7.375 -4.29848 30
      vertex 0 6.66134e-15 30
    endloop
  endfacet
  facet normal 0 0 1
    outer loop
      vertex 7.375 -4.29848 30
      vertex 0 -10 30
      vertex 7.375 -10 30
    endloop
  endfacet
  facet normal 0 0 1
    outer loop
      vertex 20 -10 30
      vertex 12.625 -4.29848 30
      vertex 12.625 -10 30
    endloop
  endfacet
  facet normal 0 1 -2.22045e-16
    outer loop
      vertex 20 6.66134e-15 30
      vertex 10.958 5.65065e-15 25.4483
      vertex 0 6.66134e-15 30
    endloop
  endfacet
  facet normal 0 1 -2.22045e-16
    outer loop
      vertex 20 6.66134e-15 30
      vertex 12.508 5.4006e-15 24.3221
      vertex 10.958 5.65065e-15 25.4483
    endloop
  endfacet
  facet normal 0 1 -2.22045e-16
    outer loop
      vertex 20 6.66134e-15 30
      vertex 13.1 4.996e-15 22.5
      vertex 12.508 5.4006e-15 24.3221
    endloop
  endfacet
  facet normal 0 1 -2.22045e-16
    outer loop
      vertex 20 6.66134e-15 30
      vertex 12.508 4.59141e-15 20.6779
      vertex 13.1 4.996e-15 22.5
    endloop
  endfacet
  facet normal 0 1 -2.22045e-16
    outer loop
      vertex 10.958 4.34135e-15 19.5517
      vertex 10.958 2.31998e-15 10.4483
      vertex 9.04205 4.34135e-15 19.5517
    endloop
  endfacet
  facet normal 0 1 -2.22045e-16
    outer loop
      vertex 12.508 4.59141e-15 20.6779
      vertex 10.958 2.31998e-15 10.4483
      vertex 10.958 4.34135e-15 19.5517
    endloop
  endfacet
  facet normal 0 1 -2.22045e-16
    outer loop
      vertex 12.508 2.06993e-15 9.32213
      vertex 12.508 4.59141e-15 20.6779
      vertex 20 6.66134e-15 30
    endloop
  endfacet
  facet normal 0 1 -2.22045e-16
    outer loop
      vertex 12.508 4.59141e-15 20.6779
      vertex 12.508 2.06993e-15 9.32213
      vertex 10.958 2.31998e-15 10.4483
    endloop
  endfacet
  facet normal 0 1 -2.22045e-16
    outer loop
      vertex 20 0 0
      vertex 12.508 2.06993e-15 9.32213
      vertex 20 6.66134e-15 30
    endloop
  endfacet
  facet normal 0 1 -2.22045e-16
    outer loop
      vertex 10.958 1.01069e-15 4.55172
      vertex 20 0 0
      vertex 9.04205 1.01069e-15 4.55172
    endloop
  endfacet
  facet normal 0 1 -2.22045e-16
    outer loop
      vertex 12.508 1.26074e-15 5.67787
      vertex 20 0 0
      vertex 10.958 1.01069e-15 4.55172
    endloop
  endfacet
  facet normal 0 1 -2.22045e-16
    outer loop
      vertex 13.1 1.66533e-15 7.5
      vertex 20 0 0
      vertex 12.508 1.26074e-15 5.67787
    endloop
  endfacet
  facet normal 0 1 -2.22045e-16
    outer loop
      vertex 12.508 2.06993e-15 9.32213
      vertex 20 0 0
      vertex 13.1 1.66533e-15 7.5
    endloop
  endfacet
  facet normal 0 1 -2.22045e-16
    outer loop
      vertex 9.04205 5.65065e-15 25.4483
      vertex 0 6.66134e-15 30
      vertex 10.958 5.65065e-15 25.4483
    endloop
  endfacet
  facet normal 0 1 -2.22045e-16
    outer loop
      vertex 7.49205 5.4006e-15 24.3221
      vertex 0 6.66134e-15 30
      vertex 9.04205 5.65065e-15 25.4483
    endloop
  endfacet
  facet normal 0 1 -2.22045e-16
    outer loop
      vertex 6.9 4.996e-15 22.5
      vertex 0 6.66134e-15 30
      vertex 7.49205 5.4006e-15 24.3221
    endloop
  endfacet
  facet normal 0 1 -2.22045e-16
    outer loop
      vertex 7.49205 4.59141e-15 20.6779
      vertex 0 6.66134e-15 30
      vertex 6.9 4.996e-15 22.5
    endloop
  endfacet
  facet normal 0 1 -2.22045e-16
    outer loop
      vertex 9.04205 2.31998e-15 10.4483
      vertex 9.04205 4.34135e-15 19.5517
      vertex 10.958 2.31998e-15 10.4483
    endloop
  endfacet
  facet normal 0 1 -2.22045e-16
    outer loop
      vertex 9.04205 4.34135e-15 19.5517
      vertex 9.04205 2.31998e-15 10.4483
      vertex 7.49205 4.59141e-15 20.6779
    endloop
  endfacet
  facet normal 0 1 -2.22045e-16
    outer loop
      vertex 7.49205 2.06993e-15 9.32213
      vertex 7.49205 4.59141e-15 20.6779
      vertex 9.04205 2.31998e-15 10.4483
    endloop
  endfacet
  facet normal 0 1 -2.22045e-16
    outer loop
      vertex 7.49205 4.59141e-15 20.6779
      vertex 7.49205 2.06993e-15 9.32213
      vertex 0 6.66134e-15 30
    endloop
  endfacet
  facet normal 0 1 -2.22045e-16
    outer loop
      vertex 0 0 0
      vertex 7.49205 2.06993e-15 9.32213
      vertex 6.9 1.66533e-15 7.5
    endloop
  endfacet
  facet normal 0 1 -2.22045e-16
    outer loop
      vertex 7.49205 2.06993e-15 9.32213
      vertex 0 0 0
      vertex 0 6.66134e-15 30
    endloop
  endfacet
  facet normal 0 1 -2.22045e-16
    outer loop
      vertex 7.49205 1.26074e-15 5.67787
      vertex 0 0 0
      vertex 6.9 1.66533e-15 7.5
    endloop
  endfacet
  facet normal 0 1 -2.22045e-16
    outer loop
      vertex 9.04205 1.01069e-15 4.55172
      vertex 0 0 0
      vertex 7.49205 1.26074e-15 5.67787
    endloop
  endfacet
  facet normal 0 1 -2.22045e-16
    outer loop
      vertex 0 0 0
      vertex 9.04205 1.01069e-15 4.55172
      vertex 20 0 0
    endloop
  endfacet
  facet normal 0 -2.22045e-16 -1
    outer loop
      vertex 12.625 -10 2.22045e-15
      vertex 20 0 0
      vertex 20 -10 2.22045e-15
    endloop
  endfacet
  facet normal 0 -2.22045e-16 -1
    outer loop
      vertex 7.375 -10 2.22045e-15
      vertex 20 0 0
      vertex 12.625 -10 2.22045e-15
    endloop
  endfacet
  facet normal 0 -2.22045e-16 -1
    outer loop
      vertex 0 0 0
      vertex 7.375 -10 2.22045e-15
      vertex 0 -10 2.22045e-15
    endloop
  endfacet
  facet normal 0 -2.22045e-16 -1
    outer loop
      vertex 7.375 -10 2.22045e-15
      vertex 0 0 0
      vertex 20 0 0
    endloop
  endfacet
  facet normal -0.809017 0 -0.587786
    outer loop
      vertex 11.325 -16.1401 7.5
      vertex 10.4094 -9 8.76015
      vertex 11.325 -9 7.5
    endloop
  endfacet
  facet normal -0.809017 -0 -0.587786
    outer loop
      vertex 10.4094 -9 8.76015
      vertex 11.325 -16.1401 7.5
      vertex 10.4094 -16.2851 8.76015
    endloop
  endfacet
  facet normal 1 -0 0
    outer loop
      vertex 8.92805 -16.1802 8.27882
      vertex 8.92805 -9 6.72118
      vertex 8.92805 -9 8.27882
    endloop
  endfacet
  facet normal 1 0 0
    outer loop
      vertex 8.92805 -9 6.72118
      vertex 8.92805 -16.1802 8.27882
      vertex 8.92805 -16.1802 6.72118
    endloop
  endfacet
  facet normal 0.309017 4.37533e-06 -0.951057
    outer loop
      vertex 8.92805 -16.1802 8.27882
      vertex 10.4094 -16.2851 8.76015
      vertex 10 -16.35 8.62711
    endloop
  endfacet
  facet normal 0.309017 0 -0.951057
    outer loop
      vertex 10.4094 -16.2851 8.76015
      vertex 8.92805 -16.1802 8.27882
      vertex 10.4094 -9 8.76015
    endloop
  endfacet
  facet normal 0.309017 0 -0.951057
    outer loop
      vertex 10.4094 -9 8.76015
      vertex 8.92805 -16.1802 8.27882
      vertex 8.92805 -9 8.27882
    endloop
  endfacet
  facet normal -0.809017 0 0.587785
    outer loop
      vertex 10.4094 -9 6.23985
      vertex 11.325 -16.1401 7.5
      vertex 11.325 -9 7.5
    endloop
  endfacet
  facet normal -0.809017 0 0.587785
    outer loop
      vertex 11.325 -16.1401 7.5
      vertex 10.4094 -9 6.23985
      vertex 10.4094 -16.2851 6.23985
    endloop
  endfacet
  facet normal 0.309017 0 0.951057
    outer loop
      vertex 8.92805 -16.1802 6.72118
      vertex 10.4094 -16.2851 6.23985
      vertex 10.4094 -9 6.23985
    endloop
  endfacet
  facet normal 0.309017 -0 0.951057
    outer loop
      vertex 8.92805 -16.1802 6.72118
      vertex 10.4094 -9 6.23985
      vertex 8.92805 -9 6.72118
    endloop
  endfacet
  facet normal 0.309017 -4.56767e-07 0.951057
    outer loop
      vertex 10.4094 -16.2851 6.23985
      vertex 8.92805 -16.1802 6.72118
      vertex 10 -16.35 6.37289
    endloop
  endfacet
  facet normal -0.809017 0 -0.587786
    outer loop
      vertex 11.325 -16.1401 22.5
      vertex 10.4094 -9 23.7601
      vertex 11.325 -9 22.5
    endloop
  endfacet
  facet normal -0.809017 -0 -0.587786
    outer loop
      vertex 10.4094 -9 23.7601
      vertex 11.325 -16.1401 22.5
      vertex 10.4094 -16.2851 23.7601
    endloop
  endfacet
  facet normal 1 -0 0
    outer loop
      vertex 8.92805 -16.1802 23.2788
      vertex 8.92805 -9 21.7212
      vertex 8.92805 -9 23.2788
    endloop
  endfacet
  facet normal 1 0 0
    outer loop
      vertex 8.92805 -9 21.7212
      vertex 8.92805 -16.1802 23.2788
      vertex 8.92805 -16.1802 21.7212
    endloop
  endfacet
  facet normal 0.309017 7.04644e-06 -0.951057
    outer loop
      vertex 8.92805 -16.1802 23.2788
      vertex 10.4094 -16.2851 23.7601
      vertex 10 -16.35 23.6271
    endloop
  endfacet
  facet normal 0.309016 0 -0.951057
    outer loop
      vertex 10.4094 -16.2851 23.7601
      vertex 8.92805 -16.1802 23.2788
      vertex 10.4094 -9 23.7601
    endloop
  endfacet
  facet normal 0.309016 0 -0.951057
    outer loop
      vertex 10.4094 -9 23.7601
      vertex 8.92805 -16.1802 23.2788
      vertex 8.92805 -9 23.2788
    endloop
  endfacet
  facet normal 0.309016 2.48999e-07 0.951057
    outer loop
      vertex 8.92805 -16.1802 21.7212
      vertex 10.4094 -16.2851 21.2399
      vertex 10.4094 -9 21.2398
    endloop
  endfacet
  facet normal 0.309017 -0 0.951056
    outer loop
      vertex 8.92805 -16.1802 21.7212
      vertex 10.4094 -9 21.2398
      vertex 8.92805 -9 21.7212
    endloop
  endfacet
  facet normal 0.309015 -1.22819e-05 0.951057
    outer loop
      vertex 10.4094 -16.2851 21.2399
      vertex 8.92805 -16.1802 21.7212
      vertex 10 -16.35 21.3729
    endloop
  endfacet
  facet normal -0.809017 0 0.587785
    outer loop
      vertex 10.4094 -9 21.2398
      vertex 11.325 -16.1401 22.5
      vertex 11.325 -9 22.5
    endloop
  endfacet
  facet normal -0.809017 1.5389e-07 0.587786
    outer loop
      vertex 11.325 -16.1401 22.5
      vertex 10.4094 -9 21.2398
      vertex 10.4094 -16.2851 21.2399
    endloop
  endfacet
  facet normal -0.951056 0 -0.309017
    outer loop
      vertex 13.1 -9 7.5
      vertex 12.508 2.06993e-15 9.32213
      vertex 13.1 1.66533e-15 7.5
    endloop
  endfacet
  facet normal -0.951056 -0 -0.309017
    outer loop
      vertex 12.508 2.06993e-15 9.32213
      vertex 13.1 -9 7.5
      vertex 12.508 -9 9.32213
    endloop
  endfacet
  facet normal -0.587785 0 0.809017
    outer loop
      vertex 10.958 1.01069e-15 4.55172
      vertex 12.508 -9 5.67787
      vertex 12.508 1.26074e-15 5.67787
    endloop
  endfacet
  facet normal -0.587785 0 0.809017
    outer loop
      vertex 12.508 -9 5.67787
      vertex 10.958 1.01069e-15 4.55172
      vertex 10.958 -9 4.55172
    endloop
  endfacet
  facet normal 0.587785 0 -0.809017
    outer loop
      vertex 7.49205 -9 9.32213
      vertex 9.04205 2.31998e-15 10.4483
      vertex 9.04205 -9 10.4483
    endloop
  endfacet
  facet normal 0.587785 0 -0.809017
    outer loop
      vertex 9.04205 2.31998e-15 10.4483
      vertex 7.49205 -9 9.32213
      vertex 7.49205 2.06993e-15 9.32213
    endloop
  endfacet
  facet normal -0.587785 0 -0.809017
    outer loop
      vertex 10.958 -9 10.4483
      vertex 12.508 2.06993e-15 9.32213
      vertex 12.508 -9 9.32213
    endloop
  endfacet
  facet normal -0.587785 0 -0.809017
    outer loop
      vertex 12.508 2.06993e-15 9.32213
      vertex 10.958 -9 10.4483
      vertex 10.958 2.31998e-15 10.4483
    endloop
  endfacet
  facet normal 0 1 0
    outer loop
      vertex 10.4094 -9 8.76015
      vertex 10.958 -9 10.4483
      vertex 12.508 -9 9.32213
    endloop
  endfacet
  facet normal 0 1 0
    outer loop
      vertex 10.958 -9 10.4483
      vertex 10.4094 -9 8.76015
      vertex 9.04205 -9 10.4483
    endloop
  endfacet
  facet normal 0 1 0
    outer loop
      vertex 8.92805 -9 8.27882
      vertex 9.04205 -9 10.4483
      vertex 10.4094 -9 8.76015
    endloop
  endfacet
  facet normal 0 1 0
    outer loop
      vertex 11.325 -9 7.5
      vertex 12.508 -9 9.32213
      vertex 13.1 -9 7.5
    endloop
  endfacet
  facet normal 0 1 0
    outer loop
      vertex 12.508 -9 9.32213
      vertex 11.325 -9 7.5
      vertex 10.4094 -9 8.76015
    endloop
  endfacet
  facet normal 0 1 -0
    outer loop
      vertex 12.508 -9 5.67787
      vertex 11.325 -9 7.5
      vertex 13.1 -9 7.5
    endloop
  endfacet
  facet normal 0 1 0
    outer loop
      vertex 11.325 -9 7.5
      vertex 12.508 -9 5.67787
      vertex 10.4094 -9 6.23985
    endloop
  endfacet
  facet normal 0 1 0
    outer loop
      vertex 9.04205 -9 10.4483
      vertex 8.92805 -9 8.27882
      vertex 7.49205 -9 9.32213
    endloop
  endfacet
  facet normal 0 1 0
    outer loop
      vertex 8.92805 -9 8.27882
      vertex 6.9 -9 7.5
      vertex 7.49205 -9 9.32213
    endloop
  endfacet
  facet normal 0 1 -0
    outer loop
      vertex 8.92805 -9 6.72118
      vertex 6.9 -9 7.5
      vertex 8.92805 -9 8.27882
    endloop
  endfacet
  facet normal 0 1 0
    outer loop
      vertex 8.92805 -9 6.72118
      vertex 7.49205 -9 5.67787
      vertex 6.9 -9 7.5
    endloop
  endfacet
  facet normal 0 1 -0
    outer loop
      vertex 9.04205 -9 4.55172
      vertex 8.92805 -9 6.72118
      vertex 10.4094 -9 6.23985
    endloop
  endfacet
  facet normal 0 1 -0
    outer loop
      vertex 10.958 -9 4.55172
      vertex 10.4094 -9 6.23985
      vertex 12.508 -9 5.67787
    endloop
  endfacet
  facet normal 0 1 0
    outer loop
      vertex 9.04205 -9 4.55172
      vertex 10.4094 -9 6.23985
      vertex 10.958 -9 4.55172
    endloop
  endfacet
  facet normal 0 1 0
    outer loop
      vertex 8.92805 -9 6.72118
      vertex 9.04205 -9 4.55172
      vertex 7.49205 -9 5.67787
    endloop
  endfacet
  facet normal 0.951056 0 -0.309017
    outer loop
      vertex 7.49205 -9 9.32213
      vertex 6.9 1.66533e-15 7.5
      vertex 7.49205 2.06993e-15 9.32213
    endloop
  endfacet
  facet normal 0.951056 0 -0.309017
    outer loop
      vertex 6.9 1.66533e-15 7.5
      vertex 7.49205 -9 9.32213
      vertex 6.9 -9 7.5
    endloop
  endfacet
  facet normal 0 0 -1
    outer loop
      vertex 9.04205 -9 10.4483
      vertex 10.958 2.31998e-15 10.4483
      vertex 10.958 -9 10.4483
    endloop
  endfacet
  facet normal -0 0 -1
    outer loop
      vertex 10.958 2.31998e-15 10.4483
      vertex 9.04205 -9 10.4483
      vertex 9.04205 2.31998e-15 10.4483
    endloop
  endfacet
  facet normal 0.951056 -0 0.309017
    outer loop
      vertex 6.9 -9 7.5
      vertex 7.49205 1.26074e-15 5.67787
      vertex 6.9 1.66533e-15 7.5
    endloop
  endfacet
  facet normal 0.951056 0 0.309017
    outer loop
      vertex 7.49205 1.26074e-15 5.67787
      vertex 6.9 -9 7.5
      vertex 7.49205 -9 5.67787
    endloop
  endfacet
  facet normal -0.951056 0 0.309017
    outer loop
      vertex 12.508 -9 5.67787
      vertex 13.1 1.66533e-15 7.5
      vertex 12.508 1.26074e-15 5.67787
    endloop
  endfacet
  facet normal -0.951056 0 0.309017
    outer loop
      vertex 13.1 1.66533e-15 7.5
      vertex 12.508 -9 5.67787
      vertex 13.1 -9 7.5
    endloop
  endfacet
  facet normal -0 0 1
    outer loop
      vertex 9.04205 1.01069e-15 4.55172
      vertex 10.958 -9 4.55172
      vertex 10.958 1.01069e-15 4.55172
    endloop
  endfacet
  facet normal 0 0 1
    outer loop
      vertex 10.958 -9 4.55172
      vertex 9.04205 1.01069e-15 4.55172
      vertex 9.04205 -9 4.55172
    endloop
  endfacet
  facet normal 0.587785 0 0.809017
    outer loop
      vertex 7.49205 1.26074e-15 5.67787
      vertex 9.04205 -9 4.55172
      vertex 9.04205 1.01069e-15 4.55172
    endloop
  endfacet
  facet normal 0.587785 0 0.809017
    outer loop
      vertex 9.04205 -9 4.55172
      vertex 7.49205 1.26074e-15 5.67787
      vertex 7.49205 -9 5.67787
    endloop
  endfacet
  facet normal -0.951056 0 -0.309017
    outer loop
      vertex 13.1 -9 22.5
      vertex 12.508 5.4006e-15 24.3221
      vertex 13.1 4.996e-15 22.5
    endloop
  endfacet
  facet normal -0.951056 -0 -0.309017
    outer loop
      vertex 12.508 5.4006e-15 24.3221
      vertex 13.1 -9 22.5
      vertex 12.508 -9 24.3221
    endloop
  endfacet
  facet normal 0.587785 0 -0.809017
    outer loop
      vertex 7.49205 -9 24.3221
      vertex 9.04205 5.65065e-15 25.4483
      vertex 9.04205 -9 25.4483
    endloop
  endfacet
  facet normal 0.587785 0 -0.809017
    outer loop
      vertex 9.04205 5.65065e-15 25.4483
      vertex 7.49205 -9 24.3221
      vertex 7.49205 5.4006e-15 24.3221
    endloop
  endfacet
  facet normal -0.587785 0 -0.809017
    outer loop
      vertex 10.958 -9 25.4483
      vertex 12.508 5.4006e-15 24.3221
      vertex 12.508 -9 24.3221
    endloop
  endfacet
  facet normal -0.587785 0 -0.809017
    outer loop
      vertex 12.508 5.4006e-15 24.3221
      vertex 10.958 -9 25.4483
      vertex 10.958 5.65065e-15 25.4483
    endloop
  endfacet
  facet normal 0 1 0
    outer loop
      vertex 10.4094 -9 23.7601
      vertex 10.958 -9 25.4483
      vertex 12.508 -9 24.3221
    endloop
  endfacet
  facet normal 0 1 0
    outer loop
      vertex 10.958 -9 25.4483
      vertex 10.4094 -9 23.7601
      vertex 9.04205 -9 25.4483
    endloop
  endfacet
  facet normal 0 1 0
    outer loop
      vertex 8.92805 -9 23.2788
      vertex 9.04205 -9 25.4483
      vertex 10.4094 -9 23.7601
    endloop
  endfacet
  facet normal 0 1 0
    outer loop
      vertex 11.325 -9 22.5
      vertex 12.508 -9 24.3221
      vertex 13.1 -9 22.5
    endloop
  endfacet
  facet normal 0 1 0
    outer loop
      vertex 12.508 -9 24.3221
      vertex 11.325 -9 22.5
      vertex 10.4094 -9 23.7601
    endloop
  endfacet
  facet normal 0 1 -0
    outer loop
      vertex 12.508 -9 20.6779
      vertex 11.325 -9 22.5
      vertex 13.1 -9 22.5
    endloop
  endfacet
  facet normal 0 1 0
    outer loop
      vertex 11.325 -9 22.5
      vertex 12.508 -9 20.6779
      vertex 10.4094 -9 21.2398
    endloop
  endfacet
  facet normal 0 1 0
    outer loop
      vertex 9.04205 -9 25.4483
      vertex 8.92805 -9 23.2788
      vertex 7.49205 -9 24.3221
    endloop
  endfacet
  facet normal 0 1 0
    outer loop
      vertex 8.92805 -9 23.2788
      vertex 6.9 -9 22.5
      vertex 7.49205 -9 24.3221
    endloop
  endfacet
  facet normal 0 1 -0
    outer loop
      vertex 8.92805 -9 21.7212
      vertex 6.9 -9 22.5
      vertex 8.92805 -9 23.2788
    endloop
  endfacet
  facet normal 0 1 0
    outer loop
      vertex 8.92805 -9 21.7212
      vertex 7.49205 -9 20.6779
      vertex 6.9 -9 22.5
    endloop
  endfacet
  facet normal 0 1 -0
    outer loop
      vertex 9.04205 -9 19.5517
      vertex 8.92805 -9 21.7212
      vertex 10.4094 -9 21.2398
    endloop
  endfacet
  facet normal 0 1 -0
    outer loop
      vertex 10.958 -9 19.5517
      vertex 10.4094 -9 21.2398
      vertex 12.508 -9 20.6779
    endloop
  endfacet
  facet normal 0 1 0
    outer loop
      vertex 9.04205 -9 19.5517
      vertex 10.4094 -9 21.2398
      vertex 10.958 -9 19.5517
    endloop
  endfacet
  facet normal 0 1 0
    outer loop
      vertex 8.92805 -9 21.7212
      vertex 9.04205 -9 19.5517
      vertex 7.49205 -9 20.6779
    endloop
  endfacet
  facet normal 0.951056 0 -0.309017
    outer loop
      vertex 7.49205 -9 24.3221
      vertex 6.9 4.996e-15 22.5
      vertex 7.49205 5.4006e-15 24.3221
    endloop
  endfacet
  facet normal 0.951056 0 -0.309017
    outer loop
      vertex 6.9 4.996e-15 22.5
      vertex 7.49205 -9 24.3221
      vertex 6.9 -9 22.5
    endloop
  endfacet
  facet normal 0 0 -1
    outer loop
      vertex 9.04205 -9 25.4483
      vertex 10.958 5.65065e-15 25.4483
      vertex 10.958 -9 25.4483
    endloop
  endfacet
  facet normal -0 0 -1
    outer loop
      vertex 10.958 5.65065e-15 25.4483
      vertex 9.04205 -9 25.4483
      vertex 9.04205 5.65065e-15 25.4483
    endloop
  endfacet
  facet normal 0.951057 -0 0.309017
    outer loop
      vertex 6.9 -9 22.5
      vertex 7.49205 4.59141e-15 20.6779
      vertex 6.9 4.996e-15 22.5
    endloop
  endfacet
  facet normal 0.951057 0 0.309017
    outer loop
      vertex 7.49205 4.59141e-15 20.6779
      vertex 6.9 -9 22.5
      vertex 7.49205 -9 20.6779
    endloop
  endfacet
  facet normal 0.587785 0 0.809017
    outer loop
      vertex 7.49205 4.59141e-15 20.6779
      vertex 9.04205 -9 19.5517
      vertex 9.04205 4.34135e-15 19.5517
    endloop
  endfacet
  facet normal 0.587785 0 0.809017
    outer loop
      vertex 9.04205 -9 19.5517
      vertex 7.49205 4.59141e-15 20.6779
      vertex 7.49205 -9 20.6779
    endloop
  endfacet
  facet normal -0.587785 0 0.809017
    outer loop
      vertex 10.958 4.34135e-15 19.5517
      vertex 12.508 -9 20.6779
      vertex 12.508 4.59141e-15 20.6779
    endloop
  endfacet
  facet normal -0.587785 0 0.809017
    outer loop
      vertex 12.508 -9 20.6779
      vertex 10.958 4.34135e-15 19.5517
      vertex 10.958 -9 19.5517
    endloop
  endfacet
  facet normal -0.951057 0 0.309017
    outer loop
      vertex 12.508 -9 20.6779
      vertex 13.1 4.996e-15 22.5
      vertex 12.508 4.59141e-15 20.6779
    endloop
  endfacet
  facet normal -0.951057 0 0.309017
    outer loop
      vertex 13.1 4.996e-15 22.5
      vertex 12.508 -9 20.6779
      vertex 13.1 -9 22.5
    endloop
  endfacet
  facet normal -0 0 1
    outer loop
      vertex 9.04205 4.34135e-15 19.5517
      vertex 10.958 -9 19.5517
      vertex 10.958 4.34135e-15 19.5517
    endloop
  endfacet
  facet normal 0 0 1
    outer loop
      vertex 10.958 -9 19.5517
      vertex 9.04205 4.34135e-15 19.5517
      vertex 9.04205 -9 19.5517
    endloop
  endfacet
endsolid OpenSCAD_Model
