solid OpenSCAD_Model
  facet normal 1 -0 0
    outer loop
      vertex 3.5 3.5 28
      vertex 3.5 11.5 10
      vertex 3.5 11.5 28
    endloop
  endfacet
  facet normal 1 0 0
    outer loop
      vertex 3.5 11.5 10
      vertex 3.5 3.5 28
      vertex 3.5 3.5 10
    endloop
  endfacet
  facet normal 1 -0 0
    outer loop
      vertex 3.5 16.5 28
      vertex 3.5 24.5 10
      vertex 3.5 24.5 28
    endloop
  endfacet
  facet normal 1 0 0
    outer loop
      vertex 3.5 24.5 10
      vertex 3.5 16.5 28
      vertex 3.5 16.5 10
    endloop
  endfacet
  facet normal -1 0 0
    outer loop
      vertex 24.5 3.5 10
      vertex 24.5 11.5 28
      vertex 24.5 11.5 10
    endloop
  endfacet
  facet normal -1 -0 0
    outer loop
      vertex 24.5 11.5 28
      vertex 24.5 3.5 10
      vertex 24.5 3.5 28
    endloop
  endfacet
  facet normal -1 0 0
    outer loop
      vertex 24.5 16.5 10
      vertex 24.5 24.5 28
      vertex 24.5 24.5 10
    endloop
  endfacet
  facet normal -1 -0 0
    outer loop
      vertex 24.5 24.5 28
      vertex 24.5 16.5 10
      vertex 24.5 16.5 28
    endloop
  endfacet
  facet normal 0 -1 0
    outer loop
      vertex 16.5 24.5 10
      vertex 24.5 24.5 28
      vertex 16.5 24.5 28
    endloop
  endfacet
  facet normal 0 -1 -0
    outer loop
      vertex 24.5 24.5 28
      vertex 16.5 24.5 10
      vertex 24.5 24.5 10
    endloop
  endfacet
  facet normal 0 -1 0
    outer loop
      vertex 3.5 24.5 10
      vertex 11.5 24.5 28
      vertex 3.5 24.5 28
    endloop
  endfacet
  facet normal 0 -1 -0
    outer loop
      vertex 11.5 24.5 28
      vertex 3.5 24.5 10
      vertex 11.5 24.5 10
    endloop
  endfacet
  facet normal 0 0 1
    outer loop
      vertex 24.5 24.5 10
      vertex 19.1025 16.5 10
      vertex 24.5 16.5 10
    endloop
  endfacet
  facet normal 0 0 1
    outer loop
      vertex 24.5 24.5 10
      vertex 16.5 19.1025 10
      vertex 19.1025 16.5 10
    endloop
  endfacet
  facet normal 0 0 1
    outer loop
      vertex 16.5 19.1025 10
      vertex 24.5 24.5 10
      vertex 16.5 24.5 10
    endloop
  endfacet
  facet normal -0 0 1
    outer loop
      vertex 19.1025 11.5 10
      vertex 24.5 3.5 10
      vertex 24.5 11.5 10
    endloop
  endfacet
  facet normal 0 0 1
    outer loop
      vertex 19.1025 16.5 10
      vertex 16.5 19.1025 10
      vertex 19.1025 11.5 10
    endloop
  endfacet
  facet normal 0 0 1
    outer loop
      vertex 16.5 8.8975 10
      vertex 19.1025 11.5 10
      vertex 16.5 19.1025 10
    endloop
  endfacet
  facet normal -0 0 1
    outer loop
      vertex 16.5 8.8975 10
      vertex 24.5 3.5 10
      vertex 19.1025 11.5 10
    endloop
  endfacet
  facet normal 0 0 1
    outer loop
      vertex 24.5 3.5 10
      vertex 16.5 8.8975 10
      vertex 16.5 3.5 10
    endloop
  endfacet
  facet normal -0 0 1
    outer loop
      vertex 3.5 24.5 10
      vertex 11.5 19.1025 10
      vertex 11.5 24.5 10
    endloop
  endfacet
  facet normal 0 0 1
    outer loop
      vertex 11.5 19.1025 10
      vertex 8.8975 16.5 10
      vertex 11.5 8.8975 10
    endloop
  endfacet
  facet normal -0 0 1
    outer loop
      vertex 8.8975 11.5 10
      vertex 11.5 8.8975 10
      vertex 8.8975 16.5 10
    endloop
  endfacet
  facet normal 0 0 1
    outer loop
      vertex 11.5 19.1025 10
      vertex 3.5 24.5 10
      vertex 8.8975 16.5 10
    endloop
  endfacet
  facet normal 0 0 1
    outer loop
      vertex 8.8975 16.5 10
      vertex 3.5 24.5 10
      vertex 3.5 16.5 10
    endloop
  endfacet
  facet normal -0 0 1
    outer loop
      vertex 11.5 19.1025 10
      vertex 16.5 8.8975 10
      vertex 16.5 19.1025 10
    endloop
  endfacet
  facet normal 0 0 1
    outer loop
      vertex 16.5 8.8975 10
      vertex 11.5 19.1025 10
      vertex 11.5 8.8975 10
    endloop
  endfacet
  facet normal 0 0 1
    outer loop
      vertex 3.5 3.5 10
      vertex 11.5 8.8975 10
      vertex 8.8975 11.5 10
    endloop
  endfacet
  facet normal 0 0 1
    outer loop
      vertex 3.5 3.5 10
      vertex 8.8975 11.5 10
      vertex 3.5 11.5 10
    endloop
  endfacet
  facet normal 0 0 1
    outer loop
      vertex 11.5 8.8975 10
      vertex 3.5 3.5 10
      vertex 11.5 3.5 10
    endloop
  endfacet
  facet normal 0 1 -0
    outer loop
      vertex 11.5 3.5 10
      vertex 3.5 3.5 28
      vertex 11.5 3.5 28
    endloop
  endfacet
  facet normal 0 1 0
    outer loop
      vertex 3.5 3.5 28
      vertex 11.5 3.5 10
      vertex 3.5 3.5 10
    endloop
  endfacet
  facet normal 0 1 -0
    outer loop
      vertex 24.5 3.5 10
      vertex 16.5 3.5 28
      vertex 24.5 3.5 28
    endloop
  endfacet
  facet normal 0 1 0
    outer loop
      vertex 16.5 3.5 28
      vertex 24.5 3.5 10
      vertex 16.5 3.5 10
    endloop
  endfacet
  facet normal -1 0 0
    outer loop
      vertex 11.5 3.5 10
      vertex 11.5 8.8975 28
      vertex 11.5 8.8975 10
    endloop
  endfacet
  facet normal -1 -0 0
    outer loop
      vertex 11.5 8.8975 28
      vertex 11.5 3.5 10
      vertex 11.5 3.5 28
    endloop
  endfacet
  facet normal 1 -0 0
    outer loop
      vertex 16.5 3.5 28
      vertex 16.5 8.8975 10
      vertex 16.5 8.8975 28
    endloop
  endfacet
  facet normal 1 0 0
    outer loop
      vertex 16.5 8.8975 10
      vertex 16.5 3.5 28
      vertex 16.5 3.5 10
    endloop
  endfacet
  facet normal 0 1 -0
    outer loop
      vertex 16.5 8.8975 10
      vertex 11.5 8.8975 28
      vertex 16.5 8.8975 28
    endloop
  endfacet
  facet normal 0 1 0
    outer loop
      vertex 11.5 8.8975 28
      vertex 16.5 8.8975 10
      vertex 11.5 8.8975 10
    endloop
  endfacet
  facet normal -1 0 0
    outer loop
      vertex 11.5 19.1025 10
      vertex 11.5 24.5 28
      vertex 11.5 24.5 10
    endloop
  endfacet
  facet normal -1 -0 0
    outer loop
      vertex 11.5 24.5 28
      vertex 11.5 19.1025 10
      vertex 11.5 19.1025 28
    endloop
  endfacet
  facet normal 1 -0 0
    outer loop
      vertex 16.5 19.1025 28
      vertex 16.5 24.5 10
      vertex 16.5 24.5 28
    endloop
  endfacet
  facet normal 1 0 0
    outer loop
      vertex 16.5 24.5 10
      vertex 16.5 19.1025 28
      vertex 16.5 19.1025 10
    endloop
  endfacet
  facet normal 0 -1 0
    outer loop
      vertex 11.5 19.1025 10
      vertex 16.5 19.1025 28
      vertex 11.5 19.1025 28
    endloop
  endfacet
  facet normal 0 -1 -0
    outer loop
      vertex 16.5 19.1025 28
      vertex 11.5 19.1025 10
      vertex 16.5 19.1025 10
    endloop
  endfacet
  facet normal 1 -0 0
    outer loop
      vertex 8.8975 11.5 28
      vertex 8.8975 16.5 10
      vertex 8.8975 16.5 28
    endloop
  endfacet
  facet normal 1 0 0
    outer loop
      vertex 8.8975 16.5 10
      vertex 8.8975 11.5 28
      vertex 8.8975 11.5 10
    endloop
  endfacet
  facet normal 0 1 -0
    outer loop
      vertex 8.8975 16.5 10
      vertex 3.5 16.5 28
      vertex 8.8975 16.5 28
    endloop
  endfacet
  facet normal 0 1 0
    outer loop
      vertex 3.5 16.5 28
      vertex 8.8975 16.5 10
      vertex 3.5 16.5 10
    endloop
  endfacet
  facet normal 0 -1 0
    outer loop
      vertex 3.5 11.5 10
      vertex 8.8975 11.5 28
      vertex 3.5 11.5 28
    endloop
  endfacet
  facet normal 0 -1 -0
    outer loop
      vertex 8.8975 11.5 28
      vertex 3.5 11.5 10
      vertex 8.8975 11.5 10
    endloop
  endfacet
  facet normal -1 0 0
    outer loop
      vertex 19.1025 11.5 10
      vertex 19.1025 16.5 28
      vertex 19.1025 16.5 10
    endloop
  endfacet
  facet normal -1 -0 0
    outer loop
      vertex 19.1025 16.5 28
      vertex 19.1025 11.5 10
      vertex 19.1025 11.5 28
    endloop
  endfacet
  facet normal 0 -1 0
    outer loop
      vertex 19.1025 11.5 10
      vertex 24.5 11.5 28
      vertex 19.1025 11.5 28
    endloop
  endfacet
  facet normal 0 -1 -0
    outer loop
      vertex 24.5 11.5 28
      vertex 19.1025 11.5 10
      vertex 24.5 11.5 10
    endloop
  endfacet
  facet normal 0 1 -0
    outer loop
      vertex 24.5 16.5 10
      vertex 19.1025 16.5 28
      vertex 24.5 16.5 28
    endloop
  endfacet
  facet normal 0 1 0
    outer loop
      vertex 19.1025 16.5 28
      vertex 24.5 16.5 10
      vertex 19.1025 16.5 10
    endloop
  endfacet
  facet normal -1 0 0
    outer loop
      vertex 0 0 0
      vertex 0 28 28
      vertex 0 28 0
    endloop
  endfacet
  facet normal -1 -0 0
    outer loop
      vertex 0 28 28
      vertex 0 0 0
      vertex 0 0 28
    endloop
  endfacet
  facet normal 0 0 1
    outer loop
      vertex 16.5 8.8975 28
      vertex 11.5 8.8975 28
      vertex 16.5 3.5 28
    endloop
  endfacet
  facet normal -0 0 1
    outer loop
      vertex 19.1025 16.5 28
      vertex 24.5 11.5 28
      vertex 24.5 16.5 28
    endloop
  endfacet
  facet normal 0 0 1
    outer loop
      vertex 24.5 11.5 28
      vertex 19.1025 16.5 28
      vertex 19.1025 11.5 28
    endloop
  endfacet
  facet normal 0 0 1
    outer loop
      vertex 24.5 16.5 28
      vertex 28 28 28
      vertex 24.5 24.5 28
    endloop
  endfacet
  facet normal 0 0 1
    outer loop
      vertex 28 28 28
      vertex 16.5 24.5 28
      vertex 24.5 24.5 28
    endloop
  endfacet
  facet normal 0 0 1
    outer loop
      vertex 16.5 24.5 28
      vertex 11.5 24.5 28
      vertex 16.5 19.1025 28
    endloop
  endfacet
  facet normal 0 0 1
    outer loop
      vertex 28 28 28
      vertex 11.5 24.5 28
      vertex 16.5 24.5 28
    endloop
  endfacet
  facet normal -0 0 1
    outer loop
      vertex 0 28 28
      vertex 11.5 24.5 28
      vertex 28 28 28
    endloop
  endfacet
  facet normal 0 0 1
    outer loop
      vertex 0 28 28
      vertex 3.5 16.5 28
      vertex 3.5 24.5 28
    endloop
  endfacet
  facet normal 0 0 1
    outer loop
      vertex 3.5 16.5 28
      vertex 0 28 28
      vertex 3.5 11.5 28
    endloop
  endfacet
  facet normal 0 0 1
    outer loop
      vertex 0 0 28
      vertex 3.5 11.5 28
      vertex 0 28 28
    endloop
  endfacet
  facet normal 0 0 1
    outer loop
      vertex 11.5 24.5 28
      vertex 0 28 28
      vertex 3.5 24.5 28
    endloop
  endfacet
  facet normal 0 0 1
    outer loop
      vertex 28 28 28
      vertex 24.5 16.5 28
      vertex 28 0 28
    endloop
  endfacet
  facet normal -0 0 1
    outer loop
      vertex 24.5 11.5 28
      vertex 28 0 28
      vertex 24.5 16.5 28
    endloop
  endfacet
  facet normal -0 0 1
    outer loop
      vertex 24.5 3.5 28
      vertex 28 0 28
      vertex 24.5 11.5 28
    endloop
  endfacet
  facet normal -0 0 1
    outer loop
      vertex 16.5 3.5 28
      vertex 28 0 28
      vertex 24.5 3.5 28
    endloop
  endfacet
  facet normal 0 0 1
    outer loop
      vertex 11.5 3.5 28
      vertex 16.5 3.5 28
      vertex 11.5 8.8975 28
    endloop
  endfacet
  facet normal -0 0 1
    outer loop
      vertex 11.5 3.5 28
      vertex 28 0 28
      vertex 16.5 3.5 28
    endloop
  endfacet
  facet normal 0 0 1
    outer loop
      vertex 0 0 28
      vertex 11.5 3.5 28
      vertex 3.5 3.5 28
    endloop
  endfacet
  facet normal 0 0 1
    outer loop
      vertex 11.5 3.5 28
      vertex 0 0 28
      vertex 28 0 28
    endloop
  endfacet
  facet normal 0 0 1
    outer loop
      vertex 3.5 11.5 28
      vertex 0 0 28
      vertex 3.5 3.5 28
    endloop
  endfacet
  facet normal 0 0 1
    outer loop
      vertex 16.5 19.1025 28
      vertex 11.5 24.5 28
      vertex 11.5 19.1025 28
    endloop
  endfacet
  facet normal -0 0 1
    outer loop
      vertex 3.5 16.5 28
      vertex 8.8975 11.5 28
      vertex 8.8975 16.5 28
    endloop
  endfacet
  facet normal 0 0 1
    outer loop
      vertex 8.8975 11.5 28
      vertex 3.5 16.5 28
      vertex 3.5 11.5 28
    endloop
  endfacet
  facet normal 1 -0 0
    outer loop
      vertex 28 0 28
      vertex 28 28 0
      vertex 28 28 28
    endloop
  endfacet
  facet normal 1 0 0
    outer loop
      vertex 28 28 0
      vertex 28 0 28
      vertex 28 0 0
    endloop
  endfacet
  facet normal 0 1 -0
    outer loop
      vertex 28 28 0
      vertex 0 28 28
      vertex 28 28 28
    endloop
  endfacet
  facet normal 0 1 0
    outer loop
      vertex 0 28 28
      vertex 28 28 0
      vertex 0 28 0
    endloop
  endfacet
  facet normal 0 0 -1
    outer loop
      vertex 0 0 0
      vertex 28 28 0
      vertex 28 0 0
    endloop
  endfacet
  facet normal -0 0 -1
    outer loop
      vertex 28 28 0
      vertex 0 0 0
      vertex 0 28 0
    endloop
  endfacet
  facet normal 0 -1 0
    outer loop
      vertex 0 0 0
      vertex 28 0 28
      vertex 0 0 28
    endloop
  endfacet
  facet normal 0 -1 -0
    outer loop
      vertex 28 0 28
      vertex 0 0 0
      vertex 28 0 0
    endloop
  endfacet
endsolid OpenSCAD_Model
