solid OpenSCAD_Model
  facet normal 0.156434 -0.987688 0
    outer loop
      vertex 7.5 -14.3 5.12289
      vertex 7.5 -14.3 1.77636e-15
      vertex 7.90945 -14.2351 4.98985
    endloop
  endfacet
  facet normal 0.156434 -0.987688 0
    outer loop
      vertex 7.5 -14.3 17.6229
      vertex 7.90945 -14.2351 7.51015
      vertex 7.90945 -14.2351 17.4898
    endloop
  endfacet
  facet normal 0.156434 -0.987688 0
    outer loop
      vertex 7.90945 -14.2351 7.51015
      vertex 7.5 -14.3 17.6229
      vertex 7.5 -14.3 7.37711
    endloop
  endfacet
  facet normal 0.156434 -0.987688 2.5355e-08
    outer loop
      vertex 7.5 -14.3 25
      vertex 7.90945 -14.2351 20.0101
      vertex 9.44681 -13.9917 25
    endloop
  endfacet
  facet normal 0.156434 -0.987688 0
    outer loop
      vertex 7.90945 -14.2351 20.0101
      vertex 7.5 -14.3 25
      vertex 7.5 -14.3 19.8771
    endloop
  endfacet
  facet normal 0.156434 -0.987688 8.94223e-08
    outer loop
      vertex 8.825 -14.0901 18.75
      vertex 9.44681 -13.9917 25
      vertex 7.90945 -14.2351 20.0101
    endloop
  endfacet
  facet normal 0.156434 -0.987688 0
    outer loop
      vertex 7.90945 -14.2351 7.51015
      vertex 8.825 -14.0901 18.75
      vertex 7.90945 -14.2351 17.4898
    endloop
  endfacet
  facet normal 0.156434 -0.987688 0
    outer loop
      vertex 8.825 -14.0901 6.25
      vertex 8.825 -14.0901 18.75
      vertex 7.90945 -14.2351 7.51015
    endloop
  endfacet
  facet normal 0.156435 -0.987688 0
    outer loop
      vertex 8.825 -14.0901 18.75
      vertex 8.825 -14.0901 6.25
      vertex 9.44681 -13.9917 25
    endloop
  endfacet
  facet normal 0.156434 -0.987688 -2.53551e-08
    outer loop
      vertex 9.44681 -13.9917 1.77636e-15
      vertex 7.90945 -14.2351 4.98985
      vertex 7.5 -14.3 1.77636e-15
    endloop
  endfacet
  facet normal 0.156435 -0.987688 0
    outer loop
      vertex 8.825 -14.0901 6.25
      vertex 9.44681 -13.9917 1.77636e-15
      vertex 9.44681 -13.9917 25
    endloop
  endfacet
  facet normal 0.156434 -0.987688 -8.94223e-08
    outer loop
      vertex 7.90945 -14.2351 4.98985
      vertex 9.44681 -13.9917 1.77636e-15
      vertex 8.825 -14.0901 6.25
    endloop
  endfacet
  facet normal 0.45399 -0.891007 0
    outer loop
      vertex 9.44681 -13.9917 1.77636e-15
      vertex 10.2013 -13.6072 25
      vertex 9.44681 -13.9917 25
    endloop
  endfacet
  facet normal 0.45399 -0.891007 0
    outer loop
      vertex 10.2013 -13.6072 25
      vertex 9.44681 -13.9917 1.77636e-15
      vertex 10.2013 -13.6072 1.77636e-15
    endloop
  endfacet
  facet normal 0 0 1
    outer loop
      vertex 7.5 -1.7 25
      vertex 9.95 -2.26473 25
      vertex 9.44681 -2.00834 25
    endloop
  endfacet
  facet normal 0 0 1
    outer loop
      vertex 13.25 -10.4 25
      vertex 13.1072 -10.7013 25
      vertex 13.25 -10.4211 25
    endloop
  endfacet
  facet normal -0 0 1
    outer loop
      vertex 9.95 -10.4 25
      vertex 13.1072 -10.7013 25
      vertex 13.25 -10.4 25
    endloop
  endfacet
  facet normal 0 0 1
    outer loop
      vertex 13.1072 -10.7013 25
      vertex 9.95 -10.4 25
      vertex 10.2013 -13.6072 25
    endloop
  endfacet
  facet normal 0 0 1
    outer loop
      vertex 9.95 -10.4 25
      vertex 9.44681 -13.9917 25
      vertex 10.2013 -13.6072 25
    endloop
  endfacet
  facet normal 0 0 1
    outer loop
      vertex 9.95 -2.26473 25
      vertex 7.5 -1.7 25
      vertex 9.95 -10.4 25
    endloop
  endfacet
  facet normal 0 0 1
    outer loop
      vertex 9.95 -10.4 25
      vertex 7.5 -1.7 25
      vertex 5.05 -10.4 25
    endloop
  endfacet
  facet normal 0 -0 1
    outer loop
      vertex 7.5 -14.3 25
      vertex 9.95 -10.4 25
      vertex 5.05 -10.4 25
    endloop
  endfacet
  facet normal 0 0 1
    outer loop
      vertex 5.05 -2.26473 25
      vertex 7.5 -1.7 25
      vertex 5.55319 -2.00834 25
    endloop
  endfacet
  facet normal 0 0 1
    outer loop
      vertex 9.95 -10.4 25
      vertex 7.5 -14.3 25
      vertex 9.44681 -13.9917 25
    endloop
  endfacet
  facet normal 0 0 1
    outer loop
      vertex 7.5 -1.7 25
      vertex 5.05 -2.26473 25
      vertex 5.05 -10.4 25
    endloop
  endfacet
  facet normal 0 0 1
    outer loop
      vertex 7.5 -14.3 25
      vertex 5.05 -10.4 25
      vertex 5.55319 -13.9917 25
    endloop
  endfacet
  facet normal 0 0 1
    outer loop
      vertex 5.05 -10.4 25
      vertex 4.79873 -13.6072 25
      vertex 5.55319 -13.9917 25
    endloop
  endfacet
  facet normal 0 0 1
    outer loop
      vertex 5.05 -10.4 25
      vertex 1.89276 -10.7013 25
      vertex 4.79873 -13.6072 25
    endloop
  endfacet
  facet normal -0 0 1
    outer loop
      vertex 1.75 -10.4 25
      vertex 1.89276 -10.7013 25
      vertex 5.05 -10.4 25
    endloop
  endfacet
  facet normal 0 0 1
    outer loop
      vertex 1.89276 -10.7013 25
      vertex 1.75 -10.4 25
      vertex 1.75 -10.4211 25
    endloop
  endfacet
  facet normal 0.891007 -0.45399 0
    outer loop
      vertex 13.1072 -10.7013 25
      vertex 13.25 -10.4211 1.77636e-15
      vertex 13.25 -10.4211 25
    endloop
  endfacet
  facet normal 0.891007 -0.45399 0
    outer loop
      vertex 13.25 -10.4211 1.77636e-15
      vertex 13.1072 -10.7013 25
      vertex 13.1072 -10.7013 1.77636e-15
    endloop
  endfacet
  facet normal -0.45399 -0.891007 0
    outer loop
      vertex 4.79873 -13.6072 1.77636e-15
      vertex 5.55319 -13.9917 25
      vertex 4.79873 -13.6072 25
    endloop
  endfacet
  facet normal -0.45399 -0.891007 -0
    outer loop
      vertex 5.55319 -13.9917 25
      vertex 4.79873 -13.6072 1.77636e-15
      vertex 5.55319 -13.9917 1.77636e-15
    endloop
  endfacet
  facet normal 0 0 -1
    outer loop
      vertex 4.79873 -13.6072 1.77636e-15
      vertex 5.05 -10.4 1.77636e-15
      vertex 5.55319 -13.9917 1.77636e-15
    endloop
  endfacet
  facet normal 0 0 -1
    outer loop
      vertex 1.89276 -10.7013 1.77636e-15
      vertex 5.05 -10.4 1.77636e-15
      vertex 4.79873 -13.6072 1.77636e-15
    endloop
  endfacet
  facet normal 0 0 -1
    outer loop
      vertex 1.75 -10.4 1.77636e-15
      vertex 1.89276 -10.7013 1.77636e-15
      vertex 1.75 -10.4211 1.77636e-15
    endloop
  endfacet
  facet normal 0 0 -1
    outer loop
      vertex 1.89276 -10.7013 1.77636e-15
      vertex 1.75 -10.4 1.77636e-15
      vertex 5.05 -10.4 1.77636e-15
    endloop
  endfacet
  facet normal 0 0 -1
    outer loop
      vertex 13.1072 -10.7013 1.77636e-15
      vertex 13.25 -10.4 1.77636e-15
      vertex 13.25 -10.4211 1.77636e-15
    endloop
  endfacet
  facet normal 0 0 -1
    outer loop
      vertex 9.95 -10.4 1.77636e-15
      vertex 13.1072 -10.7013 1.77636e-15
      vertex 10.2013 -13.6072 1.77636e-15
    endloop
  endfacet
  facet normal 0 0 -1
    outer loop
      vertex 13.1072 -10.7013 1.77636e-15
      vertex 9.95 -10.4 1.77636e-15
      vertex 13.25 -10.4 1.77636e-15
    endloop
  endfacet
  facet normal 0 0 -1
    outer loop
      vertex 9.44681 -13.9917 1.77636e-15
      vertex 9.95 -10.4 1.77636e-15
      vertex 10.2013 -13.6072 1.77636e-15
    endloop
  endfacet
  facet normal 0 0 -1
    outer loop
      vertex 7.5 -14.3 1.77636e-15
      vertex 9.95 -10.4 1.77636e-15
      vertex 9.44681 -13.9917 1.77636e-15
    endloop
  endfacet
  facet normal -0 0 -1
    outer loop
      vertex 9.95 -10.4 1.77636e-15
      vertex 7.5 -14.3 1.77636e-15
      vertex 5.05 -10.4 1.77636e-15
    endloop
  endfacet
  facet normal 0 0 -1
    outer loop
      vertex 5.05 -10.4 1.77636e-15
      vertex 7.5 -14.3 1.77636e-15
      vertex 5.55319 -13.9917 1.77636e-15
    endloop
  endfacet
  facet normal 0 0 -1
    outer loop
      vertex 9.95 -10.4 1.77636e-15
      vertex 5.05 -10.4 1.77636e-15
      vertex 9.95 -8 1.77636e-15
    endloop
  endfacet
  facet normal -0 0 -1
    outer loop
      vertex 9.95 -8 1.77636e-15
      vertex 5.05 -10.4 1.77636e-15
      vertex 5.05 -8 1.77636e-15
    endloop
  endfacet
  facet normal -0.156434 -0.987688 0
    outer loop
      vertex 5.55319 -13.9917 25
      vertex 7.5 -14.3 19.8771
      vertex 7.5 -14.3 25
    endloop
  endfacet
  facet normal -0.156434 -0.987688 2.97018e-08
    outer loop
      vertex 5.55319 -13.9917 25
      vertex 6.42805 -14.1302 19.5288
      vertex 7.5 -14.3 19.8771
    endloop
  endfacet
  facet normal -0.156435 -0.987688 0
    outer loop
      vertex 5.55319 -13.9917 25
      vertex 6.42805 -14.1302 17.9712
      vertex 6.42805 -14.1302 19.5288
    endloop
  endfacet
  facet normal -0.156434 -0.987688 0
    outer loop
      vertex 6.42805 -14.1302 17.9712
      vertex 7.5 -14.3 7.37711
      vertex 7.5 -14.3 17.6229
    endloop
  endfacet
  facet normal -0.156435 -0.987688 0
    outer loop
      vertex 6.42805 -14.1302 7.02882
      vertex 6.42805 -14.1302 17.9712
      vertex 5.55319 -13.9917 25
    endloop
  endfacet
  facet normal -0.156434 -0.987688 -0
    outer loop
      vertex 6.42805 -14.1302 17.9712
      vertex 6.42805 -14.1302 7.02882
      vertex 7.5 -14.3 7.37711
    endloop
  endfacet
  facet normal -0.156435 -0.987688 0
    outer loop
      vertex 5.55319 -13.9917 1.77636e-15
      vertex 6.42805 -14.1302 7.02882
      vertex 5.55319 -13.9917 25
    endloop
  endfacet
  facet normal -0.156435 -0.987688 -0
    outer loop
      vertex 6.42805 -14.1302 7.02882
      vertex 5.55319 -13.9917 1.77636e-15
      vertex 6.42805 -14.1302 5.47118
    endloop
  endfacet
  facet normal -0.156434 -0.987688 -2.97018e-08
    outer loop
      vertex 5.55319 -13.9917 1.77636e-15
      vertex 7.5 -14.3 5.12289
      vertex 6.42805 -14.1302 5.47118
    endloop
  endfacet
  facet normal -0.156434 -0.987688 -0
    outer loop
      vertex 7.5 -14.3 5.12289
      vertex 5.55319 -13.9917 1.77636e-15
      vertex 7.5 -14.3 1.77636e-15
    endloop
  endfacet
  facet normal -0.891006 -0.453991 0
    outer loop
      vertex 1.89276 -10.7013 1.77636e-15
      vertex 1.75 -10.4211 25
      vertex 1.75 -10.4211 1.77636e-15
    endloop
  endfacet
  facet normal -0.891006 -0.453991 0
    outer loop
      vertex 1.75 -10.4211 25
      vertex 1.89276 -10.7013 1.77636e-15
      vertex 1.89276 -10.7013 25
    endloop
  endfacet
  facet normal 1 -0 0
    outer loop
      vertex 13.25 -10.4211 25
      vertex 13.25 -10.4 1.77636e-15
      vertex 13.25 -10.4 25
    endloop
  endfacet
  facet normal 1 0 0
    outer loop
      vertex 13.25 -10.4 1.77636e-15
      vertex 13.25 -10.4211 25
      vertex 13.25 -10.4211 1.77636e-15
    endloop
  endfacet
  facet normal -1 0 0
    outer loop
      vertex 1.75 -10.4211 1.77636e-15
      vertex 1.75 -10.4 25
      vertex 1.75 -10.4 1.77636e-15
    endloop
  endfacet
  facet normal -1 -0 0
    outer loop
      vertex 1.75 -10.4 25
      vertex 1.75 -10.4211 1.77636e-15
      vertex 1.75 -10.4211 25
    endloop
  endfacet
  facet normal 1 -0 0
    outer loop
      vertex 9.95 -10.4 25
      vertex 9.95 -8 1.77636e-15
      vertex 9.95 -8 25
    endloop
  endfacet
  facet normal 1 0 0
    outer loop
      vertex 9.95 -8 1.77636e-15
      vertex 9.95 -10.4 25
      vertex 9.95 -10.4 1.77636e-15
    endloop
  endfacet
  facet normal 0 0 0
    outer loop
      vertex 9.95 -10.4 25
      vertex 9.95 -8 25
      vertex 9.95 -2.26473 25
    endloop
  endfacet
  facet normal 0 1 -0
    outer loop
      vertex 13.25 -10.4 1.77636e-15
      vertex 9.95 -10.4 25
      vertex 13.25 -10.4 25
    endloop
  endfacet
  facet normal 0 1 0
    outer loop
      vertex 9.95 -10.4 25
      vertex 13.25 -10.4 1.77636e-15
      vertex 9.95 -10.4 1.77636e-15
    endloop
  endfacet
  facet normal -1 0 0
    outer loop
      vertex 5.05 -10.4 1.77636e-15
      vertex 5.05 -8 25
      vertex 5.05 -8 1.77636e-15
    endloop
  endfacet
  facet normal -1 -0 0
    outer loop
      vertex 5.05 -8 25
      vertex 5.05 -10.4 1.77636e-15
      vertex 5.05 -10.4 25
    endloop
  endfacet
  facet normal 0 0 0
    outer loop
      vertex 5.05 -8 25
      vertex 5.05 -10.4 25
      vertex 5.05 -2.26473 25
    endloop
  endfacet
  facet normal 0 1 -0
    outer loop
      vertex 5.05 -10.4 1.77636e-15
      vertex 1.75 -10.4 25
      vertex 5.05 -10.4 25
    endloop
  endfacet
  facet normal 0 1 0
    outer loop
      vertex 1.75 -10.4 25
      vertex 5.05 -10.4 1.77636e-15
      vertex 1.75 -10.4 1.77636e-15
    endloop
  endfacet
  facet normal 0.707107 -0.707107 0
    outer loop
      vertex 10.2013 -13.6072 25
      vertex 13.1072 -10.7013 1.77636e-15
      vertex 13.1072 -10.7013 25
    endloop
  endfacet
  facet normal 0.707107 -0.707107 0
    outer loop
      vertex 13.1072 -10.7013 1.77636e-15
      vertex 10.2013 -13.6072 25
      vertex 10.2013 -13.6072 1.77636e-15
    endloop
  endfacet
  facet normal -0.707107 -0.707107 0
    outer loop
      vertex 4.79873 -13.6072 1.77636e-15
      vertex 1.89276 -10.7013 25
      vertex 1.89276 -10.7013 1.77636e-15
    endloop
  endfacet
  facet normal -0.707107 -0.707107 0
    outer loop
      vertex 1.89276 -10.7013 25
      vertex 4.79873 -13.6072 1.77636e-15
      vertex 4.79873 -13.6072 25
    endloop
  endfacet
  facet normal -1 0 0
    outer loop
      vertex 0 -8 1.77636e-15
      vertex 0 5.55112e-15 25
      vertex 0 0 0
    endloop
  endfacet
  facet normal -1 -0 0
    outer loop
      vertex 0 5.55112e-15 25
      vertex 0 -8 1.77636e-15
      vertex 0 -8 25
    endloop
  endfacet
  facet normal 0 -1 0
    outer loop
      vertex 0 -8 1.77636e-15
      vertex 5.05 -8 25
      vertex 0 -8 25
    endloop
  endfacet
  facet normal 0 -1 -0
    outer loop
      vertex 5.05 -8 25
      vertex 0 -8 1.77636e-15
      vertex 5.05 -8 1.77636e-15
    endloop
  endfacet
  facet normal 0 -1 0
    outer loop
      vertex 9.95 -8 1.77636e-15
      vertex 15 -8 25
      vertex 9.95 -8 25
    endloop
  endfacet
  facet normal 0 -1 -0
    outer loop
      vertex 15 -8 25
      vertex 9.95 -8 1.77636e-15
      vertex 15 -8 1.77636e-15
    endloop
  endfacet
  facet normal 1 -0 0
    outer loop
      vertex 15 -8 25
      vertex 15 0 0
      vertex 15 5.55112e-15 25
    endloop
  endfacet
  facet normal 1 0 0
    outer loop
      vertex 15 0 0
      vertex 15 -8 25
      vertex 15 -8 1.77636e-15
    endloop
  endfacet
  facet normal 0 0 1
    outer loop
      vertex 15 5.55112e-15 25
      vertex 9.95 -2.26473 25
      vertex 15 -8 25
    endloop
  endfacet
  facet normal 0 0 1
    outer loop
      vertex 15 5.55112e-15 25
      vertex 9.44681 -2.00834 25
      vertex 9.95 -2.26473 25
    endloop
  endfacet
  facet normal 0 0 1
    outer loop
      vertex 15 5.55112e-15 25
      vertex 7.5 -1.7 25
      vertex 9.44681 -2.00834 25
    endloop
  endfacet
  facet normal -0 0 1
    outer loop
      vertex 0 5.55112e-15 25
      vertex 7.5 -1.7 25
      vertex 15 5.55112e-15 25
    endloop
  endfacet
  facet normal 0 0 1
    outer loop
      vertex 7.5 -1.7 25
      vertex 0 5.55112e-15 25
      vertex 5.55319 -2.00834 25
    endloop
  endfacet
  facet normal 0 0 1
    outer loop
      vertex 0 5.55112e-15 25
      vertex 5.05 -2.26473 25
      vertex 5.55319 -2.00834 25
    endloop
  endfacet
  facet normal 0 0 1
    outer loop
      vertex 0 -8 25
      vertex 5.05 -2.26473 25
      vertex 0 5.55112e-15 25
    endloop
  endfacet
  facet normal 0 0 1
    outer loop
      vertex 5.05 -2.26473 25
      vertex 0 -8 25
      vertex 5.05 -8 25
    endloop
  endfacet
  facet normal 0 0 1
    outer loop
      vertex 15 -8 25
      vertex 9.95 -2.26473 25
      vertex 9.95 -8 25
    endloop
  endfacet
  facet normal 0 1 -2.22045e-16
    outer loop
      vertex 15 5.55112e-15 25
      vertex 8.45795 4.81798e-15 21.6983
      vertex 0 5.55112e-15 25
    endloop
  endfacet
  facet normal 0 1 -2.22045e-16
    outer loop
      vertex 15 5.55112e-15 25
      vertex 10.008 4.56793e-15 20.5721
      vertex 8.45795 4.81798e-15 21.6983
    endloop
  endfacet
  facet normal 0 1 -2.22045e-16
    outer loop
      vertex 15 5.55112e-15 25
      vertex 10.6 4.16334e-15 18.75
      vertex 10.008 4.56793e-15 20.5721
    endloop
  endfacet
  facet normal 0 1 -2.22045e-16
    outer loop
      vertex 15 5.55112e-15 25
      vertex 10.008 3.75874e-15 16.9279
      vertex 10.6 4.16334e-15 18.75
    endloop
  endfacet
  facet normal 0 1 -2.22045e-16
    outer loop
      vertex 8.45795 3.50869e-15 15.8017
      vertex 8.45795 2.04243e-15 9.19827
      vertex 6.54205 3.50869e-15 15.8017
    endloop
  endfacet
  facet normal 0 1 -2.22045e-16
    outer loop
      vertex 10.008 3.75874e-15 16.9279
      vertex 8.45795 2.04243e-15 9.19827
      vertex 8.45795 3.50869e-15 15.8017
    endloop
  endfacet
  facet normal 0 1 -2.22045e-16
    outer loop
      vertex 10.008 1.79237e-15 8.07213
      vertex 10.008 3.75874e-15 16.9279
      vertex 15 5.55112e-15 25
    endloop
  endfacet
  facet normal 0 1 -2.22045e-16
    outer loop
      vertex 10.008 3.75874e-15 16.9279
      vertex 10.008 1.79237e-15 8.07213
      vertex 8.45795 2.04243e-15 9.19827
    endloop
  endfacet
  facet normal 0 1 -2.22045e-16
    outer loop
      vertex 15 0 0
      vertex 10.008 1.79237e-15 8.07213
      vertex 15 5.55112e-15 25
    endloop
  endfacet
  facet normal 0 1 -2.22045e-16
    outer loop
      vertex 8.45795 7.3313e-16 3.30172
      vertex 15 0 0
      vertex 6.54205 7.3313e-16 3.30172
    endloop
  endfacet
  facet normal 0 1 -2.22045e-16
    outer loop
      vertex 10.008 9.83184e-16 4.42787
      vertex 15 0 0
      vertex 8.45795 7.3313e-16 3.30172
    endloop
  endfacet
  facet normal 0 1 -2.22045e-16
    outer loop
      vertex 10.6 1.38778e-15 6.25
      vertex 15 0 0
      vertex 10.008 9.83184e-16 4.42787
    endloop
  endfacet
  facet normal 0 1 -2.22045e-16
    outer loop
      vertex 10.008 1.79237e-15 8.07213
      vertex 15 0 0
      vertex 10.6 1.38778e-15 6.25
    endloop
  endfacet
  facet normal 0 1 -2.22045e-16
    outer loop
      vertex 6.54205 4.81798e-15 21.6983
      vertex 0 5.55112e-15 25
      vertex 8.45795 4.81798e-15 21.6983
    endloop
  endfacet
  facet normal 0 1 -2.22045e-16
    outer loop
      vertex 4.99205 4.56793e-15 20.5721
      vertex 0 5.55112e-15 25
      vertex 6.54205 4.81798e-15 21.6983
    endloop
  endfacet
  facet normal 0 1 -2.22045e-16
    outer loop
      vertex 4.4 4.16334e-15 18.75
      vertex 0 5.55112e-15 25
      vertex 4.99205 4.56793e-15 20.5721
    endloop
  endfacet
  facet normal 0 1 -2.22045e-16
    outer loop
      vertex 4.99205 3.75874e-15 16.9279
      vertex 0 5.55112e-15 25
      vertex 4.4 4.16334e-15 18.75
    endloop
  endfacet
  facet normal 0 1 -2.22045e-16
    outer loop
      vertex 6.54205 2.04243e-15 9.19827
      vertex 6.54205 3.50869e-15 15.8017
      vertex 8.45795 2.04243e-15 9.19827
    endloop
  endfacet
  facet normal 0 1 -2.22045e-16
    outer loop
      vertex 6.54205 3.50869e-15 15.8017
      vertex 6.54205 2.04243e-15 9.19827
      vertex 4.99205 3.75874e-15 16.9279
    endloop
  endfacet
  facet normal 0 1 -2.22045e-16
    outer loop
      vertex 4.99205 1.79237e-15 8.07213
      vertex 4.99205 3.75874e-15 16.9279
      vertex 6.54205 2.04243e-15 9.19827
    endloop
  endfacet
  facet normal 0 1 -2.22045e-16
    outer loop
      vertex 4.99205 3.75874e-15 16.9279
      vertex 4.99205 1.79237e-15 8.07213
      vertex 0 5.55112e-15 25
    endloop
  endfacet
  facet normal 0 1 -2.22045e-16
    outer loop
      vertex 0 0 0
      vertex 4.99205 1.79237e-15 8.07213
      vertex 4.4 1.38778e-15 6.25
    endloop
  endfacet
  facet normal 0 1 -2.22045e-16
    outer loop
      vertex 4.99205 1.79237e-15 8.07213
      vertex 0 0 0
      vertex 0 5.55112e-15 25
    endloop
  endfacet
  facet normal 0 1 -2.22045e-16
    outer loop
      vertex 4.99205 9.83184e-16 4.42787
      vertex 0 0 0
      vertex 4.4 1.38778e-15 6.25
    endloop
  endfacet
  facet normal 0 1 -2.22045e-16
    outer loop
      vertex 6.54205 7.3313e-16 3.30172
      vertex 0 0 0
      vertex 4.99205 9.83184e-16 4.42787
    endloop
  endfacet
  facet normal 0 1 -2.22045e-16
    outer loop
      vertex 0 0 0
      vertex 6.54205 7.3313e-16 3.30172
      vertex 15 0 0
    endloop
  endfacet
  facet normal 0 -2.22045e-16 -1
    outer loop
      vertex 9.95 -8 1.77636e-15
      vertex 15 0 0
      vertex 15 -8 1.77636e-15
    endloop
  endfacet
  facet normal 0 -2.22045e-16 -1
    outer loop
      vertex 5.05 -8 1.77636e-15
      vertex 15 0 0
      vertex 9.95 -8 1.77636e-15
    endloop
  endfacet
  facet normal 0 -2.22045e-16 -1
    outer loop
      vertex 0 0 0
      vertex 5.05 -8 1.77636e-15
      vertex 0 -8 1.77636e-15
    endloop
  endfacet
  facet normal 0 -2.22045e-16 -1
    outer loop
      vertex 5.05 -8 1.77636e-15
      vertex 0 0 0
      vertex 15 0 0
    endloop
  endfacet
  facet normal -0.809017 0 -0.587786
    outer loop
      vertex 8.825 -14.0901 6.25
      vertex 7.90945 -7 7.51015
      vertex 8.825 -7 6.25
    endloop
  endfacet
  facet normal -0.809017 -0 -0.587786
    outer loop
      vertex 7.90945 -7 7.51015
      vertex 8.825 -14.0901 6.25
      vertex 7.90945 -14.2351 7.51015
    endloop
  endfacet
  facet normal 1 -0 0
    outer loop
      vertex 6.42805 -14.1302 7.02882
      vertex 6.42805 -7 5.47118
      vertex 6.42805 -7 7.02882
    endloop
  endfacet
  facet normal 1 0 0
    outer loop
      vertex 6.42805 -7 5.47118
      vertex 6.42805 -14.1302 7.02882
      vertex 6.42805 -14.1302 5.47118
    endloop
  endfacet
  facet normal 0.309017 -4.56765e-07 -0.951057
    outer loop
      vertex 6.42805 -14.1302 7.02882
      vertex 7.90945 -14.2351 7.51015
      vertex 7.5 -14.3 7.37711
    endloop
  endfacet
  facet normal 0.309017 0 -0.951057
    outer loop
      vertex 7.90945 -14.2351 7.51015
      vertex 6.42805 -14.1302 7.02882
      vertex 7.90945 -7 7.51015
    endloop
  endfacet
  facet normal 0.309017 0 -0.951057
    outer loop
      vertex 7.90945 -7 7.51015
      vertex 6.42805 -14.1302 7.02882
      vertex 6.42805 -7 7.02882
    endloop
  endfacet
  facet normal -0.809017 0 0.587785
    outer loop
      vertex 7.90945 -7 4.98985
      vertex 8.825 -14.0901 6.25
      vertex 8.825 -7 6.25
    endloop
  endfacet
  facet normal -0.809017 0 0.587785
    outer loop
      vertex 8.825 -14.0901 6.25
      vertex 7.90945 -7 4.98985
      vertex 7.90945 -14.2351 4.98985
    endloop
  endfacet
  facet normal 0.309017 0 0.951057
    outer loop
      vertex 6.42805 -14.1302 5.47118
      vertex 7.90945 -14.2351 4.98985
      vertex 7.90945 -7 4.98985
    endloop
  endfacet
  facet normal 0.309017 -0 0.951057
    outer loop
      vertex 6.42805 -14.1302 5.47118
      vertex 7.90945 -7 4.98985
      vertex 6.42805 -7 5.47118
    endloop
  endfacet
  facet normal 0.309017 -4.56765e-07 0.951057
    outer loop
      vertex 7.90945 -14.2351 4.98985
      vertex 6.42805 -14.1302 5.47118
      vertex 7.5 -14.3 5.12289
    endloop
  endfacet
  facet normal -0.809017 0 -0.587786
    outer loop
      vertex 8.825 -14.0901 18.75
      vertex 7.90945 -7 20.0101
      vertex 8.825 -7 18.75
    endloop
  endfacet
  facet normal -0.809017 -0 -0.587786
    outer loop
      vertex 7.90945 -7 20.0101
      vertex 8.825 -14.0901 18.75
      vertex 7.90945 -14.2351 20.0101
    endloop
  endfacet
  facet normal 1 -0 0
    outer loop
      vertex 6.42805 -14.1302 19.5288
      vertex 6.42805 -7 17.9712
      vertex 6.42805 -7 19.5288
    endloop
  endfacet
  facet normal 1 0 0
    outer loop
      vertex 6.42805 -7 17.9712
      vertex 6.42805 -14.1302 19.5288
      vertex 6.42805 -14.1302 17.9712
    endloop
  endfacet
  facet normal 0.309017 7.04642e-06 -0.951057
    outer loop
      vertex 6.42805 -14.1302 19.5288
      vertex 7.90945 -14.2351 20.0101
      vertex 7.5 -14.3 19.8771
    endloop
  endfacet
  facet normal 0.309016 0 -0.951057
    outer loop
      vertex 7.90945 -14.2351 20.0101
      vertex 6.42805 -14.1302 19.5288
      vertex 7.90945 -7 20.0101
    endloop
  endfacet
  facet normal 0.309016 0 -0.951057
    outer loop
      vertex 7.90945 -7 20.0101
      vertex 6.42805 -14.1302 19.5288
      vertex 6.42805 -7 19.5288
    endloop
  endfacet
  facet normal -0.809017 0 0.587785
    outer loop
      vertex 7.90945 -7 17.4898
      vertex 8.825 -14.0901 18.75
      vertex 8.825 -7 18.75
    endloop
  endfacet
  facet normal -0.809017 0 0.587785
    outer loop
      vertex 8.825 -14.0901 18.75
      vertex 7.90945 -7 17.4898
      vertex 7.90945 -14.2351 17.4898
    endloop
  endfacet
  facet normal 0.309017 0 0.951056
    outer loop
      vertex 6.42805 -14.1302 17.9712
      vertex 7.90945 -14.2351 17.4898
      vertex 7.90945 -7 17.4898
    endloop
  endfacet
  facet normal 0.309017 -0 0.951056
    outer loop
      vertex 6.42805 -14.1302 17.9712
      vertex 7.90945 -7 17.4898
      vertex 6.42805 -7 17.9712
    endloop
  endfacet
  facet normal 0.309017 1.70421e-06 0.951056
    outer loop
      vertex 7.90945 -14.2351 17.4898
      vertex 6.42805 -14.1302 17.9712
      vertex 7.5 -14.3 17.6229
    endloop
  endfacet
  facet normal -0.951056 0 -0.309017
    outer loop
      vertex 10.6 -7 6.25
      vertex 10.008 1.79237e-15 8.07213
      vertex 10.6 1.38778e-15 6.25
    endloop
  endfacet
  facet normal -0.951056 -0 -0.309017
    outer loop
      vertex 10.008 1.79237e-15 8.07213
      vertex 10.6 -7 6.25
      vertex 10.008 -7 8.07213
    endloop
  endfacet
  facet normal 0.587785 0 -0.809017
    outer loop
      vertex 4.99205 -7 8.07213
      vertex 6.54205 2.04243e-15 9.19827
      vertex 6.54205 -7 9.19827
    endloop
  endfacet
  facet normal 0.587785 0 -0.809017
    outer loop
      vertex 6.54205 2.04243e-15 9.19827
      vertex 4.99205 -7 8.07213
      vertex 4.99205 1.79237e-15 8.07213
    endloop
  endfacet
  facet normal -0.587785 0 -0.809017
    outer loop
      vertex 8.45795 -7 9.19827
      vertex 10.008 1.79237e-15 8.07213
      vertex 10.008 -7 8.07213
    endloop
  endfacet
  facet normal -0.587785 0 -0.809017
    outer loop
      vertex 10.008 1.79237e-15 8.07213
      vertex 8.45795 -7 9.19827
      vertex 8.45795 2.04243e-15 9.19827
    endloop
  endfacet
  facet normal 0 1 0
    outer loop
      vertex 7.90945 -7 7.51015
      vertex 8.45795 -7 9.19827
      vertex 10.008 -7 8.07213
    endloop
  endfacet
  facet normal 0 1 0
    outer loop
      vertex 8.45795 -7 9.19827
      vertex 7.90945 -7 7.51015
      vertex 6.54205 -7 9.19827
    endloop
  endfacet
  facet normal 0 1 0
    outer loop
      vertex 6.42805 -7 7.02882
      vertex 6.54205 -7 9.19827
      vertex 7.90945 -7 7.51015
    endloop
  endfacet
  facet normal 0 1 0
    outer loop
      vertex 8.825 -7 6.25
      vertex 10.008 -7 8.07213
      vertex 10.6 -7 6.25
    endloop
  endfacet
  facet normal 0 1 0
    outer loop
      vertex 10.008 -7 8.07213
      vertex 8.825 -7 6.25
      vertex 7.90945 -7 7.51015
    endloop
  endfacet
  facet normal 0 1 -0
    outer loop
      vertex 10.008 -7 4.42787
      vertex 8.825 -7 6.25
      vertex 10.6 -7 6.25
    endloop
  endfacet
  facet normal 0 1 0
    outer loop
      vertex 8.825 -7 6.25
      vertex 10.008 -7 4.42787
      vertex 7.90945 -7 4.98985
    endloop
  endfacet
  facet normal 0 1 0
    outer loop
      vertex 6.54205 -7 9.19827
      vertex 6.42805 -7 7.02882
      vertex 4.99205 -7 8.07213
    endloop
  endfacet
  facet normal 0 1 0
    outer loop
      vertex 6.42805 -7 7.02882
      vertex 4.4 -7 6.25
      vertex 4.99205 -7 8.07213
    endloop
  endfacet
  facet normal 0 1 -0
    outer loop
      vertex 6.42805 -7 5.47118
      vertex 4.4 -7 6.25
      vertex 6.42805 -7 7.02882
    endloop
  endfacet
  facet normal 0 1 0
    outer loop
      vertex 6.42805 -7 5.47118
      vertex 4.99205 -7 4.42787
      vertex 4.4 -7 6.25
    endloop
  endfacet
  facet normal 0 1 -0
    outer loop
      vertex 6.54205 -7 3.30172
      vertex 6.42805 -7 5.47118
      vertex 7.90945 -7 4.98985
    endloop
  endfacet
  facet normal 0 1 -0
    outer loop
      vertex 8.45795 -7 3.30172
      vertex 7.90945 -7 4.98985
      vertex 10.008 -7 4.42787
    endloop
  endfacet
  facet normal 0 1 0
    outer loop
      vertex 6.54205 -7 3.30172
      vertex 7.90945 -7 4.98985
      vertex 8.45795 -7 3.30172
    endloop
  endfacet
  facet normal 0 1 0
    outer loop
      vertex 6.42805 -7 5.47118
      vertex 6.54205 -7 3.30172
      vertex 4.99205 -7 4.42787
    endloop
  endfacet
  facet normal 0.951056 0 -0.309017
    outer loop
      vertex 4.99205 -7 8.07213
      vertex 4.4 1.38778e-15 6.25
      vertex 4.99205 1.79237e-15 8.07213
    endloop
  endfacet
  facet normal 0.951056 0 -0.309017
    outer loop
      vertex 4.4 1.38778e-15 6.25
      vertex 4.99205 -7 8.07213
      vertex 4.4 -7 6.25
    endloop
  endfacet
  facet normal 0 0 -1
    outer loop
      vertex 6.54205 -7 9.19827
      vertex 8.45795 2.04243e-15 9.19827
      vertex 8.45795 -7 9.19827
    endloop
  endfacet
  facet normal -0 0 -1
    outer loop
      vertex 8.45795 2.04243e-15 9.19827
      vertex 6.54205 -7 9.19827
      vertex 6.54205 2.04243e-15 9.19827
    endloop
  endfacet
  facet normal 0.951056 -0 0.309017
    outer loop
      vertex 4.4 -7 6.25
      vertex 4.99205 9.83184e-16 4.42787
      vertex 4.4 1.38778e-15 6.25
    endloop
  endfacet
  facet normal 0.951056 0 0.309017
    outer loop
      vertex 4.99205 9.83184e-16 4.42787
      vertex 4.4 -7 6.25
      vertex 4.99205 -7 4.42787
    endloop
  endfacet
  facet normal 0.587785 0 0.809017
    outer loop
      vertex 4.99205 9.83184e-16 4.42787
      vertex 6.54205 -7 3.30172
      vertex 6.54205 7.3313e-16 3.30172
    endloop
  endfacet
  facet normal 0.587785 0 0.809017
    outer loop
      vertex 6.54205 -7 3.30172
      vertex 4.99205 9.83184e-16 4.42787
      vertex 4.99205 -7 4.42787
    endloop
  endfacet
  facet normal -0.587785 0 0.809017
    outer loop
      vertex 8.45795 7.3313e-16 3.30172
      vertex 10.008 -7 4.42787
      vertex 10.008 9.83184e-16 4.42787
    endloop
  endfacet
  facet normal -0.587785 0 0.809017
    outer loop
      vertex 10.008 -7 4.42787
      vertex 8.45795 7.3313e-16 3.30172
      vertex 8.45795 -7 3.30172
    endloop
  endfacet
  facet normal -0.951056 0 0.309017
    outer loop
      vertex 10.008 -7 4.42787
      vertex 10.6 1.38778e-15 6.25
      vertex 10.008 9.83184e-16 4.42787
    endloop
  endfacet
  facet normal -0.951056 0 0.309017
    outer loop
      vertex 10.6 1.38778e-15 6.25
      vertex 10.008 -7 4.42787
      vertex 10.6 -7 6.25
    endloop
  endfacet
  facet normal -0 0 1
    outer loop
      vertex 6.54205 7.3313e-16 3.30172
      vertex 8.45795 -7 3.30172
      vertex 8.45795 7.3313e-16 3.30172
    endloop
  endfacet
  facet normal 0 0 1
    outer loop
      vertex 8.45795 -7 3.30172
      vertex 6.54205 7.3313e-16 3.30172
      vertex 6.54205 -7 3.30172
    endloop
  endfacet
  facet normal -0.951056 0 -0.309017
    outer loop
      vertex 10.6 -7 18.75
      vertex 10.008 4.56793e-15 20.5721
      vertex 10.6 4.16334e-15 18.75
    endloop
  endfacet
  facet normal -0.951056 -0 -0.309017
    outer loop
      vertex 10.008 4.56793e-15 20.5721
      vertex 10.6 -7 18.75
      vertex 10.008 -7 20.5721
    endloop
  endfacet
  facet normal 0.587785 0 -0.809017
    outer loop
      vertex 4.99205 -7 20.5721
      vertex 6.54205 4.81798e-15 21.6983
      vertex 6.54205 -7 21.6983
    endloop
  endfacet
  facet normal 0.587785 0 -0.809017
    outer loop
      vertex 6.54205 4.81798e-15 21.6983
      vertex 4.99205 -7 20.5721
      vertex 4.99205 4.56793e-15 20.5721
    endloop
  endfacet
  facet normal -0.587785 0 -0.809017
    outer loop
      vertex 8.45795 -7 21.6983
      vertex 10.008 4.56793e-15 20.5721
      vertex 10.008 -7 20.5721
    endloop
  endfacet
  facet normal -0.587785 0 -0.809017
    outer loop
      vertex 10.008 4.56793e-15 20.5721
      vertex 8.45795 -7 21.6983
      vertex 8.45795 4.81798e-15 21.6983
    endloop
  endfacet
  facet normal 0 1 0
    outer loop
      vertex 7.90945 -7 20.0101
      vertex 8.45795 -7 21.6983
      vertex 10.008 -7 20.5721
    endloop
  endfacet
  facet normal 0 1 0
    outer loop
      vertex 8.45795 -7 21.6983
      vertex 7.90945 -7 20.0101
      vertex 6.54205 -7 21.6983
    endloop
  endfacet
  facet normal 0 1 0
    outer loop
      vertex 6.42805 -7 19.5288
      vertex 6.54205 -7 21.6983
      vertex 7.90945 -7 20.0101
    endloop
  endfacet
  facet normal 0 1 0
    outer loop
      vertex 8.825 -7 18.75
      vertex 10.008 -7 20.5721
      vertex 10.6 -7 18.75
    endloop
  endfacet
  facet normal 0 1 0
    outer loop
      vertex 10.008 -7 20.5721
      vertex 8.825 -7 18.75
      vertex 7.90945 -7 20.0101
    endloop
  endfacet
  facet normal 0 1 -0
    outer loop
      vertex 10.008 -7 16.9279
      vertex 8.825 -7 18.75
      vertex 10.6 -7 18.75
    endloop
  endfacet
  facet normal 0 1 0
    outer loop
      vertex 8.825 -7 18.75
      vertex 10.008 -7 16.9279
      vertex 7.90945 -7 17.4898
    endloop
  endfacet
  facet normal 0 1 0
    outer loop
      vertex 6.54205 -7 21.6983
      vertex 6.42805 -7 19.5288
      vertex 4.99205 -7 20.5721
    endloop
  endfacet
  facet normal 0 1 0
    outer loop
      vertex 6.42805 -7 19.5288
      vertex 4.4 -7 18.75
      vertex 4.99205 -7 20.5721
    endloop
  endfacet
  facet normal 0 1 -0
    outer loop
      vertex 6.42805 -7 17.9712
      vertex 4.4 -7 18.75
      vertex 6.42805 -7 19.5288
    endloop
  endfacet
  facet normal 0 1 0
    outer loop
      vertex 6.42805 -7 17.9712
      vertex 4.99205 -7 16.9279
      vertex 4.4 -7 18.75
    endloop
  endfacet
  facet normal 0 1 -0
    outer loop
      vertex 6.54205 -7 15.8017
      vertex 6.42805 -7 17.9712
      vertex 7.90945 -7 17.4898
    endloop
  endfacet
  facet normal 0 1 -0
    outer loop
      vertex 8.45795 -7 15.8017
      vertex 7.90945 -7 17.4898
      vertex 10.008 -7 16.9279
    endloop
  endfacet
  facet normal 0 1 0
    outer loop
      vertex 6.54205 -7 15.8017
      vertex 7.90945 -7 17.4898
      vertex 8.45795 -7 15.8017
    endloop
  endfacet
  facet normal 0 1 0
    outer loop
      vertex 6.42805 -7 17.9712
      vertex 6.54205 -7 15.8017
      vertex 4.99205 -7 16.9279
    endloop
  endfacet
  facet normal 0.951056 0 -0.309017
    outer loop
      vertex 4.99205 -7 20.5721
      vertex 4.4 4.16334e-15 18.75
      vertex 4.99205 4.56793e-15 20.5721
    endloop
  endfacet
  facet normal 0.951056 0 -0.309017
    outer loop
      vertex 4.4 4.16334e-15 18.75
      vertex 4.99205 -7 20.5721
      vertex 4.4 -7 18.75
    endloop
  endfacet
  facet normal 0 0 -1
    outer loop
      vertex 6.54205 -7 21.6983
      vertex 8.45795 4.81798e-15 21.6983
      vertex 8.45795 -7 21.6983
    endloop
  endfacet
  facet normal -0 0 -1
    outer loop
      vertex 8.45795 4.81798e-15 21.6983
      vertex 6.54205 -7 21.6983
      vertex 6.54205 4.81798e-15 21.6983
    endloop
  endfacet
  facet normal 0.951057 -0 0.309017
    outer loop
      vertex 4.4 -7 18.75
      vertex 4.99205 3.75874e-15 16.9279
      vertex 4.4 4.16334e-15 18.75
    endloop
  endfacet
  facet normal 0.951057 0 0.309017
    outer loop
      vertex 4.99205 3.75874e-15 16.9279
      vertex 4.4 -7 18.75
      vertex 4.99205 -7 16.9279
    endloop
  endfacet
  facet normal 0.587785 0 0.809017
    outer loop
      vertex 4.99205 3.75874e-15 16.9279
      vertex 6.54205 -7 15.8017
      vertex 6.54205 3.50869e-15 15.8017
    endloop
  endfacet
  facet normal 0.587785 0 0.809017
    outer loop
      vertex 6.54205 -7 15.8017
      vertex 4.99205 3.75874e-15 16.9279
      vertex 4.99205 -7 16.9279
    endloop
  endfacet
  facet normal -0.587785 0 0.809017
    outer loop
      vertex 8.45795 3.50869e-15 15.8017
      vertex 10.008 -7 16.9279
      vertex 10.008 3.75874e-15 16.9279
    endloop
  endfacet
  facet normal -0.587785 0 0.809017
    outer loop
      vertex 10.008 -7 16.9279
      vertex 8.45795 3.50869e-15 15.8017
      vertex 8.45795 -7 15.8017
    endloop
  endfacet
  facet normal -0.951057 0 0.309017
    outer loop
      vertex 10.008 -7 16.9279
      vertex 10.6 4.16334e-15 18.75
      vertex 10.008 3.75874e-15 16.9279
    endloop
  endfacet
  facet normal -0.951057 0 0.309017
    outer loop
      vertex 10.6 4.16334e-15 18.75
      vertex 10.008 -7 16.9279
      vertex 10.6 -7 18.75
    endloop
  endfacet
  facet normal -0 0 1
    outer loop
      vertex 6.54205 3.50869e-15 15.8017
      vertex 8.45795 -7 15.8017
      vertex 8.45795 3.50869e-15 15.8017
    endloop
  endfacet
  facet normal 0 0 1
    outer loop
      vertex 8.45795 -7 15.8017
      vertex 6.54205 3.50869e-15 15.8017
      vertex 6.54205 -7 15.8017
    endloop
  endfacet
endsolid OpenSCAD_Model
