solid OpenSCAD_Model
  facet normal -0.0747302 0.997204 0
    outer loop
      vertex 7.97827 1.3821 1.11022e-15
      vertex 6.07587 1.23954 5
      vertex 7.97827 1.3821 5
    endloop
  endfacet
  facet normal -0.0747302 0.997204 0
    outer loop
      vertex 6.07587 1.23954 5
      vertex 7.97827 1.3821 1.11022e-15
      vertex 6.07587 1.23954 1.11022e-15
    endloop
  endfacet
  facet normal 0 0 -1
    outer loop
      vertex 10 2.46519e-31 1.11022e-15
      vertex 9.83818 0.957591 1.11022e-15
      vertex 10 0.864166 1.11022e-15
    endloop
  endfacet
  facet normal 0 0 -1
    outer loop
      vertex 10 2.46519e-31 1.11022e-15
      vertex 7.97827 1.3821 1.11022e-15
      vertex 9.83818 0.957591 1.11022e-15
    endloop
  endfacet
  facet normal 0 0 -1
    outer loop
      vertex 5 2.46519e-31 1.11022e-15
      vertex 7.97827 1.3821 1.11022e-15
      vertex 10 2.46519e-31 1.11022e-15
    endloop
  endfacet
  facet normal 0 0 -1
    outer loop
      vertex 7.97827 1.3821 1.11022e-15
      vertex 5 2.46519e-31 1.11022e-15
      vertex 6.07587 1.23954 1.11022e-15
    endloop
  endfacet
  facet normal 0 0 -1
    outer loop
      vertex 6.07587 1.23954 1.11022e-15
      vertex 5 2.46519e-31 1.11022e-15
      vertex 5 0.817292 1.11022e-15
    endloop
  endfacet
  facet normal 0 0 -1
    outer loop
      vertex 1.75 -7.52315 1.11022e-15
      vertex 5 -7.2 1.11022e-15
      vertex 5.07266 -10.8458 1.11022e-15
    endloop
  endfacet
  facet normal -0 0 -1
    outer loop
      vertex 5 -7.2 1.11022e-15
      vertex 1.75 -7.52315 1.11022e-15
      vertex 1.75 -7.2 1.11022e-15
    endloop
  endfacet
  facet normal 0 0 -1
    outer loop
      vertex 13.25 -7.52315 1.11022e-15
      vertex 10 -7.2 1.11022e-15
      vertex 13.25 -7.2 1.11022e-15
    endloop
  endfacet
  facet normal 0 0 -1
    outer loop
      vertex 9.80887 -10.9643 1.11022e-15
      vertex 10 -7.2 1.11022e-15
      vertex 13.25 -7.52315 1.11022e-15
    endloop
  endfacet
  facet normal 0 0 -1
    outer loop
      vertex 7.97827 -11.3821 1.11022e-15
      vertex 10 -7.2 1.11022e-15
      vertex 9.80887 -10.9643 1.11022e-15
    endloop
  endfacet
  facet normal -0 0 -1
    outer loop
      vertex 10 -7.2 1.11022e-15
      vertex 7.97827 -11.3821 1.11022e-15
      vertex 5 -7.2 1.11022e-15
    endloop
  endfacet
  facet normal 0 0 -1
    outer loop
      vertex 5 -7.2 1.11022e-15
      vertex 7.97827 -11.3821 1.11022e-15
      vertex 6.07587 -11.2395 1.11022e-15
    endloop
  endfacet
  facet normal 0 0 -1
    outer loop
      vertex 5 -7.2 1.11022e-15
      vertex 6.07587 -11.2395 1.11022e-15
      vertex 5.07266 -10.8458 1.11022e-15
    endloop
  endfacet
  facet normal 0 0 -1
    outer loop
      vertex 10 -7.2 1.11022e-15
      vertex 5 -7.2 1.11022e-15
      vertex 10 -5 1.11022e-15
    endloop
  endfacet
  facet normal -0 0 -1
    outer loop
      vertex 10 -5 1.11022e-15
      vertex 5 -7.2 1.11022e-15
      vertex 5 -5 1.11022e-15
    endloop
  endfacet
  facet normal 0 0 1
    outer loop
      vertex 7.97827 1.3821 5
      vertex 10 0.864166 5
      vertex 9.83818 0.957591 5
    endloop
  endfacet
  facet normal -0 0 1
    outer loop
      vertex 10 -7.2 5
      vertex 13.25 -7.52315 5
      vertex 13.25 -7.2 5
    endloop
  endfacet
  facet normal 0 0 1
    outer loop
      vertex 10 -7.2 5
      vertex 9.80887 -10.9643 5
      vertex 13.25 -7.52315 5
    endloop
  endfacet
  facet normal 0 0 1
    outer loop
      vertex 10 0.864166 5
      vertex 7.97827 1.3821 5
      vertex 10 -7.2 5
    endloop
  endfacet
  facet normal 0 0 1
    outer loop
      vertex 10 -7.2 5
      vertex 7.97827 1.3821 5
      vertex 5 -7.2 5
    endloop
  endfacet
  facet normal 0 -0 1
    outer loop
      vertex 7.97827 -11.3821 5
      vertex 10 -7.2 5
      vertex 5 -7.2 5
    endloop
  endfacet
  facet normal 0 0 1
    outer loop
      vertex 5 -7.2 5
      vertex 7.97827 1.3821 5
      vertex 6.07587 1.23954 5
    endloop
  endfacet
  facet normal 0 0 1
    outer loop
      vertex 10 -7.2 5
      vertex 7.97827 -11.3821 5
      vertex 9.80887 -10.9643 5
    endloop
  endfacet
  facet normal 0 0 1
    outer loop
      vertex 7.97827 -11.3821 5
      vertex 5 -7.2 5
      vertex 6.07587 -11.2395 5
    endloop
  endfacet
  facet normal 0 0 1
    outer loop
      vertex 5 -7.2 5
      vertex 6.07587 1.23954 5
      vertex 5 0.817292 5
    endloop
  endfacet
  facet normal 0 0 1
    outer loop
      vertex 6.07587 -11.2395 5
      vertex 5 -7.2 5
      vertex 5.07266 -10.8458 5
    endloop
  endfacet
  facet normal 0 0 1
    outer loop
      vertex 1.75 -7.52315 5
      vertex 5 -7.2 5
      vertex 1.75 -7.2 5
    endloop
  endfacet
  facet normal 0 0 1
    outer loop
      vertex 5 -7.2 5
      vertex 1.75 -7.52315 5
      vertex 5.07266 -10.8458 5
    endloop
  endfacet
  facet normal -0.365341 0.930874 0
    outer loop
      vertex 6.07587 1.23954 1.11022e-15
      vertex 5 0.817292 5
      vertex 6.07587 1.23954 5
    endloop
  endfacet
  facet normal -0.365341 0.930874 0
    outer loop
      vertex 5 0.817292 5
      vertex 6.07587 1.23954 1.11022e-15
      vertex 5 0.817292 1.11022e-15
    endloop
  endfacet
  facet normal -0.365341 -0.930874 0
    outer loop
      vertex 5.07266 -10.8458 1.11022e-15
      vertex 6.07587 -11.2395 5
      vertex 5.07266 -10.8458 5
    endloop
  endfacet
  facet normal -0.365341 -0.930874 -0
    outer loop
      vertex 6.07587 -11.2395 5
      vertex 5.07266 -10.8458 1.11022e-15
      vertex 6.07587 -11.2395 1.11022e-15
    endloop
  endfacet
  facet normal 0.222521 0.974928 -0
    outer loop
      vertex 9.83818 0.957591 1.11022e-15
      vertex 7.97827 1.3821 5
      vertex 9.83818 0.957591 5
    endloop
  endfacet
  facet normal 0.222521 0.974928 0
    outer loop
      vertex 7.97827 1.3821 5
      vertex 9.83818 0.957591 1.11022e-15
      vertex 7.97827 1.3821 1.11022e-15
    endloop
  endfacet
  facet normal 0.5 0.866026 -0
    outer loop
      vertex 10 0.864166 1.11022e-15
      vertex 9.83818 0.957591 5
      vertex 10 0.864166 5
    endloop
  endfacet
  facet normal 0.5 0.866026 0
    outer loop
      vertex 9.83818 0.957591 5
      vertex 10 0.864166 1.11022e-15
      vertex 9.83818 0.957591 1.11022e-15
    endloop
  endfacet
  facet normal 0.222521 -0.974928 0
    outer loop
      vertex 7.97827 -11.3821 1.11022e-15
      vertex 9.80887 -10.9643 5
      vertex 7.97827 -11.3821 5
    endloop
  endfacet
  facet normal 0.222521 -0.974928 0
    outer loop
      vertex 9.80887 -10.9643 5
      vertex 7.97827 -11.3821 1.11022e-15
      vertex 9.80887 -10.9643 1.11022e-15
    endloop
  endfacet
  facet normal -0.0747302 -0.997204 0
    outer loop
      vertex 6.07587 -11.2395 1.11022e-15
      vertex 7.97827 -11.3821 5
      vertex 6.07587 -11.2395 5
    endloop
  endfacet
  facet normal -0.0747302 -0.997204 -0
    outer loop
      vertex 7.97827 -11.3821 5
      vertex 6.07587 -11.2395 1.11022e-15
      vertex 7.97827 -11.3821 1.11022e-15
    endloop
  endfacet
  facet normal 1 -0 0
    outer loop
      vertex 13.25 -7.52315 5
      vertex 13.25 -7.2 1.11022e-15
      vertex 13.25 -7.2 5
    endloop
  endfacet
  facet normal 1 0 0
    outer loop
      vertex 13.25 -7.2 1.11022e-15
      vertex 13.25 -7.52315 5
      vertex 13.25 -7.52315 1.11022e-15
    endloop
  endfacet
  facet normal -1 0 0
    outer loop
      vertex 1.75 -7.52315 1.11022e-15
      vertex 1.75 -7.2 5
      vertex 1.75 -7.2 1.11022e-15
    endloop
  endfacet
  facet normal -1 -0 0
    outer loop
      vertex 1.75 -7.2 5
      vertex 1.75 -7.52315 1.11022e-15
      vertex 1.75 -7.52315 5
    endloop
  endfacet
  facet normal 1 -0 0
    outer loop
      vertex 10 -7.2 5
      vertex 10 -5 1.11022e-15
      vertex 10 -5 5
    endloop
  endfacet
  facet normal 1 0 0
    outer loop
      vertex 10 -5 1.11022e-15
      vertex 10 -7.2 5
      vertex 10 -7.2 1.11022e-15
    endloop
  endfacet
  facet normal 1 -0 0
    outer loop
      vertex 10 1.11022e-15 5
      vertex 10 0.864166 1.11022e-15
      vertex 10 0.864166 5
    endloop
  endfacet
  facet normal 1 0 0
    outer loop
      vertex 10 0.864166 1.11022e-15
      vertex 10 1.11022e-15 5
      vertex 10 2.46519e-31 1.11022e-15
    endloop
  endfacet
  facet normal 0 0 0
    outer loop
      vertex 10 -7.2 5
      vertex 10 -5 5
      vertex 10 1.11022e-15 5
    endloop
  endfacet
  facet normal 0 0 0
    outer loop
      vertex 10 1.11022e-15 5
      vertex 10 0.864166 5
      vertex 10 -7.2 5
    endloop
  endfacet
  facet normal 0 1 -0
    outer loop
      vertex 13.25 -7.2 1.11022e-15
      vertex 10 -7.2 5
      vertex 13.25 -7.2 5
    endloop
  endfacet
  facet normal 0 1 0
    outer loop
      vertex 10 -7.2 5
      vertex 13.25 -7.2 1.11022e-15
      vertex 10 -7.2 1.11022e-15
    endloop
  endfacet
  facet normal -1 0 0
    outer loop
      vertex 5 -7.2 1.11022e-15
      vertex 5 -5 5
      vertex 5 -5 1.11022e-15
    endloop
  endfacet
  facet normal -1 -0 0
    outer loop
      vertex 5 -5 5
      vertex 5 -7.2 1.11022e-15
      vertex 5 -7.2 5
    endloop
  endfacet
  facet normal -1 0 0
    outer loop
      vertex 5 0.817292 1.11022e-15
      vertex 5 1.11022e-15 5
      vertex 5 0.817292 5
    endloop
  endfacet
  facet normal -1 0 -0
    outer loop
      vertex 5 1.11022e-15 5
      vertex 5 0.817292 1.11022e-15
      vertex 5 2.46519e-31 1.11022e-15
    endloop
  endfacet
  facet normal 0 0 0
    outer loop
      vertex 5 -5 5
      vertex 5 -7.2 5
      vertex 5 0.817292 5
    endloop
  endfacet
  facet normal 0 0 0
    outer loop
      vertex 5 -5 5
      vertex 5 0.817292 5
      vertex 5 1.11022e-15 5
    endloop
  endfacet
  facet normal 0 1 -0
    outer loop
      vertex 5 -7.2 1.11022e-15
      vertex 1.75 -7.2 5
      vertex 5 -7.2 5
    endloop
  endfacet
  facet normal 0 1 0
    outer loop
      vertex 1.75 -7.2 5
      vertex 5 -7.2 1.11022e-15
      vertex 1.75 -7.2 1.11022e-15
    endloop
  endfacet
  facet normal 0.707107 -0.707107 0
    outer loop
      vertex 9.80887 -10.9643 5
      vertex 13.25 -7.52315 1.11022e-15
      vertex 13.25 -7.52315 5
    endloop
  endfacet
  facet normal 0.707107 -0.707107 0
    outer loop
      vertex 13.25 -7.52315 1.11022e-15
      vertex 9.80887 -10.9643 5
      vertex 9.80887 -10.9643 1.11022e-15
    endloop
  endfacet
  facet normal -0.707107 -0.707107 0
    outer loop
      vertex 5.07266 -10.8458 1.11022e-15
      vertex 1.75 -7.52315 5
      vertex 1.75 -7.52315 1.11022e-15
    endloop
  endfacet
  facet normal -0.707107 -0.707107 0
    outer loop
      vertex 1.75 -7.52315 5
      vertex 5.07266 -10.8458 1.11022e-15
      vertex 5.07266 -10.8458 5
    endloop
  endfacet
  facet normal -1 0 0
    outer loop
      vertex 0 -5 1.11022e-15
      vertex 0 1.11022e-15 5
      vertex 0 0 0
    endloop
  endfacet
  facet normal -1 -0 0
    outer loop
      vertex 0 1.11022e-15 5
      vertex 0 -5 1.11022e-15
      vertex 0 -5 5
    endloop
  endfacet
  facet normal 0 -1 0
    outer loop
      vertex 0 -5 1.11022e-15
      vertex 5 -5 5
      vertex 0 -5 5
    endloop
  endfacet
  facet normal 0 -1 -0
    outer loop
      vertex 5 -5 5
      vertex 0 -5 1.11022e-15
      vertex 5 -5 1.11022e-15
    endloop
  endfacet
  facet normal 0 -1 0
    outer loop
      vertex 10 -5 1.11022e-15
      vertex 15 -5 5
      vertex 10 -5 5
    endloop
  endfacet
  facet normal 0 -1 -0
    outer loop
      vertex 15 -5 5
      vertex 10 -5 1.11022e-15
      vertex 15 -5 1.11022e-15
    endloop
  endfacet
  facet normal 1 -0 0
    outer loop
      vertex 15 -5 5
      vertex 15 0 0
      vertex 15 1.11022e-15 5
    endloop
  endfacet
  facet normal 1 0 0
    outer loop
      vertex 15 0 0
      vertex 15 -5 5
      vertex 15 -5 1.11022e-15
    endloop
  endfacet
  facet normal -0 0 1
    outer loop
      vertex 10 1.11022e-15 5
      vertex 15 -5 5
      vertex 15 1.11022e-15 5
    endloop
  endfacet
  facet normal 0 0 1
    outer loop
      vertex 15 -5 5
      vertex 10 1.11022e-15 5
      vertex 10 -5 5
    endloop
  endfacet
  facet normal -0 0 1
    outer loop
      vertex 0 1.11022e-15 5
      vertex 5 -5 5
      vertex 5 1.11022e-15 5
    endloop
  endfacet
  facet normal 0 0 1
    outer loop
      vertex 5 -5 5
      vertex 0 1.11022e-15 5
      vertex 0 -5 5
    endloop
  endfacet
  facet normal 0 1 -2.22045e-16
    outer loop
      vertex 15 1.11022e-15 5
      vertex 10 2.46519e-31 1.11022e-15
      vertex 10 1.11022e-15 5
    endloop
  endfacet
  facet normal 0 1 -2.22045e-16
    outer loop
      vertex 10 2.46519e-31 1.11022e-15
      vertex 15 0 0
      vertex 5 2.46519e-31 1.11022e-15
    endloop
  endfacet
  facet normal 0 1 -2.22045e-16
    outer loop
      vertex 15 0 0
      vertex 10 2.46519e-31 1.11022e-15
      vertex 15 1.11022e-15 5
    endloop
  endfacet
  facet normal 0 1 -2.22045e-16
    outer loop
      vertex 5 2.46519e-31 1.11022e-15
      vertex 0 1.11022e-15 5
      vertex 5 1.11022e-15 5
    endloop
  endfacet
  facet normal 0 1 -2.22045e-16
    outer loop
      vertex 5 2.46519e-31 1.11022e-15
      vertex 0 0 0
      vertex 0 1.11022e-15 5
    endloop
  endfacet
  facet normal 0 1 -2.22045e-16
    outer loop
      vertex 0 0 0
      vertex 5 2.46519e-31 1.11022e-15
      vertex 15 0 0
    endloop
  endfacet
  facet normal 0 -2.22045e-16 -1
    outer loop
      vertex 10 -5 1.11022e-15
      vertex 15 0 0
      vertex 15 -5 1.11022e-15
    endloop
  endfacet
  facet normal 0 -2.22045e-16 -1
    outer loop
      vertex 5 -5 1.11022e-15
      vertex 15 0 0
      vertex 10 -5 1.11022e-15
    endloop
  endfacet
  facet normal 0 -2.22045e-16 -1
    outer loop
      vertex 0 0 0
      vertex 5 -5 1.11022e-15
      vertex 0 -5 1.11022e-15
    endloop
  endfacet
  facet normal 0 -2.22045e-16 -1
    outer loop
      vertex 5 -5 1.11022e-15
      vertex 0 0 0
      vertex 15 0 0
    endloop
  endfacet
endsolid OpenSCAD_Model
