solid OpenSCAD_Model
  facet normal -1 0 0
    outer loop
      vertex 0 20 0
      vertex 0 12.25 10
      vertex 0 20 20
    endloop
  endfacet
  facet normal -1 0 0
    outer loop
      vertex 0 20 0
      vertex 0 11.591 8.40901
      vertex 0 12.25 10
    endloop
  endfacet
  facet normal -1 0 0
    outer loop
      vertex 0 20 0
      vertex 0 10 7.75
      vertex 0 11.591 8.40901
    endloop
  endfacet
  facet normal -1 0 0
    outer loop
      vertex 0 0 0
      vertex 0 10 7.75
      vertex 0 20 0
    endloop
  endfacet
  facet normal -1 -0 0
    outer loop
      vertex 0 8.40901 8.40901
      vertex 0 0 0
      vertex 0 7.75 10
    endloop
  endfacet
  facet normal -1 -0 0
    outer loop
      vertex 0 10 7.75
      vertex 0 0 0
      vertex 0 8.40901 8.40901
    endloop
  endfacet
  facet normal -1 0 0
    outer loop
      vertex 0 11.591 11.591
      vertex 0 20 20
      vertex 0 12.25 10
    endloop
  endfacet
  facet normal -1 0 0
    outer loop
      vertex 0 10 12.25
      vertex 0 20 20
      vertex 0 11.591 11.591
    endloop
  endfacet
  facet normal -1 0 0
    outer loop
      vertex 0 0 20
      vertex 0 10 12.25
      vertex 0 8.40901 11.591
    endloop
  endfacet
  facet normal -1 0 0
    outer loop
      vertex 0 0 20
      vertex 0 7.75 10
      vertex 0 0 0
    endloop
  endfacet
  facet normal -1 0 0
    outer loop
      vertex 0 10 12.25
      vertex 0 0 20
      vertex 0 20 20
    endloop
  endfacet
  facet normal -1 0 0
    outer loop
      vertex 0 7.75 10
      vertex 0 0 20
      vertex 0 8.40901 11.591
    endloop
  endfacet
  facet normal -0 0 1
    outer loop
      vertex 20 4 20
      vertex 40 0 20
      vertex 40 4 20
    endloop
  endfacet
  facet normal 0 0 1
    outer loop
      vertex 0 0 20
      vertex 4 20 20
      vertex 0 20 20
    endloop
  endfacet
  facet normal 0 0 1
    outer loop
      vertex 20 4 20
      vertex 0 0 20
      vertex 40 0 20
    endloop
  endfacet
  facet normal 0 0 1
    outer loop
      vertex 4 20 20
      vertex 0 0 20
      vertex 20 4 20
    endloop
  endfacet
  facet normal 0 1 -0
    outer loop
      vertex 4 20 0
      vertex 0 20 20
      vertex 4 20 20
    endloop
  endfacet
  facet normal 0 1 0
    outer loop
      vertex 0 20 20
      vertex 4 20 0
      vertex 0 20 0
    endloop
  endfacet
  facet normal 0 0 -1
    outer loop
      vertex 40 0 0
      vertex 20 4 0
      vertex 40 4 0
    endloop
  endfacet
  facet normal 0 0 -1
    outer loop
      vertex 0 0 0
      vertex 20 4 0
      vertex 40 0 0
    endloop
  endfacet
  facet normal 0 0 -1
    outer loop
      vertex 0 0 0
      vertex 4 20 0
      vertex 20 4 0
    endloop
  endfacet
  facet normal -0 0 -1
    outer loop
      vertex 4 20 0
      vertex 0 0 0
      vertex 0 20 0
    endloop
  endfacet
  facet normal 0 -1 0
    outer loop
      vertex 18.4167 0 10
      vertex 32.4583 0 11.5155
      vertex 17.5417 0 11.5155
    endloop
  endfacet
  facet normal 0 -1 0
    outer loop
      vertex 18.4167 0 10
      vertex 31.5833 0 10
      vertex 32.4583 0 11.5155
    endloop
  endfacet
  facet normal 0 -1 0
    outer loop
      vertex 17.5417 0 8.48446
      vertex 31.5833 0 10
      vertex 18.4167 0 10
    endloop
  endfacet
  facet normal 0 -1 -0
    outer loop
      vertex 31.5833 0 10
      vertex 17.5417 0 8.48446
      vertex 32.4583 0 8.48446
    endloop
  endfacet
  facet normal 0 -1 0
    outer loop
      vertex 17.5417 0 11.5155
      vertex 0 0 20
      vertex 15.7917 0 11.5155
    endloop
  endfacet
  facet normal 0 -1 0
    outer loop
      vertex 0 0 20
      vertex 14.9167 0 10
      vertex 15.7917 0 11.5155
    endloop
  endfacet
  facet normal 0 -1 0
    outer loop
      vertex 0 0 0
      vertex 14.9167 0 10
      vertex 0 0 20
    endloop
  endfacet
  facet normal 0 -1 0
    outer loop
      vertex 0 0 0
      vertex 17.5417 0 8.48446
      vertex 15.7917 0 8.48446
    endloop
  endfacet
  facet normal 0 -1 0
    outer loop
      vertex 17.5417 0 8.48446
      vertex 40 0 0
      vertex 32.4583 0 8.48446
    endloop
  endfacet
  facet normal 0 -1 -0
    outer loop
      vertex 17.5417 0 8.48446
      vertex 0 0 0
      vertex 40 0 0
    endloop
  endfacet
  facet normal 0 -1 -0
    outer loop
      vertex 14.9167 0 10
      vertex 0 0 0
      vertex 15.7917 0 8.48446
    endloop
  endfacet
  facet normal 0 -1 0
    outer loop
      vertex 0 0 20
      vertex 17.5417 0 11.5155
      vertex 40 0 20
    endloop
  endfacet
  facet normal 0 -1 0
    outer loop
      vertex 32.4583 0 11.5155
      vertex 40 0 20
      vertex 17.5417 0 11.5155
    endloop
  endfacet
  facet normal 0 -1 0
    outer loop
      vertex 34.2083 0 11.5155
      vertex 40 0 20
      vertex 32.4583 0 11.5155
    endloop
  endfacet
  facet normal 0 -1 0
    outer loop
      vertex 35.0833 0 10
      vertex 40 0 20
      vertex 34.2083 0 11.5155
    endloop
  endfacet
  facet normal 0 -1 0
    outer loop
      vertex 35.0833 0 10
      vertex 40 0 0
      vertex 40 0 20
    endloop
  endfacet
  facet normal 0 -1 0
    outer loop
      vertex 34.2083 0 8.48446
      vertex 40 0 0
      vertex 35.0833 0 10
    endloop
  endfacet
  facet normal 0 -1 0
    outer loop
      vertex 32.4583 0 8.48446
      vertex 40 0 0
      vertex 34.2083 0 8.48446
    endloop
  endfacet
  facet normal 1 -0 0
    outer loop
      vertex 40 0 20
      vertex 40 4 0
      vertex 40 4 20
    endloop
  endfacet
  facet normal 1 0 0
    outer loop
      vertex 40 4 0
      vertex 40 0 20
      vertex 40 0 0
    endloop
  endfacet
  facet normal 0 1 0
    outer loop
      vertex 40 4 20
      vertex 32.8975 4 13.0313
      vertex 20 4 20
    endloop
  endfacet
  facet normal 0 1 0
    outer loop
      vertex 40 4 20
      vertex 34.3615 4 12.8208
      vertex 32.8975 4 13.0313
    endloop
  endfacet
  facet normal 0 1 0
    outer loop
      vertex 40 4 20
      vertex 34.6055 4 12.7857
      vertex 34.3615 4 12.8208
    endloop
  endfacet
  facet normal 0 1 0
    outer loop
      vertex 40 4 20
      vertex 35.7234 4 11.8171
      vertex 34.6055 4 12.7857
    endloop
  endfacet
  facet normal 0 1 0
    outer loop
      vertex 40 4 20
      vertex 35.9097 4 11.6557
      vertex 35.7234 4 11.8171
    endloop
  endfacet
  facet normal 0 1 0
    outer loop
      vertex 40 4 20
      vertex 36.3958 4 10
      vertex 35.9097 4 11.6557
    endloop
  endfacet
  facet normal 0 1 -0
    outer loop
      vertex 40 4 0
      vertex 36.3958 4 10
      vertex 40 4 20
    endloop
  endfacet
  facet normal 0 1 0
    outer loop
      vertex 36.3958 4 10
      vertex 40 4 0
      vertex 36.3264 4 9.76347
    endloop
  endfacet
  facet normal 0 1 0
    outer loop
      vertex 34.3615 4 7.17917
      vertex 40 4 0
      vertex 32.8975 4 6.96867
    endloop
  endfacet
  facet normal 0 1 0
    outer loop
      vertex 34.6055 4 7.21425
      vertex 40 4 0
      vertex 34.3615 4 7.17917
    endloop
  endfacet
  facet normal 0 1 0
    outer loop
      vertex 34.7918 4 7.37569
      vertex 40 4 0
      vertex 34.6055 4 7.21425
    endloop
  endfacet
  facet normal 0 1 0
    outer loop
      vertex 35.9097 4 8.34429
      vertex 40 4 0
      vertex 34.7918 4 7.37569
    endloop
  endfacet
  facet normal 0 1 0
    outer loop
      vertex 36.3264 4 9.76347
      vertex 40 4 0
      vertex 35.9097 4 8.34429
    endloop
  endfacet
  facet normal 0 1 -0
    outer loop
      vertex 31.5521 4 12.4169
      vertex 20 4 20
      vertex 32.8975 4 13.0313
    endloop
  endfacet
  facet normal 0 1 -0
    outer loop
      vertex 31.3278 4 12.3145
      vertex 20 4 20
      vertex 31.5521 4 12.4169
    endloop
  endfacet
  facet normal 0 1 -0
    outer loop
      vertex 30.5282 4 11.0702
      vertex 20 4 20
      vertex 31.3278 4 12.3145
    endloop
  endfacet
  facet normal 0 1 0
    outer loop
      vertex 20 4 10.5676
      vertex 30.5282 4 11.0702
      vertex 30.3949 4 10.8628
    endloop
  endfacet
  facet normal 0 1 0
    outer loop
      vertex 30.5282 4 11.0702
      vertex 20 4 10.5676
      vertex 20 4 20
    endloop
  endfacet
  facet normal 0 1 0
    outer loop
      vertex 30.3949 4 10.8628
      vertex 20.1667 4 10
      vertex 20 4 10.5676
    endloop
  endfacet
  facet normal 0 1 -0
    outer loop
      vertex 30.3949 4 9.13719
      vertex 20.1667 4 10
      vertex 30.3949 4 10.8628
    endloop
  endfacet
  facet normal 0 1 0
    outer loop
      vertex 20.1667 4 10
      vertex 30.3949 4 9.13719
      vertex 20 4 9.43239
    endloop
  endfacet
  facet normal 0 1 0
    outer loop
      vertex 30.5282 4 8.92981
      vertex 20 4 9.43239
      vertex 30.3949 4 9.13719
    endloop
  endfacet
  facet normal 0 1 0
    outer loop
      vertex 20 4 0
      vertex 30.5282 4 8.92981
      vertex 31.3278 4 7.68552
    endloop
  endfacet
  facet normal 0 1 0
    outer loop
      vertex 20 4 0
      vertex 31.3278 4 7.68552
      vertex 31.5521 4 7.58311
    endloop
  endfacet
  facet normal 0 1 0
    outer loop
      vertex 20 4 0
      vertex 31.5521 4 7.58311
      vertex 32.8975 4 6.96867
    endloop
  endfacet
  facet normal 0 1 0
    outer loop
      vertex 20 4 0
      vertex 32.8975 4 6.96867
      vertex 40 4 0
    endloop
  endfacet
  facet normal 0 1 0
    outer loop
      vertex 30.5282 4 8.92981
      vertex 20 4 0
      vertex 20 4 9.43239
    endloop
  endfacet
  facet normal 0.707107 0.707107 0
    outer loop
      vertex 4 20 20
      vertex 10.0292 13.9708 9.51785
      vertex 4 20 0
    endloop
  endfacet
  facet normal 0.707107 0.707107 0
    outer loop
      vertex 4 20 20
      vertex 10.2599 13.7401 11.4184
      vertex 10.0292 13.9708 9.51785
    endloop
  endfacet
  facet normal 0.707107 0.707107 0
    outer loop
      vertex 4 20 20
      vertex 11.3475 12.6525 12.994
      vertex 10.2599 13.7401 11.4184
    endloop
  endfacet
  facet normal 0.707107 0.707107 0
    outer loop
      vertex 4 20 20
      vertex 13.0427 10.9573 13.8838
      vertex 11.3475 12.6525 12.994
    endloop
  endfacet
  facet normal 0.707107 0.707107 0
    outer loop
      vertex 20 4 20
      vertex 13.0427 10.9573 13.8838
      vertex 4 20 20
    endloop
  endfacet
  facet normal 0.707107 0.707107 0
    outer loop
      vertex 13.0427 10.9573 13.8838
      vertex 20 4 20
      vertex 14.9573 9.04274 13.8838
    endloop
  endfacet
  facet normal 0.707107 0.707107 0
    outer loop
      vertex 16.1686 7.83144 13.4644
      vertex 14.9573 9.04274 13.8838
      vertex 20 4 20
    endloop
  endfacet
  facet normal 0.707107 0.707107 0
    outer loop
      vertex 14.9573 9.04274 13.8838
      vertex 16.1686 7.83144 13.4644
      vertex 15.9481 8.05186 13.3637
    endloop
  endfacet
  facet normal 0.707107 0.707107 0
    outer loop
      vertex 16.1686 7.83144 13.4644
      vertex 20 4 20
      vertex 18.1206 5.87938 13.1837
    endloop
  endfacet
  facet normal 0.707107 0.707107 0
    outer loop
      vertex 20 4 20
      vertex 19.6111 4.38895 11.8922
      vertex 18.1206 5.87938 13.1837
    endloop
  endfacet
  facet normal 0.707107 0.707107 0
    outer loop
      vertex 19.6111 4.38895 11.8922
      vertex 20 4 20
      vertex 20 4 10.5676
    endloop
  endfacet
  facet normal 0.707107 0.707107 0
    outer loop
      vertex 10.7081 13.2919 7.72774
      vertex 4 20 0
      vertex 10.0292 13.9708 9.51785
    endloop
  endfacet
  facet normal 0.707107 0.707107 0
    outer loop
      vertex 12.1411 11.8589 6.45818
      vertex 4 20 0
      vertex 10.7081 13.2919 7.72774
    endloop
  endfacet
  facet normal 0.707107 0.707107 0
    outer loop
      vertex 14 10 6
      vertex 4 20 0
      vertex 12.1411 11.8589 6.45818
    endloop
  endfacet
  facet normal 0.707107 0.707107 0
    outer loop
      vertex 20 4 0
      vertex 14 10 6
      vertex 15.8589 8.14111 6.45818
    endloop
  endfacet
  facet normal 0.707106 0.707108 6.50597e-06
    outer loop
      vertex 16.1686 7.83144 6.53562
      vertex 15.8589 8.14111 6.45818
      vertex 16.0219 7.97809 6.6026
    endloop
  endfacet
  facet normal 0.707107 0.707107 0
    outer loop
      vertex 20 4 0
      vertex 15.8589 8.14111 6.45818
      vertex 16.1686 7.83144 6.53562
    endloop
  endfacet
  facet normal 0.707107 0.707107 0
    outer loop
      vertex 20 4 0
      vertex 16.1686 7.83144 6.53562
      vertex 18.1206 5.87938 6.81629
    endloop
  endfacet
  facet normal 0.707107 0.707107 0
    outer loop
      vertex 14 10 6
      vertex 20 4 0
      vertex 4 20 0
    endloop
  endfacet
  facet normal 0.707107 0.707107 0
    outer loop
      vertex 19.6111 4.38895 8.10776
      vertex 20 4 0
      vertex 18.1206 5.87938 6.81629
    endloop
  endfacet
  facet normal 0.707107 0.707107 -0
    outer loop
      vertex 20 4 0
      vertex 19.6111 4.38895 8.10776
      vertex 20 4 9.43239
    endloop
  endfacet
  facet normal 0 -0.382683 0.92388
    outer loop
      vertex 0 11.591 8.40901
      vertex 2.5 10 7.75
      vertex 2.5 11.591 8.40901
    endloop
  endfacet
  facet normal 0 -0.382683 0.92388
    outer loop
      vertex 2.5 10 7.75
      vertex 0 11.591 8.40901
      vertex 0 10 7.75
    endloop
  endfacet
  facet normal 0 -0.382684 -0.923879
    outer loop
      vertex 0 10 12.25
      vertex 2.5 11.591 11.591
      vertex 2.5 10 12.25
    endloop
  endfacet
  facet normal -0 -0.382684 -0.923879
    outer loop
      vertex 2.5 11.591 11.591
      vertex 0 10 12.25
      vertex 0 11.591 11.591
    endloop
  endfacet
  facet normal 0 -0.92388 0.382683
    outer loop
      vertex 0 11.591 8.40901
      vertex 2.5 12.25 10
      vertex 0 12.25 10
    endloop
  endfacet
  facet normal 0 -0.92388 0.382683
    outer loop
      vertex 2.5 12.25 10
      vertex 0 11.591 8.40901
      vertex 2.5 11.591 8.40901
    endloop
  endfacet
  facet normal -0 0.382683 0.92388
    outer loop
      vertex 0 10 7.75
      vertex 2.5 8.40901 8.40901
      vertex 2.5 10 7.75
    endloop
  endfacet
  facet normal 0 0.382683 0.92388
    outer loop
      vertex 2.5 8.40901 8.40901
      vertex 0 10 7.75
      vertex 0 8.40901 8.40901
    endloop
  endfacet
  facet normal 0 -0.923879 -0.382685
    outer loop
      vertex 0 11.591 11.591
      vertex 2.5 11.6625 11.4184
      vertex 2.5 11.591 11.591
    endloop
  endfacet
  facet normal 1.29797e-07 -0.923879 -0.382684
    outer loop
      vertex 0 12.25 10
      vertex 2.5 11.6625 11.4184
      vertex 0 11.591 11.591
    endloop
  endfacet
  facet normal 0 -0.92388 -0.382683
    outer loop
      vertex 2.5 11.6625 11.4184
      vertex 0 12.25 10
      vertex 2.5 12.25 10
    endloop
  endfacet
  facet normal 0 0.382683 -0.92388
    outer loop
      vertex 0 8.40901 11.591
      vertex 2.5 10 12.25
      vertex 2.5 8.40901 11.591
    endloop
  endfacet
  facet normal 0 0.382683 -0.92388
    outer loop
      vertex 2.5 10 12.25
      vertex 0 8.40901 11.591
      vertex 0 10 12.25
    endloop
  endfacet
  facet normal 0 0.92388 0.382683
    outer loop
      vertex 2.5 8.40901 8.40901
      vertex 0 7.75 10
      vertex 2.5 7.75 10
    endloop
  endfacet
  facet normal 0 0.92388 0.382683
    outer loop
      vertex 0 7.75 10
      vertex 2.5 8.40901 8.40901
      vertex 0 8.40901 8.40901
    endloop
  endfacet
  facet normal 0 0.923879 -0.382685
    outer loop
      vertex 2.5 8.33753 11.4184
      vertex 0 8.40901 11.591
      vertex 2.5 8.40901 11.591
    endloop
  endfacet
  facet normal 0 0.92388 -0.382683
    outer loop
      vertex 0 7.75 10
      vertex 2.5 8.33753 11.4184
      vertex 2.5 7.75 10
    endloop
  endfacet
  facet normal 1.68025e-07 0.92388 -0.382683
    outer loop
      vertex 2.5 8.33753 11.4184
      vertex 0 7.75 10
      vertex 0 8.40901 11.591
    endloop
  endfacet
  facet normal 1 0 0
    outer loop
      vertex 2.5 12.6525 12.994
      vertex 2.5 11.6625 11.4184
      vertex 2.5 13.7401 11.4184
    endloop
  endfacet
  facet normal 1 0 0
    outer loop
      vertex 2.5 12.6525 12.994
      vertex 2.5 11.591 11.591
      vertex 2.5 11.6625 11.4184
    endloop
  endfacet
  facet normal 1 0 0
    outer loop
      vertex 2.5 10.9573 13.8838
      vertex 2.5 11.591 11.591
      vertex 2.5 12.6525 12.994
    endloop
  endfacet
  facet normal 1 0 0
    outer loop
      vertex 2.5 10.9573 13.8838
      vertex 2.5 10 12.25
      vertex 2.5 11.591 11.591
    endloop
  endfacet
  facet normal 1 -0 0
    outer loop
      vertex 2.5 9.04274 13.8838
      vertex 2.5 10 12.25
      vertex 2.5 10.9573 13.8838
    endloop
  endfacet
  facet normal 1 0 0
    outer loop
      vertex 2.5 9.04274 13.8838
      vertex 2.5 8.40901 11.591
      vertex 2.5 10 12.25
    endloop
  endfacet
  facet normal 1 -0 0
    outer loop
      vertex 2.5 7.34751 12.994
      vertex 2.5 8.40901 11.591
      vertex 2.5 9.04274 13.8838
    endloop
  endfacet
  facet normal 1 0 0
    outer loop
      vertex 2.5 8.40901 11.591
      vertex 2.5 7.34751 12.994
      vertex 2.5 8.33753 11.4184
    endloop
  endfacet
  facet normal 1 0 0
    outer loop
      vertex 2.5 8.33753 11.4184
      vertex 2.5 7.34751 12.994
      vertex 2.5 6.25993 11.4184
    endloop
  endfacet
  facet normal 0 -0.239316 0.970942
    outer loop
      vertex 2.5 10 6
      vertex 12.1411 11.8589 6.45818
      vertex 2.5 11.8589 6.45818
    endloop
  endfacet
  facet normal 0 -0.239316 0.970942
    outer loop
      vertex 12.1411 11.8589 6.45818
      vertex 2.5 10 6
      vertex 14 10 6
    endloop
  endfacet
  facet normal 0 0 -1
    outer loop
      vertex 2.5 9.04274 13.8838
      vertex 13.0427 10.9573 13.8838
      vertex 14.9573 9.04274 13.8838
    endloop
  endfacet
  facet normal -0 0 -1
    outer loop
      vertex 13.0427 10.9573 13.8838
      vertex 2.5 9.04274 13.8838
      vertex 2.5 10.9573 13.8838
    endloop
  endfacet
  facet normal 1 -2.56517e-07 2.89548e-07
    outer loop
      vertex 2.5 11.8589 6.45818
      vertex 2.5 13.2919 7.72774
      vertex 2.5 13.7401 11.4184
    endloop
  endfacet
  facet normal 1 5.22752e-08 2.12089e-07
    outer loop
      vertex 2.5 8.14111 6.45818
      vertex 2.5 10 6
      vertex 2.5 6.25993 11.4184
    endloop
  endfacet
  facet normal -0 -0.992709 -0.120536
    outer loop
      vertex 10.0292 13.9708 9.51785
      vertex 2.5 13.7401 11.4184
      vertex 2.5 13.9708 9.51785
    endloop
  endfacet
  facet normal 0 -0.992709 -0.120536
    outer loop
      vertex 2.5 13.7401 11.4184
      vertex 10.0292 13.9708 9.51785
      vertex 10.2599 13.7401 11.4184
    endloop
  endfacet
  facet normal 0 -0.663123 0.748511
    outer loop
      vertex 2.5 11.8589 6.45818
      vertex 10.7081 13.2919 7.72774
      vertex 2.5 13.2919 7.72774
    endloop
  endfacet
  facet normal 0 -0.663123 0.748511
    outer loop
      vertex 10.7081 13.2919 7.72774
      vertex 2.5 11.8589 6.45818
      vertex 12.1411 11.8589 6.45818
    endloop
  endfacet
  facet normal -0 -0.822984 -0.568065
    outer loop
      vertex 10.2599 13.7401 11.4184
      vertex 2.5 12.6525 12.994
      vertex 2.5 13.7401 11.4184
    endloop
  endfacet
  facet normal 0 -0.822984 -0.568065
    outer loop
      vertex 2.5 12.6525 12.994
      vertex 10.2599 13.7401 11.4184
      vertex 11.3475 12.6525 12.994
    endloop
  endfacet
  facet normal 1 2.56517e-07 2.89548e-07
    outer loop
      vertex 2.5 6.70806 7.72774
      vertex 2.5 8.14111 6.45818
      vertex 2.5 6.25993 11.4184
    endloop
  endfacet
  facet normal 0 0.239315 0.970942
    outer loop
      vertex 2.5 8.14111 6.45818
      vertex 14 10 6
      vertex 2.5 10 6
    endloop
  endfacet
  facet normal 0 0.239315 0.970942
    outer loop
      vertex 14 10 6
      vertex 2.5 8.14111 6.45818
      vertex 15.8589 8.14111 6.45818
    endloop
  endfacet
  facet normal 1 0 1.68088e-07
    outer loop
      vertex 2.5 8.33753 11.4184
      vertex 2.5 6.25993 11.4184
      vertex 2.5 7.75 10
    endloop
  endfacet
  facet normal 1 0 1.68088e-07
    outer loop
      vertex 2.5 13.7401 11.4184
      vertex 2.5 11.6625 11.4184
      vertex 2.5 12.25 10
    endloop
  endfacet
  facet normal 1 2.86535e-08 1.37987e-07
    outer loop
      vertex 2.5 11.591 8.40901
      vertex 2.5 13.7401 11.4184
      vertex 2.5 12.25 10
    endloop
  endfacet
  facet normal 1 -7.35597e-07 6.83752e-07
    outer loop
      vertex 2.5 11.591 8.40901
      vertex 2.5 10 6
      vertex 2.5 13.7401 11.4184
    endloop
  endfacet
  facet normal 1 9.34234e-08 1.36239e-07
    outer loop
      vertex 2.5 10 7.75
      vertex 2.5 10 6
      vertex 2.5 11.591 8.40901
    endloop
  endfacet
  facet normal 1 -9.34234e-08 1.36239e-07
    outer loop
      vertex 2.5 8.40901 8.40901
      vertex 2.5 10 6
      vertex 2.5 10 7.75
    endloop
  endfacet
  facet normal 1 7.35603e-07 6.83756e-07
    outer loop
      vertex 2.5 8.40901 8.40901
      vertex 2.5 6.25993 11.4184
      vertex 2.5 10 6
    endloop
  endfacet
  facet normal 1 -2.86535e-08 1.37987e-07
    outer loop
      vertex 2.5 6.25993 11.4184
      vertex 2.5 8.40901 8.40901
      vertex 2.5 7.75 10
    endloop
  endfacet
  facet normal 5.97617e-07 0.663122 0.748511
    outer loop
      vertex 15.8589 8.14111 6.45818
      vertex 14.3747 7.12894 7.35488
      vertex 16.0219 7.97809 6.6026
    endloop
  endfacet
  facet normal -0 0.663123 0.748511
    outer loop
      vertex 2.5 8.14111 6.45818
      vertex 14.3747 7.12894 7.35488
      vertex 15.8589 8.14111 6.45818
    endloop
  endfacet
  facet normal -1.81499e-08 0.663122 0.748511
    outer loop
      vertex 2.5 8.14111 6.45818
      vertex 14.135 6.70806 7.72774
      vertex 14.3747 7.12894 7.35488
    endloop
  endfacet
  facet normal 0 0.663123 0.748511
    outer loop
      vertex 14.135 6.70806 7.72774
      vertex 2.5 8.14111 6.45818
      vertex 2.5 6.70806 7.72774
    endloop
  endfacet
  facet normal 0 -0.935016 0.354605
    outer loop
      vertex 2.5 13.2919 7.72774
      vertex 10.0292 13.9708 9.51785
      vertex 2.5 13.9708 9.51785
    endloop
  endfacet
  facet normal 0 -0.935016 0.354605
    outer loop
      vertex 10.0292 13.9708 9.51785
      vertex 2.5 13.2919 7.72774
      vertex 10.7081 13.2919 7.72774
    endloop
  endfacet
  facet normal 1 -1.00222e-06 3.80093e-07
    outer loop
      vertex 2.5 13.2919 7.72774
      vertex 2.5 13.9708 9.51785
      vertex 2.5 13.7401 11.4184
    endloop
  endfacet
  facet normal 0 -0.464723 -0.885456
    outer loop
      vertex 2.5 10.9573 13.8838
      vertex 11.3475 12.6525 12.994
      vertex 13.0427 10.9573 13.8838
    endloop
  endfacet
  facet normal -0 -0.464723 -0.885456
    outer loop
      vertex 11.3475 12.6525 12.994
      vertex 2.5 10.9573 13.8838
      vertex 2.5 12.6525 12.994
    endloop
  endfacet
  facet normal 0 0.935016 0.354604
    outer loop
      vertex 13.3084 6.22027 9.01394
      vertex 2.5 6.02916 9.51785
      vertex 13.3084 6.02916 9.51785
    endloop
  endfacet
  facet normal -0 0.935016 0.354605
    outer loop
      vertex 2.5 6.70806 7.72774
      vertex 13.3084 6.22027 9.01394
      vertex 14.135 6.70806 7.72774
    endloop
  endfacet
  facet normal 1.53461e-08 0.935016 0.354605
    outer loop
      vertex 13.3084 6.22027 9.01394
      vertex 2.5 6.70806 7.72774
      vertex 2.5 6.02916 9.51785
    endloop
  endfacet
  facet normal 1 -5.22752e-08 2.12089e-07
    outer loop
      vertex 2.5 10 6
      vertex 2.5 11.8589 6.45818
      vertex 2.5 13.7401 11.4184
    endloop
  endfacet
  facet normal 1 1.00222e-06 3.80093e-07
    outer loop
      vertex 2.5 6.02916 9.51785
      vertex 2.5 6.70806 7.72774
      vertex 2.5 6.25993 11.4184
    endloop
  endfacet
  facet normal 0 0.992709 -0.120536
    outer loop
      vertex 13.3084 6.20744 10.9861
      vertex 2.5 6.25993 11.4184
      vertex 13.5863 6.25993 11.4184
    endloop
  endfacet
  facet normal 0 0.992709 -0.120536
    outer loop
      vertex 2.5 6.02916 9.51785
      vertex 13.3084 6.20744 10.9861
      vertex 13.3084 6.02916 9.51785
    endloop
  endfacet
  facet normal -2.92982e-09 0.992709 -0.120536
    outer loop
      vertex 13.3084 6.20744 10.9861
      vertex 2.5 6.02916 9.51785
      vertex 2.5 6.25993 11.4184
    endloop
  endfacet
  facet normal 0 0.822984 -0.568065
    outer loop
      vertex 14.3747 7.10667 12.6451
      vertex 2.5 7.34751 12.994
      vertex 15.1387 7.34751 12.994
    endloop
  endfacet
  facet normal 1.18187e-08 0.822984 -0.568065
    outer loop
      vertex 13.5863 6.25993 11.4184
      vertex 2.5 7.34751 12.994
      vertex 14.3747 7.10667 12.6451
    endloop
  endfacet
  facet normal 0 0.822984 -0.568065
    outer loop
      vertex 2.5 7.34751 12.994
      vertex 13.5863 6.25993 11.4184
      vertex 2.5 6.25993 11.4184
    endloop
  endfacet
  facet normal -2.86893e-07 0.464723 -0.885456
    outer loop
      vertex 15.1387 7.34751 12.994
      vertex 14.9573 9.04274 13.8838
      vertex 15.9481 8.05186 13.3637
    endloop
  endfacet
  facet normal 0 0.464723 -0.885456
    outer loop
      vertex 2.5 7.34751 12.994
      vertex 14.9573 9.04274 13.8838
      vertex 15.1387 7.34751 12.994
    endloop
  endfacet
  facet normal 0 0.464723 -0.885456
    outer loop
      vertex 14.9573 9.04274 13.8838
      vertex 2.5 7.34751 12.994
      vertex 2.5 9.04274 13.8838
    endloop
  endfacet
  facet normal -0.866026 8.64607e-07 0.499999
    outer loop
      vertex 34.2083 0 8.48446
      vertex 34.715 2.5 9.36208
      vertex 34.2684 2.5 8.58842
    endloop
  endfacet
  facet normal -0.866017 0 0.500015
    outer loop
      vertex 34.2083 0 8.48446
      vertex 34.2684 2.5 8.58842
      vertex 34.2083 2.54677 8.48446
    endloop
  endfacet
  facet normal -0.866025 5.04045e-07 0.5
    outer loop
      vertex 34.715 2.5 9.36208
      vertex 34.2083 0 8.48446
      vertex 35.0833 0 10
    endloop
  endfacet
  facet normal -0.866026 0 0.499998
    outer loop
      vertex 34.715 2.5 9.36208
      vertex 35.0833 0 10
      vertex 35.0833 2.5 10
    endloop
  endfacet
  facet normal 0.866025 -3.15051e-07 0.5
    outer loop
      vertex 31.6542 2.5 9.87722
      vertex 31.5833 0 10
      vertex 31.7263 2.5 9.7524
    endloop
  endfacet
  facet normal 0.866022 -0 0.500005
    outer loop
      vertex 31.5833 0 10
      vertex 31.6542 2.5 9.87722
      vertex 31.5833 2.58443 10
    endloop
  endfacet
  facet normal 0.866026 -5.94076e-07 0.499998
    outer loop
      vertex 31.5833 0 10
      vertex 32.1873 2.5 8.95385
      vertex 31.7263 2.5 9.7524
    endloop
  endfacet
  facet normal 0.866025 2.82912e-07 0.5
    outer loop
      vertex 32.1873 2.5 8.95385
      vertex 31.5833 0 10
      vertex 32.4583 0 8.48446
    endloop
  endfacet
  facet normal 0.866023 -6.49049e-07 0.500004
    outer loop
      vertex 32.1873 2.5 8.95385
      vertex 32.4583 0 8.48446
      vertex 32.4041 2.5 8.57846
    endloop
  endfacet
  facet normal 0.866031 0 0.499991
    outer loop
      vertex 32.4041 2.5 8.57846
      vertex 32.4583 0 8.48446
      vertex 32.4583 2.575 8.48446
    endloop
  endfacet
  facet normal -0 0 1
    outer loop
      vertex 34.1484 2.5 8.48446
      vertex 34.2083 0 8.48446
      vertex 34.2083 2.54677 8.48446
    endloop
  endfacet
  facet normal -0 0 1
    outer loop
      vertex 34.0603 2.5 8.48446
      vertex 34.2083 0 8.48446
      vertex 34.1484 2.5 8.48446
    endloop
  endfacet
  facet normal -0 0 1
    outer loop
      vertex 33.1479 2.5 8.48446
      vertex 34.2083 0 8.48446
      vertex 34.0603 2.5 8.48446
    endloop
  endfacet
  facet normal 0 0 1
    outer loop
      vertex 32.4583 0 8.48446
      vertex 33.1479 2.5 8.48446
      vertex 33.0207 2.5 8.48446
    endloop
  endfacet
  facet normal 0 0 1
    outer loop
      vertex 32.4583 0 8.48446
      vertex 33.0207 2.5 8.48446
      vertex 32.6099 2.5 8.48446
    endloop
  endfacet
  facet normal 0 0 1
    outer loop
      vertex 32.4583 0 8.48446
      vertex 32.6099 2.5 8.48446
      vertex 32.4583 2.575 8.48446
    endloop
  endfacet
  facet normal 0 0 1
    outer loop
      vertex 33.1479 2.5 8.48446
      vertex 32.4583 0 8.48446
      vertex 34.2083 0 8.48446
    endloop
  endfacet
  facet normal -0.866026 -0 -0.499999
    outer loop
      vertex 35.0833 2.5 10
      vertex 35.0833 0 10
      vertex 34.2684 2.5 11.4116
    endloop
  endfacet
  facet normal -0.866025 8.08812e-07 -0.5
    outer loop
      vertex 34.2083 0 11.5155
      vertex 34.2684 2.5 11.4116
      vertex 35.0833 0 10
    endloop
  endfacet
  facet normal -0.866017 0 -0.500015
    outer loop
      vertex 34.2684 2.5 11.4116
      vertex 34.2083 0 11.5155
      vertex 34.2083 2.54677 11.5155
    endloop
  endfacet
  facet normal 0 0 -1
    outer loop
      vertex 34.2083 0 11.5155
      vertex 34.1484 2.5 11.5155
      vertex 34.2083 2.54677 11.5155
    endloop
  endfacet
  facet normal 0 0 -1
    outer loop
      vertex 34.2083 0 11.5155
      vertex 34.1094 2.5 11.5155
      vertex 34.1484 2.5 11.5155
    endloop
  endfacet
  facet normal 0 0 -1
    outer loop
      vertex 34.2083 0 11.5155
      vertex 34.0827 2.5 11.5155
      vertex 34.1094 2.5 11.5155
    endloop
  endfacet
  facet normal 0 0 -1
    outer loop
      vertex 34.2083 0 11.5155
      vertex 34.0603 2.5 11.5155
      vertex 34.0827 2.5 11.5155
    endloop
  endfacet
  facet normal 0 0 -1
    outer loop
      vertex 34.2083 0 11.5155
      vertex 34.0379 2.5 11.5155
      vertex 34.0603 2.5 11.5155
    endloop
  endfacet
  facet normal 0 0 -1
    outer loop
      vertex 34.2083 0 11.5155
      vertex 33.5296 2.5 11.5155
      vertex 34.0379 2.5 11.5155
    endloop
  endfacet
  facet normal 0 0 -1
    outer loop
      vertex 32.4583 0 11.5155
      vertex 33.5296 2.5 11.5155
      vertex 34.2083 0 11.5155
    endloop
  endfacet
  facet normal -0 0 -1
    outer loop
      vertex 33.5296 2.5 11.5155
      vertex 32.4583 0 11.5155
      vertex 32.6099 2.5 11.5155
    endloop
  endfacet
  facet normal -0 0 -1
    outer loop
      vertex 32.6099 2.5 11.5155
      vertex 32.4583 0 11.5155
      vertex 32.4583 2.57499 11.5155
    endloop
  endfacet
  facet normal 0.86603 -7.47557e-08 -0.499992
    outer loop
      vertex 32.4583 0 11.5155
      vertex 32.3614 2.5 11.3476
      vertex 32.4041 2.5 11.4215
    endloop
  endfacet
  facet normal 0.866022 -1.24431e-06 -0.500005
    outer loop
      vertex 32.3614 2.5 11.3476
      vertex 32.4583 0 11.5155
      vertex 32.2411 2.5 11.1393
    endloop
  endfacet
  facet normal 0.866018 -2.79911e-06 -0.500013
    outer loop
      vertex 32.2411 2.5 11.1393
      vertex 32.4583 0 11.5155
      vertex 32.1873 2.5 11.0461
    endloop
  endfacet
  facet normal 0.866031 0 -0.499991
    outer loop
      vertex 32.4583 0 11.5155
      vertex 32.4041 2.5 11.4215
      vertex 32.4583 2.57499 11.5155
    endloop
  endfacet
  facet normal 0.866026 5.84786e-07 -0.499999
    outer loop
      vertex 32.4583 0 11.5155
      vertex 32.0222 2.5 10.7601
      vertex 32.1873 2.5 11.0461
    endloop
  endfacet
  facet normal 0.866025 3.10841e-07 -0.5
    outer loop
      vertex 31.5833 0 10
      vertex 32.0222 2.5 10.7601
      vertex 32.4583 0 11.5155
    endloop
  endfacet
  facet normal 0.866026 -4.59467e-07 -0.499998
    outer loop
      vertex 32.0222 2.5 10.7601
      vertex 31.5833 0 10
      vertex 31.6542 2.5 10.1228
    endloop
  endfacet
  facet normal 0.866022 0 -0.500005
    outer loop
      vertex 31.6542 2.5 10.1228
      vertex 31.5833 0 10
      vertex 31.5833 2.58443 10
    endloop
  endfacet
  facet normal -0.866026 2.03882e-07 0.499999
    outer loop
      vertex 17.5417 0 8.48446
      vertex 18.0484 2.5 9.36208
      vertex 17.6017 2.5 8.58842
    endloop
  endfacet
  facet normal -0.866024 0 0.500003
    outer loop
      vertex 17.5417 0 8.48446
      vertex 17.6017 2.5 8.58842
      vertex 17.5417 2.54677 8.48446
    endloop
  endfacet
  facet normal -0.866025 -1.5668e-07 0.5
    outer loop
      vertex 18.0484 2.5 9.36208
      vertex 17.5417 0 8.48446
      vertex 18.4167 0 10
    endloop
  endfacet
  facet normal -0.866025 0 0.5
    outer loop
      vertex 18.0484 2.5 9.36208
      vertex 18.4167 0 10
      vertex 18.4167 2.5 10
    endloop
  endfacet
  facet normal 0.866025 1.53111e-08 0.5
    outer loop
      vertex 14.9876 2.5 9.87722
      vertex 14.9167 0 10
      vertex 15.0596 2.5 9.7524
    endloop
  endfacet
  facet normal 0.866025 -0 0.5
    outer loop
      vertex 14.9167 0 10
      vertex 14.9876 2.5 9.87722
      vertex 14.9167 2.58443 10
    endloop
  endfacet
  facet normal 0.866025 -5.88449e-08 0.5
    outer loop
      vertex 14.9167 0 10
      vertex 15.5207 2.5 8.95385
      vertex 15.0596 2.5 9.7524
    endloop
  endfacet
  facet normal 0.866025 -4.745e-08 0.5
    outer loop
      vertex 15.5207 2.5 8.95385
      vertex 14.9167 0 10
      vertex 15.7917 0 8.48446
    endloop
  endfacet
  facet normal 0.866025 -1.53234e-07 0.5
    outer loop
      vertex 15.5207 2.5 8.95385
      vertex 15.7917 0 8.48446
      vertex 15.7374 2.5 8.57846
    endloop
  endfacet
  facet normal 0.866027 0 0.499997
    outer loop
      vertex 15.7374 2.5 8.57846
      vertex 15.7917 0 8.48446
      vertex 15.7917 2.575 8.48446
    endloop
  endfacet
  facet normal -0 0 1
    outer loop
      vertex 17.4817 2.5 8.48446
      vertex 17.5417 0 8.48446
      vertex 17.5417 2.54677 8.48446
    endloop
  endfacet
  facet normal -0 0 1
    outer loop
      vertex 17.3936 2.5 8.48446
      vertex 17.5417 0 8.48446
      vertex 17.4817 2.5 8.48446
    endloop
  endfacet
  facet normal -0 0 1
    outer loop
      vertex 16.4812 2.5 8.48446
      vertex 17.5417 0 8.48446
      vertex 17.3936 2.5 8.48446
    endloop
  endfacet
  facet normal 0 0 1
    outer loop
      vertex 15.7917 0 8.48446
      vertex 16.4812 2.5 8.48446
      vertex 16.354 2.5 8.48446
    endloop
  endfacet
  facet normal 0 0 1
    outer loop
      vertex 15.7917 0 8.48446
      vertex 16.354 2.5 8.48446
      vertex 15.9432 2.5 8.48446
    endloop
  endfacet
  facet normal 0 0 1
    outer loop
      vertex 15.7917 0 8.48446
      vertex 15.9432 2.5 8.48446
      vertex 15.7917 2.575 8.48446
    endloop
  endfacet
  facet normal 0 0 1
    outer loop
      vertex 16.4812 2.5 8.48446
      vertex 15.7917 0 8.48446
      vertex 17.5417 0 8.48446
    endloop
  endfacet
  facet normal 0 0 -1
    outer loop
      vertex 17.5417 0 11.5155
      vertex 17.4817 2.5 11.5155
      vertex 17.5417 2.54677 11.5155
    endloop
  endfacet
  facet normal 0 0 -1
    outer loop
      vertex 17.5417 0 11.5155
      vertex 17.4427 2.5 11.5155
      vertex 17.4817 2.5 11.5155
    endloop
  endfacet
  facet normal 0 0 -1
    outer loop
      vertex 17.5417 0 11.5155
      vertex 17.416 2.5 11.5155
      vertex 17.4427 2.5 11.5155
    endloop
  endfacet
  facet normal 0 0 -1
    outer loop
      vertex 17.5417 0 11.5155
      vertex 17.3936 2.5 11.5155
      vertex 17.416 2.5 11.5155
    endloop
  endfacet
  facet normal 0 0 -1
    outer loop
      vertex 17.5417 0 11.5155
      vertex 17.3712 2.5 11.5155
      vertex 17.3936 2.5 11.5155
    endloop
  endfacet
  facet normal 0 0 -1
    outer loop
      vertex 17.5417 0 11.5155
      vertex 16.8629 2.5 11.5155
      vertex 17.3712 2.5 11.5155
    endloop
  endfacet
  facet normal 0 0 -1
    outer loop
      vertex 15.7917 0 11.5155
      vertex 16.8629 2.5 11.5155
      vertex 17.5417 0 11.5155
    endloop
  endfacet
  facet normal -0 0 -1
    outer loop
      vertex 16.8629 2.5 11.5155
      vertex 15.7917 0 11.5155
      vertex 15.9432 2.5 11.5155
    endloop
  endfacet
  facet normal -0 0 -1
    outer loop
      vertex 15.9432 2.5 11.5155
      vertex 15.7917 0 11.5155
      vertex 15.7917 2.57499 11.5155
    endloop
  endfacet
  facet normal 0.866025 -1.64306e-07 -0.500001
    outer loop
      vertex 15.7917 0 11.5155
      vertex 15.6947 2.5 11.3476
      vertex 15.7374 2.5 11.4215
    endloop
  endfacet
  facet normal 0.866024 -3.17146e-07 -0.500002
    outer loop
      vertex 15.6947 2.5 11.3476
      vertex 15.7917 0 11.5155
      vertex 15.5745 2.5 11.1393
    endloop
  endfacet
  facet normal 0.866026 1.98734e-07 -0.5
    outer loop
      vertex 15.5745 2.5 11.1393
      vertex 15.7917 0 11.5155
      vertex 15.5207 2.5 11.0461
    endloop
  endfacet
  facet normal 0.866027 0 -0.499997
    outer loop
      vertex 15.7917 0 11.5155
      vertex 15.7374 2.5 11.4215
      vertex 15.7917 2.57499 11.5155
    endloop
  endfacet
  facet normal 0.866026 2.54424e-07 -0.499999
    outer loop
      vertex 15.7917 0 11.5155
      vertex 15.3555 2.5 10.7601
      vertex 15.5207 2.5 11.0461
    endloop
  endfacet
  facet normal 0.866025 -1.95218e-08 -0.5
    outer loop
      vertex 14.9167 0 10
      vertex 15.3555 2.5 10.7601
      vertex 15.7917 0 11.5155
    endloop
  endfacet
  facet normal 0.866025 -1.81084e-09 -0.5
    outer loop
      vertex 15.3555 2.5 10.7601
      vertex 14.9167 0 10
      vertex 14.9876 2.5 10.1228
    endloop
  endfacet
  facet normal 0.866025 0 -0.5
    outer loop
      vertex 14.9876 2.5 10.1228
      vertex 14.9167 0 10
      vertex 14.9167 2.58443 10
    endloop
  endfacet
  facet normal -0.866025 -0 -0.5
    outer loop
      vertex 18.4167 2.5 10
      vertex 18.4167 0 10
      vertex 17.6017 2.5 11.4116
    endloop
  endfacet
  facet normal -0.866025 1.48087e-07 -0.5
    outer loop
      vertex 17.5417 0 11.5155
      vertex 17.6017 2.5 11.4116
      vertex 18.4167 0 10
    endloop
  endfacet
  facet normal -0.866024 0 -0.500003
    outer loop
      vertex 17.6017 2.5 11.4116
      vertex 17.5417 0 11.5155
      vertex 17.5417 2.54677 11.5155
    endloop
  endfacet
  facet normal 9.55602e-07 1 -6.14127e-07
    outer loop
      vertex 13.3084 4 10.9861
      vertex 13.9549 4 11.2155
      vertex 13.8615 4 11.0702
    endloop
  endfacet
  facet normal 6.91309e-07 1 1.30551e-07
    outer loop
      vertex 13.9549 4 11.2155
      vertex 13.3084 4 10.9861
      vertex 14.3747 4 12.6451
    endloop
  endfacet
  facet normal 9.55602e-07 1 -6.14126e-07
    outer loop
      vertex 13.7282 4 10.8628
      vertex 13.3084 4 10.9861
      vertex 13.8615 4 11.0702
    endloop
  endfacet
  facet normal 1.13592e-06 1 -0
    outer loop
      vertex 13.7282 4 10.4436
      vertex 13.3084 4 10.9861
      vertex 13.7282 4 10.8628
    endloop
  endfacet
  facet normal 1.13592e-06 1 0
    outer loop
      vertex 13.3084 4 10.9861
      vertex 13.7282 4 10.4436
      vertex 13.3084 4 9.01394
    endloop
  endfacet
  facet normal -0.959493 0 0.281732
    outer loop
      vertex 20 4 9.43239
      vertex 19.6111 4.38895 8.10776
      vertex 19.6111 4 8.10776
    endloop
  endfacet
  facet normal -0.654861 0 -0.75575
    outer loop
      vertex 18.1206 4 13.1837
      vertex 19.6111 4.38895 11.8922
      vertex 19.6111 4 11.8922
    endloop
  endfacet
  facet normal -0.654861 0 -0.75575
    outer loop
      vertex 19.6111 4.38895 11.8922
      vertex 18.1206 4 13.1837
      vertex 18.1206 5.87938 13.1837
    endloop
  endfacet
  facet normal 0.841254 0 0.540641
    outer loop
      vertex 14.3747 4 7.35488
      vertex 13.3084 6.22027 9.01394
      vertex 13.3084 4 9.01394
    endloop
  endfacet
  facet normal 0.841254 -1.73769e-07 0.540641
    outer loop
      vertex 13.3084 6.22027 9.01394
      vertex 14.3747 4 7.35488
      vertex 14.135 6.70806 7.72774
    endloop
  endfacet
  facet normal 0.841254 0 0.54064
    outer loop
      vertex 14.135 6.70806 7.72774
      vertex 14.3747 4 7.35488
      vertex 14.3747 7.12894 7.35488
    endloop
  endfacet
  facet normal -0.142315 0 -0.989821
    outer loop
      vertex 16.1686 4 13.4644
      vertex 18.1206 5.87938 13.1837
      vertex 18.1206 4 13.1837
    endloop
  endfacet
  facet normal -0.142315 0 -0.989821
    outer loop
      vertex 18.1206 5.87938 13.1837
      vertex 16.1686 4 13.4644
      vertex 16.1686 7.83144 13.4644
    endloop
  endfacet
  facet normal 0.415414 2.67426e-06 0.909632
    outer loop
      vertex 14.3747 7.12894 7.35488
      vertex 16.1686 7.83144 6.53562
      vertex 16.0219 7.97809 6.6026
    endloop
  endfacet
  facet normal 0.415415 0 0.909632
    outer loop
      vertex 16.1686 7.83144 6.53562
      vertex 14.3747 7.12894 7.35488
      vertex 16.1686 4 6.53562
    endloop
  endfacet
  facet normal 0.415415 0 0.909632
    outer loop
      vertex 16.1686 4 6.53562
      vertex 14.3747 7.12894 7.35488
      vertex 14.3747 4 7.35488
    endloop
  endfacet
  facet normal 0 1 -0
    outer loop
      vertex 14.8854 4 12.4169
      vertex 14.3747 4 12.6451
      vertex 15.1432 4 12.5346
    endloop
  endfacet
  facet normal 0 1 -0
    outer loop
      vertex 14.6612 4 12.3145
      vertex 14.3747 4 12.6451
      vertex 14.8854 4 12.4169
    endloop
  endfacet
  facet normal 0 1 0
    outer loop
      vertex 14.3747 4 12.6451
      vertex 14.6612 4 12.3145
      vertex 14.5311 4 12.1122
    endloop
  endfacet
  facet normal 0 1 0
    outer loop
      vertex 16.0121 4 7.06857
      vertex 16.2308 4 6.96867
      vertex 16.1686 4 6.53562
    endloop
  endfacet
  facet normal 0 1 0
    outer loop
      vertex 16.4689 4 7.0029
      vertex 16.1686 4 6.53562
      vertex 16.2308 4 6.96867
    endloop
  endfacet
  facet normal 0 1 0
    outer loop
      vertex 19.6111 4 11.8922
      vertex 19.0567 4 11.8171
      vertex 18.8425 4 12.0027
    endloop
  endfacet
  facet normal 0 1 0
    outer loop
      vertex 19.6111 4 11.8922
      vertex 19.243 4 11.6557
      vertex 19.0567 4 11.8171
    endloop
  endfacet
  facet normal -0 1 0
    outer loop
      vertex 19.243 4 11.6557
      vertex 19.6111 4 11.8922
      vertex 19.3108 4 11.425
    endloop
  endfacet
  facet normal 1.04576e-06 1 3.07064e-07
    outer loop
      vertex 14.5311 4 12.1122
      vertex 14.3747 4 11.8687
      vertex 14.3747 4 12.6451
    endloop
  endfacet
  facet normal -3.54371e-07 1 3.07064e-07
    outer loop
      vertex 14.6612 4 7.68552
      vertex 14.3747 4 7.35488
      vertex 14.3747 4 8.13132
    endloop
  endfacet
  facet normal 0 1 0
    outer loop
      vertex 14.8854 4 7.58311
      vertex 14.3747 4 7.35488
      vertex 14.6612 4 7.68552
    endloop
  endfacet
  facet normal 0 1 0
    outer loop
      vertex 16.0121 4 7.06857
      vertex 14.3747 4 7.35488
      vertex 14.8854 4 7.58311
    endloop
  endfacet
  facet normal 0 1 0
    outer loop
      vertex 14.3747 4 7.35488
      vertex 16.0121 4 7.06857
      vertex 16.1686 4 6.53562
    endloop
  endfacet
  facet normal -6.26525e-07 1 3.20027e-07
    outer loop
      vertex 20.1667 4 10
      vertex 19.6111 4 10.4023
      vertex 19.6111 4 11.8922
    endloop
  endfacet
  facet normal -1.08991e-06 1 -3.20029e-07
    outer loop
      vertex 20.1667 4 10
      vertex 19.7292 4 10
      vertex 19.6111 4 10.4023
    endloop
  endfacet
  facet normal -1.08991e-06 1 3.20031e-07
    outer loop
      vertex 20.1667 4 10
      vertex 19.6597 4 9.76347
      vertex 19.7292 4 10
    endloop
  endfacet
  facet normal -1.08991e-06 1 3.20027e-07
    outer loop
      vertex 20 4 9.43239
      vertex 19.6597 4 9.76347
      vertex 20.1667 4 10
    endloop
  endfacet
  facet normal -1.08991e-06 1 3.20025e-07
    outer loop
      vertex 19.6597 4 9.76347
      vertex 20 4 9.43239
      vertex 19.6111 4 9.59775
    endloop
  endfacet
  facet normal -1.08991e-06 1 3.20027e-07
    outer loop
      vertex 19.6111 4 9.59775
      vertex 20 4 9.43239
      vertex 19.6111 4 8.10776
    endloop
  endfacet
  facet normal -0.912576 0.308876 -0.267956
    outer loop
      vertex 20.1667 4 10
      vertex 19.6111 4 11.8922
      vertex 20 4 10.5676
    endloop
  endfacet
  facet normal -0.959493 -0 -0.281733
    outer loop
      vertex 19.6111 4.38895 11.8922
      vertex 20 4 10.5676
      vertex 19.6111 4 11.8922
    endloop
  endfacet
  facet normal 5.14376e-07 1 1.82503e-07
    outer loop
      vertex 13.7282 4 9.13719
      vertex 13.3084 4 9.01394
      vertex 13.7282 4 10.4436
    endloop
  endfacet
  facet normal 4.77801e-07 1 3.07065e-07
    outer loop
      vertex 13.8615 4 8.92981
      vertex 13.3084 4 9.01394
      vertex 13.7282 4 9.13719
    endloop
  endfacet
  facet normal 4.77801e-07 1 3.07064e-07
    outer loop
      vertex 14.3747 4 8.13132
      vertex 13.3084 4 9.01394
      vertex 13.8615 4 8.92981
    endloop
  endfacet
  facet normal 4.77801e-07 1 3.07064e-07
    outer loop
      vertex 13.3084 4 9.01394
      vertex 14.3747 4 8.13132
      vertex 14.3747 4 7.35488
    endloop
  endfacet
  facet normal 9.01617e-08 1 3.07064e-07
    outer loop
      vertex 14.3747 4 12.6451
      vertex 14.3747 4 11.8687
      vertex 13.9549 4 11.2155
    endloop
  endfacet
  facet normal -0.142315 0 0.989821
    outer loop
      vertex 16.1686 4 6.53562
      vertex 18.1206 5.87938 6.81629
      vertex 16.1686 7.83144 6.53562
    endloop
  endfacet
  facet normal -0.142315 0 0.989821
    outer loop
      vertex 18.1206 5.87938 6.81629
      vertex 16.1686 4 6.53562
      vertex 18.1206 4 6.81629
    endloop
  endfacet
  facet normal -0.654861 0 0.75575
    outer loop
      vertex 18.1206 4 6.81629
      vertex 19.6111 4.38895 8.10776
      vertex 18.1206 5.87938 6.81629
    endloop
  endfacet
  facet normal -0.654861 0 0.75575
    outer loop
      vertex 19.6111 4.38895 8.10776
      vertex 18.1206 4 6.81629
      vertex 19.6111 4 8.10776
    endloop
  endfacet
  facet normal 1 0 0
    outer loop
      vertex 13.3084 6.20744 10.9861
      vertex 13.3084 4 10.9861
      vertex 13.3084 6.02916 9.51785
    endloop
  endfacet
  facet normal 1 0 0
    outer loop
      vertex 13.3084 4 9.01394
      vertex 13.3084 6.02916 9.51785
      vertex 13.3084 4 10.9861
    endloop
  endfacet
  facet normal 1 0 0
    outer loop
      vertex 13.3084 6.02916 9.51785
      vertex 13.3084 4 9.01394
      vertex 13.3084 6.22027 9.01394
    endloop
  endfacet
  facet normal 1.12104e-06 1 -9.13923e-09
    outer loop
      vertex 18.1206 4 6.81629
      vertex 18.1252 4 7.37569
      vertex 18.3394 4 7.56128
    endloop
  endfacet
  facet normal 0 1 0
    outer loop
      vertex 18.1206 4 6.81629
      vertex 17.6949 4 7.17917
      vertex 17.9389 4 7.21425
    endloop
  endfacet
  facet normal 0 1 0
    outer loop
      vertex 18.1252 4 7.37569
      vertex 18.1206 4 6.81629
      vertex 17.9389 4 7.21425
    endloop
  endfacet
  facet normal 0 1 0
    outer loop
      vertex 17.6949 4 7.17917
      vertex 18.1206 4 6.81629
      vertex 16.4689 4 7.0029
    endloop
  endfacet
  facet normal 0 1 0
    outer loop
      vertex 16.4689 4 7.0029
      vertex 18.1206 4 6.81629
      vertex 16.1686 4 6.53562
    endloop
  endfacet
  facet normal -9.16894e-07 1 5.89251e-07
    outer loop
      vertex 19.6111 4 11.8922
      vertex 19.3923 4 11.1472
      vertex 19.3108 4 11.425
    endloop
  endfacet
  facet normal -4.42123e-07 1 3.20027e-07
    outer loop
      vertex 19.6111 4 8.10776
      vertex 19.243 4 8.34429
      vertex 19.6111 4 9.59775
    endloop
  endfacet
  facet normal -3.71937e-07 1 4.29239e-07
    outer loop
      vertex 19.6111 4 8.10776
      vertex 18.3394 4 7.56128
      vertex 19.243 4 8.34429
    endloop
  endfacet
  facet normal -3.71937e-07 1 4.29238e-07
    outer loop
      vertex 18.3394 4 7.56128
      vertex 19.6111 4 8.10776
      vertex 18.1206 4 6.81629
    endloop
  endfacet
  facet normal -6.97604e-13 1 3.20027e-07
    outer loop
      vertex 19.6111 4 11.8922
      vertex 19.6111 4 10.4023
      vertex 19.3923 4 11.1472
    endloop
  endfacet
  facet normal 0.415415 0 -0.909632
    outer loop
      vertex 15.1387 7.34751 12.994
      vertex 16.1686 7.83144 13.4644
      vertex 16.1686 4 13.4644
    endloop
  endfacet
  facet normal 0.415415 2.75977e-07 -0.909632
    outer loop
      vertex 16.1686 7.83144 13.4644
      vertex 15.1387 7.34751 12.994
      vertex 15.9481 8.05186 13.3637
    endloop
  endfacet
  facet normal 0.415415 4.30844e-08 -0.909632
    outer loop
      vertex 14.3747 4 12.6451
      vertex 15.1387 7.34751 12.994
      vertex 16.1686 4 13.4644
    endloop
  endfacet
  facet normal 0.415415 0 -0.909632
    outer loop
      vertex 15.1387 7.34751 12.994
      vertex 14.3747 4 12.6451
      vertex 14.3747 7.10667 12.6451
    endloop
  endfacet
  facet normal 0.841254 0 -0.54064
    outer loop
      vertex 13.5863 6.25993 11.4184
      vertex 13.3084 4 10.9861
      vertex 13.3084 6.20744 10.9861
    endloop
  endfacet
  facet normal 0.841254 0 -0.540641
    outer loop
      vertex 14.3747 4 12.6451
      vertex 13.5863 6.25993 11.4184
      vertex 14.3747 7.10667 12.6451
    endloop
  endfacet
  facet normal 0.841254 1.00744e-07 -0.540641
    outer loop
      vertex 13.5863 6.25993 11.4184
      vertex 14.3747 4 12.6451
      vertex 13.3084 4 10.9861
    endloop
  endfacet
  facet normal 0 1 0
    outer loop
      vertex 16.1686 4 13.4644
      vertex 17.6949 4 12.8208
      vertex 16.2308 4 13.0313
    endloop
  endfacet
  facet normal 0 1 0
    outer loop
      vertex 18.1206 4 13.1837
      vertex 17.9389 4 12.7857
      vertex 17.6949 4 12.8208
    endloop
  endfacet
  facet normal 0 1 0
    outer loop
      vertex 18.1206 4 13.1837
      vertex 18.8425 4 12.0027
      vertex 17.9389 4 12.7857
    endloop
  endfacet
  facet normal -0 1 -0
    outer loop
      vertex 18.8425 4 12.0027
      vertex 18.1206 4 13.1837
      vertex 19.6111 4 11.8922
    endloop
  endfacet
  facet normal 0 1 -0
    outer loop
      vertex 17.6949 4 12.8208
      vertex 16.1686 4 13.4644
      vertex 18.1206 4 13.1837
    endloop
  endfacet
  facet normal 0 1 0
    outer loop
      vertex 15.1432 4 12.5346
      vertex 16.1686 4 13.4644
      vertex 16.2308 4 13.0313
    endloop
  endfacet
  facet normal 0 1 0
    outer loop
      vertex 16.1686 4 13.4644
      vertex 15.1432 4 12.5346
      vertex 14.3747 4 12.6451
    endloop
  endfacet
  facet normal -0.734849 0.642993 0.21577
    outer loop
      vertex 35.0833 2.5 10
      vertex 36.3264 4 9.76347
      vertex 34.8055 2.5 9.05388
    endloop
  endfacet
  facet normal -0.73485 0.642993 0.215768
    outer loop
      vertex 36.3264 4 9.76347
      vertex 35.0833 2.5 10
      vertex 36.3958 4 10
    endloop
  endfacet
  facet normal 0.644293 0.642992 -0.414062
    outer loop
      vertex 31.3278 4 12.3145
      vertex 32.1873 2.5 11.3226
      vertex 30.5282 4 11.0702
    endloop
  endfacet
  facet normal 0 1 0
    outer loop
      vertex 35.0833 2.5 10
      vertex 34.8055 2.5 9.05388
      vertex 34.715 2.5 9.36208
    endloop
  endfacet
  facet normal 0 1 0
    outer loop
      vertex 34.1094 2.5 11.5155
      vertex 34.0827 2.5 11.5155
      vertex 34.0603 2.5 11.5919
    endloop
  endfacet
  facet normal 0 1 0
    outer loop
      vertex 34.0603 2.5 11.5919
      vertex 34.0603 2.5 11.5155
      vertex 34.0379 2.5 11.5155
    endloop
  endfacet
  facet normal 0 1 -0
    outer loop
      vertex 34.0603 2.5 8.40814
      vertex 33.1479 2.5 8.48446
      vertex 34.0603 2.5 8.48446
    endloop
  endfacet
  facet normal 0 1 0
    outer loop
      vertex 33.1479 2.5 8.48446
      vertex 34.0603 2.5 8.40814
      vertex 33.0843 2.5 8.26781
    endloop
  endfacet
  facet normal -0.501539 0.642993 -0.578808
    outer loop
      vertex 34.6055 4 12.7857
      vertex 35.7234 4 11.8171
      vertex 34.0603 2.5 11.5919
    endloop
  endfacet
  facet normal -0.734849 0.642993 0.215771
    outer loop
      vertex 36.3264 4 9.76347
      vertex 35.9097 4 8.34429
      vertex 34.8055 2.5 9.05388
    endloop
  endfacet
  facet normal 0.318154 0.642993 -0.696662
    outer loop
      vertex 32.8975 4 13.0313
      vertex 33.0843 2.5 11.7322
      vertex 31.5521 4 12.4169
    endloop
  endfacet
  facet normal 0.644293 0.642993 0.41406
    outer loop
      vertex 32.1873 2.5 8.67744
      vertex 30.3949 4 9.13719
      vertex 31.6542 2.5 9.50697
    endloop
  endfacet
  facet normal 0.644293 0.642993 0.414061
    outer loop
      vertex 30.3949 4 9.13719
      vertex 32.1873 2.5 8.67744
      vertex 30.5282 4 8.92981
    endloop
  endfacet
  facet normal 0.644293 0.642992 0.414062
    outer loop
      vertex 32.1873 2.5 8.67744
      vertex 31.3278 4 7.68552
      vertex 30.5282 4 8.92981
    endloop
  endfacet
  facet normal 0.318155 0.642993 0.696662
    outer loop
      vertex 33.0843 2.5 8.26781
      vertex 32.8975 4 6.96867
      vertex 31.5521 4 7.58311
    endloop
  endfacet
  facet normal -0.108995 0.642993 0.758077
    outer loop
      vertex 33.0843 2.5 8.26781
      vertex 34.3615 4 7.17917
      vertex 32.8975 4 6.96867
    endloop
  endfacet
  facet normal -0.50154 0.642993 0.578807
    outer loop
      vertex 34.8055 2.5 9.05388
      vertex 35.9097 4 8.34429
      vertex 34.7918 4 7.37569
    endloop
  endfacet
  facet normal 0.318155 0.64299 -0.696665
    outer loop
      vertex 32.4583 2.57499 11.5155
      vertex 33.0843 2.5 11.7322
      vertex 32.6099 2.5 11.5155
    endloop
  endfacet
  facet normal 0.318151 0.642998 -0.696659
    outer loop
      vertex 32.1873 2.5 11.3226
      vertex 32.4583 2.57499 11.5155
      vertex 32.4041 2.5 11.4215
    endloop
  endfacet
  facet normal 0.318154 0.642993 -0.696662
    outer loop
      vertex 32.4583 2.57499 11.5155
      vertex 31.5521 4 12.4169
      vertex 33.0843 2.5 11.7322
    endloop
  endfacet
  facet normal 0.318154 0.642993 -0.696662
    outer loop
      vertex 32.1873 2.5 11.3226
      vertex 31.5521 4 12.4169
      vertex 32.4583 2.57499 11.5155
    endloop
  endfacet
  facet normal 0.318157 0.642993 -0.696661
    outer loop
      vertex 31.5521 4 12.4169
      vertex 32.1873 2.5 11.3226
      vertex 31.3278 4 12.3145
    endloop
  endfacet
  facet normal -0.734849 0.642993 -0.21577
    outer loop
      vertex 34.8055 2.5 10.9461
      vertex 36.3958 4 10
      vertex 35.0833 2.5 10
    endloop
  endfacet
  facet normal -0.734849 0.642993 -0.215771
    outer loop
      vertex 36.3958 4 10
      vertex 34.8055 2.5 10.9461
      vertex 35.9097 4 11.6557
    endloop
  endfacet
  facet normal 0 1 0
    outer loop
      vertex 32.3614 2.5 11.3476
      vertex 32.2411 2.5 11.1393
      vertex 32.1873 2.5 11.3226
    endloop
  endfacet
  facet normal 0 1 0
    outer loop
      vertex 34.0603 2.5 11.5919
      vertex 34.0379 2.5 11.5155
      vertex 33.5296 2.5 11.5155
    endloop
  endfacet
  facet normal 0 1 0
    outer loop
      vertex 33.1479 2.5 8.48446
      vertex 33.0843 2.5 8.26781
      vertex 33.0207 2.5 8.48446
    endloop
  endfacet
  facet normal 0 1 0
    outer loop
      vertex 34.715 2.5 9.36208
      vertex 34.8055 2.5 9.05388
      vertex 34.2684 2.5 8.58842
    endloop
  endfacet
  facet normal 0 1 0
    outer loop
      vertex 34.0827 2.5 11.5155
      vertex 34.0603 2.5 11.5155
      vertex 34.0603 2.5 11.5919
    endloop
  endfacet
  facet normal 0 1 0
    outer loop
      vertex 34.1484 2.5 8.48446
      vertex 34.0603 2.5 8.40814
      vertex 34.0603 2.5 8.48446
    endloop
  endfacet
  facet normal 0 1 0
    outer loop
      vertex 32.4041 2.5 11.4215
      vertex 32.3614 2.5 11.3476
      vertex 32.1873 2.5 11.3226
    endloop
  endfacet
  facet normal 0 1 -0
    outer loop
      vertex 33.5296 2.5 11.5155
      vertex 33.0843 2.5 11.7322
      vertex 34.0603 2.5 11.5919
    endloop
  endfacet
  facet normal 0 1 0
    outer loop
      vertex 33.0843 2.5 11.7322
      vertex 33.5296 2.5 11.5155
      vertex 32.6099 2.5 11.5155
    endloop
  endfacet
  facet normal 2.07942e-06 1 -1.86696e-07
    outer loop
      vertex 32.0222 2.5 10.7601
      vertex 31.6542 2.5 10.493
      vertex 32.1873 2.5 11.3226
    endloop
  endfacet
  facet normal 1.94391e-06 1 0
    outer loop
      vertex 31.6542 2.5 10.493
      vertex 32.0222 2.5 10.7601
      vertex 31.6542 2.5 10.1228
    endloop
  endfacet
  facet normal 3.30837e-06 1 0
    outer loop
      vertex 31.6542 2.5 9.87722
      vertex 31.7263 2.5 9.7524
      vertex 31.6542 2.5 9.50697
    endloop
  endfacet
  facet normal 0.644293 0.642993 -0.414061
    outer loop
      vertex 32.1873 2.5 11.3226
      vertex 30.3949 4 10.8628
      vertex 30.5282 4 11.0702
    endloop
  endfacet
  facet normal 0.644294 0.642993 -0.41406
    outer loop
      vertex 30.3949 4 10.8628
      vertex 32.1873 2.5 11.3226
      vertex 31.6542 2.5 10.493
    endloop
  endfacet
  facet normal 0.318155 0.64299 0.696665
    outer loop
      vertex 33.0843 2.5 8.26781
      vertex 32.4583 2.575 8.48446
      vertex 32.6099 2.5 8.48446
    endloop
  endfacet
  facet normal 0.318151 0.642998 0.696659
    outer loop
      vertex 32.4583 2.575 8.48446
      vertex 32.1873 2.5 8.67744
      vertex 32.4041 2.5 8.57846
    endloop
  endfacet
  facet normal 0.318155 0.642993 0.696662
    outer loop
      vertex 31.5521 4 7.58311
      vertex 32.4583 2.575 8.48446
      vertex 33.0843 2.5 8.26781
    endloop
  endfacet
  facet normal 0.318154 0.642993 0.696662
    outer loop
      vertex 31.5521 4 7.58311
      vertex 32.1873 2.5 8.67744
      vertex 32.4583 2.575 8.48446
    endloop
  endfacet
  facet normal 0.318154 0.642993 0.696662
    outer loop
      vertex 32.1873 2.5 8.67744
      vertex 31.5521 4 7.58311
      vertex 31.3278 4 7.68552
    endloop
  endfacet
  facet normal 0.765872 0.642993 0
    outer loop
      vertex 30.3949 4 10.8628
      vertex 31.5833 2.58443 10
      vertex 30.3949 4 9.13719
    endloop
  endfacet
  facet normal 0.765872 0.642993 -1.47356e-06
    outer loop
      vertex 31.6542 2.5 10.493
      vertex 31.5833 2.58443 10
      vertex 30.3949 4 10.8628
    endloop
  endfacet
  facet normal 0.765868 0.642998 0
    outer loop
      vertex 31.5833 2.58443 10
      vertex 31.6542 2.5 10.493
      vertex 31.6542 2.5 10.1228
    endloop
  endfacet
  facet normal 0.765868 0.642998 -0
    outer loop
      vertex 31.6542 2.5 9.50697
      vertex 31.5833 2.58443 10
      vertex 31.6542 2.5 9.87722
    endloop
  endfacet
  facet normal 0.765872 0.642993 1.47356e-06
    outer loop
      vertex 31.5833 2.58443 10
      vertex 31.6542 2.5 9.50697
      vertex 30.3949 4 9.13719
    endloop
  endfacet
  facet normal 0 1 0
    outer loop
      vertex 32.2411 2.5 11.1393
      vertex 32.1873 2.5 11.0461
      vertex 32.1873 2.5 11.3226
    endloop
  endfacet
  facet normal 0 1 0
    outer loop
      vertex 33.0207 2.5 8.48446
      vertex 33.0843 2.5 8.26781
      vertex 32.6099 2.5 8.48446
    endloop
  endfacet
  facet normal 0 1 0
    outer loop
      vertex 32.4041 2.5 8.57846
      vertex 32.1873 2.5 8.67744
      vertex 32.1873 2.5 8.95385
    endloop
  endfacet
  facet normal 1.44358e-06 1 0
    outer loop
      vertex 32.1873 2.5 11.3226
      vertex 32.1873 2.5 11.0461
      vertex 32.0222 2.5 10.7601
    endloop
  endfacet
  facet normal 7.72539e-07 1 7.44589e-07
    outer loop
      vertex 32.1873 2.5 8.95385
      vertex 31.6542 2.5 9.50697
      vertex 31.7263 2.5 9.7524
    endloop
  endfacet
  facet normal 0 1 0
    outer loop
      vertex 31.6542 2.5 9.50697
      vertex 32.1873 2.5 8.95385
      vertex 32.1873 2.5 8.67744
    endloop
  endfacet
  facet normal -0.501542 0.642993 -0.578805
    outer loop
      vertex 34.8055 2.5 10.9461
      vertex 35.7234 4 11.8171
      vertex 35.9097 4 11.6557
    endloop
  endfacet
  facet normal -0.501543 0.642996 -0.578801
    outer loop
      vertex 35.7234 4 11.8171
      vertex 34.2083 2.54677 11.5155
      vertex 34.0603 2.5 11.5919
    endloop
  endfacet
  facet normal -0.501535 0.64299 -0.578815
    outer loop
      vertex 35.7234 4 11.8171
      vertex 34.2684 2.5 11.4116
      vertex 34.2083 2.54677 11.5155
    endloop
  endfacet
  facet normal -0.50154 0.642993 -0.578806
    outer loop
      vertex 35.7234 4 11.8171
      vertex 34.8055 2.5 10.9461
      vertex 34.2684 2.5 11.4116
    endloop
  endfacet
  facet normal -0.501544 0.642995 -0.578801
    outer loop
      vertex 34.0603 2.5 11.5919
      vertex 34.2083 2.54677 11.5155
      vertex 34.1484 2.5 11.5155
    endloop
  endfacet
  facet normal -1.78591e-06 1 -5.24389e-07
    outer loop
      vertex 34.8055 2.5 10.9461
      vertex 35.0833 2.5 10
      vertex 34.2684 2.5 11.4116
    endloop
  endfacet
  facet normal 0 1 0
    outer loop
      vertex 34.1484 2.5 11.5155
      vertex 34.1094 2.5 11.5155
      vertex 34.0603 2.5 11.5919
    endloop
  endfacet
  facet normal -0.108995 0.642993 -0.758077
    outer loop
      vertex 34.0603 2.5 11.5919
      vertex 34.3615 4 12.8208
      vertex 34.6055 4 12.7857
    endloop
  endfacet
  facet normal -0.108995 0.642993 -0.758077
    outer loop
      vertex 34.3615 4 12.8208
      vertex 34.0603 2.5 11.5919
      vertex 33.0843 2.5 11.7322
    endloop
  endfacet
  facet normal -0.108995 0.642993 -0.758077
    outer loop
      vertex 34.3615 4 12.8208
      vertex 33.0843 2.5 11.7322
      vertex 32.8975 4 13.0313
    endloop
  endfacet
  facet normal -0.108996 0.642993 0.758076
    outer loop
      vertex 34.3615 4 7.17917
      vertex 34.0603 2.5 8.40814
      vertex 34.6055 4 7.21425
    endloop
  endfacet
  facet normal -0.108995 0.642993 0.758077
    outer loop
      vertex 34.0603 2.5 8.40814
      vertex 34.3615 4 7.17917
      vertex 33.0843 2.5 8.26781
    endloop
  endfacet
  facet normal -0.50154 0.642993 0.578807
    outer loop
      vertex 34.7918 4 7.37569
      vertex 34.2684 2.5 8.58842
      vertex 34.8055 2.5 9.05388
    endloop
  endfacet
  facet normal -0.501544 0.642995 0.578801
    outer loop
      vertex 34.2083 2.54677 8.48446
      vertex 34.0603 2.5 8.40814
      vertex 34.1484 2.5 8.48446
    endloop
  endfacet
  facet normal -0.501528 0.642995 0.578815
    outer loop
      vertex 34.2684 2.5 8.58842
      vertex 34.7918 4 7.37569
      vertex 34.2083 2.54677 8.48446
    endloop
  endfacet
  facet normal -0.501544 0.642993 0.578804
    outer loop
      vertex 34.7918 4 7.37569
      vertex 34.0603 2.5 8.40814
      vertex 34.2083 2.54677 8.48446
    endloop
  endfacet
  facet normal -0.501537 0.642993 0.57881
    outer loop
      vertex 34.0603 2.5 8.40814
      vertex 34.7918 4 7.37569
      vertex 34.6055 4 7.21425
    endloop
  endfacet
  facet normal -0.734849 0.642993 0.215772
    outer loop
      vertex 18.4167 2.5 10
      vertex 19.6597 4 9.76347
      vertex 18.1389 2.5 9.05388
    endloop
  endfacet
  facet normal -0.734849 0.642993 0.215773
    outer loop
      vertex 19.6597 4 9.76347
      vertex 18.4167 2.5 10
      vertex 19.7292 4 10
    endloop
  endfacet
  facet normal 0.644294 0.642993 -0.414061
    outer loop
      vertex 14.6612 4 12.3145
      vertex 15.5207 2.5 11.3226
      vertex 14.5311 4 12.1122
    endloop
  endfacet
  facet normal 0.644293 0.642993 -0.414062
    outer loop
      vertex 15.5207 2.5 11.3226
      vertex 13.9549 4 11.2155
      vertex 14.3747 4 11.8687
    endloop
  endfacet
  facet normal 0.644293 0.642993 -0.414061
    outer loop
      vertex 15.5207 2.5 11.3226
      vertex 14.3747 4 11.8687
      vertex 14.5311 4 12.1122
    endloop
  endfacet
  facet normal 0.644293 0.642993 -0.414061
    outer loop
      vertex 13.9549 4 11.2155
      vertex 15.5207 2.5 11.3226
      vertex 13.8615 4 11.0702
    endloop
  endfacet
  facet normal 0 1 0
    outer loop
      vertex 18.4167 2.5 10
      vertex 18.1389 2.5 9.05388
      vertex 18.0484 2.5 9.36208
    endloop
  endfacet
  facet normal 0 1 0
    outer loop
      vertex 17.4427 2.5 11.5155
      vertex 17.416 2.5 11.5155
      vertex 17.3936 2.5 11.5919
    endloop
  endfacet
  facet normal 0.644293 0.642993 0.414061
    outer loop
      vertex 15.5207 2.5 8.67744
      vertex 13.7282 4 9.13719
      vertex 14.9876 2.5 9.50697
    endloop
  endfacet
  facet normal 0.644293 0.642992 0.414063
    outer loop
      vertex 13.7282 4 9.13719
      vertex 15.5207 2.5 8.67744
      vertex 13.8615 4 8.92981
    endloop
  endfacet
  facet normal -0.108995 0.642993 0.758077
    outer loop
      vertex 17.6949 4 7.17917
      vertex 17.3936 2.5 8.40814
      vertex 17.9389 4 7.21425
    endloop
  endfacet
  facet normal -0.108995 0.642993 0.758077
    outer loop
      vertex 17.3936 2.5 8.40814
      vertex 17.6949 4 7.17917
      vertex 16.4176 2.5 8.26781
    endloop
  endfacet
  facet normal -0.734849 0.642994 0.21577
    outer loop
      vertex 19.6111 4 9.59775
      vertex 18.1389 2.5 9.05388
      vertex 19.6597 4 9.76347
    endloop
  endfacet
  facet normal -0.734849 0.642993 0.21577
    outer loop
      vertex 18.1389 2.5 9.05388
      vertex 19.6111 4 9.59775
      vertex 19.243 4 8.34429
    endloop
  endfacet
  facet normal -0.501541 0.642994 -0.578806
    outer loop
      vertex 17.3936 2.5 11.5919
      vertex 18.8425 4 12.0027
      vertex 19.0567 4 11.8171
    endloop
  endfacet
  facet normal -0.50154 0.642993 -0.578807
    outer loop
      vertex 18.8425 4 12.0027
      vertex 17.3936 2.5 11.5919
      vertex 17.9389 4 12.7857
    endloop
  endfacet
  facet normal 0.644293 0.642993 -0.414061
    outer loop
      vertex 15.5207 2.5 11.3226
      vertex 13.7282 4 10.8628
      vertex 13.8615 4 11.0702
    endloop
  endfacet
  facet normal 0.644293 0.642993 -0.414061
    outer loop
      vertex 13.7282 4 10.8628
      vertex 15.5207 2.5 11.3226
      vertex 14.9876 2.5 10.493
    endloop
  endfacet
  facet normal 0 1 0
    outer loop
      vertex 15.5745 2.5 11.1393
      vertex 15.5207 2.5 11.0461
      vertex 15.5207 2.5 11.3226
    endloop
  endfacet
  facet normal 0 1 0
    outer loop
      vertex 15.7374 2.5 8.57846
      vertex 15.5207 2.5 8.67744
      vertex 15.5207 2.5 8.95385
    endloop
  endfacet
  facet normal 0 1 0
    outer loop
      vertex 16.354 2.5 8.48446
      vertex 16.4176 2.5 8.26781
      vertex 15.9432 2.5 8.48446
    endloop
  endfacet
  facet normal 0 1 0
    outer loop
      vertex 15.6947 2.5 11.3476
      vertex 15.5745 2.5 11.1393
      vertex 15.5207 2.5 11.3226
    endloop
  endfacet
  facet normal 0 1 0
    outer loop
      vertex 17.3936 2.5 11.5919
      vertex 17.3712 2.5 11.5155
      vertex 16.8629 2.5 11.5155
    endloop
  endfacet
  facet normal 0 1 0
    outer loop
      vertex 16.4812 2.5 8.48446
      vertex 16.4176 2.5 8.26781
      vertex 16.354 2.5 8.48446
    endloop
  endfacet
  facet normal -0.501539 0.642993 0.578808
    outer loop
      vertex 18.3394 4 7.56128
      vertex 18.1389 2.5 9.05388
      vertex 19.243 4 8.34429
    endloop
  endfacet
  facet normal -0.501539 0.642993 0.578808
    outer loop
      vertex 18.1389 2.5 9.05388
      vertex 18.3394 4 7.56128
      vertex 18.1252 4 7.37569
    endloop
  endfacet
  facet normal 0.318155 0.642994 -0.696661
    outer loop
      vertex 15.7917 2.57499 11.5155
      vertex 16.4176 2.5 11.7322
      vertex 15.9432 2.5 11.5155
    endloop
  endfacet
  facet normal 0.318154 0.642994 -0.696661
    outer loop
      vertex 15.5207 2.5 11.3226
      vertex 15.7917 2.57499 11.5155
      vertex 15.7374 2.5 11.4215
    endloop
  endfacet
  facet normal 0.318155 0.642993 -0.696662
    outer loop
      vertex 15.7917 2.57499 11.5155
      vertex 14.8854 4 12.4169
      vertex 16.4176 2.5 11.7322
    endloop
  endfacet
  facet normal 0.318155 0.642993 -0.696662
    outer loop
      vertex 15.5207 2.5 11.3226
      vertex 14.8854 4 12.4169
      vertex 15.7917 2.57499 11.5155
    endloop
  endfacet
  facet normal 0.318154 0.642993 -0.696662
    outer loop
      vertex 14.8854 4 12.4169
      vertex 15.5207 2.5 11.3226
      vertex 14.6612 4 12.3145
    endloop
  endfacet
  facet normal -0.734849 0.642993 -0.215772
    outer loop
      vertex 18.4167 2.5 10
      vertex 19.6111 4 10.4023
      vertex 19.7292 4 10
    endloop
  endfacet
  facet normal -0.734849 0.642993 -0.215771
    outer loop
      vertex 19.6111 4 10.4023
      vertex 18.1389 2.5 10.9461
      vertex 19.3923 4 11.1472
    endloop
  endfacet
  facet normal -0.734849 0.642993 -0.215772
    outer loop
      vertex 19.6111 4 10.4023
      vertex 18.4167 2.5 10
      vertex 18.1389 2.5 10.9461
    endloop
  endfacet
  facet normal -0.734849 0.642993 -0.21577
    outer loop
      vertex 19.3923 4 11.1472
      vertex 18.1389 2.5 10.9461
      vertex 19.3108 4 11.425
    endloop
  endfacet
  facet normal -0.734848 0.642993 -0.215774
    outer loop
      vertex 19.3108 4 11.425
      vertex 18.1389 2.5 10.9461
      vertex 19.243 4 11.6557
    endloop
  endfacet
  facet normal 0 1 0
    outer loop
      vertex 15.7374 2.5 11.4215
      vertex 15.6947 2.5 11.3476
      vertex 15.5207 2.5 11.3226
    endloop
  endfacet
  facet normal 0 1 -0
    outer loop
      vertex 16.8629 2.5 11.5155
      vertex 16.4176 2.5 11.7322
      vertex 17.3936 2.5 11.5919
    endloop
  endfacet
  facet normal 0 1 0
    outer loop
      vertex 16.4176 2.5 11.7322
      vertex 16.8629 2.5 11.5155
      vertex 15.9432 2.5 11.5155
    endloop
  endfacet
  facet normal 0.318155 0.642993 0.696662
    outer loop
      vertex 16.0121 4 7.06857
      vertex 16.4176 2.5 8.26781
      vertex 16.2308 4 6.96867
    endloop
  endfacet
  facet normal 0.318155 0.642993 0.696662
    outer loop
      vertex 16.4176 2.5 8.26781
      vertex 16.0121 4 7.06857
      vertex 14.8854 4 7.58311
    endloop
  endfacet
  facet normal -0.108995 0.642993 -0.758077
    outer loop
      vertex 17.3936 2.5 11.5919
      vertex 17.6949 4 12.8208
      vertex 17.9389 4 12.7857
    endloop
  endfacet
  facet normal -0.108995 0.642993 -0.758077
    outer loop
      vertex 17.6949 4 12.8208
      vertex 17.3936 2.5 11.5919
      vertex 16.4176 2.5 11.7322
    endloop
  endfacet
  facet normal -0.108995 0.642993 0.758077
    outer loop
      vertex 16.4689 4 7.0029
      vertex 16.4176 2.5 8.26781
      vertex 17.6949 4 7.17917
    endloop
  endfacet
  facet normal -0.108995 0.642993 0.758077
    outer loop
      vertex 16.4176 2.5 8.26781
      vertex 16.4689 4 7.0029
      vertex 16.2308 4 6.96867
    endloop
  endfacet
  facet normal -0.50154 0.642993 0.578807
    outer loop
      vertex 18.1252 4 7.37569
      vertex 17.6017 2.5 8.58842
      vertex 18.1389 2.5 9.05388
    endloop
  endfacet
  facet normal -0.50154 0.642991 0.57881
    outer loop
      vertex 17.5417 2.54677 8.48446
      vertex 17.3936 2.5 8.40814
      vertex 17.4817 2.5 8.48446
    endloop
  endfacet
  facet normal -0.501536 0.642993 0.57881
    outer loop
      vertex 17.6017 2.5 8.58842
      vertex 18.1252 4 7.37569
      vertex 17.5417 2.54677 8.48446
    endloop
  endfacet
  facet normal -0.50154 0.642993 0.578808
    outer loop
      vertex 18.1252 4 7.37569
      vertex 17.3936 2.5 8.40814
      vertex 17.5417 2.54677 8.48446
    endloop
  endfacet
  facet normal -0.50154 0.642993 0.578807
    outer loop
      vertex 17.3936 2.5 8.40814
      vertex 18.1252 4 7.37569
      vertex 17.9389 4 7.21425
    endloop
  endfacet
  facet normal 1.44358e-06 1 0
    outer loop
      vertex 15.5207 2.5 11.3226
      vertex 15.5207 2.5 11.0461
      vertex 15.3555 2.5 10.7601
    endloop
  endfacet
  facet normal 7.72537e-07 1 7.4459e-07
    outer loop
      vertex 15.5207 2.5 8.95385
      vertex 14.9876 2.5 9.50697
      vertex 15.0596 2.5 9.7524
    endloop
  endfacet
  facet normal 0 1 0
    outer loop
      vertex 14.9876 2.5 9.50697
      vertex 15.5207 2.5 8.95385
      vertex 15.5207 2.5 8.67744
    endloop
  endfacet
  facet normal 0.765872 0.642993 0
    outer loop
      vertex 14.9876 2.5 10.493
      vertex 13.7282 4 10.4436
      vertex 13.7282 4 10.8628
    endloop
  endfacet
  facet normal 0.765872 0.642993 -1.0331e-07
    outer loop
      vertex 13.7282 4 10.4436
      vertex 14.9876 2.5 10.493
      vertex 14.9167 2.58443 10
    endloop
  endfacet
  facet normal 0.765872 0.642993 0
    outer loop
      vertex 14.9167 2.58443 10
      vertex 14.9876 2.5 10.493
      vertex 14.9876 2.5 10.1228
    endloop
  endfacet
  facet normal 0.765872 0.642993 -4.4175e-07
    outer loop
      vertex 14.9167 2.58443 10
      vertex 13.7282 4 9.13719
      vertex 13.7282 4 10.4436
    endloop
  endfacet
  facet normal 0.765872 0.642993 -0
    outer loop
      vertex 14.9876 2.5 9.50697
      vertex 14.9167 2.58443 10
      vertex 14.9876 2.5 9.87722
    endloop
  endfacet
  facet normal 0.765872 0.642993 3.53472e-08
    outer loop
      vertex 14.9167 2.58443 10
      vertex 14.9876 2.5 9.50697
      vertex 13.7282 4 9.13719
    endloop
  endfacet
  facet normal -0.501539 0.642993 -0.578808
    outer loop
      vertex 18.1389 2.5 10.9461
      vertex 19.0567 4 11.8171
      vertex 19.243 4 11.6557
    endloop
  endfacet
  facet normal -0.50154 0.642993 -0.578808
    outer loop
      vertex 19.0567 4 11.8171
      vertex 17.5417 2.54677 11.5155
      vertex 17.3936 2.5 11.5919
    endloop
  endfacet
  facet normal -0.501539 0.642992 -0.578809
    outer loop
      vertex 19.0567 4 11.8171
      vertex 17.6017 2.5 11.4116
      vertex 17.5417 2.54677 11.5155
    endloop
  endfacet
  facet normal -0.501541 0.642993 -0.578807
    outer loop
      vertex 19.0567 4 11.8171
      vertex 18.1389 2.5 10.9461
      vertex 17.6017 2.5 11.4116
    endloop
  endfacet
  facet normal -0.50154 0.642991 -0.57881
    outer loop
      vertex 17.3936 2.5 11.5919
      vertex 17.5417 2.54677 11.5155
      vertex 17.4817 2.5 11.5155
    endloop
  endfacet
  facet normal -1.78592e-06 1 -5.24394e-07
    outer loop
      vertex 18.1389 2.5 10.9461
      vertex 18.4167 2.5 10
      vertex 17.6017 2.5 11.4116
    endloop
  endfacet
  facet normal 0 1 0
    outer loop
      vertex 17.4817 2.5 11.5155
      vertex 17.4427 2.5 11.5155
      vertex 17.3936 2.5 11.5919
    endloop
  endfacet
  facet normal -0.108995 0.642993 -0.758077
    outer loop
      vertex 17.6949 4 12.8208
      vertex 16.4176 2.5 11.7322
      vertex 16.2308 4 13.0313
    endloop
  endfacet
  facet normal 0.318155 0.642993 -0.696662
    outer loop
      vertex 16.4176 2.5 11.7322
      vertex 15.1432 4 12.5346
      vertex 16.2308 4 13.0313
    endloop
  endfacet
  facet normal 0.318156 0.642993 -0.696661
    outer loop
      vertex 15.1432 4 12.5346
      vertex 16.4176 2.5 11.7322
      vertex 14.8854 4 12.4169
    endloop
  endfacet
  facet normal 0 1 0
    outer loop
      vertex 18.0484 2.5 9.36208
      vertex 18.1389 2.5 9.05388
      vertex 17.6017 2.5 8.58842
    endloop
  endfacet
  facet normal 0 1 0
    outer loop
      vertex 17.416 2.5 11.5155
      vertex 17.3936 2.5 11.5155
      vertex 17.3936 2.5 11.5919
    endloop
  endfacet
  facet normal 0 1 0
    outer loop
      vertex 17.4817 2.5 8.48446
      vertex 17.3936 2.5 8.40814
      vertex 17.3936 2.5 8.48446
    endloop
  endfacet
  facet normal 0 1 0
    outer loop
      vertex 17.3936 2.5 11.5919
      vertex 17.3936 2.5 11.5155
      vertex 17.3712 2.5 11.5155
    endloop
  endfacet
  facet normal 0 1 -0
    outer loop
      vertex 17.3936 2.5 8.40814
      vertex 16.4812 2.5 8.48446
      vertex 17.3936 2.5 8.48446
    endloop
  endfacet
  facet normal 0 1 0
    outer loop
      vertex 16.4812 2.5 8.48446
      vertex 17.3936 2.5 8.40814
      vertex 16.4176 2.5 8.26781
    endloop
  endfacet
  facet normal 0.644293 0.642993 0.414062
    outer loop
      vertex 13.8615 4 8.92981
      vertex 15.5207 2.5 8.67744
      vertex 14.3747 4 8.13132
    endloop
  endfacet
  facet normal 0.644293 0.642993 0.414062
    outer loop
      vertex 14.6612 4 7.68552
      vertex 14.3747 4 8.13132
      vertex 15.5207 2.5 8.67744
    endloop
  endfacet
  facet normal 0.318155 0.642994 0.696661
    outer loop
      vertex 16.4176 2.5 8.26781
      vertex 15.7917 2.575 8.48446
      vertex 15.9432 2.5 8.48446
    endloop
  endfacet
  facet normal 0.318154 0.642994 0.696661
    outer loop
      vertex 15.7917 2.575 8.48446
      vertex 15.5207 2.5 8.67744
      vertex 15.7374 2.5 8.57846
    endloop
  endfacet
  facet normal 0.318155 0.642993 0.696662
    outer loop
      vertex 14.8854 4 7.58311
      vertex 15.7917 2.575 8.48446
      vertex 16.4176 2.5 8.26781
    endloop
  endfacet
  facet normal 0.318155 0.642993 0.696662
    outer loop
      vertex 14.8854 4 7.58311
      vertex 15.5207 2.5 8.67744
      vertex 15.7917 2.575 8.48446
    endloop
  endfacet
  facet normal 0.318155 0.642993 0.696662
    outer loop
      vertex 15.5207 2.5 8.67744
      vertex 14.8854 4 7.58311
      vertex 14.6612 4 7.68552
    endloop
  endfacet
  facet normal 2.0794e-06 1 -1.86692e-07
    outer loop
      vertex 15.3555 2.5 10.7601
      vertex 14.9876 2.5 10.493
      vertex 15.5207 2.5 11.3226
    endloop
  endfacet
  facet normal 1.9439e-06 1 0
    outer loop
      vertex 14.9876 2.5 10.493
      vertex 15.3555 2.5 10.7601
      vertex 14.9876 2.5 10.1228
    endloop
  endfacet
  facet normal 3.30837e-06 1 0
    outer loop
      vertex 14.9876 2.5 9.87722
      vertex 15.0596 2.5 9.7524
      vertex 14.9876 2.5 9.50697
    endloop
  endfacet
endsolid OpenSCAD_Model
