solid OpenSCAD_Model
  facet normal -0.978147 -0.207913 0
    outer loop
      vertex 12 10 0
      vertex 11.8271 10.8135 5
      vertex 11.8271 10.8135 0
    endloop
  endfacet
  facet normal -0.978147 -0.207913 0
    outer loop
      vertex 11.8271 10.8135 5
      vertex 12 10 0
      vertex 12 10 5
    endloop
  endfacet
  facet normal 1 -0 0
    outer loop
      vertex 8.0437 9.58418 5
      vertex 8.0437 10.4158 0
      vertex 8.0437 10.4158 5
    endloop
  endfacet
  facet normal 1 0 0
    outer loop
      vertex 8.0437 10.4158 0
      vertex 8.0437 9.58418 5
      vertex 8.0437 9.58418 0
    endloop
  endfacet
  facet normal -0.104528 -0.994522 0
    outer loop
      vertex 9.79094 11.989 0
      vertex 10.618 11.9021 5
      vertex 9.79094 11.989 5
    endloop
  endfacet
  facet normal -0.104528 -0.994522 -0
    outer loop
      vertex 10.618 11.9021 5
      vertex 9.79094 11.989 0
      vertex 10.618 11.9021 0
    endloop
  endfacet
  facet normal -0.104528 0.994522 0
    outer loop
      vertex 10.618 8.09789 0
      vertex 9.79094 8.01096 5
      vertex 10.618 8.09789 5
    endloop
  endfacet
  facet normal -0.104528 0.994522 0
    outer loop
      vertex 9.79094 8.01096 5
      vertex 10.618 8.09789 0
      vertex 9.79094 8.01096 0
    endloop
  endfacet
  facet normal -0.5 0.866025 0
    outer loop
      vertex 11.3383 8.51371 0
      vertex 10.618 8.09789 5
      vertex 11.3383 8.51371 5
    endloop
  endfacet
  facet normal -0.5 0.866025 0
    outer loop
      vertex 10.618 8.09789 5
      vertex 11.3383 8.51371 0
      vertex 10.618 8.09789 0
    endloop
  endfacet
  facet normal -0.5 -0.866025 0
    outer loop
      vertex 10.618 11.9021 0
      vertex 11.3383 11.4863 5
      vertex 10.618 11.9021 5
    endloop
  endfacet
  facet normal -0.5 -0.866025 -0
    outer loop
      vertex 11.3383 11.4863 5
      vertex 10.618 11.9021 0
      vertex 11.3383 11.4863 0
    endloop
  endfacet
  facet normal -0.809017 -0.587785 0
    outer loop
      vertex 11.8271 10.8135 0
      vertex 11.3383 11.4863 5
      vertex 11.3383 11.4863 0
    endloop
  endfacet
  facet normal -0.809017 -0.587785 0
    outer loop
      vertex 11.3383 11.4863 5
      vertex 11.8271 10.8135 0
      vertex 11.8271 10.8135 5
    endloop
  endfacet
  facet normal 0.66913 -0.743146 0
    outer loop
      vertex 8.38197 11.1756 0
      vertex 9 11.732 5
      vertex 8.38197 11.1756 5
    endloop
  endfacet
  facet normal 0.66913 -0.743146 0
    outer loop
      vertex 9 11.732 5
      vertex 8.38197 11.1756 0
      vertex 9 11.732 0
    endloop
  endfacet
  facet normal 0.913545 -0.406737 0
    outer loop
      vertex 8.0437 10.4158 5
      vertex 8.38197 11.1756 0
      vertex 8.38197 11.1756 5
    endloop
  endfacet
  facet normal 0.913545 -0.406737 0
    outer loop
      vertex 8.38197 11.1756 0
      vertex 8.0437 10.4158 5
      vertex 8.0437 10.4158 0
    endloop
  endfacet
  facet normal 0.309018 -0.951056 0
    outer loop
      vertex 9 11.732 0
      vertex 9.79094 11.989 5
      vertex 9 11.732 5
    endloop
  endfacet
  facet normal 0.309018 -0.951056 0
    outer loop
      vertex 9.79094 11.989 5
      vertex 9 11.732 0
      vertex 9.79094 11.989 0
    endloop
  endfacet
  facet normal -0.978147 0.207912 0
    outer loop
      vertex 11.8271 9.18653 0
      vertex 12 10 5
      vertex 12 10 0
    endloop
  endfacet
  facet normal -0.978147 0.207912 0
    outer loop
      vertex 12 10 5
      vertex 11.8271 9.18653 0
      vertex 11.8271 9.18653 5
    endloop
  endfacet
  facet normal 0.309018 0.951056 -0
    outer loop
      vertex 9.79094 8.01096 0
      vertex 9 8.26795 5
      vertex 9.79094 8.01096 5
    endloop
  endfacet
  facet normal 0.309018 0.951056 0
    outer loop
      vertex 9 8.26795 5
      vertex 9.79094 8.01096 0
      vertex 9 8.26795 0
    endloop
  endfacet
  facet normal 0.913545 0.406737 0
    outer loop
      vertex 8.38197 8.82443 5
      vertex 8.0437 9.58418 0
      vertex 8.0437 9.58418 5
    endloop
  endfacet
  facet normal 0.913545 0.406737 0
    outer loop
      vertex 8.0437 9.58418 0
      vertex 8.38197 8.82443 5
      vertex 8.38197 8.82443 0
    endloop
  endfacet
  facet normal -0.809017 0.587785 0
    outer loop
      vertex 11.3383 8.51371 0
      vertex 11.8271 9.18653 5
      vertex 11.8271 9.18653 0
    endloop
  endfacet
  facet normal -0.809017 0.587785 0
    outer loop
      vertex 11.8271 9.18653 5
      vertex 11.3383 8.51371 0
      vertex 11.3383 8.51371 5
    endloop
  endfacet
  facet normal 0.66913 0.743146 -0
    outer loop
      vertex 9 8.26795 0
      vertex 8.38197 8.82443 5
      vertex 9 8.26795 5
    endloop
  endfacet
  facet normal 0.66913 0.743146 0
    outer loop
      vertex 8.38197 8.82443 5
      vertex 9 8.26795 0
      vertex 8.38197 8.82443 0
    endloop
  endfacet
  facet normal -0.978147 -0.207916 0
    outer loop
      vertex 197 10 0
      vertex 196.827 10.8135 5
      vertex 196.827 10.8135 0
    endloop
  endfacet
  facet normal -0.978147 -0.207916 0
    outer loop
      vertex 196.827 10.8135 5
      vertex 197 10 0
      vertex 197 10 5
    endloop
  endfacet
  facet normal 1 -0 0
    outer loop
      vertex 193.044 9.58418 5
      vertex 193.044 10.4158 0
      vertex 193.044 10.4158 5
    endloop
  endfacet
  facet normal 1 0 0
    outer loop
      vertex 193.044 10.4158 0
      vertex 193.044 9.58418 5
      vertex 193.044 9.58418 0
    endloop
  endfacet
  facet normal -0.104528 -0.994522 0
    outer loop
      vertex 194.791 11.989 0
      vertex 195.618 11.9021 5
      vertex 194.791 11.989 5
    endloop
  endfacet
  facet normal -0.104528 -0.994522 -0
    outer loop
      vertex 195.618 11.9021 5
      vertex 194.791 11.989 0
      vertex 195.618 11.9021 0
    endloop
  endfacet
  facet normal -0.499999 -0.866026 0
    outer loop
      vertex 195.618 11.9021 0
      vertex 196.338 11.4863 5
      vertex 195.618 11.9021 5
    endloop
  endfacet
  facet normal -0.499999 -0.866026 -0
    outer loop
      vertex 196.338 11.4863 5
      vertex 195.618 11.9021 0
      vertex 196.338 11.4863 0
    endloop
  endfacet
  facet normal -0.809016 -0.587786 0
    outer loop
      vertex 196.827 10.8135 0
      vertex 196.338 11.4863 5
      vertex 196.338 11.4863 0
    endloop
  endfacet
  facet normal -0.809016 -0.587786 0
    outer loop
      vertex 196.338 11.4863 5
      vertex 196.827 10.8135 0
      vertex 196.827 10.8135 5
    endloop
  endfacet
  facet normal 0.669125 -0.74315 0
    outer loop
      vertex 193.382 11.1756 0
      vertex 194 11.732 5
      vertex 193.382 11.1756 5
    endloop
  endfacet
  facet normal 0.669125 -0.74315 0
    outer loop
      vertex 194 11.732 5
      vertex 193.382 11.1756 0
      vertex 194 11.732 0
    endloop
  endfacet
  facet normal 0.913547 -0.406732 0
    outer loop
      vertex 193.044 10.4158 5
      vertex 193.382 11.1756 0
      vertex 193.382 11.1756 5
    endloop
  endfacet
  facet normal 0.913547 -0.406732 0
    outer loop
      vertex 193.382 11.1756 0
      vertex 193.044 10.4158 5
      vertex 193.044 10.4158 0
    endloop
  endfacet
  facet normal 0.309019 -0.951056 0
    outer loop
      vertex 194 11.732 0
      vertex 194.791 11.989 5
      vertex 194 11.732 5
    endloop
  endfacet
  facet normal 0.309019 -0.951056 0
    outer loop
      vertex 194.791 11.989 5
      vertex 194 11.732 0
      vertex 194.791 11.989 0
    endloop
  endfacet
  facet normal 0.309019 0.951056 -0
    outer loop
      vertex 194.791 8.01096 0
      vertex 194 8.26795 5
      vertex 194.791 8.01096 5
    endloop
  endfacet
  facet normal 0.309019 0.951056 0
    outer loop
      vertex 194 8.26795 5
      vertex 194.791 8.01096 0
      vertex 194 8.26795 0
    endloop
  endfacet
  facet normal 0.913547 0.406732 0
    outer loop
      vertex 193.382 8.82443 5
      vertex 193.044 9.58418 0
      vertex 193.044 9.58418 5
    endloop
  endfacet
  facet normal 0.913547 0.406732 0
    outer loop
      vertex 193.044 9.58418 0
      vertex 193.382 8.82443 5
      vertex 193.382 8.82443 0
    endloop
  endfacet
  facet normal -0.809016 0.587786 0
    outer loop
      vertex 196.338 8.51371 0
      vertex 196.827 9.18653 5
      vertex 196.827 9.18653 0
    endloop
  endfacet
  facet normal -0.809016 0.587786 0
    outer loop
      vertex 196.827 9.18653 5
      vertex 196.338 8.51371 0
      vertex 196.338 8.51371 5
    endloop
  endfacet
  facet normal -0.499999 0.866026 0
    outer loop
      vertex 196.338 8.51371 0
      vertex 195.618 8.09789 5
      vertex 196.338 8.51371 5
    endloop
  endfacet
  facet normal -0.499999 0.866026 0
    outer loop
      vertex 195.618 8.09789 5
      vertex 196.338 8.51371 0
      vertex 195.618 8.09789 0
    endloop
  endfacet
  facet normal -0.978147 0.207916 0
    outer loop
      vertex 196.827 9.18653 0
      vertex 197 10 5
      vertex 197 10 0
    endloop
  endfacet
  facet normal -0.978147 0.207916 0
    outer loop
      vertex 197 10 5
      vertex 196.827 9.18653 0
      vertex 196.827 9.18653 5
    endloop
  endfacet
  facet normal -0.104528 0.994522 0
    outer loop
      vertex 195.618 8.09789 0
      vertex 194.791 8.01096 5
      vertex 195.618 8.09789 5
    endloop
  endfacet
  facet normal -0.104528 0.994522 0
    outer loop
      vertex 194.791 8.01096 5
      vertex 195.618 8.09789 0
      vertex 194.791 8.01096 0
    endloop
  endfacet
  facet normal 0.669125 0.74315 -0
    outer loop
      vertex 194 8.26795 0
      vertex 193.382 8.82443 5
      vertex 194 8.26795 5
    endloop
  endfacet
  facet normal 0.669125 0.74315 0
    outer loop
      vertex 193.382 8.82443 5
      vertex 194 8.26795 0
      vertex 193.382 8.82443 0
    endloop
  endfacet
  facet normal -0.978147 -0.207913 0
    outer loop
      vertex 12 30 0
      vertex 11.8271 30.8135 5
      vertex 11.8271 30.8135 0
    endloop
  endfacet
  facet normal -0.978147 -0.207913 0
    outer loop
      vertex 11.8271 30.8135 5
      vertex 12 30 0
      vertex 12 30 5
    endloop
  endfacet
  facet normal 1 -0 0
    outer loop
      vertex 8.0437 29.5842 5
      vertex 8.0437 30.4158 0
      vertex 8.0437 30.4158 5
    endloop
  endfacet
  facet normal 1 0 0
    outer loop
      vertex 8.0437 30.4158 0
      vertex 8.0437 29.5842 5
      vertex 8.0437 29.5842 0
    endloop
  endfacet
  facet normal -0.104529 -0.994522 0
    outer loop
      vertex 9.79094 31.989 0
      vertex 10.618 31.9021 5
      vertex 9.79094 31.989 5
    endloop
  endfacet
  facet normal -0.104529 -0.994522 -0
    outer loop
      vertex 10.618 31.9021 5
      vertex 9.79094 31.989 0
      vertex 10.618 31.9021 0
    endloop
  endfacet
  facet normal -0.500001 0.866025 0
    outer loop
      vertex 11.3383 28.5137 0
      vertex 10.618 28.0979 5
      vertex 11.3383 28.5137 5
    endloop
  endfacet
  facet normal -0.500001 0.866025 0
    outer loop
      vertex 10.618 28.0979 5
      vertex 11.3383 28.5137 0
      vertex 10.618 28.0979 0
    endloop
  endfacet
  facet normal -0.104527 0.994522 0
    outer loop
      vertex 10.618 28.0979 0
      vertex 9.79094 28.011 5
      vertex 10.618 28.0979 5
    endloop
  endfacet
  facet normal -0.104527 0.994522 0
    outer loop
      vertex 9.79094 28.011 5
      vertex 10.618 28.0979 0
      vertex 9.79094 28.011 0
    endloop
  endfacet
  facet normal -0.5 -0.866026 0
    outer loop
      vertex 10.618 31.9021 0
      vertex 11.3383 31.4863 5
      vertex 10.618 31.9021 5
    endloop
  endfacet
  facet normal -0.5 -0.866026 -0
    outer loop
      vertex 11.3383 31.4863 5
      vertex 10.618 31.9021 0
      vertex 11.3383 31.4863 0
    endloop
  endfacet
  facet normal -0.809017 -0.587785 0
    outer loop
      vertex 11.8271 30.8135 0
      vertex 11.3383 31.4863 5
      vertex 11.3383 31.4863 0
    endloop
  endfacet
  facet normal -0.809017 -0.587785 0
    outer loop
      vertex 11.3383 31.4863 5
      vertex 11.8271 30.8135 0
      vertex 11.8271 30.8135 5
    endloop
  endfacet
  facet normal 0.309019 -0.951056 0
    outer loop
      vertex 9 31.732 0
      vertex 9.79094 31.989 5
      vertex 9 31.732 5
    endloop
  endfacet
  facet normal 0.309019 -0.951056 0
    outer loop
      vertex 9.79094 31.989 5
      vertex 9 31.732 0
      vertex 9.79094 31.989 0
    endloop
  endfacet
  facet normal 0.669129 -0.743146 0
    outer loop
      vertex 8.38197 31.1756 0
      vertex 9 31.732 5
      vertex 8.38197 31.1756 5
    endloop
  endfacet
  facet normal 0.669129 -0.743146 0
    outer loop
      vertex 9 31.732 5
      vertex 8.38197 31.1756 0
      vertex 9 31.732 0
    endloop
  endfacet
  facet normal 0.913545 0.406737 0
    outer loop
      vertex 8.38197 28.8244 5
      vertex 8.0437 29.5842 0
      vertex 8.0437 29.5842 5
    endloop
  endfacet
  facet normal 0.913545 0.406737 0
    outer loop
      vertex 8.0437 29.5842 0
      vertex 8.38197 28.8244 5
      vertex 8.38197 28.8244 0
    endloop
  endfacet
  facet normal 0.309017 0.951057 -0
    outer loop
      vertex 9.79094 28.011 0
      vertex 9 28.2679 5
      vertex 9.79094 28.011 5
    endloop
  endfacet
  facet normal 0.309017 0.951057 0
    outer loop
      vertex 9 28.2679 5
      vertex 9.79094 28.011 0
      vertex 9 28.2679 0
    endloop
  endfacet
  facet normal 0.913546 -0.406736 0
    outer loop
      vertex 8.0437 30.4158 5
      vertex 8.38197 31.1756 0
      vertex 8.38197 31.1756 5
    endloop
  endfacet
  facet normal 0.913546 -0.406736 0
    outer loop
      vertex 8.38197 31.1756 0
      vertex 8.0437 30.4158 5
      vertex 8.0437 30.4158 0
    endloop
  endfacet
  facet normal -0.809017 0.587785 0
    outer loop
      vertex 11.3383 28.5137 0
      vertex 11.8271 29.1865 5
      vertex 11.8271 29.1865 0
    endloop
  endfacet
  facet normal -0.809017 0.587785 0
    outer loop
      vertex 11.8271 29.1865 5
      vertex 11.3383 28.5137 0
      vertex 11.3383 28.5137 5
    endloop
  endfacet
  facet normal -0.978147 0.207913 0
    outer loop
      vertex 11.8271 29.1865 0
      vertex 12 30 5
      vertex 12 30 0
    endloop
  endfacet
  facet normal -0.978147 0.207913 0
    outer loop
      vertex 12 30 5
      vertex 11.8271 29.1865 0
      vertex 11.8271 29.1865 5
    endloop
  endfacet
  facet normal 0.66913 0.743145 -0
    outer loop
      vertex 9 28.2679 0
      vertex 8.38197 28.8244 5
      vertex 9 28.2679 5
    endloop
  endfacet
  facet normal 0.66913 0.743145 0
    outer loop
      vertex 8.38197 28.8244 5
      vertex 9 28.2679 0
      vertex 8.38197 28.8244 0
    endloop
  endfacet
  facet normal -0.978147 -0.207916 0
    outer loop
      vertex 197 30 0
      vertex 196.827 30.8135 5
      vertex 196.827 30.8135 0
    endloop
  endfacet
  facet normal -0.978147 -0.207916 0
    outer loop
      vertex 196.827 30.8135 5
      vertex 197 30 0
      vertex 197 30 5
    endloop
  endfacet
  facet normal 1 -0 0
    outer loop
      vertex 193.044 29.5842 5
      vertex 193.044 30.4158 0
      vertex 193.044 30.4158 5
    endloop
  endfacet
  facet normal 1 0 0
    outer loop
      vertex 193.044 30.4158 0
      vertex 193.044 29.5842 5
      vertex 193.044 29.5842 0
    endloop
  endfacet
  facet normal -0.104529 -0.994522 0
    outer loop
      vertex 194.791 31.989 0
      vertex 195.618 31.9021 5
      vertex 194.791 31.989 5
    endloop
  endfacet
  facet normal -0.104529 -0.994522 -0
    outer loop
      vertex 195.618 31.9021 5
      vertex 194.791 31.989 0
      vertex 195.618 31.9021 0
    endloop
  endfacet
  facet normal -0.5 0.866025 0
    outer loop
      vertex 196.338 28.5137 0
      vertex 195.618 28.0979 5
      vertex 196.338 28.5137 5
    endloop
  endfacet
  facet normal -0.5 0.866025 0
    outer loop
      vertex 195.618 28.0979 5
      vertex 196.338 28.5137 0
      vertex 195.618 28.0979 0
    endloop
  endfacet
  facet normal -0.104527 0.994522 0
    outer loop
      vertex 195.618 28.0979 0
      vertex 194.791 28.011 5
      vertex 195.618 28.0979 5
    endloop
  endfacet
  facet normal -0.104527 0.994522 0
    outer loop
      vertex 194.791 28.011 5
      vertex 195.618 28.0979 0
      vertex 194.791 28.011 0
    endloop
  endfacet
  facet normal -0.499998 -0.866026 0
    outer loop
      vertex 195.618 31.9021 0
      vertex 196.338 31.4863 5
      vertex 195.618 31.9021 5
    endloop
  endfacet
  facet normal -0.499998 -0.866026 -0
    outer loop
      vertex 196.338 31.4863 5
      vertex 195.618 31.9021 0
      vertex 196.338 31.4863 0
    endloop
  endfacet
  facet normal -0.809017 -0.587785 0
    outer loop
      vertex 196.827 30.8135 0
      vertex 196.338 31.4863 5
      vertex 196.338 31.4863 0
    endloop
  endfacet
  facet normal -0.809017 -0.587785 0
    outer loop
      vertex 196.338 31.4863 5
      vertex 196.827 30.8135 0
      vertex 196.827 30.8135 5
    endloop
  endfacet
  facet normal 0.30902 -0.951056 0
    outer loop
      vertex 194 31.732 0
      vertex 194.791 31.989 5
      vertex 194 31.732 5
    endloop
  endfacet
  facet normal 0.30902 -0.951056 0
    outer loop
      vertex 194.791 31.989 5
      vertex 194 31.732 0
      vertex 194.791 31.989 0
    endloop
  endfacet
  facet normal 0.913548 -0.406732 0
    outer loop
      vertex 193.044 30.4158 5
      vertex 193.382 31.1756 0
      vertex 193.382 31.1756 5
    endloop
  endfacet
  facet normal 0.913548 -0.406732 0
    outer loop
      vertex 193.382 31.1756 0
      vertex 193.044 30.4158 5
      vertex 193.044 30.4158 0
    endloop
  endfacet
  facet normal 0.669125 -0.74315 0
    outer loop
      vertex 193.382 31.1756 0
      vertex 194 31.732 5
      vertex 193.382 31.1756 5
    endloop
  endfacet
  facet normal 0.669125 -0.74315 0
    outer loop
      vertex 194 31.732 5
      vertex 193.382 31.1756 0
      vertex 194 31.732 0
    endloop
  endfacet
  facet normal 0.913547 0.406733 0
    outer loop
      vertex 193.382 28.8244 5
      vertex 193.044 29.5842 0
      vertex 193.044 29.5842 5
    endloop
  endfacet
  facet normal 0.913547 0.406733 0
    outer loop
      vertex 193.044 29.5842 0
      vertex 193.382 28.8244 5
      vertex 193.382 28.8244 0
    endloop
  endfacet
  facet normal 0.309018 0.951056 -0
    outer loop
      vertex 194.791 28.011 0
      vertex 194 28.2679 5
      vertex 194.791 28.011 5
    endloop
  endfacet
  facet normal 0.309018 0.951056 0
    outer loop
      vertex 194 28.2679 5
      vertex 194.791 28.011 0
      vertex 194 28.2679 0
    endloop
  endfacet
  facet normal 0.669126 0.743149 -0
    outer loop
      vertex 194 28.2679 0
      vertex 193.382 28.8244 5
      vertex 194 28.2679 5
    endloop
  endfacet
  facet normal 0.669126 0.743149 0
    outer loop
      vertex 193.382 28.8244 5
      vertex 194 28.2679 0
      vertex 193.382 28.8244 0
    endloop
  endfacet
  facet normal -0.809017 0.587785 0
    outer loop
      vertex 196.338 28.5137 0
      vertex 196.827 29.1865 5
      vertex 196.827 29.1865 0
    endloop
  endfacet
  facet normal -0.809017 0.587785 0
    outer loop
      vertex 196.827 29.1865 5
      vertex 196.338 28.5137 0
      vertex 196.338 28.5137 5
    endloop
  endfacet
  facet normal -0.978147 0.207916 0
    outer loop
      vertex 196.827 29.1865 0
      vertex 197 30 5
      vertex 197 30 0
    endloop
  endfacet
  facet normal -0.978147 0.207916 0
    outer loop
      vertex 197 30 5
      vertex 196.827 29.1865 0
      vertex 196.827 29.1865 5
    endloop
  endfacet
  facet normal -1 0 0
    outer loop
      vertex 0 0 0
      vertex 0 40 5
      vertex 0 40 0
    endloop
  endfacet
  facet normal -1 -0 0
    outer loop
      vertex 0 40 5
      vertex 0 0 0
      vertex 0 0 5
    endloop
  endfacet
  facet normal -0 0 1
    outer loop
      vertex 20 40 25
      vertex 185 0 25
      vertex 185 40 25
    endloop
  endfacet
  facet normal 0 0 1
    outer loop
      vertex 185 0 25
      vertex 20 40 25
      vertex 20 0 25
    endloop
  endfacet
  facet normal 1 -0 0
    outer loop
      vertex 205 0 5
      vertex 205 40 0
      vertex 205 40 5
    endloop
  endfacet
  facet normal 1 0 0
    outer loop
      vertex 205 40 0
      vertex 205 0 5
      vertex 205 0 0
    endloop
  endfacet
  facet normal 0 1 -0
    outer loop
      vertex 205 40 0
      vertex 185 40 5
      vertex 205 40 5
    endloop
  endfacet
  facet normal 0 1 0
    outer loop
      vertex 185 40 5
      vertex 205 40 0
      vertex 20 40 5
    endloop
  endfacet
  facet normal 0 1 0
    outer loop
      vertex 0 40 0
      vertex 20 40 5
      vertex 205 40 0
    endloop
  endfacet
  facet normal 0 1 0
    outer loop
      vertex 20 40 5
      vertex 0 40 0
      vertex 0 40 5
    endloop
  endfacet
  facet normal 0 1 -0
    outer loop
      vertex 185 40 5
      vertex 20 40 25
      vertex 185 40 25
    endloop
  endfacet
  facet normal 0 1 0
    outer loop
      vertex 20 40 25
      vertex 185 40 5
      vertex 20 40 5
    endloop
  endfacet
  facet normal 0 0 -1
    outer loop
      vertex 11.8271 10.8135 0
      vertex 12 30 0
      vertex 12 10 0
    endloop
  endfacet
  facet normal 0 0 -1
    outer loop
      vertex 11.8271 10.8135 0
      vertex 11.8271 29.1865 0
      vertex 12 30 0
    endloop
  endfacet
  facet normal 0 0 -1
    outer loop
      vertex 11.3383 11.4863 0
      vertex 11.8271 29.1865 0
      vertex 11.8271 10.8135 0
    endloop
  endfacet
  facet normal 0 0 -1
    outer loop
      vertex 11.3383 11.4863 0
      vertex 11.3383 28.5137 0
      vertex 11.8271 29.1865 0
    endloop
  endfacet
  facet normal 0 0 -1
    outer loop
      vertex 10.618 11.9021 0
      vertex 11.3383 28.5137 0
      vertex 11.3383 11.4863 0
    endloop
  endfacet
  facet normal 0 0 -1
    outer loop
      vertex 10.618 11.9021 0
      vertex 10.618 28.0979 0
      vertex 11.3383 28.5137 0
    endloop
  endfacet
  facet normal 0 0 -1
    outer loop
      vertex 9.79094 11.989 0
      vertex 10.618 28.0979 0
      vertex 10.618 11.9021 0
    endloop
  endfacet
  facet normal 0 0 -1
    outer loop
      vertex 9.79094 11.989 0
      vertex 9.79094 28.011 0
      vertex 10.618 28.0979 0
    endloop
  endfacet
  facet normal 0 0 -1
    outer loop
      vertex 9 11.732 0
      vertex 9.79094 28.011 0
      vertex 9.79094 11.989 0
    endloop
  endfacet
  facet normal 0 0 -1
    outer loop
      vertex 9 11.732 0
      vertex 9 28.2679 0
      vertex 9.79094 28.011 0
    endloop
  endfacet
  facet normal 0 0 -1
    outer loop
      vertex 8.38197 11.1756 0
      vertex 9 28.2679 0
      vertex 9 11.732 0
    endloop
  endfacet
  facet normal 0 0 -1
    outer loop
      vertex 8.38197 11.1756 0
      vertex 8.38197 28.8244 0
      vertex 9 28.2679 0
    endloop
  endfacet
  facet normal 0 0 -1
    outer loop
      vertex 8.0437 10.4158 0
      vertex 8.38197 28.8244 0
      vertex 8.38197 11.1756 0
    endloop
  endfacet
  facet normal -0 0 -1
    outer loop
      vertex 8.38197 28.8244 0
      vertex 8.0437 10.4158 0
      vertex 8.0437 29.5842 0
    endloop
  endfacet
  facet normal 0 0 -1
    outer loop
      vertex 196.827 29.1865 0
      vertex 205 40 0
      vertex 196.827 10.8135 0
    endloop
  endfacet
  facet normal 0 0 -1
    outer loop
      vertex 205 40 0
      vertex 196.827 29.1865 0
      vertex 197 30 0
    endloop
  endfacet
  facet normal 0 0 -1
    outer loop
      vertex 196.338 11.4863 0
      vertex 196.827 29.1865 0
      vertex 196.827 10.8135 0
    endloop
  endfacet
  facet normal 0 0 -1
    outer loop
      vertex 196.338 11.4863 0
      vertex 196.338 28.5137 0
      vertex 196.827 29.1865 0
    endloop
  endfacet
  facet normal 0 0 -1
    outer loop
      vertex 195.618 11.9021 0
      vertex 196.338 28.5137 0
      vertex 196.338 11.4863 0
    endloop
  endfacet
  facet normal 0 0 -1
    outer loop
      vertex 195.618 11.9021 0
      vertex 195.618 28.0979 0
      vertex 196.338 28.5137 0
    endloop
  endfacet
  facet normal 0 0 -1
    outer loop
      vertex 194.791 11.989 0
      vertex 195.618 28.0979 0
      vertex 195.618 11.9021 0
    endloop
  endfacet
  facet normal 0 0 -1
    outer loop
      vertex 194.791 11.989 0
      vertex 194.791 28.011 0
      vertex 195.618 28.0979 0
    endloop
  endfacet
  facet normal 0 0 -1
    outer loop
      vertex 194 11.732 0
      vertex 194.791 28.011 0
      vertex 194.791 11.989 0
    endloop
  endfacet
  facet normal 0 0 -1
    outer loop
      vertex 194 11.732 0
      vertex 194 28.2679 0
      vertex 194.791 28.011 0
    endloop
  endfacet
  facet normal 0 0 -1
    outer loop
      vertex 193.382 11.1756 0
      vertex 194 28.2679 0
      vertex 194 11.732 0
    endloop
  endfacet
  facet normal 0 0 -1
    outer loop
      vertex 193.382 11.1756 0
      vertex 193.382 28.8244 0
      vertex 194 28.2679 0
    endloop
  endfacet
  facet normal 0 0 -1
    outer loop
      vertex 193.044 10.4158 0
      vertex 193.382 28.8244 0
      vertex 193.382 11.1756 0
    endloop
  endfacet
  facet normal -0 0 -1
    outer loop
      vertex 193.382 28.8244 0
      vertex 193.044 10.4158 0
      vertex 193.044 29.5842 0
    endloop
  endfacet
  facet normal 0 0 -1
    outer loop
      vertex 196.827 10.8135 0
      vertex 205 0 0
      vertex 197 10 0
    endloop
  endfacet
  facet normal 0 0 -1
    outer loop
      vertex 205 0 0
      vertex 196.827 9.18653 0
      vertex 197 10 0
    endloop
  endfacet
  facet normal 0 0 -1
    outer loop
      vertex 205 0 0
      vertex 196.338 8.51371 0
      vertex 196.827 9.18653 0
    endloop
  endfacet
  facet normal 0 0 -1
    outer loop
      vertex 205 0 0
      vertex 195.618 8.09789 0
      vertex 196.338 8.51371 0
    endloop
  endfacet
  facet normal 0 0 -1
    outer loop
      vertex 205 0 0
      vertex 194.791 8.01096 0
      vertex 195.618 8.09789 0
    endloop
  endfacet
  facet normal 0 0 -1
    outer loop
      vertex 205 0 0
      vertex 194 8.26795 0
      vertex 194.791 8.01096 0
    endloop
  endfacet
  facet normal 0 0 -1
    outer loop
      vertex 12 10 0
      vertex 193.044 10.4158 0
      vertex 193.044 9.58418 0
    endloop
  endfacet
  facet normal -0 0 -1
    outer loop
      vertex 193.044 10.4158 0
      vertex 12 10 0
      vertex 193.044 29.5842 0
    endloop
  endfacet
  facet normal 0 0 -1
    outer loop
      vertex 12 30 0
      vertex 193.044 29.5842 0
      vertex 12 10 0
    endloop
  endfacet
  facet normal 0 0 -1
    outer loop
      vertex 11.8271 9.18653 0
      vertex 193.044 9.58418 0
      vertex 193.382 8.82443 0
    endloop
  endfacet
  facet normal 0 0 -1
    outer loop
      vertex 11.3383 8.51371 0
      vertex 193.382 8.82443 0
      vertex 194 8.26795 0
    endloop
  endfacet
  facet normal 0 0 -1
    outer loop
      vertex 11.3383 8.51371 0
      vertex 194 8.26795 0
      vertex 205 0 0
    endloop
  endfacet
  facet normal -0 0 -1
    outer loop
      vertex 193.044 9.58418 0
      vertex 11.8271 9.18653 0
      vertex 12 10 0
    endloop
  endfacet
  facet normal -0 0 -1
    outer loop
      vertex 193.382 8.82443 0
      vertex 11.3383 8.51371 0
      vertex 11.8271 9.18653 0
    endloop
  endfacet
  facet normal 0 0 -1
    outer loop
      vertex 0 0 0
      vertex 11.3383 8.51371 0
      vertex 205 0 0
    endloop
  endfacet
  facet normal 0 0 -1
    outer loop
      vertex 11.3383 8.51371 0
      vertex 0 0 0
      vertex 10.618 8.09789 0
    endloop
  endfacet
  facet normal 0 0 -1
    outer loop
      vertex 0 0 0
      vertex 8.0437 10.4158 0
      vertex 8.0437 9.58418 0
    endloop
  endfacet
  facet normal -0 0 -1
    outer loop
      vertex 8.0437 10.4158 0
      vertex 0 0 0
      vertex 8.0437 29.5842 0
    endloop
  endfacet
  facet normal 0 0 -1
    outer loop
      vertex 0 40 0
      vertex 8.0437 29.5842 0
      vertex 0 0 0
    endloop
  endfacet
  facet normal -0 0 -1
    outer loop
      vertex 8.38197 8.82443 0
      vertex 0 0 0
      vertex 8.0437 9.58418 0
    endloop
  endfacet
  facet normal -0 0 -1
    outer loop
      vertex 9 8.26795 0
      vertex 0 0 0
      vertex 8.38197 8.82443 0
    endloop
  endfacet
  facet normal -0 0 -1
    outer loop
      vertex 9.79094 8.01096 0
      vertex 0 0 0
      vertex 9 8.26795 0
    endloop
  endfacet
  facet normal 0 0 -1
    outer loop
      vertex 10.618 8.09789 0
      vertex 0 0 0
      vertex 9.79094 8.01096 0
    endloop
  endfacet
  facet normal 0 0 -1
    outer loop
      vertex 205 0 0
      vertex 196.827 10.8135 0
      vertex 205 40 0
    endloop
  endfacet
  facet normal 0 0 -1
    outer loop
      vertex 196.827 30.8135 0
      vertex 205 40 0
      vertex 197 30 0
    endloop
  endfacet
  facet normal 0 0 -1
    outer loop
      vertex 196.338 31.4863 0
      vertex 205 40 0
      vertex 196.827 30.8135 0
    endloop
  endfacet
  facet normal 0 0 -1
    outer loop
      vertex 195.618 31.9021 0
      vertex 205 40 0
      vertex 196.338 31.4863 0
    endloop
  endfacet
  facet normal 0 0 -1
    outer loop
      vertex 194.791 31.989 0
      vertex 205 40 0
      vertex 195.618 31.9021 0
    endloop
  endfacet
  facet normal 0 0 -1
    outer loop
      vertex 194 31.732 0
      vertex 205 40 0
      vertex 194.791 31.989 0
    endloop
  endfacet
  facet normal 0 0 -1
    outer loop
      vertex 193.044 29.5842 0
      vertex 12 30 0
      vertex 193.044 30.4158 0
    endloop
  endfacet
  facet normal 0 0 -1
    outer loop
      vertex 11.8271 30.8135 0
      vertex 193.044 30.4158 0
      vertex 12 30 0
    endloop
  endfacet
  facet normal 0 0 -1
    outer loop
      vertex 193.044 30.4158 0
      vertex 11.8271 30.8135 0
      vertex 193.382 31.1756 0
    endloop
  endfacet
  facet normal 0 0 -1
    outer loop
      vertex 11.3383 31.4863 0
      vertex 193.382 31.1756 0
      vertex 11.8271 30.8135 0
    endloop
  endfacet
  facet normal 0 0 -1
    outer loop
      vertex 193.382 31.1756 0
      vertex 11.3383 31.4863 0
      vertex 194 31.732 0
    endloop
  endfacet
  facet normal -0 0 -1
    outer loop
      vertex 194 31.732 0
      vertex 11.3383 31.4863 0
      vertex 205 40 0
    endloop
  endfacet
  facet normal 0 0 -1
    outer loop
      vertex 0 40 0
      vertex 11.3383 31.4863 0
      vertex 10.618 31.9021 0
    endloop
  endfacet
  facet normal 0 0 -1
    outer loop
      vertex 0 40 0
      vertex 10.618 31.9021 0
      vertex 9.79094 31.989 0
    endloop
  endfacet
  facet normal 0 0 -1
    outer loop
      vertex 11.3383 31.4863 0
      vertex 0 40 0
      vertex 205 40 0
    endloop
  endfacet
  facet normal 0 0 -1
    outer loop
      vertex 9 31.732 0
      vertex 0 40 0
      vertex 9.79094 31.989 0
    endloop
  endfacet
  facet normal 0 0 -1
    outer loop
      vertex 8.38197 31.1756 0
      vertex 0 40 0
      vertex 9 31.732 0
    endloop
  endfacet
  facet normal 0 0 -1
    outer loop
      vertex 8.0437 30.4158 0
      vertex 0 40 0
      vertex 8.38197 31.1756 0
    endloop
  endfacet
  facet normal 0 0 -1
    outer loop
      vertex 8.0437 29.5842 0
      vertex 0 40 0
      vertex 8.0437 30.4158 0
    endloop
  endfacet
  facet normal 0 -1 0
    outer loop
      vertex 0 0 0
      vertex 20 0 5
      vertex 0 0 5
    endloop
  endfacet
  facet normal 0 -1 -0
    outer loop
      vertex 20 0 5
      vertex 0 0 0
      vertex 185 0 5
    endloop
  endfacet
  facet normal 0 -1 0
    outer loop
      vertex 205 0 0
      vertex 185 0 5
      vertex 0 0 0
    endloop
  endfacet
  facet normal 0 -1 0
    outer loop
      vertex 185 0 5
      vertex 205 0 0
      vertex 205 0 5
    endloop
  endfacet
  facet normal 0 -1 0
    outer loop
      vertex 20 0 5
      vertex 185 0 25
      vertex 20 0 25
    endloop
  endfacet
  facet normal 0 -1 -0
    outer loop
      vertex 185 0 25
      vertex 20 0 5
      vertex 185 0 5
    endloop
  endfacet
  facet normal -1 0 0
    outer loop
      vertex 20 0 5
      vertex 20 40 25
      vertex 20 40 5
    endloop
  endfacet
  facet normal -1 -0 0
    outer loop
      vertex 20 40 25
      vertex 20 0 5
      vertex 20 0 25
    endloop
  endfacet
  facet normal -0 0 1
    outer loop
      vertex 11.8271 10.8135 5
      vertex 20 0 5
      vertex 11.8271 29.1865 5
    endloop
  endfacet
  facet normal 0 0 1
    outer loop
      vertex 20 0 5
      vertex 11.8271 10.8135 5
      vertex 12 10 5
    endloop
  endfacet
  facet normal -0 0 1
    outer loop
      vertex 11.3383 28.5137 5
      vertex 11.8271 10.8135 5
      vertex 11.8271 29.1865 5
    endloop
  endfacet
  facet normal 0 0 1
    outer loop
      vertex 11.3383 28.5137 5
      vertex 11.3383 11.4863 5
      vertex 11.8271 10.8135 5
    endloop
  endfacet
  facet normal -0 0 1
    outer loop
      vertex 10.618 28.0979 5
      vertex 11.3383 11.4863 5
      vertex 11.3383 28.5137 5
    endloop
  endfacet
  facet normal 0 0 1
    outer loop
      vertex 10.618 28.0979 5
      vertex 10.618 11.9021 5
      vertex 11.3383 11.4863 5
    endloop
  endfacet
  facet normal -0 0 1
    outer loop
      vertex 9.79094 28.011 5
      vertex 10.618 11.9021 5
      vertex 10.618 28.0979 5
    endloop
  endfacet
  facet normal 0 0 1
    outer loop
      vertex 9.79094 28.011 5
      vertex 9.79094 11.989 5
      vertex 10.618 11.9021 5
    endloop
  endfacet
  facet normal 0 0 1
    outer loop
      vertex 9 28.2679 5
      vertex 9.79094 11.989 5
      vertex 9.79094 28.011 5
    endloop
  endfacet
  facet normal 0 0 1
    outer loop
      vertex 9 28.2679 5
      vertex 9 11.732 5
      vertex 9.79094 11.989 5
    endloop
  endfacet
  facet normal 0 0 1
    outer loop
      vertex 8.38197 28.8244 5
      vertex 9 11.732 5
      vertex 9 28.2679 5
    endloop
  endfacet
  facet normal 0 0 1
    outer loop
      vertex 8.38197 28.8244 5
      vertex 8.38197 11.1756 5
      vertex 9 11.732 5
    endloop
  endfacet
  facet normal 0 0 1
    outer loop
      vertex 8.0437 29.5842 5
      vertex 8.38197 11.1756 5
      vertex 8.38197 28.8244 5
    endloop
  endfacet
  facet normal 0 0 1
    outer loop
      vertex 8.38197 11.1756 5
      vertex 8.0437 29.5842 5
      vertex 8.0437 10.4158 5
    endloop
  endfacet
  facet normal 0 0 1
    outer loop
      vertex 11.8271 29.1865 5
      vertex 20 40 5
      vertex 12 30 5
    endloop
  endfacet
  facet normal 0 0 1
    outer loop
      vertex 20 40 5
      vertex 11.8271 30.8135 5
      vertex 12 30 5
    endloop
  endfacet
  facet normal 0 0 1
    outer loop
      vertex 20 40 5
      vertex 11.3383 31.4863 5
      vertex 11.8271 30.8135 5
    endloop
  endfacet
  facet normal 0 0 1
    outer loop
      vertex 20 40 5
      vertex 10.618 31.9021 5
      vertex 11.3383 31.4863 5
    endloop
  endfacet
  facet normal 0 0 1
    outer loop
      vertex 20 40 5
      vertex 9.79094 31.989 5
      vertex 10.618 31.9021 5
    endloop
  endfacet
  facet normal -0 0 1
    outer loop
      vertex 0 40 5
      vertex 9.79094 31.989 5
      vertex 20 40 5
    endloop
  endfacet
  facet normal 0 0 1
    outer loop
      vertex 0 40 5
      vertex 8.0437 29.5842 5
      vertex 8.0437 30.4158 5
    endloop
  endfacet
  facet normal 0 0 1
    outer loop
      vertex 8.0437 29.5842 5
      vertex 0 40 5
      vertex 8.0437 10.4158 5
    endloop
  endfacet
  facet normal 0 0 1
    outer loop
      vertex 0 0 5
      vertex 8.0437 10.4158 5
      vertex 0 40 5
    endloop
  endfacet
  facet normal 0 0 1
    outer loop
      vertex 8.38197 31.1756 5
      vertex 0 40 5
      vertex 8.0437 30.4158 5
    endloop
  endfacet
  facet normal 0 0 1
    outer loop
      vertex 9 31.732 5
      vertex 0 40 5
      vertex 8.38197 31.1756 5
    endloop
  endfacet
  facet normal 0 0 1
    outer loop
      vertex 9.79094 31.989 5
      vertex 0 40 5
      vertex 9 31.732 5
    endloop
  endfacet
  facet normal 0 0 1
    outer loop
      vertex 20 40 5
      vertex 11.8271 29.1865 5
      vertex 20 0 5
    endloop
  endfacet
  facet normal -0 0 1
    outer loop
      vertex 11.8271 9.18653 5
      vertex 20 0 5
      vertex 12 10 5
    endloop
  endfacet
  facet normal -0 0 1
    outer loop
      vertex 11.3383 8.51371 5
      vertex 20 0 5
      vertex 11.8271 9.18653 5
    endloop
  endfacet
  facet normal -0 0 1
    outer loop
      vertex 10.618 8.09789 5
      vertex 20 0 5
      vertex 11.3383 8.51371 5
    endloop
  endfacet
  facet normal -0 0 1
    outer loop
      vertex 9.79094 8.01096 5
      vertex 20 0 5
      vertex 10.618 8.09789 5
    endloop
  endfacet
  facet normal 0 0 1
    outer loop
      vertex 0 0 5
      vertex 9.79094 8.01096 5
      vertex 9 8.26795 5
    endloop
  endfacet
  facet normal 0 0 1
    outer loop
      vertex 9.79094 8.01096 5
      vertex 0 0 5
      vertex 20 0 5
    endloop
  endfacet
  facet normal 0 0 1
    outer loop
      vertex 8.38197 8.82443 5
      vertex 0 0 5
      vertex 9 8.26795 5
    endloop
  endfacet
  facet normal 0 0 1
    outer loop
      vertex 8.0437 9.58418 5
      vertex 0 0 5
      vertex 8.38197 8.82443 5
    endloop
  endfacet
  facet normal 0 0 1
    outer loop
      vertex 8.0437 10.4158 5
      vertex 0 0 5
      vertex 8.0437 9.58418 5
    endloop
  endfacet
  facet normal 1 -0 0
    outer loop
      vertex 185 0 25
      vertex 185 40 5
      vertex 185 40 25
    endloop
  endfacet
  facet normal 1 0 0
    outer loop
      vertex 185 40 5
      vertex 185 0 25
      vertex 185 0 5
    endloop
  endfacet
  facet normal -0 0 1
    outer loop
      vertex 196.827 10.8135 5
      vertex 205 0 5
      vertex 196.827 29.1865 5
    endloop
  endfacet
  facet normal 0 0 1
    outer loop
      vertex 205 0 5
      vertex 196.827 10.8135 5
      vertex 197 10 5
    endloop
  endfacet
  facet normal -0 0 1
    outer loop
      vertex 196.338 28.5137 5
      vertex 196.827 10.8135 5
      vertex 196.827 29.1865 5
    endloop
  endfacet
  facet normal 0 0 1
    outer loop
      vertex 196.338 28.5137 5
      vertex 196.338 11.4863 5
      vertex 196.827 10.8135 5
    endloop
  endfacet
  facet normal -0 0 1
    outer loop
      vertex 195.618 28.0979 5
      vertex 196.338 11.4863 5
      vertex 196.338 28.5137 5
    endloop
  endfacet
  facet normal 0 0 1
    outer loop
      vertex 195.618 28.0979 5
      vertex 195.618 11.9021 5
      vertex 196.338 11.4863 5
    endloop
  endfacet
  facet normal -0 0 1
    outer loop
      vertex 194.791 28.011 5
      vertex 195.618 11.9021 5
      vertex 195.618 28.0979 5
    endloop
  endfacet
  facet normal 0 0 1
    outer loop
      vertex 194.791 28.011 5
      vertex 194.791 11.989 5
      vertex 195.618 11.9021 5
    endloop
  endfacet
  facet normal 0 0 1
    outer loop
      vertex 194 28.2679 5
      vertex 194.791 11.989 5
      vertex 194.791 28.011 5
    endloop
  endfacet
  facet normal 0 0 1
    outer loop
      vertex 194 28.2679 5
      vertex 194 11.732 5
      vertex 194.791 11.989 5
    endloop
  endfacet
  facet normal 0 0 1
    outer loop
      vertex 193.382 28.8244 5
      vertex 194 11.732 5
      vertex 194 28.2679 5
    endloop
  endfacet
  facet normal 0 0 1
    outer loop
      vertex 193.382 28.8244 5
      vertex 193.382 11.1756 5
      vertex 194 11.732 5
    endloop
  endfacet
  facet normal 0 0 1
    outer loop
      vertex 193.044 29.5842 5
      vertex 193.382 11.1756 5
      vertex 193.382 28.8244 5
    endloop
  endfacet
  facet normal 0 0 1
    outer loop
      vertex 193.382 11.1756 5
      vertex 193.044 29.5842 5
      vertex 193.044 10.4158 5
    endloop
  endfacet
  facet normal 0 0 1
    outer loop
      vertex 196.827 29.1865 5
      vertex 205 40 5
      vertex 197 30 5
    endloop
  endfacet
  facet normal 0 0 1
    outer loop
      vertex 205 40 5
      vertex 196.827 30.8135 5
      vertex 197 30 5
    endloop
  endfacet
  facet normal 0 0 1
    outer loop
      vertex 205 40 5
      vertex 196.338 31.4863 5
      vertex 196.827 30.8135 5
    endloop
  endfacet
  facet normal 0 0 1
    outer loop
      vertex 205 40 5
      vertex 195.618 31.9021 5
      vertex 196.338 31.4863 5
    endloop
  endfacet
  facet normal 0 0 1
    outer loop
      vertex 205 40 5
      vertex 194.791 31.989 5
      vertex 195.618 31.9021 5
    endloop
  endfacet
  facet normal -0 0 1
    outer loop
      vertex 185 40 5
      vertex 194.791 31.989 5
      vertex 205 40 5
    endloop
  endfacet
  facet normal 0 0 1
    outer loop
      vertex 185 40 5
      vertex 193.044 29.5842 5
      vertex 193.044 30.4158 5
    endloop
  endfacet
  facet normal 0 0 1
    outer loop
      vertex 193.044 29.5842 5
      vertex 185 40 5
      vertex 193.044 10.4158 5
    endloop
  endfacet
  facet normal 0 0 1
    outer loop
      vertex 185 0 5
      vertex 193.044 10.4158 5
      vertex 185 40 5
    endloop
  endfacet
  facet normal 0 0 1
    outer loop
      vertex 193.382 31.1756 5
      vertex 185 40 5
      vertex 193.044 30.4158 5
    endloop
  endfacet
  facet normal 0 0 1
    outer loop
      vertex 194 31.732 5
      vertex 185 40 5
      vertex 193.382 31.1756 5
    endloop
  endfacet
  facet normal 0 0 1
    outer loop
      vertex 194.791 31.989 5
      vertex 185 40 5
      vertex 194 31.732 5
    endloop
  endfacet
  facet normal 0 0 1
    outer loop
      vertex 205 40 5
      vertex 196.827 29.1865 5
      vertex 205 0 5
    endloop
  endfacet
  facet normal -0 0 1
    outer loop
      vertex 196.827 9.18653 5
      vertex 205 0 5
      vertex 197 10 5
    endloop
  endfacet
  facet normal -0 0 1
    outer loop
      vertex 196.338 8.51371 5
      vertex 205 0 5
      vertex 196.827 9.18653 5
    endloop
  endfacet
  facet normal -0 0 1
    outer loop
      vertex 195.618 8.09789 5
      vertex 205 0 5
      vertex 196.338 8.51371 5
    endloop
  endfacet
  facet normal -0 0 1
    outer loop
      vertex 194.791 8.01096 5
      vertex 205 0 5
      vertex 195.618 8.09789 5
    endloop
  endfacet
  facet normal 0 0 1
    outer loop
      vertex 185 0 5
      vertex 194.791 8.01096 5
      vertex 194 8.26795 5
    endloop
  endfacet
  facet normal 0 0 1
    outer loop
      vertex 194.791 8.01096 5
      vertex 185 0 5
      vertex 205 0 5
    endloop
  endfacet
  facet normal 0 0 1
    outer loop
      vertex 193.382 8.82443 5
      vertex 185 0 5
      vertex 194 8.26795 5
    endloop
  endfacet
  facet normal 0 0 1
    outer loop
      vertex 193.044 9.58418 5
      vertex 185 0 5
      vertex 193.382 8.82443 5
    endloop
  endfacet
  facet normal 0 0 1
    outer loop
      vertex 193.044 10.4158 5
      vertex 185 0 5
      vertex 193.044 9.58418 5
    endloop
  endfacet
endsolid OpenSCAD_Model
