solid OpenSCAD_Model
  facet normal 0 0 -1
    outer loop
      vertex -15 0 0
      vertex -14.8817 1.88 0
      vertex -14.8817 -1.88 0
    endloop
  endfacet
  facet normal 0 0 -1
    outer loop
      vertex -14.8817 -1.88 0
      vertex -14.8817 1.88 0
      vertex -14.5287 3.73035 0
    endloop
  endfacet
  facet normal 0 0 -1
    outer loop
      vertex -14.8817 -1.88 0
      vertex -14.5287 3.73035 0
      vertex -13.9466 5.52187 0
    endloop
  endfacet
  facet normal 0 0 -1
    outer loop
      vertex -14.8817 -1.88 0
      vertex -13.9466 5.52187 0
      vertex -13.1446 7.2263 0
    endloop
  endfacet
  facet normal 0 0 -1
    outer loop
      vertex -14.8817 -1.88 0
      vertex -13.1446 7.2263 0
      vertex -12.1353 8.81678 0
    endloop
  endfacet
  facet normal 0 0 -1
    outer loop
      vertex -14.8817 -1.88 0
      vertex -12.1353 8.81678 0
      vertex -10.9345 10.2682 0
    endloop
  endfacet
  facet normal 0 0 -1
    outer loop
      vertex -14.8817 -1.88 0
      vertex -10.9345 10.2682 0
      vertex -9.56136 11.5577 0
    endloop
  endfacet
  facet normal 0 0 -1
    outer loop
      vertex -14.8817 -1.88 0
      vertex -9.56136 11.5577 0
      vertex -8.0374 12.6649 0
    endloop
  endfacet
  facet normal 0 0 -1
    outer loop
      vertex -14.8817 -1.88 0
      vertex -8.0374 12.6649 0
      vertex -6.38669 13.5724 0
    endloop
  endfacet
  facet normal 0 0 -1
    outer loop
      vertex -14.8817 -1.88 0
      vertex -6.38669 13.5724 0
      vertex -4.63525 14.2658 0
    endloop
  endfacet
  facet normal 0 0 -1
    outer loop
      vertex -14.8817 -1.88 0
      vertex -4.63525 14.2658 0
      vertex -2.81072 14.7343 0
    endloop
  endfacet
  facet normal 0 0 -1
    outer loop
      vertex -14.8817 -1.88 0
      vertex -2.81072 14.7343 0
      vertex -0.941858 14.9704 0
    endloop
  endfacet
  facet normal 0 0 -1
    outer loop
      vertex -14.8817 -1.88 0
      vertex -0.941858 14.9704 0
      vertex 0.941858 14.9704 0
    endloop
  endfacet
  facet normal 0 0 -1
    outer loop
      vertex -14.8817 -1.88 0
      vertex 0.941858 14.9704 0
      vertex 2.81072 14.7343 0
    endloop
  endfacet
  facet normal 0 0 -1
    outer loop
      vertex -14.8817 -1.88 0
      vertex 2.81072 14.7343 0
      vertex 4.63525 14.2658 0
    endloop
  endfacet
  facet normal 0 0 -1
    outer loop
      vertex -14.8817 -1.88 0
      vertex 4.63525 14.2658 0
      vertex 6.38669 13.5724 0
    endloop
  endfacet
  facet normal 0 0 -1
    outer loop
      vertex -14.8817 -1.88 0
      vertex 6.38669 13.5724 0
      vertex 8.0374 12.6649 0
    endloop
  endfacet
  facet normal 0 0 -1
    outer loop
      vertex -14.8817 -1.88 0
      vertex 8.0374 12.6649 0
      vertex 9.56136 11.5577 0
    endloop
  endfacet
  facet normal 0 0 -1
    outer loop
      vertex -14.8817 -1.88 0
      vertex 9.56136 11.5577 0
      vertex 10.9345 10.2682 0
    endloop
  endfacet
  facet normal 0 0 -1
    outer loop
      vertex -14.8817 -1.88 0
      vertex 10.9345 10.2682 0
      vertex 12.1353 8.81678 0
    endloop
  endfacet
  facet normal 0 0 -1
    outer loop
      vertex -14.8817 -1.88 0
      vertex 12.1353 8.81678 0
      vertex 13.1446 7.2263 0
    endloop
  endfacet
  facet normal 0 0 -1
    outer loop
      vertex -14.8817 -1.88 0
      vertex 13.1446 7.2263 0
      vertex 13.9466 5.52187 0
    endloop
  endfacet
  facet normal 0 0 -1
    outer loop
      vertex -14.8817 -1.88 0
      vertex 13.9466 5.52187 0
      vertex 14.5287 3.73035 0
    endloop
  endfacet
  facet normal 0 0 -1
    outer loop
      vertex -14.8817 -1.88 0
      vertex 14.5287 3.73035 0
      vertex 14.8817 1.88 0
    endloop
  endfacet
  facet normal 0 0 -1
    outer loop
      vertex -14.8817 -1.88 0
      vertex 14.8817 1.88 0
      vertex 15 0 0
    endloop
  endfacet
  facet normal 0 0 -1
    outer loop
      vertex -14.8817 -1.88 0
      vertex 15 0 0
      vertex 14.8817 -1.88 0
    endloop
  endfacet
  facet normal 0 0 -1
    outer loop
      vertex -14.8817 -1.88 0
      vertex 14.8817 -1.88 0
      vertex 14.5287 -3.73035 0
    endloop
  endfacet
  facet normal 0 0 -1
    outer loop
      vertex -14.8817 -1.88 0
      vertex 14.5287 -3.73035 0
      vertex 13.9466 -5.52187 0
    endloop
  endfacet
  facet normal 0 0 -1
    outer loop
      vertex -14.8817 -1.88 0
      vertex 13.9466 -5.52187 0
      vertex 13.1446 -7.2263 0
    endloop
  endfacet
  facet normal 0 0 -1
    outer loop
      vertex -14.8817 -1.88 0
      vertex 13.1446 -7.2263 0
      vertex 12.1353 -8.81678 0
    endloop
  endfacet
  facet normal 0 0 -1
    outer loop
      vertex -14.8817 -1.88 0
      vertex 12.1353 -8.81678 0
      vertex 10.9345 -10.2682 0
    endloop
  endfacet
  facet normal 0 0 -1
    outer loop
      vertex -14.8817 -1.88 0
      vertex 10.9345 -10.2682 0
      vertex 9.56136 -11.5577 0
    endloop
  endfacet
  facet normal 0 0 -1
    outer loop
      vertex -14.8817 -1.88 0
      vertex 9.56136 -11.5577 0
      vertex 8.0374 -12.6649 0
    endloop
  endfacet
  facet normal 0 0 -1
    outer loop
      vertex -14.8817 -1.88 0
      vertex 8.0374 -12.6649 0
      vertex 6.38669 -13.5724 0
    endloop
  endfacet
  facet normal 0 0 -1
    outer loop
      vertex -14.8817 -1.88 0
      vertex 6.38669 -13.5724 0
      vertex 4.63525 -14.2658 0
    endloop
  endfacet
  facet normal 0 0 -1
    outer loop
      vertex -14.8817 -1.88 0
      vertex 4.63525 -14.2658 0
      vertex 2.81072 -14.7343 0
    endloop
  endfacet
  facet normal 0 0 -1
    outer loop
      vertex -14.8817 -1.88 0
      vertex 2.81072 -14.7343 0
      vertex 0.941858 -14.9704 0
    endloop
  endfacet
  facet normal 0 0 -1
    outer loop
      vertex -14.8817 -1.88 0
      vertex 0.941858 -14.9704 0
      vertex -0.941858 -14.9704 0
    endloop
  endfacet
  facet normal 0 0 -1
    outer loop
      vertex -14.8817 -1.88 0
      vertex -0.941858 -14.9704 0
      vertex -2.81072 -14.7343 0
    endloop
  endfacet
  facet normal 0 0 -1
    outer loop
      vertex -14.8817 -1.88 0
      vertex -2.81072 -14.7343 0
      vertex -4.63525 -14.2658 0
    endloop
  endfacet
  facet normal 0 0 -1
    outer loop
      vertex -14.8817 -1.88 0
      vertex -4.63525 -14.2658 0
      vertex -6.38669 -13.5724 0
    endloop
  endfacet
  facet normal 0 0 -1
    outer loop
      vertex -14.8817 -1.88 0
      vertex -6.38669 -13.5724 0
      vertex -8.0374 -12.6649 0
    endloop
  endfacet
  facet normal 0 0 -1
    outer loop
      vertex -14.8817 -1.88 0
      vertex -8.0374 -12.6649 0
      vertex -9.56136 -11.5577 0
    endloop
  endfacet
  facet normal 0 0 -1
    outer loop
      vertex -14.8817 -1.88 0
      vertex -9.56136 -11.5577 0
      vertex -10.9345 -10.2682 0
    endloop
  endfacet
  facet normal 0 0 -1
    outer loop
      vertex -14.8817 -1.88 0
      vertex -10.9345 -10.2682 0
      vertex -12.1353 -8.81678 0
    endloop
  endfacet
  facet normal 0 0 -1
    outer loop
      vertex -14.8817 -1.88 0
      vertex -12.1353 -8.81678 0
      vertex -13.1446 -7.2263 0
    endloop
  endfacet
  facet normal 0 0 -1
    outer loop
      vertex -14.8817 -1.88 0
      vertex -13.1446 -7.2263 0
      vertex -13.9466 -5.52187 0
    endloop
  endfacet
  facet normal 0 0 -1
    outer loop
      vertex -14.8817 -1.88 0
      vertex -13.9466 -5.52187 0
      vertex -14.5287 -3.73035 0
    endloop
  endfacet
  facet normal -0.998027 0.0627902 0
    outer loop
      vertex -15 0 0
      vertex -15 0 3
      vertex -14.8817 1.88 0
    endloop
  endfacet
  facet normal -0.998027 0.0627902 0
    outer loop
      vertex -14.8817 1.88 0
      vertex -15 0 3
      vertex -14.8817 1.88 3
    endloop
  endfacet
  facet normal -0.998027 -0.0627902 0
    outer loop
      vertex -15 0 0
      vertex -14.8817 -1.88 0
      vertex -15 0 3
    endloop
  endfacet
  facet normal -0.998027 -0.0627902 0
    outer loop
      vertex -15 0 3
      vertex -14.8817 -1.88 0
      vertex -14.8817 -1.88 3
    endloop
  endfacet
  facet normal -0.982287 -0.187382 0
    outer loop
      vertex -14.8817 -1.88 0
      vertex -14.5287 -3.73035 0
      vertex -14.8817 -1.88 3
    endloop
  endfacet
  facet normal -0.982287 -0.187382 0
    outer loop
      vertex -14.8817 -1.88 3
      vertex -14.5287 -3.73035 0
      vertex -14.5287 -3.73035 3
    endloop
  endfacet
  facet normal -0.951057 -0.309017 0
    outer loop
      vertex -14.5287 -3.73035 0
      vertex -13.9466 -5.52187 0
      vertex -14.5287 -3.73035 3
    endloop
  endfacet
  facet normal -0.951057 -0.309017 0
    outer loop
      vertex -14.5287 -3.73035 3
      vertex -13.9466 -5.52187 0
      vertex -13.9466 -5.52187 3
    endloop
  endfacet
  facet normal -0.904827 -0.425779 0
    outer loop
      vertex -13.9466 -5.52187 0
      vertex -13.1446 -7.2263 0
      vertex -13.9466 -5.52187 3
    endloop
  endfacet
  facet normal -0.904827 -0.425779 0
    outer loop
      vertex -13.9466 -5.52187 3
      vertex -13.1446 -7.2263 0
      vertex -13.1446 -7.2263 3
    endloop
  endfacet
  facet normal -0.844328 -0.535827 0
    outer loop
      vertex -13.1446 -7.2263 0
      vertex -12.1353 -8.81678 0
      vertex -13.1446 -7.2263 3
    endloop
  endfacet
  facet normal -0.844328 -0.535827 0
    outer loop
      vertex -13.1446 -7.2263 3
      vertex -12.1353 -8.81678 0
      vertex -12.1353 -8.81678 3
    endloop
  endfacet
  facet normal -0.770513 -0.637424 0
    outer loop
      vertex -12.1353 -8.81678 0
      vertex -10.9345 -10.2682 0
      vertex -12.1353 -8.81678 3
    endloop
  endfacet
  facet normal -0.770513 -0.637424 0
    outer loop
      vertex -12.1353 -8.81678 3
      vertex -10.9345 -10.2682 0
      vertex -10.9345 -10.2682 3
    endloop
  endfacet
  facet normal -0.684547 -0.728969 0
    outer loop
      vertex -10.9345 -10.2682 3
      vertex -10.9345 -10.2682 0
      vertex -9.56136 -11.5577 0
    endloop
  endfacet
  facet normal -0.684547 -0.728969 0
    outer loop
      vertex -9.56136 -11.5577 3
      vertex -10.9345 -10.2682 3
      vertex -9.56136 -11.5577 0
    endloop
  endfacet
  facet normal -0.587785 -0.809017 0
    outer loop
      vertex -9.56136 -11.5577 3
      vertex -9.56136 -11.5577 0
      vertex -8.0374 -12.6649 0
    endloop
  endfacet
  facet normal -0.587785 -0.809017 0
    outer loop
      vertex -8.0374 -12.6649 3
      vertex -9.56136 -11.5577 3
      vertex -8.0374 -12.6649 0
    endloop
  endfacet
  facet normal -0.481754 -0.876307 0
    outer loop
      vertex -8.0374 -12.6649 3
      vertex -8.0374 -12.6649 0
      vertex -6.38669 -13.5724 0
    endloop
  endfacet
  facet normal -0.481754 -0.876307 0
    outer loop
      vertex -6.38669 -13.5724 3
      vertex -8.0374 -12.6649 3
      vertex -6.38669 -13.5724 0
    endloop
  endfacet
  facet normal -0.368125 -0.929776 0
    outer loop
      vertex -6.38669 -13.5724 3
      vertex -6.38669 -13.5724 0
      vertex -4.63525 -14.2658 0
    endloop
  endfacet
  facet normal -0.368125 -0.929776 0
    outer loop
      vertex -4.63525 -14.2658 3
      vertex -6.38669 -13.5724 3
      vertex -4.63525 -14.2658 0
    endloop
  endfacet
  facet normal -0.24869 -0.968583 0
    outer loop
      vertex -4.63525 -14.2658 3
      vertex -4.63525 -14.2658 0
      vertex -2.81072 -14.7343 0
    endloop
  endfacet
  facet normal -0.24869 -0.968583 0
    outer loop
      vertex -2.81072 -14.7343 3
      vertex -4.63525 -14.2658 3
      vertex -2.81072 -14.7343 0
    endloop
  endfacet
  facet normal -0.125333 -0.992115 0
    outer loop
      vertex -2.81072 -14.7343 3
      vertex -2.81072 -14.7343 0
      vertex -0.941858 -14.9704 0
    endloop
  endfacet
  facet normal -0.125333 -0.992115 0
    outer loop
      vertex -0.941858 -14.9704 3
      vertex -2.81072 -14.7343 3
      vertex -0.941858 -14.9704 0
    endloop
  endfacet
  facet normal 0 -1 0
    outer loop
      vertex -0.941858 -14.9704 3
      vertex -0.941858 -14.9704 0
      vertex 0.941858 -14.9704 0
    endloop
  endfacet
  facet normal 0 -1 0
    outer loop
      vertex 0.941858 -14.9704 3
      vertex -0.941858 -14.9704 3
      vertex 0.941858 -14.9704 0
    endloop
  endfacet
  facet normal 0.125333 -0.992115 0
    outer loop
      vertex 0.941858 -14.9704 3
      vertex 0.941858 -14.9704 0
      vertex 2.81072 -14.7343 0
    endloop
  endfacet
  facet normal 0.125333 -0.992115 0
    outer loop
      vertex 2.81072 -14.7343 3
      vertex 0.941858 -14.9704 3
      vertex 2.81072 -14.7343 0
    endloop
  endfacet
  facet normal 0.24869 -0.968583 0
    outer loop
      vertex 2.81072 -14.7343 3
      vertex 2.81072 -14.7343 0
      vertex 4.63525 -14.2658 0
    endloop
  endfacet
  facet normal 0.24869 -0.968583 0
    outer loop
      vertex 4.63525 -14.2658 3
      vertex 2.81072 -14.7343 3
      vertex 4.63525 -14.2658 0
    endloop
  endfacet
  facet normal 0.368125 -0.929776 0
    outer loop
      vertex 4.63525 -14.2658 3
      vertex 4.63525 -14.2658 0
      vertex 6.38669 -13.5724 0
    endloop
  endfacet
  facet normal 0.368125 -0.929776 0
    outer loop
      vertex 6.38669 -13.5724 3
      vertex 4.63525 -14.2658 3
      vertex 6.38669 -13.5724 0
    endloop
  endfacet
  facet normal 0.481754 -0.876307 0
    outer loop
      vertex 6.38669 -13.5724 3
      vertex 6.38669 -13.5724 0
      vertex 8.0374 -12.6649 0
    endloop
  endfacet
  facet normal 0.481754 -0.876307 0
    outer loop
      vertex 8.0374 -12.6649 3
      vertex 6.38669 -13.5724 3
      vertex 8.0374 -12.6649 0
    endloop
  endfacet
  facet normal 0.587785 -0.809017 0
    outer loop
      vertex 8.0374 -12.6649 3
      vertex 8.0374 -12.6649 0
      vertex 9.56136 -11.5577 0
    endloop
  endfacet
  facet normal 0.587785 -0.809017 0
    outer loop
      vertex 9.56136 -11.5577 3
      vertex 8.0374 -12.6649 3
      vertex 9.56136 -11.5577 0
    endloop
  endfacet
  facet normal 0.684547 -0.728969 0
    outer loop
      vertex 9.56136 -11.5577 3
      vertex 9.56136 -11.5577 0
      vertex 10.9345 -10.2682 0
    endloop
  endfacet
  facet normal 0.684547 -0.728969 0
    outer loop
      vertex 10.9345 -10.2682 3
      vertex 9.56136 -11.5577 3
      vertex 10.9345 -10.2682 0
    endloop
  endfacet
  facet normal 0.770513 -0.637424 0
    outer loop
      vertex 10.9345 -10.2682 3
      vertex 10.9345 -10.2682 0
      vertex 12.1353 -8.81678 0
    endloop
  endfacet
  facet normal 0.770513 -0.637424 0
    outer loop
      vertex 12.1353 -8.81678 3
      vertex 10.9345 -10.2682 3
      vertex 12.1353 -8.81678 0
    endloop
  endfacet
  facet normal 0.844328 -0.535827 0
    outer loop
      vertex 12.1353 -8.81678 3
      vertex 12.1353 -8.81678 0
      vertex 13.1446 -7.2263 0
    endloop
  endfacet
  facet normal 0.844328 -0.535827 0
    outer loop
      vertex 13.1446 -7.2263 3
      vertex 12.1353 -8.81678 3
      vertex 13.1446 -7.2263 0
    endloop
  endfacet
  facet normal 0.904827 -0.425779 0
    outer loop
      vertex 13.1446 -7.2263 3
      vertex 13.1446 -7.2263 0
      vertex 13.9466 -5.52187 0
    endloop
  endfacet
  facet normal 0.904827 -0.425779 0
    outer loop
      vertex 13.9466 -5.52187 3
      vertex 13.1446 -7.2263 3
      vertex 13.9466 -5.52187 0
    endloop
  endfacet
  facet normal 0.951057 -0.309017 0
    outer loop
      vertex 13.9466 -5.52187 3
      vertex 13.9466 -5.52187 0
      vertex 14.5287 -3.73035 0
    endloop
  endfacet
  facet normal 0.951057 -0.309017 0
    outer loop
      vertex 14.5287 -3.73035 3
      vertex 13.9466 -5.52187 3
      vertex 14.5287 -3.73035 0
    endloop
  endfacet
  facet normal 0.982287 -0.187382 0
    outer loop
      vertex 14.5287 -3.73035 3
      vertex 14.5287 -3.73035 0
      vertex 14.8817 -1.88 0
    endloop
  endfacet
  facet normal 0.982287 -0.187382 0
    outer loop
      vertex 14.8817 -1.88 3
      vertex 14.5287 -3.73035 3
      vertex 14.8817 -1.88 0
    endloop
  endfacet
  facet normal 0.998027 -0.0627902 0
    outer loop
      vertex 14.8817 -1.88 3
      vertex 14.8817 -1.88 0
      vertex 15 0 0
    endloop
  endfacet
  facet normal 0.998027 -0.0627902 0
    outer loop
      vertex 15 0 3
      vertex 14.8817 -1.88 3
      vertex 15 0 0
    endloop
  endfacet
  facet normal 0.998027 0.0627902 0
    outer loop
      vertex 15 0 0
      vertex 14.8817 1.88 0
      vertex 14.8817 1.88 3
    endloop
  endfacet
  facet normal 0.998027 0.0627902 0
    outer loop
      vertex 15 0 3
      vertex 15 0 0
      vertex 14.8817 1.88 3
    endloop
  endfacet
  facet normal 0.982287 0.187382 0
    outer loop
      vertex 14.8817 1.88 0
      vertex 14.5287 3.73035 0
      vertex 14.5287 3.73035 3
    endloop
  endfacet
  facet normal 0.982287 0.187382 0
    outer loop
      vertex 14.8817 1.88 3
      vertex 14.8817 1.88 0
      vertex 14.5287 3.73035 3
    endloop
  endfacet
  facet normal 0.951057 0.309017 0
    outer loop
      vertex 14.5287 3.73035 0
      vertex 13.9466 5.52187 0
      vertex 13.9466 5.52187 3
    endloop
  endfacet
  facet normal 0.951057 0.309017 0
    outer loop
      vertex 14.5287 3.73035 3
      vertex 14.5287 3.73035 0
      vertex 13.9466 5.52187 3
    endloop
  endfacet
  facet normal 0.904827 0.425779 0
    outer loop
      vertex 13.9466 5.52187 0
      vertex 13.1446 7.2263 0
      vertex 13.1446 7.2263 3
    endloop
  endfacet
  facet normal 0.904827 0.425779 0
    outer loop
      vertex 13.9466 5.52187 3
      vertex 13.9466 5.52187 0
      vertex 13.1446 7.2263 3
    endloop
  endfacet
  facet normal 0.844328 0.535827 0
    outer loop
      vertex 13.1446 7.2263 0
      vertex 12.1353 8.81678 0
      vertex 12.1353 8.81678 3
    endloop
  endfacet
  facet normal 0.844328 0.535827 0
    outer loop
      vertex 13.1446 7.2263 3
      vertex 13.1446 7.2263 0
      vertex 12.1353 8.81678 3
    endloop
  endfacet
  facet normal 0.770513 0.637424 0
    outer loop
      vertex 12.1353 8.81678 0
      vertex 10.9345 10.2682 0
      vertex 10.9345 10.2682 3
    endloop
  endfacet
  facet normal 0.770513 0.637424 0
    outer loop
      vertex 12.1353 8.81678 3
      vertex 12.1353 8.81678 0
      vertex 10.9345 10.2682 3
    endloop
  endfacet
  facet normal 0.684547 0.728969 0
    outer loop
      vertex 9.56136 11.5577 0
      vertex 9.56136 11.5577 3
      vertex 10.9345 10.2682 0
    endloop
  endfacet
  facet normal 0.684547 0.728969 0
    outer loop
      vertex 10.9345 10.2682 0
      vertex 9.56136 11.5577 3
      vertex 10.9345 10.2682 3
    endloop
  endfacet
  facet normal 0.587785 0.809017 0
    outer loop
      vertex 8.0374 12.6649 0
      vertex 8.0374 12.6649 3
      vertex 9.56136 11.5577 0
    endloop
  endfacet
  facet normal 0.587785 0.809017 0
    outer loop
      vertex 9.56136 11.5577 0
      vertex 8.0374 12.6649 3
      vertex 9.56136 11.5577 3
    endloop
  endfacet
  facet normal 0.481754 0.876307 0
    outer loop
      vertex 6.38669 13.5724 0
      vertex 6.38669 13.5724 3
      vertex 8.0374 12.6649 0
    endloop
  endfacet
  facet normal 0.481754 0.876307 0
    outer loop
      vertex 8.0374 12.6649 0
      vertex 6.38669 13.5724 3
      vertex 8.0374 12.6649 3
    endloop
  endfacet
  facet normal 0.368125 0.929776 0
    outer loop
      vertex 4.63525 14.2658 0
      vertex 4.63525 14.2658 3
      vertex 6.38669 13.5724 0
    endloop
  endfacet
  facet normal 0.368125 0.929776 0
    outer loop
      vertex 6.38669 13.5724 0
      vertex 4.63525 14.2658 3
      vertex 6.38669 13.5724 3
    endloop
  endfacet
  facet normal 0.24869 0.968583 0
    outer loop
      vertex 2.81072 14.7343 0
      vertex 2.81072 14.7343 3
      vertex 4.63525 14.2658 0
    endloop
  endfacet
  facet normal 0.24869 0.968583 0
    outer loop
      vertex 4.63525 14.2658 0
      vertex 2.81072 14.7343 3
      vertex 4.63525 14.2658 3
    endloop
  endfacet
  facet normal 0.125333 0.992115 0
    outer loop
      vertex 0.941858 14.9704 0
      vertex 0.941858 14.9704 3
      vertex 2.81072 14.7343 0
    endloop
  endfacet
  facet normal 0.125333 0.992115 0
    outer loop
      vertex 2.81072 14.7343 0
      vertex 0.941858 14.9704 3
      vertex 2.81072 14.7343 3
    endloop
  endfacet
  facet normal 0 1 0
    outer loop
      vertex -0.941858 14.9704 0
      vertex -0.941858 14.9704 3
      vertex 0.941858 14.9704 0
    endloop
  endfacet
  facet normal 0 1 0
    outer loop
      vertex 0.941858 14.9704 0
      vertex -0.941858 14.9704 3
      vertex 0.941858 14.9704 3
    endloop
  endfacet
  facet normal -0.125333 0.992115 0
    outer loop
      vertex -2.81072 14.7343 0
      vertex -2.81072 14.7343 3
      vertex -0.941858 14.9704 0
    endloop
  endfacet
  facet normal -0.125333 0.992115 0
    outer loop
      vertex -0.941858 14.9704 0
      vertex -2.81072 14.7343 3
      vertex -0.941858 14.9704 3
    endloop
  endfacet
  facet normal -0.24869 0.968583 0
    outer loop
      vertex -4.63525 14.2658 0
      vertex -4.63525 14.2658 3
      vertex -2.81072 14.7343 0
    endloop
  endfacet
  facet normal -0.24869 0.968583 0
    outer loop
      vertex -2.81072 14.7343 0
      vertex -4.63525 14.2658 3
      vertex -2.81072 14.7343 3
    endloop
  endfacet
  facet normal -0.368125 0.929776 0
    outer loop
      vertex -6.38669 13.5724 0
      vertex -6.38669 13.5724 3
      vertex -4.63525 14.2658 0
    endloop
  endfacet
  facet normal -0.368125 0.929776 0
    outer loop
      vertex -4.63525 14.2658 0
      vertex -6.38669 13.5724 3
      vertex -4.63525 14.2658 3
    endloop
  endfacet
  facet normal -0.481754 0.876307 0
    outer loop
      vertex -8.0374 12.6649 0
      vertex -8.0374 12.6649 3
      vertex -6.38669 13.5724 0
    endloop
  endfacet
  facet normal -0.481754 0.876307 0
    outer loop
      vertex -6.38669 13.5724 0
      vertex -8.0374 12.6649 3
      vertex -6.38669 13.5724 3
    endloop
  endfacet
  facet normal -0.587785 0.809017 0
    outer loop
      vertex -9.56136 11.5577 0
      vertex -9.56136 11.5577 3
      vertex -8.0374 12.6649 0
    endloop
  endfacet
  facet normal -0.587785 0.809017 0
    outer loop
      vertex -8.0374 12.6649 0
      vertex -9.56136 11.5577 3
      vertex -8.0374 12.6649 3
    endloop
  endfacet
  facet normal -0.684547 0.728969 0
    outer loop
      vertex -10.9345 10.2682 0
      vertex -10.9345 10.2682 3
      vertex -9.56136 11.5577 0
    endloop
  endfacet
  facet normal -0.684547 0.728969 0
    outer loop
      vertex -9.56136 11.5577 0
      vertex -10.9345 10.2682 3
      vertex -9.56136 11.5577 3
    endloop
  endfacet
  facet normal -0.770513 0.637424 0
    outer loop
      vertex -12.1353 8.81678 0
      vertex -12.1353 8.81678 3
      vertex -10.9345 10.2682 0
    endloop
  endfacet
  facet normal -0.770513 0.637424 0
    outer loop
      vertex -10.9345 10.2682 0
      vertex -12.1353 8.81678 3
      vertex -10.9345 10.2682 3
    endloop
  endfacet
  facet normal -0.844328 0.535827 0
    outer loop
      vertex -13.1446 7.2263 0
      vertex -13.1446 7.2263 3
      vertex -12.1353 8.81678 0
    endloop
  endfacet
  facet normal -0.844328 0.535827 0
    outer loop
      vertex -12.1353 8.81678 0
      vertex -13.1446 7.2263 3
      vertex -12.1353 8.81678 3
    endloop
  endfacet
  facet normal -0.904827 0.425779 0
    outer loop
      vertex -13.9466 5.52187 0
      vertex -13.9466 5.52187 3
      vertex -13.1446 7.2263 0
    endloop
  endfacet
  facet normal -0.904827 0.425779 0
    outer loop
      vertex -13.1446 7.2263 0
      vertex -13.9466 5.52187 3
      vertex -13.1446 7.2263 3
    endloop
  endfacet
  facet normal -0.951057 0.309017 0
    outer loop
      vertex -14.5287 3.73035 0
      vertex -14.5287 3.73035 3
      vertex -13.9466 5.52187 0
    endloop
  endfacet
  facet normal -0.951057 0.309017 0
    outer loop
      vertex -13.9466 5.52187 0
      vertex -14.5287 3.73035 3
      vertex -13.9466 5.52187 3
    endloop
  endfacet
  facet normal -0.982287 0.187382 0
    outer loop
      vertex -14.8817 1.88 0
      vertex -14.8817 1.88 3
      vertex -14.5287 3.73035 0
    endloop
  endfacet
  facet normal -0.982287 0.187382 0
    outer loop
      vertex -14.5287 3.73035 0
      vertex -14.8817 1.88 3
      vertex -14.5287 3.73035 3
    endloop
  endfacet
  facet normal 0 0 1
    outer loop
      vertex -14.8817 1.88 3
      vertex -15 0 3
      vertex -14.8817 -1.88 3
    endloop
  endfacet
  facet normal 0 0 1
    outer loop
      vertex -13.9466 -5.52187 3
      vertex -14.8817 1.88 3
      vertex -14.5287 -3.73035 3
    endloop
  endfacet
  facet normal 0 0 1
    outer loop
      vertex -14.5287 -3.73035 3
      vertex -14.8817 1.88 3
      vertex -14.8817 -1.88 3
    endloop
  endfacet
  facet normal 0 0 1
    outer loop
      vertex -13.1446 -7.2263 3
      vertex -14.8817 1.88 3
      vertex -13.9466 -5.52187 3
    endloop
  endfacet
  facet normal 0 0 1
    outer loop
      vertex -12.1353 -8.81678 3
      vertex -14.8817 1.88 3
      vertex -13.1446 -7.2263 3
    endloop
  endfacet
  facet normal 0 0 1
    outer loop
      vertex -10.9345 -10.2682 3
      vertex -14.8817 1.88 3
      vertex -12.1353 -8.81678 3
    endloop
  endfacet
  facet normal 0 0 1
    outer loop
      vertex -9.56136 -11.5577 3
      vertex -14.8817 1.88 3
      vertex -10.9345 -10.2682 3
    endloop
  endfacet
  facet normal 0 0 1
    outer loop
      vertex -8.0374 -12.6649 3
      vertex -14.8817 1.88 3
      vertex -9.56136 -11.5577 3
    endloop
  endfacet
  facet normal 0 0 1
    outer loop
      vertex -6.38669 -13.5724 3
      vertex -14.8817 1.88 3
      vertex -8.0374 -12.6649 3
    endloop
  endfacet
  facet normal 0 0 1
    outer loop
      vertex -4.63525 -14.2658 3
      vertex -14.8817 1.88 3
      vertex -6.38669 -13.5724 3
    endloop
  endfacet
  facet normal 0 0 1
    outer loop
      vertex -2.81072 -14.7343 3
      vertex -14.8817 1.88 3
      vertex -4.63525 -14.2658 3
    endloop
  endfacet
  facet normal 0 0 1
    outer loop
      vertex -0.941858 -14.9704 3
      vertex -14.8817 1.88 3
      vertex -2.81072 -14.7343 3
    endloop
  endfacet
  facet normal 0 0 1
    outer loop
      vertex 0.941858 -14.9704 3
      vertex -14.8817 1.88 3
      vertex -0.941858 -14.9704 3
    endloop
  endfacet
  facet normal 0 0 1
    outer loop
      vertex 2.81072 -14.7343 3
      vertex -14.8817 1.88 3
      vertex 0.941858 -14.9704 3
    endloop
  endfacet
  facet normal 0 0 1
    outer loop
      vertex 4.63525 -14.2658 3
      vertex -14.8817 1.88 3
      vertex 2.81072 -14.7343 3
    endloop
  endfacet
  facet normal 0 0 1
    outer loop
      vertex 6.38669 -13.5724 3
      vertex -14.8817 1.88 3
      vertex 4.63525 -14.2658 3
    endloop
  endfacet
  facet normal 0 0 1
    outer loop
      vertex 8.0374 -12.6649 3
      vertex -14.8817 1.88 3
      vertex 6.38669 -13.5724 3
    endloop
  endfacet
  facet normal 0 0 1
    outer loop
      vertex 9.56136 -11.5577 3
      vertex -14.8817 1.88 3
      vertex 8.0374 -12.6649 3
    endloop
  endfacet
  facet normal 0 0 1
    outer loop
      vertex -3.16383 -4.18959 3
      vertex -14.8817 1.88 3
      vertex 9.56136 -11.5577 3
    endloop
  endfacet
  facet normal 0 0 1
    outer loop
      vertex -3.16383 -4.18959 3
      vertex -4.46364 -2.76377 3
      vertex -14.8817 1.88 3
    endloop
  endfacet
  facet normal 0 0 1
    outer loop
      vertex 5.25 0 3
      vertex 14.5287 -3.73035 3
      vertex 14.8817 -1.88 3
    endloop
  endfacet
  facet normal 0 0 1
    outer loop
      vertex 4.89548 1.89652 3
      vertex 15 0 3
      vertex 14.8817 1.88 3
    endloop
  endfacet
  facet normal 0 0 1
    outer loop
      vertex -4.46364 2.76377 3
      vertex -3.16383 4.18959 3
      vertex -14.8817 1.88 3
    endloop
  endfacet
  facet normal 0 0 1
    outer loop
      vertex 3.8798 3.5369 3
      vertex 4.89548 1.89652 3
      vertex 14.5287 3.73035 3
    endloop
  endfacet
  facet normal 0 0 1
    outer loop
      vertex 2.34013 4.69961 3
      vertex 3.8798 3.5369 3
      vertex 13.9466 5.52187 3
    endloop
  endfacet
  facet normal 0 0 1
    outer loop
      vertex 10.9345 10.2682 3
      vertex -14.8817 1.88 3
      vertex 12.1353 8.81678 3
    endloop
  endfacet
  facet normal 0 0 1
    outer loop
      vertex 9.56136 11.5577 3
      vertex -14.8817 1.88 3
      vertex 10.9345 10.2682 3
    endloop
  endfacet
  facet normal 0 0 1
    outer loop
      vertex 8.0374 12.6649 3
      vertex -14.8817 1.88 3
      vertex 9.56136 11.5577 3
    endloop
  endfacet
  facet normal 0 0 1
    outer loop
      vertex 6.38669 13.5724 3
      vertex -14.8817 1.88 3
      vertex 8.0374 12.6649 3
    endloop
  endfacet
  facet normal 0 0 1
    outer loop
      vertex 4.63525 14.2658 3
      vertex -14.8817 1.88 3
      vertex 6.38669 13.5724 3
    endloop
  endfacet
  facet normal 0 0 1
    outer loop
      vertex 2.81072 14.7343 3
      vertex -14.8817 1.88 3
      vertex 4.63525 14.2658 3
    endloop
  endfacet
  facet normal 0 0 1
    outer loop
      vertex 0.941858 14.9704 3
      vertex -14.8817 1.88 3
      vertex 2.81072 14.7343 3
    endloop
  endfacet
  facet normal 0 0 1
    outer loop
      vertex -0.941858 14.9704 3
      vertex -14.8817 1.88 3
      vertex 0.941858 14.9704 3
    endloop
  endfacet
  facet normal 0 0 1
    outer loop
      vertex -2.81072 14.7343 3
      vertex -14.8817 1.88 3
      vertex -0.941858 14.9704 3
    endloop
  endfacet
  facet normal 0 0 1
    outer loop
      vertex -4.63525 14.2658 3
      vertex -14.8817 1.88 3
      vertex -2.81072 14.7343 3
    endloop
  endfacet
  facet normal 0 0 1
    outer loop
      vertex -6.38669 13.5724 3
      vertex -14.8817 1.88 3
      vertex -4.63525 14.2658 3
    endloop
  endfacet
  facet normal 0 0 1
    outer loop
      vertex -8.0374 12.6649 3
      vertex -14.8817 1.88 3
      vertex -6.38669 13.5724 3
    endloop
  endfacet
  facet normal 0 0 1
    outer loop
      vertex -9.56136 11.5577 3
      vertex -14.8817 1.88 3
      vertex -8.0374 12.6649 3
    endloop
  endfacet
  facet normal 0 0 1
    outer loop
      vertex -10.9345 10.2682 3
      vertex -14.8817 1.88 3
      vertex -9.56136 11.5577 3
    endloop
  endfacet
  facet normal 0 0 1
    outer loop
      vertex -12.1353 8.81678 3
      vertex -14.8817 1.88 3
      vertex -10.9345 10.2682 3
    endloop
  endfacet
  facet normal 0 0 1
    outer loop
      vertex -13.1446 7.2263 3
      vertex -14.8817 1.88 3
      vertex -12.1353 8.81678 3
    endloop
  endfacet
  facet normal 0 0 1
    outer loop
      vertex -13.9466 5.52187 3
      vertex -14.8817 1.88 3
      vertex -13.1446 7.2263 3
    endloop
  endfacet
  facet normal 0 0 1
    outer loop
      vertex -14.5287 3.73035 3
      vertex -14.8817 1.88 3
      vertex -13.9466 5.52187 3
    endloop
  endfacet
  facet normal 0 0 1
    outer loop
      vertex 2.34013 -4.69961 3
      vertex 0.484409 -5.2276 3
      vertex 12.1353 -8.81678 3
    endloop
  endfacet
  facet normal 0 0 1
    outer loop
      vertex -5.16061 0.964685 3
      vertex -4.46364 2.76377 3
      vertex -14.8817 1.88 3
    endloop
  endfacet
  facet normal 0 0 1
    outer loop
      vertex 4.89548 -1.89652 3
      vertex 3.8798 -3.5369 3
      vertex 13.9466 -5.52187 3
    endloop
  endfacet
  facet normal 0 0 1
    outer loop
      vertex -1.43673 5.04958 3
      vertex -14.8817 1.88 3
      vertex -3.16383 4.18959 3
    endloop
  endfacet
  facet normal 0 0 1
    outer loop
      vertex 0.484409 5.2276 3
      vertex 2.34013 4.69961 3
      vertex 13.1446 7.2263 3
    endloop
  endfacet
  facet normal 0 0 1
    outer loop
      vertex 12.1353 8.81678 3
      vertex -14.8817 1.88 3
      vertex -1.43673 5.04958 3
    endloop
  endfacet
  facet normal 0 0 1
    outer loop
      vertex 12.1353 8.81678 3
      vertex 0.484409 5.2276 3
      vertex 13.1446 7.2263 3
    endloop
  endfacet
  facet normal 0 0 1
    outer loop
      vertex 13.1446 7.2263 3
      vertex 2.34013 4.69961 3
      vertex 13.9466 5.52187 3
    endloop
  endfacet
  facet normal 0 0 1
    outer loop
      vertex -1.43673 5.04958 3
      vertex 0.484409 5.2276 3
      vertex 12.1353 8.81678 3
    endloop
  endfacet
  facet normal 0 0 1
    outer loop
      vertex 13.9466 5.52187 3
      vertex 3.8798 3.5369 3
      vertex 14.5287 3.73035 3
    endloop
  endfacet
  facet normal 0 0 1
    outer loop
      vertex 14.5287 3.73035 3
      vertex 4.89548 1.89652 3
      vertex 14.8817 1.88 3
    endloop
  endfacet
  facet normal 0 0 1
    outer loop
      vertex 4.89548 1.89652 3
      vertex 5.25 0 3
      vertex 15 0 3
    endloop
  endfacet
  facet normal 0 0 1
    outer loop
      vertex 15 0 3
      vertex 5.25 0 3
      vertex 14.8817 -1.88 3
    endloop
  endfacet
  facet normal 0 0 1
    outer loop
      vertex 14.5287 -3.73035 3
      vertex 4.89548 -1.89652 3
      vertex 13.9466 -5.52187 3
    endloop
  endfacet
  facet normal 0 0 1
    outer loop
      vertex 5.25 0 3
      vertex 4.89548 -1.89652 3
      vertex 14.5287 -3.73035 3
    endloop
  endfacet
  facet normal 0 0 1
    outer loop
      vertex 13.9466 -5.52187 3
      vertex 3.8798 -3.5369 3
      vertex 13.1446 -7.2263 3
    endloop
  endfacet
  facet normal 0 0 1
    outer loop
      vertex 13.1446 -7.2263 3
      vertex 2.34013 -4.69961 3
      vertex 12.1353 -8.81678 3
    endloop
  endfacet
  facet normal 0 0 1
    outer loop
      vertex 12.1353 -8.81678 3
      vertex 0.484409 -5.2276 3
      vertex 10.9345 -10.2682 3
    endloop
  endfacet
  facet normal 0 0 1
    outer loop
      vertex 10.9345 -10.2682 3
      vertex -1.43673 -5.04958 3
      vertex 9.56136 -11.5577 3
    endloop
  endfacet
  facet normal 0 0 1
    outer loop
      vertex -1.43673 -5.04958 3
      vertex -3.16383 -4.18959 3
      vertex 9.56136 -11.5577 3
    endloop
  endfacet
  facet normal 0 0 1
    outer loop
      vertex 3.8798 -3.5369 3
      vertex 2.34013 -4.69961 3
      vertex 13.1446 -7.2263 3
    endloop
  endfacet
  facet normal 0 0 1
    outer loop
      vertex 0.484409 -5.2276 3
      vertex -1.43673 -5.04958 3
      vertex 10.9345 -10.2682 3
    endloop
  endfacet
  facet normal 0 0 1
    outer loop
      vertex -4.46364 -2.76377 3
      vertex -5.16061 -0.964685 3
      vertex -14.8817 1.88 3
    endloop
  endfacet
  facet normal 0 0 1
    outer loop
      vertex -5.16061 -0.964685 3
      vertex -5.16061 0.964685 3
      vertex -14.8817 1.88 3
    endloop
  endfacet
  facet normal -1 0 0
    outer loop
      vertex -5.16061 -0.964685 3
      vertex -5.16061 -0.964685 24
      vertex -5.16061 0.964685 3
    endloop
  endfacet
  facet normal -1 0 0
    outer loop
      vertex -5.16061 0.964685 3
      vertex -5.16061 -0.964685 24
      vertex -5.16061 0.964685 24
    endloop
  endfacet
  facet normal -0.932472 -0.361242 0
    outer loop
      vertex -5.16061 -0.964685 3
      vertex -4.46364 -2.76377 3
      vertex -5.16061 -0.964685 24
    endloop
  endfacet
  facet normal -0.932472 -0.361242 0
    outer loop
      vertex -5.16061 -0.964685 24
      vertex -4.46364 -2.76377 3
      vertex -4.46364 -2.76377 24
    endloop
  endfacet
  facet normal -0.739009 -0.673696 0
    outer loop
      vertex -4.46364 -2.76377 3
      vertex -3.16383 -4.18959 3
      vertex -4.46364 -2.76377 24
    endloop
  endfacet
  facet normal -0.739009 -0.673696 0
    outer loop
      vertex -4.46364 -2.76377 24
      vertex -3.16383 -4.18959 3
      vertex -3.16383 -4.18959 24
    endloop
  endfacet
  facet normal -0.445739 -0.895163 0
    outer loop
      vertex -3.16383 -4.18959 24
      vertex -3.16383 -4.18959 3
      vertex -1.43673 -5.04958 3
    endloop
  endfacet
  facet normal -0.445739 -0.895163 0
    outer loop
      vertex -1.43673 -5.04958 24
      vertex -3.16383 -4.18959 24
      vertex -1.43673 -5.04958 3
    endloop
  endfacet
  facet normal -0.0922679 -0.995734 0
    outer loop
      vertex -1.43673 -5.04958 24
      vertex -1.43673 -5.04958 3
      vertex 0.484409 -5.2276 3
    endloop
  endfacet
  facet normal -0.0922679 -0.995734 0
    outer loop
      vertex 0.484409 -5.2276 24
      vertex -1.43673 -5.04958 24
      vertex 0.484409 -5.2276 3
    endloop
  endfacet
  facet normal 0.273663 -0.961826 0
    outer loop
      vertex 0.484409 -5.2276 24
      vertex 0.484409 -5.2276 3
      vertex 2.34013 -4.69961 3
    endloop
  endfacet
  facet normal 0.273663 -0.961826 0
    outer loop
      vertex 2.34013 -4.69961 24
      vertex 0.484409 -5.2276 24
      vertex 2.34013 -4.69961 3
    endloop
  endfacet
  facet normal 0.602634 -0.798017 0
    outer loop
      vertex 2.34013 -4.69961 24
      vertex 2.34013 -4.69961 3
      vertex 3.8798 -3.5369 3
    endloop
  endfacet
  facet normal 0.602634 -0.798017 0
    outer loop
      vertex 3.8798 -3.5369 24
      vertex 2.34013 -4.69961 24
      vertex 3.8798 -3.5369 3
    endloop
  endfacet
  facet normal 0.850217 -0.526432 0
    outer loop
      vertex 3.8798 -3.5369 24
      vertex 3.8798 -3.5369 3
      vertex 4.89548 -1.89652 3
    endloop
  endfacet
  facet normal 0.850217 -0.526432 0
    outer loop
      vertex 4.89548 -1.89652 24
      vertex 3.8798 -3.5369 24
      vertex 4.89548 -1.89652 3
    endloop
  endfacet
  facet normal 0.982973 -0.18375 0
    outer loop
      vertex 4.89548 -1.89652 24
      vertex 4.89548 -1.89652 3
      vertex 5.25 0 3
    endloop
  endfacet
  facet normal 0.982973 -0.18375 0
    outer loop
      vertex 5.25 0 24
      vertex 4.89548 -1.89652 24
      vertex 5.25 0 3
    endloop
  endfacet
  facet normal 0.982973 0.18375 0
    outer loop
      vertex 5.25 0 3
      vertex 4.89548 1.89652 3
      vertex 4.89548 1.89652 24
    endloop
  endfacet
  facet normal 0.982973 0.18375 0
    outer loop
      vertex 5.25 0 24
      vertex 5.25 0 3
      vertex 4.89548 1.89652 24
    endloop
  endfacet
  facet normal 0.850217 0.526432 0
    outer loop
      vertex 4.89548 1.89652 3
      vertex 3.8798 3.5369 3
      vertex 3.8798 3.5369 24
    endloop
  endfacet
  facet normal 0.850217 0.526432 0
    outer loop
      vertex 4.89548 1.89652 24
      vertex 4.89548 1.89652 3
      vertex 3.8798 3.5369 24
    endloop
  endfacet
  facet normal 0.602634 0.798017 0
    outer loop
      vertex 2.34013 4.69961 3
      vertex 2.34013 4.69961 24
      vertex 3.8798 3.5369 3
    endloop
  endfacet
  facet normal 0.602634 0.798017 0
    outer loop
      vertex 3.8798 3.5369 3
      vertex 2.34013 4.69961 24
      vertex 3.8798 3.5369 24
    endloop
  endfacet
  facet normal 0.273663 0.961826 0
    outer loop
      vertex 0.484409 5.2276 3
      vertex 0.484409 5.2276 24
      vertex 2.34013 4.69961 3
    endloop
  endfacet
  facet normal 0.273663 0.961826 0
    outer loop
      vertex 2.34013 4.69961 3
      vertex 0.484409 5.2276 24
      vertex 2.34013 4.69961 24
    endloop
  endfacet
  facet normal -0.0922679 0.995734 0
    outer loop
      vertex -1.43673 5.04958 3
      vertex -1.43673 5.04958 24
      vertex 0.484409 5.2276 3
    endloop
  endfacet
  facet normal -0.0922679 0.995734 0
    outer loop
      vertex 0.484409 5.2276 3
      vertex -1.43673 5.04958 24
      vertex 0.484409 5.2276 24
    endloop
  endfacet
  facet normal -0.445739 0.895163 0
    outer loop
      vertex -3.16383 4.18959 3
      vertex -3.16383 4.18959 24
      vertex -1.43673 5.04958 3
    endloop
  endfacet
  facet normal -0.445739 0.895163 0
    outer loop
      vertex -1.43673 5.04958 3
      vertex -3.16383 4.18959 24
      vertex -1.43673 5.04958 24
    endloop
  endfacet
  facet normal -0.739009 0.673696 0
    outer loop
      vertex -4.46364 2.76377 3
      vertex -4.46364 2.76377 24
      vertex -3.16383 4.18959 3
    endloop
  endfacet
  facet normal -0.739009 0.673696 0
    outer loop
      vertex -3.16383 4.18959 3
      vertex -4.46364 2.76377 24
      vertex -3.16383 4.18959 24
    endloop
  endfacet
  facet normal -0.932472 0.361242 0
    outer loop
      vertex -5.16061 0.964685 3
      vertex -5.16061 0.964685 24
      vertex -4.46364 2.76377 3
    endloop
  endfacet
  facet normal -0.932472 0.361242 0
    outer loop
      vertex -4.46364 2.76377 3
      vertex -5.16061 0.964685 24
      vertex -4.46364 2.76377 24
    endloop
  endfacet
  facet normal 0 0 1
    outer loop
      vertex -5.16061 0.964685 24
      vertex -5.16061 -0.964685 24
      vertex -4.46364 -2.76377 24
    endloop
  endfacet
  facet normal 0 0 1
    outer loop
      vertex -1.43673 -5.04958 24
      vertex -5.16061 0.964685 24
      vertex -3.16383 -4.18959 24
    endloop
  endfacet
  facet normal 0 0 1
    outer loop
      vertex -3.16383 -4.18959 24
      vertex -5.16061 0.964685 24
      vertex -4.46364 -2.76377 24
    endloop
  endfacet
  facet normal 0 0 1
    outer loop
      vertex 0.484409 -5.2276 24
      vertex -5.16061 0.964685 24
      vertex -1.43673 -5.04958 24
    endloop
  endfacet
  facet normal 0 0 1
    outer loop
      vertex 2.34013 -4.69961 24
      vertex -5.16061 0.964685 24
      vertex 0.484409 -5.2276 24
    endloop
  endfacet
  facet normal 0 0 1
    outer loop
      vertex -1.075 -1.86196 24
      vertex -5.16061 0.964685 24
      vertex 2.34013 -4.69961 24
    endloop
  endfacet
  facet normal 0 0 1
    outer loop
      vertex 1.43863 -1.59776 24
      vertex 0.664387 -2.04477 24
      vertex 3.8798 -3.5369 24
    endloop
  endfacet
  facet normal 0 0 1
    outer loop
      vertex 0.664387 2.04477 24
      vertex 1.43863 1.59776 24
      vertex 4.89548 1.89652 24
    endloop
  endfacet
  facet normal 0 0 1
    outer loop
      vertex 2.34013 4.69961 24
      vertex -5.16061 0.964685 24
      vertex 3.8798 3.5369 24
    endloop
  endfacet
  facet normal 0 0 1
    outer loop
      vertex 0.484409 5.2276 24
      vertex -5.16061 0.964685 24
      vertex 2.34013 4.69961 24
    endloop
  endfacet
  facet normal 0 0 1
    outer loop
      vertex -1.43673 5.04958 24
      vertex -5.16061 0.964685 24
      vertex 0.484409 5.2276 24
    endloop
  endfacet
  facet normal 0 0 1
    outer loop
      vertex -3.16383 4.18959 24
      vertex -5.16061 0.964685 24
      vertex -1.43673 5.04958 24
    endloop
  endfacet
  facet normal 0 0 1
    outer loop
      vertex -4.46364 2.76377 24
      vertex -5.16061 0.964685 24
      vertex -3.16383 4.18959 24
    endloop
  endfacet
  facet normal 0 0 1
    outer loop
      vertex -2.10302 0.44701 24
      vertex -1.73939 1.26374 24
      vertex -5.16061 0.964685 24
    endloop
  endfacet
  facet normal 0 0 1
    outer loop
      vertex 1.96412 -0.874484 24
      vertex 1.43863 -1.59776 24
      vertex 4.89548 -1.89652 24
    endloop
  endfacet
  facet normal 0 0 1
    outer loop
      vertex 1.96412 0.874484 24
      vertex 2.15 0 24
      vertex 5.25 0 24
    endloop
  endfacet
  facet normal 0 0 1
    outer loop
      vertex 1.43863 1.59776 24
      vertex 1.96412 0.874484 24
      vertex 4.89548 1.89652 24
    endloop
  endfacet
  facet normal 0 0 1
    outer loop
      vertex 3.8798 3.5369 24
      vertex -5.16061 0.964685 24
      vertex -1.075 1.86196 24
    endloop
  endfacet
  facet normal 0 0 1
    outer loop
      vertex 3.8798 3.5369 24
      vertex -0.224736 2.13822 24
      vertex 4.89548 1.89652 24
    endloop
  endfacet
  facet normal 0 0 1
    outer loop
      vertex 3.8798 3.5369 24
      vertex -1.075 1.86196 24
      vertex -0.224736 2.13822 24
    endloop
  endfacet
  facet normal 0 0 1
    outer loop
      vertex -0.224736 2.13822 24
      vertex 0.664387 2.04477 24
      vertex 4.89548 1.89652 24
    endloop
  endfacet
  facet normal 0 0 1
    outer loop
      vertex 4.89548 1.89652 24
      vertex 1.96412 0.874484 24
      vertex 5.25 0 24
    endloop
  endfacet
  facet normal 0 0 1
    outer loop
      vertex 5.25 0 24
      vertex 2.15 0 24
      vertex 4.89548 -1.89652 24
    endloop
  endfacet
  facet normal 0 0 1
    outer loop
      vertex 2.15 0 24
      vertex 1.96412 -0.874484 24
      vertex 4.89548 -1.89652 24
    endloop
  endfacet
  facet normal 0 0 1
    outer loop
      vertex 4.89548 -1.89652 24
      vertex 1.43863 -1.59776 24
      vertex 3.8798 -3.5369 24
    endloop
  endfacet
  facet normal 0 0 1
    outer loop
      vertex 3.8798 -3.5369 24
      vertex 0.664387 -2.04477 24
      vertex 2.34013 -4.69961 24
    endloop
  endfacet
  facet normal 0 0 1
    outer loop
      vertex -2.10302 -0.44701 24
      vertex -2.10302 0.44701 24
      vertex -5.16061 0.964685 24
    endloop
  endfacet
  facet normal 0 0 1
    outer loop
      vertex 0.664387 -2.04477 24
      vertex -0.224736 -2.13822 24
      vertex 2.34013 -4.69961 24
    endloop
  endfacet
  facet normal 0 0 1
    outer loop
      vertex -1.73939 1.26374 24
      vertex -1.075 1.86196 24
      vertex -5.16061 0.964685 24
    endloop
  endfacet
  facet normal 0 0 1
    outer loop
      vertex -0.224736 -2.13822 24
      vertex -1.075 -1.86196 24
      vertex 2.34013 -4.69961 24
    endloop
  endfacet
  facet normal 0 0 1
    outer loop
      vertex -1.73939 -1.26374 24
      vertex -5.16061 0.964685 24
      vertex -1.075 -1.86196 24
    endloop
  endfacet
  facet normal 0 0 1
    outer loop
      vertex -1.73939 -1.26374 24
      vertex -2.10302 -0.44701 24
      vertex -5.16061 0.964685 24
    endloop
  endfacet
  facet normal 0.913546 0.406736 0
    outer loop
      vertex -2.10302 -0.44701 24
      vertex -1.73939 -1.26374 24
      vertex -1.73939 -1.26374 21
    endloop
  endfacet
  facet normal 0.913546 0.406736 0
    outer loop
      vertex -2.10302 -0.44701 21
      vertex -2.10302 -0.44701 24
      vertex -1.73939 -1.26374 21
    endloop
  endfacet
  facet normal 1 0 0
    outer loop
      vertex -2.10302 0.44701 21
      vertex -2.10302 0.44701 24
      vertex -2.10302 -0.44701 24
    endloop
  endfacet
  facet normal 1 0 0
    outer loop
      vertex -2.10302 -0.44701 21
      vertex -2.10302 0.44701 21
      vertex -2.10302 -0.44701 24
    endloop
  endfacet
  facet normal 0.669131 0.743145 0
    outer loop
      vertex -1.075 -1.86196 24
      vertex -1.075 -1.86196 21
      vertex -1.73939 -1.26374 24
    endloop
  endfacet
  facet normal 0.669131 0.743145 0
    outer loop
      vertex -1.73939 -1.26374 24
      vertex -1.075 -1.86196 21
      vertex -1.73939 -1.26374 21
    endloop
  endfacet
  facet normal 0.309016 0.951057 0
    outer loop
      vertex -0.224736 -2.13822 24
      vertex -0.224736 -2.13822 21
      vertex -1.075 -1.86196 24
    endloop
  endfacet
  facet normal 0.309016 0.951057 0
    outer loop
      vertex -1.075 -1.86196 24
      vertex -0.224736 -2.13822 21
      vertex -1.075 -1.86196 21
    endloop
  endfacet
  facet normal -0.104528 0.994522 0
    outer loop
      vertex 0.664387 -2.04477 24
      vertex 0.664387 -2.04477 21
      vertex -0.224736 -2.13822 24
    endloop
  endfacet
  facet normal -0.104528 0.994522 0
    outer loop
      vertex -0.224736 -2.13822 24
      vertex 0.664387 -2.04477 21
      vertex -0.224736 -2.13822 21
    endloop
  endfacet
  facet normal -0.500001 0.866025 0
    outer loop
      vertex 1.43863 -1.59776 24
      vertex 1.43863 -1.59776 21
      vertex 0.664387 -2.04477 24
    endloop
  endfacet
  facet normal -0.500001 0.866025 0
    outer loop
      vertex 0.664387 -2.04477 24
      vertex 1.43863 -1.59776 21
      vertex 0.664387 -2.04477 21
    endloop
  endfacet
  facet normal -0.809017 0.587786 0
    outer loop
      vertex 1.96412 -0.874484 24
      vertex 1.96412 -0.874484 21
      vertex 1.43863 -1.59776 24
    endloop
  endfacet
  facet normal -0.809017 0.587786 0
    outer loop
      vertex 1.43863 -1.59776 24
      vertex 1.96412 -0.874484 21
      vertex 1.43863 -1.59776 21
    endloop
  endfacet
  facet normal -0.978148 0.207911 0
    outer loop
      vertex 2.15 0 24
      vertex 2.15 0 21
      vertex 1.96412 -0.874484 24
    endloop
  endfacet
  facet normal -0.978148 0.207911 0
    outer loop
      vertex 1.96412 -0.874484 24
      vertex 2.15 0 21
      vertex 1.96412 -0.874484 21
    endloop
  endfacet
  facet normal -0.978148 -0.207911 0
    outer loop
      vertex 2.15 0 24
      vertex 1.96412 0.874484 24
      vertex 2.15 0 21
    endloop
  endfacet
  facet normal -0.978148 -0.207911 0
    outer loop
      vertex 2.15 0 21
      vertex 1.96412 0.874484 24
      vertex 1.96412 0.874484 21
    endloop
  endfacet
  facet normal -0.809017 -0.587786 0
    outer loop
      vertex 1.96412 0.874484 24
      vertex 1.43863 1.59776 24
      vertex 1.96412 0.874484 21
    endloop
  endfacet
  facet normal -0.809017 -0.587786 0
    outer loop
      vertex 1.96412 0.874484 21
      vertex 1.43863 1.59776 24
      vertex 1.43863 1.59776 21
    endloop
  endfacet
  facet normal -0.500001 -0.866025 0
    outer loop
      vertex 1.43863 1.59776 21
      vertex 1.43863 1.59776 24
      vertex 0.664387 2.04477 24
    endloop
  endfacet
  facet normal -0.500001 -0.866025 0
    outer loop
      vertex 0.664387 2.04477 21
      vertex 1.43863 1.59776 21
      vertex 0.664387 2.04477 24
    endloop
  endfacet
  facet normal -0.104528 -0.994522 0
    outer loop
      vertex 0.664387 2.04477 21
      vertex 0.664387 2.04477 24
      vertex -0.224736 2.13822 24
    endloop
  endfacet
  facet normal -0.104528 -0.994522 0
    outer loop
      vertex -0.224736 2.13822 21
      vertex 0.664387 2.04477 21
      vertex -0.224736 2.13822 24
    endloop
  endfacet
  facet normal 0.309016 -0.951057 0
    outer loop
      vertex -0.224736 2.13822 21
      vertex -0.224736 2.13822 24
      vertex -1.075 1.86196 24
    endloop
  endfacet
  facet normal 0.309016 -0.951057 0
    outer loop
      vertex -1.075 1.86196 21
      vertex -0.224736 2.13822 21
      vertex -1.075 1.86196 24
    endloop
  endfacet
  facet normal 0.669131 -0.743145 0
    outer loop
      vertex -1.075 1.86196 21
      vertex -1.075 1.86196 24
      vertex -1.73939 1.26374 24
    endloop
  endfacet
  facet normal 0.669131 -0.743145 0
    outer loop
      vertex -1.73939 1.26374 21
      vertex -1.075 1.86196 21
      vertex -1.73939 1.26374 24
    endloop
  endfacet
  facet normal 0.913546 -0.406736 0
    outer loop
      vertex -1.73939 1.26374 21
      vertex -1.73939 1.26374 24
      vertex -2.10302 0.44701 24
    endloop
  endfacet
  facet normal 0.913546 -0.406736 0
    outer loop
      vertex -2.10302 0.44701 21
      vertex -1.73939 1.26374 21
      vertex -2.10302 0.44701 24
    endloop
  endfacet
  facet normal 0 0 1
    outer loop
      vertex -1.73939 -1.26374 21
      vertex -1.075 -1.86196 21
      vertex -0.224736 -2.13822 21
    endloop
  endfacet
  facet normal 0 0 1
    outer loop
      vertex 1.43863 -1.59776 21
      vertex -1.73939 -1.26374 21
      vertex 0.664387 -2.04477 21
    endloop
  endfacet
  facet normal 0 0 1
    outer loop
      vertex 0.664387 -2.04477 21
      vertex -1.73939 -1.26374 21
      vertex -0.224736 -2.13822 21
    endloop
  endfacet
  facet normal 0 0 1
    outer loop
      vertex 1.96412 -0.874484 21
      vertex -1.73939 -1.26374 21
      vertex 1.43863 -1.59776 21
    endloop
  endfacet
  facet normal 0 0 1
    outer loop
      vertex 2.15 0 21
      vertex -1.73939 -1.26374 21
      vertex 1.96412 -0.874484 21
    endloop
  endfacet
  facet normal 0 0 1
    outer loop
      vertex 1.96412 0.874484 21
      vertex -1.73939 -1.26374 21
      vertex 2.15 0 21
    endloop
  endfacet
  facet normal 0 0 1
    outer loop
      vertex 1.43863 1.59776 21
      vertex -1.73939 -1.26374 21
      vertex 1.96412 0.874484 21
    endloop
  endfacet
  facet normal 0 0 1
    outer loop
      vertex 0.664387 2.04477 21
      vertex -1.73939 -1.26374 21
      vertex 1.43863 1.59776 21
    endloop
  endfacet
  facet normal 0 0 1
    outer loop
      vertex -0.224736 2.13822 21
      vertex -1.73939 -1.26374 21
      vertex 0.664387 2.04477 21
    endloop
  endfacet
  facet normal 0 0 1
    outer loop
      vertex -1.075 1.86196 21
      vertex -1.73939 -1.26374 21
      vertex -0.224736 2.13822 21
    endloop
  endfacet
  facet normal 0 0 1
    outer loop
      vertex -1.73939 1.26374 21
      vertex -1.73939 -1.26374 21
      vertex -1.075 1.86196 21
    endloop
  endfacet
  facet normal 0 0 1
    outer loop
      vertex -2.10302 0.44701 21
      vertex -1.73939 -1.26374 21
      vertex -1.73939 1.26374 21
    endloop
  endfacet
  facet normal 0 0 1
    outer loop
      vertex -2.10302 -0.44701 21
      vertex -1.73939 -1.26374 21
      vertex -2.10302 0.44701 21
    endloop
  endfacet
endsolid OpenSCAD_Model
