solid OpenSCAD_Model
  facet normal 0 0 -1
    outer loop
      vertex -16 0 0
      vertex -15.8738 2.00533 0
      vertex -15.8738 -2.00533 0
    endloop
  endfacet
  facet normal 0 0 -1
    outer loop
      vertex -15.8738 -2.00533 0
      vertex -15.8738 2.00533 0
      vertex -15.4973 3.97904 0
    endloop
  endfacet
  facet normal 0 0 -1
    outer loop
      vertex -15.8738 -2.00533 0
      vertex -15.4973 3.97904 0
      vertex -14.8764 5.88999 0
    endloop
  endfacet
  facet normal 0 0 -1
    outer loop
      vertex -15.8738 -2.00533 0
      vertex -14.8764 5.88999 0
      vertex -14.0209 7.70806 0
    endloop
  endfacet
  facet normal 0 0 -1
    outer loop
      vertex -15.8738 -2.00533 0
      vertex -14.0209 7.70806 0
      vertex -12.9443 9.40456 0
    endloop
  endfacet
  facet normal 0 0 -1
    outer loop
      vertex -15.8738 -2.00533 0
      vertex -12.9443 9.40456 0
      vertex -11.6635 10.9528 0
    endloop
  endfacet
  facet normal 0 0 -1
    outer loop
      vertex -15.8738 -2.00533 0
      vertex -11.6635 10.9528 0
      vertex -10.1988 12.3282 0
    endloop
  endfacet
  facet normal 0 0 -1
    outer loop
      vertex -15.8738 -2.00533 0
      vertex -10.1988 12.3282 0
      vertex -8.57323 13.5092 0
    endloop
  endfacet
  facet normal 0 0 -1
    outer loop
      vertex -15.8738 -2.00533 0
      vertex -8.57323 13.5092 0
      vertex -6.81247 14.4772 0
    endloop
  endfacet
  facet normal 0 0 -1
    outer loop
      vertex -15.8738 -2.00533 0
      vertex -6.81247 14.4772 0
      vertex -4.94427 15.2169 0
    endloop
  endfacet
  facet normal 0 0 -1
    outer loop
      vertex -15.8738 -2.00533 0
      vertex -4.94427 15.2169 0
      vertex -2.9981 15.7166 0
    endloop
  endfacet
  facet normal 0 0 -1
    outer loop
      vertex -15.8738 -2.00533 0
      vertex -2.9981 15.7166 0
      vertex -1.00465 15.9684 0
    endloop
  endfacet
  facet normal 0 0 -1
    outer loop
      vertex -15.8738 -2.00533 0
      vertex -1.00465 15.9684 0
      vertex 1.00465 15.9684 0
    endloop
  endfacet
  facet normal 0 0 -1
    outer loop
      vertex -15.8738 -2.00533 0
      vertex 1.00465 15.9684 0
      vertex 2.9981 15.7166 0
    endloop
  endfacet
  facet normal 0 0 -1
    outer loop
      vertex -15.8738 -2.00533 0
      vertex 2.9981 15.7166 0
      vertex 4.94427 15.2169 0
    endloop
  endfacet
  facet normal 0 0 -1
    outer loop
      vertex -15.8738 -2.00533 0
      vertex 4.94427 15.2169 0
      vertex 6.81247 14.4772 0
    endloop
  endfacet
  facet normal 0 0 -1
    outer loop
      vertex -15.8738 -2.00533 0
      vertex 6.81247 14.4772 0
      vertex 8.57323 13.5092 0
    endloop
  endfacet
  facet normal 0 0 -1
    outer loop
      vertex -15.8738 -2.00533 0
      vertex 8.57323 13.5092 0
      vertex 10.1988 12.3282 0
    endloop
  endfacet
  facet normal 0 0 -1
    outer loop
      vertex -15.8738 -2.00533 0
      vertex 10.1988 12.3282 0
      vertex 11.6635 10.9528 0
    endloop
  endfacet
  facet normal 0 0 -1
    outer loop
      vertex -15.8738 -2.00533 0
      vertex 11.6635 10.9528 0
      vertex 12.9443 9.40456 0
    endloop
  endfacet
  facet normal 0 0 -1
    outer loop
      vertex -15.8738 -2.00533 0
      vertex 12.9443 9.40456 0
      vertex 14.0209 7.70806 0
    endloop
  endfacet
  facet normal 0 0 -1
    outer loop
      vertex -15.8738 -2.00533 0
      vertex 14.0209 7.70806 0
      vertex 14.8764 5.88999 0
    endloop
  endfacet
  facet normal 0 0 -1
    outer loop
      vertex -15.8738 -2.00533 0
      vertex 14.8764 5.88999 0
      vertex 15.4973 3.97904 0
    endloop
  endfacet
  facet normal 0 0 -1
    outer loop
      vertex -15.8738 -2.00533 0
      vertex 15.4973 3.97904 0
      vertex 15.8738 2.00533 0
    endloop
  endfacet
  facet normal 0 0 -1
    outer loop
      vertex -15.8738 -2.00533 0
      vertex 15.8738 2.00533 0
      vertex 16 0 0
    endloop
  endfacet
  facet normal 0 0 -1
    outer loop
      vertex -15.8738 -2.00533 0
      vertex 16 0 0
      vertex 15.8738 -2.00533 0
    endloop
  endfacet
  facet normal 0 0 -1
    outer loop
      vertex -15.8738 -2.00533 0
      vertex 15.8738 -2.00533 0
      vertex 15.4973 -3.97904 0
    endloop
  endfacet
  facet normal 0 0 -1
    outer loop
      vertex -15.8738 -2.00533 0
      vertex 15.4973 -3.97904 0
      vertex 14.8764 -5.88999 0
    endloop
  endfacet
  facet normal 0 0 -1
    outer loop
      vertex -15.8738 -2.00533 0
      vertex 14.8764 -5.88999 0
      vertex 14.0209 -7.70806 0
    endloop
  endfacet
  facet normal 0 0 -1
    outer loop
      vertex -15.8738 -2.00533 0
      vertex 14.0209 -7.70806 0
      vertex 12.9443 -9.40456 0
    endloop
  endfacet
  facet normal 0 0 -1
    outer loop
      vertex -15.8738 -2.00533 0
      vertex 12.9443 -9.40456 0
      vertex 11.6635 -10.9528 0
    endloop
  endfacet
  facet normal 0 0 -1
    outer loop
      vertex -15.8738 -2.00533 0
      vertex 11.6635 -10.9528 0
      vertex 10.1988 -12.3282 0
    endloop
  endfacet
  facet normal 0 0 -1
    outer loop
      vertex -15.8738 -2.00533 0
      vertex 10.1988 -12.3282 0
      vertex 8.57323 -13.5092 0
    endloop
  endfacet
  facet normal 0 0 -1
    outer loop
      vertex -15.8738 -2.00533 0
      vertex 8.57323 -13.5092 0
      vertex 6.81247 -14.4772 0
    endloop
  endfacet
  facet normal 0 0 -1
    outer loop
      vertex -15.8738 -2.00533 0
      vertex 6.81247 -14.4772 0
      vertex 4.94427 -15.2169 0
    endloop
  endfacet
  facet normal 0 0 -1
    outer loop
      vertex -15.8738 -2.00533 0
      vertex 4.94427 -15.2169 0
      vertex 2.9981 -15.7166 0
    endloop
  endfacet
  facet normal 0 0 -1
    outer loop
      vertex -15.8738 -2.00533 0
      vertex 2.9981 -15.7166 0
      vertex 1.00465 -15.9684 0
    endloop
  endfacet
  facet normal 0 0 -1
    outer loop
      vertex -15.8738 -2.00533 0
      vertex 1.00465 -15.9684 0
      vertex -1.00465 -15.9684 0
    endloop
  endfacet
  facet normal 0 0 -1
    outer loop
      vertex -15.8738 -2.00533 0
      vertex -1.00465 -15.9684 0
      vertex -2.9981 -15.7166 0
    endloop
  endfacet
  facet normal 0 0 -1
    outer loop
      vertex -15.8738 -2.00533 0
      vertex -2.9981 -15.7166 0
      vertex -4.94427 -15.2169 0
    endloop
  endfacet
  facet normal 0 0 -1
    outer loop
      vertex -15.8738 -2.00533 0
      vertex -4.94427 -15.2169 0
      vertex -6.81247 -14.4772 0
    endloop
  endfacet
  facet normal 0 0 -1
    outer loop
      vertex -15.8738 -2.00533 0
      vertex -6.81247 -14.4772 0
      vertex -8.57323 -13.5092 0
    endloop
  endfacet
  facet normal 0 0 -1
    outer loop
      vertex -15.8738 -2.00533 0
      vertex -8.57323 -13.5092 0
      vertex -10.1988 -12.3282 0
    endloop
  endfacet
  facet normal 0 0 -1
    outer loop
      vertex -15.8738 -2.00533 0
      vertex -10.1988 -12.3282 0
      vertex -11.6635 -10.9528 0
    endloop
  endfacet
  facet normal 0 0 -1
    outer loop
      vertex -15.8738 -2.00533 0
      vertex -11.6635 -10.9528 0
      vertex -12.9443 -9.40456 0
    endloop
  endfacet
  facet normal 0 0 -1
    outer loop
      vertex -15.8738 -2.00533 0
      vertex -12.9443 -9.40456 0
      vertex -14.0209 -7.70806 0
    endloop
  endfacet
  facet normal 0 0 -1
    outer loop
      vertex -15.8738 -2.00533 0
      vertex -14.0209 -7.70806 0
      vertex -14.8764 -5.88999 0
    endloop
  endfacet
  facet normal 0 0 -1
    outer loop
      vertex -15.8738 -2.00533 0
      vertex -14.8764 -5.88999 0
      vertex -15.4973 -3.97904 0
    endloop
  endfacet
  facet normal -0.998027 0.0627906 0
    outer loop
      vertex -16 0 0
      vertex -16 0 3
      vertex -15.8738 2.00533 0
    endloop
  endfacet
  facet normal -0.998027 0.0627906 0
    outer loop
      vertex -15.8738 2.00533 0
      vertex -16 0 3
      vertex -15.8738 2.00533 3
    endloop
  endfacet
  facet normal -0.998027 -0.0627906 0
    outer loop
      vertex -16 0 0
      vertex -15.8738 -2.00533 0
      vertex -16 0 3
    endloop
  endfacet
  facet normal -0.998027 -0.0627906 0
    outer loop
      vertex -16 0 3
      vertex -15.8738 -2.00533 0
      vertex -15.8738 -2.00533 3
    endloop
  endfacet
  facet normal -0.982287 -0.187381 0
    outer loop
      vertex -15.8738 -2.00533 0
      vertex -15.4973 -3.97904 0
      vertex -15.8738 -2.00533 3
    endloop
  endfacet
  facet normal -0.982287 -0.187381 0
    outer loop
      vertex -15.8738 -2.00533 3
      vertex -15.4973 -3.97904 0
      vertex -15.4973 -3.97904 3
    endloop
  endfacet
  facet normal -0.951057 -0.309017 0
    outer loop
      vertex -15.4973 -3.97904 0
      vertex -14.8764 -5.88999 0
      vertex -15.4973 -3.97904 3
    endloop
  endfacet
  facet normal -0.951057 -0.309017 0
    outer loop
      vertex -15.4973 -3.97904 3
      vertex -14.8764 -5.88999 0
      vertex -14.8764 -5.88999 3
    endloop
  endfacet
  facet normal -0.904827 -0.425779 0
    outer loop
      vertex -14.8764 -5.88999 0
      vertex -14.0209 -7.70806 0
      vertex -14.8764 -5.88999 3
    endloop
  endfacet
  facet normal -0.904827 -0.425779 0
    outer loop
      vertex -14.8764 -5.88999 3
      vertex -14.0209 -7.70806 0
      vertex -14.0209 -7.70806 3
    endloop
  endfacet
  facet normal -0.844328 -0.535827 0
    outer loop
      vertex -14.0209 -7.70806 0
      vertex -12.9443 -9.40456 0
      vertex -14.0209 -7.70806 3
    endloop
  endfacet
  facet normal -0.844328 -0.535827 0
    outer loop
      vertex -14.0209 -7.70806 3
      vertex -12.9443 -9.40456 0
      vertex -12.9443 -9.40456 3
    endloop
  endfacet
  facet normal -0.770513 -0.637424 0
    outer loop
      vertex -12.9443 -9.40456 0
      vertex -11.6635 -10.9528 0
      vertex -12.9443 -9.40456 3
    endloop
  endfacet
  facet normal -0.770513 -0.637424 0
    outer loop
      vertex -12.9443 -9.40456 3
      vertex -11.6635 -10.9528 0
      vertex -11.6635 -10.9528 3
    endloop
  endfacet
  facet normal -0.684547 -0.728969 0
    outer loop
      vertex -11.6635 -10.9528 3
      vertex -11.6635 -10.9528 0
      vertex -10.1988 -12.3282 0
    endloop
  endfacet
  facet normal -0.684547 -0.728969 0
    outer loop
      vertex -10.1988 -12.3282 3
      vertex -11.6635 -10.9528 3
      vertex -10.1988 -12.3282 0
    endloop
  endfacet
  facet normal -0.587785 -0.809017 0
    outer loop
      vertex -10.1988 -12.3282 3
      vertex -10.1988 -12.3282 0
      vertex -8.57323 -13.5092 0
    endloop
  endfacet
  facet normal -0.587785 -0.809017 0
    outer loop
      vertex -8.57323 -13.5092 3
      vertex -10.1988 -12.3282 3
      vertex -8.57323 -13.5092 0
    endloop
  endfacet
  facet normal -0.481754 -0.876307 0
    outer loop
      vertex -8.57323 -13.5092 3
      vertex -8.57323 -13.5092 0
      vertex -6.81247 -14.4772 0
    endloop
  endfacet
  facet normal -0.481754 -0.876307 0
    outer loop
      vertex -6.81247 -14.4772 3
      vertex -8.57323 -13.5092 3
      vertex -6.81247 -14.4772 0
    endloop
  endfacet
  facet normal -0.368124 -0.929777 0
    outer loop
      vertex -6.81247 -14.4772 3
      vertex -6.81247 -14.4772 0
      vertex -4.94427 -15.2169 0
    endloop
  endfacet
  facet normal -0.368124 -0.929777 0
    outer loop
      vertex -4.94427 -15.2169 3
      vertex -6.81247 -14.4772 3
      vertex -4.94427 -15.2169 0
    endloop
  endfacet
  facet normal -0.24869 -0.968583 0
    outer loop
      vertex -4.94427 -15.2169 3
      vertex -4.94427 -15.2169 0
      vertex -2.9981 -15.7166 0
    endloop
  endfacet
  facet normal -0.24869 -0.968583 0
    outer loop
      vertex -2.9981 -15.7166 3
      vertex -4.94427 -15.2169 3
      vertex -2.9981 -15.7166 0
    endloop
  endfacet
  facet normal -0.125333 -0.992115 0
    outer loop
      vertex -2.9981 -15.7166 3
      vertex -2.9981 -15.7166 0
      vertex -1.00465 -15.9684 0
    endloop
  endfacet
  facet normal -0.125333 -0.992115 0
    outer loop
      vertex -1.00465 -15.9684 3
      vertex -2.9981 -15.7166 3
      vertex -1.00465 -15.9684 0
    endloop
  endfacet
  facet normal 0 -1 0
    outer loop
      vertex -1.00465 -15.9684 3
      vertex -1.00465 -15.9684 0
      vertex 1.00465 -15.9684 0
    endloop
  endfacet
  facet normal 0 -1 0
    outer loop
      vertex 1.00465 -15.9684 3
      vertex -1.00465 -15.9684 3
      vertex 1.00465 -15.9684 0
    endloop
  endfacet
  facet normal 0.125333 -0.992115 0
    outer loop
      vertex 1.00465 -15.9684 3
      vertex 1.00465 -15.9684 0
      vertex 2.9981 -15.7166 0
    endloop
  endfacet
  facet normal 0.125333 -0.992115 0
    outer loop
      vertex 2.9981 -15.7166 3
      vertex 1.00465 -15.9684 3
      vertex 2.9981 -15.7166 0
    endloop
  endfacet
  facet normal 0.24869 -0.968583 0
    outer loop
      vertex 2.9981 -15.7166 3
      vertex 2.9981 -15.7166 0
      vertex 4.94427 -15.2169 0
    endloop
  endfacet
  facet normal 0.24869 -0.968583 0
    outer loop
      vertex 4.94427 -15.2169 3
      vertex 2.9981 -15.7166 3
      vertex 4.94427 -15.2169 0
    endloop
  endfacet
  facet normal 0.368124 -0.929777 0
    outer loop
      vertex 4.94427 -15.2169 3
      vertex 4.94427 -15.2169 0
      vertex 6.81247 -14.4772 0
    endloop
  endfacet
  facet normal 0.368124 -0.929777 0
    outer loop
      vertex 6.81247 -14.4772 3
      vertex 4.94427 -15.2169 3
      vertex 6.81247 -14.4772 0
    endloop
  endfacet
  facet normal 0.481754 -0.876307 0
    outer loop
      vertex 6.81247 -14.4772 3
      vertex 6.81247 -14.4772 0
      vertex 8.57323 -13.5092 0
    endloop
  endfacet
  facet normal 0.481754 -0.876307 0
    outer loop
      vertex 8.57323 -13.5092 3
      vertex 6.81247 -14.4772 3
      vertex 8.57323 -13.5092 0
    endloop
  endfacet
  facet normal 0.587785 -0.809017 0
    outer loop
      vertex 8.57323 -13.5092 3
      vertex 8.57323 -13.5092 0
      vertex 10.1988 -12.3282 0
    endloop
  endfacet
  facet normal 0.587785 -0.809017 0
    outer loop
      vertex 10.1988 -12.3282 3
      vertex 8.57323 -13.5092 3
      vertex 10.1988 -12.3282 0
    endloop
  endfacet
  facet normal 0.684547 -0.728969 0
    outer loop
      vertex 10.1988 -12.3282 3
      vertex 10.1988 -12.3282 0
      vertex 11.6635 -10.9528 0
    endloop
  endfacet
  facet normal 0.684547 -0.728969 0
    outer loop
      vertex 11.6635 -10.9528 3
      vertex 10.1988 -12.3282 3
      vertex 11.6635 -10.9528 0
    endloop
  endfacet
  facet normal 0.770513 -0.637424 0
    outer loop
      vertex 11.6635 -10.9528 3
      vertex 11.6635 -10.9528 0
      vertex 12.9443 -9.40456 0
    endloop
  endfacet
  facet normal 0.770513 -0.637424 0
    outer loop
      vertex 12.9443 -9.40456 3
      vertex 11.6635 -10.9528 3
      vertex 12.9443 -9.40456 0
    endloop
  endfacet
  facet normal 0.844328 -0.535827 0
    outer loop
      vertex 12.9443 -9.40456 3
      vertex 12.9443 -9.40456 0
      vertex 14.0209 -7.70806 0
    endloop
  endfacet
  facet normal 0.844328 -0.535827 0
    outer loop
      vertex 14.0209 -7.70806 3
      vertex 12.9443 -9.40456 3
      vertex 14.0209 -7.70806 0
    endloop
  endfacet
  facet normal 0.904827 -0.425779 0
    outer loop
      vertex 14.0209 -7.70806 3
      vertex 14.0209 -7.70806 0
      vertex 14.8764 -5.88999 0
    endloop
  endfacet
  facet normal 0.904827 -0.425779 0
    outer loop
      vertex 14.8764 -5.88999 3
      vertex 14.0209 -7.70806 3
      vertex 14.8764 -5.88999 0
    endloop
  endfacet
  facet normal 0.951057 -0.309017 0
    outer loop
      vertex 14.8764 -5.88999 3
      vertex 14.8764 -5.88999 0
      vertex 15.4973 -3.97904 0
    endloop
  endfacet
  facet normal 0.951057 -0.309017 0
    outer loop
      vertex 15.4973 -3.97904 3
      vertex 14.8764 -5.88999 3
      vertex 15.4973 -3.97904 0
    endloop
  endfacet
  facet normal 0.982287 -0.187381 0
    outer loop
      vertex 15.4973 -3.97904 3
      vertex 15.4973 -3.97904 0
      vertex 15.8738 -2.00533 0
    endloop
  endfacet
  facet normal 0.982287 -0.187381 0
    outer loop
      vertex 15.8738 -2.00533 3
      vertex 15.4973 -3.97904 3
      vertex 15.8738 -2.00533 0
    endloop
  endfacet
  facet normal 0.998027 -0.0627906 0
    outer loop
      vertex 15.8738 -2.00533 3
      vertex 15.8738 -2.00533 0
      vertex 16 0 0
    endloop
  endfacet
  facet normal 0.998027 -0.0627906 0
    outer loop
      vertex 16 0 3
      vertex 15.8738 -2.00533 3
      vertex 16 0 0
    endloop
  endfacet
  facet normal 0.998027 0.0627906 0
    outer loop
      vertex 16 0 0
      vertex 15.8738 2.00533 0
      vertex 15.8738 2.00533 3
    endloop
  endfacet
  facet normal 0.998027 0.0627906 0
    outer loop
      vertex 16 0 3
      vertex 16 0 0
      vertex 15.8738 2.00533 3
    endloop
  endfacet
  facet normal 0.982287 0.187381 0
    outer loop
      vertex 15.8738 2.00533 0
      vertex 15.4973 3.97904 0
      vertex 15.4973 3.97904 3
    endloop
  endfacet
  facet normal 0.982287 0.187381 0
    outer loop
      vertex 15.8738 2.00533 3
      vertex 15.8738 2.00533 0
      vertex 15.4973 3.97904 3
    endloop
  endfacet
  facet normal 0.951057 0.309017 0
    outer loop
      vertex 15.4973 3.97904 0
      vertex 14.8764 5.88999 0
      vertex 14.8764 5.88999 3
    endloop
  endfacet
  facet normal 0.951057 0.309017 0
    outer loop
      vertex 15.4973 3.97904 3
      vertex 15.4973 3.97904 0
      vertex 14.8764 5.88999 3
    endloop
  endfacet
  facet normal 0.904827 0.425779 0
    outer loop
      vertex 14.8764 5.88999 0
      vertex 14.0209 7.70806 0
      vertex 14.0209 7.70806 3
    endloop
  endfacet
  facet normal 0.904827 0.425779 0
    outer loop
      vertex 14.8764 5.88999 3
      vertex 14.8764 5.88999 0
      vertex 14.0209 7.70806 3
    endloop
  endfacet
  facet normal 0.844328 0.535827 0
    outer loop
      vertex 14.0209 7.70806 0
      vertex 12.9443 9.40456 0
      vertex 12.9443 9.40456 3
    endloop
  endfacet
  facet normal 0.844328 0.535827 0
    outer loop
      vertex 14.0209 7.70806 3
      vertex 14.0209 7.70806 0
      vertex 12.9443 9.40456 3
    endloop
  endfacet
  facet normal 0.770513 0.637424 0
    outer loop
      vertex 12.9443 9.40456 0
      vertex 11.6635 10.9528 0
      vertex 11.6635 10.9528 3
    endloop
  endfacet
  facet normal 0.770513 0.637424 0
    outer loop
      vertex 12.9443 9.40456 3
      vertex 12.9443 9.40456 0
      vertex 11.6635 10.9528 3
    endloop
  endfacet
  facet normal 0.684547 0.728969 0
    outer loop
      vertex 10.1988 12.3282 0
      vertex 10.1988 12.3282 3
      vertex 11.6635 10.9528 0
    endloop
  endfacet
  facet normal 0.684547 0.728969 0
    outer loop
      vertex 11.6635 10.9528 0
      vertex 10.1988 12.3282 3
      vertex 11.6635 10.9528 3
    endloop
  endfacet
  facet normal 0.587785 0.809017 0
    outer loop
      vertex 8.57323 13.5092 0
      vertex 8.57323 13.5092 3
      vertex 10.1988 12.3282 0
    endloop
  endfacet
  facet normal 0.587785 0.809017 0
    outer loop
      vertex 10.1988 12.3282 0
      vertex 8.57323 13.5092 3
      vertex 10.1988 12.3282 3
    endloop
  endfacet
  facet normal 0.481754 0.876307 0
    outer loop
      vertex 6.81247 14.4772 0
      vertex 6.81247 14.4772 3
      vertex 8.57323 13.5092 0
    endloop
  endfacet
  facet normal 0.481754 0.876307 0
    outer loop
      vertex 8.57323 13.5092 0
      vertex 6.81247 14.4772 3
      vertex 8.57323 13.5092 3
    endloop
  endfacet
  facet normal 0.368124 0.929777 0
    outer loop
      vertex 4.94427 15.2169 0
      vertex 4.94427 15.2169 3
      vertex 6.81247 14.4772 0
    endloop
  endfacet
  facet normal 0.368124 0.929777 0
    outer loop
      vertex 6.81247 14.4772 0
      vertex 4.94427 15.2169 3
      vertex 6.81247 14.4772 3
    endloop
  endfacet
  facet normal 0.24869 0.968583 0
    outer loop
      vertex 2.9981 15.7166 0
      vertex 2.9981 15.7166 3
      vertex 4.94427 15.2169 0
    endloop
  endfacet
  facet normal 0.24869 0.968583 0
    outer loop
      vertex 4.94427 15.2169 0
      vertex 2.9981 15.7166 3
      vertex 4.94427 15.2169 3
    endloop
  endfacet
  facet normal 0.125333 0.992115 0
    outer loop
      vertex 1.00465 15.9684 0
      vertex 1.00465 15.9684 3
      vertex 2.9981 15.7166 0
    endloop
  endfacet
  facet normal 0.125333 0.992115 0
    outer loop
      vertex 2.9981 15.7166 0
      vertex 1.00465 15.9684 3
      vertex 2.9981 15.7166 3
    endloop
  endfacet
  facet normal 0 1 0
    outer loop
      vertex -1.00465 15.9684 0
      vertex -1.00465 15.9684 3
      vertex 1.00465 15.9684 0
    endloop
  endfacet
  facet normal 0 1 0
    outer loop
      vertex 1.00465 15.9684 0
      vertex -1.00465 15.9684 3
      vertex 1.00465 15.9684 3
    endloop
  endfacet
  facet normal -0.125333 0.992115 0
    outer loop
      vertex -2.9981 15.7166 0
      vertex -2.9981 15.7166 3
      vertex -1.00465 15.9684 0
    endloop
  endfacet
  facet normal -0.125333 0.992115 0
    outer loop
      vertex -1.00465 15.9684 0
      vertex -2.9981 15.7166 3
      vertex -1.00465 15.9684 3
    endloop
  endfacet
  facet normal -0.24869 0.968583 0
    outer loop
      vertex -4.94427 15.2169 0
      vertex -4.94427 15.2169 3
      vertex -2.9981 15.7166 0
    endloop
  endfacet
  facet normal -0.24869 0.968583 0
    outer loop
      vertex -2.9981 15.7166 0
      vertex -4.94427 15.2169 3
      vertex -2.9981 15.7166 3
    endloop
  endfacet
  facet normal -0.368124 0.929777 0
    outer loop
      vertex -6.81247 14.4772 0
      vertex -6.81247 14.4772 3
      vertex -4.94427 15.2169 0
    endloop
  endfacet
  facet normal -0.368124 0.929777 0
    outer loop
      vertex -4.94427 15.2169 0
      vertex -6.81247 14.4772 3
      vertex -4.94427 15.2169 3
    endloop
  endfacet
  facet normal -0.481754 0.876307 0
    outer loop
      vertex -8.57323 13.5092 0
      vertex -8.57323 13.5092 3
      vertex -6.81247 14.4772 0
    endloop
  endfacet
  facet normal -0.481754 0.876307 0
    outer loop
      vertex -6.81247 14.4772 0
      vertex -8.57323 13.5092 3
      vertex -6.81247 14.4772 3
    endloop
  endfacet
  facet normal -0.587785 0.809017 0
    outer loop
      vertex -10.1988 12.3282 0
      vertex -10.1988 12.3282 3
      vertex -8.57323 13.5092 0
    endloop
  endfacet
  facet normal -0.587785 0.809017 0
    outer loop
      vertex -8.57323 13.5092 0
      vertex -10.1988 12.3282 3
      vertex -8.57323 13.5092 3
    endloop
  endfacet
  facet normal -0.684547 0.728969 0
    outer loop
      vertex -11.6635 10.9528 0
      vertex -11.6635 10.9528 3
      vertex -10.1988 12.3282 0
    endloop
  endfacet
  facet normal -0.684547 0.728969 0
    outer loop
      vertex -10.1988 12.3282 0
      vertex -11.6635 10.9528 3
      vertex -10.1988 12.3282 3
    endloop
  endfacet
  facet normal -0.770513 0.637424 0
    outer loop
      vertex -12.9443 9.40456 0
      vertex -12.9443 9.40456 3
      vertex -11.6635 10.9528 0
    endloop
  endfacet
  facet normal -0.770513 0.637424 0
    outer loop
      vertex -11.6635 10.9528 0
      vertex -12.9443 9.40456 3
      vertex -11.6635 10.9528 3
    endloop
  endfacet
  facet normal -0.844328 0.535827 0
    outer loop
      vertex -14.0209 7.70806 0
      vertex -14.0209 7.70806 3
      vertex -12.9443 9.40456 0
    endloop
  endfacet
  facet normal -0.844328 0.535827 0
    outer loop
      vertex -12.9443 9.40456 0
      vertex -14.0209 7.70806 3
      vertex -12.9443 9.40456 3
    endloop
  endfacet
  facet normal -0.904827 0.425779 0
    outer loop
      vertex -14.8764 5.88999 0
      vertex -14.8764 5.88999 3
      vertex -14.0209 7.70806 0
    endloop
  endfacet
  facet normal -0.904827 0.425779 0
    outer loop
      vertex -14.0209 7.70806 0
      vertex -14.8764 5.88999 3
      vertex -14.0209 7.70806 3
    endloop
  endfacet
  facet normal -0.951057 0.309017 0
    outer loop
      vertex -15.4973 3.97904 0
      vertex -15.4973 3.97904 3
      vertex -14.8764 5.88999 0
    endloop
  endfacet
  facet normal -0.951057 0.309017 0
    outer loop
      vertex -14.8764 5.88999 0
      vertex -15.4973 3.97904 3
      vertex -14.8764 5.88999 3
    endloop
  endfacet
  facet normal -0.982287 0.187381 0
    outer loop
      vertex -15.8738 2.00533 0
      vertex -15.8738 2.00533 3
      vertex -15.4973 3.97904 0
    endloop
  endfacet
  facet normal -0.982287 0.187381 0
    outer loop
      vertex -15.4973 3.97904 0
      vertex -15.8738 2.00533 3
      vertex -15.4973 3.97904 3
    endloop
  endfacet
  facet normal 0 0 1
    outer loop
      vertex -15.8738 2.00533 3
      vertex -16 0 3
      vertex -15.8738 -2.00533 3
    endloop
  endfacet
  facet normal 0 0 1
    outer loop
      vertex -14.8764 -5.88999 3
      vertex -15.8738 2.00533 3
      vertex -15.4973 -3.97904 3
    endloop
  endfacet
  facet normal 0 0 1
    outer loop
      vertex -15.4973 -3.97904 3
      vertex -15.8738 2.00533 3
      vertex -15.8738 -2.00533 3
    endloop
  endfacet
  facet normal 0 0 1
    outer loop
      vertex -14.0209 -7.70806 3
      vertex -15.8738 2.00533 3
      vertex -14.8764 -5.88999 3
    endloop
  endfacet
  facet normal 0 0 1
    outer loop
      vertex -12.9443 -9.40456 3
      vertex -15.8738 2.00533 3
      vertex -14.0209 -7.70806 3
    endloop
  endfacet
  facet normal 0 0 1
    outer loop
      vertex -11.6635 -10.9528 3
      vertex -15.8738 2.00533 3
      vertex -12.9443 -9.40456 3
    endloop
  endfacet
  facet normal 0 0 1
    outer loop
      vertex -10.1988 -12.3282 3
      vertex -15.8738 2.00533 3
      vertex -11.6635 -10.9528 3
    endloop
  endfacet
  facet normal 0 0 1
    outer loop
      vertex -8.57323 -13.5092 3
      vertex -15.8738 2.00533 3
      vertex -10.1988 -12.3282 3
    endloop
  endfacet
  facet normal 0 0 1
    outer loop
      vertex -6.81247 -14.4772 3
      vertex -15.8738 2.00533 3
      vertex -8.57323 -13.5092 3
    endloop
  endfacet
  facet normal 0 0 1
    outer loop
      vertex -4.94427 -15.2169 3
      vertex -15.8738 2.00533 3
      vertex -6.81247 -14.4772 3
    endloop
  endfacet
  facet normal 0 0 1
    outer loop
      vertex -2.9981 -15.7166 3
      vertex -15.8738 2.00533 3
      vertex -4.94427 -15.2169 3
    endloop
  endfacet
  facet normal 0 0 1
    outer loop
      vertex -1.00465 -15.9684 3
      vertex -15.8738 2.00533 3
      vertex -2.9981 -15.7166 3
    endloop
  endfacet
  facet normal 0 0 1
    outer loop
      vertex 1.00465 -15.9684 3
      vertex -15.8738 2.00533 3
      vertex -1.00465 -15.9684 3
    endloop
  endfacet
  facet normal 0 0 1
    outer loop
      vertex 2.9981 -15.7166 3
      vertex -15.8738 2.00533 3
      vertex 1.00465 -15.9684 3
    endloop
  endfacet
  facet normal 0 0 1
    outer loop
      vertex 4.94427 -15.2169 3
      vertex -15.8738 2.00533 3
      vertex 2.9981 -15.7166 3
    endloop
  endfacet
  facet normal 0 0 1
    outer loop
      vertex 6.81247 -14.4772 3
      vertex -15.8738 2.00533 3
      vertex 4.94427 -15.2169 3
    endloop
  endfacet
  facet normal 0 0 1
    outer loop
      vertex 8.57323 -13.5092 3
      vertex -15.8738 2.00533 3
      vertex 6.81247 -14.4772 3
    endloop
  endfacet
  facet normal 0 0 1
    outer loop
      vertex 10.1988 -12.3282 3
      vertex -15.8738 2.00533 3
      vertex 8.57323 -13.5092 3
    endloop
  endfacet
  facet normal 0 0 1
    outer loop
      vertex -2.75 -4.76314 3
      vertex -15.8738 2.00533 3
      vertex 10.1988 -12.3282 3
    endloop
  endfacet
  facet normal 0 0 1
    outer loop
      vertex 2.75 -4.76314 3
      vertex 0.955065 -5.41644 3
      vertex 12.9443 -9.40456 3
    endloop
  endfacet
  facet normal 0 0 1
    outer loop
      vertex -5.16831 1.88111 3
      vertex -4.21324 3.53533 3
      vertex -15.8738 2.00533 3
    endloop
  endfacet
  facet normal 0 0 1
    outer loop
      vertex 5.16831 -1.88111 3
      vertex 4.21324 -3.53533 3
      vertex 14.8764 -5.88999 3
    endloop
  endfacet
  facet normal 0 0 1
    outer loop
      vertex 0.955065 5.41644 3
      vertex 2.75 4.76314 3
      vertex 14.0209 7.70806 3
    endloop
  endfacet
  facet normal 0 0 1
    outer loop
      vertex 2.75 4.76314 3
      vertex 4.21324 3.53533 3
      vertex 14.8764 5.88999 3
    endloop
  endfacet
  facet normal 0 0 1
    outer loop
      vertex 11.6635 10.9528 3
      vertex -15.8738 2.00533 3
      vertex 12.9443 9.40456 3
    endloop
  endfacet
  facet normal 0 0 1
    outer loop
      vertex 10.1988 12.3282 3
      vertex -15.8738 2.00533 3
      vertex 11.6635 10.9528 3
    endloop
  endfacet
  facet normal 0 0 1
    outer loop
      vertex 8.57323 13.5092 3
      vertex -15.8738 2.00533 3
      vertex 10.1988 12.3282 3
    endloop
  endfacet
  facet normal 0 0 1
    outer loop
      vertex 6.81247 14.4772 3
      vertex -15.8738 2.00533 3
      vertex 8.57323 13.5092 3
    endloop
  endfacet
  facet normal 0 0 1
    outer loop
      vertex 4.94427 15.2169 3
      vertex -15.8738 2.00533 3
      vertex 6.81247 14.4772 3
    endloop
  endfacet
  facet normal 0 0 1
    outer loop
      vertex 2.9981 15.7166 3
      vertex -15.8738 2.00533 3
      vertex 4.94427 15.2169 3
    endloop
  endfacet
  facet normal 0 0 1
    outer loop
      vertex 1.00465 15.9684 3
      vertex -15.8738 2.00533 3
      vertex 2.9981 15.7166 3
    endloop
  endfacet
  facet normal 0 0 1
    outer loop
      vertex -1.00465 15.9684 3
      vertex -15.8738 2.00533 3
      vertex 1.00465 15.9684 3
    endloop
  endfacet
  facet normal 0 0 1
    outer loop
      vertex -2.9981 15.7166 3
      vertex -15.8738 2.00533 3
      vertex -1.00465 15.9684 3
    endloop
  endfacet
  facet normal 0 0 1
    outer loop
      vertex -4.94427 15.2169 3
      vertex -15.8738 2.00533 3
      vertex -2.9981 15.7166 3
    endloop
  endfacet
  facet normal 0 0 1
    outer loop
      vertex -6.81247 14.4772 3
      vertex -15.8738 2.00533 3
      vertex -4.94427 15.2169 3
    endloop
  endfacet
  facet normal 0 0 1
    outer loop
      vertex -8.57323 13.5092 3
      vertex -15.8738 2.00533 3
      vertex -6.81247 14.4772 3
    endloop
  endfacet
  facet normal 0 0 1
    outer loop
      vertex -10.1988 12.3282 3
      vertex -15.8738 2.00533 3
      vertex -8.57323 13.5092 3
    endloop
  endfacet
  facet normal 0 0 1
    outer loop
      vertex -11.6635 10.9528 3
      vertex -15.8738 2.00533 3
      vertex -10.1988 12.3282 3
    endloop
  endfacet
  facet normal 0 0 1
    outer loop
      vertex -12.9443 9.40456 3
      vertex -15.8738 2.00533 3
      vertex -11.6635 10.9528 3
    endloop
  endfacet
  facet normal 0 0 1
    outer loop
      vertex -14.0209 7.70806 3
      vertex -15.8738 2.00533 3
      vertex -12.9443 9.40456 3
    endloop
  endfacet
  facet normal 0 0 1
    outer loop
      vertex -14.8764 5.88999 3
      vertex -15.8738 2.00533 3
      vertex -14.0209 7.70806 3
    endloop
  endfacet
  facet normal 0 0 1
    outer loop
      vertex -15.4973 3.97904 3
      vertex -15.8738 2.00533 3
      vertex -14.8764 5.88999 3
    endloop
  endfacet
  facet normal 0 0 1
    outer loop
      vertex 0.955065 -5.41644 3
      vertex -0.955065 -5.41644 3
      vertex 11.6635 -10.9528 3
    endloop
  endfacet
  facet normal 0 0 1
    outer loop
      vertex 4.21324 -3.53533 3
      vertex 2.75 -4.76314 3
      vertex 14.0209 -7.70806 3
    endloop
  endfacet
  facet normal 0 0 1
    outer loop
      vertex 5.5 0 3
      vertex 5.16831 -1.88111 3
      vertex 15.8738 -2.00533 3
    endloop
  endfacet
  facet normal 0 0 1
    outer loop
      vertex -0.955065 5.41644 3
      vertex 0.955065 5.41644 3
      vertex 12.9443 9.40456 3
    endloop
  endfacet
  facet normal 0 0 1
    outer loop
      vertex 4.21324 3.53533 3
      vertex 5.16831 1.88111 3
      vertex 15.8738 2.00533 3
    endloop
  endfacet
  facet normal 0 0 1
    outer loop
      vertex -0.955065 5.41644 3
      vertex -15.8738 2.00533 3
      vertex -2.75 4.76314 3
    endloop
  endfacet
  facet normal 0 0 1
    outer loop
      vertex 12.9443 9.40456 3
      vertex -15.8738 2.00533 3
      vertex -0.955065 5.41644 3
    endloop
  endfacet
  facet normal 0 0 1
    outer loop
      vertex 12.9443 9.40456 3
      vertex 0.955065 5.41644 3
      vertex 14.0209 7.70806 3
    endloop
  endfacet
  facet normal 0 0 1
    outer loop
      vertex 14.0209 7.70806 3
      vertex 2.75 4.76314 3
      vertex 14.8764 5.88999 3
    endloop
  endfacet
  facet normal 0 0 1
    outer loop
      vertex 14.8764 5.88999 3
      vertex 4.21324 3.53533 3
      vertex 15.4973 3.97904 3
    endloop
  endfacet
  facet normal 0 0 1
    outer loop
      vertex -4.21324 3.53533 3
      vertex -2.75 4.76314 3
      vertex -15.8738 2.00533 3
    endloop
  endfacet
  facet normal 0 0 1
    outer loop
      vertex 15.8738 2.00533 3
      vertex 5.16831 1.88111 3
      vertex 16 0 3
    endloop
  endfacet
  facet normal 0 0 1
    outer loop
      vertex 16 0 3
      vertex 5.5 0 3
      vertex 15.8738 -2.00533 3
    endloop
  endfacet
  facet normal 0 0 1
    outer loop
      vertex 4.21324 3.53533 3
      vertex 15.8738 2.00533 3
      vertex 15.4973 3.97904 3
    endloop
  endfacet
  facet normal 0 0 1
    outer loop
      vertex 15.8738 -2.00533 3
      vertex 5.16831 -1.88111 3
      vertex 15.4973 -3.97904 3
    endloop
  endfacet
  facet normal 0 0 1
    outer loop
      vertex 5.16831 1.88111 3
      vertex 5.5 0 3
      vertex 16 0 3
    endloop
  endfacet
  facet normal 0 0 1
    outer loop
      vertex 14.8764 -5.88999 3
      vertex 4.21324 -3.53533 3
      vertex 14.0209 -7.70806 3
    endloop
  endfacet
  facet normal 0 0 1
    outer loop
      vertex 5.16831 -1.88111 3
      vertex 14.8764 -5.88999 3
      vertex 15.4973 -3.97904 3
    endloop
  endfacet
  facet normal 0 0 1
    outer loop
      vertex 14.0209 -7.70806 3
      vertex 2.75 -4.76314 3
      vertex 12.9443 -9.40456 3
    endloop
  endfacet
  facet normal 0 0 1
    outer loop
      vertex 12.9443 -9.40456 3
      vertex 0.955065 -5.41644 3
      vertex 11.6635 -10.9528 3
    endloop
  endfacet
  facet normal 0 0 1
    outer loop
      vertex 11.6635 -10.9528 3
      vertex -0.955065 -5.41644 3
      vertex 10.1988 -12.3282 3
    endloop
  endfacet
  facet normal 0 0 1
    outer loop
      vertex -0.955065 -5.41644 3
      vertex -2.75 -4.76314 3
      vertex 10.1988 -12.3282 3
    endloop
  endfacet
  facet normal 0 0 1
    outer loop
      vertex -5.16831 -1.88111 3
      vertex -5.5 0 3
      vertex -15.8738 2.00533 3
    endloop
  endfacet
  facet normal 0 0 1
    outer loop
      vertex -2.75 -4.76314 3
      vertex -4.21324 -3.53533 3
      vertex -15.8738 2.00533 3
    endloop
  endfacet
  facet normal 0 0 1
    outer loop
      vertex -4.21324 -3.53533 3
      vertex -5.16831 -1.88111 3
      vertex -15.8738 2.00533 3
    endloop
  endfacet
  facet normal 0 0 1
    outer loop
      vertex -5.5 0 3
      vertex -5.16831 1.88111 3
      vertex -15.8738 2.00533 3
    endloop
  endfacet
  facet normal -0.984808 -0.173648 0
    outer loop
      vertex -5.5 0 3
      vertex -5.16831 -1.88111 3
      vertex -5.5 0 18
    endloop
  endfacet
  facet normal -0.984808 -0.173648 0
    outer loop
      vertex -5.5 0 18
      vertex -5.16831 -1.88111 3
      vertex -5.16831 -1.88111 18
    endloop
  endfacet
  facet normal -0.866025 -0.5 0
    outer loop
      vertex -5.16831 -1.88111 3
      vertex -4.21324 -3.53533 3
      vertex -5.16831 -1.88111 18
    endloop
  endfacet
  facet normal -0.866025 -0.5 0
    outer loop
      vertex -5.16831 -1.88111 18
      vertex -4.21324 -3.53533 3
      vertex -4.21324 -3.53533 18
    endloop
  endfacet
  facet normal -0.642788 -0.766044 0
    outer loop
      vertex -4.21324 -3.53533 18
      vertex -4.21324 -3.53533 3
      vertex -2.75 -4.76314 3
    endloop
  endfacet
  facet normal -0.642788 -0.766044 0
    outer loop
      vertex -2.75 -4.76314 18
      vertex -4.21324 -3.53533 18
      vertex -2.75 -4.76314 3
    endloop
  endfacet
  facet normal -0.34202 -0.939693 0
    outer loop
      vertex -2.75 -4.76314 18
      vertex -2.75 -4.76314 3
      vertex -0.955065 -5.41644 3
    endloop
  endfacet
  facet normal -0.34202 -0.939693 0
    outer loop
      vertex -0.955065 -5.41644 18
      vertex -2.75 -4.76314 18
      vertex -0.955065 -5.41644 3
    endloop
  endfacet
  facet normal 0 -1 0
    outer loop
      vertex -0.955065 -5.41644 18
      vertex -0.955065 -5.41644 3
      vertex 0.955065 -5.41644 3
    endloop
  endfacet
  facet normal 0 -1 0
    outer loop
      vertex 0.955065 -5.41644 18
      vertex -0.955065 -5.41644 18
      vertex 0.955065 -5.41644 3
    endloop
  endfacet
  facet normal 0.34202 -0.939693 0
    outer loop
      vertex 0.955065 -5.41644 18
      vertex 0.955065 -5.41644 3
      vertex 2.75 -4.76314 3
    endloop
  endfacet
  facet normal 0.34202 -0.939693 0
    outer loop
      vertex 2.75 -4.76314 18
      vertex 0.955065 -5.41644 18
      vertex 2.75 -4.76314 3
    endloop
  endfacet
  facet normal 0.642788 -0.766044 0
    outer loop
      vertex 2.75 -4.76314 18
      vertex 2.75 -4.76314 3
      vertex 4.21324 -3.53533 3
    endloop
  endfacet
  facet normal 0.642788 -0.766044 0
    outer loop
      vertex 4.21324 -3.53533 18
      vertex 2.75 -4.76314 18
      vertex 4.21324 -3.53533 3
    endloop
  endfacet
  facet normal 0.866025 -0.5 0
    outer loop
      vertex 4.21324 -3.53533 18
      vertex 4.21324 -3.53533 3
      vertex 5.16831 -1.88111 3
    endloop
  endfacet
  facet normal 0.866025 -0.5 0
    outer loop
      vertex 5.16831 -1.88111 18
      vertex 4.21324 -3.53533 18
      vertex 5.16831 -1.88111 3
    endloop
  endfacet
  facet normal 0.984808 -0.173648 0
    outer loop
      vertex 5.16831 -1.88111 18
      vertex 5.16831 -1.88111 3
      vertex 5.5 0 3
    endloop
  endfacet
  facet normal 0.984808 -0.173648 0
    outer loop
      vertex 5.5 0 18
      vertex 5.16831 -1.88111 18
      vertex 5.5 0 3
    endloop
  endfacet
  facet normal 0.984808 0.173648 0
    outer loop
      vertex 5.5 0 3
      vertex 5.16831 1.88111 3
      vertex 5.16831 1.88111 18
    endloop
  endfacet
  facet normal 0.984808 0.173648 0
    outer loop
      vertex 5.5 0 18
      vertex 5.5 0 3
      vertex 5.16831 1.88111 18
    endloop
  endfacet
  facet normal 0.866025 0.5 0
    outer loop
      vertex 5.16831 1.88111 3
      vertex 4.21324 3.53533 3
      vertex 4.21324 3.53533 18
    endloop
  endfacet
  facet normal 0.866025 0.5 0
    outer loop
      vertex 5.16831 1.88111 18
      vertex 5.16831 1.88111 3
      vertex 4.21324 3.53533 18
    endloop
  endfacet
  facet normal 0.642788 0.766044 0
    outer loop
      vertex 2.75 4.76314 3
      vertex 2.75 4.76314 18
      vertex 4.21324 3.53533 3
    endloop
  endfacet
  facet normal 0.642788 0.766044 0
    outer loop
      vertex 4.21324 3.53533 3
      vertex 2.75 4.76314 18
      vertex 4.21324 3.53533 18
    endloop
  endfacet
  facet normal 0.34202 0.939693 0
    outer loop
      vertex 0.955065 5.41644 3
      vertex 0.955065 5.41644 18
      vertex 2.75 4.76314 3
    endloop
  endfacet
  facet normal 0.34202 0.939693 0
    outer loop
      vertex 2.75 4.76314 3
      vertex 0.955065 5.41644 18
      vertex 2.75 4.76314 18
    endloop
  endfacet
  facet normal 0 1 0
    outer loop
      vertex -0.955065 5.41644 3
      vertex -0.955065 5.41644 18
      vertex 0.955065 5.41644 3
    endloop
  endfacet
  facet normal 0 1 0
    outer loop
      vertex 0.955065 5.41644 3
      vertex -0.955065 5.41644 18
      vertex 0.955065 5.41644 18
    endloop
  endfacet
  facet normal -0.34202 0.939693 0
    outer loop
      vertex -2.75 4.76314 3
      vertex -2.75 4.76314 18
      vertex -0.955065 5.41644 3
    endloop
  endfacet
  facet normal -0.34202 0.939693 0
    outer loop
      vertex -0.955065 5.41644 3
      vertex -2.75 4.76314 18
      vertex -0.955065 5.41644 18
    endloop
  endfacet
  facet normal -0.642788 0.766044 0
    outer loop
      vertex -4.21324 3.53533 3
      vertex -4.21324 3.53533 18
      vertex -2.75 4.76314 3
    endloop
  endfacet
  facet normal -0.642788 0.766044 0
    outer loop
      vertex -2.75 4.76314 3
      vertex -4.21324 3.53533 18
      vertex -2.75 4.76314 18
    endloop
  endfacet
  facet normal -0.866025 0.5 0
    outer loop
      vertex -5.16831 1.88111 3
      vertex -5.16831 1.88111 18
      vertex -4.21324 3.53533 3
    endloop
  endfacet
  facet normal -0.866025 0.5 0
    outer loop
      vertex -4.21324 3.53533 3
      vertex -5.16831 1.88111 18
      vertex -4.21324 3.53533 18
    endloop
  endfacet
  facet normal -0.984808 0.173648 0
    outer loop
      vertex -5.5 0 3
      vertex -5.5 0 18
      vertex -5.16831 1.88111 3
    endloop
  endfacet
  facet normal -0.984808 0.173648 0
    outer loop
      vertex -5.16831 1.88111 3
      vertex -5.5 0 18
      vertex -5.16831 1.88111 18
    endloop
  endfacet
  facet normal 0 0 1
    outer loop
      vertex -5.16831 1.88111 18
      vertex -5.5 0 18
      vertex -5.16831 -1.88111 18
    endloop
  endfacet
  facet normal 0 0 1
    outer loop
      vertex -2.75 -4.76314 18
      vertex -5.16831 1.88111 18
      vertex -4.21324 -3.53533 18
    endloop
  endfacet
  facet normal 0 0 1
    outer loop
      vertex -4.21324 -3.53533 18
      vertex -5.16831 1.88111 18
      vertex -5.16831 -1.88111 18
    endloop
  endfacet
  facet normal 0 0 1
    outer loop
      vertex -0.955065 -5.41644 18
      vertex -5.16831 1.88111 18
      vertex -2.75 -4.76314 18
    endloop
  endfacet
  facet normal 0 0 1
    outer loop
      vertex 0.955065 -5.41644 18
      vertex -5.16831 1.88111 18
      vertex -0.955065 -5.41644 18
    endloop
  endfacet
  facet normal 0 0 1
    outer loop
      vertex -2.1439 -1.55763 18
      vertex -5.16831 1.88111 18
      vertex 0.955065 -5.41644 18
    endloop
  endfacet
  facet normal 0 0 1
    outer loop
      vertex 1.7732 -1.96933 18
      vertex 0.818895 -2.5203 18
      vertex 4.21324 -3.53533 18
    endloop
  endfacet
  facet normal 0 0 1
    outer loop
      vertex -2.1439 1.55763 18
      vertex -1.325 2.29497 18
      vertex -5.16831 1.88111 18
    endloop
  endfacet
  facet normal 0 0 1
    outer loop
      vertex 2.42089 1.07785 18
      vertex 2.65 0 18
      vertex 5.5 0 18
    endloop
  endfacet
  facet normal 0 0 1
    outer loop
      vertex -0.277 2.63548 18
      vertex 0.818895 2.5203 18
      vertex 4.21324 3.53533 18
    endloop
  endfacet
  facet normal 0 0 1
    outer loop
      vertex 2.75 4.76314 18
      vertex -5.16831 1.88111 18
      vertex 4.21324 3.53533 18
    endloop
  endfacet
  facet normal 0 0 1
    outer loop
      vertex 0.955065 5.41644 18
      vertex -5.16831 1.88111 18
      vertex 2.75 4.76314 18
    endloop
  endfacet
  facet normal 0 0 1
    outer loop
      vertex -0.955065 5.41644 18
      vertex -5.16831 1.88111 18
      vertex 0.955065 5.41644 18
    endloop
  endfacet
  facet normal 0 0 1
    outer loop
      vertex -2.75 4.76314 18
      vertex -5.16831 1.88111 18
      vertex -0.955065 5.41644 18
    endloop
  endfacet
  facet normal 0 0 1
    outer loop
      vertex -4.21324 3.53533 18
      vertex -5.16831 1.88111 18
      vertex -2.75 4.76314 18
    endloop
  endfacet
  facet normal 0 0 1
    outer loop
      vertex -2.59209 0.550966 18
      vertex -2.1439 1.55763 18
      vertex -5.16831 1.88111 18
    endloop
  endfacet
  facet normal 0 0 1
    outer loop
      vertex 2.65 0 18
      vertex 2.42089 -1.07785 18
      vertex 5.16831 -1.88111 18
    endloop
  endfacet
  facet normal 0 0 1
    outer loop
      vertex 1.7732 1.96933 18
      vertex 2.42089 1.07785 18
      vertex 5.16831 1.88111 18
    endloop
  endfacet
  facet normal 0 0 1
    outer loop
      vertex -0.277 2.63548 18
      vertex -5.16831 1.88111 18
      vertex -1.325 2.29497 18
    endloop
  endfacet
  facet normal 0 0 1
    outer loop
      vertex 0.818895 2.5203 18
      vertex 1.7732 1.96933 18
      vertex 5.16831 1.88111 18
    endloop
  endfacet
  facet normal 0 0 1
    outer loop
      vertex 4.21324 3.53533 18
      vertex -5.16831 1.88111 18
      vertex -0.277 2.63548 18
    endloop
  endfacet
  facet normal 0 0 1
    outer loop
      vertex 4.21324 3.53533 18
      vertex 0.818895 2.5203 18
      vertex 5.16831 1.88111 18
    endloop
  endfacet
  facet normal 0 0 1
    outer loop
      vertex 5.16831 1.88111 18
      vertex 2.42089 1.07785 18
      vertex 5.5 0 18
    endloop
  endfacet
  facet normal 0 0 1
    outer loop
      vertex 5.5 0 18
      vertex 2.65 0 18
      vertex 5.16831 -1.88111 18
    endloop
  endfacet
  facet normal 0 0 1
    outer loop
      vertex 5.16831 -1.88111 18
      vertex 2.42089 -1.07785 18
      vertex 4.21324 -3.53533 18
    endloop
  endfacet
  facet normal 0 0 1
    outer loop
      vertex 2.42089 -1.07785 18
      vertex 1.7732 -1.96933 18
      vertex 4.21324 -3.53533 18
    endloop
  endfacet
  facet normal 0 0 1
    outer loop
      vertex 4.21324 -3.53533 18
      vertex 0.818895 -2.5203 18
      vertex 2.75 -4.76314 18
    endloop
  endfacet
  facet normal 0 0 1
    outer loop
      vertex 0.818895 -2.5203 18
      vertex -0.277 -2.63548 18
      vertex 2.75 -4.76314 18
    endloop
  endfacet
  facet normal 0 0 1
    outer loop
      vertex 2.75 -4.76314 18
      vertex -0.277 -2.63548 18
      vertex 0.955065 -5.41644 18
    endloop
  endfacet
  facet normal 0 0 1
    outer loop
      vertex -1.325 -2.29497 18
      vertex -2.1439 -1.55763 18
      vertex 0.955065 -5.41644 18
    endloop
  endfacet
  facet normal 0 0 1
    outer loop
      vertex -2.1439 -1.55763 18
      vertex -2.59209 -0.550966 18
      vertex -5.16831 1.88111 18
    endloop
  endfacet
  facet normal 0 0 1
    outer loop
      vertex -0.277 -2.63548 18
      vertex -1.325 -2.29497 18
      vertex 0.955065 -5.41644 18
    endloop
  endfacet
  facet normal 0 0 1
    outer loop
      vertex -2.59209 -0.550966 18
      vertex -2.59209 0.550966 18
      vertex -5.16831 1.88111 18
    endloop
  endfacet
  facet normal 1 0 0
    outer loop
      vertex -2.59209 0.550966 15
      vertex -2.59209 0.550966 18
      vertex -2.59209 -0.550966 18
    endloop
  endfacet
  facet normal 1 0 0
    outer loop
      vertex -2.59209 -0.550966 15
      vertex -2.59209 0.550966 15
      vertex -2.59209 -0.550966 18
    endloop
  endfacet
  facet normal 0.913546 0.406737 0
    outer loop
      vertex -2.59209 -0.550966 18
      vertex -2.1439 -1.55763 18
      vertex -2.1439 -1.55763 15
    endloop
  endfacet
  facet normal 0.913546 0.406737 0
    outer loop
      vertex -2.59209 -0.550966 15
      vertex -2.59209 -0.550966 18
      vertex -2.1439 -1.55763 15
    endloop
  endfacet
  facet normal 0.66913 0.743145 0
    outer loop
      vertex -1.325 -2.29497 18
      vertex -1.325 -2.29497 15
      vertex -2.1439 -1.55763 18
    endloop
  endfacet
  facet normal 0.66913 0.743145 0
    outer loop
      vertex -2.1439 -1.55763 18
      vertex -1.325 -2.29497 15
      vertex -2.1439 -1.55763 15
    endloop
  endfacet
  facet normal 0.309017 0.951056 0
    outer loop
      vertex -0.277 -2.63548 18
      vertex -0.277 -2.63548 15
      vertex -1.325 -2.29497 18
    endloop
  endfacet
  facet normal 0.309017 0.951056 0
    outer loop
      vertex -1.325 -2.29497 18
      vertex -0.277 -2.63548 15
      vertex -1.325 -2.29497 15
    endloop
  endfacet
  facet normal -0.104528 0.994522 0
    outer loop
      vertex 0.818895 -2.5203 18
      vertex 0.818895 -2.5203 15
      vertex -0.277 -2.63548 18
    endloop
  endfacet
  facet normal -0.104528 0.994522 0
    outer loop
      vertex -0.277 -2.63548 18
      vertex 0.818895 -2.5203 15
      vertex -0.277 -2.63548 15
    endloop
  endfacet
  facet normal -0.5 0.866025 0
    outer loop
      vertex 1.7732 -1.96933 18
      vertex 1.7732 -1.96933 15
      vertex 0.818895 -2.5203 18
    endloop
  endfacet
  facet normal -0.5 0.866025 0
    outer loop
      vertex 0.818895 -2.5203 18
      vertex 1.7732 -1.96933 15
      vertex 0.818895 -2.5203 15
    endloop
  endfacet
  facet normal -0.809017 0.587785 0
    outer loop
      vertex 2.42089 -1.07785 18
      vertex 2.42089 -1.07785 15
      vertex 1.7732 -1.96933 18
    endloop
  endfacet
  facet normal -0.809017 0.587785 0
    outer loop
      vertex 1.7732 -1.96933 18
      vertex 2.42089 -1.07785 15
      vertex 1.7732 -1.96933 15
    endloop
  endfacet
  facet normal -0.978148 0.207912 0
    outer loop
      vertex 2.65 0 18
      vertex 2.65 0 15
      vertex 2.42089 -1.07785 18
    endloop
  endfacet
  facet normal -0.978148 0.207912 0
    outer loop
      vertex 2.42089 -1.07785 18
      vertex 2.65 0 15
      vertex 2.42089 -1.07785 15
    endloop
  endfacet
  facet normal -0.978148 -0.207912 0
    outer loop
      vertex 2.65 0 18
      vertex 2.42089 1.07785 18
      vertex 2.65 0 15
    endloop
  endfacet
  facet normal -0.978148 -0.207912 0
    outer loop
      vertex 2.65 0 15
      vertex 2.42089 1.07785 18
      vertex 2.42089 1.07785 15
    endloop
  endfacet
  facet normal -0.809017 -0.587785 0
    outer loop
      vertex 2.42089 1.07785 18
      vertex 1.7732 1.96933 18
      vertex 2.42089 1.07785 15
    endloop
  endfacet
  facet normal -0.809017 -0.587785 0
    outer loop
      vertex 2.42089 1.07785 15
      vertex 1.7732 1.96933 18
      vertex 1.7732 1.96933 15
    endloop
  endfacet
  facet normal -0.5 -0.866025 0
    outer loop
      vertex 1.7732 1.96933 15
      vertex 1.7732 1.96933 18
      vertex 0.818895 2.5203 18
    endloop
  endfacet
  facet normal -0.5 -0.866025 0
    outer loop
      vertex 0.818895 2.5203 15
      vertex 1.7732 1.96933 15
      vertex 0.818895 2.5203 18
    endloop
  endfacet
  facet normal -0.104528 -0.994522 0
    outer loop
      vertex 0.818895 2.5203 15
      vertex 0.818895 2.5203 18
      vertex -0.277 2.63548 18
    endloop
  endfacet
  facet normal -0.104528 -0.994522 0
    outer loop
      vertex -0.277 2.63548 15
      vertex 0.818895 2.5203 15
      vertex -0.277 2.63548 18
    endloop
  endfacet
  facet normal 0.309017 -0.951056 0
    outer loop
      vertex -0.277 2.63548 15
      vertex -0.277 2.63548 18
      vertex -1.325 2.29497 18
    endloop
  endfacet
  facet normal 0.309017 -0.951056 0
    outer loop
      vertex -1.325 2.29497 15
      vertex -0.277 2.63548 15
      vertex -1.325 2.29497 18
    endloop
  endfacet
  facet normal 0.66913 -0.743145 0
    outer loop
      vertex -1.325 2.29497 15
      vertex -1.325 2.29497 18
      vertex -2.1439 1.55763 18
    endloop
  endfacet
  facet normal 0.66913 -0.743145 0
    outer loop
      vertex -2.1439 1.55763 15
      vertex -1.325 2.29497 15
      vertex -2.1439 1.55763 18
    endloop
  endfacet
  facet normal 0.913546 -0.406737 0
    outer loop
      vertex -2.1439 1.55763 15
      vertex -2.1439 1.55763 18
      vertex -2.59209 0.550966 18
    endloop
  endfacet
  facet normal 0.913546 -0.406737 0
    outer loop
      vertex -2.59209 0.550966 15
      vertex -2.1439 1.55763 15
      vertex -2.59209 0.550966 18
    endloop
  endfacet
  facet normal 0 0 1
    outer loop
      vertex -2.1439 -1.55763 15
      vertex -1.325 -2.29497 15
      vertex -0.277 -2.63548 15
    endloop
  endfacet
  facet normal 0 0 1
    outer loop
      vertex 1.7732 -1.96933 15
      vertex -2.1439 -1.55763 15
      vertex 0.818895 -2.5203 15
    endloop
  endfacet
  facet normal 0 0 1
    outer loop
      vertex 0.818895 -2.5203 15
      vertex -2.1439 -1.55763 15
      vertex -0.277 -2.63548 15
    endloop
  endfacet
  facet normal 0 0 1
    outer loop
      vertex 2.42089 -1.07785 15
      vertex -2.1439 -1.55763 15
      vertex 1.7732 -1.96933 15
    endloop
  endfacet
  facet normal 0 0 1
    outer loop
      vertex 2.65 0 15
      vertex -2.1439 -1.55763 15
      vertex 2.42089 -1.07785 15
    endloop
  endfacet
  facet normal 0 0 1
    outer loop
      vertex 2.42089 1.07785 15
      vertex -2.1439 -1.55763 15
      vertex 2.65 0 15
    endloop
  endfacet
  facet normal 0 0 1
    outer loop
      vertex 1.7732 1.96933 15
      vertex -2.1439 -1.55763 15
      vertex 2.42089 1.07785 15
    endloop
  endfacet
  facet normal 0 0 1
    outer loop
      vertex 0.818895 2.5203 15
      vertex -2.1439 -1.55763 15
      vertex 1.7732 1.96933 15
    endloop
  endfacet
  facet normal 0 0 1
    outer loop
      vertex -0.277 2.63548 15
      vertex -2.1439 -1.55763 15
      vertex 0.818895 2.5203 15
    endloop
  endfacet
  facet normal 0 0 1
    outer loop
      vertex -1.325 2.29497 15
      vertex -2.1439 -1.55763 15
      vertex -0.277 2.63548 15
    endloop
  endfacet
  facet normal 0 0 1
    outer loop
      vertex -2.1439 1.55763 15
      vertex -2.1439 -1.55763 15
      vertex -1.325 2.29497 15
    endloop
  endfacet
  facet normal 0 0 1
    outer loop
      vertex -2.59209 0.550966 15
      vertex -2.1439 -1.55763 15
      vertex -2.1439 1.55763 15
    endloop
  endfacet
  facet normal 0 0 1
    outer loop
      vertex -2.59209 -0.550966 15
      vertex -2.1439 -1.55763 15
      vertex -2.59209 0.550966 15
    endloop
  endfacet
endsolid OpenSCAD_Model
