solid OpenSCAD_Model
  facet normal 0 0 -1
    outer loop
      vertex -17 0 0
      vertex -16.8659 2.13067 0
      vertex -16.8659 -2.13067 0
    endloop
  endfacet
  facet normal 0 0 -1
    outer loop
      vertex -16.8659 -2.13067 0
      vertex -16.8659 2.13067 0
      vertex -16.4659 4.22773 0
    endloop
  endfacet
  facet normal 0 0 -1
    outer loop
      vertex -16.8659 -2.13067 0
      vertex -16.4659 4.22773 0
      vertex -15.8062 6.25812 0
    endloop
  endfacet
  facet normal 0 0 -1
    outer loop
      vertex -16.8659 -2.13067 0
      vertex -15.8062 6.25812 0
      vertex -14.8972 8.18981 0
    endloop
  endfacet
  facet normal 0 0 -1
    outer loop
      vertex -16.8659 -2.13067 0
      vertex -14.8972 8.18981 0
      vertex -13.7533 9.99235 0
    endloop
  endfacet
  facet normal 0 0 -1
    outer loop
      vertex -16.8659 -2.13067 0
      vertex -13.7533 9.99235 0
      vertex -12.3925 11.6373 0
    endloop
  endfacet
  facet normal 0 0 -1
    outer loop
      vertex -16.8659 -2.13067 0
      vertex -12.3925 11.6373 0
      vertex -10.8362 13.0987 0
    endloop
  endfacet
  facet normal 0 0 -1
    outer loop
      vertex -16.8659 -2.13067 0
      vertex -10.8362 13.0987 0
      vertex -9.10906 14.3536 0
    endloop
  endfacet
  facet normal 0 0 -1
    outer loop
      vertex -16.8659 -2.13067 0
      vertex -9.10906 14.3536 0
      vertex -7.23825 15.3821 0
    endloop
  endfacet
  facet normal 0 0 -1
    outer loop
      vertex -16.8659 -2.13067 0
      vertex -7.23825 15.3821 0
      vertex -5.25329 16.168 0
    endloop
  endfacet
  facet normal 0 0 -1
    outer loop
      vertex -16.8659 -2.13067 0
      vertex -5.25329 16.168 0
      vertex -3.18548 16.6989 0
    endloop
  endfacet
  facet normal 0 0 -1
    outer loop
      vertex -16.8659 -2.13067 0
      vertex -3.18548 16.6989 0
      vertex -1.06744 16.9665 0
    endloop
  endfacet
  facet normal 0 0 -1
    outer loop
      vertex -16.8659 -2.13067 0
      vertex -1.06744 16.9665 0
      vertex 1.06744 16.9665 0
    endloop
  endfacet
  facet normal 0 0 -1
    outer loop
      vertex -16.8659 -2.13067 0
      vertex 1.06744 16.9665 0
      vertex 3.18548 16.6989 0
    endloop
  endfacet
  facet normal 0 0 -1
    outer loop
      vertex -16.8659 -2.13067 0
      vertex 3.18548 16.6989 0
      vertex 5.25329 16.168 0
    endloop
  endfacet
  facet normal 0 0 -1
    outer loop
      vertex -16.8659 -2.13067 0
      vertex 5.25329 16.168 0
      vertex 7.23825 15.3821 0
    endloop
  endfacet
  facet normal 0 0 -1
    outer loop
      vertex -16.8659 -2.13067 0
      vertex 7.23825 15.3821 0
      vertex 9.10906 14.3536 0
    endloop
  endfacet
  facet normal 0 0 -1
    outer loop
      vertex -16.8659 -2.13067 0
      vertex 9.10906 14.3536 0
      vertex 10.8362 13.0987 0
    endloop
  endfacet
  facet normal 0 0 -1
    outer loop
      vertex -16.8659 -2.13067 0
      vertex 10.8362 13.0987 0
      vertex 12.3925 11.6373 0
    endloop
  endfacet
  facet normal 0 0 -1
    outer loop
      vertex -16.8659 -2.13067 0
      vertex 12.3925 11.6373 0
      vertex 13.7533 9.99235 0
    endloop
  endfacet
  facet normal 0 0 -1
    outer loop
      vertex -16.8659 -2.13067 0
      vertex 13.7533 9.99235 0
      vertex 14.8972 8.18981 0
    endloop
  endfacet
  facet normal 0 0 -1
    outer loop
      vertex -16.8659 -2.13067 0
      vertex 14.8972 8.18981 0
      vertex 15.8062 6.25812 0
    endloop
  endfacet
  facet normal 0 0 -1
    outer loop
      vertex -16.8659 -2.13067 0
      vertex 15.8062 6.25812 0
      vertex 16.4659 4.22773 0
    endloop
  endfacet
  facet normal 0 0 -1
    outer loop
      vertex -16.8659 -2.13067 0
      vertex 16.4659 4.22773 0
      vertex 16.8659 2.13067 0
    endloop
  endfacet
  facet normal 0 0 -1
    outer loop
      vertex -16.8659 -2.13067 0
      vertex 16.8659 2.13067 0
      vertex 17 0 0
    endloop
  endfacet
  facet normal 0 0 -1
    outer loop
      vertex -16.8659 -2.13067 0
      vertex 17 0 0
      vertex 16.8659 -2.13067 0
    endloop
  endfacet
  facet normal 0 0 -1
    outer loop
      vertex -16.8659 -2.13067 0
      vertex 16.8659 -2.13067 0
      vertex 16.4659 -4.22773 0
    endloop
  endfacet
  facet normal 0 0 -1
    outer loop
      vertex -16.8659 -2.13067 0
      vertex 16.4659 -4.22773 0
      vertex 15.8062 -6.25812 0
    endloop
  endfacet
  facet normal 0 0 -1
    outer loop
      vertex -16.8659 -2.13067 0
      vertex 15.8062 -6.25812 0
      vertex 14.8972 -8.18981 0
    endloop
  endfacet
  facet normal 0 0 -1
    outer loop
      vertex -16.8659 -2.13067 0
      vertex 14.8972 -8.18981 0
      vertex 13.7533 -9.99235 0
    endloop
  endfacet
  facet normal 0 0 -1
    outer loop
      vertex -16.8659 -2.13067 0
      vertex 13.7533 -9.99235 0
      vertex 12.3925 -11.6373 0
    endloop
  endfacet
  facet normal 0 0 -1
    outer loop
      vertex -16.8659 -2.13067 0
      vertex 12.3925 -11.6373 0
      vertex 10.8362 -13.0987 0
    endloop
  endfacet
  facet normal 0 0 -1
    outer loop
      vertex -16.8659 -2.13067 0
      vertex 10.8362 -13.0987 0
      vertex 9.10906 -14.3536 0
    endloop
  endfacet
  facet normal 0 0 -1
    outer loop
      vertex -16.8659 -2.13067 0
      vertex 9.10906 -14.3536 0
      vertex 7.23825 -15.3821 0
    endloop
  endfacet
  facet normal 0 0 -1
    outer loop
      vertex -16.8659 -2.13067 0
      vertex 7.23825 -15.3821 0
      vertex 5.25329 -16.168 0
    endloop
  endfacet
  facet normal 0 0 -1
    outer loop
      vertex -16.8659 -2.13067 0
      vertex 5.25329 -16.168 0
      vertex 3.18548 -16.6989 0
    endloop
  endfacet
  facet normal 0 0 -1
    outer loop
      vertex -16.8659 -2.13067 0
      vertex 3.18548 -16.6989 0
      vertex 1.06744 -16.9665 0
    endloop
  endfacet
  facet normal 0 0 -1
    outer loop
      vertex -16.8659 -2.13067 0
      vertex 1.06744 -16.9665 0
      vertex -1.06744 -16.9665 0
    endloop
  endfacet
  facet normal 0 0 -1
    outer loop
      vertex -16.8659 -2.13067 0
      vertex -1.06744 -16.9665 0
      vertex -3.18548 -16.6989 0
    endloop
  endfacet
  facet normal 0 0 -1
    outer loop
      vertex -16.8659 -2.13067 0
      vertex -3.18548 -16.6989 0
      vertex -5.25329 -16.168 0
    endloop
  endfacet
  facet normal 0 0 -1
    outer loop
      vertex -16.8659 -2.13067 0
      vertex -5.25329 -16.168 0
      vertex -7.23825 -15.3821 0
    endloop
  endfacet
  facet normal 0 0 -1
    outer loop
      vertex -16.8659 -2.13067 0
      vertex -7.23825 -15.3821 0
      vertex -9.10906 -14.3536 0
    endloop
  endfacet
  facet normal 0 0 -1
    outer loop
      vertex -16.8659 -2.13067 0
      vertex -9.10906 -14.3536 0
      vertex -10.8362 -13.0987 0
    endloop
  endfacet
  facet normal 0 0 -1
    outer loop
      vertex -16.8659 -2.13067 0
      vertex -10.8362 -13.0987 0
      vertex -12.3925 -11.6373 0
    endloop
  endfacet
  facet normal 0 0 -1
    outer loop
      vertex -16.8659 -2.13067 0
      vertex -12.3925 -11.6373 0
      vertex -13.7533 -9.99235 0
    endloop
  endfacet
  facet normal 0 0 -1
    outer loop
      vertex -16.8659 -2.13067 0
      vertex -13.7533 -9.99235 0
      vertex -14.8972 -8.18981 0
    endloop
  endfacet
  facet normal 0 0 -1
    outer loop
      vertex -16.8659 -2.13067 0
      vertex -14.8972 -8.18981 0
      vertex -15.8062 -6.25812 0
    endloop
  endfacet
  facet normal 0 0 -1
    outer loop
      vertex -16.8659 -2.13067 0
      vertex -15.8062 -6.25812 0
      vertex -16.4659 -4.22773 0
    endloop
  endfacet
  facet normal -0.998027 0.0627905 0
    outer loop
      vertex -17 0 0
      vertex -17 0 5
      vertex -16.8659 2.13067 0
    endloop
  endfacet
  facet normal -0.998027 0.0627905 0
    outer loop
      vertex -16.8659 2.13067 0
      vertex -17 0 5
      vertex -16.8659 2.13067 5
    endloop
  endfacet
  facet normal -0.998027 -0.0627905 0
    outer loop
      vertex -17 0 0
      vertex -16.8659 -2.13067 0
      vertex -17 0 5
    endloop
  endfacet
  facet normal -0.998027 -0.0627905 0
    outer loop
      vertex -17 0 5
      vertex -16.8659 -2.13067 0
      vertex -16.8659 -2.13067 5
    endloop
  endfacet
  facet normal -0.982287 -0.187381 0
    outer loop
      vertex -16.8659 -2.13067 0
      vertex -16.4659 -4.22773 0
      vertex -16.8659 -2.13067 5
    endloop
  endfacet
  facet normal -0.982287 -0.187381 0
    outer loop
      vertex -16.8659 -2.13067 5
      vertex -16.4659 -4.22773 0
      vertex -16.4659 -4.22773 5
    endloop
  endfacet
  facet normal -0.951056 -0.309017 0
    outer loop
      vertex -16.4659 -4.22773 0
      vertex -15.8062 -6.25812 0
      vertex -16.4659 -4.22773 5
    endloop
  endfacet
  facet normal -0.951056 -0.309017 0
    outer loop
      vertex -16.4659 -4.22773 5
      vertex -15.8062 -6.25812 0
      vertex -15.8062 -6.25812 5
    endloop
  endfacet
  facet normal -0.904827 -0.425779 0
    outer loop
      vertex -15.8062 -6.25812 0
      vertex -14.8972 -8.18981 0
      vertex -15.8062 -6.25812 5
    endloop
  endfacet
  facet normal -0.904827 -0.425779 0
    outer loop
      vertex -15.8062 -6.25812 5
      vertex -14.8972 -8.18981 0
      vertex -14.8972 -8.18981 5
    endloop
  endfacet
  facet normal -0.844328 -0.535827 0
    outer loop
      vertex -14.8972 -8.18981 0
      vertex -13.7533 -9.99235 0
      vertex -14.8972 -8.18981 5
    endloop
  endfacet
  facet normal -0.844328 -0.535827 0
    outer loop
      vertex -14.8972 -8.18981 5
      vertex -13.7533 -9.99235 0
      vertex -13.7533 -9.99235 5
    endloop
  endfacet
  facet normal -0.770513 -0.637424 0
    outer loop
      vertex -13.7533 -9.99235 0
      vertex -12.3925 -11.6373 0
      vertex -13.7533 -9.99235 5
    endloop
  endfacet
  facet normal -0.770513 -0.637424 0
    outer loop
      vertex -13.7533 -9.99235 5
      vertex -12.3925 -11.6373 0
      vertex -12.3925 -11.6373 5
    endloop
  endfacet
  facet normal -0.684547 -0.728969 0
    outer loop
      vertex -12.3925 -11.6373 5
      vertex -12.3925 -11.6373 0
      vertex -10.8362 -13.0987 0
    endloop
  endfacet
  facet normal -0.684547 -0.728969 0
    outer loop
      vertex -10.8362 -13.0987 5
      vertex -12.3925 -11.6373 5
      vertex -10.8362 -13.0987 0
    endloop
  endfacet
  facet normal -0.587785 -0.809017 0
    outer loop
      vertex -10.8362 -13.0987 5
      vertex -10.8362 -13.0987 0
      vertex -9.10906 -14.3536 0
    endloop
  endfacet
  facet normal -0.587785 -0.809017 0
    outer loop
      vertex -9.10906 -14.3536 5
      vertex -10.8362 -13.0987 5
      vertex -9.10906 -14.3536 0
    endloop
  endfacet
  facet normal -0.481754 -0.876307 0
    outer loop
      vertex -9.10906 -14.3536 5
      vertex -9.10906 -14.3536 0
      vertex -7.23825 -15.3821 0
    endloop
  endfacet
  facet normal -0.481754 -0.876307 0
    outer loop
      vertex -7.23825 -15.3821 5
      vertex -9.10906 -14.3536 5
      vertex -7.23825 -15.3821 0
    endloop
  endfacet
  facet normal -0.368125 -0.929776 0
    outer loop
      vertex -7.23825 -15.3821 5
      vertex -7.23825 -15.3821 0
      vertex -5.25329 -16.168 0
    endloop
  endfacet
  facet normal -0.368125 -0.929776 0
    outer loop
      vertex -5.25329 -16.168 5
      vertex -7.23825 -15.3821 5
      vertex -5.25329 -16.168 0
    endloop
  endfacet
  facet normal -0.24869 -0.968583 0
    outer loop
      vertex -5.25329 -16.168 5
      vertex -5.25329 -16.168 0
      vertex -3.18548 -16.6989 0
    endloop
  endfacet
  facet normal -0.24869 -0.968583 0
    outer loop
      vertex -3.18548 -16.6989 5
      vertex -5.25329 -16.168 5
      vertex -3.18548 -16.6989 0
    endloop
  endfacet
  facet normal -0.125333 -0.992115 0
    outer loop
      vertex -3.18548 -16.6989 5
      vertex -3.18548 -16.6989 0
      vertex -1.06744 -16.9665 0
    endloop
  endfacet
  facet normal -0.125333 -0.992115 0
    outer loop
      vertex -1.06744 -16.9665 5
      vertex -3.18548 -16.6989 5
      vertex -1.06744 -16.9665 0
    endloop
  endfacet
  facet normal 0 -1 0
    outer loop
      vertex -1.06744 -16.9665 5
      vertex -1.06744 -16.9665 0
      vertex 1.06744 -16.9665 0
    endloop
  endfacet
  facet normal 0 -1 0
    outer loop
      vertex 1.06744 -16.9665 5
      vertex -1.06744 -16.9665 5
      vertex 1.06744 -16.9665 0
    endloop
  endfacet
  facet normal 0.125333 -0.992115 0
    outer loop
      vertex 1.06744 -16.9665 5
      vertex 1.06744 -16.9665 0
      vertex 3.18548 -16.6989 0
    endloop
  endfacet
  facet normal 0.125333 -0.992115 0
    outer loop
      vertex 3.18548 -16.6989 5
      vertex 1.06744 -16.9665 5
      vertex 3.18548 -16.6989 0
    endloop
  endfacet
  facet normal 0.24869 -0.968583 0
    outer loop
      vertex 3.18548 -16.6989 5
      vertex 3.18548 -16.6989 0
      vertex 5.25329 -16.168 0
    endloop
  endfacet
  facet normal 0.24869 -0.968583 0
    outer loop
      vertex 5.25329 -16.168 5
      vertex 3.18548 -16.6989 5
      vertex 5.25329 -16.168 0
    endloop
  endfacet
  facet normal 0.368125 -0.929776 0
    outer loop
      vertex 5.25329 -16.168 5
      vertex 5.25329 -16.168 0
      vertex 7.23825 -15.3821 0
    endloop
  endfacet
  facet normal 0.368125 -0.929776 0
    outer loop
      vertex 7.23825 -15.3821 5
      vertex 5.25329 -16.168 5
      vertex 7.23825 -15.3821 0
    endloop
  endfacet
  facet normal 0.481754 -0.876307 0
    outer loop
      vertex 7.23825 -15.3821 5
      vertex 7.23825 -15.3821 0
      vertex 9.10906 -14.3536 0
    endloop
  endfacet
  facet normal 0.481754 -0.876307 0
    outer loop
      vertex 9.10906 -14.3536 5
      vertex 7.23825 -15.3821 5
      vertex 9.10906 -14.3536 0
    endloop
  endfacet
  facet normal 0.587785 -0.809017 0
    outer loop
      vertex 9.10906 -14.3536 5
      vertex 9.10906 -14.3536 0
      vertex 10.8362 -13.0987 0
    endloop
  endfacet
  facet normal 0.587785 -0.809017 0
    outer loop
      vertex 10.8362 -13.0987 5
      vertex 9.10906 -14.3536 5
      vertex 10.8362 -13.0987 0
    endloop
  endfacet
  facet normal 0.684547 -0.728969 0
    outer loop
      vertex 10.8362 -13.0987 5
      vertex 10.8362 -13.0987 0
      vertex 12.3925 -11.6373 0
    endloop
  endfacet
  facet normal 0.684547 -0.728969 0
    outer loop
      vertex 12.3925 -11.6373 5
      vertex 10.8362 -13.0987 5
      vertex 12.3925 -11.6373 0
    endloop
  endfacet
  facet normal 0.770513 -0.637424 0
    outer loop
      vertex 12.3925 -11.6373 5
      vertex 12.3925 -11.6373 0
      vertex 13.7533 -9.99235 0
    endloop
  endfacet
  facet normal 0.770513 -0.637424 0
    outer loop
      vertex 13.7533 -9.99235 5
      vertex 12.3925 -11.6373 5
      vertex 13.7533 -9.99235 0
    endloop
  endfacet
  facet normal 0.844328 -0.535827 0
    outer loop
      vertex 13.7533 -9.99235 5
      vertex 13.7533 -9.99235 0
      vertex 14.8972 -8.18981 0
    endloop
  endfacet
  facet normal 0.844328 -0.535827 0
    outer loop
      vertex 14.8972 -8.18981 5
      vertex 13.7533 -9.99235 5
      vertex 14.8972 -8.18981 0
    endloop
  endfacet
  facet normal 0.904827 -0.425779 0
    outer loop
      vertex 14.8972 -8.18981 5
      vertex 14.8972 -8.18981 0
      vertex 15.8062 -6.25812 0
    endloop
  endfacet
  facet normal 0.904827 -0.425779 0
    outer loop
      vertex 15.8062 -6.25812 5
      vertex 14.8972 -8.18981 5
      vertex 15.8062 -6.25812 0
    endloop
  endfacet
  facet normal 0.951056 -0.309017 0
    outer loop
      vertex 15.8062 -6.25812 5
      vertex 15.8062 -6.25812 0
      vertex 16.4659 -4.22773 0
    endloop
  endfacet
  facet normal 0.951056 -0.309017 0
    outer loop
      vertex 16.4659 -4.22773 5
      vertex 15.8062 -6.25812 5
      vertex 16.4659 -4.22773 0
    endloop
  endfacet
  facet normal 0.982287 -0.187381 0
    outer loop
      vertex 16.4659 -4.22773 5
      vertex 16.4659 -4.22773 0
      vertex 16.8659 -2.13067 0
    endloop
  endfacet
  facet normal 0.982287 -0.187381 0
    outer loop
      vertex 16.8659 -2.13067 5
      vertex 16.4659 -4.22773 5
      vertex 16.8659 -2.13067 0
    endloop
  endfacet
  facet normal 0.998027 -0.0627905 0
    outer loop
      vertex 16.8659 -2.13067 5
      vertex 16.8659 -2.13067 0
      vertex 17 0 0
    endloop
  endfacet
  facet normal 0.998027 -0.0627905 0
    outer loop
      vertex 17 0 5
      vertex 16.8659 -2.13067 5
      vertex 17 0 0
    endloop
  endfacet
  facet normal 0.998027 0.0627905 0
    outer loop
      vertex 17 0 0
      vertex 16.8659 2.13067 0
      vertex 16.8659 2.13067 5
    endloop
  endfacet
  facet normal 0.998027 0.0627905 0
    outer loop
      vertex 17 0 5
      vertex 17 0 0
      vertex 16.8659 2.13067 5
    endloop
  endfacet
  facet normal 0.982287 0.187381 0
    outer loop
      vertex 16.8659 2.13067 0
      vertex 16.4659 4.22773 0
      vertex 16.4659 4.22773 5
    endloop
  endfacet
  facet normal 0.982287 0.187381 0
    outer loop
      vertex 16.8659 2.13067 5
      vertex 16.8659 2.13067 0
      vertex 16.4659 4.22773 5
    endloop
  endfacet
  facet normal 0.951056 0.309017 0
    outer loop
      vertex 16.4659 4.22773 0
      vertex 15.8062 6.25812 0
      vertex 15.8062 6.25812 5
    endloop
  endfacet
  facet normal 0.951056 0.309017 0
    outer loop
      vertex 16.4659 4.22773 5
      vertex 16.4659 4.22773 0
      vertex 15.8062 6.25812 5
    endloop
  endfacet
  facet normal 0.904827 0.425779 0
    outer loop
      vertex 15.8062 6.25812 0
      vertex 14.8972 8.18981 0
      vertex 14.8972 8.18981 5
    endloop
  endfacet
  facet normal 0.904827 0.425779 0
    outer loop
      vertex 15.8062 6.25812 5
      vertex 15.8062 6.25812 0
      vertex 14.8972 8.18981 5
    endloop
  endfacet
  facet normal 0.844328 0.535827 0
    outer loop
      vertex 14.8972 8.18981 0
      vertex 13.7533 9.99235 0
      vertex 13.7533 9.99235 5
    endloop
  endfacet
  facet normal 0.844328 0.535827 0
    outer loop
      vertex 14.8972 8.18981 5
      vertex 14.8972 8.18981 0
      vertex 13.7533 9.99235 5
    endloop
  endfacet
  facet normal 0.770513 0.637424 0
    outer loop
      vertex 13.7533 9.99235 0
      vertex 12.3925 11.6373 0
      vertex 12.3925 11.6373 5
    endloop
  endfacet
  facet normal 0.770513 0.637424 0
    outer loop
      vertex 13.7533 9.99235 5
      vertex 13.7533 9.99235 0
      vertex 12.3925 11.6373 5
    endloop
  endfacet
  facet normal 0.684547 0.728969 0
    outer loop
      vertex 10.8362 13.0987 0
      vertex 10.8362 13.0987 5
      vertex 12.3925 11.6373 0
    endloop
  endfacet
  facet normal 0.684547 0.728969 0
    outer loop
      vertex 12.3925 11.6373 0
      vertex 10.8362 13.0987 5
      vertex 12.3925 11.6373 5
    endloop
  endfacet
  facet normal 0.587785 0.809017 0
    outer loop
      vertex 9.10906 14.3536 0
      vertex 9.10906 14.3536 5
      vertex 10.8362 13.0987 0
    endloop
  endfacet
  facet normal 0.587785 0.809017 0
    outer loop
      vertex 10.8362 13.0987 0
      vertex 9.10906 14.3536 5
      vertex 10.8362 13.0987 5
    endloop
  endfacet
  facet normal 0.481754 0.876307 0
    outer loop
      vertex 7.23825 15.3821 0
      vertex 7.23825 15.3821 5
      vertex 9.10906 14.3536 0
    endloop
  endfacet
  facet normal 0.481754 0.876307 0
    outer loop
      vertex 9.10906 14.3536 0
      vertex 7.23825 15.3821 5
      vertex 9.10906 14.3536 5
    endloop
  endfacet
  facet normal 0.368125 0.929776 0
    outer loop
      vertex 5.25329 16.168 0
      vertex 5.25329 16.168 5
      vertex 7.23825 15.3821 0
    endloop
  endfacet
  facet normal 0.368125 0.929776 0
    outer loop
      vertex 7.23825 15.3821 0
      vertex 5.25329 16.168 5
      vertex 7.23825 15.3821 5
    endloop
  endfacet
  facet normal 0.24869 0.968583 0
    outer loop
      vertex 3.18548 16.6989 0
      vertex 3.18548 16.6989 5
      vertex 5.25329 16.168 0
    endloop
  endfacet
  facet normal 0.24869 0.968583 0
    outer loop
      vertex 5.25329 16.168 0
      vertex 3.18548 16.6989 5
      vertex 5.25329 16.168 5
    endloop
  endfacet
  facet normal 0.125333 0.992115 0
    outer loop
      vertex 1.06744 16.9665 0
      vertex 1.06744 16.9665 5
      vertex 3.18548 16.6989 0
    endloop
  endfacet
  facet normal 0.125333 0.992115 0
    outer loop
      vertex 3.18548 16.6989 0
      vertex 1.06744 16.9665 5
      vertex 3.18548 16.6989 5
    endloop
  endfacet
  facet normal 0 1 0
    outer loop
      vertex -1.06744 16.9665 0
      vertex -1.06744 16.9665 5
      vertex 1.06744 16.9665 0
    endloop
  endfacet
  facet normal 0 1 0
    outer loop
      vertex 1.06744 16.9665 0
      vertex -1.06744 16.9665 5
      vertex 1.06744 16.9665 5
    endloop
  endfacet
  facet normal -0.125333 0.992115 0
    outer loop
      vertex -3.18548 16.6989 0
      vertex -3.18548 16.6989 5
      vertex -1.06744 16.9665 0
    endloop
  endfacet
  facet normal -0.125333 0.992115 0
    outer loop
      vertex -1.06744 16.9665 0
      vertex -3.18548 16.6989 5
      vertex -1.06744 16.9665 5
    endloop
  endfacet
  facet normal -0.24869 0.968583 0
    outer loop
      vertex -5.25329 16.168 0
      vertex -5.25329 16.168 5
      vertex -3.18548 16.6989 0
    endloop
  endfacet
  facet normal -0.24869 0.968583 0
    outer loop
      vertex -3.18548 16.6989 0
      vertex -5.25329 16.168 5
      vertex -3.18548 16.6989 5
    endloop
  endfacet
  facet normal -0.368125 0.929776 0
    outer loop
      vertex -7.23825 15.3821 0
      vertex -7.23825 15.3821 5
      vertex -5.25329 16.168 0
    endloop
  endfacet
  facet normal -0.368125 0.929776 0
    outer loop
      vertex -5.25329 16.168 0
      vertex -7.23825 15.3821 5
      vertex -5.25329 16.168 5
    endloop
  endfacet
  facet normal -0.481754 0.876307 0
    outer loop
      vertex -9.10906 14.3536 0
      vertex -9.10906 14.3536 5
      vertex -7.23825 15.3821 0
    endloop
  endfacet
  facet normal -0.481754 0.876307 0
    outer loop
      vertex -7.23825 15.3821 0
      vertex -9.10906 14.3536 5
      vertex -7.23825 15.3821 5
    endloop
  endfacet
  facet normal -0.587785 0.809017 0
    outer loop
      vertex -10.8362 13.0987 0
      vertex -10.8362 13.0987 5
      vertex -9.10906 14.3536 0
    endloop
  endfacet
  facet normal -0.587785 0.809017 0
    outer loop
      vertex -9.10906 14.3536 0
      vertex -10.8362 13.0987 5
      vertex -9.10906 14.3536 5
    endloop
  endfacet
  facet normal -0.684547 0.728969 0
    outer loop
      vertex -12.3925 11.6373 0
      vertex -12.3925 11.6373 5
      vertex -10.8362 13.0987 0
    endloop
  endfacet
  facet normal -0.684547 0.728969 0
    outer loop
      vertex -10.8362 13.0987 0
      vertex -12.3925 11.6373 5
      vertex -10.8362 13.0987 5
    endloop
  endfacet
  facet normal -0.770513 0.637424 0
    outer loop
      vertex -13.7533 9.99235 0
      vertex -13.7533 9.99235 5
      vertex -12.3925 11.6373 0
    endloop
  endfacet
  facet normal -0.770513 0.637424 0
    outer loop
      vertex -12.3925 11.6373 0
      vertex -13.7533 9.99235 5
      vertex -12.3925 11.6373 5
    endloop
  endfacet
  facet normal -0.844328 0.535827 0
    outer loop
      vertex -14.8972 8.18981 0
      vertex -14.8972 8.18981 5
      vertex -13.7533 9.99235 0
    endloop
  endfacet
  facet normal -0.844328 0.535827 0
    outer loop
      vertex -13.7533 9.99235 0
      vertex -14.8972 8.18981 5
      vertex -13.7533 9.99235 5
    endloop
  endfacet
  facet normal -0.904827 0.425779 0
    outer loop
      vertex -15.8062 6.25812 0
      vertex -15.8062 6.25812 5
      vertex -14.8972 8.18981 0
    endloop
  endfacet
  facet normal -0.904827 0.425779 0
    outer loop
      vertex -14.8972 8.18981 0
      vertex -15.8062 6.25812 5
      vertex -14.8972 8.18981 5
    endloop
  endfacet
  facet normal -0.951056 0.309017 0
    outer loop
      vertex -16.4659 4.22773 0
      vertex -16.4659 4.22773 5
      vertex -15.8062 6.25812 0
    endloop
  endfacet
  facet normal -0.951056 0.309017 0
    outer loop
      vertex -15.8062 6.25812 0
      vertex -16.4659 4.22773 5
      vertex -15.8062 6.25812 5
    endloop
  endfacet
  facet normal -0.982287 0.187381 0
    outer loop
      vertex -16.8659 2.13067 0
      vertex -16.8659 2.13067 5
      vertex -16.4659 4.22773 0
    endloop
  endfacet
  facet normal -0.982287 0.187381 0
    outer loop
      vertex -16.4659 4.22773 0
      vertex -16.8659 2.13067 5
      vertex -16.4659 4.22773 5
    endloop
  endfacet
  facet normal 0 0 1
    outer loop
      vertex -16.8659 2.13067 5
      vertex -17 0 5
      vertex -16.8659 -2.13067 5
    endloop
  endfacet
  facet normal 0 0 1
    outer loop
      vertex -15.8062 -6.25812 5
      vertex -16.8659 2.13067 5
      vertex -16.4659 -4.22773 5
    endloop
  endfacet
  facet normal 0 0 1
    outer loop
      vertex -16.4659 -4.22773 5
      vertex -16.8659 2.13067 5
      vertex -16.8659 -2.13067 5
    endloop
  endfacet
  facet normal 0 0 1
    outer loop
      vertex -14.8972 -8.18981 5
      vertex -16.8659 2.13067 5
      vertex -15.8062 -6.25812 5
    endloop
  endfacet
  facet normal 0 0 1
    outer loop
      vertex -13.7533 -9.99235 5
      vertex -16.8659 2.13067 5
      vertex -14.8972 -8.18981 5
    endloop
  endfacet
  facet normal 0 0 1
    outer loop
      vertex -15.013 -3.85469 5
      vertex -16.8659 2.13067 5
      vertex -13.7533 -9.99235 5
    endloop
  endfacet
  facet normal 0 0 1
    outer loop
      vertex -0.973253 15.4694 5
      vertex 0.973253 15.4694 5
      vertex 1.06744 16.9665 5
    endloop
  endfacet
  facet normal 0 0 1
    outer loop
      vertex -12.5398 9.11067 5
      vertex -11.299 10.6105 5
      vertex -9.10906 14.3536 5
    endloop
  endfacet
  facet normal 0 0 1
    outer loop
      vertex -9.88007 11.943 5
      vertex -8.30532 13.0871 5
      vertex -7.23825 15.3821 5
    endloop
  endfacet
  facet normal 0 0 1
    outer loop
      vertex -12.3925 11.6373 5
      vertex -16.8659 2.13067 5
      vertex -10.8362 13.0987 5
    endloop
  endfacet
  facet normal 0 0 1
    outer loop
      vertex -13.7533 9.99235 5
      vertex -16.8659 2.13067 5
      vertex -12.3925 11.6373 5
    endloop
  endfacet
  facet normal 0 0 1
    outer loop
      vertex -14.8972 8.18981 5
      vertex -16.8659 2.13067 5
      vertex -13.7533 9.99235 5
    endloop
  endfacet
  facet normal 0 0 1
    outer loop
      vertex -15.8062 6.25812 5
      vertex -16.8659 2.13067 5
      vertex -14.8972 8.18981 5
    endloop
  endfacet
  facet normal 0 0 1
    outer loop
      vertex -16.4659 4.22773 5
      vertex -16.8659 2.13067 5
      vertex -15.8062 6.25812 5
    endloop
  endfacet
  facet normal 0 0 1
    outer loop
      vertex 9.88007 -11.943 5
      vertex 8.30532 -13.0871 5
      vertex 10.8362 -13.0987 5
    endloop
  endfacet
  facet normal 0 0 1
    outer loop
      vertex -8.30532 -13.0871 5
      vertex -9.88007 -11.943 5
      vertex -7.23825 -15.3821 5
    endloop
  endfacet
  facet normal 0 0 1
    outer loop
      vertex 14.4115 -5.70593 5
      vertex 13.5828 -7.46718 5
      vertex 15.8062 -6.25812 5
    endloop
  endfacet
  facet normal 0 0 1
    outer loop
      vertex 0.973253 15.4694 5
      vertex 2.90441 15.2255 5
      vertex 3.18548 16.6989 5
    endloop
  endfacet
  facet normal 0 0 1
    outer loop
      vertex -8.30532 13.0871 5
      vertex -6.59958 14.0248 5
      vertex -5.25329 16.168 5
    endloop
  endfacet
  facet normal 0 0 1
    outer loop
      vertex -4.78976 14.7414 5
      vertex -2.90441 15.2255 5
      vertex -1.06744 16.9665 5
    endloop
  endfacet
  facet normal 0 0 1
    outer loop
      vertex -10.8362 13.0987 5
      vertex -16.8659 2.13067 5
      vertex -13.5828 7.46718 5
    endloop
  endfacet
  facet normal 0 0 1
    outer loop
      vertex -10.8362 13.0987 5
      vertex -12.5398 9.11067 5
      vertex -9.10906 14.3536 5
    endloop
  endfacet
  facet normal 0 0 1
    outer loop
      vertex -10.8362 13.0987 5
      vertex -13.5828 7.46718 5
      vertex -12.5398 9.11067 5
    endloop
  endfacet
  facet normal 0 0 1
    outer loop
      vertex -9.10906 14.3536 5
      vertex -11.299 10.6105 5
      vertex -7.23825 15.3821 5
    endloop
  endfacet
  facet normal 0 0 1
    outer loop
      vertex -11.299 10.6105 5
      vertex -9.88007 11.943 5
      vertex -7.23825 15.3821 5
    endloop
  endfacet
  facet normal 0 0 1
    outer loop
      vertex -7.23825 15.3821 5
      vertex -8.30532 13.0871 5
      vertex -5.25329 16.168 5
    endloop
  endfacet
  facet normal 0 0 1
    outer loop
      vertex -14.4115 5.70593 5
      vertex -13.5828 7.46718 5
      vertex -16.8659 2.13067 5
    endloop
  endfacet
  facet normal 0 0 1
    outer loop
      vertex -5.25329 16.168 5
      vertex -6.59958 14.0248 5
      vertex -3.18548 16.6989 5
    endloop
  endfacet
  facet normal 0 0 1
    outer loop
      vertex -3.18548 16.6989 5
      vertex -4.78976 14.7414 5
      vertex -1.06744 16.9665 5
    endloop
  endfacet
  facet normal 0 0 1
    outer loop
      vertex -1.06744 16.9665 5
      vertex -2.90441 15.2255 5
      vertex 1.06744 16.9665 5
    endloop
  endfacet
  facet normal 0 0 1
    outer loop
      vertex -2.90441 15.2255 5
      vertex -0.973253 15.4694 5
      vertex 1.06744 16.9665 5
    endloop
  endfacet
  facet normal 0 0 1
    outer loop
      vertex 1.06744 16.9665 5
      vertex 0.973253 15.4694 5
      vertex 3.18548 16.6989 5
    endloop
  endfacet
  facet normal 0 0 1
    outer loop
      vertex -6.59958 14.0248 5
      vertex -4.78976 14.7414 5
      vertex -3.18548 16.6989 5
    endloop
  endfacet
  facet normal 0 0 1
    outer loop
      vertex 3.18548 16.6989 5
      vertex 2.90441 15.2255 5
      vertex 5.25329 16.168 5
    endloop
  endfacet
  facet normal 0 0 1
    outer loop
      vertex 5.25329 16.168 5
      vertex 4.78976 14.7414 5
      vertex 7.23825 15.3821 5
    endloop
  endfacet
  facet normal 0 0 1
    outer loop
      vertex -2.90441 -15.2255 5
      vertex -4.78976 -14.7414 5
      vertex -3.18548 -16.6989 5
    endloop
  endfacet
  facet normal 0 0 1
    outer loop
      vertex 7.23825 15.3821 5
      vertex 6.59958 14.0248 5
      vertex 9.10906 14.3536 5
    endloop
  endfacet
  facet normal 0 0 1
    outer loop
      vertex -15.013 3.85469 5
      vertex -14.4115 5.70593 5
      vertex -16.8659 2.13067 5
    endloop
  endfacet
  facet normal 0 0 1
    outer loop
      vertex 9.10906 14.3536 5
      vertex 8.30532 13.0871 5
      vertex 10.8362 13.0987 5
    endloop
  endfacet
  facet normal 0 0 1
    outer loop
      vertex 10.8362 13.0987 5
      vertex 9.88007 11.943 5
      vertex 12.3925 11.6373 5
    endloop
  endfacet
  facet normal 0 0 1
    outer loop
      vertex 12.3925 11.6373 5
      vertex 11.299 10.6105 5
      vertex 13.7533 9.99235 5
    endloop
  endfacet
  facet normal 0 0 1
    outer loop
      vertex 13.7533 9.99235 5
      vertex 12.5398 9.11067 5
      vertex 14.8972 8.18981 5
    endloop
  endfacet
  facet normal 0 0 1
    outer loop
      vertex 14.8972 8.18981 5
      vertex 13.5828 7.46718 5
      vertex 15.8062 6.25812 5
    endloop
  endfacet
  facet normal 0 0 1
    outer loop
      vertex 15.8062 6.25812 5
      vertex 14.4115 5.70593 5
      vertex 16.4659 4.22773 5
    endloop
  endfacet
  facet normal 0 0 1
    outer loop
      vertex 16.4659 4.22773 5
      vertex 15.013 3.85469 5
      vertex 16.8659 2.13067 5
    endloop
  endfacet
  facet normal 0 0 1
    outer loop
      vertex 16.8659 2.13067 5
      vertex 15.3778 1.94266 5
      vertex 17 0 5
    endloop
  endfacet
  facet normal 0 0 1
    outer loop
      vertex 17 0 5
      vertex 15.5 0 5
      vertex 16.8659 -2.13067 5
    endloop
  endfacet
  facet normal 0 0 1
    outer loop
      vertex 15.5 0 5
      vertex 15.3778 -1.94266 5
      vertex 16.8659 -2.13067 5
    endloop
  endfacet
  facet normal 0 0 1
    outer loop
      vertex 16.8659 -2.13067 5
      vertex 15.013 -3.85469 5
      vertex 16.4659 -4.22773 5
    endloop
  endfacet
  facet normal 0 0 1
    outer loop
      vertex 16.4659 -4.22773 5
      vertex 14.4115 -5.70593 5
      vertex 15.8062 -6.25812 5
    endloop
  endfacet
  facet normal 0 0 1
    outer loop
      vertex 2.90441 15.2255 5
      vertex 4.78976 14.7414 5
      vertex 5.25329 16.168 5
    endloop
  endfacet
  facet normal 0 0 1
    outer loop
      vertex 15.8062 -6.25812 5
      vertex 13.5828 -7.46718 5
      vertex 14.8972 -8.18981 5
    endloop
  endfacet
  facet normal 0 0 1
    outer loop
      vertex 4.78976 14.7414 5
      vertex 6.59958 14.0248 5
      vertex 7.23825 15.3821 5
    endloop
  endfacet
  facet normal 0 0 1
    outer loop
      vertex 14.8972 -8.18981 5
      vertex 12.5398 -9.11067 5
      vertex 13.7533 -9.99235 5
    endloop
  endfacet
  facet normal 0 0 1
    outer loop
      vertex 6.59958 14.0248 5
      vertex 8.30532 13.0871 5
      vertex 9.10906 14.3536 5
    endloop
  endfacet
  facet normal 0 0 1
    outer loop
      vertex 13.7533 -9.99235 5
      vertex 11.299 -10.6105 5
      vertex 12.3925 -11.6373 5
    endloop
  endfacet
  facet normal 0 0 1
    outer loop
      vertex 8.30532 13.0871 5
      vertex 9.88007 11.943 5
      vertex 10.8362 13.0987 5
    endloop
  endfacet
  facet normal 0 0 1
    outer loop
      vertex 12.3925 -11.6373 5
      vertex 9.88007 -11.943 5
      vertex 10.8362 -13.0987 5
    endloop
  endfacet
  facet normal 0 0 1
    outer loop
      vertex 9.88007 11.943 5
      vertex 11.299 10.6105 5
      vertex 12.3925 11.6373 5
    endloop
  endfacet
  facet normal 0 0 1
    outer loop
      vertex 10.8362 -13.0987 5
      vertex 8.30532 -13.0871 5
      vertex 9.10906 -14.3536 5
    endloop
  endfacet
  facet normal 0 0 1
    outer loop
      vertex 11.299 10.6105 5
      vertex 12.5398 9.11067 5
      vertex 13.7533 9.99235 5
    endloop
  endfacet
  facet normal 0 0 1
    outer loop
      vertex 9.10906 -14.3536 5
      vertex 6.59958 -14.0248 5
      vertex 7.23825 -15.3821 5
    endloop
  endfacet
  facet normal 0 0 1
    outer loop
      vertex 12.5398 9.11067 5
      vertex 13.5828 7.46718 5
      vertex 14.8972 8.18981 5
    endloop
  endfacet
  facet normal 0 0 1
    outer loop
      vertex 7.23825 -15.3821 5
      vertex 4.78976 -14.7414 5
      vertex 5.25329 -16.168 5
    endloop
  endfacet
  facet normal 0 0 1
    outer loop
      vertex 13.5828 7.46718 5
      vertex 14.4115 5.70593 5
      vertex 15.8062 6.25812 5
    endloop
  endfacet
  facet normal 0 0 1
    outer loop
      vertex 5.25329 -16.168 5
      vertex 2.90441 -15.2255 5
      vertex 3.18548 -16.6989 5
    endloop
  endfacet
  facet normal 0 0 1
    outer loop
      vertex 14.4115 5.70593 5
      vertex 15.013 3.85469 5
      vertex 16.4659 4.22773 5
    endloop
  endfacet
  facet normal 0 0 1
    outer loop
      vertex 3.18548 -16.6989 5
      vertex 0.973253 -15.4694 5
      vertex 1.06744 -16.9665 5
    endloop
  endfacet
  facet normal 0 0 1
    outer loop
      vertex 15.013 3.85469 5
      vertex 15.3778 1.94266 5
      vertex 16.8659 2.13067 5
    endloop
  endfacet
  facet normal 0 0 1
    outer loop
      vertex 1.06744 -16.9665 5
      vertex -0.973253 -15.4694 5
      vertex -1.06744 -16.9665 5
    endloop
  endfacet
  facet normal 0 0 1
    outer loop
      vertex 15.3778 1.94266 5
      vertex 15.5 0 5
      vertex 17 0 5
    endloop
  endfacet
  facet normal 0 0 1
    outer loop
      vertex -1.06744 -16.9665 5
      vertex -2.90441 -15.2255 5
      vertex -3.18548 -16.6989 5
    endloop
  endfacet
  facet normal 0 0 1
    outer loop
      vertex 15.3778 -1.94266 5
      vertex 15.013 -3.85469 5
      vertex 16.8659 -2.13067 5
    endloop
  endfacet
  facet normal 0 0 1
    outer loop
      vertex -3.18548 -16.6989 5
      vertex -4.78976 -14.7414 5
      vertex -5.25329 -16.168 5
    endloop
  endfacet
  facet normal 0 0 1
    outer loop
      vertex -4.78976 -14.7414 5
      vertex -6.59958 -14.0248 5
      vertex -5.25329 -16.168 5
    endloop
  endfacet
  facet normal 0 0 1
    outer loop
      vertex -5.25329 -16.168 5
      vertex -8.30532 -13.0871 5
      vertex -7.23825 -15.3821 5
    endloop
  endfacet
  facet normal 0 0 1
    outer loop
      vertex 13.5828 -7.46718 5
      vertex 12.5398 -9.11067 5
      vertex 14.8972 -8.18981 5
    endloop
  endfacet
  facet normal 0 0 1
    outer loop
      vertex -7.23825 -15.3821 5
      vertex -9.88007 -11.943 5
      vertex -9.10906 -14.3536 5
    endloop
  endfacet
  facet normal 0 0 1
    outer loop
      vertex 12.5398 -9.11067 5
      vertex 11.299 -10.6105 5
      vertex 13.7533 -9.99235 5
    endloop
  endfacet
  facet normal 0 0 1
    outer loop
      vertex -9.10906 -14.3536 5
      vertex -11.299 -10.6105 5
      vertex -10.8362 -13.0987 5
    endloop
  endfacet
  facet normal 0 0 1
    outer loop
      vertex 11.299 -10.6105 5
      vertex 9.88007 -11.943 5
      vertex 12.3925 -11.6373 5
    endloop
  endfacet
  facet normal 0 0 1
    outer loop
      vertex -10.8362 -13.0987 5
      vertex -12.5398 -9.11067 5
      vertex -12.3925 -11.6373 5
    endloop
  endfacet
  facet normal 0 0 1
    outer loop
      vertex -12.5398 -9.11067 5
      vertex -13.5828 -7.46718 5
      vertex -12.3925 -11.6373 5
    endloop
  endfacet
  facet normal 0 0 1
    outer loop
      vertex -12.3925 -11.6373 5
      vertex -14.4115 -5.70593 5
      vertex -13.7533 -9.99235 5
    endloop
  endfacet
  facet normal 0 0 1
    outer loop
      vertex -9.88007 -11.943 5
      vertex -11.299 -10.6105 5
      vertex -9.10906 -14.3536 5
    endloop
  endfacet
  facet normal 0 0 1
    outer loop
      vertex -14.4115 -5.70593 5
      vertex -15.013 -3.85469 5
      vertex -13.7533 -9.99235 5
    endloop
  endfacet
  facet normal 0 0 1
    outer loop
      vertex -15.013 -3.85469 5
      vertex -15.3778 -1.94266 5
      vertex -16.8659 2.13067 5
    endloop
  endfacet
  facet normal 0 0 1
    outer loop
      vertex -13.5828 -7.46718 5
      vertex -14.4115 -5.70593 5
      vertex -12.3925 -11.6373 5
    endloop
  endfacet
  facet normal 0 0 1
    outer loop
      vertex -15.3778 -1.94266 5
      vertex -15.5 0 5
      vertex -16.8659 2.13067 5
    endloop
  endfacet
  facet normal 0 0 1
    outer loop
      vertex 8.30532 -13.0871 5
      vertex 6.59958 -14.0248 5
      vertex 9.10906 -14.3536 5
    endloop
  endfacet
  facet normal 0 0 1
    outer loop
      vertex 6.59958 -14.0248 5
      vertex 4.78976 -14.7414 5
      vertex 7.23825 -15.3821 5
    endloop
  endfacet
  facet normal 0 0 1
    outer loop
      vertex 4.78976 -14.7414 5
      vertex 2.90441 -15.2255 5
      vertex 5.25329 -16.168 5
    endloop
  endfacet
  facet normal 0 0 1
    outer loop
      vertex 2.90441 -15.2255 5
      vertex 0.973253 -15.4694 5
      vertex 3.18548 -16.6989 5
    endloop
  endfacet
  facet normal 0 0 1
    outer loop
      vertex 0.973253 -15.4694 5
      vertex -0.973253 -15.4694 5
      vertex 1.06744 -16.9665 5
    endloop
  endfacet
  facet normal 0 0 1
    outer loop
      vertex -0.973253 -15.4694 5
      vertex -2.90441 -15.2255 5
      vertex -1.06744 -16.9665 5
    endloop
  endfacet
  facet normal 0 0 1
    outer loop
      vertex -11.299 -10.6105 5
      vertex -12.5398 -9.11067 5
      vertex -10.8362 -13.0987 5
    endloop
  endfacet
  facet normal 0 0 1
    outer loop
      vertex -6.59958 -14.0248 5
      vertex -8.30532 -13.0871 5
      vertex -5.25329 -16.168 5
    endloop
  endfacet
  facet normal 0 0 1
    outer loop
      vertex -15.5 0 5
      vertex -15.3778 1.94266 5
      vertex -16.8659 2.13067 5
    endloop
  endfacet
  facet normal 0 0 1
    outer loop
      vertex 15.013 -3.85469 5
      vertex 14.4115 -5.70593 5
      vertex 16.4659 -4.22773 5
    endloop
  endfacet
  facet normal 0 0 1
    outer loop
      vertex -15.3778 1.94266 5
      vertex -15.013 3.85469 5
      vertex -16.8659 2.13067 5
    endloop
  endfacet
  facet normal 0.998027 0.0627905 0
    outer loop
      vertex -15.5 0 5
      vertex -15.3778 -1.94266 5
      vertex -15.3778 -1.94266 3
    endloop
  endfacet
  facet normal 0.998027 0.0627905 0
    outer loop
      vertex -15.5 0 3
      vertex -15.5 0 5
      vertex -15.3778 -1.94266 3
    endloop
  endfacet
  facet normal 0.982287 0.187381 0
    outer loop
      vertex -15.3778 -1.94266 5
      vertex -15.013 -3.85469 5
      vertex -15.013 -3.85469 3
    endloop
  endfacet
  facet normal 0.982287 0.187381 0
    outer loop
      vertex -15.3778 -1.94266 3
      vertex -15.3778 -1.94266 5
      vertex -15.013 -3.85469 3
    endloop
  endfacet
  facet normal 0.951057 0.309017 0
    outer loop
      vertex -15.013 -3.85469 5
      vertex -14.4115 -5.70593 5
      vertex -14.4115 -5.70593 3
    endloop
  endfacet
  facet normal 0.951057 0.309017 0
    outer loop
      vertex -15.013 -3.85469 3
      vertex -15.013 -3.85469 5
      vertex -14.4115 -5.70593 3
    endloop
  endfacet
  facet normal 0.904827 0.425779 0
    outer loop
      vertex -14.4115 -5.70593 5
      vertex -13.5828 -7.46718 5
      vertex -13.5828 -7.46718 3
    endloop
  endfacet
  facet normal 0.904827 0.425779 0
    outer loop
      vertex -14.4115 -5.70593 3
      vertex -14.4115 -5.70593 5
      vertex -13.5828 -7.46718 3
    endloop
  endfacet
  facet normal 0.844328 0.535827 0
    outer loop
      vertex -13.5828 -7.46718 5
      vertex -12.5398 -9.11067 5
      vertex -12.5398 -9.11067 3
    endloop
  endfacet
  facet normal 0.844328 0.535827 0
    outer loop
      vertex -13.5828 -7.46718 3
      vertex -13.5828 -7.46718 5
      vertex -12.5398 -9.11067 3
    endloop
  endfacet
  facet normal 0.770513 0.637424 0
    outer loop
      vertex -12.5398 -9.11067 5
      vertex -11.299 -10.6105 5
      vertex -11.299 -10.6105 3
    endloop
  endfacet
  facet normal 0.770513 0.637424 0
    outer loop
      vertex -12.5398 -9.11067 3
      vertex -12.5398 -9.11067 5
      vertex -11.299 -10.6105 3
    endloop
  endfacet
  facet normal 0.684547 0.728969 0
    outer loop
      vertex -9.88007 -11.943 5
      vertex -9.88007 -11.943 3
      vertex -11.299 -10.6105 5
    endloop
  endfacet
  facet normal 0.684547 0.728969 0
    outer loop
      vertex -11.299 -10.6105 5
      vertex -9.88007 -11.943 3
      vertex -11.299 -10.6105 3
    endloop
  endfacet
  facet normal 0.587785 0.809017 0
    outer loop
      vertex -8.30532 -13.0871 5
      vertex -8.30532 -13.0871 3
      vertex -9.88007 -11.943 5
    endloop
  endfacet
  facet normal 0.587785 0.809017 0
    outer loop
      vertex -9.88007 -11.943 5
      vertex -8.30532 -13.0871 3
      vertex -9.88007 -11.943 3
    endloop
  endfacet
  facet normal 0.481754 0.876307 0
    outer loop
      vertex -6.59958 -14.0248 5
      vertex -6.59958 -14.0248 3
      vertex -8.30532 -13.0871 5
    endloop
  endfacet
  facet normal 0.481754 0.876307 0
    outer loop
      vertex -8.30532 -13.0871 5
      vertex -6.59958 -14.0248 3
      vertex -8.30532 -13.0871 3
    endloop
  endfacet
  facet normal 0.368125 0.929776 0
    outer loop
      vertex -4.78976 -14.7414 5
      vertex -4.78976 -14.7414 3
      vertex -6.59958 -14.0248 5
    endloop
  endfacet
  facet normal 0.368125 0.929776 0
    outer loop
      vertex -6.59958 -14.0248 5
      vertex -4.78976 -14.7414 3
      vertex -6.59958 -14.0248 3
    endloop
  endfacet
  facet normal 0.24869 0.968583 0
    outer loop
      vertex -2.90441 -15.2255 5
      vertex -2.90441 -15.2255 3
      vertex -4.78976 -14.7414 5
    endloop
  endfacet
  facet normal 0.24869 0.968583 0
    outer loop
      vertex -4.78976 -14.7414 5
      vertex -2.90441 -15.2255 3
      vertex -4.78976 -14.7414 3
    endloop
  endfacet
  facet normal 0.125333 0.992115 0
    outer loop
      vertex -0.973253 -15.4694 5
      vertex -0.973253 -15.4694 3
      vertex -2.90441 -15.2255 5
    endloop
  endfacet
  facet normal 0.125333 0.992115 0
    outer loop
      vertex -2.90441 -15.2255 5
      vertex -0.973253 -15.4694 3
      vertex -2.90441 -15.2255 3
    endloop
  endfacet
  facet normal 0 1 0
    outer loop
      vertex 0.973253 -15.4694 5
      vertex 0.973253 -15.4694 3
      vertex -0.973253 -15.4694 5
    endloop
  endfacet
  facet normal 0 1 0
    outer loop
      vertex -0.973253 -15.4694 5
      vertex 0.973253 -15.4694 3
      vertex -0.973253 -15.4694 3
    endloop
  endfacet
  facet normal -0.125333 0.992115 0
    outer loop
      vertex 2.90441 -15.2255 5
      vertex 2.90441 -15.2255 3
      vertex 0.973253 -15.4694 5
    endloop
  endfacet
  facet normal -0.125333 0.992115 0
    outer loop
      vertex 0.973253 -15.4694 5
      vertex 2.90441 -15.2255 3
      vertex 0.973253 -15.4694 3
    endloop
  endfacet
  facet normal -0.24869 0.968583 0
    outer loop
      vertex 4.78976 -14.7414 5
      vertex 4.78976 -14.7414 3
      vertex 2.90441 -15.2255 5
    endloop
  endfacet
  facet normal -0.24869 0.968583 0
    outer loop
      vertex 2.90441 -15.2255 5
      vertex 4.78976 -14.7414 3
      vertex 2.90441 -15.2255 3
    endloop
  endfacet
  facet normal -0.368125 0.929776 0
    outer loop
      vertex 6.59958 -14.0248 5
      vertex 6.59958 -14.0248 3
      vertex 4.78976 -14.7414 5
    endloop
  endfacet
  facet normal -0.368125 0.929776 0
    outer loop
      vertex 4.78976 -14.7414 5
      vertex 6.59958 -14.0248 3
      vertex 4.78976 -14.7414 3
    endloop
  endfacet
  facet normal -0.481754 0.876307 0
    outer loop
      vertex 8.30532 -13.0871 5
      vertex 8.30532 -13.0871 3
      vertex 6.59958 -14.0248 5
    endloop
  endfacet
  facet normal -0.481754 0.876307 0
    outer loop
      vertex 6.59958 -14.0248 5
      vertex 8.30532 -13.0871 3
      vertex 6.59958 -14.0248 3
    endloop
  endfacet
  facet normal -0.587785 0.809017 0
    outer loop
      vertex 9.88007 -11.943 5
      vertex 9.88007 -11.943 3
      vertex 8.30532 -13.0871 5
    endloop
  endfacet
  facet normal -0.587785 0.809017 0
    outer loop
      vertex 8.30532 -13.0871 5
      vertex 9.88007 -11.943 3
      vertex 8.30532 -13.0871 3
    endloop
  endfacet
  facet normal -0.684547 0.728969 0
    outer loop
      vertex 11.299 -10.6105 5
      vertex 11.299 -10.6105 3
      vertex 9.88007 -11.943 5
    endloop
  endfacet
  facet normal -0.684547 0.728969 0
    outer loop
      vertex 9.88007 -11.943 5
      vertex 11.299 -10.6105 3
      vertex 9.88007 -11.943 3
    endloop
  endfacet
  facet normal -0.770513 0.637424 0
    outer loop
      vertex 12.5398 -9.11067 5
      vertex 12.5398 -9.11067 3
      vertex 11.299 -10.6105 5
    endloop
  endfacet
  facet normal -0.770513 0.637424 0
    outer loop
      vertex 11.299 -10.6105 5
      vertex 12.5398 -9.11067 3
      vertex 11.299 -10.6105 3
    endloop
  endfacet
  facet normal -0.844328 0.535827 0
    outer loop
      vertex 13.5828 -7.46718 5
      vertex 13.5828 -7.46718 3
      vertex 12.5398 -9.11067 5
    endloop
  endfacet
  facet normal -0.844328 0.535827 0
    outer loop
      vertex 12.5398 -9.11067 5
      vertex 13.5828 -7.46718 3
      vertex 12.5398 -9.11067 3
    endloop
  endfacet
  facet normal -0.904827 0.425779 0
    outer loop
      vertex 14.4115 -5.70593 5
      vertex 14.4115 -5.70593 3
      vertex 13.5828 -7.46718 5
    endloop
  endfacet
  facet normal -0.904827 0.425779 0
    outer loop
      vertex 13.5828 -7.46718 5
      vertex 14.4115 -5.70593 3
      vertex 13.5828 -7.46718 3
    endloop
  endfacet
  facet normal -0.951057 0.309017 0
    outer loop
      vertex 15.013 -3.85469 5
      vertex 15.013 -3.85469 3
      vertex 14.4115 -5.70593 5
    endloop
  endfacet
  facet normal -0.951057 0.309017 0
    outer loop
      vertex 14.4115 -5.70593 5
      vertex 15.013 -3.85469 3
      vertex 14.4115 -5.70593 3
    endloop
  endfacet
  facet normal -0.982287 0.187381 0
    outer loop
      vertex 15.3778 -1.94266 5
      vertex 15.3778 -1.94266 3
      vertex 15.013 -3.85469 5
    endloop
  endfacet
  facet normal -0.982287 0.187381 0
    outer loop
      vertex 15.013 -3.85469 5
      vertex 15.3778 -1.94266 3
      vertex 15.013 -3.85469 3
    endloop
  endfacet
  facet normal -0.998027 0.0627905 0
    outer loop
      vertex 15.5 0 5
      vertex 15.5 0 3
      vertex 15.3778 -1.94266 5
    endloop
  endfacet
  facet normal -0.998027 0.0627905 0
    outer loop
      vertex 15.3778 -1.94266 5
      vertex 15.5 0 3
      vertex 15.3778 -1.94266 3
    endloop
  endfacet
  facet normal -0.998027 -0.0627905 0
    outer loop
      vertex 15.5 0 5
      vertex 15.3778 1.94266 5
      vertex 15.5 0 3
    endloop
  endfacet
  facet normal -0.998027 -0.0627905 0
    outer loop
      vertex 15.5 0 3
      vertex 15.3778 1.94266 5
      vertex 15.3778 1.94266 3
    endloop
  endfacet
  facet normal -0.982287 -0.187381 0
    outer loop
      vertex 15.3778 1.94266 5
      vertex 15.013 3.85469 5
      vertex 15.3778 1.94266 3
    endloop
  endfacet
  facet normal -0.982287 -0.187381 0
    outer loop
      vertex 15.3778 1.94266 3
      vertex 15.013 3.85469 5
      vertex 15.013 3.85469 3
    endloop
  endfacet
  facet normal -0.951057 -0.309017 0
    outer loop
      vertex 15.013 3.85469 5
      vertex 14.4115 5.70593 5
      vertex 15.013 3.85469 3
    endloop
  endfacet
  facet normal -0.951057 -0.309017 0
    outer loop
      vertex 15.013 3.85469 3
      vertex 14.4115 5.70593 5
      vertex 14.4115 5.70593 3
    endloop
  endfacet
  facet normal -0.904827 -0.425779 0
    outer loop
      vertex 14.4115 5.70593 5
      vertex 13.5828 7.46718 5
      vertex 14.4115 5.70593 3
    endloop
  endfacet
  facet normal -0.904827 -0.425779 0
    outer loop
      vertex 14.4115 5.70593 3
      vertex 13.5828 7.46718 5
      vertex 13.5828 7.46718 3
    endloop
  endfacet
  facet normal -0.844328 -0.535827 0
    outer loop
      vertex 13.5828 7.46718 5
      vertex 12.5398 9.11067 5
      vertex 13.5828 7.46718 3
    endloop
  endfacet
  facet normal -0.844328 -0.535827 0
    outer loop
      vertex 13.5828 7.46718 3
      vertex 12.5398 9.11067 5
      vertex 12.5398 9.11067 3
    endloop
  endfacet
  facet normal -0.770513 -0.637424 0
    outer loop
      vertex 12.5398 9.11067 5
      vertex 11.299 10.6105 5
      vertex 12.5398 9.11067 3
    endloop
  endfacet
  facet normal -0.770513 -0.637424 0
    outer loop
      vertex 12.5398 9.11067 3
      vertex 11.299 10.6105 5
      vertex 11.299 10.6105 3
    endloop
  endfacet
  facet normal -0.684547 -0.728969 0
    outer loop
      vertex 11.299 10.6105 3
      vertex 11.299 10.6105 5
      vertex 9.88007 11.943 5
    endloop
  endfacet
  facet normal -0.684547 -0.728969 0
    outer loop
      vertex 9.88007 11.943 3
      vertex 11.299 10.6105 3
      vertex 9.88007 11.943 5
    endloop
  endfacet
  facet normal -0.587785 -0.809017 0
    outer loop
      vertex 9.88007 11.943 3
      vertex 9.88007 11.943 5
      vertex 8.30532 13.0871 5
    endloop
  endfacet
  facet normal -0.587785 -0.809017 0
    outer loop
      vertex 8.30532 13.0871 3
      vertex 9.88007 11.943 3
      vertex 8.30532 13.0871 5
    endloop
  endfacet
  facet normal -0.481754 -0.876307 0
    outer loop
      vertex 8.30532 13.0871 3
      vertex 8.30532 13.0871 5
      vertex 6.59958 14.0248 5
    endloop
  endfacet
  facet normal -0.481754 -0.876307 0
    outer loop
      vertex 6.59958 14.0248 3
      vertex 8.30532 13.0871 3
      vertex 6.59958 14.0248 5
    endloop
  endfacet
  facet normal -0.368125 -0.929776 0
    outer loop
      vertex 6.59958 14.0248 3
      vertex 6.59958 14.0248 5
      vertex 4.78976 14.7414 5
    endloop
  endfacet
  facet normal -0.368125 -0.929776 0
    outer loop
      vertex 4.78976 14.7414 3
      vertex 6.59958 14.0248 3
      vertex 4.78976 14.7414 5
    endloop
  endfacet
  facet normal -0.24869 -0.968583 0
    outer loop
      vertex 4.78976 14.7414 3
      vertex 4.78976 14.7414 5
      vertex 2.90441 15.2255 5
    endloop
  endfacet
  facet normal -0.24869 -0.968583 0
    outer loop
      vertex 2.90441 15.2255 3
      vertex 4.78976 14.7414 3
      vertex 2.90441 15.2255 5
    endloop
  endfacet
  facet normal -0.125333 -0.992115 0
    outer loop
      vertex 2.90441 15.2255 3
      vertex 2.90441 15.2255 5
      vertex 0.973253 15.4694 5
    endloop
  endfacet
  facet normal -0.125333 -0.992115 0
    outer loop
      vertex 0.973253 15.4694 3
      vertex 2.90441 15.2255 3
      vertex 0.973253 15.4694 5
    endloop
  endfacet
  facet normal 0 -1 0
    outer loop
      vertex 0.973253 15.4694 3
      vertex 0.973253 15.4694 5
      vertex -0.973253 15.4694 5
    endloop
  endfacet
  facet normal 0 -1 0
    outer loop
      vertex -0.973253 15.4694 3
      vertex 0.973253 15.4694 3
      vertex -0.973253 15.4694 5
    endloop
  endfacet
  facet normal 0.125333 -0.992115 0
    outer loop
      vertex -0.973253 15.4694 3
      vertex -0.973253 15.4694 5
      vertex -2.90441 15.2255 5
    endloop
  endfacet
  facet normal 0.125333 -0.992115 0
    outer loop
      vertex -2.90441 15.2255 3
      vertex -0.973253 15.4694 3
      vertex -2.90441 15.2255 5
    endloop
  endfacet
  facet normal 0.24869 -0.968583 0
    outer loop
      vertex -2.90441 15.2255 3
      vertex -2.90441 15.2255 5
      vertex -4.78976 14.7414 5
    endloop
  endfacet
  facet normal 0.24869 -0.968583 0
    outer loop
      vertex -4.78976 14.7414 3
      vertex -2.90441 15.2255 3
      vertex -4.78976 14.7414 5
    endloop
  endfacet
  facet normal 0.368125 -0.929776 0
    outer loop
      vertex -4.78976 14.7414 3
      vertex -4.78976 14.7414 5
      vertex -6.59958 14.0248 5
    endloop
  endfacet
  facet normal 0.368125 -0.929776 0
    outer loop
      vertex -6.59958 14.0248 3
      vertex -4.78976 14.7414 3
      vertex -6.59958 14.0248 5
    endloop
  endfacet
  facet normal 0.481754 -0.876307 0
    outer loop
      vertex -6.59958 14.0248 3
      vertex -6.59958 14.0248 5
      vertex -8.30532 13.0871 5
    endloop
  endfacet
  facet normal 0.481754 -0.876307 0
    outer loop
      vertex -8.30532 13.0871 3
      vertex -6.59958 14.0248 3
      vertex -8.30532 13.0871 5
    endloop
  endfacet
  facet normal 0.587785 -0.809017 0
    outer loop
      vertex -8.30532 13.0871 3
      vertex -8.30532 13.0871 5
      vertex -9.88007 11.943 5
    endloop
  endfacet
  facet normal 0.587785 -0.809017 0
    outer loop
      vertex -9.88007 11.943 3
      vertex -8.30532 13.0871 3
      vertex -9.88007 11.943 5
    endloop
  endfacet
  facet normal 0.684547 -0.728969 0
    outer loop
      vertex -9.88007 11.943 3
      vertex -9.88007 11.943 5
      vertex -11.299 10.6105 5
    endloop
  endfacet
  facet normal 0.684547 -0.728969 0
    outer loop
      vertex -11.299 10.6105 3
      vertex -9.88007 11.943 3
      vertex -11.299 10.6105 5
    endloop
  endfacet
  facet normal 0.770513 -0.637424 0
    outer loop
      vertex -11.299 10.6105 3
      vertex -11.299 10.6105 5
      vertex -12.5398 9.11067 5
    endloop
  endfacet
  facet normal 0.770513 -0.637424 0
    outer loop
      vertex -12.5398 9.11067 3
      vertex -11.299 10.6105 3
      vertex -12.5398 9.11067 5
    endloop
  endfacet
  facet normal 0.844328 -0.535827 0
    outer loop
      vertex -12.5398 9.11067 3
      vertex -12.5398 9.11067 5
      vertex -13.5828 7.46718 5
    endloop
  endfacet
  facet normal 0.844328 -0.535827 0
    outer loop
      vertex -13.5828 7.46718 3
      vertex -12.5398 9.11067 3
      vertex -13.5828 7.46718 5
    endloop
  endfacet
  facet normal 0.904827 -0.425779 0
    outer loop
      vertex -13.5828 7.46718 3
      vertex -13.5828 7.46718 5
      vertex -14.4115 5.70593 5
    endloop
  endfacet
  facet normal 0.904827 -0.425779 0
    outer loop
      vertex -14.4115 5.70593 3
      vertex -13.5828 7.46718 3
      vertex -14.4115 5.70593 5
    endloop
  endfacet
  facet normal 0.951057 -0.309017 0
    outer loop
      vertex -14.4115 5.70593 3
      vertex -14.4115 5.70593 5
      vertex -15.013 3.85469 5
    endloop
  endfacet
  facet normal 0.951057 -0.309017 0
    outer loop
      vertex -15.013 3.85469 3
      vertex -14.4115 5.70593 3
      vertex -15.013 3.85469 5
    endloop
  endfacet
  facet normal 0.982287 -0.187381 0
    outer loop
      vertex -15.013 3.85469 3
      vertex -15.013 3.85469 5
      vertex -15.3778 1.94266 5
    endloop
  endfacet
  facet normal 0.982287 -0.187381 0
    outer loop
      vertex -15.3778 1.94266 3
      vertex -15.013 3.85469 3
      vertex -15.3778 1.94266 5
    endloop
  endfacet
  facet normal 0.998027 -0.0627905 0
    outer loop
      vertex -15.3778 1.94266 3
      vertex -15.3778 1.94266 5
      vertex -15.5 0 5
    endloop
  endfacet
  facet normal 0.998027 -0.0627905 0
    outer loop
      vertex -15.5 0 3
      vertex -15.3778 1.94266 3
      vertex -15.5 0 5
    endloop
  endfacet
  facet normal 0 0 1
    outer loop
      vertex -15.3778 -1.94266 3
      vertex -15.013 -3.85469 3
      vertex -14.4115 -5.70593 3
    endloop
  endfacet
  facet normal 0 0 1
    outer loop
      vertex -12.5398 -9.11067 3
      vertex -15.3778 -1.94266 3
      vertex -13.5828 -7.46718 3
    endloop
  endfacet
  facet normal 0 0 1
    outer loop
      vertex -13.5828 -7.46718 3
      vertex -15.3778 -1.94266 3
      vertex -14.4115 -5.70593 3
    endloop
  endfacet
  facet normal 0 0 1
    outer loop
      vertex -11.299 -10.6105 3
      vertex -15.3778 -1.94266 3
      vertex -12.5398 -9.11067 3
    endloop
  endfacet
  facet normal 0 0 1
    outer loop
      vertex -9.88007 -11.943 3
      vertex -15.3778 -1.94266 3
      vertex -11.299 -10.6105 3
    endloop
  endfacet
  facet normal 0 0 1
    outer loop
      vertex -8.30532 -13.0871 3
      vertex -15.3778 -1.94266 3
      vertex -9.88007 -11.943 3
    endloop
  endfacet
  facet normal 0 0 1
    outer loop
      vertex -6.59958 -14.0248 3
      vertex -15.3778 -1.94266 3
      vertex -8.30532 -13.0871 3
    endloop
  endfacet
  facet normal 0 0 1
    outer loop
      vertex -4.78976 -14.7414 3
      vertex -15.3778 -1.94266 3
      vertex -6.59958 -14.0248 3
    endloop
  endfacet
  facet normal 0 0 1
    outer loop
      vertex -2.90441 -15.2255 3
      vertex -15.3778 -1.94266 3
      vertex -4.78976 -14.7414 3
    endloop
  endfacet
  facet normal 0 0 1
    outer loop
      vertex -0.973253 -15.4694 3
      vertex -15.3778 -1.94266 3
      vertex -2.90441 -15.2255 3
    endloop
  endfacet
  facet normal 0 0 1
    outer loop
      vertex 0.973253 -15.4694 3
      vertex -15.3778 -1.94266 3
      vertex -0.973253 -15.4694 3
    endloop
  endfacet
  facet normal 0 0 1
    outer loop
      vertex 2.90441 -15.2255 3
      vertex -15.3778 -1.94266 3
      vertex 0.973253 -15.4694 3
    endloop
  endfacet
  facet normal 0 0 1
    outer loop
      vertex 4.78976 -14.7414 3
      vertex -15.3778 -1.94266 3
      vertex 2.90441 -15.2255 3
    endloop
  endfacet
  facet normal 0 0 1
    outer loop
      vertex 6.59958 -14.0248 3
      vertex -15.3778 -1.94266 3
      vertex 4.78976 -14.7414 3
    endloop
  endfacet
  facet normal 0 0 1
    outer loop
      vertex 8.30532 -13.0871 3
      vertex -15.3778 -1.94266 3
      vertex 6.59958 -14.0248 3
    endloop
  endfacet
  facet normal 0 0 1
    outer loop
      vertex 9.88007 -11.943 3
      vertex -15.3778 -1.94266 3
      vertex 8.30532 -13.0871 3
    endloop
  endfacet
  facet normal 0 0 1
    outer loop
      vertex 11.299 -10.6105 3
      vertex -15.3778 -1.94266 3
      vertex 9.88007 -11.943 3
    endloop
  endfacet
  facet normal 0 0 1
    outer loop
      vertex 12.5398 -9.11067 3
      vertex -15.3778 -1.94266 3
      vertex 11.299 -10.6105 3
    endloop
  endfacet
  facet normal 0 0 1
    outer loop
      vertex -2.30975 -5.2657 3
      vertex -15.3778 -1.94266 3
      vertex 12.5398 -9.11067 3
    endloop
  endfacet
  facet normal 0 0 1
    outer loop
      vertex -2.30975 -5.2657 3
      vertex -3.89437 -4.23041 3
      vertex -15.3778 -1.94266 3
    endloop
  endfacet
  facet normal 0 0 1
    outer loop
      vertex 3.14495 -4.81371 3
      vertex 1.41154 -5.57405 3
      vertex 13.5828 -7.46718 3
    endloop
  endfacet
  facet normal 0 0 1
    outer loop
      vertex -5.67158 0.946419 3
      vertex -5.05697 2.7367 3
      vertex -15.3778 -1.94266 3
    endloop
  endfacet
  facet normal 0 0 1
    outer loop
      vertex 4.53756 3.53172 3
      vertex 15.013 3.85469 3
      vertex 14.4115 5.70593 3
    endloop
  endfacet
  facet normal 0 0 1
    outer loop
      vertex -0.474831 5.73036 3
      vertex 1.41154 5.57405 3
      vertex 11.299 10.6105 3
    endloop
  endfacet
  facet normal 0 0 1
    outer loop
      vertex 1.41154 5.57405 3
      vertex 3.14495 4.81371 3
      vertex 12.5398 9.11067 3
    endloop
  endfacet
  facet normal 0 0 1
    outer loop
      vertex 6.59958 14.0248 3
      vertex -15.3778 -1.94266 3
      vertex 8.30532 13.0871 3
    endloop
  endfacet
  facet normal 0 0 1
    outer loop
      vertex 4.78976 14.7414 3
      vertex -15.3778 -1.94266 3
      vertex 6.59958 14.0248 3
    endloop
  endfacet
  facet normal 0 0 1
    outer loop
      vertex 2.90441 15.2255 3
      vertex -15.3778 -1.94266 3
      vertex 4.78976 14.7414 3
    endloop
  endfacet
  facet normal 0 0 1
    outer loop
      vertex 0.973253 15.4694 3
      vertex -15.3778 -1.94266 3
      vertex 2.90441 15.2255 3
    endloop
  endfacet
  facet normal 0 0 1
    outer loop
      vertex -0.973253 15.4694 3
      vertex -15.3778 -1.94266 3
      vertex 0.973253 15.4694 3
    endloop
  endfacet
  facet normal 0 0 1
    outer loop
      vertex -2.90441 15.2255 3
      vertex -15.3778 -1.94266 3
      vertex -0.973253 15.4694 3
    endloop
  endfacet
  facet normal 0 0 1
    outer loop
      vertex -4.78976 14.7414 3
      vertex -15.3778 -1.94266 3
      vertex -2.90441 15.2255 3
    endloop
  endfacet
  facet normal 0 0 1
    outer loop
      vertex -6.59958 14.0248 3
      vertex -15.3778 -1.94266 3
      vertex -4.78976 14.7414 3
    endloop
  endfacet
  facet normal 0 0 1
    outer loop
      vertex -8.30532 13.0871 3
      vertex -15.3778 -1.94266 3
      vertex -6.59958 14.0248 3
    endloop
  endfacet
  facet normal 0 0 1
    outer loop
      vertex -9.88007 11.943 3
      vertex -15.3778 -1.94266 3
      vertex -8.30532 13.0871 3
    endloop
  endfacet
  facet normal 0 0 1
    outer loop
      vertex -11.299 10.6105 3
      vertex -15.3778 -1.94266 3
      vertex -9.88007 11.943 3
    endloop
  endfacet
  facet normal 0 0 1
    outer loop
      vertex -12.5398 9.11067 3
      vertex -15.3778 -1.94266 3
      vertex -11.299 10.6105 3
    endloop
  endfacet
  facet normal 0 0 1
    outer loop
      vertex -13.5828 7.46718 3
      vertex -15.3778 -1.94266 3
      vertex -12.5398 9.11067 3
    endloop
  endfacet
  facet normal 0 0 1
    outer loop
      vertex -14.4115 5.70593 3
      vertex -15.3778 -1.94266 3
      vertex -13.5828 7.46718 3
    endloop
  endfacet
  facet normal 0 0 1
    outer loop
      vertex -15.013 3.85469 3
      vertex -15.3778 -1.94266 3
      vertex -14.4115 5.70593 3
    endloop
  endfacet
  facet normal 0 0 1
    outer loop
      vertex -15.3778 1.94266 3
      vertex -15.3778 -1.94266 3
      vertex -15.013 3.85469 3
    endloop
  endfacet
  facet normal 0 0 1
    outer loop
      vertex -15.5 0 3
      vertex -15.3778 -1.94266 3
      vertex -15.3778 1.94266 3
    endloop
  endfacet
  facet normal 0 0 1
    outer loop
      vertex 5.43845 1.86702 3
      vertex 5.75 0 3
      vertex 15.3778 1.94266 3
    endloop
  endfacet
  facet normal 0 0 1
    outer loop
      vertex 5.43845 -1.86702 3
      vertex 4.53756 -3.53172 3
      vertex 15.013 -3.85469 3
    endloop
  endfacet
  facet normal 0 0 1
    outer loop
      vertex 3.14495 4.81371 3
      vertex 4.53756 3.53172 3
      vertex 13.5828 7.46718 3
    endloop
  endfacet
  facet normal 0 0 1
    outer loop
      vertex -3.89437 4.23041 3
      vertex -2.30975 5.2657 3
      vertex -15.3778 -1.94266 3
    endloop
  endfacet
  facet normal 0 0 1
    outer loop
      vertex 4.53756 3.53172 3
      vertex 5.43845 1.86702 3
      vertex 15.013 3.85469 3
    endloop
  endfacet
  facet normal 0 0 1
    outer loop
      vertex -2.30975 5.2657 3
      vertex -0.474831 5.73036 3
      vertex 9.88007 11.943 3
    endloop
  endfacet
  facet normal 0 0 1
    outer loop
      vertex 8.30532 13.0871 3
      vertex -2.30975 5.2657 3
      vertex 9.88007 11.943 3
    endloop
  endfacet
  facet normal 0 0 1
    outer loop
      vertex 8.30532 13.0871 3
      vertex -15.3778 -1.94266 3
      vertex -2.30975 5.2657 3
    endloop
  endfacet
  facet normal 0 0 1
    outer loop
      vertex 9.88007 11.943 3
      vertex -0.474831 5.73036 3
      vertex 11.299 10.6105 3
    endloop
  endfacet
  facet normal 0 0 1
    outer loop
      vertex 11.299 10.6105 3
      vertex 1.41154 5.57405 3
      vertex 12.5398 9.11067 3
    endloop
  endfacet
  facet normal 0 0 1
    outer loop
      vertex 12.5398 9.11067 3
      vertex 3.14495 4.81371 3
      vertex 13.5828 7.46718 3
    endloop
  endfacet
  facet normal 0 0 1
    outer loop
      vertex -5.05697 2.7367 3
      vertex -3.89437 4.23041 3
      vertex -15.3778 -1.94266 3
    endloop
  endfacet
  facet normal 0 0 1
    outer loop
      vertex 13.5828 7.46718 3
      vertex 4.53756 3.53172 3
      vertex 14.4115 5.70593 3
    endloop
  endfacet
  facet normal 0 0 1
    outer loop
      vertex 15.013 3.85469 3
      vertex 5.43845 1.86702 3
      vertex 15.3778 1.94266 3
    endloop
  endfacet
  facet normal 0 0 1
    outer loop
      vertex 15.3778 1.94266 3
      vertex 5.75 0 3
      vertex 15.5 0 3
    endloop
  endfacet
  facet normal 0 0 1
    outer loop
      vertex 15.5 0 3
      vertex 5.43845 -1.86702 3
      vertex 15.3778 -1.94266 3
    endloop
  endfacet
  facet normal 0 0 1
    outer loop
      vertex 15.013 -3.85469 3
      vertex 4.53756 -3.53172 3
      vertex 14.4115 -5.70593 3
    endloop
  endfacet
  facet normal 0 0 1
    outer loop
      vertex 14.4115 -5.70593 3
      vertex 3.14495 -4.81371 3
      vertex 13.5828 -7.46718 3
    endloop
  endfacet
  facet normal 0 0 1
    outer loop
      vertex -5.05697 -2.7367 3
      vertex -5.67158 -0.946419 3
      vertex -15.3778 -1.94266 3
    endloop
  endfacet
  facet normal 0 0 1
    outer loop
      vertex 13.5828 -7.46718 3
      vertex 1.41154 -5.57405 3
      vertex 12.5398 -9.11067 3
    endloop
  endfacet
  facet normal 0 0 1
    outer loop
      vertex 1.41154 -5.57405 3
      vertex -0.474831 -5.73036 3
      vertex 12.5398 -9.11067 3
    endloop
  endfacet
  facet normal 0 0 1
    outer loop
      vertex -0.474831 -5.73036 3
      vertex -2.30975 -5.2657 3
      vertex 12.5398 -9.11067 3
    endloop
  endfacet
  facet normal 0 0 1
    outer loop
      vertex -3.89437 -4.23041 3
      vertex -5.05697 -2.7367 3
      vertex -15.3778 -1.94266 3
    endloop
  endfacet
  facet normal 0 0 1
    outer loop
      vertex 4.53756 -3.53172 3
      vertex 3.14495 -4.81371 3
      vertex 14.4115 -5.70593 3
    endloop
  endfacet
  facet normal 0 0 1
    outer loop
      vertex 5.43845 -1.86702 3
      vertex 15.013 -3.85469 3
      vertex 15.3778 -1.94266 3
    endloop
  endfacet
  facet normal 0 0 1
    outer loop
      vertex 5.75 0 3
      vertex 5.43845 -1.86702 3
      vertex 15.5 0 3
    endloop
  endfacet
  facet normal 0 0 1
    outer loop
      vertex -5.67158 -0.946419 3
      vertex -5.67158 0.946419 3
      vertex -15.3778 -1.94266 3
    endloop
  endfacet
  facet normal -0.945817 0.324699 0
    outer loop
      vertex -5.67158 0.946419 3
      vertex -5.67158 0.946419 19
      vertex -5.05697 2.7367 3
    endloop
  endfacet
  facet normal -0.945817 0.324699 0
    outer loop
      vertex -5.05697 2.7367 3
      vertex -5.67158 0.946419 19
      vertex -5.05697 2.7367 19
    endloop
  endfacet
  facet normal -1 0 0
    outer loop
      vertex -5.67158 -0.946419 3
      vertex -5.67158 -0.946419 19
      vertex -5.67158 0.946419 3
    endloop
  endfacet
  facet normal -1 0 0
    outer loop
      vertex -5.67158 0.946419 3
      vertex -5.67158 -0.946419 19
      vertex -5.67158 0.946419 19
    endloop
  endfacet
  facet normal -0.945817 -0.324699 0
    outer loop
      vertex -5.67158 -0.946419 3
      vertex -5.05697 -2.7367 3
      vertex -5.67158 -0.946419 19
    endloop
  endfacet
  facet normal -0.945817 -0.324699 0
    outer loop
      vertex -5.67158 -0.946419 19
      vertex -5.05697 -2.7367 3
      vertex -5.05697 -2.7367 19
    endloop
  endfacet
  facet normal -0.78914 -0.614213 0
    outer loop
      vertex -5.05697 -2.7367 3
      vertex -3.89437 -4.23041 3
      vertex -5.05697 -2.7367 19
    endloop
  endfacet
  facet normal -0.78914 -0.614213 0
    outer loop
      vertex -5.05697 -2.7367 19
      vertex -3.89437 -4.23041 3
      vertex -3.89437 -4.23041 19
    endloop
  endfacet
  facet normal -0.546949 -0.837166 0
    outer loop
      vertex -3.89437 -4.23041 19
      vertex -3.89437 -4.23041 3
      vertex -2.30975 -5.2657 3
    endloop
  endfacet
  facet normal -0.546949 -0.837166 0
    outer loop
      vertex -2.30975 -5.2657 19
      vertex -3.89437 -4.23041 19
      vertex -2.30975 -5.2657 3
    endloop
  endfacet
  facet normal -0.245485 -0.9694 0
    outer loop
      vertex -2.30975 -5.2657 19
      vertex -2.30975 -5.2657 3
      vertex -0.474831 -5.73036 3
    endloop
  endfacet
  facet normal -0.245485 -0.9694 0
    outer loop
      vertex -0.474831 -5.73036 19
      vertex -2.30975 -5.2657 19
      vertex -0.474831 -5.73036 3
    endloop
  endfacet
  facet normal 0.0825792 -0.996585 0
    outer loop
      vertex -0.474831 -5.73036 19
      vertex -0.474831 -5.73036 3
      vertex 1.41154 -5.57405 3
    endloop
  endfacet
  facet normal 0.0825792 -0.996585 0
    outer loop
      vertex 1.41154 -5.57405 19
      vertex -0.474831 -5.73036 19
      vertex 1.41154 -5.57405 3
    endloop
  endfacet
  facet normal 0.401696 -0.915773 0
    outer loop
      vertex 1.41154 -5.57405 19
      vertex 1.41154 -5.57405 3
      vertex 3.14495 -4.81371 3
    endloop
  endfacet
  facet normal 0.401696 -0.915773 0
    outer loop
      vertex 3.14495 -4.81371 19
      vertex 1.41154 -5.57405 19
      vertex 3.14495 -4.81371 3
    endloop
  endfacet
  facet normal 0.677282 -0.735724 0
    outer loop
      vertex 3.14495 -4.81371 19
      vertex 3.14495 -4.81371 3
      vertex 4.53756 -3.53172 3
    endloop
  endfacet
  facet normal 0.677282 -0.735724 0
    outer loop
      vertex 4.53756 -3.53172 19
      vertex 3.14495 -4.81371 19
      vertex 4.53756 -3.53172 3
    endloop
  endfacet
  facet normal 0.879474 -0.475947 0
    outer loop
      vertex 4.53756 -3.53172 19
      vertex 4.53756 -3.53172 3
      vertex 5.43845 -1.86702 3
    endloop
  endfacet
  facet normal 0.879474 -0.475947 0
    outer loop
      vertex 5.43845 -1.86702 19
      vertex 4.53756 -3.53172 19
      vertex 5.43845 -1.86702 3
    endloop
  endfacet
  facet normal 0.986361 -0.164595 0
    outer loop
      vertex 5.43845 -1.86702 19
      vertex 5.43845 -1.86702 3
      vertex 5.75 0 3
    endloop
  endfacet
  facet normal 0.986361 -0.164595 0
    outer loop
      vertex 5.75 0 19
      vertex 5.43845 -1.86702 19
      vertex 5.75 0 3
    endloop
  endfacet
  facet normal 0.986361 0.164595 0
    outer loop
      vertex 5.75 0 3
      vertex 5.43845 1.86702 3
      vertex 5.43845 1.86702 19
    endloop
  endfacet
  facet normal 0.986361 0.164595 0
    outer loop
      vertex 5.75 0 19
      vertex 5.75 0 3
      vertex 5.43845 1.86702 19
    endloop
  endfacet
  facet normal 0.879474 0.475947 0
    outer loop
      vertex 5.43845 1.86702 3
      vertex 4.53756 3.53172 3
      vertex 4.53756 3.53172 19
    endloop
  endfacet
  facet normal 0.879474 0.475947 0
    outer loop
      vertex 5.43845 1.86702 19
      vertex 5.43845 1.86702 3
      vertex 4.53756 3.53172 19
    endloop
  endfacet
  facet normal 0.677282 0.735724 0
    outer loop
      vertex 3.14495 4.81371 3
      vertex 3.14495 4.81371 19
      vertex 4.53756 3.53172 3
    endloop
  endfacet
  facet normal 0.677282 0.735724 0
    outer loop
      vertex 4.53756 3.53172 3
      vertex 3.14495 4.81371 19
      vertex 4.53756 3.53172 19
    endloop
  endfacet
  facet normal 0.401696 0.915773 0
    outer loop
      vertex 1.41154 5.57405 3
      vertex 1.41154 5.57405 19
      vertex 3.14495 4.81371 3
    endloop
  endfacet
  facet normal 0.401696 0.915773 0
    outer loop
      vertex 3.14495 4.81371 3
      vertex 1.41154 5.57405 19
      vertex 3.14495 4.81371 19
    endloop
  endfacet
  facet normal 0.0825792 0.996585 0
    outer loop
      vertex -0.474831 5.73036 3
      vertex -0.474831 5.73036 19
      vertex 1.41154 5.57405 3
    endloop
  endfacet
  facet normal 0.0825792 0.996585 0
    outer loop
      vertex 1.41154 5.57405 3
      vertex -0.474831 5.73036 19
      vertex 1.41154 5.57405 19
    endloop
  endfacet
  facet normal -0.245485 0.9694 0
    outer loop
      vertex -2.30975 5.2657 3
      vertex -2.30975 5.2657 19
      vertex -0.474831 5.73036 3
    endloop
  endfacet
  facet normal -0.245485 0.9694 0
    outer loop
      vertex -0.474831 5.73036 3
      vertex -2.30975 5.2657 19
      vertex -0.474831 5.73036 19
    endloop
  endfacet
  facet normal -0.546949 0.837166 0
    outer loop
      vertex -3.89437 4.23041 3
      vertex -3.89437 4.23041 19
      vertex -2.30975 5.2657 3
    endloop
  endfacet
  facet normal -0.546949 0.837166 0
    outer loop
      vertex -2.30975 5.2657 3
      vertex -3.89437 4.23041 19
      vertex -2.30975 5.2657 19
    endloop
  endfacet
  facet normal -0.78914 0.614213 0
    outer loop
      vertex -5.05697 2.7367 3
      vertex -5.05697 2.7367 19
      vertex -3.89437 4.23041 3
    endloop
  endfacet
  facet normal -0.78914 0.614213 0
    outer loop
      vertex -3.89437 4.23041 3
      vertex -5.05697 2.7367 19
      vertex -3.89437 4.23041 19
    endloop
  endfacet
  facet normal 0 0 1
    outer loop
      vertex -5.67158 0.946419 19
      vertex -5.67158 -0.946419 19
      vertex -5.05697 -2.7367 19
    endloop
  endfacet
  facet normal 0 0 1
    outer loop
      vertex -2.30975 -5.2657 19
      vertex -5.67158 0.946419 19
      vertex -3.89437 -4.23041 19
    endloop
  endfacet
  facet normal 0 0 1
    outer loop
      vertex -3.89437 -4.23041 19
      vertex -5.67158 0.946419 19
      vertex -5.05697 -2.7367 19
    endloop
  endfacet
  facet normal 0 0 1
    outer loop
      vertex -0.474831 -5.73036 19
      vertex -5.67158 0.946419 19
      vertex -2.30975 -5.2657 19
    endloop
  endfacet
  facet normal 0 0 1
    outer loop
      vertex 1.41154 -5.57405 19
      vertex -5.67158 0.946419 19
      vertex -0.474831 -5.73036 19
    endloop
  endfacet
  facet normal 0 0 1
    outer loop
      vertex -1.425 -2.46817 19
      vertex -5.67158 0.946419 19
      vertex 1.41154 -5.57405 19
    endloop
  endfacet
  facet normal 0 0 1
    outer loop
      vertex -2.78772 0.592548 19
      vertex -2.3057 1.67519 19
      vertex -5.67158 0.946419 19
    endloop
  endfacet
  facet normal 0 0 1
    outer loop
      vertex -2.3057 1.67519 19
      vertex -1.425 2.46817 19
      vertex -5.67158 0.946419 19
    endloop
  endfacet
  facet normal 0 0 1
    outer loop
      vertex 1.90702 2.11796 19
      vertex 2.6036 1.1592 19
      vertex 5.43845 1.86702 19
    endloop
  endfacet
  facet normal 0 0 1
    outer loop
      vertex -0.297906 2.83439 19
      vertex 0.880698 2.71051 19
      vertex 4.53756 3.53172 19
    endloop
  endfacet
  facet normal 0 0 1
    outer loop
      vertex 1.41154 5.57405 19
      vertex -5.67158 0.946419 19
      vertex 3.14495 4.81371 19
    endloop
  endfacet
  facet normal 0 0 1
    outer loop
      vertex -0.474831 5.73036 19
      vertex -5.67158 0.946419 19
      vertex 1.41154 5.57405 19
    endloop
  endfacet
  facet normal 0 0 1
    outer loop
      vertex -2.30975 5.2657 19
      vertex -5.67158 0.946419 19
      vertex -0.474831 5.73036 19
    endloop
  endfacet
  facet normal 0 0 1
    outer loop
      vertex -3.89437 4.23041 19
      vertex -5.67158 0.946419 19
      vertex -2.30975 5.2657 19
    endloop
  endfacet
  facet normal 0 0 1
    outer loop
      vertex -5.05697 2.7367 19
      vertex -5.67158 0.946419 19
      vertex -3.89437 4.23041 19
    endloop
  endfacet
  facet normal 0 0 1
    outer loop
      vertex 1.90702 -2.11796 19
      vertex 0.880698 -2.71051 19
      vertex 4.53756 -3.53172 19
    endloop
  endfacet
  facet normal 0 0 1
    outer loop
      vertex 2.6036 1.1592 19
      vertex 2.85 0 19
      vertex 5.75 0 19
    endloop
  endfacet
  facet normal 0 0 1
    outer loop
      vertex 0.880698 2.71051 19
      vertex 1.90702 2.11796 19
      vertex 4.53756 3.53172 19
    endloop
  endfacet
  facet normal 0 0 1
    outer loop
      vertex 3.14495 4.81371 19
      vertex -5.67158 0.946419 19
      vertex -1.425 2.46817 19
    endloop
  endfacet
  facet normal 0 0 1
    outer loop
      vertex 3.14495 4.81371 19
      vertex -0.297906 2.83439 19
      vertex 4.53756 3.53172 19
    endloop
  endfacet
  facet normal 0 0 1
    outer loop
      vertex 3.14495 4.81371 19
      vertex -1.425 2.46817 19
      vertex -0.297906 2.83439 19
    endloop
  endfacet
  facet normal 0 0 1
    outer loop
      vertex 4.53756 3.53172 19
      vertex 1.90702 2.11796 19
      vertex 5.43845 1.86702 19
    endloop
  endfacet
  facet normal 0 0 1
    outer loop
      vertex 5.43845 1.86702 19
      vertex 2.6036 1.1592 19
      vertex 5.75 0 19
    endloop
  endfacet
  facet normal 0 0 1
    outer loop
      vertex 5.75 0 19
      vertex 2.85 0 19
      vertex 5.43845 -1.86702 19
    endloop
  endfacet
  facet normal 0 0 1
    outer loop
      vertex 5.43845 -1.86702 19
      vertex 2.6036 -1.1592 19
      vertex 4.53756 -3.53172 19
    endloop
  endfacet
  facet normal 0 0 1
    outer loop
      vertex 2.6036 -1.1592 19
      vertex 1.90702 -2.11796 19
      vertex 4.53756 -3.53172 19
    endloop
  endfacet
  facet normal 0 0 1
    outer loop
      vertex 2.85 0 19
      vertex 2.6036 -1.1592 19
      vertex 5.43845 -1.86702 19
    endloop
  endfacet
  facet normal 0 0 1
    outer loop
      vertex 4.53756 -3.53172 19
      vertex 0.880698 -2.71051 19
      vertex 3.14495 -4.81371 19
    endloop
  endfacet
  facet normal 0 0 1
    outer loop
      vertex 3.14495 -4.81371 19
      vertex -0.297906 -2.83439 19
      vertex 1.41154 -5.57405 19
    endloop
  endfacet
  facet normal 0 0 1
    outer loop
      vertex -0.297906 -2.83439 19
      vertex -1.425 -2.46817 19
      vertex 1.41154 -5.57405 19
    endloop
  endfacet
  facet normal 0 0 1
    outer loop
      vertex -2.3057 -1.67519 19
      vertex -5.67158 0.946419 19
      vertex -1.425 -2.46817 19
    endloop
  endfacet
  facet normal 0 0 1
    outer loop
      vertex 0.880698 -2.71051 19
      vertex -0.297906 -2.83439 19
      vertex 3.14495 -4.81371 19
    endloop
  endfacet
  facet normal 0 0 1
    outer loop
      vertex -2.3057 -1.67519 19
      vertex -2.78772 -0.592548 19
      vertex -5.67158 0.946419 19
    endloop
  endfacet
  facet normal 0 0 1
    outer loop
      vertex -2.78772 -0.592548 19
      vertex -2.78772 0.592548 19
      vertex -5.67158 0.946419 19
    endloop
  endfacet
  facet normal 0.913545 0.406737 0
    outer loop
      vertex -2.78772 -0.592548 19
      vertex -2.3057 -1.67519 19
      vertex -2.3057 -1.67519 15
    endloop
  endfacet
  facet normal 0.913545 0.406737 0
    outer loop
      vertex -2.78772 -0.592548 15
      vertex -2.78772 -0.592548 19
      vertex -2.3057 -1.67519 15
    endloop
  endfacet
  facet normal 1 0 0
    outer loop
      vertex -2.78772 0.592548 15
      vertex -2.78772 0.592548 19
      vertex -2.78772 -0.592548 19
    endloop
  endfacet
  facet normal 1 0 0
    outer loop
      vertex -2.78772 -0.592548 15
      vertex -2.78772 0.592548 15
      vertex -2.78772 -0.592548 19
    endloop
  endfacet
  facet normal 0.669131 0.743145 0
    outer loop
      vertex -1.425 -2.46817 19
      vertex -1.425 -2.46817 15
      vertex -2.3057 -1.67519 19
    endloop
  endfacet
  facet normal 0.669131 0.743145 0
    outer loop
      vertex -2.3057 -1.67519 19
      vertex -1.425 -2.46817 15
      vertex -2.3057 -1.67519 15
    endloop
  endfacet
  facet normal 0.309017 0.951057 0
    outer loop
      vertex -0.297906 -2.83439 19
      vertex -0.297906 -2.83439 15
      vertex -1.425 -2.46817 19
    endloop
  endfacet
  facet normal 0.309017 0.951057 0
    outer loop
      vertex -1.425 -2.46817 19
      vertex -0.297906 -2.83439 15
      vertex -1.425 -2.46817 15
    endloop
  endfacet
  facet normal -0.104528 0.994522 0
    outer loop
      vertex 0.880698 -2.71051 19
      vertex 0.880698 -2.71051 15
      vertex -0.297906 -2.83439 19
    endloop
  endfacet
  facet normal -0.104528 0.994522 0
    outer loop
      vertex -0.297906 -2.83439 19
      vertex 0.880698 -2.71051 15
      vertex -0.297906 -2.83439 15
    endloop
  endfacet
  facet normal -0.5 0.866026 0
    outer loop
      vertex 1.90702 -2.11796 19
      vertex 1.90702 -2.11796 15
      vertex 0.880698 -2.71051 19
    endloop
  endfacet
  facet normal -0.5 0.866026 0
    outer loop
      vertex 0.880698 -2.71051 19
      vertex 1.90702 -2.11796 15
      vertex 0.880698 -2.71051 15
    endloop
  endfacet
  facet normal -0.809017 0.587785 0
    outer loop
      vertex 2.6036 -1.1592 19
      vertex 2.6036 -1.1592 15
      vertex 1.90702 -2.11796 19
    endloop
  endfacet
  facet normal -0.809017 0.587785 0
    outer loop
      vertex 1.90702 -2.11796 19
      vertex 2.6036 -1.1592 15
      vertex 1.90702 -2.11796 15
    endloop
  endfacet
  facet normal -0.978148 0.207911 0
    outer loop
      vertex 2.85 0 19
      vertex 2.85 0 15
      vertex 2.6036 -1.1592 19
    endloop
  endfacet
  facet normal -0.978148 0.207911 0
    outer loop
      vertex 2.6036 -1.1592 19
      vertex 2.85 0 15
      vertex 2.6036 -1.1592 15
    endloop
  endfacet
  facet normal -0.978148 -0.207911 0
    outer loop
      vertex 2.85 0 19
      vertex 2.6036 1.1592 19
      vertex 2.85 0 15
    endloop
  endfacet
  facet normal -0.978148 -0.207911 0
    outer loop
      vertex 2.85 0 15
      vertex 2.6036 1.1592 19
      vertex 2.6036 1.1592 15
    endloop
  endfacet
  facet normal -0.809017 -0.587785 0
    outer loop
      vertex 2.6036 1.1592 19
      vertex 1.90702 2.11796 19
      vertex 2.6036 1.1592 15
    endloop
  endfacet
  facet normal -0.809017 -0.587785 0
    outer loop
      vertex 2.6036 1.1592 15
      vertex 1.90702 2.11796 19
      vertex 1.90702 2.11796 15
    endloop
  endfacet
  facet normal -0.5 -0.866026 0
    outer loop
      vertex 1.90702 2.11796 15
      vertex 1.90702 2.11796 19
      vertex 0.880698 2.71051 19
    endloop
  endfacet
  facet normal -0.5 -0.866026 0
    outer loop
      vertex 0.880698 2.71051 15
      vertex 1.90702 2.11796 15
      vertex 0.880698 2.71051 19
    endloop
  endfacet
  facet normal -0.104528 -0.994522 0
    outer loop
      vertex 0.880698 2.71051 15
      vertex 0.880698 2.71051 19
      vertex -0.297906 2.83439 19
    endloop
  endfacet
  facet normal -0.104528 -0.994522 0
    outer loop
      vertex -0.297906 2.83439 15
      vertex 0.880698 2.71051 15
      vertex -0.297906 2.83439 19
    endloop
  endfacet
  facet normal 0.309017 -0.951057 0
    outer loop
      vertex -0.297906 2.83439 15
      vertex -0.297906 2.83439 19
      vertex -1.425 2.46817 19
    endloop
  endfacet
  facet normal 0.309017 -0.951057 0
    outer loop
      vertex -1.425 2.46817 15
      vertex -0.297906 2.83439 15
      vertex -1.425 2.46817 19
    endloop
  endfacet
  facet normal 0.669131 -0.743145 0
    outer loop
      vertex -1.425 2.46817 15
      vertex -1.425 2.46817 19
      vertex -2.3057 1.67519 19
    endloop
  endfacet
  facet normal 0.669131 -0.743145 0
    outer loop
      vertex -2.3057 1.67519 15
      vertex -1.425 2.46817 15
      vertex -2.3057 1.67519 19
    endloop
  endfacet
  facet normal 0.913545 -0.406737 0
    outer loop
      vertex -2.3057 1.67519 15
      vertex -2.3057 1.67519 19
      vertex -2.78772 0.592548 19
    endloop
  endfacet
  facet normal 0.913545 -0.406737 0
    outer loop
      vertex -2.78772 0.592548 15
      vertex -2.3057 1.67519 15
      vertex -2.78772 0.592548 19
    endloop
  endfacet
  facet normal 0 0 1
    outer loop
      vertex -2.3057 -1.67519 15
      vertex -1.425 -2.46817 15
      vertex -0.297906 -2.83439 15
    endloop
  endfacet
  facet normal 0 0 1
    outer loop
      vertex 1.90702 -2.11796 15
      vertex -2.3057 -1.67519 15
      vertex 0.880698 -2.71051 15
    endloop
  endfacet
  facet normal 0 0 1
    outer loop
      vertex 0.880698 -2.71051 15
      vertex -2.3057 -1.67519 15
      vertex -0.297906 -2.83439 15
    endloop
  endfacet
  facet normal 0 0 1
    outer loop
      vertex 2.6036 -1.1592 15
      vertex -2.3057 -1.67519 15
      vertex 1.90702 -2.11796 15
    endloop
  endfacet
  facet normal 0 0 1
    outer loop
      vertex 2.85 0 15
      vertex -2.3057 -1.67519 15
      vertex 2.6036 -1.1592 15
    endloop
  endfacet
  facet normal 0 0 1
    outer loop
      vertex 2.6036 1.1592 15
      vertex -2.3057 -1.67519 15
      vertex 2.85 0 15
    endloop
  endfacet
  facet normal 0 0 1
    outer loop
      vertex 1.90702 2.11796 15
      vertex -2.3057 -1.67519 15
      vertex 2.6036 1.1592 15
    endloop
  endfacet
  facet normal 0 0 1
    outer loop
      vertex 0.880698 2.71051 15
      vertex -2.3057 -1.67519 15
      vertex 1.90702 2.11796 15
    endloop
  endfacet
  facet normal 0 0 1
    outer loop
      vertex -0.297906 2.83439 15
      vertex -2.3057 -1.67519 15
      vertex 0.880698 2.71051 15
    endloop
  endfacet
  facet normal 0 0 1
    outer loop
      vertex -1.425 2.46817 15
      vertex -2.3057 -1.67519 15
      vertex -0.297906 2.83439 15
    endloop
  endfacet
  facet normal 0 0 1
    outer loop
      vertex -2.3057 1.67519 15
      vertex -2.3057 -1.67519 15
      vertex -1.425 2.46817 15
    endloop
  endfacet
  facet normal 0 0 1
    outer loop
      vertex -2.78772 0.592548 15
      vertex -2.3057 -1.67519 15
      vertex -2.3057 1.67519 15
    endloop
  endfacet
  facet normal 0 0 1
    outer loop
      vertex -2.78772 -0.592548 15
      vertex -2.3057 -1.67519 15
      vertex -2.78772 0.592548 15
    endloop
  endfacet
endsolid OpenSCAD_Model
