solid OpenSCAD_Model
  facet normal -1 0 0
    outer loop
      vertex -18 -18 0
      vertex -18 -18 4
      vertex -18 18 0
    endloop
  endfacet
  facet normal -1 0 0
    outer loop
      vertex -18 18 0
      vertex -18 -18 4
      vertex -18 18 4
    endloop
  endfacet
  facet normal 0 -1 0
    outer loop
      vertex -18 -18 4
      vertex -18 -18 0
      vertex 18 -18 0
    endloop
  endfacet
  facet normal 0 -1 0
    outer loop
      vertex 18 -18 4
      vertex -18 -18 4
      vertex 18 -18 0
    endloop
  endfacet
  facet normal 0 0 -1
    outer loop
      vertex -9.66439 9.95523 0
      vertex 18 -18 0
      vertex 10.7394 -10.7363 0
    endloop
  endfacet
  facet normal 0 0 -1
    outer loop
      vertex -8.33561 14.0448 0
      vertex -18 18 0
      vertex 18 18 0
    endloop
  endfacet
  facet normal 0 0 -1
    outer loop
      vertex -18 -18 0
      vertex -18 18 0
      vertex -11.15 -12 0
    endloop
  endfacet
  facet normal 0 0 -1
    outer loop
      vertex -18 -18 0
      vertex -11.15 -12 0
      vertex -11.0448 -12.6644 0
    endloop
  endfacet
  facet normal 0 0 -1
    outer loop
      vertex -18 -18 0
      vertex -11.0448 -12.6644 0
      vertex -10.7394 -13.2637 0
    endloop
  endfacet
  facet normal 0 0 -1
    outer loop
      vertex -18 -18 0
      vertex -10.7394 -13.2637 0
      vertex -10.2637 -13.7394 0
    endloop
  endfacet
  facet normal 0 0 -1
    outer loop
      vertex 1.65 -10 0
      vertex 7.73626 -13.7394 0
      vertex 0.825 -11.4289 0
    endloop
  endfacet
  facet normal 0 0 -1
    outer loop
      vertex -18 -18 0
      vertex -10.2637 -13.7394 0
      vertex -9.66439 -14.0448 0
    endloop
  endfacet
  facet normal 0 0 -1
    outer loop
      vertex -18 -18 0
      vertex -9.66439 -14.0448 0
      vertex -9 -14.15 0
    endloop
  endfacet
  facet normal 0 0 -1
    outer loop
      vertex -18 -18 0
      vertex -9 -14.15 0
      vertex 18 -18 0
    endloop
  endfacet
  facet normal 0 0 -1
    outer loop
      vertex -7.73626 -13.7394 0
      vertex 18 -18 0
      vertex -8.33561 -14.0448 0
    endloop
  endfacet
  facet normal 0 0 -1
    outer loop
      vertex -7.26061 -13.2637 0
      vertex 18 -18 0
      vertex -7.73626 -13.7394 0
    endloop
  endfacet
  facet normal 0 0 -1
    outer loop
      vertex -6.95523 -12.6644 0
      vertex 18 -18 0
      vertex -7.26061 -13.2637 0
    endloop
  endfacet
  facet normal 0 0 -1
    outer loop
      vertex -10.7394 10.7363 0
      vertex -18 18 0
      vertex -11.0448 11.3356 0
    endloop
  endfacet
  facet normal 0 0 -1
    outer loop
      vertex -7.73626 -10.2606 0
      vertex -18 18 0
      vertex -7.26061 -10.7363 0
    endloop
  endfacet
  facet normal 0 0 -1
    outer loop
      vertex -8.33561 -9.95523 0
      vertex -18 18 0
      vertex -7.73626 -10.2606 0
    endloop
  endfacet
  facet normal 0 0 -1
    outer loop
      vertex -6.95523 -12.6644 0
      vertex -6.85 -12 0
      vertex 18 -18 0
    endloop
  endfacet
  facet normal 0 0 -1
    outer loop
      vertex -7.26061 -10.7363 0
      vertex -18 18 0
      vertex -6.95523 -11.3356 0
    endloop
  endfacet
  facet normal 0 0 -1
    outer loop
      vertex -6.85 -12 0
      vertex -6.95523 -11.3356 0
      vertex 18 -18 0
    endloop
  endfacet
  facet normal 0 0 -1
    outer loop
      vertex 9.66439 -9.95523 0
      vertex -10.2637 10.2606 0
      vertex 10.2637 -10.2606 0
    endloop
  endfacet
  facet normal 0 0 -1
    outer loop
      vertex -9 -9.85 0
      vertex -18 18 0
      vertex -8.33561 -9.95523 0
    endloop
  endfacet
  facet normal 0 0 -1
    outer loop
      vertex -9.66439 -9.95523 0
      vertex -18 18 0
      vertex -9 -9.85 0
    endloop
  endfacet
  facet normal 0 0 -1
    outer loop
      vertex -10.2637 -10.2606 0
      vertex -18 18 0
      vertex -9.66439 -9.95523 0
    endloop
  endfacet
  facet normal 0 0 -1
    outer loop
      vertex -10.7394 -10.7363 0
      vertex -18 18 0
      vertex -10.2637 -10.2606 0
    endloop
  endfacet
  facet normal 0 0 -1
    outer loop
      vertex -11.0448 -11.3356 0
      vertex -18 18 0
      vertex -10.7394 -10.7363 0
    endloop
  endfacet
  facet normal 0 0 -1
    outer loop
      vertex -11.15 -12 0
      vertex -18 18 0
      vertex -11.0448 -11.3356 0
    endloop
  endfacet
  facet normal 0 0 -1
    outer loop
      vertex -11.0448 11.3356 0
      vertex -18 18 0
      vertex -11.15 12 0
    endloop
  endfacet
  facet normal 0 0 -1
    outer loop
      vertex -9.66439 9.95523 0
      vertex 10.2637 -10.2606 0
      vertex -10.2637 10.2606 0
    endloop
  endfacet
  facet normal 0 0 -1
    outer loop
      vertex -6.95523 -11.3356 0
      vertex -18 18 0
      vertex -10.7394 10.7363 0
    endloop
  endfacet
  facet normal 0 0 -1
    outer loop
      vertex -6.95523 -11.3356 0
      vertex -10.7394 10.7363 0
      vertex -10.2637 10.2606 0
    endloop
  endfacet
  facet normal 0 0 -1
    outer loop
      vertex -9 9.85 0
      vertex 18 -18 0
      vertex -9.66439 9.95523 0
    endloop
  endfacet
  facet normal 0 0 -1
    outer loop
      vertex -7.73626 10.2606 0
      vertex 18 18 0
      vertex -8.33561 9.95523 0
    endloop
  endfacet
  facet normal 0 0 -1
    outer loop
      vertex 18 -18 0
      vertex -9 9.85 0
      vertex -8.33561 9.95523 0
    endloop
  endfacet
  facet normal 0 0 -1
    outer loop
      vertex -0.825 11.4289 0
      vertex -8.33561 9.95523 0
      vertex 18 18 0
    endloop
  endfacet
  facet normal 0 0 -1
    outer loop
      vertex -7.26061 13.2637 0
      vertex 18 18 0
      vertex -6.95523 12.6644 0
    endloop
  endfacet
  facet normal 0 0 -1
    outer loop
      vertex -7.73626 10.2606 0
      vertex -7.26061 10.7363 0
      vertex 18 18 0
    endloop
  endfacet
  facet normal 0 0 -1
    outer loop
      vertex -7.26061 10.7363 0
      vertex -6.95523 11.3356 0
      vertex 18 18 0
    endloop
  endfacet
  facet normal 0 0 -1
    outer loop
      vertex -6.95523 11.3356 0
      vertex -6.85 12 0
      vertex 18 18 0
    endloop
  endfacet
  facet normal 0 0 -1
    outer loop
      vertex -6.85 12 0
      vertex -6.95523 12.6644 0
      vertex 18 18 0
    endloop
  endfacet
  facet normal 0 0 -1
    outer loop
      vertex 1.65 -10 0
      vertex 6.95523 -12.6644 0
      vertex 7.26061 -13.2637 0
    endloop
  endfacet
  facet normal 0 0 -1
    outer loop
      vertex -9 14.15 0
      vertex -18 18 0
      vertex -8.33561 14.0448 0
    endloop
  endfacet
  facet normal 0 0 -1
    outer loop
      vertex -9.66439 14.0448 0
      vertex -18 18 0
      vertex -9 14.15 0
    endloop
  endfacet
  facet normal 0 0 -1
    outer loop
      vertex -7.26061 13.2637 0
      vertex -7.73626 13.7394 0
      vertex 18 18 0
    endloop
  endfacet
  facet normal 0 0 -1
    outer loop
      vertex -7.73626 13.7394 0
      vertex -8.33561 14.0448 0
      vertex 18 18 0
    endloop
  endfacet
  facet normal 0 0 -1
    outer loop
      vertex 1.65 -10 0
      vertex 7.26061 -13.2637 0
      vertex 7.73626 -13.7394 0
    endloop
  endfacet
  facet normal 0 0 -1
    outer loop
      vertex -10.2637 13.7394 0
      vertex -18 18 0
      vertex -9.66439 14.0448 0
    endloop
  endfacet
  facet normal 0 0 -1
    outer loop
      vertex -10.7394 13.2637 0
      vertex -18 18 0
      vertex -10.2637 13.7394 0
    endloop
  endfacet
  facet normal 0 0 -1
    outer loop
      vertex -11.0448 12.6644 0
      vertex -18 18 0
      vertex -10.7394 13.2637 0
    endloop
  endfacet
  facet normal 0 0 -1
    outer loop
      vertex -11.15 12 0
      vertex -18 18 0
      vertex -11.0448 12.6644 0
    endloop
  endfacet
  facet normal 0 0 -1
    outer loop
      vertex -6.95523 -11.3356 0
      vertex -10.2637 10.2606 0
      vertex -1.65 -10 0
    endloop
  endfacet
  facet normal 0 0 -1
    outer loop
      vertex 0.825 11.4289 0
      vertex 7.26061 13.2637 0
      vertex 1.65 10 0
    endloop
  endfacet
  facet normal 0 0 -1
    outer loop
      vertex -6.95523 -11.3356 0
      vertex -1.65 -10 0
      vertex -0.825 -11.4289 0
    endloop
  endfacet
  facet normal 0 0 -1
    outer loop
      vertex -6.95523 -11.3356 0
      vertex -0.825 -11.4289 0
      vertex 18 -18 0
    endloop
  endfacet
  facet normal 0 0 -1
    outer loop
      vertex -0.825 -11.4289 0
      vertex 0.825 -11.4289 0
      vertex 18 -18 0
    endloop
  endfacet
  facet normal 0 0 -1
    outer loop
      vertex -1.65 10 0
      vertex -8.33561 9.95523 0
      vertex -0.825 11.4289 0
    endloop
  endfacet
  facet normal 0 0 -1
    outer loop
      vertex 9 -14.15 0
      vertex 18 -18 0
      vertex 8.33561 -14.0448 0
    endloop
  endfacet
  facet normal 0 0 -1
    outer loop
      vertex 6.95523 -12.6644 0
      vertex 1.65 -10 0
      vertex 6.85 -12 0
    endloop
  endfacet
  facet normal 0 0 -1
    outer loop
      vertex -1.65 -10 0
      vertex -10.2637 10.2606 0
      vertex -0.825 -8.57106 0
    endloop
  endfacet
  facet normal 0 0 -1
    outer loop
      vertex -0.825 8.57106 0
      vertex -8.33561 9.95523 0
      vertex -1.65 10 0
    endloop
  endfacet
  facet normal 0 0 -1
    outer loop
      vertex 10.7394 -10.7363 0
      vertex 18 -18 0
      vertex 11.0448 -11.3356 0
    endloop
  endfacet
  facet normal 0 0 -1
    outer loop
      vertex 18 -18 0
      vertex -8.33561 9.95523 0
      vertex -0.825 8.57106 0
    endloop
  endfacet
  facet normal 0 0 -1
    outer loop
      vertex 0.825 11.4289 0
      vertex 8.33561 14.0448 0
      vertex 7.73626 13.7394 0
    endloop
  endfacet
  facet normal 0 0 -1
    outer loop
      vertex 0.825 11.4289 0
      vertex 18 18 0
      vertex 8.33561 14.0448 0
    endloop
  endfacet
  facet normal 0 0 -1
    outer loop
      vertex 6.95523 11.3356 0
      vertex 0.825 8.57106 0
      vertex 6.85 12 0
    endloop
  endfacet
  facet normal 0 0 -1
    outer loop
      vertex 0.825 8.57106 0
      vertex 18 -18 0
      vertex -0.825 8.57106 0
    endloop
  endfacet
  facet normal 0 0 -1
    outer loop
      vertex 6.85 -12 0
      vertex 0.825 -8.57106 0
      vertex 6.95523 -11.3356 0
    endloop
  endfacet
  facet normal 0 0 -1
    outer loop
      vertex 0.825 11.4289 0
      vertex -0.825 11.4289 0
      vertex 18 18 0
    endloop
  endfacet
  facet normal 0 0 -1
    outer loop
      vertex 1.65 -10 0
      vertex 0.825 -8.57106 0
      vertex 6.85 -12 0
    endloop
  endfacet
  facet normal 0 0 -1
    outer loop
      vertex -0.825 -8.57106 0
      vertex -10.2637 10.2606 0
      vertex 0.825 -8.57106 0
    endloop
  endfacet
  facet normal 0 0 -1
    outer loop
      vertex 6.95523 12.6644 0
      vertex 1.65 10 0
      vertex 7.26061 13.2637 0
    endloop
  endfacet
  facet normal 0 0 -1
    outer loop
      vertex 9.66439 -14.0448 0
      vertex 18 -18 0
      vertex 9 -14.15 0
    endloop
  endfacet
  facet normal 0 0 -1
    outer loop
      vertex 10.2637 -13.7394 0
      vertex 18 -18 0
      vertex 9.66439 -14.0448 0
    endloop
  endfacet
  facet normal 0 0 -1
    outer loop
      vertex 6.85 12 0
      vertex 1.65 10 0
      vertex 6.95523 12.6644 0
    endloop
  endfacet
  facet normal 0 0 -1
    outer loop
      vertex 7.26061 -10.7363 0
      vertex -10.2637 10.2606 0
      vertex 7.73626 -10.2606 0
    endloop
  endfacet
  facet normal 0 0 -1
    outer loop
      vertex 10.2637 -13.7394 0
      vertex 10.7394 -13.2637 0
      vertex 18 -18 0
    endloop
  endfacet
  facet normal 0 0 -1
    outer loop
      vertex 7.73626 -10.2606 0
      vertex -10.2637 10.2606 0
      vertex 8.33561 -9.95523 0
    endloop
  endfacet
  facet normal 0 0 -1
    outer loop
      vertex 10.7394 -13.2637 0
      vertex 11.0448 -12.6644 0
      vertex 18 -18 0
    endloop
  endfacet
  facet normal 0 0 -1
    outer loop
      vertex 8.33561 -9.95523 0
      vertex -10.2637 10.2606 0
      vertex 9 -9.85 0
    endloop
  endfacet
  facet normal 0 0 -1
    outer loop
      vertex 11.0448 -12.6644 0
      vertex 11.15 -12 0
      vertex 18 -18 0
    endloop
  endfacet
  facet normal 0 0 -1
    outer loop
      vertex 9 -9.85 0
      vertex -10.2637 10.2606 0
      vertex 9.66439 -9.95523 0
    endloop
  endfacet
  facet normal 0 0 -1
    outer loop
      vertex 11.15 -12 0
      vertex 11.0448 -11.3356 0
      vertex 18 -18 0
    endloop
  endfacet
  facet normal 0 0 -1
    outer loop
      vertex -9.66439 9.95523 0
      vertex 10.7394 -10.7363 0
      vertex 10.2637 -10.2606 0
    endloop
  endfacet
  facet normal 0 0 -1
    outer loop
      vertex 8.33561 -14.0448 0
      vertex 18 -18 0
      vertex 0.825 -11.4289 0
    endloop
  endfacet
  facet normal 0 0 -1
    outer loop
      vertex 0.825 -8.57106 0
      vertex -10.2637 10.2606 0
      vertex 7.26061 -10.7363 0
    endloop
  endfacet
  facet normal 0 0 -1
    outer loop
      vertex 0.825 -8.57106 0
      vertex 7.26061 -10.7363 0
      vertex 6.95523 -11.3356 0
    endloop
  endfacet
  facet normal 0 0 -1
    outer loop
      vertex 0.825 8.57106 0
      vertex 1.65 10 0
      vertex 6.85 12 0
    endloop
  endfacet
  facet normal 0 0 -1
    outer loop
      vertex 18 -18 0
      vertex 0.825 8.57106 0
      vertex 6.95523 11.3356 0
    endloop
  endfacet
  facet normal 0 0 -1
    outer loop
      vertex 18 -18 0
      vertex 6.95523 11.3356 0
      vertex 7.26061 10.7363 0
    endloop
  endfacet
  facet normal 0 0 -1
    outer loop
      vertex 18 -18 0
      vertex 7.26061 10.7363 0
      vertex 7.73626 10.2606 0
    endloop
  endfacet
  facet normal 0 0 -1
    outer loop
      vertex 18 -18 0
      vertex 7.73626 10.2606 0
      vertex 8.33561 9.95523 0
    endloop
  endfacet
  facet normal 0 0 -1
    outer loop
      vertex 18 -18 0
      vertex 8.33561 9.95523 0
      vertex 9 9.85 0
    endloop
  endfacet
  facet normal 0 0 -1
    outer loop
      vertex 18 -18 0
      vertex 9 9.85 0
      vertex 9.66439 9.95523 0
    endloop
  endfacet
  facet normal 0 0 -1
    outer loop
      vertex 18 -18 0
      vertex 9.66439 9.95523 0
      vertex 10.2637 10.2606 0
    endloop
  endfacet
  facet normal 0 0 -1
    outer loop
      vertex 18 -18 0
      vertex 10.2637 10.2606 0
      vertex 10.7394 10.7363 0
    endloop
  endfacet
  facet normal 0 0 -1
    outer loop
      vertex 18 -18 0
      vertex 10.7394 10.7363 0
      vertex 18 18 0
    endloop
  endfacet
  facet normal 0 0 -1
    outer loop
      vertex 11.15 12 0
      vertex 18 18 0
      vertex 11.0448 11.3356 0
    endloop
  endfacet
  facet normal 0 0 -1
    outer loop
      vertex 11.0448 12.6644 0
      vertex 18 18 0
      vertex 11.15 12 0
    endloop
  endfacet
  facet normal 0 0 -1
    outer loop
      vertex 10.7394 13.2637 0
      vertex 18 18 0
      vertex 11.0448 12.6644 0
    endloop
  endfacet
  facet normal 0 0 -1
    outer loop
      vertex 10.2637 13.7394 0
      vertex 18 18 0
      vertex 10.7394 13.2637 0
    endloop
  endfacet
  facet normal 0 0 -1
    outer loop
      vertex 11.0448 11.3356 0
      vertex 18 18 0
      vertex 10.7394 10.7363 0
    endloop
  endfacet
  facet normal 0 0 -1
    outer loop
      vertex 9.66439 14.0448 0
      vertex 18 18 0
      vertex 10.2637 13.7394 0
    endloop
  endfacet
  facet normal 0 0 -1
    outer loop
      vertex 7.26061 13.2637 0
      vertex 0.825 11.4289 0
      vertex 7.73626 13.7394 0
    endloop
  endfacet
  facet normal 0 0 -1
    outer loop
      vertex 9.66439 14.0448 0
      vertex 9 14.15 0
      vertex 18 18 0
    endloop
  endfacet
  facet normal 0 0 -1
    outer loop
      vertex 9 14.15 0
      vertex 8.33561 14.0448 0
      vertex 18 18 0
    endloop
  endfacet
  facet normal 0 0 -1
    outer loop
      vertex -8.33561 -14.0448 0
      vertex 18 -18 0
      vertex -9 -14.15 0
    endloop
  endfacet
  facet normal 0 0 -1
    outer loop
      vertex 7.73626 -13.7394 0
      vertex 8.33561 -14.0448 0
      vertex 0.825 -11.4289 0
    endloop
  endfacet
  facet normal 0 1 0
    outer loop
      vertex -18 18 0
      vertex -18 18 4
      vertex 18 18 0
    endloop
  endfacet
  facet normal 0 1 0
    outer loop
      vertex 18 18 0
      vertex -18 18 4
      vertex 18 18 4
    endloop
  endfacet
  facet normal 0 0 1
    outer loop
      vertex -8.33561 -14.0448 4
      vertex -18 -18 4
      vertex 18 -18 4
    endloop
  endfacet
  facet normal 0 0 1
    outer loop
      vertex -11.0448 12.6644 4
      vertex -10.7394 13.2637 4
      vertex -18 18 4
    endloop
  endfacet
  facet normal 0 0 1
    outer loop
      vertex -17.275 0 4
      vertex -18 -18 4
      vertex -17.0413 -1.47556 4
    endloop
  endfacet
  facet normal 0 0 1
    outer loop
      vertex 12.5 -4.775 4
      vertex 10.7394 -10.7363 4
      vertex 18 -18 4
    endloop
  endfacet
  facet normal 0 0 1
    outer loop
      vertex -18 18 4
      vertex -18 -18 4
      vertex -17.275 0 4
    endloop
  endfacet
  facet normal 0 0 1
    outer loop
      vertex -18 18 4
      vertex -17.0413 1.47556 4
      vertex -16.3631 2.80667 4
    endloop
  endfacet
  facet normal 0 0 1
    outer loop
      vertex -18 18 4
      vertex -16.3631 2.80667 4
      vertex -15.3067 3.86306 4
    endloop
  endfacet
  facet normal 0 0 1
    outer loop
      vertex -18 18 4
      vertex -15.3067 3.86306 4
      vertex -13.9756 4.54129 4
    endloop
  endfacet
  facet normal 0 0 1
    outer loop
      vertex -18 18 4
      vertex -13.9756 4.54129 4
      vertex -12.5 4.775 4
    endloop
  endfacet
  facet normal 0 0 1
    outer loop
      vertex 15.3067 -3.86306 4
      vertex 13.9756 -4.54129 4
      vertex 18 -18 4
    endloop
  endfacet
  facet normal 0 0 1
    outer loop
      vertex 18 18 4
      vertex 12.5 4.775 4
      vertex 13.9756 4.54129 4
    endloop
  endfacet
  facet normal 0 0 1
    outer loop
      vertex 18 18 4
      vertex 13.9756 4.54129 4
      vertex 15.3067 3.86306 4
    endloop
  endfacet
  facet normal 0 0 1
    outer loop
      vertex 18 18 4
      vertex 15.3067 3.86306 4
      vertex 16.3631 2.80667 4
    endloop
  endfacet
  facet normal 0 0 1
    outer loop
      vertex 17.0413 -1.47556 4
      vertex 16.3631 -2.80667 4
      vertex 18 -18 4
    endloop
  endfacet
  facet normal 0 0 1
    outer loop
      vertex 18 18 4
      vertex 16.3631 2.80667 4
      vertex 17.0413 1.47556 4
    endloop
  endfacet
  facet normal 0 0 1
    outer loop
      vertex 18 18 4
      vertex 17.275 0 4
      vertex 18 -18 4
    endloop
  endfacet
  facet normal 0 0 1
    outer loop
      vertex 18 18 4
      vertex 17.0413 1.47556 4
      vertex 17.275 0 4
    endloop
  endfacet
  facet normal 0 0 1
    outer loop
      vertex 13.9756 -4.54129 4
      vertex 12.5 -4.775 4
      vertex 18 -18 4
    endloop
  endfacet
  facet normal 0 0 1
    outer loop
      vertex 9.66439 14.0448 4
      vertex 10.2637 13.7394 4
      vertex 18 18 4
    endloop
  endfacet
  facet normal 0 0 1
    outer loop
      vertex -13.9756 -4.54129 4
      vertex -18 -18 4
      vertex -12.5 -4.775 4
    endloop
  endfacet
  facet normal 0 0 1
    outer loop
      vertex -15.3067 -3.86306 4
      vertex -18 -18 4
      vertex -13.9756 -4.54129 4
    endloop
  endfacet
  facet normal 0 0 1
    outer loop
      vertex -16.3631 -2.80667 4
      vertex -18 -18 4
      vertex -15.3067 -3.86306 4
    endloop
  endfacet
  facet normal 0 0 1
    outer loop
      vertex -17.0413 -1.47556 4
      vertex -18 -18 4
      vertex -16.3631 -2.80667 4
    endloop
  endfacet
  facet normal 0 0 1
    outer loop
      vertex -8.33561 -14.0448 4
      vertex -9 -14.15 4
      vertex -18 -18 4
    endloop
  endfacet
  facet normal 0 0 1
    outer loop
      vertex -12.5 -4.775 4
      vertex -18 -18 4
      vertex -11.0448 -12.6644 4
    endloop
  endfacet
  facet normal 0 0 1
    outer loop
      vertex -7.26061 -13.2637 4
      vertex -7.73626 -13.7394 4
      vertex 18 -18 4
    endloop
  endfacet
  facet normal 0 0 1
    outer loop
      vertex -12.5 -4.775 4
      vertex -11.0448 -12.6644 4
      vertex -11.15 -12 4
    endloop
  endfacet
  facet normal 0 0 1
    outer loop
      vertex -6.95523 -12.6644 4
      vertex -7.26061 -13.2637 4
      vertex 18 -18 4
    endloop
  endfacet
  facet normal 0 0 1
    outer loop
      vertex -12.5 -4.775 4
      vertex -11.15 -12 4
      vertex -11.0448 -11.3356 4
    endloop
  endfacet
  facet normal 0 0 1
    outer loop
      vertex -6.85 -12 4
      vertex -6.95523 -12.6644 4
      vertex 18 -18 4
    endloop
  endfacet
  facet normal 0 0 1
    outer loop
      vertex -12.5 -4.775 4
      vertex -11.0448 -11.3356 4
      vertex -10.7394 -10.7363 4
    endloop
  endfacet
  facet normal 0 0 1
    outer loop
      vertex -6.95523 -11.3356 4
      vertex -6.85 -12 4
      vertex 18 -18 4
    endloop
  endfacet
  facet normal 0 0 1
    outer loop
      vertex -12.5 -4.775 4
      vertex -10.7394 -10.7363 4
      vertex -10.2637 -10.2606 4
    endloop
  endfacet
  facet normal 0 0 1
    outer loop
      vertex -7.26061 -10.7363 4
      vertex -6.95523 -11.3356 4
      vertex 18 -18 4
    endloop
  endfacet
  facet normal 0 0 1
    outer loop
      vertex -12.5 -4.775 4
      vertex -10.2637 -10.2606 4
      vertex -9.66439 -9.95523 4
    endloop
  endfacet
  facet normal 0 0 1
    outer loop
      vertex -7.73626 -10.2606 4
      vertex -7.26061 -10.7363 4
      vertex 18 -18 4
    endloop
  endfacet
  facet normal 0 0 1
    outer loop
      vertex -12.5 -4.775 4
      vertex -9.66439 -9.95523 4
      vertex -9 -9.85 4
    endloop
  endfacet
  facet normal 0 0 1
    outer loop
      vertex -0.825 -11.4289 4
      vertex -8.33561 -9.95523 4
      vertex 18 -18 4
    endloop
  endfacet
  facet normal 0 0 1
    outer loop
      vertex -12.5 -4.775 4
      vertex -9 -9.85 4
      vertex -8.33561 -9.95523 4
    endloop
  endfacet
  facet normal 0 0 1
    outer loop
      vertex -7.73626 -13.7394 4
      vertex -8.33561 -14.0448 4
      vertex 18 -18 4
    endloop
  endfacet
  facet normal 0 0 1
    outer loop
      vertex -10.7394 10.7363 4
      vertex -11.0448 11.3356 4
      vertex -18 18 4
    endloop
  endfacet
  facet normal 0 0 1
    outer loop
      vertex -9.66439 -14.0448 4
      vertex -18 -18 4
      vertex -9 -14.15 4
    endloop
  endfacet
  facet normal 0 0 1
    outer loop
      vertex -10.2637 -13.7394 4
      vertex -18 -18 4
      vertex -9.66439 -14.0448 4
    endloop
  endfacet
  facet normal 0 0 1
    outer loop
      vertex -10.7394 -13.2637 4
      vertex -18 -18 4
      vertex -10.2637 -13.7394 4
    endloop
  endfacet
  facet normal 0 0 1
    outer loop
      vertex -11.0448 -12.6644 4
      vertex -18 -18 4
      vertex -10.7394 -13.2637 4
    endloop
  endfacet
  facet normal 0 0 1
    outer loop
      vertex -11.15 12 4
      vertex -18 18 4
      vertex -11.0448 11.3356 4
    endloop
  endfacet
  facet normal 0 0 1
    outer loop
      vertex -11.0448 12.6644 4
      vertex -18 18 4
      vertex -11.15 12 4
    endloop
  endfacet
  facet normal 0 0 1
    outer loop
      vertex 12.5 -4.775 4
      vertex 9.66439 -9.95523 4
      vertex 10.2637 -10.2606 4
    endloop
  endfacet
  facet normal 0 0 1
    outer loop
      vertex -9.66439 14.0448 4
      vertex -9 14.15 4
      vertex -18 18 4
    endloop
  endfacet
  facet normal 0 0 1
    outer loop
      vertex 16.3631 -2.80667 4
      vertex 15.3067 -3.86306 4
      vertex 18 -18 4
    endloop
  endfacet
  facet normal 0 0 1
    outer loop
      vertex -10.2637 13.7394 4
      vertex -18 18 4
      vertex -10.7394 13.2637 4
    endloop
  endfacet
  facet normal 0 0 1
    outer loop
      vertex -9.66439 14.0448 4
      vertex -18 18 4
      vertex -10.2637 13.7394 4
    endloop
  endfacet
  facet normal 0 0 1
    outer loop
      vertex -6.85 12 4
      vertex -6.95523 11.3356 4
      vertex -1.65 10 4
    endloop
  endfacet
  facet normal 0 0 1
    outer loop
      vertex 18 18 4
      vertex -18 18 4
      vertex -9 14.15 4
    endloop
  endfacet
  facet normal 0 0 1
    outer loop
      vertex 0.825 11.4289 4
      vertex 1.65 10 4
      vertex 12.5 4.775 4
    endloop
  endfacet
  facet normal 0 0 1
    outer loop
      vertex 18 18 4
      vertex -9 14.15 4
      vertex -8.33561 14.0448 4
    endloop
  endfacet
  facet normal 0 0 1
    outer loop
      vertex 6.85 -12 4
      vertex 6.95523 -11.3356 4
      vertex 0.825 -8.57106 4
    endloop
  endfacet
  facet normal 0 0 1
    outer loop
      vertex 7.26061 -13.2637 4
      vertex 6.95523 -12.6644 4
      vertex 1.65 -10 4
    endloop
  endfacet
  facet normal 0 0 1
    outer loop
      vertex -7.73626 13.7394 4
      vertex -0.825 11.4289 4
      vertex -8.33561 14.0448 4
    endloop
  endfacet
  facet normal 0 0 1
    outer loop
      vertex 17.275 0 4
      vertex 17.0413 -1.47556 4
      vertex 18 -18 4
    endloop
  endfacet
  facet normal 0 0 1
    outer loop
      vertex 12.5 -4.775 4
      vertex 10.2637 -10.2606 4
      vertex 10.7394 -10.7363 4
    endloop
  endfacet
  facet normal 0 0 1
    outer loop
      vertex 12.5 -4.775 4
      vertex 8.33561 -9.95523 4
      vertex 9 -9.85 4
    endloop
  endfacet
  facet normal 0 0 1
    outer loop
      vertex 12.5 -4.775 4
      vertex 9 -9.85 4
      vertex 9.66439 -9.95523 4
    endloop
  endfacet
  facet normal 0 0 1
    outer loop
      vertex 10.7394 -13.2637 4
      vertex 10.2637 -13.7394 4
      vertex 18 -18 4
    endloop
  endfacet
  facet normal 0 0 1
    outer loop
      vertex 12.5 -4.775 4
      vertex 7.73626 -10.2606 4
      vertex 8.33561 -9.95523 4
    endloop
  endfacet
  facet normal 0 0 1
    outer loop
      vertex 12.5 -4.775 4
      vertex 7.26061 -10.7363 4
      vertex 7.73626 -10.2606 4
    endloop
  endfacet
  facet normal 0 0 1
    outer loop
      vertex 7.26061 -10.7363 4
      vertex 0.825 -8.57106 4
      vertex 6.95523 -11.3356 4
    endloop
  endfacet
  facet normal 0 0 1
    outer loop
      vertex -10.7394 10.7363 4
      vertex -12.5 4.775 4
      vertex -10.2637 10.2606 4
    endloop
  endfacet
  facet normal 0 0 1
    outer loop
      vertex -18 18 4
      vertex -12.5 4.775 4
      vertex -10.7394 10.7363 4
    endloop
  endfacet
  facet normal 0 0 1
    outer loop
      vertex 0.825 -11.4289 4
      vertex -0.825 -11.4289 4
      vertex 18 -18 4
    endloop
  endfacet
  facet normal 0 0 1
    outer loop
      vertex -12.5 -4.775 4
      vertex -8.33561 -9.95523 4
      vertex -0.825 -11.4289 4
    endloop
  endfacet
  facet normal 0 0 1
    outer loop
      vertex -12.5 -4.775 4
      vertex -0.825 -11.4289 4
      vertex -1.65 -10 4
    endloop
  endfacet
  facet normal 0 0 1
    outer loop
      vertex 1.65 -10 4
      vertex 0.825 -11.4289 4
      vertex 7.73626 -13.7394 4
    endloop
  endfacet
  facet normal 0 0 1
    outer loop
      vertex 7.73626 -13.7394 4
      vertex 0.825 -11.4289 4
      vertex 8.33561 -14.0448 4
    endloop
  endfacet
  facet normal 0 0 1
    outer loop
      vertex -1.65 10 4
      vertex -6.95523 12.6644 4
      vertex -6.85 12 4
    endloop
  endfacet
  facet normal 0 0 1
    outer loop
      vertex -1.65 10 4
      vertex -7.73626 13.7394 4
      vertex -7.26061 13.2637 4
    endloop
  endfacet
  facet normal 0 0 1
    outer loop
      vertex 1.65 10 4
      vertex 0.825 8.57106 4
      vertex 12.5 4.775 4
    endloop
  endfacet
  facet normal 0 0 1
    outer loop
      vertex 18 18 4
      vertex -8.33561 14.0448 4
      vertex -0.825 11.4289 4
    endloop
  endfacet
  facet normal 0 0 1
    outer loop
      vertex 7.73626 10.2606 4
      vertex 0.825 11.4289 4
      vertex 12.5 4.775 4
    endloop
  endfacet
  facet normal 0 0 1
    outer loop
      vertex 18 18 4
      vertex -0.825 11.4289 4
      vertex 0.825 11.4289 4
    endloop
  endfacet
  facet normal 0 0 1
    outer loop
      vertex 12.5 4.775 4
      vertex 0.825 8.57106 4
      vertex -0.825 8.57106 4
    endloop
  endfacet
  facet normal 0 0 1
    outer loop
      vertex 8.33561 -14.0448 4
      vertex 0.825 -11.4289 4
      vertex 18 -18 4
    endloop
  endfacet
  facet normal 0 0 1
    outer loop
      vertex 10.7394 -10.7363 4
      vertex 11.0448 -11.3356 4
      vertex 18 -18 4
    endloop
  endfacet
  facet normal 0 0 1
    outer loop
      vertex 10.2637 -13.7394 4
      vertex 9.66439 -14.0448 4
      vertex 18 -18 4
    endloop
  endfacet
  facet normal 0 0 1
    outer loop
      vertex 6.95523 -12.6644 4
      vertex 6.85 -12 4
      vertex 1.65 -10 4
    endloop
  endfacet
  facet normal 0 0 1
    outer loop
      vertex 8.33561 14.0448 4
      vertex 9 14.15 4
      vertex 18 18 4
    endloop
  endfacet
  facet normal 0 0 1
    outer loop
      vertex 11.15 -12 4
      vertex 11.0448 -12.6644 4
      vertex 18 -18 4
    endloop
  endfacet
  facet normal 0 0 1
    outer loop
      vertex 9.66439 -14.0448 4
      vertex 9 -14.15 4
      vertex 18 -18 4
    endloop
  endfacet
  facet normal 0 0 1
    outer loop
      vertex 12.5 -4.775 4
      vertex 0.825 -8.57106 4
      vertex 7.26061 -10.7363 4
    endloop
  endfacet
  facet normal 0 0 1
    outer loop
      vertex 12.5 -4.775 4
      vertex -0.825 -8.57106 4
      vertex 0.825 -8.57106 4
    endloop
  endfacet
  facet normal 0 0 1
    outer loop
      vertex 11.0448 -12.6644 4
      vertex 10.7394 -13.2637 4
      vertex 18 -18 4
    endloop
  endfacet
  facet normal 0 0 1
    outer loop
      vertex -1.65 -10 4
      vertex -0.825 -8.57106 4
      vertex -12.5 -4.775 4
    endloop
  endfacet
  facet normal 0 0 1
    outer loop
      vertex 0.825 -8.57106 4
      vertex 1.65 -10 4
      vertex 6.85 -12 4
    endloop
  endfacet
  facet normal 0 0 1
    outer loop
      vertex 1.65 -10 4
      vertex 7.73626 -13.7394 4
      vertex 7.26061 -13.2637 4
    endloop
  endfacet
  facet normal 0 0 1
    outer loop
      vertex 9 -14.15 4
      vertex 8.33561 -14.0448 4
      vertex 18 -18 4
    endloop
  endfacet
  facet normal 0 0 1
    outer loop
      vertex -0.825 8.57106 4
      vertex -1.65 10 4
      vertex -6.95523 11.3356 4
    endloop
  endfacet
  facet normal 0 0 1
    outer loop
      vertex -1.65 10 4
      vertex -7.26061 13.2637 4
      vertex -6.95523 12.6644 4
    endloop
  endfacet
  facet normal 0 0 1
    outer loop
      vertex -8.33561 -9.95523 4
      vertex -7.73626 -10.2606 4
      vertex 18 -18 4
    endloop
  endfacet
  facet normal 0 0 1
    outer loop
      vertex 6.85 12 4
      vertex 0.825 11.4289 4
      vertex 6.95523 11.3356 4
    endloop
  endfacet
  facet normal 0 0 1
    outer loop
      vertex 6.95523 12.6644 4
      vertex 0.825 11.4289 4
      vertex 6.85 12 4
    endloop
  endfacet
  facet normal 0 0 1
    outer loop
      vertex 10.2637 13.7394 4
      vertex 10.7394 13.2637 4
      vertex 18 18 4
    endloop
  endfacet
  facet normal 0 0 1
    outer loop
      vertex 7.26061 13.2637 4
      vertex 0.825 11.4289 4
      vertex 6.95523 12.6644 4
    endloop
  endfacet
  facet normal 0 0 1
    outer loop
      vertex 7.73626 13.7394 4
      vertex 0.825 11.4289 4
      vertex 7.26061 13.2637 4
    endloop
  endfacet
  facet normal 0 0 1
    outer loop
      vertex 8.33561 14.0448 4
      vertex 0.825 11.4289 4
      vertex 7.73626 13.7394 4
    endloop
  endfacet
  facet normal 0 0 1
    outer loop
      vertex 9 14.15 4
      vertex 9.66439 14.0448 4
      vertex 18 18 4
    endloop
  endfacet
  facet normal 0 0 1
    outer loop
      vertex 18 18 4
      vertex 0.825 11.4289 4
      vertex 8.33561 14.0448 4
    endloop
  endfacet
  facet normal 0 0 1
    outer loop
      vertex 11.15 12 4
      vertex 11.0448 11.3356 4
      vertex 12.5 4.775 4
    endloop
  endfacet
  facet normal 0 0 1
    outer loop
      vertex 8.33561 9.95523 4
      vertex 7.73626 10.2606 4
      vertex 12.5 4.775 4
    endloop
  endfacet
  facet normal 0 0 1
    outer loop
      vertex 18 18 4
      vertex 11.0448 12.6644 4
      vertex 12.5 4.775 4
    endloop
  endfacet
  facet normal 0 0 1
    outer loop
      vertex 18 18 4
      vertex 10.7394 13.2637 4
      vertex 11.0448 12.6644 4
    endloop
  endfacet
  facet normal 0 0 1
    outer loop
      vertex 11.0448 12.6644 4
      vertex 11.15 12 4
      vertex 12.5 4.775 4
    endloop
  endfacet
  facet normal 0 0 1
    outer loop
      vertex 11.0448 11.3356 4
      vertex 10.7394 10.7363 4
      vertex 12.5 4.775 4
    endloop
  endfacet
  facet normal 0 0 1
    outer loop
      vertex 10.7394 10.7363 4
      vertex 10.2637 10.2606 4
      vertex 12.5 4.775 4
    endloop
  endfacet
  facet normal 0 0 1
    outer loop
      vertex 10.2637 10.2606 4
      vertex 9.66439 9.95523 4
      vertex 12.5 4.775 4
    endloop
  endfacet
  facet normal 0 0 1
    outer loop
      vertex 9.66439 9.95523 4
      vertex 9 9.85 4
      vertex 12.5 4.775 4
    endloop
  endfacet
  facet normal 0 0 1
    outer loop
      vertex 9 9.85 4
      vertex 8.33561 9.95523 4
      vertex 12.5 4.775 4
    endloop
  endfacet
  facet normal 0 0 1
    outer loop
      vertex 7.26061 10.7363 4
      vertex 0.825 11.4289 4
      vertex 7.73626 10.2606 4
    endloop
  endfacet
  facet normal 0 0 1
    outer loop
      vertex 6.95523 11.3356 4
      vertex 0.825 11.4289 4
      vertex 7.26061 10.7363 4
    endloop
  endfacet
  facet normal 0 0 1
    outer loop
      vertex -17.275 0 4
      vertex -17.0413 1.47556 4
      vertex -18 18 4
    endloop
  endfacet
  facet normal 0 0 1
    outer loop
      vertex 11.0448 -11.3356 4
      vertex 11.15 -12 4
      vertex 18 -18 4
    endloop
  endfacet
  facet normal 0 0 1
    outer loop
      vertex -12.5 4.775 4
      vertex -9.66439 9.95523 4
      vertex -10.2637 10.2606 4
    endloop
  endfacet
  facet normal 0 0 1
    outer loop
      vertex -12.5 4.775 4
      vertex -9 9.85 4
      vertex -9.66439 9.95523 4
    endloop
  endfacet
  facet normal 0 0 1
    outer loop
      vertex -12.5 4.775 4
      vertex -8.33561 9.95523 4
      vertex -9 9.85 4
    endloop
  endfacet
  facet normal 0 0 1
    outer loop
      vertex -12.5 4.775 4
      vertex -7.73626 10.2606 4
      vertex -8.33561 9.95523 4
    endloop
  endfacet
  facet normal 0 0 1
    outer loop
      vertex -12.5 4.775 4
      vertex -7.26061 10.7363 4
      vertex -7.73626 10.2606 4
    endloop
  endfacet
  facet normal 0 0 1
    outer loop
      vertex -7.26061 10.7363 4
      vertex -0.825 8.57106 4
      vertex -6.95523 11.3356 4
    endloop
  endfacet
  facet normal 0 0 1
    outer loop
      vertex -12.5 4.775 4
      vertex -0.825 8.57106 4
      vertex -7.26061 10.7363 4
    endloop
  endfacet
  facet normal 0 0 1
    outer loop
      vertex -12.5 4.775 4
      vertex 12.5 4.775 4
      vertex -0.825 8.57106 4
    endloop
  endfacet
  facet normal 0 0 1
    outer loop
      vertex -1.65 10 4
      vertex -0.825 11.4289 4
      vertex -7.73626 13.7394 4
    endloop
  endfacet
  facet normal 0 0 1
    outer loop
      vertex 12.5 -4.775 4
      vertex -12.5 -4.775 4
      vertex -0.825 -8.57106 4
    endloop
  endfacet
  facet normal 1 0 0
    outer loop
      vertex 18 -18 4
      vertex 18 -18 0
      vertex 18 18 0
    endloop
  endfacet
  facet normal 1 0 0
    outer loop
      vertex 18 18 4
      vertex 18 -18 4
      vertex 18 18 0
    endloop
  endfacet
  facet normal 0.987688 -0.156434 0
    outer loop
      vertex -11.0448 -11.3356 0
      vertex -11.0448 -11.3356 4
      vertex -11.15 -12 4
    endloop
  endfacet
  facet normal 0.987688 -0.156434 0
    outer loop
      vertex -11.15 -12 0
      vertex -11.0448 -11.3356 0
      vertex -11.15 -12 4
    endloop
  endfacet
  facet normal 0.987688 0.156434 0
    outer loop
      vertex -11.15 -12 4
      vertex -11.0448 -12.6644 4
      vertex -11.0448 -12.6644 0
    endloop
  endfacet
  facet normal 0.987688 0.156434 0
    outer loop
      vertex -11.15 -12 0
      vertex -11.15 -12 4
      vertex -11.0448 -12.6644 0
    endloop
  endfacet
  facet normal 0.891006 -0.453991 0
    outer loop
      vertex -10.7394 -10.7363 0
      vertex -10.7394 -10.7363 4
      vertex -11.0448 -11.3356 4
    endloop
  endfacet
  facet normal 0.891006 -0.453991 0
    outer loop
      vertex -11.0448 -11.3356 0
      vertex -10.7394 -10.7363 0
      vertex -11.0448 -11.3356 4
    endloop
  endfacet
  facet normal 0.707107 -0.707107 0
    outer loop
      vertex -10.2637 -10.2606 0
      vertex -10.2637 -10.2606 4
      vertex -10.7394 -10.7363 4
    endloop
  endfacet
  facet normal 0.707107 -0.707107 0
    outer loop
      vertex -10.7394 -10.7363 0
      vertex -10.2637 -10.2606 0
      vertex -10.7394 -10.7363 4
    endloop
  endfacet
  facet normal 0.453991 -0.891006 0
    outer loop
      vertex -9.66439 -9.95523 0
      vertex -9.66439 -9.95523 4
      vertex -10.2637 -10.2606 4
    endloop
  endfacet
  facet normal 0.453991 -0.891006 0
    outer loop
      vertex -10.2637 -10.2606 0
      vertex -9.66439 -9.95523 0
      vertex -10.2637 -10.2606 4
    endloop
  endfacet
  facet normal 0.156434 -0.987688 0
    outer loop
      vertex -9 -9.85 0
      vertex -9 -9.85 4
      vertex -9.66439 -9.95523 4
    endloop
  endfacet
  facet normal 0.156434 -0.987688 0
    outer loop
      vertex -9.66439 -9.95523 0
      vertex -9 -9.85 0
      vertex -9.66439 -9.95523 4
    endloop
  endfacet
  facet normal -0.156434 -0.987688 0
    outer loop
      vertex -8.33561 -9.95523 0
      vertex -8.33561 -9.95523 4
      vertex -9 -9.85 4
    endloop
  endfacet
  facet normal -0.156434 -0.987688 0
    outer loop
      vertex -9 -9.85 0
      vertex -8.33561 -9.95523 0
      vertex -9 -9.85 4
    endloop
  endfacet
  facet normal -0.453991 -0.891006 0
    outer loop
      vertex -7.73626 -10.2606 0
      vertex -7.73626 -10.2606 4
      vertex -8.33561 -9.95523 4
    endloop
  endfacet
  facet normal -0.453991 -0.891006 0
    outer loop
      vertex -8.33561 -9.95523 0
      vertex -7.73626 -10.2606 0
      vertex -8.33561 -9.95523 4
    endloop
  endfacet
  facet normal -0.707107 -0.707107 0
    outer loop
      vertex -7.26061 -10.7363 0
      vertex -7.26061 -10.7363 4
      vertex -7.73626 -10.2606 4
    endloop
  endfacet
  facet normal -0.707107 -0.707107 0
    outer loop
      vertex -7.73626 -10.2606 0
      vertex -7.26061 -10.7363 0
      vertex -7.73626 -10.2606 4
    endloop
  endfacet
  facet normal -0.891006 -0.453991 0
    outer loop
      vertex -6.95523 -11.3356 4
      vertex -7.26061 -10.7363 4
      vertex -6.95523 -11.3356 0
    endloop
  endfacet
  facet normal -0.891006 -0.453991 0
    outer loop
      vertex -6.95523 -11.3356 0
      vertex -7.26061 -10.7363 4
      vertex -7.26061 -10.7363 0
    endloop
  endfacet
  facet normal -0.987688 -0.156434 0
    outer loop
      vertex -6.85 -12 4
      vertex -6.95523 -11.3356 4
      vertex -6.85 -12 0
    endloop
  endfacet
  facet normal -0.987688 -0.156434 0
    outer loop
      vertex -6.85 -12 0
      vertex -6.95523 -11.3356 4
      vertex -6.95523 -11.3356 0
    endloop
  endfacet
  facet normal -0.987688 0.156434 0
    outer loop
      vertex -6.85 -12 4
      vertex -6.85 -12 0
      vertex -6.95523 -12.6644 4
    endloop
  endfacet
  facet normal -0.987688 0.156434 0
    outer loop
      vertex -6.95523 -12.6644 4
      vertex -6.85 -12 0
      vertex -6.95523 -12.6644 0
    endloop
  endfacet
  facet normal -0.891006 0.453991 0
    outer loop
      vertex -6.95523 -12.6644 4
      vertex -6.95523 -12.6644 0
      vertex -7.26061 -13.2637 4
    endloop
  endfacet
  facet normal -0.891006 0.453991 0
    outer loop
      vertex -7.26061 -13.2637 4
      vertex -6.95523 -12.6644 0
      vertex -7.26061 -13.2637 0
    endloop
  endfacet
  facet normal -0.707107 0.707107 0
    outer loop
      vertex -7.26061 -13.2637 4
      vertex -7.26061 -13.2637 0
      vertex -7.73626 -13.7394 4
    endloop
  endfacet
  facet normal -0.707107 0.707107 0
    outer loop
      vertex -7.73626 -13.7394 4
      vertex -7.26061 -13.2637 0
      vertex -7.73626 -13.7394 0
    endloop
  endfacet
  facet normal -0.453991 0.891006 0
    outer loop
      vertex -7.73626 -13.7394 4
      vertex -7.73626 -13.7394 0
      vertex -8.33561 -14.0448 4
    endloop
  endfacet
  facet normal -0.453991 0.891006 0
    outer loop
      vertex -8.33561 -14.0448 4
      vertex -7.73626 -13.7394 0
      vertex -8.33561 -14.0448 0
    endloop
  endfacet
  facet normal -0.156434 0.987688 0
    outer loop
      vertex -8.33561 -14.0448 4
      vertex -8.33561 -14.0448 0
      vertex -9 -14.15 4
    endloop
  endfacet
  facet normal -0.156434 0.987688 0
    outer loop
      vertex -9 -14.15 4
      vertex -8.33561 -14.0448 0
      vertex -9 -14.15 0
    endloop
  endfacet
  facet normal 0.156434 0.987688 0
    outer loop
      vertex -9 -14.15 4
      vertex -9 -14.15 0
      vertex -9.66439 -14.0448 4
    endloop
  endfacet
  facet normal 0.156434 0.987688 0
    outer loop
      vertex -9.66439 -14.0448 4
      vertex -9 -14.15 0
      vertex -9.66439 -14.0448 0
    endloop
  endfacet
  facet normal 0.453991 0.891006 0
    outer loop
      vertex -9.66439 -14.0448 4
      vertex -9.66439 -14.0448 0
      vertex -10.2637 -13.7394 4
    endloop
  endfacet
  facet normal 0.453991 0.891006 0
    outer loop
      vertex -10.2637 -13.7394 4
      vertex -9.66439 -14.0448 0
      vertex -10.2637 -13.7394 0
    endloop
  endfacet
  facet normal 0.707107 0.707107 0
    outer loop
      vertex -10.2637 -13.7394 4
      vertex -10.2637 -13.7394 0
      vertex -10.7394 -13.2637 4
    endloop
  endfacet
  facet normal 0.707107 0.707107 0
    outer loop
      vertex -10.7394 -13.2637 4
      vertex -10.2637 -13.7394 0
      vertex -10.7394 -13.2637 0
    endloop
  endfacet
  facet normal 0.891006 0.453991 0
    outer loop
      vertex -11.0448 -12.6644 4
      vertex -10.7394 -13.2637 4
      vertex -10.7394 -13.2637 0
    endloop
  endfacet
  facet normal 0.891006 0.453991 0
    outer loop
      vertex -11.0448 -12.6644 0
      vertex -11.0448 -12.6644 4
      vertex -10.7394 -13.2637 0
    endloop
  endfacet
  facet normal 0.987688 -0.156434 0
    outer loop
      vertex -11.0448 12.6644 0
      vertex -11.0448 12.6644 4
      vertex -11.15 12 4
    endloop
  endfacet
  facet normal 0.987688 -0.156434 0
    outer loop
      vertex -11.15 12 0
      vertex -11.0448 12.6644 0
      vertex -11.15 12 4
    endloop
  endfacet
  facet normal 0.987688 0.156434 0
    outer loop
      vertex -11.15 12 4
      vertex -11.0448 11.3356 4
      vertex -11.0448 11.3356 0
    endloop
  endfacet
  facet normal 0.987688 0.156434 0
    outer loop
      vertex -11.15 12 0
      vertex -11.15 12 4
      vertex -11.0448 11.3356 0
    endloop
  endfacet
  facet normal 0.891006 -0.453991 0
    outer loop
      vertex -10.7394 13.2637 0
      vertex -10.7394 13.2637 4
      vertex -11.0448 12.6644 4
    endloop
  endfacet
  facet normal 0.891006 -0.453991 0
    outer loop
      vertex -11.0448 12.6644 0
      vertex -10.7394 13.2637 0
      vertex -11.0448 12.6644 4
    endloop
  endfacet
  facet normal 0.707107 -0.707107 0
    outer loop
      vertex -10.2637 13.7394 0
      vertex -10.2637 13.7394 4
      vertex -10.7394 13.2637 4
    endloop
  endfacet
  facet normal 0.707107 -0.707107 0
    outer loop
      vertex -10.7394 13.2637 0
      vertex -10.2637 13.7394 0
      vertex -10.7394 13.2637 4
    endloop
  endfacet
  facet normal 0.453991 -0.891006 0
    outer loop
      vertex -9.66439 14.0448 0
      vertex -9.66439 14.0448 4
      vertex -10.2637 13.7394 4
    endloop
  endfacet
  facet normal 0.453991 -0.891006 0
    outer loop
      vertex -10.2637 13.7394 0
      vertex -9.66439 14.0448 0
      vertex -10.2637 13.7394 4
    endloop
  endfacet
  facet normal 0.156434 -0.987688 0
    outer loop
      vertex -9 14.15 0
      vertex -9 14.15 4
      vertex -9.66439 14.0448 4
    endloop
  endfacet
  facet normal 0.156434 -0.987688 0
    outer loop
      vertex -9.66439 14.0448 0
      vertex -9 14.15 0
      vertex -9.66439 14.0448 4
    endloop
  endfacet
  facet normal -0.156434 -0.987688 0
    outer loop
      vertex -8.33561 14.0448 0
      vertex -8.33561 14.0448 4
      vertex -9 14.15 4
    endloop
  endfacet
  facet normal -0.156434 -0.987688 0
    outer loop
      vertex -9 14.15 0
      vertex -8.33561 14.0448 0
      vertex -9 14.15 4
    endloop
  endfacet
  facet normal -0.453991 -0.891006 0
    outer loop
      vertex -7.73626 13.7394 0
      vertex -7.73626 13.7394 4
      vertex -8.33561 14.0448 4
    endloop
  endfacet
  facet normal -0.453991 -0.891006 0
    outer loop
      vertex -8.33561 14.0448 0
      vertex -7.73626 13.7394 0
      vertex -8.33561 14.0448 4
    endloop
  endfacet
  facet normal -0.707107 -0.707107 0
    outer loop
      vertex -7.26061 13.2637 0
      vertex -7.26061 13.2637 4
      vertex -7.73626 13.7394 4
    endloop
  endfacet
  facet normal -0.707107 -0.707107 0
    outer loop
      vertex -7.73626 13.7394 0
      vertex -7.26061 13.2637 0
      vertex -7.73626 13.7394 4
    endloop
  endfacet
  facet normal -0.891006 -0.453991 0
    outer loop
      vertex -6.95523 12.6644 4
      vertex -7.26061 13.2637 4
      vertex -6.95523 12.6644 0
    endloop
  endfacet
  facet normal -0.891006 -0.453991 0
    outer loop
      vertex -6.95523 12.6644 0
      vertex -7.26061 13.2637 4
      vertex -7.26061 13.2637 0
    endloop
  endfacet
  facet normal -0.987688 -0.156434 0
    outer loop
      vertex -6.85 12 4
      vertex -6.95523 12.6644 4
      vertex -6.85 12 0
    endloop
  endfacet
  facet normal -0.987688 -0.156434 0
    outer loop
      vertex -6.85 12 0
      vertex -6.95523 12.6644 4
      vertex -6.95523 12.6644 0
    endloop
  endfacet
  facet normal -0.987688 0.156434 0
    outer loop
      vertex -6.85 12 4
      vertex -6.85 12 0
      vertex -6.95523 11.3356 4
    endloop
  endfacet
  facet normal -0.987688 0.156434 0
    outer loop
      vertex -6.95523 11.3356 4
      vertex -6.85 12 0
      vertex -6.95523 11.3356 0
    endloop
  endfacet
  facet normal -0.891006 0.453991 0
    outer loop
      vertex -6.95523 11.3356 4
      vertex -6.95523 11.3356 0
      vertex -7.26061 10.7363 4
    endloop
  endfacet
  facet normal -0.891006 0.453991 0
    outer loop
      vertex -7.26061 10.7363 4
      vertex -6.95523 11.3356 0
      vertex -7.26061 10.7363 0
    endloop
  endfacet
  facet normal -0.707107 0.707107 0
    outer loop
      vertex -7.26061 10.7363 4
      vertex -7.26061 10.7363 0
      vertex -7.73626 10.2606 4
    endloop
  endfacet
  facet normal -0.707107 0.707107 0
    outer loop
      vertex -7.73626 10.2606 4
      vertex -7.26061 10.7363 0
      vertex -7.73626 10.2606 0
    endloop
  endfacet
  facet normal -0.453991 0.891006 0
    outer loop
      vertex -7.73626 10.2606 4
      vertex -7.73626 10.2606 0
      vertex -8.33561 9.95523 4
    endloop
  endfacet
  facet normal -0.453991 0.891006 0
    outer loop
      vertex -8.33561 9.95523 4
      vertex -7.73626 10.2606 0
      vertex -8.33561 9.95523 0
    endloop
  endfacet
  facet normal -0.156434 0.987688 0
    outer loop
      vertex -8.33561 9.95523 4
      vertex -8.33561 9.95523 0
      vertex -9 9.85 4
    endloop
  endfacet
  facet normal -0.156434 0.987688 0
    outer loop
      vertex -9 9.85 4
      vertex -8.33561 9.95523 0
      vertex -9 9.85 0
    endloop
  endfacet
  facet normal 0.156434 0.987688 0
    outer loop
      vertex -9 9.85 4
      vertex -9 9.85 0
      vertex -9.66439 9.95523 4
    endloop
  endfacet
  facet normal 0.156434 0.987688 0
    outer loop
      vertex -9.66439 9.95523 4
      vertex -9 9.85 0
      vertex -9.66439 9.95523 0
    endloop
  endfacet
  facet normal 0.453991 0.891006 0
    outer loop
      vertex -9.66439 9.95523 4
      vertex -9.66439 9.95523 0
      vertex -10.2637 10.2606 4
    endloop
  endfacet
  facet normal 0.453991 0.891006 0
    outer loop
      vertex -10.2637 10.2606 4
      vertex -9.66439 9.95523 0
      vertex -10.2637 10.2606 0
    endloop
  endfacet
  facet normal 0.707107 0.707107 0
    outer loop
      vertex -10.2637 10.2606 4
      vertex -10.2637 10.2606 0
      vertex -10.7394 10.7363 4
    endloop
  endfacet
  facet normal 0.707107 0.707107 0
    outer loop
      vertex -10.7394 10.7363 4
      vertex -10.2637 10.2606 0
      vertex -10.7394 10.7363 0
    endloop
  endfacet
  facet normal 0.891006 0.453991 0
    outer loop
      vertex -11.0448 11.3356 4
      vertex -10.7394 10.7363 4
      vertex -10.7394 10.7363 0
    endloop
  endfacet
  facet normal 0.891006 0.453991 0
    outer loop
      vertex -11.0448 11.3356 0
      vertex -11.0448 11.3356 4
      vertex -10.7394 10.7363 0
    endloop
  endfacet
  facet normal 0.866025 -0.5 0
    outer loop
      vertex -0.825 -8.57106 0
      vertex -0.825 -8.57106 4
      vertex -1.65 -10 4
    endloop
  endfacet
  facet normal 0.866025 -0.5 0
    outer loop
      vertex -1.65 -10 0
      vertex -0.825 -8.57106 0
      vertex -1.65 -10 4
    endloop
  endfacet
  facet normal 0.866025 0.5 0
    outer loop
      vertex -1.65 -10 4
      vertex -0.825 -11.4289 4
      vertex -0.825 -11.4289 0
    endloop
  endfacet
  facet normal 0.866025 0.5 0
    outer loop
      vertex -1.65 -10 0
      vertex -1.65 -10 4
      vertex -0.825 -11.4289 0
    endloop
  endfacet
  facet normal 0 -1 0
    outer loop
      vertex 0.825 -8.57106 0
      vertex 0.825 -8.57106 4
      vertex -0.825 -8.57106 4
    endloop
  endfacet
  facet normal 0 -1 0
    outer loop
      vertex -0.825 -8.57106 0
      vertex 0.825 -8.57106 0
      vertex -0.825 -8.57106 4
    endloop
  endfacet
  facet normal -0.866025 -0.5 0
    outer loop
      vertex 1.65 -10 4
      vertex 0.825 -8.57106 4
      vertex 1.65 -10 0
    endloop
  endfacet
  facet normal -0.866025 -0.5 0
    outer loop
      vertex 1.65 -10 0
      vertex 0.825 -8.57106 4
      vertex 0.825 -8.57106 0
    endloop
  endfacet
  facet normal -0.866025 0.5 0
    outer loop
      vertex 1.65 -10 4
      vertex 1.65 -10 0
      vertex 0.825 -11.4289 4
    endloop
  endfacet
  facet normal -0.866025 0.5 0
    outer loop
      vertex 0.825 -11.4289 4
      vertex 1.65 -10 0
      vertex 0.825 -11.4289 0
    endloop
  endfacet
  facet normal 0 1 0
    outer loop
      vertex 0.825 -11.4289 4
      vertex 0.825 -11.4289 0
      vertex -0.825 -11.4289 4
    endloop
  endfacet
  facet normal 0 1 0
    outer loop
      vertex -0.825 -11.4289 4
      vertex 0.825 -11.4289 0
      vertex -0.825 -11.4289 0
    endloop
  endfacet
  facet normal 0.866025 -0.5 0
    outer loop
      vertex -0.825 11.4289 0
      vertex -0.825 11.4289 4
      vertex -1.65 10 4
    endloop
  endfacet
  facet normal 0.866025 -0.5 0
    outer loop
      vertex -1.65 10 0
      vertex -0.825 11.4289 0
      vertex -1.65 10 4
    endloop
  endfacet
  facet normal 0.866025 0.5 0
    outer loop
      vertex -1.65 10 4
      vertex -0.825 8.57106 4
      vertex -0.825 8.57106 0
    endloop
  endfacet
  facet normal 0.866025 0.5 0
    outer loop
      vertex -1.65 10 0
      vertex -1.65 10 4
      vertex -0.825 8.57106 0
    endloop
  endfacet
  facet normal 0 -1 0
    outer loop
      vertex 0.825 11.4289 0
      vertex 0.825 11.4289 4
      vertex -0.825 11.4289 4
    endloop
  endfacet
  facet normal 0 -1 0
    outer loop
      vertex -0.825 11.4289 0
      vertex 0.825 11.4289 0
      vertex -0.825 11.4289 4
    endloop
  endfacet
  facet normal -0.866025 -0.5 0
    outer loop
      vertex 1.65 10 4
      vertex 0.825 11.4289 4
      vertex 1.65 10 0
    endloop
  endfacet
  facet normal -0.866025 -0.5 0
    outer loop
      vertex 1.65 10 0
      vertex 0.825 11.4289 4
      vertex 0.825 11.4289 0
    endloop
  endfacet
  facet normal -0.866025 0.5 0
    outer loop
      vertex 1.65 10 4
      vertex 1.65 10 0
      vertex 0.825 8.57106 4
    endloop
  endfacet
  facet normal -0.866025 0.5 0
    outer loop
      vertex 0.825 8.57106 4
      vertex 1.65 10 0
      vertex 0.825 8.57106 0
    endloop
  endfacet
  facet normal 0 1 0
    outer loop
      vertex 0.825 8.57106 4
      vertex 0.825 8.57106 0
      vertex -0.825 8.57106 4
    endloop
  endfacet
  facet normal 0 1 0
    outer loop
      vertex -0.825 8.57106 4
      vertex 0.825 8.57106 0
      vertex -0.825 8.57106 0
    endloop
  endfacet
  facet normal 0.987688 -0.156434 0
    outer loop
      vertex 6.95523 -11.3356 0
      vertex 6.95523 -11.3356 4
      vertex 6.85 -12 4
    endloop
  endfacet
  facet normal 0.987688 -0.156434 0
    outer loop
      vertex 6.85 -12 0
      vertex 6.95523 -11.3356 0
      vertex 6.85 -12 4
    endloop
  endfacet
  facet normal 0.987688 0.156434 0
    outer loop
      vertex 6.85 -12 4
      vertex 6.95523 -12.6644 4
      vertex 6.95523 -12.6644 0
    endloop
  endfacet
  facet normal 0.987688 0.156434 0
    outer loop
      vertex 6.85 -12 0
      vertex 6.85 -12 4
      vertex 6.95523 -12.6644 0
    endloop
  endfacet
  facet normal 0.891006 -0.453991 0
    outer loop
      vertex 7.26061 -10.7363 0
      vertex 7.26061 -10.7363 4
      vertex 6.95523 -11.3356 4
    endloop
  endfacet
  facet normal 0.891006 -0.453991 0
    outer loop
      vertex 6.95523 -11.3356 0
      vertex 7.26061 -10.7363 0
      vertex 6.95523 -11.3356 4
    endloop
  endfacet
  facet normal 0.707107 -0.707107 0
    outer loop
      vertex 7.73626 -10.2606 0
      vertex 7.73626 -10.2606 4
      vertex 7.26061 -10.7363 4
    endloop
  endfacet
  facet normal 0.707107 -0.707107 0
    outer loop
      vertex 7.26061 -10.7363 0
      vertex 7.73626 -10.2606 0
      vertex 7.26061 -10.7363 4
    endloop
  endfacet
  facet normal 0.453991 -0.891006 0
    outer loop
      vertex 8.33561 -9.95523 0
      vertex 8.33561 -9.95523 4
      vertex 7.73626 -10.2606 4
    endloop
  endfacet
  facet normal 0.453991 -0.891006 0
    outer loop
      vertex 7.73626 -10.2606 0
      vertex 8.33561 -9.95523 0
      vertex 7.73626 -10.2606 4
    endloop
  endfacet
  facet normal 0.156434 -0.987688 0
    outer loop
      vertex 9 -9.85 0
      vertex 9 -9.85 4
      vertex 8.33561 -9.95523 4
    endloop
  endfacet
  facet normal 0.156434 -0.987688 0
    outer loop
      vertex 8.33561 -9.95523 0
      vertex 9 -9.85 0
      vertex 8.33561 -9.95523 4
    endloop
  endfacet
  facet normal -0.156434 -0.987688 0
    outer loop
      vertex 9.66439 -9.95523 0
      vertex 9.66439 -9.95523 4
      vertex 9 -9.85 4
    endloop
  endfacet
  facet normal -0.156434 -0.987688 0
    outer loop
      vertex 9 -9.85 0
      vertex 9.66439 -9.95523 0
      vertex 9 -9.85 4
    endloop
  endfacet
  facet normal -0.453991 -0.891006 0
    outer loop
      vertex 10.2637 -10.2606 0
      vertex 10.2637 -10.2606 4
      vertex 9.66439 -9.95523 4
    endloop
  endfacet
  facet normal -0.453991 -0.891006 0
    outer loop
      vertex 9.66439 -9.95523 0
      vertex 10.2637 -10.2606 0
      vertex 9.66439 -9.95523 4
    endloop
  endfacet
  facet normal -0.707107 -0.707107 0
    outer loop
      vertex 10.7394 -10.7363 0
      vertex 10.7394 -10.7363 4
      vertex 10.2637 -10.2606 4
    endloop
  endfacet
  facet normal -0.707107 -0.707107 0
    outer loop
      vertex 10.2637 -10.2606 0
      vertex 10.7394 -10.7363 0
      vertex 10.2637 -10.2606 4
    endloop
  endfacet
  facet normal -0.891006 -0.453991 0
    outer loop
      vertex 11.0448 -11.3356 4
      vertex 10.7394 -10.7363 4
      vertex 11.0448 -11.3356 0
    endloop
  endfacet
  facet normal -0.891006 -0.453991 0
    outer loop
      vertex 11.0448 -11.3356 0
      vertex 10.7394 -10.7363 4
      vertex 10.7394 -10.7363 0
    endloop
  endfacet
  facet normal -0.987688 -0.156434 0
    outer loop
      vertex 11.15 -12 4
      vertex 11.0448 -11.3356 4
      vertex 11.15 -12 0
    endloop
  endfacet
  facet normal -0.987688 -0.156434 0
    outer loop
      vertex 11.15 -12 0
      vertex 11.0448 -11.3356 4
      vertex 11.0448 -11.3356 0
    endloop
  endfacet
  facet normal -0.987688 0.156434 0
    outer loop
      vertex 11.15 -12 4
      vertex 11.15 -12 0
      vertex 11.0448 -12.6644 4
    endloop
  endfacet
  facet normal -0.987688 0.156434 0
    outer loop
      vertex 11.0448 -12.6644 4
      vertex 11.15 -12 0
      vertex 11.0448 -12.6644 0
    endloop
  endfacet
  facet normal -0.891006 0.453991 0
    outer loop
      vertex 11.0448 -12.6644 4
      vertex 11.0448 -12.6644 0
      vertex 10.7394 -13.2637 4
    endloop
  endfacet
  facet normal -0.891006 0.453991 0
    outer loop
      vertex 10.7394 -13.2637 4
      vertex 11.0448 -12.6644 0
      vertex 10.7394 -13.2637 0
    endloop
  endfacet
  facet normal -0.707107 0.707107 0
    outer loop
      vertex 10.7394 -13.2637 4
      vertex 10.7394 -13.2637 0
      vertex 10.2637 -13.7394 4
    endloop
  endfacet
  facet normal -0.707107 0.707107 0
    outer loop
      vertex 10.2637 -13.7394 4
      vertex 10.7394 -13.2637 0
      vertex 10.2637 -13.7394 0
    endloop
  endfacet
  facet normal -0.453991 0.891006 0
    outer loop
      vertex 10.2637 -13.7394 4
      vertex 10.2637 -13.7394 0
      vertex 9.66439 -14.0448 4
    endloop
  endfacet
  facet normal -0.453991 0.891006 0
    outer loop
      vertex 9.66439 -14.0448 4
      vertex 10.2637 -13.7394 0
      vertex 9.66439 -14.0448 0
    endloop
  endfacet
  facet normal -0.156434 0.987688 0
    outer loop
      vertex 9.66439 -14.0448 4
      vertex 9.66439 -14.0448 0
      vertex 9 -14.15 4
    endloop
  endfacet
  facet normal -0.156434 0.987688 0
    outer loop
      vertex 9 -14.15 4
      vertex 9.66439 -14.0448 0
      vertex 9 -14.15 0
    endloop
  endfacet
  facet normal 0.156434 0.987688 0
    outer loop
      vertex 9 -14.15 4
      vertex 9 -14.15 0
      vertex 8.33561 -14.0448 4
    endloop
  endfacet
  facet normal 0.156434 0.987688 0
    outer loop
      vertex 8.33561 -14.0448 4
      vertex 9 -14.15 0
      vertex 8.33561 -14.0448 0
    endloop
  endfacet
  facet normal 0.453991 0.891006 0
    outer loop
      vertex 8.33561 -14.0448 4
      vertex 8.33561 -14.0448 0
      vertex 7.73626 -13.7394 4
    endloop
  endfacet
  facet normal 0.453991 0.891006 0
    outer loop
      vertex 7.73626 -13.7394 4
      vertex 8.33561 -14.0448 0
      vertex 7.73626 -13.7394 0
    endloop
  endfacet
  facet normal 0.707107 0.707107 0
    outer loop
      vertex 7.73626 -13.7394 4
      vertex 7.73626 -13.7394 0
      vertex 7.26061 -13.2637 4
    endloop
  endfacet
  facet normal 0.707107 0.707107 0
    outer loop
      vertex 7.26061 -13.2637 4
      vertex 7.73626 -13.7394 0
      vertex 7.26061 -13.2637 0
    endloop
  endfacet
  facet normal 0.891006 0.453991 0
    outer loop
      vertex 6.95523 -12.6644 4
      vertex 7.26061 -13.2637 4
      vertex 7.26061 -13.2637 0
    endloop
  endfacet
  facet normal 0.891006 0.453991 0
    outer loop
      vertex 6.95523 -12.6644 0
      vertex 6.95523 -12.6644 4
      vertex 7.26061 -13.2637 0
    endloop
  endfacet
  facet normal 0.987688 0.156434 0
    outer loop
      vertex 6.85 12 4
      vertex 6.95523 11.3356 4
      vertex 6.95523 11.3356 0
    endloop
  endfacet
  facet normal 0.987688 0.156434 0
    outer loop
      vertex 6.85 12 0
      vertex 6.85 12 4
      vertex 6.95523 11.3356 0
    endloop
  endfacet
  facet normal 0.987688 -0.156434 0
    outer loop
      vertex 6.95523 12.6644 0
      vertex 6.95523 12.6644 4
      vertex 6.85 12 4
    endloop
  endfacet
  facet normal 0.987688 -0.156434 0
    outer loop
      vertex 6.85 12 0
      vertex 6.95523 12.6644 0
      vertex 6.85 12 4
    endloop
  endfacet
  facet normal 0.891006 -0.453991 0
    outer loop
      vertex 7.26061 13.2637 0
      vertex 7.26061 13.2637 4
      vertex 6.95523 12.6644 4
    endloop
  endfacet
  facet normal 0.891006 -0.453991 0
    outer loop
      vertex 6.95523 12.6644 0
      vertex 7.26061 13.2637 0
      vertex 6.95523 12.6644 4
    endloop
  endfacet
  facet normal 0.707107 -0.707107 0
    outer loop
      vertex 7.73626 13.7394 0
      vertex 7.73626 13.7394 4
      vertex 7.26061 13.2637 4
    endloop
  endfacet
  facet normal 0.707107 -0.707107 0
    outer loop
      vertex 7.26061 13.2637 0
      vertex 7.73626 13.7394 0
      vertex 7.26061 13.2637 4
    endloop
  endfacet
  facet normal 0.453991 -0.891006 0
    outer loop
      vertex 8.33561 14.0448 0
      vertex 8.33561 14.0448 4
      vertex 7.73626 13.7394 4
    endloop
  endfacet
  facet normal 0.453991 -0.891006 0
    outer loop
      vertex 7.73626 13.7394 0
      vertex 8.33561 14.0448 0
      vertex 7.73626 13.7394 4
    endloop
  endfacet
  facet normal 0.156434 -0.987688 0
    outer loop
      vertex 9 14.15 0
      vertex 9 14.15 4
      vertex 8.33561 14.0448 4
    endloop
  endfacet
  facet normal 0.156434 -0.987688 0
    outer loop
      vertex 8.33561 14.0448 0
      vertex 9 14.15 0
      vertex 8.33561 14.0448 4
    endloop
  endfacet
  facet normal -0.156434 -0.987688 0
    outer loop
      vertex 9.66439 14.0448 0
      vertex 9.66439 14.0448 4
      vertex 9 14.15 4
    endloop
  endfacet
  facet normal -0.156434 -0.987688 0
    outer loop
      vertex 9 14.15 0
      vertex 9.66439 14.0448 0
      vertex 9 14.15 4
    endloop
  endfacet
  facet normal -0.453991 -0.891006 0
    outer loop
      vertex 10.2637 13.7394 0
      vertex 10.2637 13.7394 4
      vertex 9.66439 14.0448 4
    endloop
  endfacet
  facet normal -0.453991 -0.891006 0
    outer loop
      vertex 9.66439 14.0448 0
      vertex 10.2637 13.7394 0
      vertex 9.66439 14.0448 4
    endloop
  endfacet
  facet normal -0.707107 -0.707107 0
    outer loop
      vertex 10.7394 13.2637 0
      vertex 10.7394 13.2637 4
      vertex 10.2637 13.7394 4
    endloop
  endfacet
  facet normal -0.707107 -0.707107 0
    outer loop
      vertex 10.2637 13.7394 0
      vertex 10.7394 13.2637 0
      vertex 10.2637 13.7394 4
    endloop
  endfacet
  facet normal -0.891006 -0.453991 0
    outer loop
      vertex 11.0448 12.6644 4
      vertex 10.7394 13.2637 4
      vertex 11.0448 12.6644 0
    endloop
  endfacet
  facet normal -0.891006 -0.453991 0
    outer loop
      vertex 11.0448 12.6644 0
      vertex 10.7394 13.2637 4
      vertex 10.7394 13.2637 0
    endloop
  endfacet
  facet normal -0.987688 -0.156434 0
    outer loop
      vertex 11.15 12 4
      vertex 11.0448 12.6644 4
      vertex 11.15 12 0
    endloop
  endfacet
  facet normal -0.987688 -0.156434 0
    outer loop
      vertex 11.15 12 0
      vertex 11.0448 12.6644 4
      vertex 11.0448 12.6644 0
    endloop
  endfacet
  facet normal -0.987688 0.156434 0
    outer loop
      vertex 11.15 12 4
      vertex 11.15 12 0
      vertex 11.0448 11.3356 4
    endloop
  endfacet
  facet normal -0.987688 0.156434 0
    outer loop
      vertex 11.0448 11.3356 4
      vertex 11.15 12 0
      vertex 11.0448 11.3356 0
    endloop
  endfacet
  facet normal -0.891006 0.453991 0
    outer loop
      vertex 11.0448 11.3356 4
      vertex 11.0448 11.3356 0
      vertex 10.7394 10.7363 4
    endloop
  endfacet
  facet normal -0.891006 0.453991 0
    outer loop
      vertex 10.7394 10.7363 4
      vertex 11.0448 11.3356 0
      vertex 10.7394 10.7363 0
    endloop
  endfacet
  facet normal -0.707107 0.707107 0
    outer loop
      vertex 10.7394 10.7363 4
      vertex 10.7394 10.7363 0
      vertex 10.2637 10.2606 4
    endloop
  endfacet
  facet normal -0.707107 0.707107 0
    outer loop
      vertex 10.2637 10.2606 4
      vertex 10.7394 10.7363 0
      vertex 10.2637 10.2606 0
    endloop
  endfacet
  facet normal -0.453991 0.891006 0
    outer loop
      vertex 10.2637 10.2606 4
      vertex 10.2637 10.2606 0
      vertex 9.66439 9.95523 4
    endloop
  endfacet
  facet normal -0.453991 0.891006 0
    outer loop
      vertex 9.66439 9.95523 4
      vertex 10.2637 10.2606 0
      vertex 9.66439 9.95523 0
    endloop
  endfacet
  facet normal -0.156434 0.987688 0
    outer loop
      vertex 9.66439 9.95523 4
      vertex 9.66439 9.95523 0
      vertex 9 9.85 4
    endloop
  endfacet
  facet normal -0.156434 0.987688 0
    outer loop
      vertex 9 9.85 4
      vertex 9.66439 9.95523 0
      vertex 9 9.85 0
    endloop
  endfacet
  facet normal 0.156434 0.987688 0
    outer loop
      vertex 9 9.85 4
      vertex 9 9.85 0
      vertex 8.33561 9.95523 4
    endloop
  endfacet
  facet normal 0.156434 0.987688 0
    outer loop
      vertex 8.33561 9.95523 4
      vertex 9 9.85 0
      vertex 8.33561 9.95523 0
    endloop
  endfacet
  facet normal 0.453991 0.891006 0
    outer loop
      vertex 8.33561 9.95523 4
      vertex 8.33561 9.95523 0
      vertex 7.73626 10.2606 4
    endloop
  endfacet
  facet normal 0.453991 0.891006 0
    outer loop
      vertex 7.73626 10.2606 4
      vertex 8.33561 9.95523 0
      vertex 7.73626 10.2606 0
    endloop
  endfacet
  facet normal 0.707107 0.707107 0
    outer loop
      vertex 7.73626 10.2606 4
      vertex 7.73626 10.2606 0
      vertex 7.26061 10.7363 4
    endloop
  endfacet
  facet normal 0.707107 0.707107 0
    outer loop
      vertex 7.26061 10.7363 4
      vertex 7.73626 10.2606 0
      vertex 7.26061 10.7363 0
    endloop
  endfacet
  facet normal 0.891006 0.453991 0
    outer loop
      vertex 6.95523 11.3356 4
      vertex 7.26061 10.7363 4
      vertex 7.26061 10.7363 0
    endloop
  endfacet
  facet normal 0.891006 0.453991 0
    outer loop
      vertex 6.95523 11.3356 0
      vertex 6.95523 11.3356 4
      vertex 7.26061 10.7363 0
    endloop
  endfacet
  facet normal -0.891007 -0.45399 0
    outer loop
      vertex -17.0413 -1.47556 4
      vertex -16.3631 -2.80667 4
      vertex -17.0413 -1.47556 5.5
    endloop
  endfacet
  facet normal -0.891007 -0.45399 0
    outer loop
      vertex -17.0413 -1.47556 5.5
      vertex -16.3631 -2.80667 4
      vertex -16.3631 -2.80667 5.5
    endloop
  endfacet
  facet normal -0.987688 -0.156434 0
    outer loop
      vertex -17.275 0 4
      vertex -17.0413 -1.47556 4
      vertex -17.275 0 5.5
    endloop
  endfacet
  facet normal -0.987688 -0.156434 0
    outer loop
      vertex -17.275 0 5.5
      vertex -17.0413 -1.47556 4
      vertex -17.0413 -1.47556 5.5
    endloop
  endfacet
  facet normal -0.707107 -0.707107 0
    outer loop
      vertex -16.3631 -2.80667 5.5
      vertex -16.3631 -2.80667 4
      vertex -15.3067 -3.86306 4
    endloop
  endfacet
  facet normal -0.707107 -0.707107 0
    outer loop
      vertex -15.3067 -3.86306 5.5
      vertex -16.3631 -2.80667 5.5
      vertex -15.3067 -3.86306 4
    endloop
  endfacet
  facet normal -0.45399 -0.891007 0
    outer loop
      vertex -15.3067 -3.86306 5.5
      vertex -15.3067 -3.86306 4
      vertex -13.9756 -4.54129 4
    endloop
  endfacet
  facet normal -0.45399 -0.891007 0
    outer loop
      vertex -13.9756 -4.54129 5.5
      vertex -15.3067 -3.86306 5.5
      vertex -13.9756 -4.54129 4
    endloop
  endfacet
  facet normal -0.156434 -0.987688 0
    outer loop
      vertex -13.9756 -4.54129 5.5
      vertex -13.9756 -4.54129 4
      vertex -12.5 -4.775 4
    endloop
  endfacet
  facet normal -0.156434 -0.987688 0
    outer loop
      vertex -12.5 -4.775 5.5
      vertex -13.9756 -4.54129 5.5
      vertex -12.5 -4.775 4
    endloop
  endfacet
  facet normal 0 -1 0
    outer loop
      vertex -12.5 -4.775 5.5
      vertex -12.5 -4.775 4
      vertex 12.5 -4.775 4
    endloop
  endfacet
  facet normal 0 -1 0
    outer loop
      vertex 12.5 -4.775 5.5
      vertex -12.5 -4.775 5.5
      vertex 12.5 -4.775 4
    endloop
  endfacet
  facet normal 0.156434 -0.987688 0
    outer loop
      vertex 12.5 -4.775 5.5
      vertex 12.5 -4.775 4
      vertex 13.9756 -4.54129 4
    endloop
  endfacet
  facet normal 0.156434 -0.987688 0
    outer loop
      vertex 13.9756 -4.54129 5.5
      vertex 12.5 -4.775 5.5
      vertex 13.9756 -4.54129 4
    endloop
  endfacet
  facet normal 0.45399 -0.891007 0
    outer loop
      vertex 13.9756 -4.54129 5.5
      vertex 13.9756 -4.54129 4
      vertex 15.3067 -3.86306 4
    endloop
  endfacet
  facet normal 0.45399 -0.891007 0
    outer loop
      vertex 15.3067 -3.86306 5.5
      vertex 13.9756 -4.54129 5.5
      vertex 15.3067 -3.86306 4
    endloop
  endfacet
  facet normal 0.707107 -0.707107 0
    outer loop
      vertex 15.3067 -3.86306 5.5
      vertex 15.3067 -3.86306 4
      vertex 16.3631 -2.80667 4
    endloop
  endfacet
  facet normal 0.707107 -0.707107 0
    outer loop
      vertex 16.3631 -2.80667 5.5
      vertex 15.3067 -3.86306 5.5
      vertex 16.3631 -2.80667 4
    endloop
  endfacet
  facet normal 0.891007 -0.45399 0
    outer loop
      vertex 16.3631 -2.80667 5.5
      vertex 16.3631 -2.80667 4
      vertex 17.0413 -1.47556 4
    endloop
  endfacet
  facet normal 0.891007 -0.45399 0
    outer loop
      vertex 17.0413 -1.47556 5.5
      vertex 16.3631 -2.80667 5.5
      vertex 17.0413 -1.47556 4
    endloop
  endfacet
  facet normal 0.987688 -0.156434 0
    outer loop
      vertex 17.0413 -1.47556 5.5
      vertex 17.0413 -1.47556 4
      vertex 17.275 0 4
    endloop
  endfacet
  facet normal 0.987688 -0.156434 0
    outer loop
      vertex 17.275 0 5.5
      vertex 17.0413 -1.47556 5.5
      vertex 17.275 0 4
    endloop
  endfacet
  facet normal 0.987688 0.156434 0
    outer loop
      vertex 17.275 0 4
      vertex 17.0413 1.47556 4
      vertex 17.0413 1.47556 5.5
    endloop
  endfacet
  facet normal 0.987688 0.156434 0
    outer loop
      vertex 17.275 0 5.5
      vertex 17.275 0 4
      vertex 17.0413 1.47556 5.5
    endloop
  endfacet
  facet normal 0.891007 0.45399 0
    outer loop
      vertex 17.0413 1.47556 4
      vertex 16.3631 2.80667 4
      vertex 16.3631 2.80667 5.5
    endloop
  endfacet
  facet normal 0.891007 0.45399 0
    outer loop
      vertex 17.0413 1.47556 5.5
      vertex 17.0413 1.47556 4
      vertex 16.3631 2.80667 5.5
    endloop
  endfacet
  facet normal 0.707107 0.707107 0
    outer loop
      vertex 15.3067 3.86306 4
      vertex 15.3067 3.86306 5.5
      vertex 16.3631 2.80667 4
    endloop
  endfacet
  facet normal 0.707107 0.707107 0
    outer loop
      vertex 16.3631 2.80667 4
      vertex 15.3067 3.86306 5.5
      vertex 16.3631 2.80667 5.5
    endloop
  endfacet
  facet normal 0.45399 0.891007 0
    outer loop
      vertex 13.9756 4.54129 4
      vertex 13.9756 4.54129 5.5
      vertex 15.3067 3.86306 4
    endloop
  endfacet
  facet normal 0.45399 0.891007 0
    outer loop
      vertex 15.3067 3.86306 4
      vertex 13.9756 4.54129 5.5
      vertex 15.3067 3.86306 5.5
    endloop
  endfacet
  facet normal 0.156434 0.987688 0
    outer loop
      vertex 12.5 4.775 4
      vertex 12.5 4.775 5.5
      vertex 13.9756 4.54129 4
    endloop
  endfacet
  facet normal 0.156434 0.987688 0
    outer loop
      vertex 13.9756 4.54129 4
      vertex 12.5 4.775 5.5
      vertex 13.9756 4.54129 5.5
    endloop
  endfacet
  facet normal 0 1 0
    outer loop
      vertex -12.5 4.775 4
      vertex -12.5 4.775 5.5
      vertex 12.5 4.775 4
    endloop
  endfacet
  facet normal 0 1 0
    outer loop
      vertex 12.5 4.775 4
      vertex -12.5 4.775 5.5
      vertex 12.5 4.775 5.5
    endloop
  endfacet
  facet normal -0.156434 0.987688 0
    outer loop
      vertex -13.9756 4.54129 4
      vertex -13.9756 4.54129 5.5
      vertex -12.5 4.775 4
    endloop
  endfacet
  facet normal -0.156434 0.987688 0
    outer loop
      vertex -12.5 4.775 4
      vertex -13.9756 4.54129 5.5
      vertex -12.5 4.775 5.5
    endloop
  endfacet
  facet normal -0.45399 0.891007 0
    outer loop
      vertex -15.3067 3.86306 4
      vertex -15.3067 3.86306 5.5
      vertex -13.9756 4.54129 4
    endloop
  endfacet
  facet normal -0.45399 0.891007 0
    outer loop
      vertex -13.9756 4.54129 4
      vertex -15.3067 3.86306 5.5
      vertex -13.9756 4.54129 5.5
    endloop
  endfacet
  facet normal -0.707107 0.707107 0
    outer loop
      vertex -16.3631 2.80667 4
      vertex -16.3631 2.80667 5.5
      vertex -15.3067 3.86306 4
    endloop
  endfacet
  facet normal -0.707107 0.707107 0
    outer loop
      vertex -15.3067 3.86306 4
      vertex -16.3631 2.80667 5.5
      vertex -15.3067 3.86306 5.5
    endloop
  endfacet
  facet normal -0.891007 0.45399 0
    outer loop
      vertex -17.0413 1.47556 4
      vertex -17.0413 1.47556 5.5
      vertex -16.3631 2.80667 4
    endloop
  endfacet
  facet normal -0.891007 0.45399 0
    outer loop
      vertex -16.3631 2.80667 4
      vertex -17.0413 1.47556 5.5
      vertex -16.3631 2.80667 5.5
    endloop
  endfacet
  facet normal -0.987688 0.156434 0
    outer loop
      vertex -17.275 0 4
      vertex -17.275 0 5.5
      vertex -17.0413 1.47556 4
    endloop
  endfacet
  facet normal -0.987688 0.156434 0
    outer loop
      vertex -17.0413 1.47556 4
      vertex -17.275 0 5.5
      vertex -17.0413 1.47556 5.5
    endloop
  endfacet
  facet normal 0 0 1
    outer loop
      vertex -17.0413 1.47556 5.5
      vertex -17.275 0 5.5
      vertex -17.0413 -1.47556 5.5
    endloop
  endfacet
  facet normal 0 0 1
    outer loop
      vertex -15.3067 -3.86306 5.5
      vertex -17.0413 1.47556 5.5
      vertex -16.3631 -2.80667 5.5
    endloop
  endfacet
  facet normal 0 0 1
    outer loop
      vertex -16.3631 -2.80667 5.5
      vertex -17.0413 1.47556 5.5
      vertex -17.0413 -1.47556 5.5
    endloop
  endfacet
  facet normal 0 0 1
    outer loop
      vertex -13.9756 -4.54129 5.5
      vertex -17.0413 1.47556 5.5
      vertex -15.3067 -3.86306 5.5
    endloop
  endfacet
  facet normal 0 0 1
    outer loop
      vertex -12.5 -4.775 5.5
      vertex -17.0413 1.47556 5.5
      vertex -13.9756 -4.54129 5.5
    endloop
  endfacet
  facet normal 0 0 1
    outer loop
      vertex 12.5 -4.775 5.5
      vertex -17.0413 1.47556 5.5
      vertex -12.5 -4.775 5.5
    endloop
  endfacet
  facet normal 0 0 1
    outer loop
      vertex 13.9756 -4.54129 5.5
      vertex -17.0413 1.47556 5.5
      vertex 12.5 -4.775 5.5
    endloop
  endfacet
  facet normal 0 0 1
    outer loop
      vertex 15.3067 -3.86306 5.5
      vertex -17.0413 1.47556 5.5
      vertex 13.9756 -4.54129 5.5
    endloop
  endfacet
  facet normal 0 0 1
    outer loop
      vertex 16.3631 -2.80667 5.5
      vertex -17.0413 1.47556 5.5
      vertex 15.3067 -3.86306 5.5
    endloop
  endfacet
  facet normal 0 0 1
    outer loop
      vertex 17.0413 -1.47556 5.5
      vertex -17.0413 1.47556 5.5
      vertex 16.3631 -2.80667 5.5
    endloop
  endfacet
  facet normal 0 0 1
    outer loop
      vertex 17.275 0 5.5
      vertex -17.0413 1.47556 5.5
      vertex 17.0413 -1.47556 5.5
    endloop
  endfacet
  facet normal 0 0 1
    outer loop
      vertex 17.0413 1.47556 5.5
      vertex -17.0413 1.47556 5.5
      vertex 17.275 0 5.5
    endloop
  endfacet
  facet normal 0 0 1
    outer loop
      vertex 16.3631 2.80667 5.5
      vertex -17.0413 1.47556 5.5
      vertex 17.0413 1.47556 5.5
    endloop
  endfacet
  facet normal 0 0 1
    outer loop
      vertex 15.3067 3.86306 5.5
      vertex -17.0413 1.47556 5.5
      vertex 16.3631 2.80667 5.5
    endloop
  endfacet
  facet normal 0 0 1
    outer loop
      vertex 13.9756 4.54129 5.5
      vertex -17.0413 1.47556 5.5
      vertex 15.3067 3.86306 5.5
    endloop
  endfacet
  facet normal 0 0 1
    outer loop
      vertex 12.5 4.775 5.5
      vertex -17.0413 1.47556 5.5
      vertex 13.9756 4.54129 5.5
    endloop
  endfacet
  facet normal 0 0 1
    outer loop
      vertex -12.5 4.775 5.5
      vertex -17.0413 1.47556 5.5
      vertex 12.5 4.775 5.5
    endloop
  endfacet
  facet normal 0 0 1
    outer loop
      vertex -13.9756 4.54129 5.5
      vertex -17.0413 1.47556 5.5
      vertex -12.5 4.775 5.5
    endloop
  endfacet
  facet normal 0 0 1
    outer loop
      vertex -15.3067 3.86306 5.5
      vertex -17.0413 1.47556 5.5
      vertex -13.9756 4.54129 5.5
    endloop
  endfacet
  facet normal 0 0 1
    outer loop
      vertex -16.3631 2.80667 5.5
      vertex -17.0413 1.47556 5.5
      vertex -15.3067 3.86306 5.5
    endloop
  endfacet
endsolid OpenSCAD_Model
