solid OpenSCAD_Model
  facet normal -1 0 0
    outer loop
      vertex 10 0 0
      vertex 10 10 6
      vertex 10 10 0
    endloop
  endfacet
  facet normal -1 -0 0
    outer loop
      vertex 10 10 6
      vertex 10 0 0
      vertex 10 0 6
    endloop
  endfacet
  facet normal 0 -1 0
    outer loop
      vertex 10 0 6
      vertex 25.675 0 4.42894
      vertex 35 0 6
    endloop
  endfacet
  facet normal 0 -1 0
    outer loop
      vertex 10 0 6
      vertex 24.85 0 3
      vertex 25.675 0 4.42894
    endloop
  endfacet
  facet normal 0 -1 0
    outer loop
      vertex 10 0 0
      vertex 24.85 0 3
      vertex 10 0 6
    endloop
  endfacet
  facet normal 0 -1 0
    outer loop
      vertex 35 0 0
      vertex 25.675 0 1.57106
      vertex 10 0 0
    endloop
  endfacet
  facet normal 0 -1 -0
    outer loop
      vertex 24.85 0 3
      vertex 10 0 0
      vertex 25.675 0 1.57106
    endloop
  endfacet
  facet normal 0 -1 0
    outer loop
      vertex 27.325 0 4.42894
      vertex 35 0 6
      vertex 25.675 0 4.42894
    endloop
  endfacet
  facet normal 0 -1 0
    outer loop
      vertex 28.15 0 3
      vertex 35 0 6
      vertex 27.325 0 4.42894
    endloop
  endfacet
  facet normal 0 -1 0
    outer loop
      vertex 35 0 0
      vertex 28.15 0 3
      vertex 27.325 0 1.57106
    endloop
  endfacet
  facet normal 0 -1 0
    outer loop
      vertex 28.15 0 3
      vertex 35 0 0
      vertex 35 0 6
    endloop
  endfacet
  facet normal 0 -1 0
    outer loop
      vertex 25.675 0 1.57106
      vertex 35 0 0
      vertex 27.325 0 1.57106
    endloop
  endfacet
  facet normal -0.99787 0.0652407 0
    outer loop
      vertex 10 10 0
      vertex 10.2865 14.3817 6
      vertex 10.2865 14.3817 0
    endloop
  endfacet
  facet normal -0.99787 0.0652407 0
    outer loop
      vertex 10.2865 14.3817 6
      vertex 10 10 0
      vertex 10 10 6
    endloop
  endfacet
  facet normal -0 0 1
    outer loop
      vertex 29.5296 10.5247 6
      vertex 29.875 10 6
      vertex 31.3906 10.7202 6
    endloop
  endfacet
  facet normal 0 0 1
    outer loop
      vertex 27.75 11.1029 6
      vertex 29.875 10 6
      vertex 29.5296 10.5247 6
    endloop
  endfacet
  facet normal 0 0 1
    outer loop
      vertex 27.75 11.1029 6
      vertex 23.125 10 6
      vertex 29.875 10 6
    endloop
  endfacet
  facet normal 0 0 1
    outer loop
      vertex 26.3594 12.355 6
      vertex 23.125 10 6
      vertex 27.75 11.1029 6
    endloop
  endfacet
  facet normal 0 0 1
    outer loop
      vertex 23.125 10 6
      vertex 26.3594 12.355 6
      vertex 25.5983 14.0644 6
    endloop
  endfacet
  facet normal 0 0 1
    outer loop
      vertex 34.6194 16.9134 6
      vertex 34.111 16.8303 6
      vertex 34.5 15 6
    endloop
  endfacet
  facet normal 0 0 1
    outer loop
      vertex 33.5355 18.5355 6
      vertex 34.111 16.8303 6
      vertex 34.6194 16.9134 6
    endloop
  endfacet
  facet normal 0 0 1
    outer loop
      vertex 33.5355 18.5355 6
      vertex 33.0111 18.3442 6
      vertex 34.111 16.8303 6
    endloop
  endfacet
  facet normal 0 0 1
    outer loop
      vertex 31.9134 19.6194 6
      vertex 33.0111 18.3442 6
      vertex 33.5355 18.5355 6
    endloop
  endfacet
  facet normal 0 0 1
    outer loop
      vertex 31.9134 19.6194 6
      vertex 31.3906 19.2798 6
      vertex 33.0111 18.3442 6
    endloop
  endfacet
  facet normal 0 0 1
    outer loop
      vertex 30 20 6
      vertex 31.3906 19.2798 6
      vertex 31.9134 19.6194 6
    endloop
  endfacet
  facet normal 0 0 1
    outer loop
      vertex 30 20 6
      vertex 29.5296 19.4753 6
      vertex 31.3906 19.2798 6
    endloop
  endfacet
  facet normal -0 0 1
    outer loop
      vertex 28.0866 19.6194 6
      vertex 29.5296 19.4753 6
      vertex 30 20 6
    endloop
  endfacet
  facet normal 0 0 1
    outer loop
      vertex 28.0866 19.6194 6
      vertex 27.75 18.8971 6
      vertex 29.5296 19.4753 6
    endloop
  endfacet
  facet normal 0 0 1
    outer loop
      vertex 28.0866 19.6194 6
      vertex 26.3594 17.645 6
      vertex 27.75 18.8971 6
    endloop
  endfacet
  facet normal 0 0 1
    outer loop
      vertex 25.5983 15.9356 6
      vertex 23.125 10 6
      vertex 25.5983 14.0644 6
    endloop
  endfacet
  facet normal 0 0 1
    outer loop
      vertex 10 10 6
      vertex 23.125 10 6
      vertex 11.9635 14.9266 6
    endloop
  endfacet
  facet normal 0 0 1
    outer loop
      vertex 25.5983 15.9356 6
      vertex 11.9635 14.9266 6
      vertex 23.125 10 6
    endloop
  endfacet
  facet normal 0 0 1
    outer loop
      vertex 26.3594 17.645 6
      vertex 11.9635 14.9266 6
      vertex 25.5983 15.9356 6
    endloop
  endfacet
  facet normal 0 0 1
    outer loop
      vertex 11.9635 14.9266 6
      vertex 26.3594 17.645 6
      vertex 28.0866 19.6194 6
    endloop
  endfacet
  facet normal 0 0 1
    outer loop
      vertex 34.5 15 6
      vertex 35 15 6
      vertex 34.6194 16.9134 6
    endloop
  endfacet
  facet normal 0 0 1
    outer loop
      vertex 34.111 13.1697 6
      vertex 35 15 6
      vertex 34.5 15 6
    endloop
  endfacet
  facet normal 0 0 1
    outer loop
      vertex 35 15 6
      vertex 34.111 13.1697 6
      vertex 35 0 6
    endloop
  endfacet
  facet normal -0 0 1
    outer loop
      vertex 33.0111 11.6558 6
      vertex 35 0 6
      vertex 34.111 13.1697 6
    endloop
  endfacet
  facet normal 0 0 1
    outer loop
      vertex 29.875 6 6
      vertex 33.0111 11.6558 6
      vertex 31.3906 10.7202 6
    endloop
  endfacet
  facet normal 0 0 1
    outer loop
      vertex 29.875 6 6
      vertex 31.3906 10.7202 6
      vertex 29.875 10 6
    endloop
  endfacet
  facet normal 0 0 1
    outer loop
      vertex 33.0111 11.6558 6
      vertex 29.875 6 6
      vertex 35 0 6
    endloop
  endfacet
  facet normal -0 0 1
    outer loop
      vertex 28.1875 6 6
      vertex 35 0 6
      vertex 29.875 6 6
    endloop
  endfacet
  facet normal -0 0 1
    outer loop
      vertex 24.8125 6 6
      vertex 35 0 6
      vertex 28.1875 6 6
    endloop
  endfacet
  facet normal 0 0 1
    outer loop
      vertex 23.125 6 6
      vertex 35 0 6
      vertex 24.8125 6 6
    endloop
  endfacet
  facet normal 0 0 1
    outer loop
      vertex 10 10 6
      vertex 11.9635 14.9266 6
      vertex 10.2865 14.3817 6
    endloop
  endfacet
  facet normal 0 0 1
    outer loop
      vertex 23.125 10 6
      vertex 10 10 6
      vertex 23.125 6 6
    endloop
  endfacet
  facet normal 0 0 1
    outer loop
      vertex 10 0 6
      vertex 23.125 6 6
      vertex 10 10 6
    endloop
  endfacet
  facet normal 0 0 1
    outer loop
      vertex 23.125 6 6
      vertex 10 0 6
      vertex 35 0 6
    endloop
  endfacet
  facet normal 0 0 -1
    outer loop
      vertex 31.3717 13.28 0
      vertex 35 15 0
      vertex 35 0 0
    endloop
  endfacet
  facet normal 0 -0 -1
    outer loop
      vertex 32.2 15 0
      vertex 35 15 0
      vertex 31.3717 13.28 0
    endloop
  endfacet
  facet normal 0 0 -1
    outer loop
      vertex 31.3717 16.72 0
      vertex 34.6194 16.9134 0
      vertex 32.2 15 0
    endloop
  endfacet
  facet normal 0 0 -1
    outer loop
      vertex 35 15 0
      vertex 32.2 15 0
      vertex 34.6194 16.9134 0
    endloop
  endfacet
  facet normal 0 0 -1
    outer loop
      vertex 35 0 0
      vertex 29.5105 12.8552 0
      vertex 31.3717 13.28 0
    endloop
  endfacet
  facet normal 0 0 -1
    outer loop
      vertex 10 0 0
      vertex 29.5105 12.8552 0
      vertex 35 0 0
    endloop
  endfacet
  facet normal 0 0 -1
    outer loop
      vertex 28.0179 14.0455 0
      vertex 11.9635 14.9266 0
      vertex 28.0179 15.9545 0
    endloop
  endfacet
  facet normal -0 0 -1
    outer loop
      vertex 29.5105 12.8552 0
      vertex 10 0 0
      vertex 28.0179 14.0455 0
    endloop
  endfacet
  facet normal -0 0 -1
    outer loop
      vertex 28.0179 14.0455 0
      vertex 10 10 0
      vertex 11.9635 14.9266 0
    endloop
  endfacet
  facet normal 0 0 -1
    outer loop
      vertex 28.0179 14.0455 0
      vertex 10 0 0
      vertex 10 10 0
    endloop
  endfacet
  facet normal 0 0 -1
    outer loop
      vertex 11.9635 14.9266 0
      vertex 10 10 0
      vertex 10.2865 14.3817 0
    endloop
  endfacet
  facet normal -0 0 -1
    outer loop
      vertex 34.6194 16.9134 0
      vertex 31.3717 16.72 0
      vertex 33.5355 18.5355 0
    endloop
  endfacet
  facet normal -0 0 -1
    outer loop
      vertex 33.5355 18.5355 0
      vertex 31.3717 16.72 0
      vertex 31.9134 19.6194 0
    endloop
  endfacet
  facet normal 0 0 -1
    outer loop
      vertex 29.5105 17.1448 0
      vertex 31.9134 19.6194 0
      vertex 31.3717 16.72 0
    endloop
  endfacet
  facet normal -0 0 -1
    outer loop
      vertex 31.9134 19.6194 0
      vertex 29.5105 17.1448 0
      vertex 30 20 0
    endloop
  endfacet
  facet normal 0 0 -1
    outer loop
      vertex 29.5105 17.1448 0
      vertex 28.0866 19.6194 0
      vertex 30 20 0
    endloop
  endfacet
  facet normal 0 0 -1
    outer loop
      vertex 28.0179 15.9545 0
      vertex 28.0866 19.6194 0
      vertex 29.5105 17.1448 0
    endloop
  endfacet
  facet normal 0 0 -1
    outer loop
      vertex 28.0866 19.6194 0
      vertex 28.0179 15.9545 0
      vertex 11.9635 14.9266 0
    endloop
  endfacet
  facet normal 1 -0 0
    outer loop
      vertex 35 0 6
      vertex 35 15 0
      vertex 35 15 6
    endloop
  endfacet
  facet normal 1 0 0
    outer loop
      vertex 35 15 0
      vertex 35 0 6
      vertex 35 0 0
    endloop
  endfacet
  facet normal -0.279465 0.960156 0
    outer loop
      vertex 28.0866 19.6194 0
      vertex 11.9635 14.9266 6
      vertex 28.0866 19.6194 6
    endloop
  endfacet
  facet normal -0.279465 0.960156 0
    outer loop
      vertex 11.9635 14.9266 6
      vertex 28.0866 19.6194 0
      vertex 11.9635 14.9266 0
    endloop
  endfacet
  facet normal -0.195091 0.980785 0
    outer loop
      vertex 30 20 0
      vertex 28.0866 19.6194 6
      vertex 30 20 6
    endloop
  endfacet
  facet normal -0.195091 0.980785 0
    outer loop
      vertex 28.0866 19.6194 6
      vertex 30 20 0
      vertex 28.0866 19.6194 0
    endloop
  endfacet
  facet normal 0.55557 0.83147 -0
    outer loop
      vertex 33.5355 18.5355 0
      vertex 31.9134 19.6194 6
      vertex 33.5355 18.5355 6
    endloop
  endfacet
  facet normal 0.55557 0.83147 0
    outer loop
      vertex 31.9134 19.6194 6
      vertex 33.5355 18.5355 0
      vertex 31.9134 19.6194 0
    endloop
  endfacet
  facet normal 0.83147 0.55557 0
    outer loop
      vertex 34.6194 16.9134 6
      vertex 33.5355 18.5355 0
      vertex 33.5355 18.5355 6
    endloop
  endfacet
  facet normal 0.83147 0.55557 0
    outer loop
      vertex 33.5355 18.5355 0
      vertex 34.6194 16.9134 6
      vertex 34.6194 16.9134 0
    endloop
  endfacet
  facet normal 0.980785 0.195091 0
    outer loop
      vertex 35 15 6
      vertex 34.6194 16.9134 0
      vertex 34.6194 16.9134 6
    endloop
  endfacet
  facet normal 0.980785 0.195091 0
    outer loop
      vertex 34.6194 16.9134 0
      vertex 35 15 6
      vertex 35 15 0
    endloop
  endfacet
  facet normal -0.309017 0.951057 0
    outer loop
      vertex 11.9635 14.9266 0
      vertex 10.2865 14.3817 6
      vertex 11.9635 14.9266 6
    endloop
  endfacet
  facet normal -0.309017 0.951057 0
    outer loop
      vertex 10.2865 14.3817 6
      vertex 11.9635 14.9266 0
      vertex 10.2865 14.3817 0
    endloop
  endfacet
  facet normal 0.195091 0.980785 -0
    outer loop
      vertex 31.9134 19.6194 0
      vertex 30 20 6
      vertex 31.9134 19.6194 6
    endloop
  endfacet
  facet normal 0.195091 0.980785 0
    outer loop
      vertex 30 20 6
      vertex 31.9134 19.6194 0
      vertex 30 20 0
    endloop
  endfacet
  facet normal 0.978148 0.207912 0
    outer loop
      vertex 34.5 15 7.5
      vertex 34.111 16.8303 6
      vertex 34.111 16.8303 7.5
    endloop
  endfacet
  facet normal 0.978148 0.207912 0
    outer loop
      vertex 34.111 16.8303 6
      vertex 34.5 15 7.5
      vertex 34.5 15 6
    endloop
  endfacet
  facet normal -1 0 0
    outer loop
      vertex 25.5983 14.0644 6
      vertex 25.5983 15.9356 7.5
      vertex 25.5983 15.9356 6
    endloop
  endfacet
  facet normal -1 -0 0
    outer loop
      vertex 25.5983 15.9356 7.5
      vertex 25.5983 14.0644 6
      vertex 25.5983 14.0644 7.5
    endloop
  endfacet
  facet normal 0.104529 -0.994522 0
    outer loop
      vertex 29.5296 10.5247 6
      vertex 31.3906 10.7202 7.5
      vertex 29.5296 10.5247 7.5
    endloop
  endfacet
  facet normal 0.104529 -0.994522 0
    outer loop
      vertex 31.3906 10.7202 7.5
      vertex 29.5296 10.5247 6
      vertex 31.3906 10.7202 6
    endloop
  endfacet
  facet normal 0.104529 0.994522 -0
    outer loop
      vertex 31.3906 19.2798 6
      vertex 29.5296 19.4753 7.5
      vertex 31.3906 19.2798 7.5
    endloop
  endfacet
  facet normal 0.104529 0.994522 0
    outer loop
      vertex 29.5296 19.4753 7.5
      vertex 31.3906 19.2798 6
      vertex 29.5296 19.4753 6
    endloop
  endfacet
  facet normal 0.809016 0.587786 0
    outer loop
      vertex 34.111 16.8303 7.5
      vertex 33.0111 18.3442 6
      vertex 33.0111 18.3442 7.5
    endloop
  endfacet
  facet normal 0.809016 0.587786 0
    outer loop
      vertex 33.0111 18.3442 6
      vertex 34.111 16.8303 7.5
      vertex 34.111 16.8303 6
    endloop
  endfacet
  facet normal 0.500001 0.866025 -0
    outer loop
      vertex 33.0111 18.3442 6
      vertex 31.3906 19.2798 7.5
      vertex 33.0111 18.3442 7.5
    endloop
  endfacet
  facet normal 0.500001 0.866025 0
    outer loop
      vertex 31.3906 19.2798 7.5
      vertex 33.0111 18.3442 6
      vertex 31.3906 19.2798 6
    endloop
  endfacet
  facet normal -0.66913 0.743145 0
    outer loop
      vertex 27.75 18.8971 6
      vertex 26.3594 17.645 7.5
      vertex 27.75 18.8971 7.5
    endloop
  endfacet
  facet normal -0.66913 0.743145 0
    outer loop
      vertex 26.3594 17.645 7.5
      vertex 27.75 18.8971 6
      vertex 26.3594 17.645 6
    endloop
  endfacet
  facet normal -0.913545 0.406737 0
    outer loop
      vertex 25.5983 15.9356 6
      vertex 26.3594 17.645 7.5
      vertex 26.3594 17.645 6
    endloop
  endfacet
  facet normal -0.913545 0.406737 0
    outer loop
      vertex 26.3594 17.645 7.5
      vertex 25.5983 15.9356 6
      vertex 25.5983 15.9356 7.5
    endloop
  endfacet
  facet normal 0 0 1
    outer loop
      vertex 32.2 15 7.5
      vertex 34.5 15 7.5
      vertex 34.111 16.8303 7.5
    endloop
  endfacet
  facet normal 0 0 1
    outer loop
      vertex 31.3717 16.72 7.5
      vertex 34.111 16.8303 7.5
      vertex 33.0111 18.3442 7.5
    endloop
  endfacet
  facet normal 0 0 1
    outer loop
      vertex 34.5 15 7.5
      vertex 32.2 15 7.5
      vertex 34.111 13.1697 7.5
    endloop
  endfacet
  facet normal -0 0 1
    outer loop
      vertex 31.3717 13.28 7.5
      vertex 34.111 13.1697 7.5
      vertex 32.2 15 7.5
    endloop
  endfacet
  facet normal 0 0 1
    outer loop
      vertex 31.3717 16.72 7.5
      vertex 33.0111 18.3442 7.5
      vertex 31.3906 19.2798 7.5
    endloop
  endfacet
  facet normal 0 0 1
    outer loop
      vertex 34.111 16.8303 7.5
      vertex 31.3717 16.72 7.5
      vertex 32.2 15 7.5
    endloop
  endfacet
  facet normal 0 0 1
    outer loop
      vertex 29.5105 17.1448 7.5
      vertex 31.3906 19.2798 7.5
      vertex 29.5296 19.4753 7.5
    endloop
  endfacet
  facet normal 0 0 1
    outer loop
      vertex 31.3906 19.2798 7.5
      vertex 29.5105 17.1448 7.5
      vertex 31.3717 16.72 7.5
    endloop
  endfacet
  facet normal -0 0 1
    outer loop
      vertex 27.75 18.8971 7.5
      vertex 29.5105 17.1448 7.5
      vertex 29.5296 19.4753 7.5
    endloop
  endfacet
  facet normal -0 0 1
    outer loop
      vertex 26.3594 17.645 7.5
      vertex 28.0179 15.9545 7.5
      vertex 27.75 18.8971 7.5
    endloop
  endfacet
  facet normal 0 0 1
    outer loop
      vertex 29.5105 17.1448 7.5
      vertex 27.75 18.8971 7.5
      vertex 28.0179 15.9545 7.5
    endloop
  endfacet
  facet normal 0 0 1
    outer loop
      vertex 34.111 13.1697 7.5
      vertex 31.3717 13.28 7.5
      vertex 33.0111 11.6558 7.5
    endloop
  endfacet
  facet normal 0 0 1
    outer loop
      vertex 33.0111 11.6558 7.5
      vertex 31.3717 13.28 7.5
      vertex 31.3906 10.7202 7.5
    endloop
  endfacet
  facet normal -0 0 1
    outer loop
      vertex 29.5105 12.8552 7.5
      vertex 31.3906 10.7202 7.5
      vertex 31.3717 13.28 7.5
    endloop
  endfacet
  facet normal 0 0 1
    outer loop
      vertex 31.3906 10.7202 7.5
      vertex 29.5105 12.8552 7.5
      vertex 29.5296 10.5247 7.5
    endloop
  endfacet
  facet normal 0 0 1
    outer loop
      vertex 27.75 11.1029 7.5
      vertex 29.5105 12.8552 7.5
      vertex 28.0179 14.0455 7.5
    endloop
  endfacet
  facet normal 0 0 1
    outer loop
      vertex 29.5105 12.8552 7.5
      vertex 27.75 11.1029 7.5
      vertex 29.5296 10.5247 7.5
    endloop
  endfacet
  facet normal 0 0 1
    outer loop
      vertex 25.5983 15.9356 7.5
      vertex 28.0179 15.9545 7.5
      vertex 26.3594 17.645 7.5
    endloop
  endfacet
  facet normal 0 0 1
    outer loop
      vertex 28.0179 15.9545 7.5
      vertex 25.5983 15.9356 7.5
      vertex 28.0179 14.0455 7.5
    endloop
  endfacet
  facet normal 0 0 1
    outer loop
      vertex 28.0179 14.0455 7.5
      vertex 26.3594 12.355 7.5
      vertex 27.75 11.1029 7.5
    endloop
  endfacet
  facet normal -0 0 1
    outer loop
      vertex 25.5983 14.0644 7.5
      vertex 28.0179 14.0455 7.5
      vertex 25.5983 15.9356 7.5
    endloop
  endfacet
  facet normal 0 0 1
    outer loop
      vertex 28.0179 14.0455 7.5
      vertex 25.5983 14.0644 7.5
      vertex 26.3594 12.355 7.5
    endloop
  endfacet
  facet normal -0.309018 0.951056 0
    outer loop
      vertex 29.5296 19.4753 6
      vertex 27.75 18.8971 7.5
      vertex 29.5296 19.4753 7.5
    endloop
  endfacet
  facet normal -0.309018 0.951056 0
    outer loop
      vertex 27.75 18.8971 7.5
      vertex 29.5296 19.4753 6
      vertex 27.75 18.8971 6
    endloop
  endfacet
  facet normal 0.978148 -0.207912 0
    outer loop
      vertex 34.111 13.1697 7.5
      vertex 34.5 15 6
      vertex 34.5 15 7.5
    endloop
  endfacet
  facet normal 0.978148 -0.207912 0
    outer loop
      vertex 34.5 15 6
      vertex 34.111 13.1697 7.5
      vertex 34.111 13.1697 6
    endloop
  endfacet
  facet normal -0.309017 -0.951056 0
    outer loop
      vertex 27.75 11.1029 6
      vertex 29.5296 10.5247 7.5
      vertex 27.75 11.1029 7.5
    endloop
  endfacet
  facet normal -0.309017 -0.951056 -0
    outer loop
      vertex 29.5296 10.5247 7.5
      vertex 27.75 11.1029 6
      vertex 29.5296 10.5247 6
    endloop
  endfacet
  facet normal -0.66913 -0.743145 0
    outer loop
      vertex 26.3594 12.355 6
      vertex 27.75 11.1029 7.5
      vertex 26.3594 12.355 7.5
    endloop
  endfacet
  facet normal -0.66913 -0.743145 -0
    outer loop
      vertex 27.75 11.1029 7.5
      vertex 26.3594 12.355 6
      vertex 27.75 11.1029 6
    endloop
  endfacet
  facet normal -0.913545 -0.406737 0
    outer loop
      vertex 26.3594 12.355 6
      vertex 25.5983 14.0644 7.5
      vertex 25.5983 14.0644 6
    endloop
  endfacet
  facet normal -0.913545 -0.406737 0
    outer loop
      vertex 25.5983 14.0644 7.5
      vertex 26.3594 12.355 6
      vertex 26.3594 12.355 7.5
    endloop
  endfacet
  facet normal 0.809017 -0.587786 0
    outer loop
      vertex 33.0111 11.6558 7.5
      vertex 34.111 13.1697 6
      vertex 34.111 13.1697 7.5
    endloop
  endfacet
  facet normal 0.809017 -0.587786 0
    outer loop
      vertex 34.111 13.1697 6
      vertex 33.0111 11.6558 7.5
      vertex 33.0111 11.6558 6
    endloop
  endfacet
  facet normal 0.5 -0.866025 0
    outer loop
      vertex 31.3906 10.7202 6
      vertex 33.0111 11.6558 7.5
      vertex 31.3906 10.7202 7.5
    endloop
  endfacet
  facet normal 0.5 -0.866025 0
    outer loop
      vertex 33.0111 11.6558 7.5
      vertex 31.3906 10.7202 6
      vertex 33.0111 11.6558 6
    endloop
  endfacet
  facet normal -0.900969 -0.433884 0
    outer loop
      vertex 32.2 15 0
      vertex 31.3717 16.72 7.5
      vertex 31.3717 16.72 0
    endloop
  endfacet
  facet normal -0.900969 -0.433884 0
    outer loop
      vertex 31.3717 16.72 7.5
      vertex 32.2 15 0
      vertex 32.2 15 7.5
    endloop
  endfacet
  facet normal 1 -0 0
    outer loop
      vertex 28.0179 14.0455 7.5
      vertex 28.0179 15.9545 0
      vertex 28.0179 15.9545 7.5
    endloop
  endfacet
  facet normal 1 0 0
    outer loop
      vertex 28.0179 15.9545 0
      vertex 28.0179 14.0455 7.5
      vertex 28.0179 14.0455 0
    endloop
  endfacet
  facet normal -0.222521 -0.974928 0
    outer loop
      vertex 29.5105 17.1448 0
      vertex 31.3717 16.72 7.5
      vertex 29.5105 17.1448 7.5
    endloop
  endfacet
  facet normal -0.222521 -0.974928 -0
    outer loop
      vertex 31.3717 16.72 7.5
      vertex 29.5105 17.1448 0
      vertex 31.3717 16.72 0
    endloop
  endfacet
  facet normal 0.62349 -0.781831 0
    outer loop
      vertex 28.0179 15.9545 0
      vertex 29.5105 17.1448 7.5
      vertex 28.0179 15.9545 7.5
    endloop
  endfacet
  facet normal 0.62349 -0.781831 0
    outer loop
      vertex 29.5105 17.1448 7.5
      vertex 28.0179 15.9545 0
      vertex 29.5105 17.1448 0
    endloop
  endfacet
  facet normal -0.900969 0.433884 0
    outer loop
      vertex 31.3717 13.28 0
      vertex 32.2 15 7.5
      vertex 32.2 15 0
    endloop
  endfacet
  facet normal -0.900969 0.433884 0
    outer loop
      vertex 32.2 15 7.5
      vertex 31.3717 13.28 0
      vertex 31.3717 13.28 7.5
    endloop
  endfacet
  facet normal 0.62349 0.781831 7.27722e-08
    outer loop
      vertex 29.5105 12.8552 7.5
      vertex 28.0749 14 3.13013
      vertex 28.0179 14.0455 7.5
    endloop
  endfacet
  facet normal 0.623492 0.78183 -7.90406e-07
    outer loop
      vertex 29.5105 12.8552 7.5
      vertex 28.15 13.9401 3
      vertex 28.0749 14 3.13013
    endloop
  endfacet
  facet normal 0.623491 0.78183 1.01175e-06
    outer loop
      vertex 28.15 13.9401 3
      vertex 29.5105 12.8552 0
      vertex 28.0749 14 2.86987
    endloop
  endfacet
  facet normal 0.62349 0.781831 -0
    outer loop
      vertex 29.5105 12.8552 0
      vertex 28.15 13.9401 3
      vertex 29.5105 12.8552 7.5
    endloop
  endfacet
  facet normal 0.623487 0.781834 -0
    outer loop
      vertex 28.0749 14 2.86987
      vertex 28.0179 14.0455 7.5
      vertex 28.0749 14 3.13013
    endloop
  endfacet
  facet normal 0.623487 0.781834 0
    outer loop
      vertex 28.0749 14 2.86987
      vertex 28.0179 14.0455 0
      vertex 28.0179 14.0455 7.5
    endloop
  endfacet
  facet normal 0.62349 0.781831 -1.10808e-07
    outer loop
      vertex 28.0179 14.0455 0
      vertex 28.0749 14 2.86987
      vertex 29.5105 12.8552 0
    endloop
  endfacet
  facet normal -0.222521 0.974928 0
    outer loop
      vertex 31.3717 13.28 0
      vertex 29.5105 12.8552 7.5
      vertex 31.3717 13.28 7.5
    endloop
  endfacet
  facet normal -0.222521 0.974928 0
    outer loop
      vertex 29.5105 12.8552 7.5
      vertex 31.3717 13.28 0
      vertex 29.5105 12.8552 0
    endloop
  endfacet
  facet normal -0.866026 7.10112e-06 0.5
    outer loop
      vertex 27.325 14 1.57106
      vertex 28.15 13.9401 3
      vertex 28.0749 14 2.86987
    endloop
  endfacet
  facet normal -0.866026 0 0.499999
    outer loop
      vertex 27.325 10 1.57106
      vertex 28.15 13.9401 3
      vertex 27.325 14 1.57106
    endloop
  endfacet
  facet normal -0.866026 0 0.499999
    outer loop
      vertex 28.15 13.9401 3
      vertex 27.325 10 1.57106
      vertex 28.15 10 3
    endloop
  endfacet
  facet normal -0.866026 0 0.499999
    outer loop
      vertex 27.325 0 1.57106
      vertex 28.15 6 3
      vertex 27.325 6 1.57106
    endloop
  endfacet
  facet normal -0.866026 0 0.499999
    outer loop
      vertex 28.15 6 3
      vertex 27.325 0 1.57106
      vertex 28.15 0 3
    endloop
  endfacet
  facet normal 0.866025 -0 0.5
    outer loop
      vertex 24.85 10 3
      vertex 25.675 14 1.57106
      vertex 24.85 14 3
    endloop
  endfacet
  facet normal 0.866025 0 0.5
    outer loop
      vertex 25.675 14 1.57106
      vertex 24.85 10 3
      vertex 25.675 10 1.57106
    endloop
  endfacet
  facet normal 0.866025 -0 0.5
    outer loop
      vertex 24.85 0 3
      vertex 25.675 6 1.57106
      vertex 24.85 6 3
    endloop
  endfacet
  facet normal 0.866025 0 0.5
    outer loop
      vertex 25.675 6 1.57106
      vertex 24.85 0 3
      vertex 25.675 0 1.57106
    endloop
  endfacet
  facet normal -0 0 1
    outer loop
      vertex 25.675 14 1.57106
      vertex 27.325 10 1.57106
      vertex 27.325 14 1.57106
    endloop
  endfacet
  facet normal 0 0 1
    outer loop
      vertex 27.325 10 1.57106
      vertex 25.675 14 1.57106
      vertex 25.675 10 1.57106
    endloop
  endfacet
  facet normal -0 0 1
    outer loop
      vertex 25.675 6 1.57106
      vertex 27.325 0 1.57106
      vertex 27.325 6 1.57106
    endloop
  endfacet
  facet normal 0 0 1
    outer loop
      vertex 27.325 0 1.57106
      vertex 25.675 6 1.57106
      vertex 25.675 0 1.57106
    endloop
  endfacet
  facet normal 0 -1 0
    outer loop
      vertex 25.675 14 4.42894
      vertex 28.0749 14 3.13013
      vertex 27.325 14 4.42894
    endloop
  endfacet
  facet normal 0 -1 0
    outer loop
      vertex 24.85 14 3
      vertex 28.0749 14 3.13013
      vertex 25.675 14 4.42894
    endloop
  endfacet
  facet normal 0 -1 0
    outer loop
      vertex 24.85 14 3
      vertex 28.0749 14 2.86987
      vertex 28.0749 14 3.13013
    endloop
  endfacet
  facet normal 0 -1 0
    outer loop
      vertex 25.675 14 1.57106
      vertex 28.0749 14 2.86987
      vertex 24.85 14 3
    endloop
  endfacet
  facet normal 0 -1 0
    outer loop
      vertex 28.0749 14 2.86987
      vertex 25.675 14 1.57106
      vertex 27.325 14 1.57106
    endloop
  endfacet
  facet normal 0 0 -1
    outer loop
      vertex 25.675 10 4.42894
      vertex 27.325 14 4.42894
      vertex 27.325 10 4.42894
    endloop
  endfacet
  facet normal -0 0 -1
    outer loop
      vertex 27.325 14 4.42894
      vertex 25.675 10 4.42894
      vertex 25.675 14 4.42894
    endloop
  endfacet
  facet normal 0 0 -1
    outer loop
      vertex 25.675 0 4.42894
      vertex 27.325 6 4.42894
      vertex 27.325 0 4.42894
    endloop
  endfacet
  facet normal -0 0 -1
    outer loop
      vertex 27.325 6 4.42894
      vertex 25.675 0 4.42894
      vertex 25.675 6 4.42894
    endloop
  endfacet
  facet normal 0.866025 0 -0.5
    outer loop
      vertex 25.675 10 4.42894
      vertex 24.85 14 3
      vertex 25.675 14 4.42894
    endloop
  endfacet
  facet normal 0.866025 0 -0.5
    outer loop
      vertex 24.85 14 3
      vertex 25.675 10 4.42894
      vertex 24.85 10 3
    endloop
  endfacet
  facet normal 0.866025 0 -0.5
    outer loop
      vertex 25.675 0 4.42894
      vertex 24.85 6 3
      vertex 25.675 6 4.42894
    endloop
  endfacet
  facet normal 0.866025 0 -0.5
    outer loop
      vertex 24.85 6 3
      vertex 25.675 0 4.42894
      vertex 24.85 0 3
    endloop
  endfacet
  facet normal -0.866026 5.70957e-06 -0.5
    outer loop
      vertex 28.15 13.9401 3
      vertex 27.325 14 4.42894
      vertex 28.0749 14 3.13013
    endloop
  endfacet
  facet normal -0.866026 0 -0.5
    outer loop
      vertex 27.325 10 4.42894
      vertex 28.15 13.9401 3
      vertex 28.15 10 3
    endloop
  endfacet
  facet normal -0.866026 0 -0.5
    outer loop
      vertex 28.15 13.9401 3
      vertex 27.325 10 4.42894
      vertex 27.325 14 4.42894
    endloop
  endfacet
  facet normal -0.866026 0 -0.5
    outer loop
      vertex 28.15 0 3
      vertex 27.325 6 4.42894
      vertex 28.15 6 3
    endloop
  endfacet
  facet normal -0.866026 -0 -0.5
    outer loop
      vertex 27.325 6 4.42894
      vertex 28.15 0 3
      vertex 27.325 0 4.42894
    endloop
  endfacet
  facet normal -0.866025 0 0.5
    outer loop
      vertex 28.1875 6 0.0771637
      vertex 29.875 10 3
      vertex 28.1875 10 0.0771637
    endloop
  endfacet
  facet normal -0.866025 0 0.5
    outer loop
      vertex 29.875 10 3
      vertex 28.1875 6 0.0771637
      vertex 29.875 6 3
    endloop
  endfacet
  facet normal -0 0 1
    outer loop
      vertex 24.8125 10 0.0771637
      vertex 28.1875 6 0.0771637
      vertex 28.1875 10 0.0771637
    endloop
  endfacet
  facet normal 0 0 1
    outer loop
      vertex 28.1875 6 0.0771637
      vertex 24.8125 10 0.0771637
      vertex 24.8125 6 0.0771637
    endloop
  endfacet
  facet normal -5.6514e-07 1 0
    outer loop
      vertex 29.875 6 6
      vertex 28.1875 6 5.92284
      vertex 28.1875 6 6
    endloop
  endfacet
  facet normal -5.6514e-07 1 0
    outer loop
      vertex 28.1875 6 5.92284
      vertex 29.875 6 6
      vertex 29.875 6 3
    endloop
  endfacet
  facet normal 0 -1 0
    outer loop
      vertex 23.125 10 6
      vertex 25.675 10 4.42894
      vertex 29.875 10 6
    endloop
  endfacet
  facet normal 0 -1 0
    outer loop
      vertex 23.125 10 3
      vertex 25.675 10 4.42894
      vertex 23.125 10 6
    endloop
  endfacet
  facet normal 0 -1 0
    outer loop
      vertex 23.125 10 3
      vertex 24.85 10 3
      vertex 25.675 10 4.42894
    endloop
  endfacet
  facet normal 0 -1 0
    outer loop
      vertex 23.125 10 3
      vertex 25.675 10 1.57106
      vertex 24.85 10 3
    endloop
  endfacet
  facet normal 0 -1 -0
    outer loop
      vertex 25.675 10 1.57106
      vertex 24.8125 10 0.0771637
      vertex 27.325 10 1.57106
    endloop
  endfacet
  facet normal 0 -1 0
    outer loop
      vertex 24.8125 10 0.0771637
      vertex 25.675 10 1.57106
      vertex 23.125 10 3
    endloop
  endfacet
  facet normal 0 -1 0
    outer loop
      vertex 27.325 10 4.42894
      vertex 29.875 10 6
      vertex 25.675 10 4.42894
    endloop
  endfacet
  facet normal 0 -1 0
    outer loop
      vertex 29.875 10 3
      vertex 27.325 10 4.42894
      vertex 28.15 10 3
    endloop
  endfacet
  facet normal 0 -1 0
    outer loop
      vertex 27.325 10 4.42894
      vertex 29.875 10 3
      vertex 29.875 10 6
    endloop
  endfacet
  facet normal 0 -1 0
    outer loop
      vertex 27.325 10 1.57106
      vertex 29.875 10 3
      vertex 28.15 10 3
    endloop
  endfacet
  facet normal 0 -1 0
    outer loop
      vertex 28.1875 10 0.0771637
      vertex 27.325 10 1.57106
      vertex 24.8125 10 0.0771637
    endloop
  endfacet
  facet normal 0 -1 0
    outer loop
      vertex 27.325 10 1.57106
      vertex 28.1875 10 0.0771637
      vertex 29.875 10 3
    endloop
  endfacet
  facet normal -2.8257e-07 1 1.63142e-07
    outer loop
      vertex 29.875 6 3
      vertex 28.1875 6 0.0771637
      vertex 28.1875 6 5.92284
    endloop
  endfacet
  facet normal 0 1 3.19191e-07
    outer loop
      vertex 28.1875 6 5.92284
      vertex 27.325 6 4.42894
      vertex 24.8125 6 5.92284
    endloop
  endfacet
  facet normal 2.76428e-07 1 1.59595e-07
    outer loop
      vertex 28.1875 6 5.92284
      vertex 28.15 6 3
      vertex 27.325 6 4.42894
    endloop
  endfacet
  facet normal 0 1 3.19191e-07
    outer loop
      vertex 27.325 6 1.57106
      vertex 28.1875 6 0.0771637
      vertex 25.675 6 1.57106
    endloop
  endfacet
  facet normal -2.76428e-07 1 1.59595e-07
    outer loop
      vertex 28.15 6 3
      vertex 28.1875 6 0.0771637
      vertex 27.325 6 1.57106
    endloop
  endfacet
  facet normal 2.07444e-12 1 1.63142e-07
    outer loop
      vertex 28.1875 6 0.0771637
      vertex 28.15 6 3
      vertex 28.1875 6 5.92284
    endloop
  endfacet
  facet normal -0 1 3.19191e-07
    outer loop
      vertex 25.675 6 4.42894
      vertex 24.8125 6 5.92284
      vertex 27.325 6 4.42894
    endloop
  endfacet
  facet normal -2.76427e-07 1 1.59596e-07
    outer loop
      vertex 24.85 6 3
      vertex 24.8125 6 5.92284
      vertex 25.675 6 4.42894
    endloop
  endfacet
  facet normal -2.07454e-12 1 1.63142e-07
    outer loop
      vertex 24.85 6 3
      vertex 24.8125 6 0.0771637
      vertex 24.8125 6 5.92284
    endloop
  endfacet
  facet normal 2.76427e-07 1 1.59596e-07
    outer loop
      vertex 25.675 6 1.57106
      vertex 24.8125 6 0.0771637
      vertex 24.85 6 3
    endloop
  endfacet
  facet normal -0 1 3.19191e-07
    outer loop
      vertex 24.8125 6 0.0771637
      vertex 25.675 6 1.57106
      vertex 28.1875 6 0.0771637
    endloop
  endfacet
  facet normal -1 0 0
    outer loop
      vertex 29.875 6 3
      vertex 29.875 10 6
      vertex 29.875 10 3
    endloop
  endfacet
  facet normal -1 -0 0
    outer loop
      vertex 29.875 10 6
      vertex 29.875 6 3
      vertex 29.875 6 6
    endloop
  endfacet
  facet normal 1 -0 0
    outer loop
      vertex 23.125 6 6
      vertex 23.125 10 3
      vertex 23.125 10 6
    endloop
  endfacet
  facet normal 1 0 0
    outer loop
      vertex 23.125 10 3
      vertex 23.125 6 6
      vertex 23.125 6 3
    endloop
  endfacet
  facet normal 0.866025 -1.19209e-07 0.5
    outer loop
      vertex 24.8125 10 0.0771637
      vertex 23.125 10 3
      vertex 23.125 6 3
    endloop
  endfacet
  facet normal 0.866025 -0 0.5
    outer loop
      vertex 24.8125 6 0.0771637
      vertex 24.8125 10 0.0771637
      vertex 23.125 6 3
    endloop
  endfacet
  facet normal 5.6514e-07 1 -0
    outer loop
      vertex 24.8125 6 5.92284
      vertex 23.125 6 6
      vertex 24.8125 6 6
    endloop
  endfacet
  facet normal 5.6514e-07 1 0
    outer loop
      vertex 23.125 6 6
      vertex 24.8125 6 5.92284
      vertex 23.125 6 3
    endloop
  endfacet
  facet normal 0 1 -0
    outer loop
      vertex 28.1875 6 5.92284
      vertex 24.8125 6 6
      vertex 28.1875 6 6
    endloop
  endfacet
  facet normal 0 1 0
    outer loop
      vertex 24.8125 6 6
      vertex 28.1875 6 5.92284
      vertex 24.8125 6 5.92284
    endloop
  endfacet
  facet normal 2.8257e-07 1 1.63142e-07
    outer loop
      vertex 24.8125 6 5.92284
      vertex 24.8125 6 0.0771637
      vertex 23.125 6 3
    endloop
  endfacet
  facet normal -1 0 0
    outer loop
      vertex 10 -12 0
      vertex 10 -2 6
      vertex 10 -2 0
    endloop
  endfacet
  facet normal -1 -0 0
    outer loop
      vertex 10 -2 6
      vertex 10 -12 0
      vertex 10 -12 6
    endloop
  endfacet
  facet normal 0 1 0
    outer loop
      vertex 25.675 -2 4.42894
      vertex 35 -2 6
      vertex 27.325 -2 4.42894
    endloop
  endfacet
  facet normal 0 1 0
    outer loop
      vertex 35 -2 6
      vertex 28.15 -2 3
      vertex 27.325 -2 4.42894
    endloop
  endfacet
  facet normal 0 1 -0
    outer loop
      vertex 35 -2 0
      vertex 28.15 -2 3
      vertex 35 -2 6
    endloop
  endfacet
  facet normal 0 1 0
    outer loop
      vertex 27.325 -2 1.57106
      vertex 35 -2 0
      vertex 25.675 -2 1.57106
    endloop
  endfacet
  facet normal 0 1 0
    outer loop
      vertex 28.15 -2 3
      vertex 35 -2 0
      vertex 27.325 -2 1.57106
    endloop
  endfacet
  facet normal 0 1 0
    outer loop
      vertex 35 -2 6
      vertex 25.675 -2 4.42894
      vertex 10 -2 6
    endloop
  endfacet
  facet normal 0 1 -0
    outer loop
      vertex 24.85 -2 3
      vertex 10 -2 6
      vertex 25.675 -2 4.42894
    endloop
  endfacet
  facet normal 0 1 0
    outer loop
      vertex 10 -2 0
      vertex 24.85 -2 3
      vertex 25.675 -2 1.57106
    endloop
  endfacet
  facet normal 0 1 0
    outer loop
      vertex 24.85 -2 3
      vertex 10 -2 0
      vertex 10 -2 6
    endloop
  endfacet
  facet normal 0 1 0
    outer loop
      vertex 10 -2 0
      vertex 25.675 -2 1.57106
      vertex 35 -2 0
    endloop
  endfacet
  facet normal -0.99787 -0.0652407 0
    outer loop
      vertex 10.2865 -16.3817 0
      vertex 10 -12 6
      vertex 10 -12 0
    endloop
  endfacet
  facet normal -0.99787 -0.0652407 0
    outer loop
      vertex 10 -12 6
      vertex 10.2865 -16.3817 0
      vertex 10.2865 -16.3817 6
    endloop
  endfacet
  facet normal -0 0 1
    outer loop
      vertex 34.111 -15.1697 6
      vertex 35 -17 6
      vertex 35 -2 6
    endloop
  endfacet
  facet normal 0 0 1
    outer loop
      vertex 35 -17 6
      vertex 34.5 -17 6
      vertex 34.6194 -18.9134 6
    endloop
  endfacet
  facet normal 0 0 1
    outer loop
      vertex 35 -17 6
      vertex 34.111 -15.1697 6
      vertex 34.5 -17 6
    endloop
  endfacet
  facet normal 0 0 1
    outer loop
      vertex 35 -2 6
      vertex 33.0111 -13.6558 6
      vertex 34.111 -15.1697 6
    endloop
  endfacet
  facet normal -0 0 1
    outer loop
      vertex 29.875 -8 6
      vertex 33.0111 -13.6558 6
      vertex 35 -2 6
    endloop
  endfacet
  facet normal 0 0 1
    outer loop
      vertex 33.0111 -13.6558 6
      vertex 29.875 -8 6
      vertex 31.3906 -12.7202 6
    endloop
  endfacet
  facet normal 0 0 1
    outer loop
      vertex 35 -2 6
      vertex 28.1875 -8 6
      vertex 29.875 -8 6
    endloop
  endfacet
  facet normal 0 0 1
    outer loop
      vertex 35 -2 6
      vertex 24.8125 -8 6
      vertex 28.1875 -8 6
    endloop
  endfacet
  facet normal 0 0 1
    outer loop
      vertex 35 -2 6
      vertex 23.125 -8 6
      vertex 24.8125 -8 6
    endloop
  endfacet
  facet normal 0 0 1
    outer loop
      vertex 10 -12 6
      vertex 23.125 -12 6
      vertex 23.125 -8 6
    endloop
  endfacet
  facet normal 0 0 1
    outer loop
      vertex 23.125 -12 6
      vertex 10 -12 6
      vertex 11.9635 -16.9266 6
    endloop
  endfacet
  facet normal -0 0 1
    outer loop
      vertex 10 -2 6
      vertex 23.125 -8 6
      vertex 35 -2 6
    endloop
  endfacet
  facet normal 0 0 1
    outer loop
      vertex 10 -12 6
      vertex 23.125 -8 6
      vertex 10 -2 6
    endloop
  endfacet
  facet normal 0 0 1
    outer loop
      vertex 11.9635 -16.9266 6
      vertex 10 -12 6
      vertex 10.2865 -16.3817 6
    endloop
  endfacet
  facet normal -0 0 1
    outer loop
      vertex 34.111 -18.8303 6
      vertex 34.6194 -18.9134 6
      vertex 34.5 -17 6
    endloop
  endfacet
  facet normal 0 0 1
    outer loop
      vertex 34.111 -18.8303 6
      vertex 33.5355 -20.5355 6
      vertex 34.6194 -18.9134 6
    endloop
  endfacet
  facet normal -0 0 1
    outer loop
      vertex 33.0111 -20.3442 6
      vertex 33.5355 -20.5355 6
      vertex 34.111 -18.8303 6
    endloop
  endfacet
  facet normal 0 0 1
    outer loop
      vertex 33.0111 -20.3442 6
      vertex 31.9134 -21.6194 6
      vertex 33.5355 -20.5355 6
    endloop
  endfacet
  facet normal -0 0 1
    outer loop
      vertex 31.3906 -21.2798 6
      vertex 31.9134 -21.6194 6
      vertex 33.0111 -20.3442 6
    endloop
  endfacet
  facet normal 0 0 1
    outer loop
      vertex 31.3906 -21.2798 6
      vertex 30 -22 6
      vertex 31.9134 -21.6194 6
    endloop
  endfacet
  facet normal -0 0 1
    outer loop
      vertex 29.5296 -21.4753 6
      vertex 30 -22 6
      vertex 31.3906 -21.2798 6
    endloop
  endfacet
  facet normal 0 0 1
    outer loop
      vertex 29.5296 -21.4753 6
      vertex 28.0866 -21.6194 6
      vertex 30 -22 6
    endloop
  endfacet
  facet normal 0 0 1
    outer loop
      vertex 27.75 -20.8971 6
      vertex 28.0866 -21.6194 6
      vertex 29.5296 -21.4753 6
    endloop
  endfacet
  facet normal 0 0 1
    outer loop
      vertex 26.3594 -19.645 6
      vertex 28.0866 -21.6194 6
      vertex 27.75 -20.8971 6
    endloop
  endfacet
  facet normal 0 0 1
    outer loop
      vertex 26.3594 -19.645 6
      vertex 11.9635 -16.9266 6
      vertex 28.0866 -21.6194 6
    endloop
  endfacet
  facet normal 0 0 1
    outer loop
      vertex 25.5983 -17.9356 6
      vertex 11.9635 -16.9266 6
      vertex 26.3594 -19.645 6
    endloop
  endfacet
  facet normal -0 0 1
    outer loop
      vertex 11.9635 -16.9266 6
      vertex 25.5983 -17.9356 6
      vertex 23.125 -12 6
    endloop
  endfacet
  facet normal -0 0 1
    outer loop
      vertex 29.875 -12 6
      vertex 31.3906 -12.7202 6
      vertex 29.875 -8 6
    endloop
  endfacet
  facet normal 0 0 1
    outer loop
      vertex 29.875 -12 6
      vertex 29.5296 -12.5247 6
      vertex 31.3906 -12.7202 6
    endloop
  endfacet
  facet normal 0 0 1
    outer loop
      vertex 29.875 -12 6
      vertex 27.75 -13.1029 6
      vertex 29.5296 -12.5247 6
    endloop
  endfacet
  facet normal 0 0 1
    outer loop
      vertex 25.5983 -16.0644 6
      vertex 23.125 -12 6
      vertex 25.5983 -17.9356 6
    endloop
  endfacet
  facet normal 0 0 1
    outer loop
      vertex 26.3594 -14.355 6
      vertex 23.125 -12 6
      vertex 25.5983 -16.0644 6
    endloop
  endfacet
  facet normal 0 0 1
    outer loop
      vertex 27.75 -13.1029 6
      vertex 23.125 -12 6
      vertex 26.3594 -14.355 6
    endloop
  endfacet
  facet normal -0 0 1
    outer loop
      vertex 23.125 -12 6
      vertex 27.75 -13.1029 6
      vertex 29.875 -12 6
    endloop
  endfacet
  facet normal 0 0 -1
    outer loop
      vertex 31.3717 -18.72 0
      vertex 33.5355 -20.5355 0
      vertex 31.9134 -21.6194 0
    endloop
  endfacet
  facet normal 0 0 -1
    outer loop
      vertex 33.5355 -20.5355 0
      vertex 31.3717 -18.72 0
      vertex 32.2 -17 0
    endloop
  endfacet
  facet normal 0 0 -1
    outer loop
      vertex 29.5105 -19.1448 0
      vertex 31.9134 -21.6194 0
      vertex 30 -22 0
    endloop
  endfacet
  facet normal 0 0 -1
    outer loop
      vertex 31.9134 -21.6194 0
      vertex 29.5105 -19.1448 0
      vertex 31.3717 -18.72 0
    endloop
  endfacet
  facet normal 0 0 -1
    outer loop
      vertex 28.0866 -21.6194 0
      vertex 29.5105 -19.1448 0
      vertex 30 -22 0
    endloop
  endfacet
  facet normal 0 0 -1
    outer loop
      vertex 28.0866 -21.6194 0
      vertex 28.0179 -17.9545 0
      vertex 29.5105 -19.1448 0
    endloop
  endfacet
  facet normal 0 0 -1
    outer loop
      vertex 28.0179 -17.9545 0
      vertex 11.9635 -16.9266 0
      vertex 28.0179 -16.0455 0
    endloop
  endfacet
  facet normal 0 0 -1
    outer loop
      vertex 11.9635 -16.9266 0
      vertex 28.0179 -17.9545 0
      vertex 28.0866 -21.6194 0
    endloop
  endfacet
  facet normal 0 0 -1
    outer loop
      vertex 32.2 -17 0
      vertex 35 -17 0
      vertex 34.6194 -18.9134 0
    endloop
  endfacet
  facet normal 0 0 -1
    outer loop
      vertex 32.2 -17 0
      vertex 34.6194 -18.9134 0
      vertex 33.5355 -20.5355 0
    endloop
  endfacet
  facet normal 0 0 -1
    outer loop
      vertex 35 -17 0
      vertex 32.2 -17 0
      vertex 31.3717 -15.28 0
    endloop
  endfacet
  facet normal 0 0 -1
    outer loop
      vertex 35 -17 0
      vertex 31.3717 -15.28 0
      vertex 35 -2 0
    endloop
  endfacet
  facet normal 0 0 -1
    outer loop
      vertex 29.5105 -14.8552 0
      vertex 35 -2 0
      vertex 31.3717 -15.28 0
    endloop
  endfacet
  facet normal 0 0 -1
    outer loop
      vertex 10 -2 0
      vertex 29.5105 -14.8552 0
      vertex 28.0179 -16.0455 0
    endloop
  endfacet
  facet normal 0 0 -1
    outer loop
      vertex 10 -12 0
      vertex 28.0179 -16.0455 0
      vertex 11.9635 -16.9266 0
    endloop
  endfacet
  facet normal 0 0 -1
    outer loop
      vertex 10 -12 0
      vertex 11.9635 -16.9266 0
      vertex 10.2865 -16.3817 0
    endloop
  endfacet
  facet normal 0 0 -1
    outer loop
      vertex 10 -2 0
      vertex 28.0179 -16.0455 0
      vertex 10 -12 0
    endloop
  endfacet
  facet normal 0 0 -1
    outer loop
      vertex 29.5105 -14.8552 0
      vertex 10 -2 0
      vertex 35 -2 0
    endloop
  endfacet
  facet normal 1 -0 0
    outer loop
      vertex 35 -17 6
      vertex 35 -2 0
      vertex 35 -2 6
    endloop
  endfacet
  facet normal 1 0 0
    outer loop
      vertex 35 -2 0
      vertex 35 -17 6
      vertex 35 -17 0
    endloop
  endfacet
  facet normal -0.279465 -0.960156 0
    outer loop
      vertex 11.9635 -16.9266 0
      vertex 28.0866 -21.6194 6
      vertex 11.9635 -16.9266 6
    endloop
  endfacet
  facet normal -0.279465 -0.960156 -0
    outer loop
      vertex 28.0866 -21.6194 6
      vertex 11.9635 -16.9266 0
      vertex 28.0866 -21.6194 0
    endloop
  endfacet
  facet normal -0.195091 -0.980785 0
    outer loop
      vertex 28.0866 -21.6194 0
      vertex 30 -22 6
      vertex 28.0866 -21.6194 6
    endloop
  endfacet
  facet normal -0.195091 -0.980785 -0
    outer loop
      vertex 30 -22 6
      vertex 28.0866 -21.6194 0
      vertex 30 -22 0
    endloop
  endfacet
  facet normal 0.55557 -0.83147 0
    outer loop
      vertex 31.9134 -21.6194 0
      vertex 33.5355 -20.5355 6
      vertex 31.9134 -21.6194 6
    endloop
  endfacet
  facet normal 0.55557 -0.83147 0
    outer loop
      vertex 33.5355 -20.5355 6
      vertex 31.9134 -21.6194 0
      vertex 33.5355 -20.5355 0
    endloop
  endfacet
  facet normal 0.83147 -0.55557 0
    outer loop
      vertex 33.5355 -20.5355 6
      vertex 34.6194 -18.9134 0
      vertex 34.6194 -18.9134 6
    endloop
  endfacet
  facet normal 0.83147 -0.55557 0
    outer loop
      vertex 34.6194 -18.9134 0
      vertex 33.5355 -20.5355 6
      vertex 33.5355 -20.5355 0
    endloop
  endfacet
  facet normal 0.980785 -0.195091 0
    outer loop
      vertex 34.6194 -18.9134 6
      vertex 35 -17 0
      vertex 35 -17 6
    endloop
  endfacet
  facet normal 0.980785 -0.195091 0
    outer loop
      vertex 35 -17 0
      vertex 34.6194 -18.9134 6
      vertex 34.6194 -18.9134 0
    endloop
  endfacet
  facet normal -0.309017 -0.951057 0
    outer loop
      vertex 10.2865 -16.3817 0
      vertex 11.9635 -16.9266 6
      vertex 10.2865 -16.3817 6
    endloop
  endfacet
  facet normal -0.309017 -0.951057 -0
    outer loop
      vertex 11.9635 -16.9266 6
      vertex 10.2865 -16.3817 0
      vertex 11.9635 -16.9266 0
    endloop
  endfacet
  facet normal 0.195091 -0.980785 0
    outer loop
      vertex 30 -22 0
      vertex 31.9134 -21.6194 6
      vertex 30 -22 6
    endloop
  endfacet
  facet normal 0.195091 -0.980785 0
    outer loop
      vertex 31.9134 -21.6194 6
      vertex 30 -22 0
      vertex 31.9134 -21.6194 0
    endloop
  endfacet
  facet normal 0.978148 -0.207912 0
    outer loop
      vertex 34.111 -18.8303 7.5
      vertex 34.5 -17 6
      vertex 34.5 -17 7.5
    endloop
  endfacet
  facet normal 0.978148 -0.207912 0
    outer loop
      vertex 34.5 -17 6
      vertex 34.111 -18.8303 7.5
      vertex 34.111 -18.8303 6
    endloop
  endfacet
  facet normal -1 0 0
    outer loop
      vertex 25.5983 -17.9356 6
      vertex 25.5983 -16.0644 7.5
      vertex 25.5983 -16.0644 6
    endloop
  endfacet
  facet normal -1 -0 0
    outer loop
      vertex 25.5983 -16.0644 7.5
      vertex 25.5983 -17.9356 6
      vertex 25.5983 -17.9356 7.5
    endloop
  endfacet
  facet normal 0.104529 0.994522 -0
    outer loop
      vertex 31.3906 -12.7202 6
      vertex 29.5296 -12.5247 7.5
      vertex 31.3906 -12.7202 7.5
    endloop
  endfacet
  facet normal 0.104529 0.994522 0
    outer loop
      vertex 29.5296 -12.5247 7.5
      vertex 31.3906 -12.7202 6
      vertex 29.5296 -12.5247 6
    endloop
  endfacet
  facet normal 0.104529 -0.994522 0
    outer loop
      vertex 29.5296 -21.4753 6
      vertex 31.3906 -21.2798 7.5
      vertex 29.5296 -21.4753 7.5
    endloop
  endfacet
  facet normal 0.104529 -0.994522 0
    outer loop
      vertex 31.3906 -21.2798 7.5
      vertex 29.5296 -21.4753 6
      vertex 31.3906 -21.2798 6
    endloop
  endfacet
  facet normal 0.809016 -0.587786 0
    outer loop
      vertex 33.0111 -20.3442 7.5
      vertex 34.111 -18.8303 6
      vertex 34.111 -18.8303 7.5
    endloop
  endfacet
  facet normal 0.809016 -0.587786 0
    outer loop
      vertex 34.111 -18.8303 6
      vertex 33.0111 -20.3442 7.5
      vertex 33.0111 -20.3442 6
    endloop
  endfacet
  facet normal 0.500001 -0.866025 0
    outer loop
      vertex 31.3906 -21.2798 6
      vertex 33.0111 -20.3442 7.5
      vertex 31.3906 -21.2798 7.5
    endloop
  endfacet
  facet normal 0.500001 -0.866025 0
    outer loop
      vertex 33.0111 -20.3442 7.5
      vertex 31.3906 -21.2798 6
      vertex 33.0111 -20.3442 6
    endloop
  endfacet
  facet normal -0.66913 -0.743145 0
    outer loop
      vertex 26.3594 -19.645 6
      vertex 27.75 -20.8971 7.5
      vertex 26.3594 -19.645 7.5
    endloop
  endfacet
  facet normal -0.66913 -0.743145 -0
    outer loop
      vertex 27.75 -20.8971 7.5
      vertex 26.3594 -19.645 6
      vertex 27.75 -20.8971 6
    endloop
  endfacet
  facet normal -0.913545 -0.406737 0
    outer loop
      vertex 26.3594 -19.645 6
      vertex 25.5983 -17.9356 7.5
      vertex 25.5983 -17.9356 6
    endloop
  endfacet
  facet normal -0.913545 -0.406737 0
    outer loop
      vertex 25.5983 -17.9356 7.5
      vertex 26.3594 -19.645 6
      vertex 26.3594 -19.645 7.5
    endloop
  endfacet
  facet normal 0 0 1
    outer loop
      vertex 32.2 -17 7.5
      vertex 34.5 -17 7.5
      vertex 34.111 -15.1697 7.5
    endloop
  endfacet
  facet normal 0 0 1
    outer loop
      vertex 31.3717 -15.28 7.5
      vertex 34.111 -15.1697 7.5
      vertex 33.0111 -13.6558 7.5
    endloop
  endfacet
  facet normal 0 0 1
    outer loop
      vertex 34.5 -17 7.5
      vertex 32.2 -17 7.5
      vertex 34.111 -18.8303 7.5
    endloop
  endfacet
  facet normal -0 0 1
    outer loop
      vertex 31.3717 -18.72 7.5
      vertex 34.111 -18.8303 7.5
      vertex 32.2 -17 7.5
    endloop
  endfacet
  facet normal 0 0 1
    outer loop
      vertex 31.3717 -15.28 7.5
      vertex 33.0111 -13.6558 7.5
      vertex 31.3906 -12.7202 7.5
    endloop
  endfacet
  facet normal 0 0 1
    outer loop
      vertex 34.111 -15.1697 7.5
      vertex 31.3717 -15.28 7.5
      vertex 32.2 -17 7.5
    endloop
  endfacet
  facet normal 0 0 1
    outer loop
      vertex 29.5105 -14.8552 7.5
      vertex 31.3906 -12.7202 7.5
      vertex 29.5296 -12.5247 7.5
    endloop
  endfacet
  facet normal 0 0 1
    outer loop
      vertex 31.3906 -12.7202 7.5
      vertex 29.5105 -14.8552 7.5
      vertex 31.3717 -15.28 7.5
    endloop
  endfacet
  facet normal -0 0 1
    outer loop
      vertex 27.75 -13.1029 7.5
      vertex 29.5105 -14.8552 7.5
      vertex 29.5296 -12.5247 7.5
    endloop
  endfacet
  facet normal -0 0 1
    outer loop
      vertex 26.3594 -14.355 7.5
      vertex 28.0179 -16.0455 7.5
      vertex 27.75 -13.1029 7.5
    endloop
  endfacet
  facet normal 0 0 1
    outer loop
      vertex 29.5105 -14.8552 7.5
      vertex 27.75 -13.1029 7.5
      vertex 28.0179 -16.0455 7.5
    endloop
  endfacet
  facet normal 0 0 1
    outer loop
      vertex 34.111 -18.8303 7.5
      vertex 31.3717 -18.72 7.5
      vertex 33.0111 -20.3442 7.5
    endloop
  endfacet
  facet normal 0 0 1
    outer loop
      vertex 33.0111 -20.3442 7.5
      vertex 31.3717 -18.72 7.5
      vertex 31.3906 -21.2798 7.5
    endloop
  endfacet
  facet normal -0 0 1
    outer loop
      vertex 29.5105 -19.1448 7.5
      vertex 31.3906 -21.2798 7.5
      vertex 31.3717 -18.72 7.5
    endloop
  endfacet
  facet normal 0 0 1
    outer loop
      vertex 31.3906 -21.2798 7.5
      vertex 29.5105 -19.1448 7.5
      vertex 29.5296 -21.4753 7.5
    endloop
  endfacet
  facet normal 0 0 1
    outer loop
      vertex 27.75 -20.8971 7.5
      vertex 29.5105 -19.1448 7.5
      vertex 28.0179 -17.9545 7.5
    endloop
  endfacet
  facet normal 0 0 1
    outer loop
      vertex 29.5105 -19.1448 7.5
      vertex 27.75 -20.8971 7.5
      vertex 29.5296 -21.4753 7.5
    endloop
  endfacet
  facet normal 0 0 1
    outer loop
      vertex 25.5983 -16.0644 7.5
      vertex 28.0179 -16.0455 7.5
      vertex 26.3594 -14.355 7.5
    endloop
  endfacet
  facet normal 0 0 1
    outer loop
      vertex 28.0179 -16.0455 7.5
      vertex 25.5983 -16.0644 7.5
      vertex 28.0179 -17.9545 7.5
    endloop
  endfacet
  facet normal 0 0 1
    outer loop
      vertex 28.0179 -17.9545 7.5
      vertex 26.3594 -19.645 7.5
      vertex 27.75 -20.8971 7.5
    endloop
  endfacet
  facet normal -0 0 1
    outer loop
      vertex 25.5983 -17.9356 7.5
      vertex 28.0179 -17.9545 7.5
      vertex 25.5983 -16.0644 7.5
    endloop
  endfacet
  facet normal 0 0 1
    outer loop
      vertex 28.0179 -17.9545 7.5
      vertex 25.5983 -17.9356 7.5
      vertex 26.3594 -19.645 7.5
    endloop
  endfacet
  facet normal -0.309018 -0.951056 0
    outer loop
      vertex 27.75 -20.8971 6
      vertex 29.5296 -21.4753 7.5
      vertex 27.75 -20.8971 7.5
    endloop
  endfacet
  facet normal -0.309018 -0.951056 -0
    outer loop
      vertex 29.5296 -21.4753 7.5
      vertex 27.75 -20.8971 6
      vertex 29.5296 -21.4753 6
    endloop
  endfacet
  facet normal 0.978148 0.207912 0
    outer loop
      vertex 34.5 -17 7.5
      vertex 34.111 -15.1697 6
      vertex 34.111 -15.1697 7.5
    endloop
  endfacet
  facet normal 0.978148 0.207912 0
    outer loop
      vertex 34.111 -15.1697 6
      vertex 34.5 -17 7.5
      vertex 34.5 -17 6
    endloop
  endfacet
  facet normal -0.309017 0.951056 0
    outer loop
      vertex 29.5296 -12.5247 6
      vertex 27.75 -13.1029 7.5
      vertex 29.5296 -12.5247 7.5
    endloop
  endfacet
  facet normal -0.309017 0.951056 0
    outer loop
      vertex 27.75 -13.1029 7.5
      vertex 29.5296 -12.5247 6
      vertex 27.75 -13.1029 6
    endloop
  endfacet
  facet normal -0.66913 0.743145 0
    outer loop
      vertex 27.75 -13.1029 6
      vertex 26.3594 -14.355 7.5
      vertex 27.75 -13.1029 7.5
    endloop
  endfacet
  facet normal -0.66913 0.743145 0
    outer loop
      vertex 26.3594 -14.355 7.5
      vertex 27.75 -13.1029 6
      vertex 26.3594 -14.355 6
    endloop
  endfacet
  facet normal -0.913545 0.406737 0
    outer loop
      vertex 25.5983 -16.0644 6
      vertex 26.3594 -14.355 7.5
      vertex 26.3594 -14.355 6
    endloop
  endfacet
  facet normal -0.913545 0.406737 0
    outer loop
      vertex 26.3594 -14.355 7.5
      vertex 25.5983 -16.0644 6
      vertex 25.5983 -16.0644 7.5
    endloop
  endfacet
  facet normal 0.809017 0.587786 0
    outer loop
      vertex 34.111 -15.1697 7.5
      vertex 33.0111 -13.6558 6
      vertex 33.0111 -13.6558 7.5
    endloop
  endfacet
  facet normal 0.809017 0.587786 0
    outer loop
      vertex 33.0111 -13.6558 6
      vertex 34.111 -15.1697 7.5
      vertex 34.111 -15.1697 6
    endloop
  endfacet
  facet normal 0.5 0.866025 -0
    outer loop
      vertex 33.0111 -13.6558 6
      vertex 31.3906 -12.7202 7.5
      vertex 33.0111 -13.6558 7.5
    endloop
  endfacet
  facet normal 0.5 0.866025 0
    outer loop
      vertex 31.3906 -12.7202 7.5
      vertex 33.0111 -13.6558 6
      vertex 31.3906 -12.7202 6
    endloop
  endfacet
  facet normal -0.900969 0.433884 0
    outer loop
      vertex 31.3717 -18.72 0
      vertex 32.2 -17 7.5
      vertex 32.2 -17 0
    endloop
  endfacet
  facet normal -0.900969 0.433884 0
    outer loop
      vertex 32.2 -17 7.5
      vertex 31.3717 -18.72 0
      vertex 31.3717 -18.72 7.5
    endloop
  endfacet
  facet normal 1 -0 0
    outer loop
      vertex 28.0179 -17.9545 7.5
      vertex 28.0179 -16.0455 0
      vertex 28.0179 -16.0455 7.5
    endloop
  endfacet
  facet normal 1 0 0
    outer loop
      vertex 28.0179 -16.0455 0
      vertex 28.0179 -17.9545 7.5
      vertex 28.0179 -17.9545 0
    endloop
  endfacet
  facet normal -0.222521 0.974928 0
    outer loop
      vertex 31.3717 -18.72 0
      vertex 29.5105 -19.1448 7.5
      vertex 31.3717 -18.72 7.5
    endloop
  endfacet
  facet normal -0.222521 0.974928 0
    outer loop
      vertex 29.5105 -19.1448 7.5
      vertex 31.3717 -18.72 0
      vertex 29.5105 -19.1448 0
    endloop
  endfacet
  facet normal 0.62349 0.781831 -0
    outer loop
      vertex 29.5105 -19.1448 0
      vertex 28.0179 -17.9545 7.5
      vertex 29.5105 -19.1448 7.5
    endloop
  endfacet
  facet normal 0.62349 0.781831 0
    outer loop
      vertex 28.0179 -17.9545 7.5
      vertex 29.5105 -19.1448 0
      vertex 28.0179 -17.9545 0
    endloop
  endfacet
  facet normal -0.900969 -0.433884 0
    outer loop
      vertex 32.2 -17 0
      vertex 31.3717 -15.28 7.5
      vertex 31.3717 -15.28 0
    endloop
  endfacet
  facet normal -0.900969 -0.433884 0
    outer loop
      vertex 31.3717 -15.28 7.5
      vertex 32.2 -17 0
      vertex 32.2 -17 7.5
    endloop
  endfacet
  facet normal 0.62349 -0.781831 -9.13378e-08
    outer loop
      vertex 28.0179 -16.0455 7.5
      vertex 28.0749 -16 3.13013
      vertex 29.5105 -14.8552 7.5
    endloop
  endfacet
  facet normal 0.623495 -0.781828 0
    outer loop
      vertex 28.0179 -16.0455 7.5
      vertex 28.0749 -16 2.86987
      vertex 28.0749 -16 3.13013
    endloop
  endfacet
  facet normal 0.623495 -0.781828 0
    outer loop
      vertex 28.0749 -16 2.86987
      vertex 28.0179 -16.0455 7.5
      vertex 28.0179 -16.0455 0
    endloop
  endfacet
  facet normal 0.623492 -0.78183 -7.90406e-07
    outer loop
      vertex 28.15 -15.9401 3
      vertex 29.5105 -14.8552 7.5
      vertex 28.0749 -16 3.13013
    endloop
  endfacet
  facet normal 0.62349 -0.781831 1.39078e-07
    outer loop
      vertex 29.5105 -14.8552 0
      vertex 28.0749 -16 2.86987
      vertex 28.0179 -16.0455 0
    endloop
  endfacet
  facet normal 0.623491 -0.78183 1.01175e-06
    outer loop
      vertex 28.0749 -16 2.86987
      vertex 29.5105 -14.8552 0
      vertex 28.15 -15.9401 3
    endloop
  endfacet
  facet normal 0.62349 -0.781831 0
    outer loop
      vertex 28.15 -15.9401 3
      vertex 29.5105 -14.8552 0
      vertex 29.5105 -14.8552 7.5
    endloop
  endfacet
  facet normal -0.222521 -0.974928 0
    outer loop
      vertex 29.5105 -14.8552 0
      vertex 31.3717 -15.28 7.5
      vertex 29.5105 -14.8552 7.5
    endloop
  endfacet
  facet normal -0.222521 -0.974928 -0
    outer loop
      vertex 31.3717 -15.28 7.5
      vertex 29.5105 -14.8552 0
      vertex 31.3717 -15.28 0
    endloop
  endfacet
  facet normal -0.866026 0 0.499999
    outer loop
      vertex 27.325 -12 1.57106
      vertex 28.15 -15.9401 3
      vertex 28.15 -12 3
    endloop
  endfacet
  facet normal -0.866026 0 0.499999
    outer loop
      vertex 27.325 -16 1.57106
      vertex 28.15 -15.9401 3
      vertex 27.325 -12 1.57106
    endloop
  endfacet
  facet normal -0.866026 -7.10112e-06 0.5
    outer loop
      vertex 28.15 -15.9401 3
      vertex 27.325 -16 1.57106
      vertex 28.0749 -16 2.86987
    endloop
  endfacet
  facet normal -0.866026 0 0.499999
    outer loop
      vertex 27.325 -8 1.57106
      vertex 28.15 -2 3
      vertex 27.325 -2 1.57106
    endloop
  endfacet
  facet normal -0.866026 0 0.499999
    outer loop
      vertex 28.15 -2 3
      vertex 27.325 -8 1.57106
      vertex 28.15 -8 3
    endloop
  endfacet
  facet normal 0.866025 -0 0.5
    outer loop
      vertex 24.85 -16 3
      vertex 25.675 -12 1.57106
      vertex 24.85 -12 3
    endloop
  endfacet
  facet normal 0.866025 0 0.5
    outer loop
      vertex 25.675 -12 1.57106
      vertex 24.85 -16 3
      vertex 25.675 -16 1.57106
    endloop
  endfacet
  facet normal 0.866025 -0 0.5
    outer loop
      vertex 24.85 -8 3
      vertex 25.675 -2 1.57106
      vertex 24.85 -2 3
    endloop
  endfacet
  facet normal 0.866025 0 0.5
    outer loop
      vertex 25.675 -2 1.57106
      vertex 24.85 -8 3
      vertex 25.675 -8 1.57106
    endloop
  endfacet
  facet normal -0 0 1
    outer loop
      vertex 25.675 -12 1.57106
      vertex 27.325 -16 1.57106
      vertex 27.325 -12 1.57106
    endloop
  endfacet
  facet normal 0 0 1
    outer loop
      vertex 27.325 -16 1.57106
      vertex 25.675 -12 1.57106
      vertex 25.675 -16 1.57106
    endloop
  endfacet
  facet normal -0 0 1
    outer loop
      vertex 25.675 -2 1.57106
      vertex 27.325 -8 1.57106
      vertex 27.325 -2 1.57106
    endloop
  endfacet
  facet normal 0 0 1
    outer loop
      vertex 27.325 -8 1.57106
      vertex 25.675 -2 1.57106
      vertex 25.675 -8 1.57106
    endloop
  endfacet
  facet normal 0 1 0
    outer loop
      vertex 28.0749 -16 3.13013
      vertex 25.675 -16 4.42894
      vertex 27.325 -16 4.42894
    endloop
  endfacet
  facet normal 0 1 0
    outer loop
      vertex 28.0749 -16 3.13013
      vertex 24.85 -16 3
      vertex 25.675 -16 4.42894
    endloop
  endfacet
  facet normal 0 1 -0
    outer loop
      vertex 28.0749 -16 2.86987
      vertex 24.85 -16 3
      vertex 28.0749 -16 3.13013
    endloop
  endfacet
  facet normal 0 1 0
    outer loop
      vertex 25.675 -16 1.57106
      vertex 28.0749 -16 2.86987
      vertex 27.325 -16 1.57106
    endloop
  endfacet
  facet normal 0 1 0
    outer loop
      vertex 28.0749 -16 2.86987
      vertex 25.675 -16 1.57106
      vertex 24.85 -16 3
    endloop
  endfacet
  facet normal 0 0 -1
    outer loop
      vertex 25.675 -16 4.42894
      vertex 27.325 -12 4.42894
      vertex 27.325 -16 4.42894
    endloop
  endfacet
  facet normal -0 0 -1
    outer loop
      vertex 27.325 -12 4.42894
      vertex 25.675 -16 4.42894
      vertex 25.675 -12 4.42894
    endloop
  endfacet
  facet normal 0 0 -1
    outer loop
      vertex 25.675 -8 4.42894
      vertex 27.325 -2 4.42894
      vertex 27.325 -8 4.42894
    endloop
  endfacet
  facet normal -0 0 -1
    outer loop
      vertex 27.325 -2 4.42894
      vertex 25.675 -8 4.42894
      vertex 25.675 -2 4.42894
    endloop
  endfacet
  facet normal 0.866025 0 -0.5
    outer loop
      vertex 25.675 -16 4.42894
      vertex 24.85 -12 3
      vertex 25.675 -12 4.42894
    endloop
  endfacet
  facet normal 0.866025 0 -0.5
    outer loop
      vertex 24.85 -12 3
      vertex 25.675 -16 4.42894
      vertex 24.85 -16 3
    endloop
  endfacet
  facet normal 0.866025 0 -0.5
    outer loop
      vertex 25.675 -8 4.42894
      vertex 24.85 -2 3
      vertex 25.675 -2 4.42894
    endloop
  endfacet
  facet normal 0.866025 0 -0.5
    outer loop
      vertex 24.85 -2 3
      vertex 25.675 -8 4.42894
      vertex 24.85 -8 3
    endloop
  endfacet
  facet normal -0.866026 0 -0.5
    outer loop
      vertex 28.15 -15.9401 3
      vertex 27.325 -12 4.42894
      vertex 28.15 -12 3
    endloop
  endfacet
  facet normal -0.866026 -5.70957e-06 -0.5
    outer loop
      vertex 27.325 -16 4.42894
      vertex 28.15 -15.9401 3
      vertex 28.0749 -16 3.13013
    endloop
  endfacet
  facet normal -0.866026 0 -0.5
    outer loop
      vertex 28.15 -15.9401 3
      vertex 27.325 -16 4.42894
      vertex 27.325 -12 4.42894
    endloop
  endfacet
  facet normal -0.866026 0 -0.5
    outer loop
      vertex 28.15 -8 3
      vertex 27.325 -2 4.42894
      vertex 28.15 -2 3
    endloop
  endfacet
  facet normal -0.866026 -0 -0.5
    outer loop
      vertex 27.325 -2 4.42894
      vertex 28.15 -8 3
      vertex 27.325 -8 4.42894
    endloop
  endfacet
  facet normal -0.866025 0 0.5
    outer loop
      vertex 28.1875 -12 0.0771637
      vertex 29.875 -8 3
      vertex 28.1875 -8 0.0771637
    endloop
  endfacet
  facet normal -0.866025 0 0.5
    outer loop
      vertex 29.875 -8 3
      vertex 28.1875 -12 0.0771637
      vertex 29.875 -12 3
    endloop
  endfacet
  facet normal -0 0 1
    outer loop
      vertex 24.8125 -8 0.0771637
      vertex 28.1875 -12 0.0771637
      vertex 28.1875 -8 0.0771637
    endloop
  endfacet
  facet normal 0 0 1
    outer loop
      vertex 28.1875 -12 0.0771637
      vertex 24.8125 -8 0.0771637
      vertex 24.8125 -12 0.0771637
    endloop
  endfacet
  facet normal -5.6514e-07 -1 0
    outer loop
      vertex 28.1875 -8 5.92284
      vertex 29.875 -8 6
      vertex 28.1875 -8 6
    endloop
  endfacet
  facet normal -5.6514e-07 -1 -0
    outer loop
      vertex 29.875 -8 6
      vertex 28.1875 -8 5.92284
      vertex 29.875 -8 3
    endloop
  endfacet
  facet normal 0 1 0
    outer loop
      vertex 29.875 -12 6
      vertex 27.325 -12 4.42894
      vertex 23.125 -12 6
    endloop
  endfacet
  facet normal 0 1 -0
    outer loop
      vertex 29.875 -12 3
      vertex 27.325 -12 4.42894
      vertex 29.875 -12 6
    endloop
  endfacet
  facet normal 0 1 0
    outer loop
      vertex 29.875 -12 3
      vertex 28.15 -12 3
      vertex 27.325 -12 4.42894
    endloop
  endfacet
  facet normal 0 1 0
    outer loop
      vertex 29.875 -12 3
      vertex 27.325 -12 1.57106
      vertex 28.15 -12 3
    endloop
  endfacet
  facet normal 0 1 0
    outer loop
      vertex 27.325 -12 1.57106
      vertex 28.1875 -12 0.0771637
      vertex 25.675 -12 1.57106
    endloop
  endfacet
  facet normal 0 1 -0
    outer loop
      vertex 28.1875 -12 0.0771637
      vertex 27.325 -12 1.57106
      vertex 29.875 -12 3
    endloop
  endfacet
  facet normal 0 1 -0
    outer loop
      vertex 25.675 -12 4.42894
      vertex 23.125 -12 6
      vertex 27.325 -12 4.42894
    endloop
  endfacet
  facet normal 0 1 0
    outer loop
      vertex 23.125 -12 3
      vertex 25.675 -12 4.42894
      vertex 24.85 -12 3
    endloop
  endfacet
  facet normal 0 1 0
    outer loop
      vertex 25.675 -12 4.42894
      vertex 23.125 -12 3
      vertex 23.125 -12 6
    endloop
  endfacet
  facet normal 0 1 0
    outer loop
      vertex 25.675 -12 1.57106
      vertex 23.125 -12 3
      vertex 24.85 -12 3
    endloop
  endfacet
  facet normal 0 1 0
    outer loop
      vertex 24.8125 -12 0.0771637
      vertex 25.675 -12 1.57106
      vertex 28.1875 -12 0.0771637
    endloop
  endfacet
  facet normal 0 1 0
    outer loop
      vertex 25.675 -12 1.57106
      vertex 24.8125 -12 0.0771637
      vertex 23.125 -12 3
    endloop
  endfacet
  facet normal -2.8257e-07 -1 1.63142e-07
    outer loop
      vertex 28.1875 -8 5.92284
      vertex 28.1875 -8 0.0771637
      vertex 29.875 -8 3
    endloop
  endfacet
  facet normal 0 -1 3.19191e-07
    outer loop
      vertex 24.8125 -8 5.92284
      vertex 25.675 -8 4.42894
      vertex 28.1875 -8 5.92284
    endloop
  endfacet
  facet normal -2.76427e-07 -1 1.59596e-07
    outer loop
      vertex 24.8125 -8 5.92284
      vertex 24.85 -8 3
      vertex 25.675 -8 4.42894
    endloop
  endfacet
  facet normal 0 -1 3.19191e-07
    outer loop
      vertex 25.675 -8 1.57106
      vertex 24.8125 -8 0.0771637
      vertex 27.325 -8 1.57106
    endloop
  endfacet
  facet normal 2.76427e-07 -1 1.59596e-07
    outer loop
      vertex 24.85 -8 3
      vertex 24.8125 -8 0.0771637
      vertex 25.675 -8 1.57106
    endloop
  endfacet
  facet normal -2.07454e-12 -1 1.63142e-07
    outer loop
      vertex 24.8125 -8 0.0771637
      vertex 24.85 -8 3
      vertex 24.8125 -8 5.92284
    endloop
  endfacet
  facet normal 0 -1 3.19191e-07
    outer loop
      vertex 27.325 -8 4.42894
      vertex 28.1875 -8 5.92284
      vertex 25.675 -8 4.42894
    endloop
  endfacet
  facet normal 2.76428e-07 -1 1.59595e-07
    outer loop
      vertex 28.15 -8 3
      vertex 28.1875 -8 5.92284
      vertex 27.325 -8 4.42894
    endloop
  endfacet
  facet normal 2.07444e-12 -1 1.63142e-07
    outer loop
      vertex 28.15 -8 3
      vertex 28.1875 -8 0.0771637
      vertex 28.1875 -8 5.92284
    endloop
  endfacet
  facet normal -2.76428e-07 -1 1.59595e-07
    outer loop
      vertex 27.325 -8 1.57106
      vertex 28.1875 -8 0.0771637
      vertex 28.15 -8 3
    endloop
  endfacet
  facet normal 0 -1 3.19191e-07
    outer loop
      vertex 28.1875 -8 0.0771637
      vertex 27.325 -8 1.57106
      vertex 24.8125 -8 0.0771637
    endloop
  endfacet
  facet normal -1 0 0
    outer loop
      vertex 29.875 -12 3
      vertex 29.875 -8 6
      vertex 29.875 -8 3
    endloop
  endfacet
  facet normal -1 -0 0
    outer loop
      vertex 29.875 -8 6
      vertex 29.875 -12 3
      vertex 29.875 -12 6
    endloop
  endfacet
  facet normal 1 -0 0
    outer loop
      vertex 23.125 -12 6
      vertex 23.125 -8 3
      vertex 23.125 -8 6
    endloop
  endfacet
  facet normal 1 0 0
    outer loop
      vertex 23.125 -8 3
      vertex 23.125 -12 6
      vertex 23.125 -12 3
    endloop
  endfacet
  facet normal 0.866025 1.19209e-07 0.5
    outer loop
      vertex 23.125 -8 3
      vertex 23.125 -12 3
      vertex 24.8125 -12 0.0771637
    endloop
  endfacet
  facet normal 0.866025 0 0.5
    outer loop
      vertex 24.8125 -8 0.0771637
      vertex 23.125 -8 3
      vertex 24.8125 -12 0.0771637
    endloop
  endfacet
  facet normal 5.6514e-07 -1 0
    outer loop
      vertex 23.125 -8 6
      vertex 24.8125 -8 5.92284
      vertex 24.8125 -8 6
    endloop
  endfacet
  facet normal 5.6514e-07 -1 0
    outer loop
      vertex 24.8125 -8 5.92284
      vertex 23.125 -8 6
      vertex 23.125 -8 3
    endloop
  endfacet
  facet normal 0 -1 0
    outer loop
      vertex 24.8125 -8 5.92284
      vertex 28.1875 -8 6
      vertex 24.8125 -8 6
    endloop
  endfacet
  facet normal 0 -1 -0
    outer loop
      vertex 28.1875 -8 6
      vertex 24.8125 -8 5.92284
      vertex 28.1875 -8 5.92284
    endloop
  endfacet
  facet normal 2.8257e-07 -1 1.63142e-07
    outer loop
      vertex 24.8125 -8 5.92284
      vertex 23.125 -8 3
      vertex 24.8125 -8 0.0771637
    endloop
  endfacet
endsolid OpenSCAD_Model
