solid OpenSCAD_Model
  facet normal 1 -0 0
    outer loop
      vertex 9.25 91 7
      vertex 9.25 110 0
      vertex 9.25 110 7
    endloop
  endfacet
  facet normal 1 0 0
    outer loop
      vertex 9.25 110 0
      vertex 9.25 91 7
      vertex 9.25 91 0
    endloop
  endfacet
  facet normal 1 -0 0
    outer loop
      vertex 9.25 0 7
      vertex 9.25 69 0
      vertex 9.25 69 7
    endloop
  endfacet
  facet normal 1 0 0
    outer loop
      vertex 9.25 69 0
      vertex 9.25 0 7
      vertex 9.25 0 0
    endloop
  endfacet
  facet normal 0 0 1
    outer loop
      vertex -9.25 91 7
      vertex -7.75 110 7
      vertex -9.25 110 7
    endloop
  endfacet
  facet normal 0 0 1
    outer loop
      vertex -7.75 110 7
      vertex -9.25 91 7
      vertex -7.75 89.5 7
    endloop
  endfacet
  facet normal 0 0 1
    outer loop
      vertex -24.25 89.5 7
      vertex -9.25 91 7
      vertex -24.25 91 7
    endloop
  endfacet
  facet normal 0 0 1
    outer loop
      vertex -9.25 91 7
      vertex -24.25 89.5 7
      vertex -7.75 89.5 7
    endloop
  endfacet
  facet normal 0 0 1
    outer loop
      vertex 9.25 110 7
      vertex 7.75 110 7
      vertex 9.25 91 7
    endloop
  endfacet
  facet normal -0 0 1
    outer loop
      vertex 9.25 91 7
      vertex 24.25 89.5 7
      vertex 24.25 91 7
    endloop
  endfacet
  facet normal 0 0 1
    outer loop
      vertex 9.25 91 7
      vertex 7.75 89.5 7
      vertex 24.25 89.5 7
    endloop
  endfacet
  facet normal 0 0 1
    outer loop
      vertex 7.75 89.5 7
      vertex 9.25 91 7
      vertex 7.75 110 7
    endloop
  endfacet
  facet normal 0 0 1
    outer loop
      vertex -7.75 70.5 7
      vertex -9.25 69 7
      vertex -7.75 0 7
    endloop
  endfacet
  facet normal -0 0 1
    outer loop
      vertex -24.25 70.5 7
      vertex -9.25 69 7
      vertex -7.75 70.5 7
    endloop
  endfacet
  facet normal 0 0 1
    outer loop
      vertex -9.25 69 7
      vertex -24.25 70.5 7
      vertex -24.25 69 7
    endloop
  endfacet
  facet normal 0 0 1
    outer loop
      vertex -7.75 0 7
      vertex -9.25 69 7
      vertex -9.25 0 7
    endloop
  endfacet
  facet normal 0 0 1
    outer loop
      vertex 24.25 70.5 7
      vertex 9.25 69 7
      vertex 24.25 69 7
    endloop
  endfacet
  facet normal -0 0 1
    outer loop
      vertex 7.75 70.5 7
      vertex 9.25 69 7
      vertex 24.25 70.5 7
    endloop
  endfacet
  facet normal 0 0 1
    outer loop
      vertex 7.75 0 7
      vertex 9.25 69 7
      vertex 7.75 70.5 7
    endloop
  endfacet
  facet normal 0 0 1
    outer loop
      vertex 9.25 69 7
      vertex 7.75 0 7
      vertex 9.25 0 7
    endloop
  endfacet
  facet normal 0 0 -1
    outer loop
      vertex -24.25 69 0
      vertex -9.25 91 0
      vertex -9.25 69 0
    endloop
  endfacet
  facet normal -0 0 -1
    outer loop
      vertex -9.25 91 0
      vertex -24.25 69 0
      vertex -24.25 91 0
    endloop
  endfacet
  facet normal 0 0 -1
    outer loop
      vertex -9.25 69 0
      vertex 9.25 69 0
      vertex 9.25 0 0
    endloop
  endfacet
  facet normal 0 0 -1
    outer loop
      vertex 9.25 69 0
      vertex -9.25 69 0
      vertex 9.25 91 0
    endloop
  endfacet
  facet normal 0 0 -1
    outer loop
      vertex -9.25 69 0
      vertex 9.25 0 0
      vertex -9.25 0 0
    endloop
  endfacet
  facet normal 0 0 -1
    outer loop
      vertex -9.25 91 0
      vertex 9.25 91 0
      vertex -9.25 69 0
    endloop
  endfacet
  facet normal 0 0 -1
    outer loop
      vertex 9.25 91 0
      vertex -9.25 91 0
      vertex 9.25 110 0
    endloop
  endfacet
  facet normal -0 0 -1
    outer loop
      vertex 9.25 110 0
      vertex -9.25 91 0
      vertex -9.25 110 0
    endloop
  endfacet
  facet normal 0 0 -1
    outer loop
      vertex 9.25 69 0
      vertex 24.25 91 0
      vertex 24.25 69 0
    endloop
  endfacet
  facet normal -0 0 -1
    outer loop
      vertex 24.25 91 0
      vertex 9.25 69 0
      vertex 9.25 91 0
    endloop
  endfacet
  facet normal -1 0 0
    outer loop
      vertex -9.25 91 0
      vertex -9.25 110 7
      vertex -9.25 110 0
    endloop
  endfacet
  facet normal -1 -0 0
    outer loop
      vertex -9.25 110 7
      vertex -9.25 91 0
      vertex -9.25 91 7
    endloop
  endfacet
  facet normal -1 0 0
    outer loop
      vertex -9.25 0 0
      vertex -9.25 69 7
      vertex -9.25 69 0
    endloop
  endfacet
  facet normal -1 -0 0
    outer loop
      vertex -9.25 69 7
      vertex -9.25 0 0
      vertex -9.25 0 7
    endloop
  endfacet
  facet normal 0 1 0
    outer loop
      vertex 9.25 110 7
      vertex 7.75 110 1.5
      vertex 7.75 110 7
    endloop
  endfacet
  facet normal 0 1 0
    outer loop
      vertex 7.75 110 1.5
      vertex 9.25 110 0
      vertex -7.75 110 1.5
    endloop
  endfacet
  facet normal 0 1 -0
    outer loop
      vertex 9.25 110 0
      vertex 7.75 110 1.5
      vertex 9.25 110 7
    endloop
  endfacet
  facet normal 0 1 -0
    outer loop
      vertex -7.75 110 1.5
      vertex -9.25 110 7
      vertex -7.75 110 7
    endloop
  endfacet
  facet normal 0 1 0
    outer loop
      vertex -7.75 110 1.5
      vertex -9.25 110 0
      vertex -9.25 110 7
    endloop
  endfacet
  facet normal 0 1 0
    outer loop
      vertex -9.25 110 0
      vertex -7.75 110 1.5
      vertex 9.25 110 0
    endloop
  endfacet
  facet normal 0 -1 0
    outer loop
      vertex -9.25 0 7
      vertex -7.75 0 1.5
      vertex -7.75 0 7
    endloop
  endfacet
  facet normal 0 -1 -0
    outer loop
      vertex -7.75 0 1.5
      vertex -9.25 0 0
      vertex 7.75 0 1.5
    endloop
  endfacet
  facet normal 0 -1 0
    outer loop
      vertex -9.25 0 0
      vertex -7.75 0 1.5
      vertex -9.25 0 7
    endloop
  endfacet
  facet normal 0 -1 0
    outer loop
      vertex 7.75 0 1.5
      vertex 9.25 0 7
      vertex 7.75 0 7
    endloop
  endfacet
  facet normal 0 -1 0
    outer loop
      vertex 7.75 0 1.5
      vertex 9.25 0 0
      vertex 9.25 0 7
    endloop
  endfacet
  facet normal 0 -1 0
    outer loop
      vertex 9.25 0 0
      vertex 7.75 0 1.5
      vertex -9.25 0 0
    endloop
  endfacet
  facet normal 1 0 0
    outer loop
      vertex 24.25 70.5 7
      vertex 24.25 69 7
      vertex 24.25 70.5 1.5
    endloop
  endfacet
  facet normal 1 0 0
    outer loop
      vertex 24.25 89.5 1.5
      vertex 24.25 91 7
      vertex 24.25 89.5 7
    endloop
  endfacet
  facet normal 1 0 0
    outer loop
      vertex 24.25 91 7
      vertex 24.25 89.5 1.5
      vertex 24.25 91 0
    endloop
  endfacet
  facet normal 1 -0 0
    outer loop
      vertex 24.25 70.5 1.5
      vertex 24.25 91 0
      vertex 24.25 89.5 1.5
    endloop
  endfacet
  facet normal 1 0 0
    outer loop
      vertex 24.25 70.5 1.5
      vertex 24.25 69 0
      vertex 24.25 91 0
    endloop
  endfacet
  facet normal 1 0 0
    outer loop
      vertex 24.25 69 0
      vertex 24.25 70.5 1.5
      vertex 24.25 69 7
    endloop
  endfacet
  facet normal -1 0 0
    outer loop
      vertex -24.25 91 0
      vertex -24.25 89.5 1.5
      vertex -24.25 91 7
    endloop
  endfacet
  facet normal -1 0 0
    outer loop
      vertex -24.25 91 0
      vertex -24.25 70.5 1.5
      vertex -24.25 89.5 1.5
    endloop
  endfacet
  facet normal -1 0 0
    outer loop
      vertex -24.25 69 0
      vertex -24.25 70.5 1.5
      vertex -24.25 91 0
    endloop
  endfacet
  facet normal -1 0 0
    outer loop
      vertex -24.25 69 7
      vertex -24.25 70.5 1.5
      vertex -24.25 69 0
    endloop
  endfacet
  facet normal -1 0 0
    outer loop
      vertex -24.25 70.5 1.5
      vertex -24.25 69 7
      vertex -24.25 70.5 7
    endloop
  endfacet
  facet normal -1 -0 0
    outer loop
      vertex -24.25 91 7
      vertex -24.25 89.5 1.5
      vertex -24.25 89.5 7
    endloop
  endfacet
  facet normal 0 1 -0
    outer loop
      vertex -9.25 91 0
      vertex -24.25 91 7
      vertex -9.25 91 7
    endloop
  endfacet
  facet normal 0 1 0
    outer loop
      vertex -24.25 91 7
      vertex -9.25 91 0
      vertex -24.25 91 0
    endloop
  endfacet
  facet normal 0 1 -0
    outer loop
      vertex 24.25 91 0
      vertex 9.25 91 7
      vertex 24.25 91 7
    endloop
  endfacet
  facet normal 0 1 0
    outer loop
      vertex 9.25 91 7
      vertex 24.25 91 0
      vertex 9.25 91 0
    endloop
  endfacet
  facet normal 0 -1 0
    outer loop
      vertex -24.25 69 0
      vertex -9.25 69 7
      vertex -24.25 69 7
    endloop
  endfacet
  facet normal 0 -1 -0
    outer loop
      vertex -9.25 69 7
      vertex -24.25 69 0
      vertex -9.25 69 0
    endloop
  endfacet
  facet normal 0 -1 0
    outer loop
      vertex 9.25 69 0
      vertex 24.25 69 7
      vertex 9.25 69 7
    endloop
  endfacet
  facet normal 0 -1 -0
    outer loop
      vertex 24.25 69 7
      vertex 9.25 69 0
      vertex 24.25 69 0
    endloop
  endfacet
  facet normal -1 0 0
    outer loop
      vertex 7.75 89.5 1.5
      vertex 7.75 110 7
      vertex 7.75 110 1.5
    endloop
  endfacet
  facet normal -1 -0 0
    outer loop
      vertex 7.75 110 7
      vertex 7.75 89.5 1.5
      vertex 7.75 89.5 7
    endloop
  endfacet
  facet normal -1 0 0
    outer loop
      vertex 7.75 0 1.5
      vertex 7.75 70.5 7
      vertex 7.75 70.5 1.5
    endloop
  endfacet
  facet normal -1 -0 0
    outer loop
      vertex 7.75 70.5 7
      vertex 7.75 0 1.5
      vertex 7.75 0 7
    endloop
  endfacet
  facet normal -0 0 1
    outer loop
      vertex -24.25 89.5 1.5
      vertex -7.75 70.5 1.5
      vertex -7.75 89.5 1.5
    endloop
  endfacet
  facet normal 0 0 1
    outer loop
      vertex -7.75 70.5 1.5
      vertex -24.25 89.5 1.5
      vertex -24.25 70.5 1.5
    endloop
  endfacet
  facet normal 0 0 1
    outer loop
      vertex -7.75 89.5 1.5
      vertex 7.75 89.5 1.5
      vertex 7.75 110 1.5
    endloop
  endfacet
  facet normal 0 0 1
    outer loop
      vertex 7.75 89.5 1.5
      vertex -7.75 89.5 1.5
      vertex 7.75 70.5 1.5
    endloop
  endfacet
  facet normal 0 0 1
    outer loop
      vertex -7.75 89.5 1.5
      vertex 7.75 110 1.5
      vertex -7.75 110 1.5
    endloop
  endfacet
  facet normal 0 0 1
    outer loop
      vertex 7.75 70.5 1.5
      vertex -7.75 89.5 1.5
      vertex -7.75 70.5 1.5
    endloop
  endfacet
  facet normal 0 0 1
    outer loop
      vertex 7.75 70.5 1.5
      vertex -7.75 70.5 1.5
      vertex 7.75 0 1.5
    endloop
  endfacet
  facet normal 0 0 1
    outer loop
      vertex 7.75 0 1.5
      vertex -7.75 70.5 1.5
      vertex -7.75 0 1.5
    endloop
  endfacet
  facet normal -0 0 1
    outer loop
      vertex 7.75 89.5 1.5
      vertex 24.25 70.5 1.5
      vertex 24.25 89.5 1.5
    endloop
  endfacet
  facet normal 0 0 1
    outer loop
      vertex 24.25 70.5 1.5
      vertex 7.75 89.5 1.5
      vertex 7.75 70.5 1.5
    endloop
  endfacet
  facet normal 1 -0 0
    outer loop
      vertex -7.75 89.5 7
      vertex -7.75 110 1.5
      vertex -7.75 110 7
    endloop
  endfacet
  facet normal 1 0 0
    outer loop
      vertex -7.75 110 1.5
      vertex -7.75 89.5 7
      vertex -7.75 89.5 1.5
    endloop
  endfacet
  facet normal 1 -0 0
    outer loop
      vertex -7.75 0 7
      vertex -7.75 70.5 1.5
      vertex -7.75 70.5 7
    endloop
  endfacet
  facet normal 1 0 0
    outer loop
      vertex -7.75 70.5 1.5
      vertex -7.75 0 7
      vertex -7.75 0 1.5
    endloop
  endfacet
  facet normal 0 -1 0
    outer loop
      vertex -24.25 89.5 1.5
      vertex -7.75 89.5 7
      vertex -24.25 89.5 7
    endloop
  endfacet
  facet normal 0 -1 -0
    outer loop
      vertex -7.75 89.5 7
      vertex -24.25 89.5 1.5
      vertex -7.75 89.5 1.5
    endloop
  endfacet
  facet normal 0 -1 0
    outer loop
      vertex 7.75 89.5 1.5
      vertex 24.25 89.5 7
      vertex 7.75 89.5 7
    endloop
  endfacet
  facet normal 0 -1 -0
    outer loop
      vertex 24.25 89.5 7
      vertex 7.75 89.5 1.5
      vertex 24.25 89.5 1.5
    endloop
  endfacet
  facet normal 0 1 -0
    outer loop
      vertex -7.75 70.5 1.5
      vertex -24.25 70.5 7
      vertex -7.75 70.5 7
    endloop
  endfacet
  facet normal 0 1 0
    outer loop
      vertex -24.25 70.5 7
      vertex -7.75 70.5 1.5
      vertex -24.25 70.5 1.5
    endloop
  endfacet
  facet normal 0 1 -0
    outer loop
      vertex 24.25 70.5 1.5
      vertex 7.75 70.5 7
      vertex 24.25 70.5 7
    endloop
  endfacet
  facet normal 0 1 0
    outer loop
      vertex 7.75 70.5 7
      vertex 24.25 70.5 1.5
      vertex 7.75 70.5 1.5
    endloop
  endfacet
endsolid OpenSCAD_Model
